M48
; DRILL file {KiCad 7.0.2-0} date 2024 December 01, Sunday 01:29:29
; FORMAT={-:-/ absolute / metric / decimal}
; #@! TF.CreationDate,2024-12-01T01:29:29-08:00
; #@! TF.GenerationSoftware,Kicad,Pcbnew,7.0.2-0
; #@! TF.FileFunction,Plated,1,2,PTH
FMAT,2
METRIC
; #@! TA.AperFunction,Plated,PTH,ViaDrill
T1C0.305
; #@! TA.AperFunction,Plated,PTH,ComponentDrill
T2C0.800
; #@! TA.AperFunction,Plated,PTH,ComponentDrill
T3C1.016
; #@! TA.AperFunction,Plated,PTH,ComponentDrill
T4C1.501
; #@! TA.AperFunction,Plated,PTH,ComponentDrill
T5C3.150
%
G90
G05
T1
X3.25Y-15.75
X6.25Y-15.75
X6.75Y-18.5
X6.75Y-21.0
X9.25Y-11.5
X9.5Y-15.0
X10.0Y-18.5
X10.0Y-21.0
X11.0Y-15.0
X13.0Y-9.5
X14.0Y-15.0
X15.5Y-15.0
X15.75Y-11.5
X16.75Y-8.25
X16.75Y-15.0
X17.25Y-7.0
X20.5Y-11.5
X22.0Y-9.5
X22.75Y-7.5
X25.25Y-7.5
X25.75Y-10.75
X27.0Y-16.75
X28.5Y-8.75
X28.5Y-14.25
X28.5Y-28.75
X29.25Y-22.25
X30.5Y-8.75
X30.5Y-10.615
X30.5Y-12.75
X30.75Y-18.75
X31.75Y-18.75
X32.25Y-22.25
X32.5Y-6.5
X32.5Y-17.5
X32.977Y-13.266
X33.0Y-12.25
X33.0Y-15.5
X33.25Y-27.75
X34.0Y-17.5
X34.75Y-18.75
X35.0Y-27.75
X35.115Y-13.151
X35.115Y-14.217
X35.115Y-15.28
X35.115Y-16.338
X35.25Y-22.25
X35.794Y-18.781
X36.75Y-18.75
X37.25Y-25.75
X37.75Y-18.75
X38.0Y-7.25
X38.385Y-13.151
X38.385Y-14.217
X38.385Y-15.25
X38.385Y-16.338
X39.5Y-17.5
X40.0Y-24.25
X40.0Y-25.25
X40.0Y-27.75
X40.0Y-28.75
X40.75Y-14.75
X41.25Y-28.75
X42.25Y-9.25
X42.739Y-24.989
X42.75Y-28.75
X43.0Y-14.0
X44.0Y-22.25
X44.296Y-8.872
X44.75Y-23.75
X45.0Y-7.25
X45.5Y-6.25
X45.75Y-11.0
X46.0Y-14.0
X46.5Y-16.5
X46.75Y-25.5
X47.5Y-22.25
X47.5Y-24.5
X49.0Y-29.5
X51.75Y-29.5
X54.0Y-28.5
X54.5Y-9.318
X54.5Y-10.182
X54.5Y-15.568
X54.5Y-16.432
X54.75Y-21.5
X57.0Y-28.5
X58.0Y-20.25
X59.0Y-21.0
X60.0Y-20.25
X65.0Y-8.5
X65.0Y-10.0
X66.0Y-9.25
T2
X67.457Y-8.139
X67.457Y-10.431
X67.457Y-19.569
X67.457Y-21.861
X72.275Y-12.463
X72.275Y-14.492
X72.275Y-16.521
X72.275Y-18.551
X74.056Y-11.449
X74.056Y-13.479
X74.056Y-15.508
X74.056Y-17.537
T3
X8.37Y-2.23
X8.37Y-4.77
X10.91Y-2.23
X10.91Y-4.77
X13.45Y-2.23
X13.45Y-4.77
X15.99Y-2.23
X15.99Y-4.77
X18.53Y-2.23
X18.53Y-4.77
X21.07Y-2.23
X21.07Y-4.77
X23.61Y-2.23
X23.61Y-4.77
X26.15Y-2.23
X26.15Y-4.77
X28.69Y-2.23
X28.69Y-4.77
X31.23Y-2.23
X31.23Y-4.77
X33.77Y-2.23
X33.77Y-4.77
X36.31Y-2.23
X36.31Y-4.77
X38.85Y-2.23
X38.85Y-4.77
X41.39Y-2.23
X41.39Y-4.77
X43.93Y-2.23
X43.93Y-4.77
X46.47Y-2.23
X46.47Y-4.77
X49.01Y-2.23
X49.01Y-4.77
X51.55Y-2.23
X51.55Y-4.77
X54.09Y-2.23
X54.09Y-4.77
X56.63Y-2.23
X56.63Y-4.77
T4
X73.167Y-6.88
X73.167Y-23.12
T5
X3.5Y-3.5
X3.5Y-26.5
X61.5Y-3.5
X61.5Y-26.0
T0
M30
