%TF.GenerationSoftware,KiCad,Pcbnew,7.0.2-0*%
%TF.CreationDate,2024-12-01T01:29:23-08:00*%
%TF.ProjectId,pizero-papoe,70697a65-726f-42d7-9061-706f652e6b69,0.1*%
%TF.SameCoordinates,PX652f520PY4a19ba0*%
%TF.FileFunction,Copper,L1,Top*%
%TF.FilePolarity,Positive*%
%FSLAX46Y46*%
G04 Gerber Fmt 4.6, Leading zero omitted, Abs format (unit mm)*
G04 Created by KiCad (PCBNEW 7.0.2-0) date 2024-12-01 01:29:23*
%MOMM*%
%LPD*%
G01*
G04 APERTURE LIST*
G04 Aperture macros list*
%AMRoundRect*
0 Rectangle with rounded corners*
0 $1 Rounding radius*
0 $2 $3 $4 $5 $6 $7 $8 $9 X,Y pos of 4 corners*
0 Add a 4 corners polygon primitive as box body*
4,1,4,$2,$3,$4,$5,$6,$7,$8,$9,$2,$3,0*
0 Add four circle primitives for the rounded corners*
1,1,$1+$1,$2,$3*
1,1,$1+$1,$4,$5*
1,1,$1+$1,$6,$7*
1,1,$1+$1,$8,$9*
0 Add four rect primitives between the rounded corners*
20,1,$1+$1,$2,$3,$4,$5,0*
20,1,$1+$1,$4,$5,$6,$7,0*
20,1,$1+$1,$6,$7,$8,$9,0*
20,1,$1+$1,$8,$9,$2,$3,0*%
G04 Aperture macros list end*
%TA.AperFunction,SMDPad,CuDef*%
%ADD10RoundRect,0.032500X-0.387500X-0.097500X0.387500X-0.097500X0.387500X0.097500X-0.387500X0.097500X0*%
%TD*%
%TA.AperFunction,SMDPad,CuDef*%
%ADD11R,1.700000X3.300000*%
%TD*%
%TA.AperFunction,SMDPad,CuDef*%
%ADD12R,2.000000X2.400000*%
%TD*%
%TA.AperFunction,SMDPad,CuDef*%
%ADD13RoundRect,0.150000X-0.512500X-0.150000X0.512500X-0.150000X0.512500X0.150000X-0.512500X0.150000X0*%
%TD*%
%TA.AperFunction,SMDPad,CuDef*%
%ADD14RoundRect,0.200000X-0.275000X0.200000X-0.275000X-0.200000X0.275000X-0.200000X0.275000X0.200000X0*%
%TD*%
%TA.AperFunction,SMDPad,CuDef*%
%ADD15RoundRect,0.200000X0.200000X0.275000X-0.200000X0.275000X-0.200000X-0.275000X0.200000X-0.275000X0*%
%TD*%
%TA.AperFunction,SMDPad,CuDef*%
%ADD16RoundRect,0.200000X0.275000X-0.200000X0.275000X0.200000X-0.275000X0.200000X-0.275000X-0.200000X0*%
%TD*%
%TA.AperFunction,SMDPad,CuDef*%
%ADD17RoundRect,0.150000X0.150000X-0.587500X0.150000X0.587500X-0.150000X0.587500X-0.150000X-0.587500X0*%
%TD*%
%TA.AperFunction,SMDPad,CuDef*%
%ADD18RoundRect,0.150000X0.512500X0.150000X-0.512500X0.150000X-0.512500X-0.150000X0.512500X-0.150000X0*%
%TD*%
%TA.AperFunction,ComponentPad*%
%ADD19C,2.499360*%
%TD*%
%TA.AperFunction,ComponentPad*%
%ADD20C,1.198880*%
%TD*%
%TA.AperFunction,SMDPad,CuDef*%
%ADD21RoundRect,0.075000X0.075000X-0.437500X0.075000X0.437500X-0.075000X0.437500X-0.075000X-0.437500X0*%
%TD*%
%TA.AperFunction,SMDPad,CuDef*%
%ADD22RoundRect,0.075000X0.437500X-0.075000X0.437500X0.075000X-0.437500X0.075000X-0.437500X-0.075000X0*%
%TD*%
%TA.AperFunction,SMDPad,CuDef*%
%ADD23R,4.250000X4.250000*%
%TD*%
%TA.AperFunction,SMDPad,CuDef*%
%ADD24RoundRect,0.218750X0.218750X0.256250X-0.218750X0.256250X-0.218750X-0.256250X0.218750X-0.256250X0*%
%TD*%
%TA.AperFunction,SMDPad,CuDef*%
%ADD25RoundRect,0.218750X-0.256250X0.218750X-0.256250X-0.218750X0.256250X-0.218750X0.256250X0.218750X0*%
%TD*%
%TA.AperFunction,SMDPad,CuDef*%
%ADD26RoundRect,0.250000X-0.650000X1.000000X-0.650000X-1.000000X0.650000X-1.000000X0.650000X1.000000X0*%
%TD*%
%TA.AperFunction,SMDPad,CuDef*%
%ADD27RoundRect,0.225000X-0.225000X-0.250000X0.225000X-0.250000X0.225000X0.250000X-0.225000X0.250000X0*%
%TD*%
%TA.AperFunction,SMDPad,CuDef*%
%ADD28RoundRect,0.225000X-0.250000X0.225000X-0.250000X-0.225000X0.250000X-0.225000X0.250000X0.225000X0*%
%TD*%
%TA.AperFunction,SMDPad,CuDef*%
%ADD29RoundRect,0.225000X0.225000X0.250000X-0.225000X0.250000X-0.225000X-0.250000X0.225000X-0.250000X0*%
%TD*%
%TA.AperFunction,SMDPad,CuDef*%
%ADD30RoundRect,0.250000X1.000000X-1.500000X1.000000X1.500000X-1.000000X1.500000X-1.000000X-1.500000X0*%
%TD*%
%TA.AperFunction,SMDPad,CuDef*%
%ADD31RoundRect,0.250000X0.650000X-0.325000X0.650000X0.325000X-0.650000X0.325000X-0.650000X-0.325000X0*%
%TD*%
%TA.AperFunction,SMDPad,CuDef*%
%ADD32R,1.198880X0.800100*%
%TD*%
%TA.AperFunction,ComponentPad*%
%ADD33C,6.000000*%
%TD*%
%TA.AperFunction,SMDPad,CuDef*%
%ADD34R,1.910000X0.760000*%
%TD*%
%TA.AperFunction,SMDPad,CuDef*%
%ADD35R,0.889000X1.680000*%
%TD*%
%TA.AperFunction,ComponentPad*%
%ADD36C,1.500000*%
%TD*%
%TA.AperFunction,ViaPad*%
%ADD37C,0.609600*%
%TD*%
%TA.AperFunction,Conductor*%
%ADD38C,0.254000*%
%TD*%
%TA.AperFunction,Conductor*%
%ADD39C,0.558800*%
%TD*%
%TA.AperFunction,Conductor*%
%ADD40C,0.304800*%
%TD*%
G04 APERTURE END LIST*
D10*
%TO.P,U2,1,SS*%
%TO.N,unconnected-(U2-SS-Pad1)*%
X21880000Y-20750000D03*
%TO.P,U2,2,SYNC*%
%TO.N,unconnected-(U2-SYNC-Pad2)*%
X21880000Y-21250000D03*
%TO.P,U2,3,BOOT*%
%TO.N,unconnected-(U2-BOOT-Pad3)*%
X21880000Y-21750000D03*
%TO.P,U2,4,VIN*%
%TO.N,unconnected-(U2-VIN-Pad4)*%
X21880000Y-22250000D03*
%TO.P,U2,5,PHASE*%
%TO.N,unconnected-(U2-PHASE-Pad5)*%
X21880000Y-22750000D03*
%TO.P,U2,6,PGND*%
%TO.N,unconnected-(U2-PGND-Pad6)*%
X21880000Y-23250000D03*
%TO.P,U2,7,EN*%
%TO.N,unconnected-(U2-EN-Pad7)*%
X24750000Y-23250000D03*
%TO.P,U2,8,PG*%
%TO.N,unconnected-(U2-PG-Pad8)*%
X24750000Y-22750000D03*
%TO.P,U2,9,VCC*%
%TO.N,unconnected-(U2-VCC-Pad9)*%
X24750000Y-22250000D03*
%TO.P,U2,10,FB*%
%TO.N,unconnected-(U2-FB-Pad10)*%
X24750000Y-21750000D03*
%TO.P,U2,11,COMP*%
%TO.N,unconnected-(U2-COMP-Pad11)*%
X24750000Y-21250000D03*
%TO.P,U2,12,FS*%
%TO.N,unconnected-(U2-FS-Pad12)*%
X24750000Y-20750000D03*
D11*
%TO.P,U2,13,EXP*%
%TO.N,unconnected-(U2-EXP-Pad13)*%
X23315000Y-22000000D03*
%TD*%
D12*
%TO.P,Y1,1,1*%
%TO.N,/PHY_OSC1*%
X37850000Y-9000000D03*
%TO.P,Y1,2,2*%
%TO.N,/PHY_OSC2*%
X34150000Y-9000000D03*
%TD*%
D13*
%TO.P,U4,1,VIN*%
%TO.N,/RPI_VBUS*%
X26612500Y-9800000D03*
%TO.P,U4,2,GND*%
%TO.N,GND*%
X26612500Y-10750000D03*
%TO.P,U4,3,EN*%
%TO.N,/RPI_VBUS*%
X26612500Y-11700000D03*
%TO.P,U4,4*%
%TO.N,N/C*%
X28887500Y-11700000D03*
%TO.P,U4,5,VOUT*%
%TO.N,+3V3*%
X28887500Y-9800000D03*
%TD*%
D14*
%TO.P,R26,1*%
%TO.N,Net-(C21-Pad1)*%
X41750000Y-16425000D03*
%TO.P,R26,2*%
%TO.N,/TPIN-*%
X41750000Y-18075000D03*
%TD*%
D15*
%TO.P,R24,1*%
%TO.N,Net-(D7-K)*%
X28575000Y-17500000D03*
%TO.P,R24,2*%
%TO.N,GND*%
X26925000Y-17500000D03*
%TD*%
D16*
%TO.P,R22,1*%
%TO.N,/LEDA_A*%
X67500000Y-4325000D03*
%TO.P,R22,2*%
%TO.N,+3V3*%
X67500000Y-2675000D03*
%TD*%
%TO.P,R21,1*%
%TO.N,/LEDB_A*%
X70000000Y-4325000D03*
%TO.P,R21,2*%
%TO.N,+3V3*%
X70000000Y-2675000D03*
%TD*%
%TO.P,R19,1*%
%TO.N,Net-(Q2-C2)*%
X23000000Y-9575000D03*
%TO.P,R19,2*%
%TO.N,GND*%
X23000000Y-7925000D03*
%TD*%
D14*
%TO.P,R17,1*%
%TO.N,Net-(C21-Pad1)*%
X43750000Y-16425000D03*
%TO.P,R17,2*%
%TO.N,/TPIN+*%
X43750000Y-18075000D03*
%TD*%
%TO.P,R16,1*%
%TO.N,Net-(T1-TDCT)*%
X43750000Y-11425000D03*
%TO.P,R16,2*%
%TO.N,/TPOUT-*%
X43750000Y-13075000D03*
%TD*%
%TO.P,R15,1*%
%TO.N,Net-(Q2-B)*%
X14000000Y-7925000D03*
%TO.P,R15,2*%
%TO.N,GND*%
X14000000Y-9575000D03*
%TD*%
%TO.P,R14,1*%
%TO.N,Net-(T1-TDCT)*%
X41750000Y-11425000D03*
%TO.P,R14,2*%
%TO.N,/TPOUT+*%
X41750000Y-13075000D03*
%TD*%
%TO.P,R13,1*%
%TO.N,Net-(D6-K)*%
X12000000Y-7925000D03*
%TO.P,R13,2*%
%TO.N,GND*%
X12000000Y-9575000D03*
%TD*%
%TO.P,R8,1*%
%TO.N,GND*%
X45750000Y-11425000D03*
%TO.P,R8,2*%
%TO.N,Net-(U1-RBIAS)*%
X45750000Y-13075000D03*
%TD*%
D16*
%TO.P,R3,1*%
%TO.N,Net-(U1-~{RESET})*%
X45750000Y-18075000D03*
%TO.P,R3,2*%
%TO.N,+3V3*%
X45750000Y-16425000D03*
%TD*%
D17*
%TO.P,Q3,1,G*%
%TO.N,Net-(Q2-C2)*%
X19300000Y-9687500D03*
%TO.P,Q3,2,S*%
%TO.N,/RPI_VBUS*%
X21200000Y-9687500D03*
%TO.P,Q3,3,D*%
%TO.N,+5V*%
X20250000Y-7812500D03*
%TD*%
D18*
%TO.P,Q2,1,E1*%
%TO.N,+5V*%
X17887500Y-9700000D03*
%TO.P,Q2,2*%
%TO.N,N/C*%
X17887500Y-8750000D03*
%TO.P,Q2,3,E2*%
%TO.N,/RPI_VBUS*%
X17887500Y-7800000D03*
%TO.P,Q2,4,C2*%
%TO.N,Net-(Q2-C2)*%
X15612500Y-7800000D03*
%TO.P,Q2,5,B*%
%TO.N,Net-(Q2-B)*%
X15612500Y-8750000D03*
%TO.P,Q2,6,C1*%
X15612500Y-9700000D03*
%TD*%
D16*
%TO.P,L2,1,1*%
%TO.N,Net-(T1-TDCT)*%
X45750000Y-9825000D03*
%TO.P,L2,2,2*%
%TO.N,+3V3*%
X45750000Y-8175000D03*
%TD*%
D19*
%TO.P,J1,*%
%TO.N,*%
X73166880Y-23120380D03*
X73166880Y-6879620D03*
D20*
%TO.P,J1,1*%
%TO.N,/TPOUT_T+*%
X74055880Y-11449080D03*
%TO.P,J1,2*%
%TO.N,/TPOUT_T-*%
X72275340Y-12462540D03*
%TO.P,J1,3*%
%TO.N,/TPIN_T+*%
X74055880Y-13478540D03*
%TO.P,J1,4*%
%TO.N,/TPIN_T-*%
X72275340Y-14492000D03*
%TO.P,J1,5*%
%TO.N,/SPARE_PAIR_1*%
X74055880Y-15508000D03*
%TO.P,J1,6*%
X72275340Y-16521460D03*
%TO.P,J1,7*%
%TO.N,/SPARE_PAIR_2*%
X74055880Y-17537460D03*
%TO.P,J1,8*%
X72275340Y-18550920D03*
%TO.P,J1,9,LED1-*%
%TO.N,/LEDA_K*%
X67456960Y-8139460D03*
%TO.P,J1,10,LED1+*%
%TO.N,/LEDA_A*%
X67456960Y-10430540D03*
%TO.P,J1,11,LED2-*%
%TO.N,/LEDB_K*%
X67456960Y-19569460D03*
%TO.P,J1,12,LED2+*%
%TO.N,/LEDB_A*%
X67456960Y-21860540D03*
%TD*%
D21*
%TO.P,U1,1,~{WOL}*%
%TO.N,unconnected-(U1-~{WOL}-Pad1)*%
X34800000Y-17587500D03*
%TO.P,U1,2,SO*%
%TO.N,/GPIO9_MISO*%
X35450000Y-17587500D03*
%TO.P,U1,3,SI*%
%TO.N,/GPIO10_MOSI*%
X36100000Y-17587500D03*
%TO.P,U1,4,SCK*%
%TO.N,/GPIO11_SCLK*%
X36750000Y-17587500D03*
%TO.P,U1,5,~{CS}*%
%TO.N,/GPIO8_CE0#*%
X37400000Y-17587500D03*
%TO.P,U1,6,~{RESET}*%
%TO.N,Net-(U1-~{RESET})*%
X38050000Y-17587500D03*
%TO.P,U1,7,VSSRX*%
%TO.N,GND*%
X38700000Y-17587500D03*
D22*
%TO.P,U1,8,TPIN-*%
%TO.N,/TPIN-*%
X39587500Y-16700000D03*
%TO.P,U1,9,TPIN+*%
%TO.N,/TPIN+*%
X39587500Y-16050000D03*
%TO.P,U1,10,RBIAS*%
%TO.N,Net-(U1-RBIAS)*%
X39587500Y-15400000D03*
%TO.P,U1,11,VDDTX*%
%TO.N,+3V3*%
X39587500Y-14750000D03*
%TO.P,U1,12,TPOUT-*%
%TO.N,/TPOUT-*%
X39587500Y-14100000D03*
%TO.P,U1,13,TPOUT+*%
%TO.N,/TPOUT+*%
X39587500Y-13450000D03*
%TO.P,U1,14,VSSTX*%
%TO.N,GND*%
X39587500Y-12800000D03*
D21*
%TO.P,U1,15,VDDRX*%
%TO.N,+3V3*%
X38700000Y-11912500D03*
%TO.P,U1,16,VDDPLL*%
X38050000Y-11912500D03*
%TO.P,U1,17,VSSPLL*%
%TO.N,GND*%
X37400000Y-11912500D03*
%TO.P,U1,18,VSSOSC*%
X36750000Y-11912500D03*
%TO.P,U1,19,OSC1*%
%TO.N,/PHY_OSC1*%
X36100000Y-11912500D03*
%TO.P,U1,20,OSC2*%
%TO.N,/PHY_OSC2*%
X35450000Y-11912500D03*
%TO.P,U1,21,VDDOSC*%
%TO.N,+3V3*%
X34800000Y-11912500D03*
D22*
%TO.P,U1,22,LEDB*%
%TO.N,/LEDB_K*%
X33912500Y-12800000D03*
%TO.P,U1,23,LEDA*%
%TO.N,/LEDA_K*%
X33912500Y-13450000D03*
%TO.P,U1,24,VDD*%
%TO.N,+3V3*%
X33912500Y-14100000D03*
%TO.P,U1,25,VCAP*%
%TO.N,Net-(U1-VCAP)*%
X33912500Y-14750000D03*
%TO.P,U1,26,VSS*%
%TO.N,GND*%
X33912500Y-15400000D03*
%TO.P,U1,27,CLKOUT*%
%TO.N,unconnected-(U1-CLKOUT-Pad27)*%
X33912500Y-16050000D03*
%TO.P,U1,28,~{INT}*%
%TO.N,/GPIO25*%
X33912500Y-16700000D03*
D23*
%TO.P,U1,29,PAD*%
%TO.N,GND*%
X36750000Y-14750000D03*
%TD*%
D24*
%TO.P,D7,1,K*%
%TO.N,Net-(D7-K)*%
X28537500Y-15500000D03*
%TO.P,D7,2,A*%
%TO.N,+3V3*%
X26962500Y-15500000D03*
%TD*%
D25*
%TO.P,D6,1,K*%
%TO.N,Net-(D6-K)*%
X10000000Y-7962500D03*
%TO.P,D6,2,A*%
%TO.N,+5V*%
X10000000Y-9537500D03*
%TD*%
D26*
%TO.P,D3,1,K*%
%TO.N,/POE_VPORTP_L*%
X55500000Y-24750000D03*
%TO.P,D3,2,A*%
%TO.N,/POE_VPORTN*%
X55500000Y-28750000D03*
%TD*%
D27*
%TO.P,C21,1*%
%TO.N,Net-(C21-Pad1)*%
X44475000Y-14750000D03*
%TO.P,C21,2*%
%TO.N,GND*%
X46025000Y-14750000D03*
%TD*%
%TO.P,C20,1*%
%TO.N,+3V3*%
X26975000Y-13500000D03*
%TO.P,C20,2*%
%TO.N,GND*%
X28525000Y-13500000D03*
%TD*%
%TO.P,C19,1*%
%TO.N,/RPI_VBUS*%
X26975000Y-8000000D03*
%TO.P,C19,2*%
%TO.N,GND*%
X28525000Y-8000000D03*
%TD*%
D28*
%TO.P,C18,1*%
%TO.N,GND*%
X43750000Y-8225000D03*
%TO.P,C18,2*%
%TO.N,Net-(T1-TDCT)*%
X43750000Y-9775000D03*
%TD*%
D27*
%TO.P,C16,1*%
%TO.N,+5V*%
X13475000Y-11500000D03*
%TO.P,C16,2*%
%TO.N,GND*%
X15025000Y-11500000D03*
%TD*%
D29*
%TO.P,C15,1*%
%TO.N,+5V*%
X11525000Y-11500000D03*
%TO.P,C15,2*%
%TO.N,GND*%
X9975000Y-11500000D03*
%TD*%
D30*
%TO.P,C12,1*%
%TO.N,+5V*%
X4750000Y-15750000D03*
%TO.P,C12,2*%
%TO.N,GND*%
X4750000Y-9250000D03*
%TD*%
D31*
%TO.P,C11,1*%
%TO.N,GND*%
X31250000Y-17475000D03*
%TO.P,C11,2*%
%TO.N,Net-(U1-VCAP)*%
X31250000Y-14525000D03*
%TD*%
D29*
%TO.P,C10,1*%
%TO.N,+3V3*%
X32025000Y-12000000D03*
%TO.P,C10,2*%
%TO.N,GND*%
X30475000Y-12000000D03*
%TD*%
%TO.P,C9,1*%
%TO.N,+3V3*%
X32025000Y-10000000D03*
%TO.P,C9,2*%
%TO.N,GND*%
X30475000Y-10000000D03*
%TD*%
D27*
%TO.P,C8,1*%
%TO.N,+3V3*%
X39975000Y-10000000D03*
%TO.P,C8,2*%
%TO.N,GND*%
X41525000Y-10000000D03*
%TD*%
%TO.P,C7,1*%
%TO.N,+3V3*%
X41475000Y-14750000D03*
%TO.P,C7,2*%
%TO.N,GND*%
X43025000Y-14750000D03*
%TD*%
%TO.P,C3,1*%
%TO.N,GND*%
X30475000Y-8000000D03*
%TO.P,C3,2*%
%TO.N,/PHY_OSC2*%
X32025000Y-8000000D03*
%TD*%
D29*
%TO.P,C2,1*%
%TO.N,GND*%
X41525000Y-8000000D03*
%TO.P,C2,2*%
%TO.N,/PHY_OSC1*%
X39975000Y-8000000D03*
%TD*%
%TO.P,C1,1*%
%TO.N,/POE_VPORTP_L*%
X56275000Y-22250000D03*
%TO.P,C1,2*%
%TO.N,/POE_VPORTN*%
X54725000Y-22250000D03*
%TD*%
D32*
%TO.P,D1,2,~{1}*%
%TO.N,/DATA_PAIR_2*%
X59051060Y-9230000D03*
%TO.P,D1,3,~{2}*%
%TO.N,/DATA_PAIR_1*%
X59053600Y-11770000D03*
%TO.P,D1,1,V+*%
%TO.N,/POE_VPORTP_L*%
X64948940Y-11770000D03*
%TO.P,D1,4,V-*%
%TO.N,/POE_VPORTN*%
X64946400Y-9230000D03*
%TD*%
%TO.P,D2,2,~{1}*%
%TO.N,/SPARE_PAIR_2*%
X64948940Y-20270000D03*
%TO.P,D2,3,~{2}*%
%TO.N,/SPARE_PAIR_1*%
X64946400Y-17730000D03*
%TO.P,D2,1,V+*%
%TO.N,/POE_VPORTP_L*%
X59051060Y-17730000D03*
%TO.P,D2,4,V-*%
%TO.N,/POE_VPORTN*%
X59053600Y-20270000D03*
%TD*%
D33*
%TO.P,H1,1*%
%TO.N,unconnected-(H1-Pad1)*%
X3500000Y-26500000D03*
%TD*%
%TO.P,H2,1*%
%TO.N,unconnected-(H2-Pad1)*%
X3500000Y-3500000D03*
%TD*%
%TO.P,H3,1*%
%TO.N,unconnected-(H3-Pad1)*%
X61500000Y-26000000D03*
%TD*%
%TO.P,H4,1*%
%TO.N,unconnected-(H4-Pad1)*%
X61500000Y-3500000D03*
%TD*%
D34*
%TO.P,T1,1,TD+*%
%TO.N,/TPOUT+*%
X48115000Y-9305000D03*
%TO.P,T1,2,TDCT*%
%TO.N,Net-(T1-TDCT)*%
X48115000Y-10575000D03*
%TO.P,T1,3,TD-*%
%TO.N,/TPOUT-*%
X48115000Y-11845000D03*
%TO.P,T1,4*%
%TO.N,N/C*%
X48115000Y-13115000D03*
%TO.P,T1,5*%
X48115000Y-14385000D03*
%TO.P,T1,6,RD+*%
%TO.N,/TPIN+*%
X48115000Y-15655000D03*
%TO.P,T1,7,RDCT*%
%TO.N,unconnected-(T1-RDCT-Pad7)*%
X48115000Y-16925000D03*
%TO.P,T1,8,RD-*%
%TO.N,/TPIN-*%
X48115000Y-18195000D03*
%TO.P,T1,9,RX-*%
%TO.N,/TPIN_T-*%
X56885000Y-18195000D03*
%TO.P,T1,10,RXCT*%
%TO.N,/DATA_PAIR_1*%
X56885000Y-16925000D03*
%TO.P,T1,11,RX+*%
%TO.N,/TPIN_T+*%
X56885000Y-15655000D03*
%TO.P,T1,12*%
%TO.N,N/C*%
X56885000Y-14385000D03*
%TO.P,T1,13*%
X56885000Y-13115000D03*
%TO.P,T1,14,TX-*%
%TO.N,/TPOUT_T-*%
X56885000Y-11845000D03*
%TO.P,T1,15,TXCT*%
%TO.N,/DATA_PAIR_2*%
X56885000Y-10575000D03*
%TO.P,T1,16,TX+*%
%TO.N,/TPOUT_T+*%
X56885000Y-9305000D03*
%TD*%
D35*
%TO.P,P2,1,P1*%
%TO.N,/RPI_3V3_1*%
X8370000Y-6080000D03*
%TO.P,P2,2,P2*%
%TO.N,/RPI_VBUS*%
X8370000Y-920000D03*
%TO.P,P2,3,P3*%
%TO.N,/GPIO1_SDA1*%
X10910000Y-6080000D03*
%TO.P,P2,4,P4*%
%TO.N,/RPI_VBUS*%
X10910000Y-920000D03*
%TO.P,P2,5,P5*%
%TO.N,/GPIO3_SCL1*%
X13450000Y-6080000D03*
%TO.P,P2,6,P6*%
%TO.N,GND*%
X13450000Y-920000D03*
%TO.P,P2,7,P7*%
%TO.N,/GPIO4*%
X15990000Y-6080000D03*
%TO.P,P2,8,P8*%
%TO.N,/GPIO14_TXD0*%
X15990000Y-920000D03*
%TO.P,P2,9,P9*%
%TO.N,GND*%
X18530000Y-6080000D03*
%TO.P,P2,10,P10*%
%TO.N,/GPIO15_RXD0*%
X18530000Y-920000D03*
%TO.P,P2,11,P11*%
%TO.N,/GPIO17*%
X21070000Y-6080000D03*
%TO.P,P2,12,P12*%
%TO.N,/GPIO18*%
X21070000Y-920000D03*
%TO.P,P2,13,P13*%
%TO.N,/GPIO27*%
X23610000Y-6080000D03*
%TO.P,P2,14,P14*%
%TO.N,GND*%
X23610000Y-920000D03*
%TO.P,P2,15,P15*%
%TO.N,/GPIO22*%
X26150000Y-6080000D03*
%TO.P,P2,16,P16*%
%TO.N,/GPIO23*%
X26150000Y-920000D03*
%TO.P,P2,17,P17*%
%TO.N,/RPI_3V3_2*%
X28690000Y-6080000D03*
%TO.P,P2,18,P18*%
%TO.N,/GPIO24*%
X28690000Y-920000D03*
%TO.P,P2,19,P19*%
%TO.N,/GPIO10_MOSI*%
X31230000Y-6080000D03*
%TO.P,P2,20,P20*%
%TO.N,GND*%
X31230000Y-920000D03*
%TO.P,P2,21,P21*%
%TO.N,/GPIO9_MISO*%
X33770000Y-6080000D03*
%TO.P,P2,22,P22*%
%TO.N,/GPIO25*%
X33770000Y-920000D03*
%TO.P,P2,23,P23*%
%TO.N,/GPIO11_SCLK*%
X36310000Y-6080000D03*
%TO.P,P2,24,P24*%
%TO.N,/GPIO8_CE0#*%
X36310000Y-920000D03*
%TO.P,P2,25,P25*%
%TO.N,GND*%
X38850000Y-6080000D03*
%TO.P,P2,26,P26*%
%TO.N,/GPIO7_CE1#*%
X38850000Y-920000D03*
D36*
%TO.P,P2,1,P1*%
%TO.N,/RPI_3V3_1*%
X8370000Y-4770000D03*
%TO.P,P2,2,P2*%
%TO.N,/RPI_VBUS*%
X8370000Y-2230000D03*
%TO.P,P2,3,P3*%
%TO.N,/GPIO1_SDA1*%
X10910000Y-4770000D03*
%TO.P,P2,5,P5*%
%TO.N,/GPIO3_SCL1*%
X13450000Y-4770000D03*
%TO.P,P2,7,P7*%
%TO.N,/GPIO4*%
X15990000Y-4770000D03*
%TO.P,P2,9,P9*%
%TO.N,GND*%
X18530000Y-4770000D03*
%TO.P,P2,11,P11*%
%TO.N,/GPIO17*%
X21070000Y-4770000D03*
%TO.P,P2,13,P13*%
%TO.N,/GPIO27*%
X23610000Y-4770000D03*
%TO.P,P2,15,P15*%
%TO.N,/GPIO22*%
X26150000Y-4770000D03*
%TO.P,P2,17,P17*%
%TO.N,/RPI_3V3_2*%
X28690000Y-4770000D03*
%TO.P,P2,19,P19*%
%TO.N,/GPIO10_MOSI*%
X31230000Y-4770000D03*
%TO.P,P2,21,P21*%
%TO.N,/GPIO9_MISO*%
X33770000Y-4770000D03*
%TO.P,P2,23,P23*%
%TO.N,/GPIO11_SCLK*%
X36310000Y-4770000D03*
%TO.P,P2,25,P25*%
%TO.N,GND*%
X38850000Y-4770000D03*
%TO.P,P2,4,P4*%
%TO.N,/RPI_VBUS*%
X10910000Y-2230000D03*
%TO.P,P2,6,P6*%
%TO.N,GND*%
X13450000Y-2230000D03*
%TO.P,P2,8,P8*%
%TO.N,/GPIO14_TXD0*%
X15990000Y-2230000D03*
%TO.P,P2,10,P10*%
%TO.N,/GPIO15_RXD0*%
X18530000Y-2230000D03*
%TO.P,P2,12,P12*%
%TO.N,/GPIO18*%
X21070000Y-2230000D03*
%TO.P,P2,14,P14*%
%TO.N,GND*%
X23610000Y-2230000D03*
%TO.P,P2,16,P16*%
%TO.N,/GPIO23*%
X26150000Y-2230000D03*
%TO.P,P2,18,P18*%
%TO.N,/GPIO24*%
X28690000Y-2230000D03*
%TO.P,P2,20,P20*%
%TO.N,GND*%
X31230000Y-2230000D03*
%TO.P,P2,22,P22*%
%TO.N,/GPIO25*%
X33770000Y-2230000D03*
%TO.P,P2,24,P24*%
%TO.N,/GPIO8_CE0#*%
X36310000Y-2230000D03*
%TO.P,P2,26,P26*%
%TO.N,/GPIO7_CE1#*%
X38850000Y-2230000D03*
%TO.P,P2,27,P27*%
%TO.N,/GPIO0_ID_SD*%
X41390000Y-4770000D03*
%TO.P,P2,29,P29*%
%TO.N,/GPIO5*%
X43930000Y-4770000D03*
%TO.P,P2,31,P31*%
%TO.N,/GPIO6*%
X46470000Y-4770000D03*
%TO.P,P2,33,P33*%
%TO.N,/GPIO13*%
X49010000Y-4770000D03*
%TO.P,P2,35,P35*%
%TO.N,/GPIO19*%
X51550000Y-4770000D03*
%TO.P,P2,37,P37*%
%TO.N,/GPIO26*%
X54090000Y-4770000D03*
%TO.P,P2,39,P39*%
%TO.N,GND*%
X56630000Y-4770000D03*
%TO.P,P2,40,P40*%
%TO.N,/GPIO21_SCLK*%
X56630000Y-2230000D03*
%TO.P,P2,38,P38*%
%TO.N,/GPIO20_MOSI*%
X54090000Y-2230000D03*
%TO.P,P2,36,P36*%
%TO.N,/GPIO16_CE2#*%
X51550000Y-2230000D03*
%TO.P,P2,34,P34*%
%TO.N,GND*%
X49010000Y-2230000D03*
%TO.P,P2,32,P32*%
%TO.N,/GPIO12*%
X46470000Y-2230000D03*
%TO.P,P2,30,P30*%
%TO.N,GND*%
X43930000Y-2230000D03*
%TO.P,P2,28,P28*%
%TO.N,/GPIO1_ID_SC*%
X41390000Y-2230000D03*
D35*
%TO.P,P2,27,P27*%
%TO.N,/GPIO0_ID_SD*%
X41390000Y-6080000D03*
%TO.P,P2,29,P29*%
%TO.N,/GPIO5*%
X43930000Y-6080000D03*
%TO.P,P2,31,P31*%
%TO.N,/GPIO6*%
X46470000Y-6080000D03*
%TO.P,P2,33,P33*%
%TO.N,/GPIO13*%
X49010000Y-6080000D03*
%TO.P,P2,35,P35*%
%TO.N,/GPIO19*%
X51550000Y-6080000D03*
%TO.P,P2,37,P37*%
%TO.N,/GPIO26*%
X54090000Y-6080000D03*
%TO.P,P2,39,P39*%
%TO.N,GND*%
X56630000Y-6080000D03*
%TO.P,P2,40,P40*%
%TO.N,/GPIO21_SCLK*%
X56630000Y-920000D03*
%TO.P,P2,38,P38*%
%TO.N,/GPIO20_MOSI*%
X54090000Y-920000D03*
%TO.P,P2,36,P36*%
%TO.N,/GPIO16_CE2#*%
X51550000Y-920000D03*
%TO.P,P2,34,P34*%
%TO.N,GND*%
X49010000Y-920000D03*
%TO.P,P2,32,P32*%
%TO.N,/GPIO12*%
X46470000Y-920000D03*
%TO.P,P2,30,P30*%
%TO.N,GND*%
X43930000Y-920000D03*
%TO.P,P2,28,P28*%
%TO.N,/GPIO1_ID_SC*%
X41390000Y-920000D03*
%TD*%
D37*
%TO.N,GND*%
X13000000Y-9500000D03*
%TO.N,+5V*%
X6250000Y-15750000D03*
X3250000Y-15750000D03*
%TO.N,GND*%
X44295859Y-8871593D03*
X42250000Y-9250000D03*
X30500000Y-10614990D03*
X35114990Y-14216625D03*
X35114990Y-13150963D03*
X35114990Y-15280474D03*
X35114990Y-16338394D03*
X38385010Y-13150963D03*
X38385010Y-14216625D03*
X38385010Y-15250000D03*
X38385010Y-16338394D03*
X32500000Y-17500000D03*
X20500000Y-11500000D03*
X27000000Y-16750000D03*
X25250000Y-7500000D03*
X22750000Y-7500000D03*
X30500000Y-8750000D03*
X28500000Y-8750000D03*
X25750000Y-10750000D03*
X30500000Y-12750000D03*
X28500000Y-14250000D03*
X9500000Y-15000000D03*
X11000000Y-15000000D03*
X15750000Y-11500000D03*
X9250000Y-11500000D03*
X10000000Y-21000000D03*
X6750000Y-21000000D03*
X10000000Y-18500000D03*
X6750000Y-18500000D03*
X45750000Y-11000000D03*
X33000000Y-15500000D03*
X46000000Y-14000000D03*
X43000000Y-14000000D03*
X39500000Y-17500000D03*
%TO.N,*%
X44750000Y-23750000D03*
X16750000Y-15000000D03*
X15500000Y-15000000D03*
X14000000Y-15000000D03*
X29250000Y-22250000D03*
X35250000Y-22250000D03*
X32250000Y-22250000D03*
X40000000Y-24250000D03*
X33250000Y-27750000D03*
X35000000Y-27750000D03*
X40000000Y-28750000D03*
X40000000Y-27750000D03*
X42750000Y-28750000D03*
X51750000Y-29500000D03*
X49000000Y-29500000D03*
%TO.N,+3V3*%
X38000000Y-7250201D03*
X45000000Y-7250201D03*
X46500000Y-16500000D03*
X40750000Y-14750000D03*
%TO.N,*%
X41250000Y-28750000D03*
X28500000Y-28750000D03*
%TO.N,/RPI_VBUS*%
X17250000Y-7000000D03*
%TO.N,/GPIO9_MISO*%
X34750000Y-18750000D03*
%TO.N,/GPIO10_MOSI*%
X35794479Y-18780732D03*
%TO.N,/GPIO11_SCLK*%
X36750000Y-18750000D03*
%TO.N,/GPIO8_CE0#*%
X37750000Y-18750000D03*
%TO.N,/GPIO25*%
X34000000Y-17500000D03*
X32500000Y-6500000D03*
%TO.N,/GPIO0_ID_SD*%
X45500000Y-6250000D03*
%TO.N,*%
X22000000Y-9500000D03*
X16750000Y-8250000D03*
%TO.N,/POE_VPORTN*%
X54750000Y-21500000D03*
X54000000Y-28500000D03*
X57000000Y-28500000D03*
X37250000Y-25750000D03*
X47500000Y-24500000D03*
X42739058Y-24989422D03*
X60000000Y-20250000D03*
X58000000Y-20250000D03*
X65000000Y-10000000D03*
X65000000Y-8500000D03*
X59000000Y-21000000D03*
X66000000Y-9250000D03*
%TO.N,*%
X46750000Y-25500000D03*
X47500000Y-22250000D03*
%TO.N,/LEDB_K*%
X31750000Y-18750000D03*
X33000000Y-12250000D03*
%TO.N,/LEDA_K*%
X30750000Y-18750000D03*
X32976504Y-13265566D03*
%TO.N,/TPIN_T+*%
X54500000Y-15568200D03*
%TO.N,/TPOUT_T+*%
X54500000Y-9318200D03*
%TO.N,/TPOUT_T-*%
X54500000Y-10181800D03*
%TO.N,/TPIN_T-*%
X54500000Y-16431800D03*
%TO.N,*%
X44000000Y-22250000D03*
X40000000Y-25250000D03*
%TD*%
D38*
%TO.N,GND*%
X14000000Y-9500000D02*
X13000000Y-9500000D01*
X12000000Y-9500000D02*
X13000000Y-9500000D01*
D39*
%TO.N,+5V*%
X4750000Y-15751200D02*
X6248800Y-15751200D01*
D38*
X6248800Y-15751200D02*
X6250000Y-15750000D01*
D39*
X4750000Y-15751200D02*
X3251200Y-15751200D01*
D38*
X3251200Y-15751200D02*
X3250000Y-15750000D01*
%TO.N,GND*%
X43750000Y-8250000D02*
X43750000Y-8325734D01*
X43750000Y-8325734D02*
X44295859Y-8871593D01*
X42250000Y-9250000D02*
X42250000Y-8750000D01*
X42250000Y-8750000D02*
X41500000Y-8000000D01*
X41500000Y-10000000D02*
X42250000Y-9250000D01*
X30500000Y-10000000D02*
X30500000Y-10614990D01*
X35120277Y-13156250D02*
X35114990Y-13150963D01*
X36218750Y-14218750D02*
X35117115Y-14218750D01*
X35114990Y-15280474D02*
X35114990Y-14216625D01*
X35115766Y-15281250D02*
X35114990Y-15280474D01*
X36218750Y-15281250D02*
X35115766Y-15281250D01*
X35117115Y-14218750D02*
X35114990Y-14216625D01*
X33900000Y-15400000D02*
X34995464Y-15400000D01*
X34995464Y-15400000D02*
X35114990Y-15280474D01*
X36218750Y-13156250D02*
X35120277Y-13156250D01*
X36218750Y-16343750D02*
X35120346Y-16343750D01*
X35120346Y-16343750D02*
X35114990Y-16338394D01*
X38379723Y-13156250D02*
X38385010Y-13150963D01*
X38385010Y-14216625D02*
X38385010Y-13150963D01*
X38735973Y-12800000D02*
X38689809Y-12846164D01*
X39600000Y-12800000D02*
X38735973Y-12800000D01*
X38689809Y-12846164D02*
X38385010Y-13150963D01*
X38343750Y-16297134D02*
X38385010Y-16338394D01*
X37281250Y-14218750D02*
X38382885Y-14218750D01*
X37281250Y-13156250D02*
X38379723Y-13156250D01*
X38382885Y-14218750D02*
X38385010Y-14216625D01*
X37281250Y-16343750D02*
X38379654Y-16343750D01*
X38379654Y-16343750D02*
X38385010Y-16338394D01*
X38343750Y-15281250D02*
X38343750Y-16297134D01*
X31250000Y-17500000D02*
X32500000Y-17500000D01*
X21250760Y-11550000D02*
X20550000Y-11550000D01*
X20550000Y-11550000D02*
X20500000Y-11500000D01*
X27000000Y-17500000D02*
X27000000Y-16750000D01*
X25000000Y-8000000D02*
X25000000Y-7750000D01*
X25000000Y-7750000D02*
X25250000Y-7500000D01*
X23000000Y-8000000D02*
X23000000Y-7750000D01*
X23000000Y-7750000D02*
X22750000Y-7500000D01*
X30500000Y-8000000D02*
X30500000Y-8750000D01*
X28500000Y-8000000D02*
X28500000Y-8750000D01*
X26650000Y-10750000D02*
X25750000Y-10750000D01*
X30500000Y-12000000D02*
X30500000Y-12750000D01*
X28500000Y-13500000D02*
X28500000Y-14250000D01*
D39*
X10200000Y-15000000D02*
X9500000Y-15000000D01*
X10200000Y-15000000D02*
X11000000Y-15000000D01*
D38*
X15000000Y-11500000D02*
X15750000Y-11500000D01*
X10000000Y-11500000D02*
X9250000Y-11500000D01*
D39*
X8370000Y-21000000D02*
X10000000Y-21000000D01*
X8370000Y-21000000D02*
X6750000Y-21000000D01*
X8370000Y-18500000D02*
X10000000Y-18500000D01*
X8370000Y-18500000D02*
X6750000Y-18500000D01*
D38*
X37400000Y-11900000D02*
X37400000Y-13037500D01*
X37400000Y-13037500D02*
X37281250Y-13156250D01*
X36750000Y-11900000D02*
X36750000Y-12625000D01*
X36750000Y-12625000D02*
X36218750Y-13156250D01*
X45750000Y-11500000D02*
X45750000Y-11000000D01*
X33900000Y-15400000D02*
X33100000Y-15400000D01*
X33100000Y-15400000D02*
X33000000Y-15500000D01*
X37281250Y-16343750D02*
X36218750Y-16343750D01*
X37281250Y-15281250D02*
X38343750Y-15281250D01*
X36218750Y-15281250D02*
X37281250Y-15281250D01*
X36218750Y-14218750D02*
X37281250Y-14218750D01*
X36218750Y-13156250D02*
X37281250Y-13156250D01*
X46000000Y-14750000D02*
X46000000Y-14000000D01*
X43000000Y-14750000D02*
X43000000Y-14000000D01*
X56630000Y-6080000D02*
X56630000Y-4770000D01*
X49010000Y-920000D02*
X49010000Y-2230000D01*
X43930000Y-920000D02*
X43930000Y-2230000D01*
X38850000Y-4770000D02*
X38850000Y-6080000D01*
X31230000Y-2230000D02*
X31230000Y-920000D01*
X23610000Y-920000D02*
X23610000Y-2230000D01*
X18530000Y-4770000D02*
X18530000Y-6080000D01*
X13450000Y-920000D02*
X13450000Y-2230000D01*
X38700000Y-17600000D02*
X39400000Y-17600000D01*
X39400000Y-17600000D02*
X39500000Y-17500000D01*
X38700000Y-17600000D02*
X38700000Y-17700000D01*
%TO.N,*%
X43904300Y-24277500D02*
X44222500Y-24277500D01*
X44222500Y-24277500D02*
X44750000Y-23750000D01*
X17650000Y-15115000D02*
X16865000Y-15115000D01*
X16865000Y-15115000D02*
X16750000Y-15000000D01*
X14800000Y-15000000D02*
X15500000Y-15000000D01*
X14800000Y-15000000D02*
X14000000Y-15000000D01*
D39*
X30750000Y-22250000D02*
X29250000Y-22250000D01*
X27750000Y-22250000D02*
X29250000Y-22250000D01*
X36250000Y-22250000D02*
X35250000Y-22250000D01*
X33750000Y-22250000D02*
X35250000Y-22250000D01*
X33750000Y-22250000D02*
X32250000Y-22250000D01*
X30750000Y-22250000D02*
X32250000Y-22250000D01*
D40*
X38595700Y-24912500D02*
X38595700Y-24277500D01*
X38595700Y-24277500D02*
X39972500Y-24277500D01*
X39972500Y-24277500D02*
X40000000Y-24250000D01*
D39*
X34200000Y-27750000D02*
X33250000Y-27750000D01*
X34200000Y-27750000D02*
X35000000Y-27750000D01*
D40*
X38595700Y-28722500D02*
X39972500Y-28722500D01*
X39972500Y-28722500D02*
X40000000Y-28750000D01*
X38595700Y-28087500D02*
X39662500Y-28087500D01*
X39662500Y-28087500D02*
X40000000Y-27750000D01*
X43904300Y-28722500D02*
X42777500Y-28722500D01*
X42777500Y-28722500D02*
X42750000Y-28750000D01*
D38*
X51750000Y-28500000D02*
X51750000Y-29500000D01*
X49000000Y-28500000D02*
X49000000Y-29500000D01*
%TO.N,+3V3*%
X45000000Y-7250201D02*
X45000000Y-7500000D01*
X45000000Y-7500000D02*
X45750000Y-8250000D01*
X45000000Y-7250201D02*
X43250000Y-7250201D01*
X67500000Y-2750000D02*
X66250000Y-2750000D01*
X66250000Y-2750000D02*
X65500000Y-3500000D01*
X65500000Y-3500000D02*
X65500000Y-5000000D01*
X65500000Y-5000000D02*
X63249799Y-7250201D01*
X63249799Y-7250201D02*
X45500000Y-7250201D01*
X45500000Y-7250201D02*
X45000000Y-7250201D01*
X32000000Y-10000000D02*
X31379000Y-10621000D01*
X31379000Y-10621000D02*
X31379000Y-11250000D01*
X32000000Y-12000000D02*
X31379000Y-11379000D01*
X31379000Y-11379000D02*
X31379000Y-11250000D01*
X29710201Y-12289799D02*
X29710201Y-11250000D01*
X29710201Y-11250000D02*
X29710201Y-10455201D01*
X29710201Y-11250000D02*
X31379000Y-11250000D01*
X29250000Y-12750000D02*
X29710201Y-12289799D01*
X29710201Y-10455201D02*
X29055000Y-9800000D01*
X29055000Y-9800000D02*
X28850000Y-9800000D01*
X27775000Y-12750000D02*
X29250000Y-12750000D01*
X27000000Y-13500000D02*
X27025000Y-13500000D01*
X27025000Y-13500000D02*
X27775000Y-12750000D01*
X40750000Y-14750000D02*
X39600000Y-14750000D01*
X38700000Y-11300000D02*
X39250000Y-10750000D01*
X39250000Y-10750000D02*
X40000000Y-10000000D01*
X38446000Y-10750000D02*
X39250000Y-10750000D01*
X38050000Y-11900000D02*
X38050000Y-11146000D01*
X38050000Y-11146000D02*
X38446000Y-10750000D01*
X38700000Y-11900000D02*
X38700000Y-11300000D01*
X38000000Y-7250201D02*
X30000000Y-7250201D01*
X29500000Y-9355000D02*
X29500000Y-7750201D01*
X29500000Y-7750201D02*
X30000000Y-7250201D01*
X29055000Y-9800000D02*
X29500000Y-9355000D01*
X32000000Y-13228866D02*
X32000000Y-12629000D01*
X32871134Y-14100000D02*
X32000000Y-13228866D01*
X33900000Y-14100000D02*
X32871134Y-14100000D01*
X32000000Y-12629000D02*
X32000000Y-12000000D01*
X27000700Y-15500000D02*
X27000700Y-13500700D01*
X27000700Y-13500700D02*
X27000000Y-13500000D01*
X32000000Y-10000000D02*
X32750000Y-10750000D01*
X32750000Y-10750000D02*
X34404000Y-10750000D01*
X34404000Y-10750000D02*
X34800000Y-11146000D01*
X34800000Y-11146000D02*
X34800000Y-11900000D01*
X67500000Y-2750000D02*
X70000000Y-2750000D01*
X38000000Y-7250201D02*
X40750000Y-7250201D01*
X43250000Y-7250201D02*
X40750000Y-7250201D01*
X45750000Y-16500000D02*
X46500000Y-16500000D01*
X40750000Y-14750000D02*
X41500000Y-14750000D01*
X40750000Y-9275000D02*
X40750000Y-7250201D01*
X40000000Y-10000000D02*
X40025000Y-10000000D01*
X40025000Y-10000000D02*
X40750000Y-9275000D01*
%TO.N,Net-(U1-VCAP)*%
X31250000Y-14500000D02*
X32304000Y-14500000D01*
X32304000Y-14500000D02*
X32554000Y-14750000D01*
X32554000Y-14750000D02*
X33146000Y-14750000D01*
X33146000Y-14750000D02*
X33900000Y-14750000D01*
%TO.N,*%
X25000000Y-14750000D02*
X25000000Y-13250000D01*
D39*
%TO.N,/DATA_PAIR_2*%
X56885000Y-10575000D02*
X57706060Y-10575000D01*
X57706060Y-10575000D02*
X59051060Y-9230000D01*
%TO.N,/DATA_PAIR_1*%
X59053600Y-11770000D02*
X58980000Y-11770000D01*
X58980000Y-11770000D02*
X58500000Y-12250000D01*
X58500000Y-16335122D02*
X58500000Y-12250000D01*
X56885000Y-16925000D02*
X57910122Y-16925000D01*
X57910122Y-16925000D02*
X58500000Y-16335122D01*
%TO.N,/SPARE_PAIR_2*%
X64948940Y-19551060D02*
X66750000Y-17750000D01*
X66750000Y-17750000D02*
X68250000Y-17750000D01*
X64948940Y-20270000D02*
X64948940Y-19551060D01*
X72275340Y-18550920D02*
X69050920Y-18550920D01*
X69050920Y-18550920D02*
X68250000Y-17750000D01*
X74055880Y-17537460D02*
X73288800Y-17537460D01*
X73288800Y-17537460D02*
X72275340Y-18550920D01*
%TO.N,/SPARE_PAIR_1*%
X72275340Y-16521460D02*
X66500000Y-16521460D01*
X64946400Y-17553600D02*
X65978540Y-16521460D01*
X65978540Y-16521460D02*
X66500000Y-16521460D01*
X64946400Y-17730000D02*
X64946400Y-17553600D01*
X74055880Y-15508000D02*
X73288800Y-15508000D01*
X73288800Y-15508000D02*
X72275340Y-16521460D01*
D38*
%TO.N,*%
X45399100Y-28750000D02*
X45399100Y-28528300D01*
X45399100Y-28528300D02*
X44958300Y-28087500D01*
X44958300Y-28087500D02*
X43904300Y-28087500D01*
%TO.N,/TPIN-*%
X41750000Y-18000000D02*
X41215000Y-18000000D01*
X39600000Y-16700000D02*
X39915000Y-16700000D01*
X39915000Y-16700000D02*
X41215000Y-18000000D01*
X48115000Y-18195000D02*
X47540000Y-18195000D01*
X47540000Y-18195000D02*
X46595000Y-17250000D01*
X46595000Y-17250000D02*
X45205638Y-17250000D01*
X41750000Y-18000000D02*
X42454000Y-18000000D01*
X42454000Y-18000000D02*
X43034201Y-18580201D01*
X43034201Y-18580201D02*
X44464161Y-18580201D01*
X44464161Y-18580201D02*
X44750000Y-18294362D01*
X44750000Y-18294362D02*
X44750000Y-17705638D01*
X44750000Y-17705638D02*
X45205638Y-17250000D01*
%TO.N,/TPIN+*%
X41205638Y-17250000D02*
X40750000Y-16794362D01*
X39600000Y-16050000D02*
X40354000Y-16050000D01*
X40354000Y-16050000D02*
X40750000Y-16446000D01*
X40750000Y-16446000D02*
X40750000Y-16794362D01*
X48115000Y-15655000D02*
X45300638Y-15655000D01*
X43750000Y-18000000D02*
X43000000Y-17250000D01*
X43000000Y-17250000D02*
X41205638Y-17250000D01*
X44750000Y-16205638D02*
X45300638Y-15655000D01*
X43750000Y-18000000D02*
X44750000Y-17000000D01*
X44750000Y-17000000D02*
X44750000Y-16205638D01*
%TO.N,Net-(U1-RBIAS)*%
X40150000Y-15400000D02*
X40250000Y-15500000D01*
X40250000Y-15500000D02*
X43619362Y-15500000D01*
X39600000Y-15400000D02*
X40150000Y-15400000D01*
X43619362Y-15500000D02*
X43769799Y-15349563D01*
X43769799Y-15349563D02*
X43769799Y-14230201D01*
X43769799Y-14230201D02*
X45000000Y-13000000D01*
X45000000Y-13000000D02*
X45750000Y-13000000D01*
%TO.N,/TPOUT-*%
X40250000Y-14000000D02*
X42046000Y-14000000D01*
X39600000Y-14100000D02*
X40150000Y-14100000D01*
X40150000Y-14100000D02*
X40250000Y-14000000D01*
X46000000Y-12419799D02*
X44771156Y-12419799D01*
X48115000Y-11845000D02*
X46906000Y-11845000D01*
X46906000Y-11845000D02*
X46331201Y-12419799D01*
X46331201Y-12419799D02*
X46000000Y-12419799D01*
X44190955Y-13000000D02*
X43750000Y-13000000D01*
X44771156Y-12419799D02*
X44190955Y-13000000D01*
X43046000Y-13000000D02*
X43750000Y-13000000D01*
X42046000Y-14000000D02*
X43046000Y-13000000D01*
%TO.N,/TPOUT+*%
X39600000Y-13450000D02*
X41300000Y-13450000D01*
X41750000Y-13000000D02*
X41950000Y-13000000D01*
X41950000Y-13000000D02*
X42700000Y-12250000D01*
X44294362Y-12250000D02*
X44750000Y-11794362D01*
X42700000Y-12250000D02*
X44294362Y-12250000D01*
X44750000Y-11794362D02*
X44750000Y-11060196D01*
X44750000Y-11060196D02*
X45445198Y-10364998D01*
X45445198Y-10364998D02*
X46480002Y-10364998D01*
X46480002Y-10364998D02*
X47540000Y-9305000D01*
X47540000Y-9305000D02*
X48115000Y-9305000D01*
X41300000Y-13450000D02*
X41750000Y-13000000D01*
%TO.N,Net-(U1-~{RESET})*%
X38935002Y-19000000D02*
X42809045Y-19000000D01*
X42809045Y-19000000D02*
X42846457Y-19037412D01*
X42846457Y-19037412D02*
X45216588Y-19037412D01*
X38050000Y-18114998D02*
X38935002Y-19000000D01*
X45216588Y-19037412D02*
X45750000Y-18504000D01*
X38050000Y-17600000D02*
X38050000Y-18114998D01*
X45750000Y-18504000D02*
X45750000Y-18000000D01*
%TO.N,*%
X41250000Y-28750000D02*
X42547500Y-27452500D01*
X42547500Y-27452500D02*
X43904300Y-27452500D01*
X27400000Y-28700000D02*
X28450000Y-28700000D01*
X28450000Y-28700000D02*
X28500000Y-28750000D01*
X43904300Y-26182500D02*
X44773138Y-26182500D01*
X44773138Y-26182500D02*
X45500000Y-25455638D01*
X45500000Y-25455638D02*
X45500000Y-25204000D01*
X45500000Y-25204000D02*
X45500000Y-24500000D01*
%TO.N,Net-(T1-TDCT)*%
X45750000Y-9750000D02*
X45950000Y-9750000D01*
X49239362Y-8500000D02*
X49500000Y-8760638D01*
X45950000Y-9750000D02*
X46250000Y-9450000D01*
X49500000Y-10325000D02*
X49250000Y-10575000D01*
X46250000Y-9450000D02*
X46250000Y-9250000D01*
X49250000Y-10575000D02*
X48437500Y-10575000D01*
X46250000Y-9250000D02*
X47000000Y-8500000D01*
X47000000Y-8500000D02*
X49239362Y-8500000D01*
X49500000Y-8760638D02*
X49500000Y-10325000D01*
X43750000Y-11500000D02*
X41750000Y-11500000D01*
X43750000Y-9750000D02*
X43750000Y-11500000D01*
X45750000Y-9750000D02*
X43750000Y-9750000D01*
%TO.N,Net-(C21-Pad1)*%
X43750000Y-16500000D02*
X44500000Y-15750000D01*
X44500000Y-15750000D02*
X44500000Y-14750000D01*
X41750000Y-16500000D02*
X43750000Y-16500000D01*
%TO.N,/RPI_3V3_2*%
X28690000Y-4770000D02*
X28690000Y-6080000D01*
%TO.N,/RPI_VBUS*%
X27000000Y-8000000D02*
X26346000Y-8000000D01*
X26346000Y-8000000D02*
X26179000Y-8167000D01*
X26179000Y-8167000D02*
X26179000Y-8750000D01*
X26650000Y-9800000D02*
X26650000Y-9221000D01*
X26650000Y-9221000D02*
X26179000Y-8750000D01*
X26179000Y-8750000D02*
X21546710Y-8750000D01*
X21546710Y-8750000D02*
X21250760Y-8454050D01*
X21250760Y-8454050D02*
X21250760Y-7800000D01*
X21250760Y-7800000D02*
X21300000Y-7800000D01*
D39*
X17850000Y-7800000D02*
X21250760Y-7800000D01*
X17250000Y-4205750D02*
X17250000Y-7200000D01*
X17250000Y-7200000D02*
X17850000Y-7800000D01*
X12180000Y-3500000D02*
X16544250Y-3500000D01*
X16544250Y-3500000D02*
X17250000Y-4205750D01*
X10910000Y-2230000D02*
X12180000Y-3500000D01*
D38*
X27750000Y-11384000D02*
X27750000Y-10116000D01*
X27750000Y-10116000D02*
X27434000Y-9800000D01*
X27434000Y-9800000D02*
X26650000Y-9800000D01*
X26650000Y-11700000D02*
X27434000Y-11700000D01*
X27434000Y-11700000D02*
X27750000Y-11384000D01*
X10910000Y-920000D02*
X10910000Y-2230000D01*
X8370000Y-920000D02*
X8370000Y-2230000D01*
D39*
X8370000Y-2230000D02*
X9119999Y-1480001D01*
X9119999Y-1480001D02*
X10160001Y-1480001D01*
X10160001Y-1480001D02*
X10910000Y-2230000D01*
D38*
%TO.N,Net-(D6-K)*%
X12000000Y-8000000D02*
X10000700Y-8000000D01*
X10000700Y-8000000D02*
X10000000Y-8000700D01*
%TO.N,Net-(D7-K)*%
X28500000Y-17500000D02*
X28500000Y-15500700D01*
X28500000Y-15500700D02*
X28499300Y-15500000D01*
%TO.N,/GPIO9_MISO*%
X35450000Y-18050000D02*
X35315201Y-18184799D01*
X35315201Y-18184799D02*
X35315201Y-18364161D01*
X35315201Y-18364161D02*
X35179362Y-18500000D01*
X35179362Y-18500000D02*
X35000000Y-18500000D01*
X35450000Y-17600000D02*
X35450000Y-18050000D01*
X34750000Y-18750000D02*
X35000000Y-18500000D01*
X33770000Y-6080000D02*
X33770000Y-4770000D01*
%TO.N,/GPIO10_MOSI*%
X36099278Y-18475933D02*
X35794479Y-18780732D01*
X36100000Y-18475211D02*
X36099278Y-18475933D01*
X36100000Y-17600000D02*
X36100000Y-18475211D01*
X31230000Y-6080000D02*
X31230000Y-4770000D01*
%TO.N,/GPIO11_SCLK*%
X36750000Y-17600000D02*
X36750000Y-18750000D01*
X36310000Y-4770000D02*
X36310000Y-6080000D01*
%TO.N,/GPIO8_CE0#*%
X37400000Y-18400000D02*
X37750000Y-18750000D01*
X37400000Y-17600000D02*
X37400000Y-18400000D01*
X36310000Y-2230000D02*
X36310000Y-920000D01*
%TO.N,/RPI_3V3_1*%
X8370000Y-6080000D02*
X8370000Y-4770000D01*
%TO.N,/GPIO1_SDA1*%
X10910000Y-6080000D02*
X10910000Y-4770000D01*
%TO.N,/GPIO3_SCL1*%
X13450000Y-6080000D02*
X13450000Y-4770000D01*
%TO.N,/GPIO4*%
X15990000Y-6080000D02*
X15990000Y-4770000D01*
%TO.N,/GPIO14_TXD0*%
X15990000Y-920000D02*
X15990000Y-2230000D01*
%TO.N,/GPIO15_RXD0*%
X18530000Y-920000D02*
X18530000Y-2230000D01*
%TO.N,/GPIO17*%
X21070000Y-6080000D02*
X21070000Y-4770000D01*
%TO.N,/GPIO18*%
X21070000Y-2230000D02*
X21070000Y-920000D01*
%TO.N,/GPIO27*%
X23610000Y-4770000D02*
X23610000Y-6080000D01*
%TO.N,/GPIO22*%
X26150000Y-6080000D02*
X26150000Y-4770000D01*
%TO.N,/GPIO23*%
X26150000Y-2230000D02*
X26150000Y-920000D01*
%TO.N,/GPIO24*%
X28690000Y-920000D02*
X28690000Y-2230000D01*
%TO.N,/GPIO25*%
X33900000Y-16700000D02*
X33900000Y-17400000D01*
X33900000Y-17400000D02*
X34000000Y-17500000D01*
X32500000Y-3500000D02*
X32500000Y-6500000D01*
X33770000Y-2230000D02*
X32500000Y-3500000D01*
X33770000Y-2230000D02*
X33770000Y-920000D01*
%TO.N,/GPIO7_CE1#*%
X38850000Y-920000D02*
X38850000Y-2230000D01*
%TO.N,/GPIO0_ID_SD*%
X45500000Y-6250000D02*
X45500000Y-5818948D01*
X45500000Y-5818948D02*
X45250000Y-5568948D01*
X45250000Y-5568948D02*
X45250000Y-4000000D01*
X45250000Y-4000000D02*
X44750000Y-3500000D01*
X44750000Y-3500000D02*
X42660000Y-3500000D01*
X42660000Y-3500000D02*
X41390000Y-4770000D01*
X41390000Y-6080000D02*
X41390000Y-4770000D01*
%TO.N,/GPIO5*%
X43930000Y-4770000D02*
X43930000Y-6080000D01*
%TO.N,/GPIO6*%
X46470000Y-4770000D02*
X46470000Y-6080000D01*
%TO.N,/GPIO13*%
X49010000Y-4770000D02*
X49010000Y-6080000D01*
%TO.N,/GPIO19*%
X51550000Y-6080000D02*
X51550000Y-4770000D01*
%TO.N,/GPIO26*%
X54090000Y-4770000D02*
X54090000Y-6080000D01*
%TO.N,/GPIO21_SCLK*%
X56630000Y-2230000D02*
X56630000Y-920000D01*
%TO.N,/GPIO20_MOSI*%
X54090000Y-920000D02*
X54090000Y-2230000D01*
%TO.N,/GPIO16_CE2#*%
X51550000Y-2230000D02*
X51550000Y-920000D01*
%TO.N,/GPIO12*%
X46470000Y-2230000D02*
X46470000Y-920000D01*
%TO.N,/GPIO1_ID_SC*%
X41390000Y-2230000D02*
X41390000Y-920000D01*
%TO.N,*%
X22000000Y-9500000D02*
X21450760Y-9500000D01*
X21450760Y-9500000D02*
X21250760Y-9700000D01*
X23000000Y-9500000D02*
X22000000Y-9500000D01*
X15650000Y-7800000D02*
X16300000Y-7800000D01*
X16300000Y-7800000D02*
X16750000Y-8250000D01*
%TO.N,Net-(Q2-B)*%
X15650000Y-8750000D02*
X14750000Y-8750000D01*
X15650000Y-8750000D02*
X15650000Y-9700000D01*
X14750000Y-8750000D02*
X14000000Y-8000000D01*
%TO.N,/POE_VPORTN*%
X54750000Y-22250000D02*
X54750000Y-21500000D01*
D39*
X55500000Y-28450000D02*
X54050000Y-28450000D01*
X54050000Y-28450000D02*
X54000000Y-28500000D01*
X55500000Y-28450000D02*
X56950000Y-28450000D01*
X56950000Y-28450000D02*
X57000000Y-28500000D01*
D38*
X38595700Y-26182500D02*
X37682500Y-26182500D01*
X37682500Y-26182500D02*
X37250000Y-25750000D01*
X47000000Y-24500000D02*
X47500000Y-24500000D01*
D40*
X43904300Y-24912500D02*
X42815980Y-24912500D01*
X42815980Y-24912500D02*
X42739058Y-24989422D01*
D39*
X59053600Y-20270000D02*
X59980000Y-20270000D01*
X59980000Y-20270000D02*
X60000000Y-20250000D01*
X59053600Y-20270000D02*
X58020000Y-20270000D01*
X58020000Y-20270000D02*
X58000000Y-20250000D01*
X64946400Y-9230000D02*
X64946400Y-9946400D01*
X64946400Y-9946400D02*
X65000000Y-10000000D01*
X64946400Y-9230000D02*
X64946400Y-8553600D01*
X64946400Y-8553600D02*
X65000000Y-8500000D01*
X59053600Y-20270000D02*
X59053600Y-20946400D01*
X59053600Y-20946400D02*
X59000000Y-21000000D01*
X64946400Y-9230000D02*
X65980000Y-9230000D01*
X65980000Y-9230000D02*
X66000000Y-9250000D01*
D38*
%TO.N,/PHY_OSC1*%
X36100000Y-11900000D02*
X36100000Y-11146000D01*
X36100000Y-11146000D02*
X36250000Y-10996000D01*
X36250000Y-10996000D02*
X36250000Y-9496000D01*
X36250000Y-9496000D02*
X36746000Y-9000000D01*
X36746000Y-9000000D02*
X37850000Y-9000000D01*
X40000000Y-8000000D02*
X38850000Y-8000000D01*
X38850000Y-8000000D02*
X37850000Y-9000000D01*
%TO.N,/PHY_OSC2*%
X35450000Y-11900000D02*
X35450000Y-11146000D01*
X35450000Y-11146000D02*
X35750000Y-10846000D01*
X35750000Y-10846000D02*
X35750000Y-9496000D01*
X35750000Y-9496000D02*
X35254000Y-9000000D01*
X35254000Y-9000000D02*
X34150000Y-9000000D01*
X32000000Y-8000000D02*
X33150000Y-8000000D01*
X33150000Y-8000000D02*
X34150000Y-9000000D01*
%TO.N,*%
X47000000Y-22250000D02*
X47500000Y-22250000D01*
X45500000Y-26750000D02*
X46750000Y-25500000D01*
X46750000Y-25500000D02*
X49000000Y-25500000D01*
X43904300Y-26817500D02*
X45432500Y-26817500D01*
X45432500Y-26817500D02*
X45500000Y-26750000D01*
X51750000Y-25500000D02*
X49000000Y-25500000D01*
X38595700Y-26817500D02*
X39649700Y-26817500D01*
X39649700Y-26817500D02*
X39967200Y-26500000D01*
X38595700Y-26817500D02*
X37541700Y-26817500D01*
X37541700Y-26817500D02*
X37224200Y-26500000D01*
X25000000Y-16250000D02*
X25000000Y-16225000D01*
X25000000Y-16225000D02*
X23890000Y-15115000D01*
X23890000Y-15115000D02*
X23354000Y-15115000D01*
X22350000Y-15115000D02*
X23354000Y-15115000D01*
X22350000Y-15115000D02*
X21212730Y-15115000D01*
X21212730Y-15115000D02*
X19251780Y-13154050D01*
X19251780Y-13154050D02*
X19251780Y-12500000D01*
X47100900Y-28750000D02*
X47100900Y-28850330D01*
X20000000Y-17731000D02*
X18654000Y-16385000D01*
X47100900Y-28850330D02*
X46451230Y-29500000D01*
X46451230Y-29500000D02*
X21250000Y-29500000D01*
X21250000Y-29500000D02*
X20000000Y-28250000D01*
X18654000Y-16385000D02*
X17650000Y-16385000D01*
X20000000Y-28250000D02*
X20000000Y-17731000D01*
X47000000Y-26750000D02*
X47000000Y-28649100D01*
X47000000Y-28649100D02*
X47100900Y-28750000D01*
%TO.N,/LEDB_K*%
X77000000Y-25750000D02*
X80000000Y-22750000D01*
X67456960Y-20417196D02*
X66527319Y-21346837D01*
X67456960Y-19569460D02*
X67456960Y-20417196D01*
X49250000Y-19000000D02*
X46250000Y-19000000D01*
X66527319Y-21346837D02*
X66527319Y-24027319D01*
X80000000Y-22750000D02*
X80000000Y-7250000D01*
X66527319Y-24027319D02*
X68250000Y-25750000D01*
X68250000Y-25750000D02*
X71250000Y-25750000D01*
X71250000Y-25750000D02*
X72000000Y-26500000D01*
X72000000Y-26500000D02*
X74250000Y-26500000D01*
X66000000Y-5250000D02*
X63500000Y-7750000D01*
X74000000Y-3500000D02*
X66250000Y-3500000D01*
X74250000Y-26500000D02*
X75000000Y-25750000D01*
X80000000Y-7250000D02*
X77250000Y-4500000D01*
X75000000Y-25750000D02*
X77000000Y-25750000D01*
X77250000Y-4500000D02*
X75000000Y-4500000D01*
X75000000Y-4500000D02*
X74000000Y-3500000D01*
X50000000Y-18250000D02*
X49250000Y-19000000D01*
X31750000Y-19250000D02*
X31750000Y-18750000D01*
X66250000Y-3500000D02*
X66000000Y-3750000D01*
X32000000Y-19500000D02*
X31750000Y-19250000D01*
X66000000Y-3750000D02*
X66000000Y-5250000D01*
X63500000Y-7750000D02*
X51000000Y-7750000D01*
X51000000Y-7750000D02*
X50000000Y-8750000D01*
X50000000Y-8750000D02*
X50000000Y-18250000D01*
X46250000Y-19000000D02*
X45750000Y-19500000D01*
X45750000Y-19500000D02*
X32000000Y-19500000D01*
X33900000Y-12800000D02*
X33550000Y-12800000D01*
X33550000Y-12800000D02*
X33000000Y-12250000D01*
%TO.N,/LEDA_K*%
X30750000Y-18750000D02*
X30750000Y-19250000D01*
X30750000Y-19250000D02*
X31500000Y-20000000D01*
X31500000Y-20000000D02*
X46000000Y-20000000D01*
X46000000Y-20000000D02*
X46500000Y-19500000D01*
X46500000Y-19500000D02*
X49500000Y-19500000D01*
X49500000Y-19500000D02*
X50500000Y-18500000D01*
X50500000Y-9000000D02*
X51250000Y-8250000D01*
X50500000Y-18500000D02*
X50500000Y-9000000D01*
X51250000Y-8250000D02*
X63750000Y-8250000D01*
X63750000Y-8250000D02*
X64750000Y-7250000D01*
X64750000Y-7250000D02*
X66567500Y-7250000D01*
X66567500Y-7250000D02*
X67456960Y-8139460D01*
X33900000Y-13450000D02*
X33160938Y-13450000D01*
X33160938Y-13450000D02*
X32976504Y-13265566D01*
D39*
%TO.N,/TPIN_T+*%
X56885000Y-15655000D02*
X56798200Y-15568200D01*
X56798200Y-15568200D02*
X54500000Y-15568200D01*
%TO.N,/TPOUT_T+*%
X56885000Y-9305000D02*
X54513200Y-9305000D01*
X54513200Y-9305000D02*
X54500000Y-9318200D01*
%TO.N,/TPOUT_T-*%
X56885000Y-11845000D02*
X55595000Y-11845000D01*
X55000000Y-11250000D02*
X55000000Y-10681800D01*
X55000000Y-10681800D02*
X54500000Y-10181800D01*
X55595000Y-11845000D02*
X55000000Y-11250000D01*
%TO.N,/TPIN_T-*%
X56885000Y-18195000D02*
X55695000Y-18195000D01*
X55000000Y-17500000D02*
X55000000Y-16931800D01*
X55000000Y-16931800D02*
X54500000Y-16431800D01*
X55695000Y-18195000D02*
X55000000Y-17500000D01*
D38*
%TO.N,/LEDB_A*%
X68500000Y-25250000D02*
X71500000Y-25250000D01*
X72250000Y-26000000D02*
X71500000Y-25250000D01*
X74000000Y-26000000D02*
X72250000Y-26000000D01*
X74750000Y-25250000D02*
X76750000Y-25250000D01*
X74750000Y-25250000D02*
X74000000Y-26000000D01*
X67456960Y-21860540D02*
X67456960Y-24206960D01*
X67456960Y-24206960D02*
X68500000Y-25250000D01*
X79500000Y-22500000D02*
X79500000Y-7500000D01*
X76750000Y-25250000D02*
X79500000Y-22500000D01*
X79500000Y-7500000D02*
X77000000Y-5000000D01*
X74750000Y-5000000D02*
X74000000Y-4250000D01*
X77000000Y-5000000D02*
X74750000Y-5000000D01*
X74000000Y-4250000D02*
X70000000Y-4250000D01*
%TO.N,/LEDA_A*%
X67500000Y-4250000D02*
X67500000Y-6250000D01*
X67500000Y-6250000D02*
X68500000Y-7250000D01*
X68500000Y-7250000D02*
X68500000Y-9387500D01*
X68500000Y-9387500D02*
X67456960Y-10430540D01*
D39*
%TO.N,*%
X25750000Y-26000000D02*
X26550000Y-26800000D01*
X26550000Y-26800000D02*
X27400000Y-26800000D01*
X24630000Y-26000000D02*
X25750000Y-26000000D01*
X29600000Y-26800000D02*
X27400000Y-26800000D01*
X27400000Y-27750000D02*
X27400000Y-26800000D01*
X29600000Y-27750000D02*
X29600000Y-26800000D01*
D38*
X35296000Y-29000000D02*
X33254000Y-29000000D01*
X33254000Y-29000000D02*
X32004000Y-27750000D01*
X32004000Y-27750000D02*
X31300000Y-27750000D01*
X36250000Y-28750000D02*
X35546000Y-28750000D01*
X35546000Y-28750000D02*
X35296000Y-29000000D01*
D39*
X29600000Y-28700000D02*
X30350000Y-28700000D01*
X30350000Y-28700000D02*
X31300000Y-27750000D01*
D38*
X37452500Y-27452500D02*
X37250000Y-27250000D01*
X37250000Y-27250000D02*
X36250000Y-27250000D01*
X38595700Y-27452500D02*
X37452500Y-27452500D01*
X21000000Y-15750000D02*
X21000000Y-16039000D01*
X21000000Y-16039000D02*
X21346000Y-16385000D01*
X21346000Y-16385000D02*
X22350000Y-16385000D01*
X18500000Y-13250000D02*
X21000000Y-15750000D01*
X17500000Y-13250000D02*
X18500000Y-13250000D01*
X25000000Y-9500000D02*
X25000000Y-11750000D01*
X23000000Y-13250000D02*
X23200000Y-13250000D01*
X23200000Y-13250000D02*
X24700000Y-11750000D01*
X24700000Y-11750000D02*
X25000000Y-11750000D01*
X23000000Y-13250000D02*
X21450760Y-13250000D01*
X21450760Y-13250000D02*
X21250760Y-13450000D01*
X43500000Y-22250000D02*
X44000000Y-22250000D01*
X38595700Y-25547500D02*
X39702500Y-25547500D01*
X39702500Y-25547500D02*
X40000000Y-25250000D01*
X39999300Y-22250000D02*
X42000000Y-22250000D01*
%TD*%
%TA.AperFunction,Conductor*%
%TO.N,/POE_VPORTP_L*%
G36*
X53905969Y-9020002D02*
G01*
X53952462Y-9073658D01*
X53962566Y-9143932D01*
X53955357Y-9170208D01*
X53935874Y-9318200D01*
X53955095Y-9464205D01*
X54011454Y-9600265D01*
X54067492Y-9673295D01*
X54093093Y-9739515D01*
X54078829Y-9809064D01*
X54067493Y-9826702D01*
X54011454Y-9899734D01*
X53955095Y-10035794D01*
X53935874Y-10181800D01*
X53955095Y-10327805D01*
X53972946Y-10370900D01*
X54010482Y-10461520D01*
X54011454Y-10463865D01*
X54101101Y-10580695D01*
X54101103Y-10580697D01*
X54161040Y-10626688D01*
X54217937Y-10670347D01*
X54221343Y-10671758D01*
X54262226Y-10699074D01*
X54429195Y-10866043D01*
X54463221Y-10928355D01*
X54466100Y-10955138D01*
X54466100Y-11238713D01*
X54466027Y-11243014D01*
X54463906Y-11305113D01*
X54473270Y-11343542D01*
X54475678Y-11356213D01*
X54481064Y-11395399D01*
X54487800Y-11410906D01*
X54494648Y-11431269D01*
X54498653Y-11447704D01*
X54518041Y-11482186D01*
X54523777Y-11493734D01*
X54539536Y-11530014D01*
X54550210Y-11543135D01*
X54562294Y-11560888D01*
X54570586Y-11575635D01*
X54598553Y-11603602D01*
X54607189Y-11613171D01*
X54632158Y-11643862D01*
X54645978Y-11653617D01*
X54662411Y-11667460D01*
X55209492Y-12214541D01*
X55212482Y-12217634D01*
X55254894Y-12263046D01*
X55265262Y-12269351D01*
X55288691Y-12283599D01*
X55299355Y-12290857D01*
X55330870Y-12314755D01*
X55346595Y-12320956D01*
X55365843Y-12330516D01*
X55380293Y-12339304D01*
X55389407Y-12341857D01*
X55418387Y-12349976D01*
X55430590Y-12354079D01*
X55467403Y-12368597D01*
X55484230Y-12370326D01*
X55505330Y-12374337D01*
X55521616Y-12378900D01*
X55521617Y-12378900D01*
X55561166Y-12378900D01*
X55574053Y-12379561D01*
X55630629Y-12385378D01*
X55630256Y-12389000D01*
X55671922Y-12393800D01*
X55726864Y-12438766D01*
X55748773Y-12506297D01*
X55730694Y-12574954D01*
X55727589Y-12579841D01*
X55690266Y-12635698D01*
X55675500Y-12709933D01*
X55675500Y-13520068D01*
X55690265Y-13594300D01*
X55747527Y-13679998D01*
X55768742Y-13747751D01*
X55749959Y-13816218D01*
X55747527Y-13820002D01*
X55690266Y-13905698D01*
X55675500Y-13979933D01*
X55675500Y-14790068D01*
X55694128Y-14883721D01*
X55687799Y-14954435D01*
X55644244Y-15010501D01*
X55577291Y-15034120D01*
X55570549Y-15034300D01*
X54697637Y-15034300D01*
X54649420Y-15024709D01*
X54646008Y-15023295D01*
X54505013Y-15004734D01*
X54500000Y-15004074D01*
X54499999Y-15004074D01*
X54353994Y-15023295D01*
X54217934Y-15079654D01*
X54101102Y-15169302D01*
X54011454Y-15286134D01*
X53955095Y-15422194D01*
X53935874Y-15568200D01*
X53955095Y-15714205D01*
X54011454Y-15850265D01*
X54067492Y-15923295D01*
X54093093Y-15989515D01*
X54078829Y-16059064D01*
X54067493Y-16076702D01*
X54011454Y-16149734D01*
X53955095Y-16285794D01*
X53935874Y-16431800D01*
X53955095Y-16577805D01*
X54011454Y-16713865D01*
X54101101Y-16830695D01*
X54101103Y-16830697D01*
X54217936Y-16920346D01*
X54217937Y-16920347D01*
X54221343Y-16921758D01*
X54262226Y-16949074D01*
X54429195Y-17116043D01*
X54463221Y-17178355D01*
X54466100Y-17205138D01*
X54466100Y-17488713D01*
X54466027Y-17493014D01*
X54463906Y-17555113D01*
X54473270Y-17593542D01*
X54475678Y-17606213D01*
X54481064Y-17645399D01*
X54487800Y-17660906D01*
X54494648Y-17681269D01*
X54498653Y-17697704D01*
X54518041Y-17732186D01*
X54523780Y-17743740D01*
X54539356Y-17779601D01*
X54539536Y-17780014D01*
X54550210Y-17793135D01*
X54562294Y-17810888D01*
X54570586Y-17825635D01*
X54598553Y-17853602D01*
X54607189Y-17863171D01*
X54632158Y-17893862D01*
X54645978Y-17903617D01*
X54662411Y-17917460D01*
X55309492Y-18564541D01*
X55312482Y-18567634D01*
X55354894Y-18613046D01*
X55371900Y-18623387D01*
X55388691Y-18633599D01*
X55399355Y-18640857D01*
X55430870Y-18664755D01*
X55446595Y-18670956D01*
X55465842Y-18680516D01*
X55480291Y-18689303D01*
X55480293Y-18689303D01*
X55480294Y-18689304D01*
X55518383Y-18699975D01*
X55530600Y-18704084D01*
X55567402Y-18718597D01*
X55584232Y-18720327D01*
X55605329Y-18724336D01*
X55621617Y-18728900D01*
X55661166Y-18728900D01*
X55674018Y-18729557D01*
X55677403Y-18729905D01*
X55734541Y-18750481D01*
X55746514Y-18758481D01*
X55746516Y-18758484D01*
X55830699Y-18814734D01*
X55904933Y-18829500D01*
X57865066Y-18829499D01*
X57865068Y-18829499D01*
X57914555Y-18819655D01*
X57939301Y-18814734D01*
X58023484Y-18758484D01*
X58079734Y-18674301D01*
X58094500Y-18600067D01*
X58094499Y-18432641D01*
X58114501Y-18364523D01*
X58168156Y-18318030D01*
X58238430Y-18307925D01*
X58290501Y-18327878D01*
X58352513Y-18369313D01*
X58426601Y-18384049D01*
X58771660Y-18384049D01*
X58771660Y-18009400D01*
X59330460Y-18009400D01*
X59330460Y-18384049D01*
X59675518Y-18384049D01*
X59749605Y-18369313D01*
X59833624Y-18313173D01*
X59889763Y-18229156D01*
X59904500Y-18155068D01*
X59904500Y-18009400D01*
X59330460Y-18009400D01*
X58771660Y-18009400D01*
X58771660Y-17075950D01*
X59330460Y-17075950D01*
X59330460Y-17450600D01*
X59904499Y-17450600D01*
X59904499Y-17304931D01*
X59889763Y-17230844D01*
X59833623Y-17146825D01*
X59749606Y-17090686D01*
X59675519Y-17075950D01*
X59330460Y-17075950D01*
X58771660Y-17075950D01*
X58771660Y-17075949D01*
X58752228Y-17056517D01*
X58750290Y-17055948D01*
X58741404Y-17045693D01*
X58734756Y-17039045D01*
X58735231Y-17038569D01*
X58703797Y-17002292D01*
X58693693Y-16932018D01*
X58723187Y-16867438D01*
X58729315Y-16860855D01*
X58796318Y-16793852D01*
X58869582Y-16720587D01*
X58872617Y-16717654D01*
X58918046Y-16675228D01*
X58938598Y-16641430D01*
X58945847Y-16630778D01*
X58969755Y-16599252D01*
X58975958Y-16583520D01*
X58985513Y-16564282D01*
X58994304Y-16549828D01*
X59004975Y-16511741D01*
X59009083Y-16499521D01*
X59023597Y-16462720D01*
X59025326Y-16445890D01*
X59029338Y-16424783D01*
X59033900Y-16408505D01*
X59033900Y-16368955D01*
X59034561Y-16356070D01*
X59035740Y-16344603D01*
X59038606Y-16316723D01*
X59035732Y-16300053D01*
X59033900Y-16278646D01*
X59033900Y-12550549D01*
X59053902Y-12482428D01*
X59076854Y-12462540D01*
X71416696Y-12462540D01*
X71418479Y-12479500D01*
X71435459Y-12641063D01*
X71490929Y-12811782D01*
X71580680Y-12967236D01*
X71580682Y-12967238D01*
X71700795Y-13100637D01*
X71846018Y-13206148D01*
X72010004Y-13279159D01*
X72185587Y-13316480D01*
X72185589Y-13316480D01*
X72365091Y-13316480D01*
X72365093Y-13316480D01*
X72540676Y-13279159D01*
X72704662Y-13206148D01*
X72849885Y-13100637D01*
X72969998Y-12967238D01*
X73059750Y-12811782D01*
X73115221Y-12641062D01*
X73133984Y-12462540D01*
X73115221Y-12284018D01*
X73059750Y-12113298D01*
X73059750Y-12113297D01*
X72969999Y-11957843D01*
X72849884Y-11824442D01*
X72704663Y-11718933D01*
X72704662Y-11718932D01*
X72540676Y-11645921D01*
X72365093Y-11608600D01*
X72185587Y-11608600D01*
X72010004Y-11645921D01*
X71961627Y-11667460D01*
X71846016Y-11718933D01*
X71700795Y-11824442D01*
X71580680Y-11957843D01*
X71490929Y-12113297D01*
X71435459Y-12284016D01*
X71426388Y-12370325D01*
X71416696Y-12462540D01*
X59076854Y-12462540D01*
X59107558Y-12435935D01*
X59159900Y-12424549D01*
X59678108Y-12424549D01*
X59727596Y-12414705D01*
X59752341Y-12409784D01*
X59836524Y-12353534D01*
X59892774Y-12269351D01*
X59907540Y-12195117D01*
X59907540Y-12049400D01*
X64095501Y-12049400D01*
X64095501Y-12195068D01*
X64110236Y-12269155D01*
X64166376Y-12353174D01*
X64250393Y-12409313D01*
X64324481Y-12424049D01*
X64669540Y-12424049D01*
X64669540Y-12049400D01*
X65228340Y-12049400D01*
X65228340Y-12424049D01*
X65573398Y-12424049D01*
X65647485Y-12409313D01*
X65731504Y-12353173D01*
X65787643Y-12269156D01*
X65802380Y-12195068D01*
X65802380Y-12049400D01*
X65228340Y-12049400D01*
X64669540Y-12049400D01*
X64095501Y-12049400D01*
X59907540Y-12049400D01*
X59907539Y-11490600D01*
X64095500Y-11490600D01*
X64669540Y-11490600D01*
X64669540Y-11115950D01*
X65228340Y-11115950D01*
X65228340Y-11490600D01*
X65802379Y-11490600D01*
X65802379Y-11344931D01*
X65787643Y-11270844D01*
X65731503Y-11186825D01*
X65647486Y-11130686D01*
X65573399Y-11115950D01*
X65228340Y-11115950D01*
X64669540Y-11115950D01*
X64324481Y-11115950D01*
X64250394Y-11130686D01*
X64166375Y-11186826D01*
X64110236Y-11270843D01*
X64095500Y-11344931D01*
X64095500Y-11490600D01*
X59907539Y-11490600D01*
X59907539Y-11344884D01*
X59907539Y-11344883D01*
X59907539Y-11344881D01*
X59892774Y-11270649D01*
X59836524Y-11186465D01*
X59752341Y-11130216D01*
X59752336Y-11130215D01*
X59678107Y-11115450D01*
X59678106Y-11115450D01*
X58429091Y-11115450D01*
X58354859Y-11130215D01*
X58273072Y-11184864D01*
X58205319Y-11206079D01*
X58136852Y-11187296D01*
X58089409Y-11134479D01*
X58078052Y-11064396D01*
X58079491Y-11055518D01*
X58079732Y-11054302D01*
X58079734Y-11054301D01*
X58094500Y-10980067D01*
X58094499Y-10980062D01*
X58096592Y-10969545D01*
X58129499Y-10906635D01*
X58131017Y-10905090D01*
X59114654Y-9921453D01*
X59176966Y-9887428D01*
X59203749Y-9884549D01*
X59675568Y-9884549D01*
X59725056Y-9874705D01*
X59749801Y-9869784D01*
X59833984Y-9813534D01*
X59890234Y-9729351D01*
X59905000Y-9655117D01*
X59904999Y-9125998D01*
X59925001Y-9057879D01*
X59978656Y-9011386D01*
X60030999Y-9000000D01*
X63966460Y-9000000D01*
X64034581Y-9020002D01*
X64081074Y-9073658D01*
X64092460Y-9126000D01*
X64092460Y-9655118D01*
X64107225Y-9729350D01*
X64163475Y-9813534D01*
X64201438Y-9838900D01*
X64247659Y-9869784D01*
X64308679Y-9881921D01*
X64371586Y-9914827D01*
X64406719Y-9976521D01*
X64408440Y-9993856D01*
X64419670Y-10039942D01*
X64422078Y-10052613D01*
X64427464Y-10091799D01*
X64434200Y-10107306D01*
X64441048Y-10127669D01*
X64445053Y-10144105D01*
X64464441Y-10178586D01*
X64470173Y-10190126D01*
X64485936Y-10226414D01*
X64490656Y-10237280D01*
X64498006Y-10249602D01*
X64511451Y-10282062D01*
X64601102Y-10398897D01*
X64712135Y-10484095D01*
X64717937Y-10488547D01*
X64853993Y-10544904D01*
X65000000Y-10564126D01*
X65146007Y-10544904D01*
X65282063Y-10488547D01*
X65398897Y-10398897D01*
X65488547Y-10282063D01*
X65544904Y-10146007D01*
X65564126Y-10000000D01*
X65564125Y-9999999D01*
X65566291Y-9983554D01*
X65568320Y-9983821D01*
X65575830Y-9935666D01*
X65622957Y-9882567D01*
X65630474Y-9879583D01*
X65645138Y-9869784D01*
X65645141Y-9869784D01*
X65729324Y-9813534D01*
X65729325Y-9813531D01*
X65738245Y-9807572D01*
X65805998Y-9786357D01*
X65844412Y-9793643D01*
X65890445Y-9799703D01*
X65955373Y-9828425D01*
X65994465Y-9887690D01*
X66000000Y-9924625D01*
X66000000Y-11000001D01*
X66749998Y-11749999D01*
X66750000Y-11750000D01*
X68250000Y-11750000D01*
X69000000Y-11000000D01*
X69000000Y-10302190D01*
X69020002Y-10234069D01*
X69036900Y-10213099D01*
X69500000Y-9750000D01*
X69500000Y-9126000D01*
X69520002Y-9057879D01*
X69573658Y-9011386D01*
X69626000Y-9000000D01*
X74197810Y-9000000D01*
X74265931Y-9020002D01*
X74286905Y-9036905D01*
X74463095Y-9213095D01*
X74497121Y-9275407D01*
X74500000Y-9302190D01*
X74500000Y-10518038D01*
X74479998Y-10586159D01*
X74426342Y-10632652D01*
X74356068Y-10642756D01*
X74322757Y-10633147D01*
X74321216Y-10632461D01*
X74145633Y-10595140D01*
X73966127Y-10595140D01*
X73817704Y-10626688D01*
X73790544Y-10632461D01*
X73626556Y-10705473D01*
X73481335Y-10810982D01*
X73361220Y-10944383D01*
X73271469Y-11099837D01*
X73215999Y-11270556D01*
X73197236Y-11449080D01*
X73215999Y-11627603D01*
X73271469Y-11798322D01*
X73361220Y-11953776D01*
X73361222Y-11953778D01*
X73481335Y-12087177D01*
X73626558Y-12192688D01*
X73790544Y-12265699D01*
X73966127Y-12303020D01*
X73966129Y-12303020D01*
X74145631Y-12303020D01*
X74145633Y-12303020D01*
X74321216Y-12265699D01*
X74322748Y-12265016D01*
X74327285Y-12264408D01*
X74334169Y-12262945D01*
X74334280Y-12263469D01*
X74393112Y-12255579D01*
X74457411Y-12285683D01*
X74495227Y-12345770D01*
X74500000Y-12380121D01*
X74500000Y-12547498D01*
X74479998Y-12615619D01*
X74426342Y-12662112D01*
X74356068Y-12672216D01*
X74322757Y-12662607D01*
X74321216Y-12661921D01*
X74145633Y-12624600D01*
X73966127Y-12624600D01*
X73790544Y-12661920D01*
X73790544Y-12661921D01*
X73626556Y-12734933D01*
X73481335Y-12840442D01*
X73361220Y-12973843D01*
X73271469Y-13129297D01*
X73215999Y-13300016D01*
X73197236Y-13478540D01*
X73215999Y-13657063D01*
X73271469Y-13827782D01*
X73361220Y-13983236D01*
X73361222Y-13983238D01*
X73481335Y-14116637D01*
X73626558Y-14222148D01*
X73790544Y-14295159D01*
X73966127Y-14332480D01*
X73966129Y-14332480D01*
X74145631Y-14332480D01*
X74145633Y-14332480D01*
X74321216Y-14295159D01*
X74322748Y-14294476D01*
X74327285Y-14293868D01*
X74334169Y-14292405D01*
X74334280Y-14292929D01*
X74393112Y-14285039D01*
X74457411Y-14315143D01*
X74495227Y-14375230D01*
X74500000Y-14409581D01*
X74500000Y-14576958D01*
X74479998Y-14645079D01*
X74426342Y-14691572D01*
X74356068Y-14701676D01*
X74322757Y-14692067D01*
X74321216Y-14691381D01*
X74145633Y-14654060D01*
X73966127Y-14654060D01*
X73790544Y-14691381D01*
X73626556Y-14764393D01*
X73481333Y-14869904D01*
X73425053Y-14932410D01*
X73364607Y-14969650D01*
X73331417Y-14974100D01*
X73300104Y-14974100D01*
X73295802Y-14974027D01*
X73233688Y-14971905D01*
X73233687Y-14971905D01*
X73233682Y-14971905D01*
X73218153Y-14975689D01*
X73147234Y-14972382D01*
X73089360Y-14931258D01*
X73062908Y-14865374D01*
X73068491Y-14814338D01*
X73115221Y-14670522D01*
X73133984Y-14492000D01*
X73115221Y-14313478D01*
X73059750Y-14142758D01*
X73059750Y-14142757D01*
X72969999Y-13987303D01*
X72849884Y-13853902D01*
X72727887Y-13765266D01*
X72704662Y-13748392D01*
X72540676Y-13675381D01*
X72365093Y-13638060D01*
X72185587Y-13638060D01*
X72010004Y-13675381D01*
X71876695Y-13734734D01*
X71846016Y-13748393D01*
X71700795Y-13853902D01*
X71580680Y-13987303D01*
X71490929Y-14142757D01*
X71435459Y-14313476D01*
X71416696Y-14492000D01*
X71435459Y-14670523D01*
X71490929Y-14841242D01*
X71580680Y-14996696D01*
X71589646Y-15006654D01*
X71700795Y-15130097D01*
X71846018Y-15235608D01*
X72010004Y-15308619D01*
X72185587Y-15345940D01*
X72185589Y-15345940D01*
X72365091Y-15345940D01*
X72365093Y-15345940D01*
X72369006Y-15345108D01*
X72439796Y-15350508D01*
X72496430Y-15393324D01*
X72520925Y-15459961D01*
X72505505Y-15529263D01*
X72484301Y-15557449D01*
X72411133Y-15630616D01*
X72348824Y-15664640D01*
X72322040Y-15667520D01*
X72185587Y-15667520D01*
X72010004Y-15704841D01*
X71846016Y-15777853D01*
X71700793Y-15883364D01*
X71644513Y-15945870D01*
X71584067Y-15983110D01*
X71550877Y-15987560D01*
X65989826Y-15987560D01*
X65985525Y-15987487D01*
X65923425Y-15985365D01*
X65884995Y-15994730D01*
X65872326Y-15997138D01*
X65833142Y-16002524D01*
X65817630Y-16009262D01*
X65797271Y-16016108D01*
X65780832Y-16020114D01*
X65746354Y-16039500D01*
X65734803Y-16045238D01*
X65698523Y-16060997D01*
X65685407Y-16071668D01*
X65667650Y-16083754D01*
X65652904Y-16092045D01*
X65624937Y-16120012D01*
X65615364Y-16128651D01*
X65584679Y-16153616D01*
X65574922Y-16167438D01*
X65561081Y-16183868D01*
X64706404Y-17038545D01*
X64644092Y-17072571D01*
X64617309Y-17075450D01*
X64321891Y-17075450D01*
X64247659Y-17090215D01*
X64163475Y-17146465D01*
X64107226Y-17230648D01*
X64092460Y-17304883D01*
X64092460Y-18155118D01*
X64107225Y-18229350D01*
X64163475Y-18313534D01*
X64219725Y-18351118D01*
X64247659Y-18369784D01*
X64321893Y-18384550D01*
X65056210Y-18384549D01*
X65124331Y-18404551D01*
X65170824Y-18458207D01*
X65180928Y-18528481D01*
X65151435Y-18593061D01*
X65145305Y-18599644D01*
X64579396Y-19165553D01*
X64576304Y-19168542D01*
X64530892Y-19210954D01*
X64526100Y-19218835D01*
X64507542Y-19242456D01*
X61587405Y-22162595D01*
X61525093Y-22196620D01*
X61498310Y-22199500D01*
X61307260Y-22199500D01*
X61304087Y-22199822D01*
X61304080Y-22199823D01*
X60926930Y-22238175D01*
X60926919Y-22238176D01*
X60923759Y-22238498D01*
X60920638Y-22239139D01*
X60920634Y-22239140D01*
X60549286Y-22315454D01*
X60549270Y-22315458D01*
X60546171Y-22316095D01*
X60543149Y-22317043D01*
X60543138Y-22317046D01*
X60229624Y-22415412D01*
X60178370Y-22431493D01*
X60175459Y-22432742D01*
X60175446Y-22432747D01*
X59827055Y-22582253D01*
X59827035Y-22582262D01*
X59824131Y-22583509D01*
X59821366Y-22585043D01*
X59821347Y-22585053D01*
X59489883Y-22769031D01*
X59489865Y-22769041D01*
X59487089Y-22770583D01*
X59484473Y-22772403D01*
X59484463Y-22772410D01*
X59173316Y-22988974D01*
X59173295Y-22988989D01*
X59170702Y-22990795D01*
X59168301Y-22992855D01*
X59168287Y-22992867D01*
X58880635Y-23239807D01*
X58880620Y-23239821D01*
X58878216Y-23241885D01*
X58876030Y-23244184D01*
X58876017Y-23244197D01*
X58614830Y-23518967D01*
X58614822Y-23518975D01*
X58612634Y-23521278D01*
X58610689Y-23523790D01*
X58610681Y-23523800D01*
X58378630Y-23823585D01*
X58378624Y-23823593D01*
X58376680Y-23826105D01*
X58375002Y-23828795D01*
X58374995Y-23828807D01*
X58174464Y-24150529D01*
X58174457Y-24150540D01*
X58172775Y-24153240D01*
X58171367Y-24156110D01*
X58171365Y-24156114D01*
X58007134Y-24490923D01*
X58003013Y-24499325D01*
X58001908Y-24502306D01*
X58001903Y-24502320D01*
X57870239Y-24857821D01*
X57870231Y-24857843D01*
X57869134Y-24860808D01*
X57868337Y-24863882D01*
X57868335Y-24863892D01*
X57773309Y-25230900D01*
X57773305Y-25230918D01*
X57772512Y-25233982D01*
X57772031Y-25237115D01*
X57772029Y-25237130D01*
X57714624Y-25611853D01*
X57714622Y-25611863D01*
X57714140Y-25615016D01*
X57713978Y-25618195D01*
X57713977Y-25618213D01*
X57698919Y-25915155D01*
X57694616Y-26000000D01*
X57694778Y-26003194D01*
X57713977Y-26381786D01*
X57713978Y-26381802D01*
X57714140Y-26384984D01*
X57714623Y-26388138D01*
X57714624Y-26388146D01*
X57772029Y-26762869D01*
X57772031Y-26762880D01*
X57772512Y-26766018D01*
X57773306Y-26769085D01*
X57773309Y-26769099D01*
X57835085Y-27007689D01*
X57869134Y-27139192D01*
X57870234Y-27142162D01*
X57870239Y-27142178D01*
X58001903Y-27497679D01*
X58003013Y-27500675D01*
X58172775Y-27846760D01*
X58174462Y-27849467D01*
X58174464Y-27849470D01*
X58250341Y-27971204D01*
X58376680Y-28173895D01*
X58612634Y-28478722D01*
X58614830Y-28481032D01*
X58838357Y-28716184D01*
X58878216Y-28758115D01*
X58880631Y-28760188D01*
X58880635Y-28760192D01*
X59042208Y-28898897D01*
X59170702Y-29009205D01*
X59173308Y-29011019D01*
X59173316Y-29011025D01*
X59302735Y-29101103D01*
X59487089Y-29229417D01*
X59824131Y-29416491D01*
X60178370Y-29568507D01*
X60546171Y-29683905D01*
X60613828Y-29697809D01*
X60624874Y-29700079D01*
X60687574Y-29733385D01*
X60722314Y-29795301D01*
X60718065Y-29866170D01*
X60676175Y-29923492D01*
X60609945Y-29949067D01*
X60599510Y-29949500D01*
X56778512Y-29949500D01*
X56710391Y-29929498D01*
X56663898Y-29875842D01*
X56653234Y-29810032D01*
X56653374Y-29808722D01*
X56654500Y-29798255D01*
X56654500Y-29150843D01*
X56674502Y-29082722D01*
X56728158Y-29036229D01*
X56798432Y-29026125D01*
X56828716Y-29034434D01*
X56853993Y-29044904D01*
X57000000Y-29064126D01*
X57146007Y-29044904D01*
X57282063Y-28988547D01*
X57398897Y-28898897D01*
X57488547Y-28782063D01*
X57544904Y-28646007D01*
X57564126Y-28500000D01*
X57544904Y-28353993D01*
X57488547Y-28217937D01*
X57486631Y-28215440D01*
X57398897Y-28101102D01*
X57282062Y-28011451D01*
X57238036Y-27993215D01*
X57218265Y-27981875D01*
X57198394Y-27974039D01*
X57179154Y-27964482D01*
X57175112Y-27962024D01*
X57164706Y-27955696D01*
X57126618Y-27945024D01*
X57114392Y-27940913D01*
X57077596Y-27926402D01*
X57060769Y-27924672D01*
X57039671Y-27920662D01*
X57023386Y-27916100D01*
X57023383Y-27916100D01*
X56983833Y-27916100D01*
X56970948Y-27915439D01*
X56931601Y-27911394D01*
X56914931Y-27914268D01*
X56893524Y-27916100D01*
X56780499Y-27916100D01*
X56712378Y-27896098D01*
X56665885Y-27842442D01*
X56654499Y-27790100D01*
X56654499Y-27705116D01*
X56654499Y-27705112D01*
X56654499Y-27701746D01*
X56648040Y-27641658D01*
X56597342Y-27505733D01*
X56597341Y-27505731D01*
X56510404Y-27389595D01*
X56394268Y-27302658D01*
X56258339Y-27251959D01*
X56201603Y-27245859D01*
X56201585Y-27245858D01*
X56198255Y-27245500D01*
X56194887Y-27245500D01*
X54805116Y-27245500D01*
X54805097Y-27245500D01*
X54801746Y-27245501D01*
X54798404Y-27245860D01*
X54798389Y-27245861D01*
X54741661Y-27251959D01*
X54605731Y-27302658D01*
X54489595Y-27389595D01*
X54402658Y-27505731D01*
X54351959Y-27641660D01*
X54345859Y-27698396D01*
X54345857Y-27698415D01*
X54345500Y-27701745D01*
X54345500Y-27705111D01*
X54345500Y-27705112D01*
X54345500Y-27790100D01*
X54325498Y-27858221D01*
X54271842Y-27904714D01*
X54219500Y-27916100D01*
X54061304Y-27916100D01*
X54057002Y-27916027D01*
X53994888Y-27913905D01*
X53994887Y-27913905D01*
X53994884Y-27913905D01*
X53956446Y-27923271D01*
X53943778Y-27925679D01*
X53904600Y-27931065D01*
X53889088Y-27937802D01*
X53868734Y-27944647D01*
X53852295Y-27948653D01*
X53817815Y-27968040D01*
X53806265Y-27973776D01*
X53754148Y-27996415D01*
X53754038Y-27996162D01*
X53752125Y-27997290D01*
X53717936Y-28011452D01*
X53601102Y-28101102D01*
X53511454Y-28217934D01*
X53492409Y-28263913D01*
X53447860Y-28319193D01*
X53380497Y-28341614D01*
X53311706Y-28324056D01*
X53263327Y-28272093D01*
X53250000Y-28215694D01*
X53250000Y-25029400D01*
X54346001Y-25029400D01*
X54346001Y-25794839D01*
X54346361Y-25801566D01*
X54352452Y-25858235D01*
X54403099Y-25994023D01*
X54489952Y-26110047D01*
X54605973Y-26196898D01*
X54741767Y-26247546D01*
X54798440Y-26253639D01*
X54805157Y-26253999D01*
X55220600Y-26253999D01*
X55220600Y-25029400D01*
X55779400Y-25029400D01*
X55779400Y-26253999D01*
X56194840Y-26253999D01*
X56201566Y-26253638D01*
X56258235Y-26247547D01*
X56394023Y-26196900D01*
X56510047Y-26110047D01*
X56596898Y-25994026D01*
X56647546Y-25858232D01*
X56653639Y-25801559D01*
X56654000Y-25794842D01*
X56654000Y-25029400D01*
X55779400Y-25029400D01*
X55220600Y-25029400D01*
X54346001Y-25029400D01*
X53250000Y-25029400D01*
X53250000Y-25000000D01*
X53249999Y-24999998D01*
X53000001Y-24750000D01*
X53000000Y-24750000D01*
X51052190Y-24750000D01*
X50984069Y-24729998D01*
X50963095Y-24713095D01*
X50796343Y-24546343D01*
X50762317Y-24484031D01*
X50761847Y-24470600D01*
X54346000Y-24470600D01*
X55220600Y-24470600D01*
X55220600Y-23246000D01*
X55779400Y-23246000D01*
X55779400Y-24470600D01*
X56653999Y-24470600D01*
X56653999Y-23705160D01*
X56653638Y-23698433D01*
X56647547Y-23641764D01*
X56596900Y-23505976D01*
X56510047Y-23389952D01*
X56394026Y-23303101D01*
X56258232Y-23252453D01*
X56201559Y-23246360D01*
X56194842Y-23246000D01*
X55779400Y-23246000D01*
X55220600Y-23246000D01*
X54805160Y-23246000D01*
X54798433Y-23246361D01*
X54741764Y-23252452D01*
X54605976Y-23303099D01*
X54489952Y-23389952D01*
X54403101Y-23505973D01*
X54352453Y-23641767D01*
X54346360Y-23698440D01*
X54346000Y-23705157D01*
X54346000Y-24470600D01*
X50761847Y-24470600D01*
X50761365Y-24456821D01*
X50759500Y-24456821D01*
X50759500Y-22545864D01*
X54020500Y-22545864D01*
X54020858Y-22549196D01*
X54020859Y-22549210D01*
X54021201Y-22552386D01*
X54026640Y-22602973D01*
X54042965Y-22646742D01*
X54074825Y-22732163D01*
X54157455Y-22842544D01*
X54240086Y-22904400D01*
X54267837Y-22925175D01*
X54397027Y-22973360D01*
X54454136Y-22979500D01*
X54457503Y-22979500D01*
X54992497Y-22979500D01*
X54995864Y-22979500D01*
X55052973Y-22973360D01*
X55182163Y-22925175D01*
X55292544Y-22842544D01*
X55375175Y-22732163D01*
X55382211Y-22713298D01*
X55424755Y-22656464D01*
X55491275Y-22631652D01*
X55560649Y-22646742D01*
X55610852Y-22696943D01*
X55618322Y-22713298D01*
X55625268Y-22731923D01*
X55707812Y-22842187D01*
X55818077Y-22924731D01*
X55947135Y-22972867D01*
X55995599Y-22978077D01*
X55995600Y-22978076D01*
X55995600Y-22529400D01*
X56554400Y-22529400D01*
X56554400Y-22978077D01*
X56602864Y-22972867D01*
X56731922Y-22924731D01*
X56842187Y-22842187D01*
X56924731Y-22731922D01*
X56972866Y-22602865D01*
X56978640Y-22549168D01*
X56979000Y-22542452D01*
X56979000Y-22529400D01*
X56554400Y-22529400D01*
X55995600Y-22529400D01*
X55995600Y-21521922D01*
X56554400Y-21521922D01*
X56554400Y-21970600D01*
X56979000Y-21970600D01*
X56979000Y-21957547D01*
X56978640Y-21950831D01*
X56972866Y-21897134D01*
X56924731Y-21768077D01*
X56842187Y-21657812D01*
X56731922Y-21575268D01*
X56602866Y-21527133D01*
X56554400Y-21521922D01*
X55995600Y-21521922D01*
X55995599Y-21521922D01*
X55947133Y-21527133D01*
X55818077Y-21575268D01*
X55707812Y-21657812D01*
X55625267Y-21768078D01*
X55618321Y-21786702D01*
X55575774Y-21843537D01*
X55509254Y-21868347D01*
X55439880Y-21853255D01*
X55389678Y-21803052D01*
X55382210Y-21786699D01*
X55378220Y-21776002D01*
X55375175Y-21767837D01*
X55324018Y-21699501D01*
X55299209Y-21632984D01*
X55299965Y-21607559D01*
X55314126Y-21500000D01*
X55294904Y-21353993D01*
X55238547Y-21217937D01*
X55234489Y-21212648D01*
X55148897Y-21101102D01*
X55032065Y-21011454D01*
X55006571Y-21000894D01*
X54896007Y-20955096D01*
X54896005Y-20955095D01*
X54750000Y-20935874D01*
X54603994Y-20955095D01*
X54467934Y-21011454D01*
X54351102Y-21101102D01*
X54261454Y-21217934D01*
X54205095Y-21353994D01*
X54185874Y-21500000D01*
X54192568Y-21550847D01*
X54181628Y-21620996D01*
X54165484Y-21640837D01*
X54168312Y-21642954D01*
X54074825Y-21767836D01*
X54026640Y-21897027D01*
X54020859Y-21950789D01*
X54020858Y-21950804D01*
X54020500Y-21954136D01*
X54020500Y-22545864D01*
X50759500Y-22545864D01*
X50759500Y-20803867D01*
X50759500Y-20802190D01*
X50759371Y-20799784D01*
X50759388Y-20799708D01*
X50759365Y-20798812D01*
X50759399Y-20799664D01*
X50775676Y-20730686D01*
X50796086Y-20703913D01*
X50963096Y-20536904D01*
X51025409Y-20502879D01*
X51052191Y-20500000D01*
X52750000Y-20500000D01*
X53000000Y-20250000D01*
X57435874Y-20250000D01*
X57455095Y-20396005D01*
X57455096Y-20396007D01*
X57499364Y-20502879D01*
X57511454Y-20532065D01*
X57601102Y-20648897D01*
X57707692Y-20730686D01*
X57717937Y-20738547D01*
X57853993Y-20794904D01*
X58000000Y-20814126D01*
X58069486Y-20804978D01*
X58085933Y-20803900D01*
X58170163Y-20803900D01*
X58238284Y-20823902D01*
X58263714Y-20848882D01*
X58270675Y-20853533D01*
X58270676Y-20853534D01*
X58351291Y-20907400D01*
X58375698Y-20923708D01*
X58374376Y-20925685D01*
X58400210Y-20939199D01*
X58435342Y-21000894D01*
X58437641Y-21013424D01*
X58455095Y-21146004D01*
X58455095Y-21146006D01*
X58455096Y-21146007D01*
X58490063Y-21230423D01*
X58511454Y-21282065D01*
X58601102Y-21398897D01*
X58714367Y-21485808D01*
X58717937Y-21488547D01*
X58853993Y-21544904D01*
X59000000Y-21564126D01*
X59146007Y-21544904D01*
X59282063Y-21488547D01*
X59398897Y-21398897D01*
X59488547Y-21282063D01*
X59505735Y-21240566D01*
X59521745Y-21212652D01*
X59523355Y-21210530D01*
X59529560Y-21194793D01*
X59539118Y-21175552D01*
X59547904Y-21161106D01*
X59558575Y-21123015D01*
X59562685Y-21110792D01*
X59577197Y-21073997D01*
X59578927Y-21057170D01*
X59582937Y-21036067D01*
X59587500Y-21019783D01*
X59587500Y-21019780D01*
X59589539Y-21012504D01*
X59627179Y-20952307D01*
X59686287Y-20922922D01*
X59716064Y-20916999D01*
X59752341Y-20909784D01*
X59836524Y-20853534D01*
X59836523Y-20853534D01*
X59857363Y-20839610D01*
X59857596Y-20839959D01*
X59884884Y-20817152D01*
X59951624Y-20807757D01*
X60000000Y-20814126D01*
X60146007Y-20794904D01*
X60282063Y-20738547D01*
X60398897Y-20648897D01*
X60488547Y-20532063D01*
X60544904Y-20396007D01*
X60564126Y-20250000D01*
X60544904Y-20103993D01*
X60488547Y-19967937D01*
X60450768Y-19918702D01*
X60398897Y-19851102D01*
X60282065Y-19761454D01*
X60249541Y-19747982D01*
X60166639Y-19713642D01*
X60146005Y-19705095D01*
X59999999Y-19685873D01*
X59909708Y-19697760D01*
X59839559Y-19686820D01*
X59823261Y-19677603D01*
X59752341Y-19630216D01*
X59733282Y-19626425D01*
X59678107Y-19615450D01*
X59678106Y-19615450D01*
X58429091Y-19615450D01*
X58354859Y-19630215D01*
X58261753Y-19692427D01*
X58194000Y-19713642D01*
X58155585Y-19706356D01*
X58000000Y-19685874D01*
X57853994Y-19705095D01*
X57717934Y-19761454D01*
X57601102Y-19851102D01*
X57511454Y-19967934D01*
X57455095Y-20103994D01*
X57435874Y-20250000D01*
X53000000Y-20250000D01*
X53249999Y-20000001D01*
X53250000Y-20000000D01*
X53250000Y-9302189D01*
X53270002Y-9234069D01*
X53286905Y-9213095D01*
X53463095Y-9036905D01*
X53525407Y-9002879D01*
X53552190Y-9000000D01*
X53837848Y-9000000D01*
X53905969Y-9020002D01*
G37*
%TD.AperFunction*%
%TD*%
%TA.AperFunction,NonConductor*%
G36*
X45087960Y-24295118D02*
G01*
X45124189Y-24356175D01*
X45121656Y-24427127D01*
X45121277Y-24428247D01*
X45118500Y-24436336D01*
X45118500Y-24624000D01*
X45098498Y-24692121D01*
X45044842Y-24738614D01*
X44992500Y-24750000D01*
X44593711Y-24750000D01*
X44525590Y-24729998D01*
X44479097Y-24676342D01*
X44468993Y-24606068D01*
X44498487Y-24541488D01*
X44504601Y-24534919D01*
X44691423Y-24348097D01*
X44753731Y-24314075D01*
X44764054Y-24312275D01*
X44896007Y-24294904D01*
X44953885Y-24270929D01*
X45024473Y-24263340D01*
X45087960Y-24295118D01*
G37*
%TD.AperFunction*%
%TA.AperFunction,NonConductor*%
G36*
X39541637Y-24704402D02*
G01*
X39588130Y-24758058D01*
X39598234Y-24828332D01*
X39573478Y-24887104D01*
X39511454Y-24967934D01*
X39461630Y-25088219D01*
X39417081Y-25143499D01*
X39349718Y-25165920D01*
X39345221Y-25166000D01*
X39115049Y-25166000D01*
X39046928Y-25145998D01*
X39000435Y-25092342D01*
X38990331Y-25022068D01*
X38990600Y-25020290D01*
X38993259Y-25003501D01*
X39002600Y-24944524D01*
X39002600Y-24810400D01*
X39022602Y-24742279D01*
X39076258Y-24695786D01*
X39128600Y-24684400D01*
X39473516Y-24684400D01*
X39541637Y-24704402D01*
G37*
%TD.AperFunction*%
%TA.AperFunction,NonConductor*%
G36*
X39675724Y-25931681D02*
G01*
X39686517Y-25933945D01*
X39702228Y-25931986D01*
X39772298Y-25943407D01*
X39825072Y-25990898D01*
X39843792Y-26059383D01*
X39822515Y-26127116D01*
X39773154Y-26170214D01*
X39742456Y-26185221D01*
X39528581Y-26399096D01*
X39466269Y-26433121D01*
X39439486Y-26436000D01*
X39093950Y-26436000D01*
X39025829Y-26415998D01*
X38979336Y-26362342D01*
X38970157Y-26298505D01*
X38968903Y-26298402D01*
X38969356Y-26292932D01*
X38969232Y-26292068D01*
X38969507Y-26291100D01*
X38970637Y-26277452D01*
X38970640Y-26277448D01*
X38981154Y-26150560D01*
X38964787Y-26085932D01*
X38967455Y-26014985D01*
X39008055Y-25956743D01*
X39073698Y-25929697D01*
X39086932Y-25929000D01*
X39649867Y-25929000D01*
X39675724Y-25931681D01*
G37*
%TD.AperFunction*%
%TA.AperFunction,NonConductor*%
G36*
X25265931Y-17770002D02*
G01*
X25286905Y-17786905D01*
X28499998Y-20999999D01*
X28500000Y-21000000D01*
X46499999Y-21000000D01*
X46500000Y-21000000D01*
X46963096Y-20536903D01*
X47025407Y-20502880D01*
X47052190Y-20500000D01*
X50197810Y-20500000D01*
X50265931Y-20520002D01*
X50286905Y-20536905D01*
X50463095Y-20713095D01*
X50497121Y-20775407D01*
X50500000Y-20802190D01*
X50500000Y-24447809D01*
X50479998Y-24515930D01*
X50463096Y-24536904D01*
X50286903Y-24713096D01*
X50224594Y-24747120D01*
X50197810Y-24750000D01*
X48174889Y-24750000D01*
X48106768Y-24729998D01*
X48060275Y-24676342D01*
X48049967Y-24607555D01*
X48056021Y-24561558D01*
X48064126Y-24500000D01*
X48044904Y-24353993D01*
X47988547Y-24217937D01*
X47970778Y-24194780D01*
X47898897Y-24101102D01*
X47782065Y-24011454D01*
X47646005Y-23955095D01*
X47500000Y-23935874D01*
X47353994Y-23955095D01*
X47217933Y-24011454D01*
X47112363Y-24092462D01*
X47046143Y-24118063D01*
X47035659Y-24118500D01*
X46968386Y-24118500D01*
X46874415Y-24134181D01*
X46762436Y-24194780D01*
X46676205Y-24288452D01*
X46625060Y-24405050D01*
X46614546Y-24531941D01*
X46630026Y-24593068D01*
X46627359Y-24664014D01*
X46586759Y-24722257D01*
X46521116Y-24749303D01*
X46507882Y-24750000D01*
X46007500Y-24750000D01*
X45939379Y-24729998D01*
X45892886Y-24676342D01*
X45881500Y-24624000D01*
X45881500Y-24468385D01*
X45865818Y-24374415D01*
X45865818Y-24374414D01*
X45805220Y-24262438D01*
X45805219Y-24262436D01*
X45711547Y-24176205D01*
X45594949Y-24125060D01*
X45552651Y-24121555D01*
X45468060Y-24114546D01*
X45468059Y-24114546D01*
X45468058Y-24114546D01*
X45416923Y-24127495D01*
X45345976Y-24124827D01*
X45287735Y-24084226D01*
X45260690Y-24018582D01*
X45269584Y-23957132D01*
X45294904Y-23896007D01*
X45314126Y-23750000D01*
X45294904Y-23603993D01*
X45238547Y-23467937D01*
X45197424Y-23414344D01*
X45148897Y-23351102D01*
X45032065Y-23261454D01*
X44896005Y-23205095D01*
X44750000Y-23185874D01*
X44603994Y-23205095D01*
X44467934Y-23261454D01*
X44351102Y-23351102D01*
X44261454Y-23467934D01*
X44205095Y-23603994D01*
X44187726Y-23735927D01*
X44159003Y-23800854D01*
X44151901Y-23808574D01*
X44101383Y-23859094D01*
X44039072Y-23893120D01*
X44012286Y-23896000D01*
X43872686Y-23896000D01*
X43778715Y-23911681D01*
X43666736Y-23972280D01*
X43580505Y-24065952D01*
X43529360Y-24182550D01*
X43529359Y-24182552D01*
X43529360Y-24182552D01*
X43520051Y-24294904D01*
X43518846Y-24309441D01*
X43528780Y-24348668D01*
X43526113Y-24419614D01*
X43485513Y-24477857D01*
X43419870Y-24504903D01*
X43406636Y-24505600D01*
X43057591Y-24505600D01*
X43009372Y-24496008D01*
X42885066Y-24444517D01*
X42739058Y-24425296D01*
X42593052Y-24444517D01*
X42456992Y-24500876D01*
X42340160Y-24590524D01*
X42250512Y-24707356D01*
X42194153Y-24843416D01*
X42174932Y-24989421D01*
X42176785Y-25003501D01*
X42165845Y-25073650D01*
X42140958Y-25109040D01*
X40553973Y-26696025D01*
X40491661Y-26730051D01*
X40420846Y-26724986D01*
X40364010Y-26682439D01*
X40339199Y-26615919D01*
X40344117Y-26570976D01*
X40344239Y-26570568D01*
X40351005Y-26547841D01*
X40345743Y-26420628D01*
X40299461Y-26302016D01*
X40217172Y-26204858D01*
X40107796Y-26139684D01*
X39983184Y-26113555D01*
X39983183Y-26113555D01*
X39967466Y-26115514D01*
X39897394Y-26104090D01*
X39844623Y-26056596D01*
X39825905Y-25988111D01*
X39847185Y-25920379D01*
X39896543Y-25877284D01*
X39927246Y-25862276D01*
X39927248Y-25862273D01*
X39934448Y-25858754D01*
X39934635Y-25858615D01*
X39940060Y-25852720D01*
X39940062Y-25852720D01*
X39941272Y-25851405D01*
X40002122Y-25814832D01*
X40017515Y-25811820D01*
X40146007Y-25794904D01*
X40282063Y-25738547D01*
X40398897Y-25648897D01*
X40488547Y-25532063D01*
X40544904Y-25396007D01*
X40564126Y-25250000D01*
X40544904Y-25103993D01*
X40488547Y-24967937D01*
X40470580Y-24944522D01*
X40398899Y-24851105D01*
X40398897Y-24851104D01*
X40398897Y-24851103D01*
X40397408Y-24849960D01*
X40355543Y-24792625D01*
X40351321Y-24721754D01*
X40386085Y-24659851D01*
X40397399Y-24650045D01*
X40398897Y-24648897D01*
X40488547Y-24532063D01*
X40544904Y-24396007D01*
X40564126Y-24250000D01*
X40544904Y-24103993D01*
X40488547Y-23967937D01*
X40488545Y-23967934D01*
X40398897Y-23851102D01*
X40282065Y-23761454D01*
X40146005Y-23705095D01*
X40000000Y-23685874D01*
X39853994Y-23705095D01*
X39717936Y-23761453D01*
X39609626Y-23844563D01*
X39543406Y-23870163D01*
X39532922Y-23870600D01*
X38637642Y-23870600D01*
X38617931Y-23869049D01*
X38595700Y-23865527D01*
X38568055Y-23869906D01*
X38563676Y-23870600D01*
X38516035Y-23878145D01*
X38468393Y-23885691D01*
X38353546Y-23944209D01*
X38262409Y-24035346D01*
X38203891Y-24150193D01*
X38183727Y-24277499D01*
X38187249Y-24299730D01*
X38188800Y-24319440D01*
X38188800Y-24944524D01*
X38198141Y-25003501D01*
X38203891Y-25039806D01*
X38262409Y-25154653D01*
X38268768Y-25161012D01*
X38302794Y-25223324D01*
X38297729Y-25294139D01*
X38272376Y-25335442D01*
X38271905Y-25335952D01*
X38220760Y-25452550D01*
X38210246Y-25579441D01*
X38226612Y-25644068D01*
X38223945Y-25715015D01*
X38183345Y-25773257D01*
X38117702Y-25800303D01*
X38104468Y-25801000D01*
X37931340Y-25801000D01*
X37863219Y-25780998D01*
X37816726Y-25727342D01*
X37806418Y-25691447D01*
X37794904Y-25603994D01*
X37784734Y-25579441D01*
X37738547Y-25467937D01*
X37738545Y-25467934D01*
X37648897Y-25351102D01*
X37532065Y-25261454D01*
X37494254Y-25245792D01*
X37440013Y-25223324D01*
X37396005Y-25205095D01*
X37250000Y-25185874D01*
X37103994Y-25205095D01*
X36967934Y-25261454D01*
X36851102Y-25351102D01*
X36761454Y-25467934D01*
X36705095Y-25603994D01*
X36685874Y-25750000D01*
X36705095Y-25896005D01*
X36761454Y-26032065D01*
X36851101Y-26148895D01*
X36851103Y-26148897D01*
X36857062Y-26153470D01*
X36898929Y-26210807D01*
X36903150Y-26281678D01*
X36888599Y-26317926D01*
X36863884Y-26359404D01*
X36837754Y-26484018D01*
X36853503Y-26610359D01*
X36891049Y-26687161D01*
X36902998Y-26757145D01*
X36875214Y-26822479D01*
X36816518Y-26862421D01*
X36777852Y-26868500D01*
X36218386Y-26868500D01*
X36124415Y-26884181D01*
X36012436Y-26944780D01*
X35926205Y-27038452D01*
X35866613Y-27174307D01*
X35862138Y-27172344D01*
X35851320Y-27200499D01*
X35794068Y-27242484D01*
X35751201Y-27250000D01*
X35279478Y-27250000D01*
X35231260Y-27240409D01*
X35146006Y-27205095D01*
X35000000Y-27185874D01*
X34853991Y-27205095D01*
X34850580Y-27206509D01*
X34802363Y-27216100D01*
X33447637Y-27216100D01*
X33399420Y-27206509D01*
X33396008Y-27205095D01*
X33250000Y-27185874D01*
X33103993Y-27205095D01*
X33018740Y-27240409D01*
X32970522Y-27250000D01*
X32302190Y-27250000D01*
X32234069Y-27229998D01*
X32213095Y-27213095D01*
X30750001Y-25750000D01*
X30750000Y-25750000D01*
X26802190Y-25750000D01*
X26734069Y-25729998D01*
X26713099Y-25713099D01*
X26000000Y-25000000D01*
X21052190Y-25000000D01*
X20984069Y-24979998D01*
X20963095Y-24963095D01*
X20786905Y-24786905D01*
X20752879Y-24724593D01*
X20750000Y-24697810D01*
X20750000Y-23386726D01*
X21205500Y-23386726D01*
X21205501Y-23390348D01*
X21205919Y-23393952D01*
X21205920Y-23393966D01*
X21208283Y-23414344D01*
X21208283Y-23414346D01*
X21208284Y-23414347D01*
X21231947Y-23467937D01*
X21251626Y-23512505D01*
X21327494Y-23588373D01*
X21327495Y-23588373D01*
X21327497Y-23588375D01*
X21425653Y-23631716D01*
X21449651Y-23634500D01*
X22099025Y-23634499D01*
X22167146Y-23654501D01*
X22213639Y-23708157D01*
X22222604Y-23735919D01*
X22225265Y-23749300D01*
X22281515Y-23833484D01*
X22334742Y-23869049D01*
X22365699Y-23889734D01*
X22439933Y-23904500D01*
X24190066Y-23904499D01*
X24190068Y-23904499D01*
X24247277Y-23893120D01*
X24264301Y-23889734D01*
X24348484Y-23833484D01*
X24404734Y-23749301D01*
X24407396Y-23735916D01*
X24440304Y-23673007D01*
X24501999Y-23637876D01*
X24530975Y-23634499D01*
X25176710Y-23634499D01*
X25180348Y-23634499D01*
X25204347Y-23631716D01*
X25302503Y-23588375D01*
X25378375Y-23512503D01*
X25421716Y-23414347D01*
X25424500Y-23390349D01*
X25424499Y-23109652D01*
X25421716Y-23085653D01*
X25406368Y-23050896D01*
X25397149Y-22980502D01*
X25406367Y-22949105D01*
X25421716Y-22914347D01*
X25424500Y-22890349D01*
X25424499Y-22609652D01*
X25421716Y-22585653D01*
X25406368Y-22550896D01*
X25397149Y-22480502D01*
X25406367Y-22449105D01*
X25421716Y-22414347D01*
X25424500Y-22390349D01*
X25424500Y-22286777D01*
X27212336Y-22286777D01*
X27227479Y-22359647D01*
X27242197Y-22430473D01*
X27309719Y-22560786D01*
X27375762Y-22631500D01*
X27409894Y-22668046D01*
X27535294Y-22744304D01*
X27676617Y-22783900D01*
X29052363Y-22783900D01*
X29100580Y-22793491D01*
X29103991Y-22794904D01*
X29134422Y-22798910D01*
X29250000Y-22814126D01*
X29379022Y-22797140D01*
X29396008Y-22794904D01*
X29399420Y-22793491D01*
X29447637Y-22783900D01*
X30676617Y-22783900D01*
X32052363Y-22783900D01*
X32100580Y-22793491D01*
X32103991Y-22794904D01*
X32134422Y-22798910D01*
X32250000Y-22814126D01*
X32379022Y-22797140D01*
X32396008Y-22794904D01*
X32399420Y-22793491D01*
X32447637Y-22783900D01*
X33676617Y-22783900D01*
X35052363Y-22783900D01*
X35100580Y-22793491D01*
X35103991Y-22794904D01*
X35134422Y-22798910D01*
X35250000Y-22814126D01*
X35379022Y-22797140D01*
X35396008Y-22794904D01*
X35399420Y-22793491D01*
X35447637Y-22783900D01*
X36282218Y-22783900D01*
X36286523Y-22783900D01*
X36395399Y-22768935D01*
X36530014Y-22710464D01*
X36643862Y-22617842D01*
X36728499Y-22497938D01*
X36777648Y-22359647D01*
X36782963Y-22281942D01*
X39613846Y-22281942D01*
X39645101Y-22405365D01*
X39714739Y-22511956D01*
X39815213Y-22590157D01*
X39815214Y-22590157D01*
X39815215Y-22590158D01*
X39935639Y-22631500D01*
X39935640Y-22631500D01*
X42031614Y-22631500D01*
X42087995Y-22622090D01*
X42125586Y-22615818D01*
X42237562Y-22555220D01*
X42323795Y-22461546D01*
X42374940Y-22344948D01*
X42380161Y-22281942D01*
X43114546Y-22281942D01*
X43145801Y-22405365D01*
X43215439Y-22511956D01*
X43315913Y-22590157D01*
X43315914Y-22590157D01*
X43315915Y-22590158D01*
X43436339Y-22631500D01*
X43535659Y-22631500D01*
X43603780Y-22651502D01*
X43612363Y-22657538D01*
X43717933Y-22738545D01*
X43717936Y-22738546D01*
X43717937Y-22738547D01*
X43853993Y-22794904D01*
X44000000Y-22814126D01*
X44146007Y-22794904D01*
X44282063Y-22738547D01*
X44398897Y-22648897D01*
X44488547Y-22532063D01*
X44544904Y-22396007D01*
X44559921Y-22281942D01*
X46614546Y-22281942D01*
X46645801Y-22405365D01*
X46715439Y-22511956D01*
X46815913Y-22590157D01*
X46815914Y-22590157D01*
X46815915Y-22590158D01*
X46936339Y-22631500D01*
X47035659Y-22631500D01*
X47103780Y-22651502D01*
X47112363Y-22657538D01*
X47217933Y-22738545D01*
X47217936Y-22738546D01*
X47217937Y-22738547D01*
X47353993Y-22794904D01*
X47500000Y-22814126D01*
X47646007Y-22794904D01*
X47782063Y-22738547D01*
X47898897Y-22648897D01*
X47988547Y-22532063D01*
X48044904Y-22396007D01*
X48064126Y-22250000D01*
X48044904Y-22103993D01*
X47988547Y-21967937D01*
X47974097Y-21949105D01*
X47898897Y-21851102D01*
X47782065Y-21761454D01*
X47768164Y-21755696D01*
X47708698Y-21731064D01*
X47646005Y-21705095D01*
X47500000Y-21685874D01*
X47353994Y-21705095D01*
X47217933Y-21761454D01*
X47112363Y-21842462D01*
X47046143Y-21868063D01*
X47035659Y-21868500D01*
X46968386Y-21868500D01*
X46874415Y-21884181D01*
X46762436Y-21944780D01*
X46676205Y-22038452D01*
X46625060Y-22155050D01*
X46614546Y-22281942D01*
X44559921Y-22281942D01*
X44564126Y-22250000D01*
X44544904Y-22103993D01*
X44488547Y-21967937D01*
X44474097Y-21949105D01*
X44398897Y-21851102D01*
X44282065Y-21761454D01*
X44268164Y-21755696D01*
X44208698Y-21731064D01*
X44146005Y-21705095D01*
X44000000Y-21685874D01*
X43853994Y-21705095D01*
X43717933Y-21761454D01*
X43612363Y-21842462D01*
X43546143Y-21868063D01*
X43535659Y-21868500D01*
X43468386Y-21868500D01*
X43374415Y-21884181D01*
X43262436Y-21944780D01*
X43176205Y-22038452D01*
X43125060Y-22155050D01*
X43114546Y-22281942D01*
X42380161Y-22281942D01*
X42385454Y-22218060D01*
X42354198Y-22094634D01*
X42354198Y-22094633D01*
X42284560Y-21988043D01*
X42184086Y-21909842D01*
X42116719Y-21886715D01*
X42063661Y-21868500D01*
X39967689Y-21868500D01*
X39967686Y-21868500D01*
X39873715Y-21884181D01*
X39761736Y-21944780D01*
X39675505Y-22038452D01*
X39624360Y-22155050D01*
X39613846Y-22281942D01*
X36782963Y-22281942D01*
X36787664Y-22213223D01*
X36757803Y-22069527D01*
X36690281Y-21939215D01*
X36690280Y-21939213D01*
X36590107Y-21831955D01*
X36590106Y-21831954D01*
X36464706Y-21755696D01*
X36323383Y-21716100D01*
X36323382Y-21716100D01*
X35447637Y-21716100D01*
X35399420Y-21706509D01*
X35396008Y-21705095D01*
X35250000Y-21685874D01*
X35103991Y-21705095D01*
X35100580Y-21706509D01*
X35052363Y-21716100D01*
X32447637Y-21716100D01*
X32399420Y-21706509D01*
X32396008Y-21705095D01*
X32250000Y-21685874D01*
X32103991Y-21705095D01*
X32100580Y-21706509D01*
X32052363Y-21716100D01*
X29447637Y-21716100D01*
X29399420Y-21706509D01*
X29396008Y-21705095D01*
X29250000Y-21685874D01*
X29103991Y-21705095D01*
X29100580Y-21706509D01*
X29052363Y-21716100D01*
X27713477Y-21716100D01*
X27709219Y-21716685D01*
X27709208Y-21716686D01*
X27604602Y-21731064D01*
X27469985Y-21789536D01*
X27469986Y-21789536D01*
X27373464Y-21868063D01*
X27356136Y-21882160D01*
X27271502Y-22002059D01*
X27271500Y-22002062D01*
X27271501Y-22002062D01*
X27231971Y-22113290D01*
X27222352Y-22140354D01*
X27217037Y-22218060D01*
X27212336Y-22286777D01*
X25424500Y-22286777D01*
X25424499Y-22109652D01*
X25421716Y-22085653D01*
X25406368Y-22050896D01*
X25397149Y-21980502D01*
X25406367Y-21949105D01*
X25421716Y-21914347D01*
X25424500Y-21890349D01*
X25424499Y-21609652D01*
X25421716Y-21585653D01*
X25406368Y-21550896D01*
X25397149Y-21480502D01*
X25406367Y-21449105D01*
X25421716Y-21414347D01*
X25424500Y-21390349D01*
X25424499Y-21109652D01*
X25421716Y-21085653D01*
X25406368Y-21050896D01*
X25397149Y-20980502D01*
X25406367Y-20949105D01*
X25421716Y-20914347D01*
X25424500Y-20890349D01*
X25424499Y-20609652D01*
X25421716Y-20585653D01*
X25378375Y-20487497D01*
X25378373Y-20487495D01*
X25378373Y-20487494D01*
X25302505Y-20411626D01*
X25204347Y-20368284D01*
X25183952Y-20365918D01*
X25180349Y-20365500D01*
X25176715Y-20365500D01*
X24530975Y-20365500D01*
X24462854Y-20345498D01*
X24416361Y-20291842D01*
X24407396Y-20264080D01*
X24404734Y-20250699D01*
X24348484Y-20166515D01*
X24264301Y-20110266D01*
X24264296Y-20110265D01*
X24190067Y-20095500D01*
X24190066Y-20095500D01*
X22439931Y-20095500D01*
X22365699Y-20110265D01*
X22281515Y-20166515D01*
X22225266Y-20250698D01*
X22225265Y-20250699D01*
X22225266Y-20250699D01*
X22222605Y-20264080D01*
X22222604Y-20264083D01*
X22189695Y-20326992D01*
X22128000Y-20362123D01*
X22099025Y-20365500D01*
X21453290Y-20365500D01*
X21453272Y-20365500D01*
X21449652Y-20365501D01*
X21446044Y-20365919D01*
X21446033Y-20365920D01*
X21425655Y-20368283D01*
X21327494Y-20411626D01*
X21251626Y-20487494D01*
X21229809Y-20536905D01*
X21208284Y-20585653D01*
X21205500Y-20609651D01*
X21205500Y-20613283D01*
X21205500Y-20613284D01*
X21205500Y-20886709D01*
X21205500Y-20886726D01*
X21205501Y-20890348D01*
X21205919Y-20893954D01*
X21205920Y-20893966D01*
X21208283Y-20914346D01*
X21223631Y-20949105D01*
X21232849Y-21019501D01*
X21223632Y-21050892D01*
X21208284Y-21085652D01*
X21208284Y-21085653D01*
X21205500Y-21109651D01*
X21205500Y-21113283D01*
X21205500Y-21113284D01*
X21205500Y-21386709D01*
X21205500Y-21386726D01*
X21205501Y-21390348D01*
X21205919Y-21393954D01*
X21205920Y-21393966D01*
X21208283Y-21414346D01*
X21223631Y-21449105D01*
X21232849Y-21519501D01*
X21223632Y-21550892D01*
X21208284Y-21585652D01*
X21208284Y-21585653D01*
X21205500Y-21609651D01*
X21205500Y-21613283D01*
X21205500Y-21613284D01*
X21205500Y-21886709D01*
X21205500Y-21886726D01*
X21205501Y-21890348D01*
X21205919Y-21893954D01*
X21205920Y-21893966D01*
X21208283Y-21914346D01*
X21223631Y-21949105D01*
X21232849Y-22019501D01*
X21223632Y-22050892D01*
X21215404Y-22069527D01*
X21208284Y-22085653D01*
X21205500Y-22109651D01*
X21205500Y-22113283D01*
X21205500Y-22113284D01*
X21205500Y-22386709D01*
X21205500Y-22386726D01*
X21205501Y-22390348D01*
X21205919Y-22393954D01*
X21205920Y-22393966D01*
X21208283Y-22414346D01*
X21223631Y-22449105D01*
X21232849Y-22519501D01*
X21223632Y-22550892D01*
X21208284Y-22585652D01*
X21208284Y-22585653D01*
X21205500Y-22609651D01*
X21205500Y-22613283D01*
X21205500Y-22613284D01*
X21205500Y-22886709D01*
X21205500Y-22886726D01*
X21205501Y-22890348D01*
X21205919Y-22893954D01*
X21205920Y-22893966D01*
X21208283Y-22914346D01*
X21223631Y-22949105D01*
X21232849Y-23019501D01*
X21223632Y-23050892D01*
X21208284Y-23085652D01*
X21208284Y-23085653D01*
X21205500Y-23109651D01*
X21205500Y-23113283D01*
X21205500Y-23113284D01*
X21205500Y-23386709D01*
X21205500Y-23386726D01*
X20750000Y-23386726D01*
X20750000Y-18052190D01*
X20770002Y-17984069D01*
X20786905Y-17963095D01*
X20963095Y-17786905D01*
X21025407Y-17752879D01*
X21052190Y-17750000D01*
X25197810Y-17750000D01*
X25265931Y-17770002D01*
G37*
%TD.AperFunction*%
%TA.AperFunction,NonConductor*%
G36*
X6195213Y-18520002D02*
G01*
X6241706Y-18573658D01*
X6251809Y-18608068D01*
X6257080Y-18644731D01*
X6257080Y-18644732D01*
X6257081Y-18644734D01*
X6308916Y-18758238D01*
X6317824Y-18777743D01*
X6413578Y-18888250D01*
X6536589Y-18967304D01*
X6676888Y-19008500D01*
X6676889Y-19008500D01*
X6823112Y-19008500D01*
X6892233Y-18988204D01*
X6927731Y-18983100D01*
X8335446Y-18983100D01*
X9822269Y-18983100D01*
X9857767Y-18988204D01*
X9926888Y-19008500D01*
X9926889Y-19008500D01*
X10073112Y-19008500D01*
X10159615Y-18983100D01*
X10213411Y-18967304D01*
X10336421Y-18888250D01*
X10432176Y-18777743D01*
X10492919Y-18644734D01*
X10498190Y-18608068D01*
X10527684Y-18543487D01*
X10587410Y-18505104D01*
X10622908Y-18500000D01*
X12197810Y-18500000D01*
X12265931Y-18520002D01*
X12286905Y-18536905D01*
X12463095Y-18713095D01*
X12497121Y-18775407D01*
X12500000Y-18802190D01*
X12500000Y-29697810D01*
X12479998Y-29765931D01*
X12463095Y-29786905D01*
X12337405Y-29912595D01*
X12275093Y-29946621D01*
X12248310Y-29949500D01*
X3703828Y-29949500D01*
X3635707Y-29929498D01*
X3589214Y-29875842D01*
X3579110Y-29805568D01*
X3608604Y-29740988D01*
X3668330Y-29702604D01*
X3696763Y-29697698D01*
X3699092Y-29697567D01*
X3859266Y-29688572D01*
X4214014Y-29628298D01*
X4559782Y-29528684D01*
X4892224Y-29390982D01*
X5207157Y-29216925D01*
X5500622Y-29008700D01*
X5768927Y-28768927D01*
X6008700Y-28500622D01*
X6216925Y-28207157D01*
X6390982Y-27892224D01*
X6528684Y-27559782D01*
X6628298Y-27214014D01*
X6688572Y-26859266D01*
X6708748Y-26500000D01*
X6688572Y-26140734D01*
X6628298Y-25785986D01*
X6528684Y-25440218D01*
X6390982Y-25107776D01*
X6216925Y-24792843D01*
X6008700Y-24499378D01*
X5768927Y-24231073D01*
X5500622Y-23991300D01*
X5497753Y-23989264D01*
X5210040Y-23785120D01*
X5210032Y-23785115D01*
X5207157Y-23783075D01*
X5204062Y-23781364D01*
X5204055Y-23781360D01*
X4895317Y-23610727D01*
X4895310Y-23610724D01*
X4892224Y-23609018D01*
X4823053Y-23580366D01*
X4563050Y-23472669D01*
X4563039Y-23472665D01*
X4559782Y-23471316D01*
X4465639Y-23444193D01*
X4217404Y-23372678D01*
X4217393Y-23372675D01*
X4214014Y-23371702D01*
X4210550Y-23371113D01*
X4210535Y-23371110D01*
X3862750Y-23312019D01*
X3862733Y-23312017D01*
X3859266Y-23311428D01*
X3855751Y-23311230D01*
X3855737Y-23311229D01*
X3503526Y-23291450D01*
X3500000Y-23291252D01*
X3496474Y-23291450D01*
X3144262Y-23311229D01*
X3144246Y-23311230D01*
X3140734Y-23311428D01*
X3137268Y-23312016D01*
X3137249Y-23312019D01*
X2789464Y-23371110D01*
X2789445Y-23371114D01*
X2785986Y-23371702D01*
X2782610Y-23372674D01*
X2782595Y-23372678D01*
X2443616Y-23470337D01*
X2440218Y-23471316D01*
X2436965Y-23472663D01*
X2436949Y-23472669D01*
X2111037Y-23607667D01*
X2111033Y-23607668D01*
X2107776Y-23609018D01*
X2104695Y-23610720D01*
X2104682Y-23610727D01*
X1795944Y-23781360D01*
X1795928Y-23781369D01*
X1792843Y-23783075D01*
X1789975Y-23785109D01*
X1789959Y-23785120D01*
X1502246Y-23989264D01*
X1502234Y-23989273D01*
X1499378Y-23991300D01*
X1496763Y-23993636D01*
X1496754Y-23993644D01*
X1233696Y-24228728D01*
X1233687Y-24228736D01*
X1231073Y-24231073D01*
X1228736Y-24233687D01*
X1228728Y-24233696D01*
X993644Y-24496754D01*
X993636Y-24496763D01*
X991300Y-24499378D01*
X989273Y-24502234D01*
X989264Y-24502246D01*
X785120Y-24789959D01*
X785109Y-24789975D01*
X783075Y-24792843D01*
X781369Y-24795928D01*
X781360Y-24795944D01*
X610727Y-25104682D01*
X610720Y-25104695D01*
X609018Y-25107776D01*
X607668Y-25111033D01*
X607667Y-25111037D01*
X472669Y-25436949D01*
X472663Y-25436965D01*
X471316Y-25440218D01*
X470337Y-25443615D01*
X470337Y-25443616D01*
X372678Y-25782595D01*
X372674Y-25782610D01*
X371702Y-25785986D01*
X371114Y-25789445D01*
X371110Y-25789464D01*
X312019Y-26137249D01*
X312016Y-26137268D01*
X311428Y-26140734D01*
X311230Y-26144246D01*
X311229Y-26144262D01*
X302302Y-26303237D01*
X278512Y-26370129D01*
X222333Y-26413540D01*
X151604Y-26419688D01*
X88778Y-26386620D01*
X53804Y-26324836D01*
X50500Y-26296172D01*
X50500Y-22251690D01*
X70502Y-22183569D01*
X87400Y-22162599D01*
X213096Y-22036903D01*
X275408Y-22002879D01*
X302191Y-22000000D01*
X3750000Y-22000000D01*
X3999999Y-21750001D01*
X4000000Y-21750000D01*
X4000000Y-21000000D01*
X6236270Y-21000000D01*
X6257080Y-21144731D01*
X6317824Y-21277743D01*
X6413578Y-21388250D01*
X6536589Y-21467304D01*
X6676888Y-21508500D01*
X6676889Y-21508500D01*
X6823112Y-21508500D01*
X6892233Y-21488204D01*
X6927731Y-21483100D01*
X8335446Y-21483100D01*
X9822269Y-21483100D01*
X9857767Y-21488204D01*
X9926888Y-21508500D01*
X9926889Y-21508500D01*
X10073112Y-21508500D01*
X10159615Y-21483100D01*
X10213411Y-21467304D01*
X10336421Y-21388250D01*
X10432176Y-21277743D01*
X10492919Y-21144734D01*
X10513729Y-21000000D01*
X10492919Y-20855266D01*
X10432176Y-20722257D01*
X10419392Y-20707504D01*
X10336421Y-20611749D01*
X10213410Y-20532695D01*
X10073112Y-20491500D01*
X10073111Y-20491500D01*
X9926889Y-20491500D01*
X9926888Y-20491500D01*
X9857767Y-20511796D01*
X9822269Y-20516900D01*
X6927731Y-20516900D01*
X6892233Y-20511796D01*
X6823112Y-20491500D01*
X6823111Y-20491500D01*
X6676889Y-20491500D01*
X6676888Y-20491500D01*
X6536589Y-20532695D01*
X6413578Y-20611749D01*
X6317824Y-20722256D01*
X6257080Y-20855268D01*
X6236270Y-21000000D01*
X4000000Y-21000000D01*
X4000000Y-18847334D01*
X4020002Y-18779213D01*
X4036905Y-18758238D01*
X4258240Y-18536904D01*
X4320552Y-18502879D01*
X4347335Y-18500000D01*
X6127092Y-18500000D01*
X6195213Y-18520002D01*
G37*
%TD.AperFunction*%
%TA.AperFunction,NonConductor*%
G36*
X259012Y-26608603D02*
G01*
X297396Y-26668329D01*
X302302Y-26696762D01*
X311229Y-26855737D01*
X311230Y-26855751D01*
X311428Y-26859266D01*
X312017Y-26862733D01*
X312019Y-26862750D01*
X371110Y-27210535D01*
X371113Y-27210550D01*
X371702Y-27214014D01*
X372675Y-27217393D01*
X372678Y-27217404D01*
X407195Y-27337214D01*
X471316Y-27559782D01*
X472665Y-27563039D01*
X472669Y-27563050D01*
X580366Y-27823053D01*
X609018Y-27892224D01*
X610724Y-27895310D01*
X610727Y-27895317D01*
X781360Y-28204055D01*
X781364Y-28204062D01*
X783075Y-28207157D01*
X785115Y-28210032D01*
X785120Y-28210040D01*
X910537Y-28386798D01*
X991300Y-28500622D01*
X1231073Y-28768927D01*
X1499378Y-29008700D01*
X1502245Y-29010734D01*
X1502246Y-29010735D01*
X1607773Y-29085611D01*
X1792843Y-29216925D01*
X2107776Y-29390982D01*
X2440218Y-29528684D01*
X2785986Y-29628298D01*
X2789462Y-29628888D01*
X2789464Y-29628889D01*
X3137249Y-29687980D01*
X3137251Y-29687980D01*
X3140734Y-29688572D01*
X3299912Y-29697511D01*
X3303237Y-29697698D01*
X3370129Y-29721488D01*
X3413540Y-29777667D01*
X3419688Y-29848396D01*
X3386620Y-29911222D01*
X3324836Y-29946196D01*
X3296172Y-29949500D01*
X3003539Y-29949500D01*
X2996474Y-29949302D01*
X2676826Y-29931350D01*
X2662785Y-29929768D01*
X2350651Y-29876735D01*
X2336876Y-29873591D01*
X2032640Y-29785942D01*
X2019303Y-29781275D01*
X1726797Y-29660115D01*
X1714066Y-29653984D01*
X1436967Y-29500837D01*
X1425003Y-29493320D01*
X1166786Y-29310105D01*
X1155739Y-29301295D01*
X919665Y-29090325D01*
X909674Y-29080334D01*
X698704Y-28844260D01*
X689894Y-28833213D01*
X506679Y-28574996D01*
X499162Y-28563032D01*
X346015Y-28285933D01*
X339884Y-28273202D01*
X218724Y-27980696D01*
X214057Y-27967359D01*
X126408Y-27663123D01*
X123266Y-27649357D01*
X70230Y-27337212D01*
X68649Y-27323173D01*
X62323Y-27210535D01*
X50698Y-27003525D01*
X50500Y-26996460D01*
X50500Y-26703827D01*
X70502Y-26635706D01*
X124158Y-26589213D01*
X194432Y-26579109D01*
X259012Y-26608603D01*
G37*
%TD.AperFunction*%
%TA.AperFunction,Conductor*%
%TO.N,+5V*%
G36*
X7663921Y-70502D02*
G01*
X7710414Y-124158D01*
X7721800Y-176500D01*
X7721799Y-1471424D01*
X7701797Y-1539545D01*
X7693198Y-1551357D01*
X7573191Y-1697585D01*
X7484633Y-1863266D01*
X7484632Y-1863268D01*
X7484632Y-1863269D01*
X7433255Y-2032640D01*
X7430098Y-2043046D01*
X7411684Y-2229999D01*
X7430098Y-2416953D01*
X7430098Y-2416955D01*
X7430099Y-2416958D01*
X7462006Y-2522142D01*
X7484633Y-2596733D01*
X7573191Y-2762414D01*
X7692368Y-2907631D01*
X7837585Y-3026808D01*
X7837589Y-3026810D01*
X8003269Y-3115368D01*
X8183042Y-3169901D01*
X8257825Y-3177266D01*
X8369994Y-3188315D01*
X8369996Y-3188314D01*
X8370000Y-3188315D01*
X8374107Y-3187910D01*
X8443859Y-3201136D01*
X8495390Y-3249974D01*
X8512336Y-3318918D01*
X8510316Y-3336455D01*
X8499500Y-3394317D01*
X8499500Y-3605682D01*
X8510316Y-3663544D01*
X8503171Y-3734180D01*
X8458972Y-3789741D01*
X8391751Y-3812585D01*
X8374113Y-3812089D01*
X8370002Y-3811684D01*
X8183046Y-3830098D01*
X8183043Y-3830098D01*
X8183042Y-3830099D01*
X8020042Y-3879544D01*
X8003266Y-3884633D01*
X7837585Y-3973191D01*
X7692368Y-4092368D01*
X7573191Y-4237585D01*
X7484633Y-4403266D01*
X7484632Y-4403268D01*
X7484632Y-4403269D01*
X7436164Y-4563050D01*
X7430098Y-4583046D01*
X7411684Y-4770000D01*
X7430098Y-4956953D01*
X7430098Y-4956955D01*
X7430099Y-4956958D01*
X7431671Y-4962139D01*
X7484633Y-5136733D01*
X7573189Y-5302410D01*
X7693198Y-5448641D01*
X7720952Y-5513988D01*
X7721799Y-5528575D01*
X7721799Y-6940062D01*
X7729767Y-6980114D01*
X7733619Y-6999480D01*
X7778640Y-7066860D01*
X7846020Y-7111881D01*
X7905436Y-7123700D01*
X7905437Y-7123700D01*
X8834563Y-7123700D01*
X8834564Y-7123700D01*
X8893980Y-7111881D01*
X8961360Y-7066860D01*
X9006381Y-6999480D01*
X9018200Y-6940064D01*
X9018200Y-5528575D01*
X9038202Y-5460455D01*
X9046801Y-5448642D01*
X9146900Y-5326671D01*
X9166810Y-5302411D01*
X9255368Y-5136731D01*
X9309901Y-4956958D01*
X9318270Y-4871977D01*
X9328315Y-4770006D01*
X9328314Y-4770003D01*
X9328315Y-4770000D01*
X9328018Y-4766989D01*
X9329253Y-4760474D01*
X9329532Y-4757650D01*
X9329784Y-4757674D01*
X9341244Y-4697239D01*
X9390081Y-4645708D01*
X9459026Y-4628761D01*
X9465037Y-4629174D01*
X9584354Y-4640230D01*
X9584360Y-4640230D01*
X9587271Y-4640500D01*
X9590184Y-4640500D01*
X9689816Y-4640500D01*
X9692729Y-4640500D01*
X9695640Y-4640230D01*
X9695645Y-4640230D01*
X9814962Y-4629174D01*
X9884637Y-4642805D01*
X9935883Y-4691941D01*
X9952428Y-4760983D01*
X9951981Y-4766984D01*
X9951684Y-4769997D01*
X9970098Y-4956953D01*
X9970098Y-4956955D01*
X9970099Y-4956958D01*
X9971671Y-4962139D01*
X10024633Y-5136733D01*
X10113189Y-5302410D01*
X10233198Y-5448641D01*
X10260952Y-5513988D01*
X10261799Y-5528575D01*
X10261799Y-6940062D01*
X10269767Y-6980114D01*
X10273619Y-6999480D01*
X10318640Y-7066860D01*
X10354072Y-7090535D01*
X10399600Y-7145011D01*
X10402549Y-7168489D01*
X10447302Y-7132950D01*
X10494688Y-7123700D01*
X11374563Y-7123700D01*
X11374564Y-7123700D01*
X11433980Y-7111881D01*
X11501360Y-7066860D01*
X11546381Y-6999480D01*
X11558200Y-6940064D01*
X11558200Y-5528575D01*
X11578202Y-5460455D01*
X11586801Y-5448642D01*
X11686900Y-5326671D01*
X11706810Y-5302411D01*
X11795368Y-5136731D01*
X11849901Y-4956958D01*
X11868315Y-4770000D01*
X11849901Y-4583042D01*
X11795368Y-4403269D01*
X11706810Y-4237589D01*
X11706808Y-4237585D01*
X11587631Y-4092368D01*
X11442414Y-3973191D01*
X11276733Y-3884633D01*
X11276732Y-3884632D01*
X11276731Y-3884632D01*
X11096958Y-3830099D01*
X11096955Y-3830098D01*
X11096953Y-3830098D01*
X10910002Y-3811684D01*
X10905885Y-3812090D01*
X10836132Y-3798859D01*
X10784605Y-3750018D01*
X10767664Y-3681072D01*
X10769684Y-3663542D01*
X10780500Y-3605684D01*
X10780500Y-3394314D01*
X10769684Y-3336456D01*
X10776827Y-3265820D01*
X10821026Y-3210259D01*
X10888247Y-3187414D01*
X10905886Y-3187909D01*
X10910000Y-3188315D01*
X10910002Y-3188314D01*
X10910004Y-3188315D01*
X11101135Y-3169490D01*
X11170888Y-3182718D01*
X11202580Y-3205787D01*
X11792089Y-3795295D01*
X11808991Y-3816269D01*
X11811142Y-3819616D01*
X11847208Y-3850867D01*
X11853779Y-3856985D01*
X11862830Y-3866036D01*
X11873065Y-3873698D01*
X11880067Y-3879341D01*
X11916127Y-3910587D01*
X11916130Y-3910588D01*
X11916131Y-3910589D01*
X11919745Y-3912239D01*
X11942913Y-3925986D01*
X11946094Y-3928367D01*
X11973929Y-3938749D01*
X11990792Y-3945039D01*
X11999096Y-3948478D01*
X12042495Y-3968298D01*
X12046426Y-3968863D01*
X12072534Y-3975527D01*
X12076252Y-3976914D01*
X12087238Y-3977699D01*
X12123827Y-3980315D01*
X12132761Y-3981275D01*
X12145446Y-3983100D01*
X12158249Y-3983100D01*
X12167235Y-3983420D01*
X12214818Y-3986824D01*
X12217514Y-3986237D01*
X12218704Y-3985979D01*
X12245484Y-3983100D01*
X12595639Y-3983100D01*
X12663760Y-4003102D01*
X12710253Y-4056758D01*
X12720357Y-4127032D01*
X12693038Y-4189034D01*
X12653189Y-4237589D01*
X12564633Y-4403266D01*
X12564632Y-4403268D01*
X12564632Y-4403269D01*
X12516164Y-4563050D01*
X12510098Y-4583046D01*
X12491684Y-4769999D01*
X12510098Y-4956953D01*
X12510098Y-4956955D01*
X12510099Y-4956958D01*
X12511671Y-4962139D01*
X12564633Y-5136733D01*
X12653189Y-5302410D01*
X12773198Y-5448641D01*
X12800952Y-5513988D01*
X12801799Y-5528575D01*
X12801799Y-6940062D01*
X12809767Y-6980114D01*
X12813619Y-6999480D01*
X12858640Y-7066860D01*
X12926020Y-7111881D01*
X12985436Y-7123700D01*
X12985437Y-7123700D01*
X13491065Y-7123700D01*
X13559186Y-7143702D01*
X13605679Y-7197358D01*
X13615783Y-7267632D01*
X13586289Y-7332212D01*
X13548267Y-7361967D01*
X13484751Y-7394329D01*
X13394329Y-7484751D01*
X13336273Y-7598693D01*
X13333464Y-7616431D01*
X13321300Y-7693230D01*
X13321300Y-8156770D01*
X13324341Y-8175967D01*
X13336273Y-8251306D01*
X13394329Y-8365248D01*
X13484751Y-8455670D01*
X13484753Y-8455671D01*
X13598695Y-8513727D01*
X13693230Y-8528700D01*
X14008830Y-8528700D01*
X14076951Y-8548702D01*
X14097925Y-8565605D01*
X14288525Y-8756205D01*
X14322551Y-8818517D01*
X14317486Y-8889332D01*
X14274939Y-8946168D01*
X14208419Y-8970979D01*
X14199430Y-8971300D01*
X13693230Y-8971300D01*
X13645962Y-8978786D01*
X13598693Y-8986273D01*
X13484752Y-9044328D01*
X13457473Y-9071608D01*
X13395161Y-9105632D01*
X13324345Y-9100566D01*
X13300259Y-9088509D01*
X13213412Y-9032696D01*
X13073112Y-8991500D01*
X13073111Y-8991500D01*
X12926889Y-8991500D01*
X12926888Y-8991500D01*
X12786587Y-9032696D01*
X12699740Y-9088509D01*
X12631619Y-9108511D01*
X12563499Y-9088508D01*
X12542525Y-9071606D01*
X12515248Y-9044329D01*
X12401306Y-8986273D01*
X12364736Y-8980481D01*
X12306770Y-8971300D01*
X11693230Y-8971300D01*
X11645962Y-8978786D01*
X11598693Y-8986273D01*
X11484751Y-9044329D01*
X11394329Y-9134751D01*
X11336273Y-9248693D01*
X11334720Y-9258500D01*
X11321300Y-9343230D01*
X11321300Y-9806770D01*
X11331623Y-9871946D01*
X11336273Y-9901306D01*
X11394329Y-10015248D01*
X11484751Y-10105670D01*
X11484753Y-10105671D01*
X11598695Y-10163727D01*
X11693230Y-10178700D01*
X11693232Y-10178700D01*
X12306768Y-10178700D01*
X12306770Y-10178700D01*
X12401305Y-10163727D01*
X12515247Y-10105671D01*
X12605671Y-10015247D01*
X12605670Y-10015247D01*
X12608677Y-10012241D01*
X12654216Y-9964019D01*
X12723130Y-9946949D01*
X12785862Y-9966837D01*
X12786589Y-9967304D01*
X12880122Y-9994768D01*
X12926888Y-10008500D01*
X12926889Y-10008500D01*
X13073112Y-10008500D01*
X13172216Y-9979400D01*
X13213411Y-9967304D01*
X13214134Y-9966838D01*
X13282251Y-9946834D01*
X13350373Y-9966832D01*
X13392739Y-10013658D01*
X13484751Y-10105670D01*
X13484753Y-10105671D01*
X13598695Y-10163727D01*
X13693230Y-10178700D01*
X13693232Y-10178700D01*
X14306768Y-10178700D01*
X14306770Y-10178700D01*
X14401305Y-10163727D01*
X14515247Y-10105671D01*
X14602729Y-10018188D01*
X14665039Y-9984165D01*
X14735855Y-9989229D01*
X14792691Y-10031776D01*
X14805019Y-10051944D01*
X14808160Y-10058369D01*
X14891630Y-10141839D01*
X14997677Y-10193682D01*
X14997679Y-10193682D01*
X14997681Y-10193683D01*
X15066431Y-10203700D01*
X16158568Y-10203699D01*
X16227319Y-10193683D01*
X16333369Y-10141839D01*
X16416839Y-10058369D01*
X16438697Y-10013658D01*
X16455445Y-9979400D01*
X17045112Y-9979400D01*
X17083574Y-10058075D01*
X17166924Y-10141425D01*
X17272824Y-10193197D01*
X17341479Y-10203199D01*
X17608100Y-10203199D01*
X17608100Y-9979400D01*
X17045112Y-9979400D01*
X16455445Y-9979400D01*
X16468682Y-9952322D01*
X16468682Y-9952320D01*
X16468683Y-9952319D01*
X16478700Y-9883569D01*
X16478699Y-9516432D01*
X16468683Y-9447681D01*
X16416839Y-9341631D01*
X16416837Y-9341629D01*
X16416837Y-9341628D01*
X16389304Y-9314095D01*
X16355278Y-9251783D01*
X16360343Y-9180968D01*
X16389304Y-9135905D01*
X16416839Y-9108369D01*
X16468682Y-9002322D01*
X16468682Y-9002320D01*
X16468683Y-9002319D01*
X16478700Y-8933569D01*
X16478700Y-8868620D01*
X16498700Y-8800503D01*
X16552355Y-8754009D01*
X16622629Y-8743904D01*
X16640191Y-8747724D01*
X16676889Y-8758500D01*
X16676890Y-8758500D01*
X16823109Y-8758500D01*
X16823111Y-8758500D01*
X16859803Y-8747725D01*
X16930797Y-8747725D01*
X16990523Y-8786108D01*
X17020017Y-8850689D01*
X17021300Y-8868620D01*
X17021300Y-8933565D01*
X17028979Y-8986273D01*
X17031317Y-9002319D01*
X17063250Y-9067639D01*
X17083162Y-9108371D01*
X17111050Y-9136259D01*
X17145076Y-9198571D01*
X17140011Y-9269386D01*
X17111050Y-9314449D01*
X17083574Y-9341924D01*
X17045111Y-9420599D01*
X17045112Y-9420600D01*
X18040900Y-9420600D01*
X18109021Y-9440602D01*
X18155514Y-9494258D01*
X18166900Y-9546600D01*
X18166900Y-10203199D01*
X18433521Y-10203199D01*
X18502172Y-10193197D01*
X18614960Y-10138058D01*
X18684944Y-10126109D01*
X18750278Y-10153892D01*
X18790220Y-10212588D01*
X18796300Y-10251253D01*
X18796300Y-10308565D01*
X18796301Y-10308569D01*
X18806317Y-10377319D01*
X18813314Y-10391631D01*
X18858162Y-10483371D01*
X18941630Y-10566839D01*
X19047677Y-10618682D01*
X19047679Y-10618682D01*
X19047681Y-10618683D01*
X19116431Y-10628700D01*
X19483568Y-10628699D01*
X19552319Y-10618683D01*
X19658369Y-10566839D01*
X19741839Y-10483369D01*
X19754536Y-10457397D01*
X19793682Y-10377322D01*
X19793682Y-10377320D01*
X19793683Y-10377319D01*
X19803700Y-10308569D01*
X19803699Y-9066432D01*
X19793683Y-8997681D01*
X19741839Y-8891631D01*
X19741837Y-8891629D01*
X19741837Y-8891628D01*
X19740517Y-8890308D01*
X19706491Y-8827996D01*
X19707086Y-8819670D01*
X19665344Y-8811571D01*
X19552319Y-8756317D01*
X19536478Y-8754009D01*
X19483569Y-8746300D01*
X19483566Y-8746300D01*
X19116434Y-8746300D01*
X19047679Y-8756317D01*
X18935036Y-8811384D01*
X18865052Y-8823332D01*
X18799719Y-8795547D01*
X18759778Y-8736850D01*
X18753699Y-8698186D01*
X18753699Y-8566433D01*
X18753699Y-8566432D01*
X18743683Y-8497681D01*
X18727431Y-8464438D01*
X18715483Y-8394455D01*
X18743267Y-8329120D01*
X18801963Y-8289179D01*
X18840629Y-8283100D01*
X19620801Y-8283100D01*
X19688922Y-8303102D01*
X19735415Y-8356758D01*
X19746801Y-8409100D01*
X19746800Y-8433520D01*
X19756802Y-8502174D01*
X19808574Y-8608075D01*
X19809777Y-8609278D01*
X19843803Y-8671590D01*
X19843207Y-8679916D01*
X19884951Y-8688016D01*
X19970599Y-8729887D01*
X19970600Y-8729887D01*
X19970600Y-8409100D01*
X19990602Y-8340979D01*
X20044258Y-8294486D01*
X20096600Y-8283100D01*
X20403400Y-8283100D01*
X20471521Y-8303102D01*
X20518014Y-8356758D01*
X20529400Y-8409100D01*
X20529400Y-8729887D01*
X20615048Y-8688016D01*
X20685032Y-8676067D01*
X20750366Y-8703851D01*
X20790308Y-8762547D01*
X20792175Y-8833519D01*
X20759485Y-8890306D01*
X20758160Y-8891630D01*
X20706317Y-8997677D01*
X20696300Y-9066433D01*
X20696300Y-10308565D01*
X20696301Y-10308569D01*
X20706317Y-10377319D01*
X20713314Y-10391631D01*
X20758162Y-10483371D01*
X20841630Y-10566839D01*
X20947677Y-10618682D01*
X20947679Y-10618682D01*
X20947681Y-10618683D01*
X21016431Y-10628700D01*
X21383568Y-10628699D01*
X21452319Y-10618683D01*
X21558369Y-10566839D01*
X21641839Y-10483369D01*
X21654536Y-10457397D01*
X21693682Y-10377322D01*
X21693682Y-10377320D01*
X21693683Y-10377319D01*
X21703700Y-10308569D01*
X21703699Y-10111280D01*
X21723701Y-10043161D01*
X21777356Y-9996668D01*
X21847630Y-9986563D01*
X21865187Y-9990382D01*
X21926889Y-10008500D01*
X21926890Y-10008500D01*
X22073112Y-10008500D01*
X22172216Y-9979400D01*
X22213411Y-9967304D01*
X22214134Y-9966838D01*
X22282251Y-9946834D01*
X22350373Y-9966832D01*
X22392739Y-10013658D01*
X22484751Y-10105670D01*
X22484753Y-10105671D01*
X22598695Y-10163727D01*
X22693230Y-10178700D01*
X22693232Y-10178700D01*
X23306768Y-10178700D01*
X23306770Y-10178700D01*
X23401305Y-10163727D01*
X23515247Y-10105671D01*
X23605671Y-10015247D01*
X23663727Y-9901305D01*
X23678700Y-9806770D01*
X23678700Y-9343230D01*
X23663727Y-9248695D01*
X23663726Y-9248693D01*
X23660605Y-9228985D01*
X23664792Y-9228321D01*
X23658369Y-9194145D01*
X23685060Y-9128356D01*
X23743081Y-9087441D01*
X23783742Y-9080700D01*
X24641985Y-9080700D01*
X24710106Y-9100702D01*
X24756599Y-9154358D01*
X24766703Y-9224632D01*
X24751104Y-9269701D01*
X24684448Y-9385149D01*
X24669299Y-9471065D01*
X24669300Y-11313884D01*
X24649298Y-11382005D01*
X24603454Y-11421728D01*
X24604386Y-11423343D01*
X24596012Y-11428177D01*
X24595642Y-11428498D01*
X24595239Y-11428623D01*
X24586714Y-11433545D01*
X24558976Y-11445033D01*
X24526649Y-11467669D01*
X24517385Y-11473571D01*
X24484152Y-11492759D01*
X24459476Y-11522166D01*
X24452052Y-11530266D01*
X23099923Y-12882396D01*
X23037613Y-12916420D01*
X23010830Y-12919300D01*
X21470709Y-12919300D01*
X21459728Y-12918821D01*
X21421490Y-12915475D01*
X21384432Y-12925405D01*
X21373705Y-12927783D01*
X21334838Y-12934637D01*
X21309738Y-12945034D01*
X21277399Y-12967676D01*
X21268137Y-12973576D01*
X21234909Y-12992761D01*
X21210246Y-13022153D01*
X21202823Y-13030254D01*
X20996458Y-13236621D01*
X20946421Y-13308081D01*
X20920020Y-13406612D01*
X20883068Y-13467234D01*
X20819207Y-13498256D01*
X20798313Y-13500000D01*
X20117600Y-13500000D01*
X20049479Y-13479998D01*
X20028505Y-13463095D01*
X19619385Y-13053975D01*
X19585359Y-12991663D01*
X19582480Y-12964880D01*
X19582480Y-12471065D01*
X19567331Y-12385149D01*
X19509019Y-12284151D01*
X19469085Y-12250642D01*
X19419682Y-12209187D01*
X19364885Y-12189243D01*
X19310091Y-12169300D01*
X19193469Y-12169300D01*
X19156938Y-12182595D01*
X19083877Y-12209187D01*
X18994542Y-12284150D01*
X18936228Y-12385149D01*
X18921080Y-12471065D01*
X18921080Y-12893013D01*
X18901078Y-12961134D01*
X18847422Y-13007627D01*
X18777148Y-13017731D01*
X18732079Y-13002132D01*
X18715849Y-12992761D01*
X18682613Y-12973572D01*
X18673353Y-12967672D01*
X18641022Y-12945033D01*
X18615930Y-12934639D01*
X18577059Y-12927785D01*
X18566331Y-12925406D01*
X18529269Y-12915475D01*
X18491032Y-12918821D01*
X18480051Y-12919300D01*
X17471065Y-12919300D01*
X17458187Y-12921570D01*
X17385149Y-12934448D01*
X17327606Y-12967672D01*
X17284151Y-12992761D01*
X17284150Y-12992761D01*
X17284150Y-12992762D01*
X17209187Y-13082097D01*
X17188256Y-13139606D01*
X17177413Y-13169400D01*
X17169300Y-13191690D01*
X17169300Y-13308311D01*
X17177524Y-13330907D01*
X17182026Y-13401760D01*
X17147507Y-13463800D01*
X17084926Y-13497329D01*
X17059122Y-13500000D01*
X16302190Y-13500000D01*
X16234069Y-13479998D01*
X16213099Y-13463099D01*
X15500000Y-12750000D01*
X13999998Y-12750000D01*
X12500000Y-14249998D01*
X12500000Y-17947810D01*
X12479998Y-18015931D01*
X12463095Y-18036905D01*
X12286905Y-18213095D01*
X12224593Y-18247121D01*
X12197810Y-18250000D01*
X10513758Y-18250000D01*
X10445637Y-18229998D01*
X10418534Y-18206512D01*
X10336423Y-18111751D01*
X10213410Y-18032695D01*
X10073112Y-17991500D01*
X10073111Y-17991500D01*
X9926889Y-17991500D01*
X9926888Y-17991500D01*
X9857767Y-18011796D01*
X9822269Y-18016900D01*
X6927731Y-18016900D01*
X6892233Y-18011796D01*
X6823112Y-17991500D01*
X6823111Y-17991500D01*
X6676889Y-17991500D01*
X6676888Y-17991500D01*
X6536589Y-18032695D01*
X6413576Y-18111751D01*
X6331466Y-18206512D01*
X6271740Y-18244896D01*
X6236242Y-18250000D01*
X4249998Y-18250000D01*
X3750000Y-18749998D01*
X3750000Y-21447810D01*
X3729998Y-21515931D01*
X3713095Y-21536905D01*
X3536905Y-21713095D01*
X3474593Y-21747121D01*
X3447810Y-21750000D01*
X302190Y-21750000D01*
X234069Y-21729998D01*
X213099Y-21713099D01*
X87403Y-21587403D01*
X53379Y-21525092D01*
X50500Y-21498309D01*
X50500Y-16029400D01*
X3296800Y-16029400D01*
X3296800Y-17301636D01*
X3297075Y-17307526D01*
X3299671Y-17335210D01*
X3344791Y-17464156D01*
X3425919Y-17574080D01*
X3535843Y-17655208D01*
X3664789Y-17700328D01*
X3692473Y-17702924D01*
X3698364Y-17703200D01*
X4470600Y-17703200D01*
X4470600Y-16029400D01*
X5029400Y-16029400D01*
X5029400Y-17703200D01*
X5801636Y-17703200D01*
X5807526Y-17702924D01*
X5835210Y-17700328D01*
X5964156Y-17655208D01*
X6074080Y-17574080D01*
X6155208Y-17464156D01*
X6200328Y-17335210D01*
X6202924Y-17307526D01*
X6203200Y-17301636D01*
X6203200Y-16029400D01*
X5029400Y-16029400D01*
X4470600Y-16029400D01*
X3296800Y-16029400D01*
X50500Y-16029400D01*
X50500Y-15470600D01*
X3296800Y-15470600D01*
X4470600Y-15470600D01*
X4470600Y-13796800D01*
X5029400Y-13796800D01*
X5029400Y-15470600D01*
X6203200Y-15470600D01*
X6203200Y-15000000D01*
X8986270Y-15000000D01*
X9007080Y-15144731D01*
X9067824Y-15277743D01*
X9163578Y-15388250D01*
X9286589Y-15467304D01*
X9426888Y-15508500D01*
X9426889Y-15508500D01*
X9573112Y-15508500D01*
X9642233Y-15488204D01*
X9677731Y-15483100D01*
X10165446Y-15483100D01*
X10822269Y-15483100D01*
X10857767Y-15488204D01*
X10926888Y-15508500D01*
X10926889Y-15508500D01*
X11073112Y-15508500D01*
X11159615Y-15483100D01*
X11213411Y-15467304D01*
X11336421Y-15388250D01*
X11432176Y-15277743D01*
X11492919Y-15144734D01*
X11513729Y-15000000D01*
X11492919Y-14855266D01*
X11432176Y-14722257D01*
X11419392Y-14707504D01*
X11336421Y-14611749D01*
X11213410Y-14532695D01*
X11073112Y-14491500D01*
X11073111Y-14491500D01*
X10926889Y-14491500D01*
X10926888Y-14491500D01*
X10857767Y-14511796D01*
X10822269Y-14516900D01*
X9677731Y-14516900D01*
X9642233Y-14511796D01*
X9573112Y-14491500D01*
X9573111Y-14491500D01*
X9426889Y-14491500D01*
X9426888Y-14491500D01*
X9286589Y-14532695D01*
X9163578Y-14611749D01*
X9067824Y-14722256D01*
X9007080Y-14855268D01*
X8986270Y-15000000D01*
X6203200Y-15000000D01*
X6203200Y-14198363D01*
X6202924Y-14192473D01*
X6200328Y-14164789D01*
X6155208Y-14035843D01*
X6074080Y-13925919D01*
X5964156Y-13844791D01*
X5835210Y-13799671D01*
X5807526Y-13797075D01*
X5801636Y-13796800D01*
X5029400Y-13796800D01*
X4470600Y-13796800D01*
X3698364Y-13796800D01*
X3692473Y-13797075D01*
X3664789Y-13799671D01*
X3535843Y-13844791D01*
X3425919Y-13925919D01*
X3344791Y-14035843D01*
X3299671Y-14164789D01*
X3297075Y-14192473D01*
X3296800Y-14198363D01*
X3296800Y-15470600D01*
X50500Y-15470600D01*
X50500Y-11500000D01*
X8736270Y-11500000D01*
X8757080Y-11644731D01*
X8817824Y-11777743D01*
X8913578Y-11888250D01*
X9036589Y-11967304D01*
X9176888Y-12008500D01*
X9341227Y-12008500D01*
X9341227Y-12012847D01*
X9379275Y-12012839D01*
X9439009Y-12051210D01*
X9443078Y-12056293D01*
X9547420Y-12133302D01*
X9669396Y-12175983D01*
X9669397Y-12175983D01*
X9669400Y-12175984D01*
X9698364Y-12178700D01*
X9701318Y-12178700D01*
X10248682Y-12178700D01*
X10251636Y-12178700D01*
X10280600Y-12175984D01*
X10280603Y-12175983D01*
X10402579Y-12133302D01*
X10402579Y-12133301D01*
X10402581Y-12133301D01*
X10506560Y-12056560D01*
X10583301Y-11952581D01*
X10583302Y-11952579D01*
X10631068Y-11816073D01*
X10635055Y-11817468D01*
X10651073Y-11777253D01*
X10708832Y-11735969D01*
X10779742Y-11732467D01*
X10841290Y-11767857D01*
X10866698Y-11816931D01*
X10869427Y-11815977D01*
X10917143Y-11952343D01*
X10993796Y-12056203D01*
X11097656Y-12132856D01*
X11219490Y-12175487D01*
X11245600Y-12177935D01*
X11245600Y-11779400D01*
X11804400Y-11779400D01*
X11804400Y-12177935D01*
X11830507Y-12175488D01*
X11952343Y-12132856D01*
X12056203Y-12056203D01*
X12132856Y-11952343D01*
X12175487Y-11830509D01*
X12177926Y-11804502D01*
X12178200Y-11798651D01*
X12178200Y-11779400D01*
X12821801Y-11779400D01*
X12821801Y-11798647D01*
X12822075Y-11804513D01*
X12824511Y-11830507D01*
X12867143Y-11952343D01*
X12943796Y-12056203D01*
X13047656Y-12132856D01*
X13169490Y-12175487D01*
X13195600Y-12177935D01*
X13754400Y-12177935D01*
X13780507Y-12175488D01*
X13902343Y-12132856D01*
X14006203Y-12056203D01*
X14082856Y-11952343D01*
X14130572Y-11815980D01*
X14134583Y-11817383D01*
X14150551Y-11777271D01*
X14208302Y-11735975D01*
X14279211Y-11732457D01*
X14340766Y-11767835D01*
X14366242Y-11817014D01*
X14368932Y-11816073D01*
X14416697Y-11952579D01*
X14493439Y-12056560D01*
X14597420Y-12133302D01*
X14719396Y-12175983D01*
X14719397Y-12175983D01*
X14719400Y-12175984D01*
X14748364Y-12178700D01*
X14751318Y-12178700D01*
X15298682Y-12178700D01*
X15301636Y-12178700D01*
X15330600Y-12175984D01*
X15330603Y-12175983D01*
X15452579Y-12133302D01*
X15452579Y-12133301D01*
X15452581Y-12133301D01*
X15556560Y-12056560D01*
X15556561Y-12056558D01*
X15571840Y-12045282D01*
X15572177Y-12045739D01*
X15611355Y-12015992D01*
X15658773Y-12012273D01*
X15658773Y-12008500D01*
X15823112Y-12008500D01*
X15893261Y-11987901D01*
X15963411Y-11967304D01*
X16086421Y-11888250D01*
X16182176Y-11777743D01*
X16242919Y-11644734D01*
X16263729Y-11500000D01*
X16263729Y-11499999D01*
X19986270Y-11499999D01*
X20007080Y-11644731D01*
X20067824Y-11777743D01*
X20163578Y-11888250D01*
X20286589Y-11967304D01*
X20426888Y-12008500D01*
X20426889Y-12008500D01*
X20573112Y-12008500D01*
X20625279Y-11993182D01*
X20713411Y-11967304D01*
X20817046Y-11900701D01*
X20885164Y-11880700D01*
X21279694Y-11880700D01*
X21279695Y-11880700D01*
X21365611Y-11865551D01*
X21466609Y-11807239D01*
X21541573Y-11717901D01*
X21581460Y-11608311D01*
X21581460Y-11491689D01*
X21541573Y-11382099D01*
X21541572Y-11382098D01*
X21541572Y-11382097D01*
X21484333Y-11313884D01*
X21466609Y-11292761D01*
X21395615Y-11251772D01*
X21365610Y-11234448D01*
X21288854Y-11220915D01*
X21279695Y-11219300D01*
X21279694Y-11219300D01*
X20987156Y-11219300D01*
X20919035Y-11199298D01*
X20891931Y-11175812D01*
X20836421Y-11111749D01*
X20713410Y-11032695D01*
X20573112Y-10991500D01*
X20573111Y-10991500D01*
X20426889Y-10991500D01*
X20426888Y-10991500D01*
X20286589Y-11032695D01*
X20163578Y-11111749D01*
X20067824Y-11222256D01*
X20007080Y-11355268D01*
X19986270Y-11499999D01*
X16263729Y-11499999D01*
X16242919Y-11355266D01*
X16182176Y-11222257D01*
X16149046Y-11184023D01*
X16086421Y-11111749D01*
X15963410Y-11032695D01*
X15823112Y-10991500D01*
X15823111Y-10991500D01*
X15676889Y-10991500D01*
X15658774Y-10991500D01*
X15658774Y-10987152D01*
X15620656Y-10987140D01*
X15560943Y-10948735D01*
X15556917Y-10943703D01*
X15452579Y-10866697D01*
X15330603Y-10824016D01*
X15304572Y-10821575D01*
X15304565Y-10821574D01*
X15301636Y-10821300D01*
X14748364Y-10821300D01*
X14745435Y-10821574D01*
X14745427Y-10821575D01*
X14719396Y-10824016D01*
X14597420Y-10866697D01*
X14493439Y-10943439D01*
X14416697Y-11047420D01*
X14368932Y-11183927D01*
X14364946Y-11182532D01*
X14348895Y-11222785D01*
X14291119Y-11264046D01*
X14220208Y-11267521D01*
X14158675Y-11232106D01*
X14133308Y-11183065D01*
X14130573Y-11184023D01*
X14082856Y-11047656D01*
X14006203Y-10943796D01*
X13902343Y-10867143D01*
X13780507Y-10824511D01*
X13754400Y-10822062D01*
X13754400Y-12177935D01*
X13195600Y-12177935D01*
X13195600Y-11779400D01*
X12821801Y-11779400D01*
X12178200Y-11779400D01*
X11804400Y-11779400D01*
X11245600Y-11779400D01*
X11245600Y-10822064D01*
X11219490Y-10824512D01*
X11097656Y-10867143D01*
X10993796Y-10943796D01*
X10917143Y-11047656D01*
X10869428Y-11184020D01*
X10865417Y-11182616D01*
X10849416Y-11222769D01*
X10791648Y-11264041D01*
X10720737Y-11267529D01*
X10659197Y-11232127D01*
X10633764Y-11182983D01*
X10631068Y-11183927D01*
X10583302Y-11047420D01*
X10506560Y-10943439D01*
X10402579Y-10866697D01*
X10280603Y-10824016D01*
X10259776Y-10822063D01*
X11804399Y-10822063D01*
X11804400Y-11220600D01*
X12178199Y-11220600D01*
X12821800Y-11220600D01*
X13195600Y-11220600D01*
X13195600Y-10822064D01*
X13169490Y-10824512D01*
X13047656Y-10867143D01*
X12943796Y-10943796D01*
X12867143Y-11047656D01*
X12824512Y-11169490D01*
X12822073Y-11195497D01*
X12821800Y-11201348D01*
X12821800Y-11220600D01*
X12178199Y-11220600D01*
X12178199Y-11201352D01*
X12177924Y-11195486D01*
X12175488Y-11169492D01*
X12132856Y-11047656D01*
X12056203Y-10943796D01*
X11952343Y-10867143D01*
X11830507Y-10824511D01*
X11804400Y-10822062D01*
X11804399Y-10822063D01*
X10259776Y-10822063D01*
X10254572Y-10821575D01*
X10254565Y-10821574D01*
X10251636Y-10821300D01*
X9698364Y-10821300D01*
X9695435Y-10821574D01*
X9695427Y-10821575D01*
X9669396Y-10824016D01*
X9547420Y-10866697D01*
X9458838Y-10932074D01*
X9443442Y-10943439D01*
X9428161Y-10954717D01*
X9427823Y-10954259D01*
X9388632Y-10984012D01*
X9341226Y-10987723D01*
X9341226Y-10991500D01*
X9176888Y-10991500D01*
X9036589Y-11032695D01*
X8913578Y-11111749D01*
X8817824Y-11222256D01*
X8757080Y-11355268D01*
X8736270Y-11500000D01*
X50500Y-11500000D01*
X50500Y-10801737D01*
X3296300Y-10801737D01*
X3296301Y-10804652D01*
X3296573Y-10807556D01*
X3296574Y-10807572D01*
X3299174Y-10835302D01*
X3344345Y-10964393D01*
X3425561Y-11074438D01*
X3535606Y-11155655D01*
X3651764Y-11196300D01*
X3664699Y-11200826D01*
X3695347Y-11203700D01*
X5804652Y-11203699D01*
X5835301Y-11200826D01*
X5964395Y-11155654D01*
X6074438Y-11074438D01*
X6155654Y-10964395D01*
X6159041Y-10954717D01*
X6200825Y-10835303D01*
X6200826Y-10835301D01*
X6203700Y-10804653D01*
X6203699Y-9816900D01*
X9326147Y-9816900D01*
X9337449Y-9888264D01*
X9398131Y-10007360D01*
X9492639Y-10101868D01*
X9611734Y-10162551D01*
X9710540Y-10178200D01*
X9720599Y-10178199D01*
X9720600Y-10178198D01*
X9720600Y-9816900D01*
X10279400Y-9816900D01*
X10279400Y-10178199D01*
X10289459Y-10178199D01*
X10388264Y-10162550D01*
X10507360Y-10101868D01*
X10601868Y-10007360D01*
X10662550Y-9888264D01*
X10673854Y-9816900D01*
X10279400Y-9816900D01*
X9720600Y-9816900D01*
X9326147Y-9816900D01*
X6203699Y-9816900D01*
X6203699Y-9258100D01*
X9326146Y-9258100D01*
X9720600Y-9258100D01*
X9720600Y-8896800D01*
X10279400Y-8896800D01*
X10279400Y-9258100D01*
X10673853Y-9258100D01*
X10662550Y-9186735D01*
X10601868Y-9067639D01*
X10507360Y-8973131D01*
X10388265Y-8912449D01*
X10289460Y-8896800D01*
X10279400Y-8896800D01*
X9720600Y-8896800D01*
X9710539Y-8896801D01*
X9611735Y-8912449D01*
X9492639Y-8973131D01*
X9398131Y-9067639D01*
X9337449Y-9186735D01*
X9326146Y-9258100D01*
X6203699Y-9258100D01*
X6203699Y-8214498D01*
X9321300Y-8214498D01*
X9336968Y-8313422D01*
X9376817Y-8391631D01*
X9397721Y-8432657D01*
X9492342Y-8527278D01*
X9492344Y-8527279D01*
X9492345Y-8527280D01*
X9611578Y-8588032D01*
X9710502Y-8603700D01*
X9710504Y-8603700D01*
X10289496Y-8603700D01*
X10289498Y-8603700D01*
X10388422Y-8588032D01*
X10507655Y-8527280D01*
X10602280Y-8432655D01*
X10619174Y-8399497D01*
X10667921Y-8347883D01*
X10731441Y-8330700D01*
X11307591Y-8330700D01*
X11375712Y-8350702D01*
X11396686Y-8367605D01*
X11484751Y-8455670D01*
X11484753Y-8455671D01*
X11598695Y-8513727D01*
X11693230Y-8528700D01*
X11693232Y-8528700D01*
X12306768Y-8528700D01*
X12306770Y-8528700D01*
X12401305Y-8513727D01*
X12515247Y-8455671D01*
X12605671Y-8365247D01*
X12663727Y-8251305D01*
X12678700Y-8156770D01*
X12678700Y-7693230D01*
X12663727Y-7598695D01*
X12611851Y-7496881D01*
X12605670Y-7484751D01*
X12515248Y-7394329D01*
X12401306Y-7336273D01*
X12369793Y-7331282D01*
X12306770Y-7321300D01*
X11693230Y-7321300D01*
X11645962Y-7328786D01*
X11598693Y-7336273D01*
X11484751Y-7394329D01*
X11394330Y-7484750D01*
X11362399Y-7547419D01*
X11336458Y-7598333D01*
X11335352Y-7600503D01*
X11286604Y-7652118D01*
X11223085Y-7669300D01*
X10769656Y-7669300D01*
X10701535Y-7649298D01*
X10657389Y-7600503D01*
X10655730Y-7597247D01*
X10602280Y-7492345D01*
X10602279Y-7492344D01*
X10602278Y-7492342D01*
X10507657Y-7397721D01*
X10493247Y-7390379D01*
X10437484Y-7361966D01*
X10385870Y-7313219D01*
X10377557Y-7279652D01*
X10317407Y-7316810D01*
X10284071Y-7321300D01*
X9710502Y-7321300D01*
X9633064Y-7333565D01*
X9611578Y-7336968D01*
X9492342Y-7397721D01*
X9397721Y-7492342D01*
X9358735Y-7568857D01*
X9336968Y-7611578D01*
X9321300Y-7710502D01*
X9321300Y-8214498D01*
X6203699Y-8214498D01*
X6203699Y-7695348D01*
X6200826Y-7664699D01*
X6155654Y-7535605D01*
X6098748Y-7458500D01*
X6074438Y-7425561D01*
X5964393Y-7344344D01*
X5835303Y-7299174D01*
X5807589Y-7296575D01*
X5807582Y-7296574D01*
X5804653Y-7296300D01*
X5801699Y-7296300D01*
X3698283Y-7296300D01*
X3698261Y-7296300D01*
X3695348Y-7296301D01*
X3692444Y-7296573D01*
X3692427Y-7296574D01*
X3664697Y-7299174D01*
X3535606Y-7344345D01*
X3425561Y-7425561D01*
X3344344Y-7535606D01*
X3299174Y-7664696D01*
X3297395Y-7683672D01*
X3296300Y-7695347D01*
X3296300Y-7698299D01*
X3296300Y-7698300D01*
X3296300Y-10801716D01*
X3296300Y-10801737D01*
X50500Y-10801737D01*
X50500Y-3703827D01*
X70502Y-3635706D01*
X124158Y-3589213D01*
X194432Y-3579109D01*
X259012Y-3608603D01*
X297396Y-3668329D01*
X302302Y-3696762D01*
X311229Y-3855737D01*
X311230Y-3855751D01*
X311428Y-3859266D01*
X312017Y-3862733D01*
X312019Y-3862750D01*
X371110Y-4210535D01*
X371113Y-4210550D01*
X371702Y-4214014D01*
X372675Y-4217393D01*
X372678Y-4217404D01*
X426225Y-4403269D01*
X471316Y-4559782D01*
X472665Y-4563039D01*
X472669Y-4563050D01*
X554445Y-4760474D01*
X609018Y-4892224D01*
X610724Y-4895310D01*
X610727Y-4895317D01*
X781360Y-5204055D01*
X781364Y-5204062D01*
X783075Y-5207157D01*
X785115Y-5210032D01*
X785120Y-5210040D01*
X954417Y-5448641D01*
X991300Y-5500622D01*
X1231073Y-5768927D01*
X1499378Y-6008700D01*
X1792843Y-6216925D01*
X2107776Y-6390982D01*
X2440218Y-6528684D01*
X2785986Y-6628298D01*
X2789462Y-6628888D01*
X2789464Y-6628889D01*
X3137249Y-6687980D01*
X3137251Y-6687980D01*
X3140734Y-6688572D01*
X3500000Y-6708748D01*
X3859266Y-6688572D01*
X4214014Y-6628298D01*
X4559782Y-6528684D01*
X4892224Y-6390982D01*
X5207157Y-6216925D01*
X5500622Y-6008700D01*
X5768927Y-5768927D01*
X6008700Y-5500622D01*
X6216925Y-5207157D01*
X6390982Y-4892224D01*
X6528684Y-4559782D01*
X6628298Y-4214014D01*
X6688572Y-3859266D01*
X6708748Y-3500000D01*
X6688572Y-3140734D01*
X6685158Y-3120643D01*
X6628889Y-2789464D01*
X6628888Y-2789462D01*
X6628298Y-2785986D01*
X6528684Y-2440218D01*
X6390982Y-2107776D01*
X6216925Y-1792843D01*
X6165424Y-1720260D01*
X6010735Y-1502246D01*
X6010734Y-1502245D01*
X6008700Y-1499378D01*
X5768927Y-1231073D01*
X5509643Y-999362D01*
X5503245Y-993644D01*
X5503244Y-993643D01*
X5500622Y-991300D01*
X5482157Y-978198D01*
X5210040Y-785120D01*
X5210032Y-785115D01*
X5207157Y-783075D01*
X5204062Y-781364D01*
X5204055Y-781360D01*
X4895317Y-610727D01*
X4895310Y-610724D01*
X4892224Y-609018D01*
X4823053Y-580366D01*
X4563050Y-472669D01*
X4563039Y-472665D01*
X4559782Y-471316D01*
X4465639Y-444193D01*
X4217404Y-372678D01*
X4217393Y-372675D01*
X4214014Y-371702D01*
X4210550Y-371113D01*
X4210535Y-371110D01*
X3862750Y-312019D01*
X3862733Y-312017D01*
X3859266Y-311428D01*
X3855751Y-311230D01*
X3855737Y-311229D01*
X3696763Y-302302D01*
X3629871Y-278512D01*
X3586460Y-222333D01*
X3580312Y-151604D01*
X3613380Y-88778D01*
X3675164Y-53804D01*
X3703828Y-50500D01*
X7595800Y-50500D01*
X7663921Y-70502D01*
G37*
%TD.AperFunction*%
%TA.AperFunction,Conductor*%
G36*
X17823921Y-70502D02*
G01*
X17870414Y-124158D01*
X17881800Y-176500D01*
X17881799Y-1471424D01*
X17861797Y-1539545D01*
X17853198Y-1551357D01*
X17733191Y-1697585D01*
X17644633Y-1863266D01*
X17644632Y-1863268D01*
X17644632Y-1863269D01*
X17593255Y-2032640D01*
X17590098Y-2043046D01*
X17571684Y-2229999D01*
X17590098Y-2416953D01*
X17590098Y-2416955D01*
X17590099Y-2416958D01*
X17622006Y-2522142D01*
X17644633Y-2596733D01*
X17733191Y-2762414D01*
X17852368Y-2907631D01*
X17997585Y-3026808D01*
X17997589Y-3026810D01*
X18163269Y-3115368D01*
X18343042Y-3169901D01*
X18530000Y-3188315D01*
X18716958Y-3169901D01*
X18896731Y-3115368D01*
X19062411Y-3026810D01*
X19062412Y-3026808D01*
X19062414Y-3026808D01*
X19207631Y-2907631D01*
X19326808Y-2762414D01*
X19326810Y-2762411D01*
X19415368Y-2596731D01*
X19469901Y-2416958D01*
X19488315Y-2230000D01*
X19469901Y-2043042D01*
X19415368Y-1863269D01*
X19326810Y-1697589D01*
X19326807Y-1697585D01*
X19206801Y-1551356D01*
X19179047Y-1486009D01*
X19178200Y-1471423D01*
X19178200Y-176500D01*
X19198202Y-108379D01*
X19251858Y-61886D01*
X19304200Y-50500D01*
X20295800Y-50500D01*
X20363921Y-70502D01*
X20410414Y-124158D01*
X20421800Y-176500D01*
X20421799Y-1471424D01*
X20401797Y-1539545D01*
X20393198Y-1551357D01*
X20273191Y-1697585D01*
X20184633Y-1863266D01*
X20184632Y-1863268D01*
X20184632Y-1863269D01*
X20133255Y-2032640D01*
X20130098Y-2043046D01*
X20111684Y-2229999D01*
X20130098Y-2416953D01*
X20130098Y-2416955D01*
X20130099Y-2416958D01*
X20162006Y-2522142D01*
X20184633Y-2596733D01*
X20273191Y-2762414D01*
X20392368Y-2907631D01*
X20537585Y-3026808D01*
X20537589Y-3026810D01*
X20703269Y-3115368D01*
X20883042Y-3169901D01*
X21023438Y-3183729D01*
X21069999Y-3188315D01*
X21069999Y-3188314D01*
X21070000Y-3188315D01*
X21256958Y-3169901D01*
X21436731Y-3115368D01*
X21602411Y-3026810D01*
X21602412Y-3026808D01*
X21602414Y-3026808D01*
X21747631Y-2907631D01*
X21866808Y-2762414D01*
X21866810Y-2762411D01*
X21955368Y-2596731D01*
X22009901Y-2416958D01*
X22028315Y-2230000D01*
X22009901Y-2043042D01*
X21955368Y-1863269D01*
X21866810Y-1697589D01*
X21866807Y-1697585D01*
X21746801Y-1551356D01*
X21719047Y-1486009D01*
X21718200Y-1471423D01*
X21718200Y-176500D01*
X21738202Y-108379D01*
X21791858Y-61886D01*
X21844200Y-50500D01*
X22835800Y-50500D01*
X22903921Y-70502D01*
X22950414Y-124158D01*
X22961800Y-176500D01*
X22961799Y-1471424D01*
X22941797Y-1539545D01*
X22933198Y-1551357D01*
X22813191Y-1697585D01*
X22724633Y-1863266D01*
X22724632Y-1863268D01*
X22724632Y-1863269D01*
X22673255Y-2032640D01*
X22670098Y-2043046D01*
X22651684Y-2230000D01*
X22670098Y-2416953D01*
X22670098Y-2416955D01*
X22670099Y-2416958D01*
X22702006Y-2522142D01*
X22724633Y-2596733D01*
X22813191Y-2762414D01*
X22932368Y-2907631D01*
X23077585Y-3026808D01*
X23077589Y-3026810D01*
X23243269Y-3115368D01*
X23423042Y-3169901D01*
X23610000Y-3188315D01*
X23796958Y-3169901D01*
X23976731Y-3115368D01*
X24142411Y-3026810D01*
X24142412Y-3026808D01*
X24142414Y-3026808D01*
X24287631Y-2907631D01*
X24406808Y-2762414D01*
X24406810Y-2762411D01*
X24495368Y-2596731D01*
X24549901Y-2416958D01*
X24568315Y-2230000D01*
X24549901Y-2043042D01*
X24495368Y-1863269D01*
X24406810Y-1697589D01*
X24406807Y-1697585D01*
X24286801Y-1551356D01*
X24259047Y-1486009D01*
X24258200Y-1471423D01*
X24258200Y-176500D01*
X24278202Y-108379D01*
X24331858Y-61886D01*
X24384200Y-50500D01*
X25375800Y-50500D01*
X25443921Y-70502D01*
X25490414Y-124158D01*
X25501800Y-176500D01*
X25501799Y-1471424D01*
X25481797Y-1539545D01*
X25473198Y-1551357D01*
X25353191Y-1697585D01*
X25264633Y-1863266D01*
X25264632Y-1863268D01*
X25264632Y-1863269D01*
X25213255Y-2032640D01*
X25210098Y-2043046D01*
X25191684Y-2229999D01*
X25210098Y-2416953D01*
X25210098Y-2416955D01*
X25210099Y-2416958D01*
X25242006Y-2522142D01*
X25264633Y-2596733D01*
X25353191Y-2762414D01*
X25472368Y-2907631D01*
X25617585Y-3026808D01*
X25617589Y-3026810D01*
X25783269Y-3115368D01*
X25963042Y-3169901D01*
X26150000Y-3188315D01*
X26336958Y-3169901D01*
X26516731Y-3115368D01*
X26682411Y-3026810D01*
X26682412Y-3026808D01*
X26682414Y-3026808D01*
X26827631Y-2907631D01*
X26946808Y-2762414D01*
X26946810Y-2762411D01*
X27035368Y-2596731D01*
X27089901Y-2416958D01*
X27108315Y-2230000D01*
X27089901Y-2043042D01*
X27035368Y-1863269D01*
X26946810Y-1697589D01*
X26827631Y-1552369D01*
X26827629Y-1552367D01*
X26826800Y-1551357D01*
X26799046Y-1486010D01*
X26798200Y-1471440D01*
X26798200Y-176499D01*
X26818202Y-108379D01*
X26871858Y-61886D01*
X26924200Y-50500D01*
X27624000Y-50500D01*
X27692121Y-70502D01*
X27738614Y-124158D01*
X27750000Y-176500D01*
X27749999Y-2037859D01*
X27749392Y-2050209D01*
X27731684Y-2229999D01*
X27749393Y-2409788D01*
X27750000Y-2422139D01*
X27750000Y-4577859D01*
X27749393Y-4590210D01*
X27731684Y-4769999D01*
X27749393Y-4949788D01*
X27750000Y-4962139D01*
X27750000Y-7390379D01*
X27729998Y-7458500D01*
X27676342Y-7504993D01*
X27606068Y-7515097D01*
X27541488Y-7485603D01*
X27522621Y-7465201D01*
X27506560Y-7443440D01*
X27402579Y-7366697D01*
X27280603Y-7324016D01*
X27254572Y-7321575D01*
X27254565Y-7321574D01*
X27251636Y-7321300D01*
X26775929Y-7321300D01*
X26707808Y-7301298D01*
X26661315Y-7247642D01*
X26651211Y-7177368D01*
X26680705Y-7112788D01*
X26705925Y-7090535D01*
X26741360Y-7066860D01*
X26786381Y-6999480D01*
X26798200Y-6940064D01*
X26798200Y-5528575D01*
X26818202Y-5460455D01*
X26826801Y-5448642D01*
X26926900Y-5326671D01*
X26946810Y-5302411D01*
X27035368Y-5136731D01*
X27089901Y-4956958D01*
X27108315Y-4770000D01*
X27089901Y-4583042D01*
X27035368Y-4403269D01*
X26946810Y-4237589D01*
X26946808Y-4237585D01*
X26827631Y-4092368D01*
X26682414Y-3973191D01*
X26516733Y-3884633D01*
X26516732Y-3884632D01*
X26516731Y-3884632D01*
X26336958Y-3830099D01*
X26336955Y-3830098D01*
X26336953Y-3830098D01*
X26150000Y-3811684D01*
X25963046Y-3830098D01*
X25963043Y-3830098D01*
X25963042Y-3830099D01*
X25800042Y-3879544D01*
X25783266Y-3884633D01*
X25617585Y-3973191D01*
X25472368Y-4092368D01*
X25353191Y-4237585D01*
X25264633Y-4403266D01*
X25264632Y-4403268D01*
X25264632Y-4403269D01*
X25216164Y-4563050D01*
X25210098Y-4583046D01*
X25191684Y-4770000D01*
X25210098Y-4956953D01*
X25210098Y-4956955D01*
X25210099Y-4956958D01*
X25211671Y-4962139D01*
X25264633Y-5136733D01*
X25353189Y-5302410D01*
X25473198Y-5448641D01*
X25500952Y-5513988D01*
X25501799Y-5528575D01*
X25501799Y-6875651D01*
X25481797Y-6943772D01*
X25428141Y-6990265D01*
X25357867Y-7000369D01*
X25340302Y-6996547D01*
X25323113Y-6991500D01*
X25323111Y-6991500D01*
X25176889Y-6991500D01*
X25176888Y-6991500D01*
X25036589Y-7032695D01*
X24913578Y-7111749D01*
X24817824Y-7222256D01*
X24757080Y-7355268D01*
X24733692Y-7517932D01*
X24731494Y-7517615D01*
X24725044Y-7562472D01*
X24713645Y-7582397D01*
X24695033Y-7608977D01*
X24684637Y-7634078D01*
X24677783Y-7672945D01*
X24675405Y-7683672D01*
X24665475Y-7720730D01*
X24668821Y-7758967D01*
X24669300Y-7769948D01*
X24669300Y-8028934D01*
X24684448Y-8114850D01*
X24751104Y-8230299D01*
X24767842Y-8299294D01*
X24744622Y-8366386D01*
X24688815Y-8410274D01*
X24641985Y-8419300D01*
X23783742Y-8419300D01*
X23715621Y-8399298D01*
X23669128Y-8345642D01*
X23659024Y-8275368D01*
X23660804Y-8269752D01*
X23663726Y-8251306D01*
X23663727Y-8251305D01*
X23678700Y-8156770D01*
X23678700Y-7693230D01*
X23663727Y-7598695D01*
X23611851Y-7496881D01*
X23605670Y-7484751D01*
X23515248Y-7394329D01*
X23451733Y-7361967D01*
X23400117Y-7313219D01*
X23383051Y-7244304D01*
X23405951Y-7177103D01*
X23461549Y-7132950D01*
X23508935Y-7123700D01*
X24074563Y-7123700D01*
X24074564Y-7123700D01*
X24133980Y-7111881D01*
X24201360Y-7066860D01*
X24246381Y-6999480D01*
X24258200Y-6940064D01*
X24258200Y-5528575D01*
X24278202Y-5460455D01*
X24286801Y-5448642D01*
X24386900Y-5326671D01*
X24406810Y-5302411D01*
X24495368Y-5136731D01*
X24549901Y-4956958D01*
X24568315Y-4770000D01*
X24549901Y-4583042D01*
X24495368Y-4403269D01*
X24406810Y-4237589D01*
X24406808Y-4237585D01*
X24287631Y-4092368D01*
X24142414Y-3973191D01*
X23976733Y-3884633D01*
X23976732Y-3884632D01*
X23976731Y-3884632D01*
X23796958Y-3830099D01*
X23796955Y-3830098D01*
X23796953Y-3830098D01*
X23610000Y-3811684D01*
X23423046Y-3830098D01*
X23423043Y-3830098D01*
X23423042Y-3830099D01*
X23260042Y-3879544D01*
X23243266Y-3884633D01*
X23077585Y-3973191D01*
X22932368Y-4092368D01*
X22813191Y-4237585D01*
X22724633Y-4403266D01*
X22724632Y-4403268D01*
X22724632Y-4403269D01*
X22676164Y-4563050D01*
X22670098Y-4583046D01*
X22651684Y-4770000D01*
X22670098Y-4956953D01*
X22670098Y-4956955D01*
X22670099Y-4956958D01*
X22671671Y-4962139D01*
X22724633Y-5136733D01*
X22813189Y-5302410D01*
X22933198Y-5448641D01*
X22960952Y-5513988D01*
X22961799Y-5528575D01*
X22961800Y-6865500D01*
X22941798Y-6933621D01*
X22888142Y-6980114D01*
X22835800Y-6991500D01*
X22676888Y-6991500D01*
X22536589Y-7032695D01*
X22413578Y-7111749D01*
X22317824Y-7222256D01*
X22257080Y-7355268D01*
X22236270Y-7500000D01*
X22257080Y-7644731D01*
X22257080Y-7644732D01*
X22257081Y-7644734D01*
X22309914Y-7760423D01*
X22321300Y-7812762D01*
X22321300Y-8156770D01*
X22332946Y-8230299D01*
X22339395Y-8271015D01*
X22335207Y-8271678D01*
X22341631Y-8305855D01*
X22314940Y-8371644D01*
X22256919Y-8412559D01*
X22216258Y-8419300D01*
X21735881Y-8419300D01*
X21667760Y-8399298D01*
X21646786Y-8382395D01*
X21618365Y-8353974D01*
X21584339Y-8291662D01*
X21581460Y-8264879D01*
X21581460Y-8210222D01*
X21601462Y-8142101D01*
X21615805Y-8125549D01*
X21671199Y-8039353D01*
X21694722Y-8002751D01*
X21733860Y-7869459D01*
X21733860Y-7730541D01*
X21694722Y-7597249D01*
X21694721Y-7597247D01*
X21619618Y-7480384D01*
X21582311Y-7448057D01*
X21514629Y-7389411D01*
X21459671Y-7364312D01*
X21406018Y-7317821D01*
X21386016Y-7249700D01*
X21406018Y-7181579D01*
X21459674Y-7135086D01*
X21512016Y-7123700D01*
X21534563Y-7123700D01*
X21534564Y-7123700D01*
X21593980Y-7111881D01*
X21661360Y-7066860D01*
X21706381Y-6999480D01*
X21718200Y-6940064D01*
X21718200Y-5528572D01*
X21738201Y-5460455D01*
X21746800Y-5448642D01*
X21747627Y-5447634D01*
X21747631Y-5447631D01*
X21866810Y-5302411D01*
X21955368Y-5136731D01*
X22009901Y-4956958D01*
X22028315Y-4770000D01*
X22009901Y-4583042D01*
X21955368Y-4403269D01*
X21866810Y-4237589D01*
X21866808Y-4237585D01*
X21747631Y-4092368D01*
X21602414Y-3973191D01*
X21436733Y-3884633D01*
X21436732Y-3884632D01*
X21436731Y-3884632D01*
X21256958Y-3830099D01*
X21256955Y-3830098D01*
X21256953Y-3830098D01*
X21069999Y-3811684D01*
X20883046Y-3830098D01*
X20883043Y-3830098D01*
X20883042Y-3830099D01*
X20720042Y-3879544D01*
X20703266Y-3884633D01*
X20537585Y-3973191D01*
X20392368Y-4092368D01*
X20273191Y-4237585D01*
X20184633Y-4403266D01*
X20184632Y-4403268D01*
X20184632Y-4403269D01*
X20136164Y-4563050D01*
X20130098Y-4583046D01*
X20111684Y-4770000D01*
X20130098Y-4956953D01*
X20130098Y-4956955D01*
X20130099Y-4956958D01*
X20131671Y-4962139D01*
X20184633Y-5136733D01*
X20273189Y-5302410D01*
X20393198Y-5448641D01*
X20420952Y-5513988D01*
X20421799Y-5528575D01*
X20421799Y-6940062D01*
X20433619Y-6999480D01*
X20487868Y-7080671D01*
X20518927Y-7117833D01*
X20529399Y-7168124D01*
X20529399Y-7190900D01*
X20509397Y-7259021D01*
X20455741Y-7305514D01*
X20403399Y-7316900D01*
X20096600Y-7316900D01*
X20028479Y-7296898D01*
X19981986Y-7243242D01*
X19970600Y-7190900D01*
X19970599Y-6895112D01*
X19970599Y-6895111D01*
X19891924Y-6933574D01*
X19808574Y-7016924D01*
X19756802Y-7122824D01*
X19745484Y-7200512D01*
X19744039Y-7200301D01*
X19726798Y-7259021D01*
X19673142Y-7305514D01*
X19620800Y-7316900D01*
X19162514Y-7316900D01*
X19094393Y-7296898D01*
X19047900Y-7243242D01*
X19037796Y-7172968D01*
X19067290Y-7108388D01*
X19092510Y-7086136D01*
X19121360Y-7066860D01*
X19166381Y-6999480D01*
X19178200Y-6940064D01*
X19178200Y-5528575D01*
X19198202Y-5460455D01*
X19206801Y-5448642D01*
X19306900Y-5326671D01*
X19326810Y-5302411D01*
X19415368Y-5136731D01*
X19469901Y-4956958D01*
X19488315Y-4770000D01*
X19469901Y-4583042D01*
X19415368Y-4403269D01*
X19326810Y-4237589D01*
X19326808Y-4237585D01*
X19207631Y-4092368D01*
X19062414Y-3973191D01*
X18896733Y-3884633D01*
X18896732Y-3884632D01*
X18896731Y-3884632D01*
X18716958Y-3830099D01*
X18716955Y-3830098D01*
X18716953Y-3830098D01*
X18530000Y-3811684D01*
X18343046Y-3830098D01*
X18343043Y-3830098D01*
X18343042Y-3830099D01*
X18180042Y-3879544D01*
X18163266Y-3884633D01*
X17997589Y-3973189D01*
X17889912Y-4061557D01*
X17824565Y-4089310D01*
X17754586Y-4077328D01*
X17702195Y-4029415D01*
X17691924Y-4008191D01*
X17681885Y-3981277D01*
X17678367Y-3971844D01*
X17675986Y-3968663D01*
X17662239Y-3945495D01*
X17660589Y-3941881D01*
X17660588Y-3941880D01*
X17660587Y-3941877D01*
X17629341Y-3905817D01*
X17623698Y-3898815D01*
X17616037Y-3888582D01*
X17616036Y-3888580D01*
X17606985Y-3879529D01*
X17600867Y-3872958D01*
X17584274Y-3853809D01*
X17569617Y-3836893D01*
X17569616Y-3836892D01*
X17566264Y-3834738D01*
X17545296Y-3817839D01*
X16932161Y-3204704D01*
X16915258Y-3183729D01*
X16913108Y-3180384D01*
X16877047Y-3149137D01*
X16870475Y-3143018D01*
X16861420Y-3133963D01*
X16851157Y-3126281D01*
X16844162Y-3120643D01*
X16838074Y-3115368D01*
X16808119Y-3089411D01*
X16804497Y-3087756D01*
X16781344Y-3074019D01*
X16778156Y-3071633D01*
X16755746Y-3063274D01*
X16698911Y-3020726D01*
X16674102Y-2954205D01*
X16689195Y-2884831D01*
X16702375Y-2865295D01*
X16786810Y-2762411D01*
X16875368Y-2596731D01*
X16929901Y-2416958D01*
X16948315Y-2230000D01*
X16929901Y-2043042D01*
X16875368Y-1863269D01*
X16786810Y-1697589D01*
X16786807Y-1697585D01*
X16666801Y-1551356D01*
X16639047Y-1486009D01*
X16638200Y-1471423D01*
X16638200Y-176500D01*
X16658202Y-108379D01*
X16711858Y-61886D01*
X16764200Y-50500D01*
X17755800Y-50500D01*
X17823921Y-70502D01*
G37*
%TD.AperFunction*%
%TD*%
M02*
