%TF.GenerationSoftware,KiCad,Pcbnew,8.0.7*%
%TF.CreationDate,2025-01-01T14:13:32-08:00*%
%TF.ProjectId,pizero-papoe,70697a65-726f-42d7-9061-706f652e6b69,R1*%
%TF.SameCoordinates,PX652f520PY4a19ba0*%
%TF.FileFunction,Paste,Top*%
%TF.FilePolarity,Positive*%
%FSLAX46Y46*%
G04 Gerber Fmt 4.6, Leading zero omitted, Abs format (unit mm)*
G04 Created by KiCad (PCBNEW 8.0.7) date 2025-01-01 14:13:32*
%MOMM*%
%LPD*%
G01*
G04 APERTURE LIST*
G04 Aperture macros list*
%AMRoundRect*
0 Rectangle with rounded corners*
0 $1 Rounding radius*
0 $2 $3 $4 $5 $6 $7 $8 $9 X,Y pos of 4 corners*
0 Add a 4 corners polygon primitive as box body*
4,1,4,$2,$3,$4,$5,$6,$7,$8,$9,$2,$3,0*
0 Add four circle primitives for the rounded corners*
1,1,$1+$1,$2,$3*
1,1,$1+$1,$4,$5*
1,1,$1+$1,$6,$7*
1,1,$1+$1,$8,$9*
0 Add four rect primitives between the rounded corners*
20,1,$1+$1,$2,$3,$4,$5,0*
20,1,$1+$1,$4,$5,$6,$7,0*
20,1,$1+$1,$6,$7,$8,$9,0*
20,1,$1+$1,$8,$9,$2,$3,0*%
%AMFreePoly0*
4,1,25,0.301737,0.444662,0.322810,0.427681,0.427681,0.322810,0.461865,0.260206,0.464758,0.233297,0.464758,-0.233297,0.444662,-0.301737,0.427681,-0.322810,0.322810,-0.427681,0.260206,-0.461865,0.233297,-0.464758,-0.233297,-0.464758,-0.301737,-0.444662,-0.322810,-0.427681,-0.427681,-0.322810,-0.461865,-0.260206,-0.464758,-0.233297,-0.464758,0.233297,-0.444662,0.301737,-0.427681,0.322810,
-0.322810,0.427681,-0.260206,0.461865,-0.233297,0.464758,0.233297,0.464758,0.301737,0.444662,0.301737,0.444662,$1*%
G04 Aperture macros list end*
%ADD10C,0.010000*%
%ADD11R,2.000000X2.400000*%
%ADD12RoundRect,0.225000X-0.250000X0.225000X-0.250000X-0.225000X0.250000X-0.225000X0.250000X0.225000X0*%
%ADD13RoundRect,0.225000X-0.225000X-0.250000X0.225000X-0.250000X0.225000X0.250000X-0.225000X0.250000X0*%
%ADD14RoundRect,0.225000X0.250000X-0.225000X0.250000X0.225000X-0.250000X0.225000X-0.250000X-0.225000X0*%
%ADD15RoundRect,0.250000X0.325000X0.650000X-0.325000X0.650000X-0.325000X-0.650000X0.325000X-0.650000X0*%
%ADD16RoundRect,0.250000X0.650000X-0.325000X0.650000X0.325000X-0.650000X0.325000X-0.650000X-0.325000X0*%
%ADD17RoundRect,0.225000X0.225000X0.250000X-0.225000X0.250000X-0.225000X-0.250000X0.225000X-0.250000X0*%
%ADD18R,1.198880X0.800100*%
%ADD19RoundRect,0.150000X0.150000X-0.825000X0.150000X0.825000X-0.150000X0.825000X-0.150000X-0.825000X0*%
%ADD20RoundRect,0.150000X0.512500X0.150000X-0.512500X0.150000X-0.512500X-0.150000X0.512500X-0.150000X0*%
%ADD21RoundRect,0.150000X0.150000X-0.587500X0.150000X0.587500X-0.150000X0.587500X-0.150000X-0.587500X0*%
%ADD22RoundRect,0.200000X-0.200000X-0.275000X0.200000X-0.275000X0.200000X0.275000X-0.200000X0.275000X0*%
%ADD23RoundRect,0.200000X0.275000X-0.200000X0.275000X0.200000X-0.275000X0.200000X-0.275000X-0.200000X0*%
%ADD24RoundRect,0.200000X-0.275000X0.200000X-0.275000X-0.200000X0.275000X-0.200000X0.275000X0.200000X0*%
%ADD25RoundRect,0.200000X-0.053033X0.335876X-0.335876X0.053033X0.053033X-0.335876X0.335876X-0.053033X0*%
%ADD26RoundRect,0.200000X0.200000X0.275000X-0.200000X0.275000X-0.200000X-0.275000X0.200000X-0.275000X0*%
%ADD27RoundRect,0.250000X0.650000X-1.000000X0.650000X1.000000X-0.650000X1.000000X-0.650000X-1.000000X0*%
%ADD28RoundRect,0.250000X0.625000X-0.375000X0.625000X0.375000X-0.625000X0.375000X-0.625000X-0.375000X0*%
%ADD29RoundRect,0.218750X-0.218750X-0.256250X0.218750X-0.256250X0.218750X0.256250X-0.218750X0.256250X0*%
%ADD30RoundRect,0.250000X1.875000X-0.425000X1.875000X0.425000X-1.875000X0.425000X-1.875000X-0.425000X0*%
%ADD31RoundRect,0.006250X0.293750X0.118750X-0.293750X0.118750X-0.293750X-0.118750X0.293750X-0.118750X0*%
%ADD32RoundRect,0.006250X0.118750X0.293750X-0.118750X0.293750X-0.118750X-0.293750X0.118750X-0.293750X0*%
%ADD33RoundRect,0.195000X0.805000X0.195000X-0.805000X0.195000X-0.805000X-0.195000X0.805000X-0.195000X0*%
%ADD34FreePoly0,0.000000*%
%ADD35RoundRect,0.062500X-0.350000X-0.062500X0.350000X-0.062500X0.350000X0.062500X-0.350000X0.062500X0*%
%ADD36RoundRect,0.062500X-0.062500X-0.350000X0.062500X-0.350000X0.062500X0.350000X-0.062500X0.350000X0*%
%ADD37RoundRect,0.079500X-0.100500X0.079500X-0.100500X-0.079500X0.100500X-0.079500X0.100500X0.079500X0*%
%ADD38RoundRect,0.250000X0.475000X-0.250000X0.475000X0.250000X-0.475000X0.250000X-0.475000X-0.250000X0*%
%ADD39RoundRect,0.250000X-0.850000X0.375000X-0.850000X-0.375000X0.850000X-0.375000X0.850000X0.375000X0*%
%ADD40R,3.700000X1.100000*%
%ADD41RoundRect,0.218750X0.256250X-0.218750X0.256250X0.218750X-0.256250X0.218750X-0.256250X-0.218750X0*%
%ADD42RoundRect,0.250000X-0.475000X0.250000X-0.475000X-0.250000X0.475000X-0.250000X0.475000X0.250000X0*%
%ADD43RoundRect,0.250000X-0.325000X-0.650000X0.325000X-0.650000X0.325000X0.650000X-0.325000X0.650000X0*%
%ADD44RoundRect,0.200000X0.335876X0.053033X0.053033X0.335876X-0.335876X-0.053033X-0.053033X-0.335876X0*%
G04 APERTURE END LIST*
D10*
%TO.C,U2*%
X49624500Y-10875000D02*
X49049500Y-10875000D01*
X49049500Y-10625000D01*
X49624500Y-10625000D01*
X49624500Y-10875000D01*
G36*
X49624500Y-10875000D02*
G01*
X49049500Y-10875000D01*
X49049500Y-10625000D01*
X49624500Y-10625000D01*
X49624500Y-10875000D01*
G37*
X49624500Y-11875000D02*
X49049500Y-11875000D01*
X49049500Y-11625000D01*
X49624500Y-11625000D01*
X49624500Y-11875000D01*
G36*
X49624500Y-11875000D02*
G01*
X49049500Y-11875000D01*
X49049500Y-11625000D01*
X49624500Y-11625000D01*
X49624500Y-11875000D01*
G37*
X49800000Y-11375000D02*
X49080000Y-11375000D01*
X49080000Y-11125000D01*
X49800000Y-11125000D01*
X49800000Y-11375000D01*
G36*
X49800000Y-11375000D02*
G01*
X49080000Y-11375000D01*
X49080000Y-11125000D01*
X49800000Y-11125000D01*
X49800000Y-11375000D01*
G37*
X50399500Y-10875000D02*
X49824500Y-10875000D01*
X49824500Y-10625000D01*
X50399500Y-10625000D01*
X50399500Y-10875000D01*
G36*
X50399500Y-10875000D02*
G01*
X49824500Y-10875000D01*
X49824500Y-10625000D01*
X50399500Y-10625000D01*
X50399500Y-10875000D01*
G37*
X50399500Y-11875000D02*
X49824500Y-11875000D01*
X49824500Y-11625000D01*
X50399500Y-11625000D01*
X50399500Y-11875000D01*
G36*
X50399500Y-11875000D02*
G01*
X49824500Y-11875000D01*
X49824500Y-11625000D01*
X50399500Y-11625000D01*
X50399500Y-11875000D01*
G37*
X50720000Y-11375000D02*
X50000000Y-11375000D01*
X50000000Y-11125000D01*
X50720000Y-11125000D01*
X50720000Y-11375000D01*
G36*
X50720000Y-11375000D02*
G01*
X50000000Y-11375000D01*
X50000000Y-11125000D01*
X50720000Y-11125000D01*
X50720000Y-11375000D01*
G37*
X50350000Y-12950000D02*
X50100000Y-12950000D01*
X50100000Y-12600000D01*
X49850000Y-12600000D01*
X49850000Y-12950000D01*
X49600000Y-12950000D01*
X49600000Y-12350000D01*
X50350000Y-12350000D01*
X50350000Y-12950000D01*
G36*
X50350000Y-12950000D02*
G01*
X50100000Y-12950000D01*
X50100000Y-12600000D01*
X49850000Y-12600000D01*
X49850000Y-12950000D01*
X49600000Y-12950000D01*
X49600000Y-12350000D01*
X50350000Y-12350000D01*
X50350000Y-12950000D01*
G37*
X49850000Y-9900000D02*
X50100000Y-9900000D01*
X50100000Y-9550000D01*
X50350000Y-9550000D01*
X50350000Y-10150000D01*
X49600000Y-10150000D01*
X49600000Y-9550000D01*
X49850000Y-9550000D01*
X49850000Y-9900000D01*
G36*
X49850000Y-9900000D02*
G01*
X50100000Y-9900000D01*
X50100000Y-9550000D01*
X50350000Y-9550000D01*
X50350000Y-10150000D01*
X49600000Y-10150000D01*
X49600000Y-9550000D01*
X49850000Y-9550000D01*
X49850000Y-9900000D01*
G37*
%TD*%
D11*
%TO.C,Y1*%
X25600000Y-4500000D03*
X21900000Y-4500000D03*
%TD*%
D12*
%TO.C,C2*%
X28000000Y-3725000D03*
X28000000Y-5275000D03*
%TD*%
%TO.C,C3*%
X19500000Y-3725000D03*
X19500000Y-5275000D03*
%TD*%
D13*
%TO.C,C7*%
X31225000Y-14500000D03*
X32775000Y-14500000D03*
%TD*%
%TO.C,C8*%
X31225000Y-11000000D03*
X32775000Y-11000000D03*
%TD*%
D14*
%TO.C,C9*%
X24750000Y-10025000D03*
X24750000Y-8475000D03*
%TD*%
%TO.C,C10*%
X22750000Y-10025000D03*
X22750000Y-8475000D03*
%TD*%
D15*
%TO.C,C15*%
X43975000Y-3750000D03*
X41025000Y-3750000D03*
%TD*%
D16*
%TO.C,C16*%
X46250000Y-5725000D03*
X46250000Y-2775000D03*
%TD*%
D17*
%TO.C,C17*%
X17775000Y-20750000D03*
X16225000Y-20750000D03*
%TD*%
D13*
%TO.C,C18*%
X8975000Y-6500000D03*
X10525000Y-6500000D03*
%TD*%
%TO.C,C20*%
X31225000Y-12750000D03*
X32775000Y-12750000D03*
%TD*%
%TO.C,C21*%
X8975000Y-23500000D03*
X10525000Y-23500000D03*
%TD*%
D18*
%TO.C,D1*%
X13948940Y-4270000D03*
X8051060Y-1730000D03*
X8053600Y-4270000D03*
X13946400Y-1730000D03*
%TD*%
%TO.C,D2*%
X14698940Y-28270000D03*
X8801060Y-25730000D03*
X8803600Y-28270000D03*
X14696400Y-25730000D03*
%TD*%
D19*
%TO.C,U1*%
X31595000Y-6725000D03*
X32865000Y-6725000D03*
X34135000Y-6725000D03*
X35405000Y-6725000D03*
X35405000Y-1775000D03*
X34135000Y-1775000D03*
X32865000Y-1775000D03*
X31595000Y-1775000D03*
%TD*%
D20*
%TO.C,Q2*%
X52637500Y-21450000D03*
X52637500Y-20500000D03*
X52637500Y-19550000D03*
X50362500Y-19550000D03*
X50362500Y-20500000D03*
X50362500Y-21450000D03*
%TD*%
D21*
%TO.C,Q3*%
X54550000Y-21437500D03*
X56450000Y-21437500D03*
X55500000Y-19562500D03*
%TD*%
D22*
%TO.C,R3*%
X15675000Y-24250000D03*
X17325000Y-24250000D03*
%TD*%
D23*
%TO.C,R13*%
X56500000Y-4325000D03*
X56500000Y-2675000D03*
%TD*%
D24*
%TO.C,R15*%
X48500000Y-19675000D03*
X48500000Y-21325000D03*
%TD*%
D25*
%TO.C,R18*%
X40083363Y-21416637D03*
X38916637Y-22583363D03*
%TD*%
D24*
%TO.C,R19*%
X46750000Y-19675000D03*
X46750000Y-21325000D03*
%TD*%
D25*
%TO.C,R20*%
X42583363Y-21166637D03*
X41416637Y-22333363D03*
%TD*%
D22*
%TO.C,R21*%
X16175000Y-22500000D03*
X17825000Y-22500000D03*
%TD*%
D26*
%TO.C,R22*%
X29825000Y-8500000D03*
X28175000Y-8500000D03*
%TD*%
D23*
%TO.C,R23*%
X34500000Y-12575000D03*
X34500000Y-10925000D03*
%TD*%
D27*
%TO.C,D3*%
X38250000Y-6000000D03*
X38250000Y-2000000D03*
%TD*%
D12*
%TO.C,C28*%
X30000000Y-16225000D03*
X30000000Y-17775000D03*
%TD*%
%TO.C,C11*%
X16500000Y-7225000D03*
X16500000Y-8775000D03*
%TD*%
D26*
%TO.C,R4*%
X56325000Y-13750000D03*
X54675000Y-13750000D03*
%TD*%
D12*
%TO.C,C42*%
X26500000Y-19475000D03*
X26500000Y-21025000D03*
%TD*%
D22*
%TO.C,R2*%
X54675000Y-9750000D03*
X56325000Y-9750000D03*
%TD*%
D26*
%TO.C,R8*%
X52325000Y-28250000D03*
X50675000Y-28250000D03*
%TD*%
D12*
%TO.C,C29*%
X28250000Y-19475000D03*
X28250000Y-21025000D03*
%TD*%
%TO.C,C35*%
X31750000Y-16225000D03*
X31750000Y-17775000D03*
%TD*%
D28*
%TO.C,F2*%
X15750000Y-5400000D03*
X15750000Y-2600000D03*
%TD*%
D14*
%TO.C,C26*%
X19250000Y-10025000D03*
X19250000Y-8475000D03*
%TD*%
D29*
%TO.C,D4*%
X-9537500Y-24750000D03*
X-7962500Y-24750000D03*
%TD*%
D30*
%TO.C,F1*%
X51000000Y-7250000D03*
X51000000Y-2750000D03*
%TD*%
D31*
%TO.C,U2*%
X51650000Y-12000000D03*
X51650000Y-11500000D03*
X51650000Y-11000000D03*
X51650000Y-10500000D03*
D32*
X51225000Y-9850000D03*
X50725000Y-9850000D03*
X50725000Y-12650000D03*
X51225000Y-12650000D03*
%TD*%
D33*
%TO.C,TR1*%
X14200000Y-20445000D03*
X14200000Y-19455000D03*
X14200000Y-18465000D03*
X14200000Y-17475000D03*
X14200000Y-16485000D03*
X14200000Y-15495000D03*
X14200000Y-14505000D03*
X14200000Y-13515000D03*
X14200000Y-12525000D03*
X14200000Y-11535000D03*
X14200000Y-10545000D03*
X14200000Y-9555000D03*
X4800000Y-9555000D03*
X4800000Y-10545000D03*
X4800000Y-11535000D03*
X4800000Y-12525000D03*
X4800000Y-13515000D03*
X4800000Y-14505000D03*
X4800000Y-15495000D03*
X4800000Y-16485000D03*
X4800000Y-17475000D03*
X4800000Y-18465000D03*
X4800000Y-19455000D03*
X4800000Y-20445000D03*
%TD*%
D12*
%TO.C,C34*%
X28250000Y-16225000D03*
X28250000Y-17775000D03*
%TD*%
D34*
%TO.C,IC1*%
X22716667Y-13716667D03*
X22716667Y-14750000D03*
X22716667Y-15783333D03*
X23750000Y-13716667D03*
X23750000Y-14750000D03*
X23750000Y-15783333D03*
X24783333Y-13716667D03*
X24783333Y-14750000D03*
X24783333Y-15783333D03*
D35*
X21312500Y-12950000D03*
X21312500Y-13350000D03*
X21312500Y-13750000D03*
X21312500Y-14150000D03*
X21312500Y-14550000D03*
X21312500Y-14950000D03*
X21312500Y-15350000D03*
X21312500Y-15750000D03*
X21312500Y-16150000D03*
X21312500Y-16550000D03*
D36*
X21950000Y-17187500D03*
X22350000Y-17187500D03*
X22750000Y-17187500D03*
X23150000Y-17187500D03*
X23550000Y-17187500D03*
X23950000Y-17187500D03*
X24350000Y-17187500D03*
X24750000Y-17187500D03*
X25150000Y-17187500D03*
X25550000Y-17187500D03*
D35*
X26187500Y-16550000D03*
X26187500Y-16150000D03*
X26187500Y-15750000D03*
X26187500Y-15350000D03*
X26187500Y-14950000D03*
X26187500Y-14550000D03*
X26187500Y-14150000D03*
X26187500Y-13750000D03*
X26187500Y-13350000D03*
X26187500Y-12950000D03*
D36*
X25550000Y-12312500D03*
X25150000Y-12312500D03*
X24750000Y-12312500D03*
X24350000Y-12312500D03*
X23950000Y-12312500D03*
X23550000Y-12312500D03*
X23150000Y-12312500D03*
X22750000Y-12312500D03*
X22350000Y-12312500D03*
X21950000Y-12312500D03*
%TD*%
D37*
%TO.C,C40*%
X20750000Y-20405000D03*
X20750000Y-21095000D03*
%TD*%
D26*
%TO.C,R5*%
X56325000Y-15750000D03*
X54675000Y-15750000D03*
%TD*%
D12*
%TO.C,C41*%
X22750000Y-19475000D03*
X22750000Y-21025000D03*
%TD*%
D38*
%TO.C,C12*%
X46250000Y-14200000D03*
X46250000Y-12300000D03*
%TD*%
D39*
%TO.C,L3*%
X29000000Y-10425000D03*
X29000000Y-12575000D03*
%TD*%
D14*
%TO.C,C25*%
X26500000Y-10025000D03*
X26500000Y-8475000D03*
%TD*%
D17*
%TO.C,C44*%
X1025000Y-14750000D03*
X-525000Y-14750000D03*
%TD*%
D40*
%TO.C,L1*%
X41750000Y-12750000D03*
X41750000Y-9750000D03*
%TD*%
D26*
%TO.C,R9*%
X-2675000Y-5000000D03*
X-4325000Y-5000000D03*
%TD*%
D13*
%TO.C,C1*%
X28225000Y-14500000D03*
X29775000Y-14500000D03*
%TD*%
%TO.C,C4*%
X54725000Y-11750000D03*
X56275000Y-11750000D03*
%TD*%
D17*
%TO.C,C36*%
X19025000Y-16250000D03*
X17475000Y-16250000D03*
%TD*%
%TO.C,C45*%
X2025000Y-17500000D03*
X475000Y-17500000D03*
%TD*%
D12*
%TO.C,C33*%
X31750000Y-19475000D03*
X31750000Y-21025000D03*
%TD*%
D41*
%TO.C,D5*%
X54750000Y-4287500D03*
X54750000Y-2712500D03*
%TD*%
D42*
%TO.C,C13*%
X46250000Y-8300000D03*
X46250000Y-10200000D03*
%TD*%
D43*
%TO.C,C6*%
X49525000Y-17400000D03*
X52475000Y-17400000D03*
%TD*%
D17*
%TO.C,C43*%
X1025000Y-11500000D03*
X-525000Y-11500000D03*
%TD*%
D12*
%TO.C,C30*%
X19500000Y-19475000D03*
X19500000Y-21025000D03*
%TD*%
D22*
%TO.C,R1*%
X54675000Y-7750000D03*
X56325000Y-7750000D03*
%TD*%
D17*
%TO.C,C46*%
X2025000Y-20500000D03*
X475000Y-20500000D03*
%TD*%
D12*
%TO.C,C32*%
X30000000Y-19475000D03*
X30000000Y-21025000D03*
%TD*%
D15*
%TO.C,C14*%
X43975000Y-6750000D03*
X41025000Y-6750000D03*
%TD*%
D29*
%TO.C,D10*%
X53962500Y-28250000D03*
X55537500Y-28250000D03*
%TD*%
D44*
%TO.C,R12*%
X42583363Y-23583363D03*
X41416637Y-22416637D03*
%TD*%
D14*
%TO.C,C27*%
X21000000Y-10025000D03*
X21000000Y-8475000D03*
%TD*%
D37*
%TO.C,C39*%
X21500000Y-20405000D03*
X21500000Y-21095000D03*
%TD*%
D29*
%TO.C,D11*%
X-9537500Y-5000000D03*
X-7962500Y-5000000D03*
%TD*%
D37*
%TO.C,C37*%
X23750000Y-22905000D03*
X23750000Y-23595000D03*
%TD*%
D44*
%TO.C,R11*%
X40083363Y-23833363D03*
X38916637Y-22666637D03*
%TD*%
D17*
%TO.C,C31*%
X19025000Y-13250000D03*
X17475000Y-13250000D03*
%TD*%
D43*
%TO.C,C5*%
X49525000Y-15000000D03*
X52475000Y-15000000D03*
%TD*%
D24*
%TO.C,R7*%
X17750000Y-3675000D03*
X17750000Y-5325000D03*
%TD*%
D37*
%TO.C,C38*%
X23000000Y-22905000D03*
X23000000Y-23595000D03*
%TD*%
M02*
