%TF.GenerationSoftware,KiCad,Pcbnew,7.0.2-0*%
%TF.CreationDate,2024-12-01T01:29:24-08:00*%
%TF.ProjectId,pizero-papoe,70697a65-726f-42d7-9061-706f652e6b69,0.1*%
%TF.SameCoordinates,PX652f520PY4a19ba0*%
%TF.FileFunction,Paste,Top*%
%TF.FilePolarity,Positive*%
%FSLAX46Y46*%
G04 Gerber Fmt 4.6, Leading zero omitted, Abs format (unit mm)*
G04 Created by KiCad (PCBNEW 7.0.2-0) date 2024-12-01 01:29:24*
%MOMM*%
%LPD*%
G01*
G04 APERTURE LIST*
G04 Aperture macros list*
%AMRoundRect*
0 Rectangle with rounded corners*
0 $1 Rounding radius*
0 $2 $3 $4 $5 $6 $7 $8 $9 X,Y pos of 4 corners*
0 Add a 4 corners polygon primitive as box body*
4,1,4,$2,$3,$4,$5,$6,$7,$8,$9,$2,$3,0*
0 Add four circle primitives for the rounded corners*
1,1,$1+$1,$2,$3*
1,1,$1+$1,$4,$5*
1,1,$1+$1,$6,$7*
1,1,$1+$1,$8,$9*
0 Add four rect primitives between the rounded corners*
20,1,$1+$1,$2,$3,$4,$5,0*
20,1,$1+$1,$4,$5,$6,$7,0*
20,1,$1+$1,$6,$7,$8,$9,0*
20,1,$1+$1,$8,$9,$2,$3,0*%
G04 Aperture macros list end*
%ADD10C,0.010000*%
%ADD11RoundRect,0.032500X-0.387500X-0.097500X0.387500X-0.097500X0.387500X0.097500X-0.387500X0.097500X0*%
%ADD12R,2.000000X2.400000*%
%ADD13RoundRect,0.150000X-0.512500X-0.150000X0.512500X-0.150000X0.512500X0.150000X-0.512500X0.150000X0*%
%ADD14RoundRect,0.200000X-0.275000X0.200000X-0.275000X-0.200000X0.275000X-0.200000X0.275000X0.200000X0*%
%ADD15RoundRect,0.200000X0.200000X0.275000X-0.200000X0.275000X-0.200000X-0.275000X0.200000X-0.275000X0*%
%ADD16RoundRect,0.200000X0.275000X-0.200000X0.275000X0.200000X-0.275000X0.200000X-0.275000X-0.200000X0*%
%ADD17RoundRect,0.150000X0.150000X-0.587500X0.150000X0.587500X-0.150000X0.587500X-0.150000X-0.587500X0*%
%ADD18RoundRect,0.150000X0.512500X0.150000X-0.512500X0.150000X-0.512500X-0.150000X0.512500X-0.150000X0*%
%ADD19RoundRect,0.250000X0.320000X-0.320000X0.320000X0.320000X-0.320000X0.320000X-0.320000X-0.320000X0*%
%ADD20RoundRect,0.075000X0.075000X-0.437500X0.075000X0.437500X-0.075000X0.437500X-0.075000X-0.437500X0*%
%ADD21RoundRect,0.075000X0.437500X-0.075000X0.437500X0.075000X-0.437500X0.075000X-0.437500X-0.075000X0*%
%ADD22RoundRect,0.218750X0.218750X0.256250X-0.218750X0.256250X-0.218750X-0.256250X0.218750X-0.256250X0*%
%ADD23RoundRect,0.218750X-0.256250X0.218750X-0.256250X-0.218750X0.256250X-0.218750X0.256250X0.218750X0*%
%ADD24RoundRect,0.250000X-0.650000X1.000000X-0.650000X-1.000000X0.650000X-1.000000X0.650000X1.000000X0*%
%ADD25RoundRect,0.225000X-0.225000X-0.250000X0.225000X-0.250000X0.225000X0.250000X-0.225000X0.250000X0*%
%ADD26RoundRect,0.225000X-0.250000X0.225000X-0.250000X-0.225000X0.250000X-0.225000X0.250000X0.225000X0*%
%ADD27RoundRect,0.225000X0.225000X0.250000X-0.225000X0.250000X-0.225000X-0.250000X0.225000X-0.250000X0*%
%ADD28RoundRect,0.250000X1.000000X-1.500000X1.000000X1.500000X-1.000000X1.500000X-1.000000X-1.500000X0*%
%ADD29RoundRect,0.250000X0.650000X-0.325000X0.650000X0.325000X-0.650000X0.325000X-0.650000X-0.325000X0*%
%ADD30R,1.198880X0.800100*%
%ADD31R,1.910000X0.760000*%
G04 APERTURE END LIST*
%TO.C,U2*%
D10*
X23855000Y-23040000D02*
X22775000Y-23040000D01*
X22775000Y-20960000D01*
X23855000Y-20960000D01*
X23855000Y-23040000D01*
G36*
X23855000Y-23040000D02*
G01*
X22775000Y-23040000D01*
X22775000Y-20960000D01*
X23855000Y-20960000D01*
X23855000Y-23040000D01*
G37*
%TD*%
D11*
%TO.C,U2*%
X21880000Y-20750000D03*
X21880000Y-21250000D03*
X21880000Y-21750000D03*
X21880000Y-22250000D03*
X21880000Y-22750000D03*
X21880000Y-23250000D03*
X24750000Y-23250000D03*
X24750000Y-22750000D03*
X24750000Y-22250000D03*
X24750000Y-21750000D03*
X24750000Y-21250000D03*
X24750000Y-20750000D03*
%TD*%
D12*
%TO.C,Y1*%
X37850000Y-9000000D03*
X34150000Y-9000000D03*
%TD*%
D13*
%TO.C,U4*%
X26612500Y-9800000D03*
X26612500Y-10750000D03*
X26612500Y-11700000D03*
X28887500Y-11700000D03*
X28887500Y-9800000D03*
%TD*%
D14*
%TO.C,R26*%
X41750000Y-16425000D03*
X41750000Y-18075000D03*
%TD*%
D15*
%TO.C,R24*%
X28575000Y-17500000D03*
X26925000Y-17500000D03*
%TD*%
D16*
%TO.C,R22*%
X67500000Y-4325000D03*
X67500000Y-2675000D03*
%TD*%
%TO.C,R21*%
X70000000Y-4325000D03*
X70000000Y-2675000D03*
%TD*%
%TO.C,R19*%
X23000000Y-9575000D03*
X23000000Y-7925000D03*
%TD*%
D14*
%TO.C,R17*%
X43750000Y-16425000D03*
X43750000Y-18075000D03*
%TD*%
%TO.C,R16*%
X43750000Y-11425000D03*
X43750000Y-13075000D03*
%TD*%
%TO.C,R15*%
X14000000Y-7925000D03*
X14000000Y-9575000D03*
%TD*%
%TO.C,R14*%
X41750000Y-11425000D03*
X41750000Y-13075000D03*
%TD*%
%TO.C,R13*%
X12000000Y-7925000D03*
X12000000Y-9575000D03*
%TD*%
%TO.C,R8*%
X45750000Y-11425000D03*
X45750000Y-13075000D03*
%TD*%
D16*
%TO.C,R3*%
X45750000Y-18075000D03*
X45750000Y-16425000D03*
%TD*%
D17*
%TO.C,Q3*%
X19300000Y-9687500D03*
X21200000Y-9687500D03*
X20250000Y-7812500D03*
%TD*%
D18*
%TO.C,Q2*%
X17887500Y-9700000D03*
X17887500Y-8750000D03*
X17887500Y-7800000D03*
X15612500Y-7800000D03*
X15612500Y-8750000D03*
X15612500Y-9700000D03*
%TD*%
D16*
%TO.C,L2*%
X45750000Y-9825000D03*
X45750000Y-8175000D03*
%TD*%
D19*
%TO.C,U1*%
X38170000Y-16170000D03*
X36750000Y-13330000D03*
X35330000Y-13330000D03*
X36750000Y-14750000D03*
X35330000Y-14750000D03*
X35330000Y-16170000D03*
X38170000Y-13330000D03*
X36750000Y-16170000D03*
X38170000Y-14750000D03*
D20*
X34800000Y-17587500D03*
X35450000Y-17587500D03*
X36100000Y-17587500D03*
X36750000Y-17587500D03*
X37400000Y-17587500D03*
X38050000Y-17587500D03*
X38700000Y-17587500D03*
D21*
X39587500Y-16700000D03*
X39587500Y-16050000D03*
X39587500Y-15400000D03*
X39587500Y-14750000D03*
X39587500Y-14100000D03*
X39587500Y-13450000D03*
X39587500Y-12800000D03*
D20*
X38700000Y-11912500D03*
X38050000Y-11912500D03*
X37400000Y-11912500D03*
X36750000Y-11912500D03*
X36100000Y-11912500D03*
X35450000Y-11912500D03*
X34800000Y-11912500D03*
D21*
X33912500Y-12800000D03*
X33912500Y-13450000D03*
X33912500Y-14100000D03*
X33912500Y-14750000D03*
X33912500Y-15400000D03*
X33912500Y-16050000D03*
X33912500Y-16700000D03*
%TD*%
D22*
%TO.C,D7*%
X28537500Y-15500000D03*
X26962500Y-15500000D03*
%TD*%
D23*
%TO.C,D6*%
X10000000Y-7962500D03*
X10000000Y-9537500D03*
%TD*%
D24*
%TO.C,D3*%
X55500000Y-24750000D03*
X55500000Y-28750000D03*
%TD*%
D25*
%TO.C,C21*%
X44475000Y-14750000D03*
X46025000Y-14750000D03*
%TD*%
%TO.C,C20*%
X26975000Y-13500000D03*
X28525000Y-13500000D03*
%TD*%
%TO.C,C19*%
X26975000Y-8000000D03*
X28525000Y-8000000D03*
%TD*%
D26*
%TO.C,C18*%
X43750000Y-8225000D03*
X43750000Y-9775000D03*
%TD*%
D25*
%TO.C,C16*%
X13475000Y-11500000D03*
X15025000Y-11500000D03*
%TD*%
D27*
%TO.C,C15*%
X11525000Y-11500000D03*
X9975000Y-11500000D03*
%TD*%
D28*
%TO.C,C12*%
X4750000Y-15750000D03*
X4750000Y-9250000D03*
%TD*%
D29*
%TO.C,C11*%
X31250000Y-17475000D03*
X31250000Y-14525000D03*
%TD*%
D27*
%TO.C,C10*%
X32025000Y-12000000D03*
X30475000Y-12000000D03*
%TD*%
%TO.C,C9*%
X32025000Y-10000000D03*
X30475000Y-10000000D03*
%TD*%
D25*
%TO.C,C8*%
X39975000Y-10000000D03*
X41525000Y-10000000D03*
%TD*%
%TO.C,C7*%
X41475000Y-14750000D03*
X43025000Y-14750000D03*
%TD*%
%TO.C,C3*%
X30475000Y-8000000D03*
X32025000Y-8000000D03*
%TD*%
D27*
%TO.C,C2*%
X41525000Y-8000000D03*
X39975000Y-8000000D03*
%TD*%
%TO.C,C1*%
X56275000Y-22250000D03*
X54725000Y-22250000D03*
%TD*%
D30*
%TO.C,D1*%
X59051060Y-9230000D03*
X59053600Y-11770000D03*
X64948940Y-11770000D03*
X64946400Y-9230000D03*
%TD*%
%TO.C,D2*%
X64948940Y-20270000D03*
X64946400Y-17730000D03*
X59051060Y-17730000D03*
X59053600Y-20270000D03*
%TD*%
D31*
%TO.C,T1*%
X48115000Y-9305000D03*
X48115000Y-10575000D03*
X48115000Y-11845000D03*
X48115000Y-13115000D03*
X48115000Y-14385000D03*
X48115000Y-15655000D03*
X48115000Y-16925000D03*
X48115000Y-18195000D03*
X56885000Y-18195000D03*
X56885000Y-16925000D03*
X56885000Y-15655000D03*
X56885000Y-14385000D03*
X56885000Y-13115000D03*
X56885000Y-11845000D03*
X56885000Y-10575000D03*
X56885000Y-9305000D03*
%TD*%
M02*
