%TF.GenerationSoftware,KiCad,Pcbnew,8.0.7*%
%TF.CreationDate,2025-01-01T14:13:32-08:00*%
%TF.ProjectId,pizero-papoe,70697a65-726f-42d7-9061-706f652e6b69,R1*%
%TF.SameCoordinates,PX652f520PY4a19ba0*%
%TF.FileFunction,Soldermask,Bot*%
%TF.FilePolarity,Negative*%
%FSLAX46Y46*%
G04 Gerber Fmt 4.6, Leading zero omitted, Abs format (unit mm)*
G04 Created by KiCad (PCBNEW 8.0.7) date 2025-01-01 14:13:32*
%MOMM*%
%LPD*%
G01*
G04 APERTURE LIST*
G04 APERTURE END LIST*
G36*
X3841604Y-23468184D02*
G01*
X4178911Y-23525495D01*
X4507681Y-23620212D01*
X4823779Y-23751144D01*
X5123230Y-23916644D01*
X5402267Y-24114632D01*
X5657383Y-24342617D01*
X5885368Y-24597733D01*
X6083356Y-24876770D01*
X6248856Y-25176221D01*
X6379788Y-25492319D01*
X6474505Y-25821089D01*
X6531816Y-26158396D01*
X6551000Y-26500000D01*
X6531816Y-26841604D01*
X6474505Y-27178911D01*
X6379788Y-27507681D01*
X6248856Y-27823779D01*
X6083356Y-28123230D01*
X5885368Y-28402267D01*
X5657383Y-28657383D01*
X5402267Y-28885368D01*
X5123230Y-29083356D01*
X4823779Y-29248856D01*
X4507681Y-29379788D01*
X4178911Y-29474505D01*
X3841604Y-29531816D01*
X3500000Y-29551000D01*
X3158396Y-29531816D01*
X2821089Y-29474505D01*
X2492319Y-29379788D01*
X2176221Y-29248856D01*
X1876770Y-29083356D01*
X1597733Y-28885368D01*
X1342617Y-28657383D01*
X1114632Y-28402267D01*
X916644Y-28123230D01*
X751144Y-27823779D01*
X620212Y-27507681D01*
X525495Y-27178911D01*
X468184Y-26841604D01*
X449000Y-26500000D01*
X468184Y-26158396D01*
X525495Y-25821089D01*
X620212Y-25492319D01*
X751144Y-25176221D01*
X916644Y-24876770D01*
X1114632Y-24597733D01*
X1342617Y-24342617D01*
X1597733Y-24114632D01*
X1876770Y-23916644D01*
X2176221Y-23751144D01*
X2492319Y-23620212D01*
X2821089Y-23525495D01*
X3158396Y-23468184D01*
X3500000Y-23449000D01*
X3841604Y-23468184D01*
G37*
G36*
X61841604Y-23468184D02*
G01*
X62178911Y-23525495D01*
X62507681Y-23620212D01*
X62823779Y-23751144D01*
X63123230Y-23916644D01*
X63402267Y-24114632D01*
X63657383Y-24342617D01*
X63885368Y-24597733D01*
X64083356Y-24876770D01*
X64248856Y-25176221D01*
X64379788Y-25492319D01*
X64474505Y-25821089D01*
X64531816Y-26158396D01*
X64551000Y-26500000D01*
X64531816Y-26841604D01*
X64474505Y-27178911D01*
X64379788Y-27507681D01*
X64248856Y-27823779D01*
X64083356Y-28123230D01*
X63885368Y-28402267D01*
X63657383Y-28657383D01*
X63402267Y-28885368D01*
X63123230Y-29083356D01*
X62823779Y-29248856D01*
X62507681Y-29379788D01*
X62178911Y-29474505D01*
X61841604Y-29531816D01*
X61500000Y-29551000D01*
X61158396Y-29531816D01*
X60821089Y-29474505D01*
X60492319Y-29379788D01*
X60176221Y-29248856D01*
X59876770Y-29083356D01*
X59597733Y-28885368D01*
X59342617Y-28657383D01*
X59114632Y-28402267D01*
X58916644Y-28123230D01*
X58751144Y-27823779D01*
X58620212Y-27507681D01*
X58525495Y-27178911D01*
X58468184Y-26841604D01*
X58449000Y-26500000D01*
X58468184Y-26158396D01*
X58525495Y-25821089D01*
X58620212Y-25492319D01*
X58751144Y-25176221D01*
X58916644Y-24876770D01*
X59114632Y-24597733D01*
X59342617Y-24342617D01*
X59597733Y-24114632D01*
X59876770Y-23916644D01*
X60176221Y-23751144D01*
X60492319Y-23620212D01*
X60821089Y-23525495D01*
X61158396Y-23468184D01*
X61500000Y-23449000D01*
X61841604Y-23468184D01*
G37*
G36*
X45540817Y-27703599D02*
G01*
X45583705Y-27703599D01*
X45632086Y-27713882D01*
X45678239Y-27719083D01*
X45711799Y-27730826D01*
X45747455Y-27738405D01*
X45798838Y-27761282D01*
X45847541Y-27778324D01*
X45872891Y-27794252D01*
X45900397Y-27806499D01*
X45951683Y-27843761D01*
X45999415Y-27873753D01*
X46016557Y-27890895D01*
X46035830Y-27904898D01*
X46083477Y-27957815D01*
X46126247Y-28000585D01*
X46136084Y-28016240D01*
X46147851Y-28029309D01*
X46188106Y-28099032D01*
X46221676Y-28152459D01*
X46225867Y-28164437D01*
X46231554Y-28174287D01*
X46260683Y-28263935D01*
X46280917Y-28321761D01*
X46281684Y-28328568D01*
X46283289Y-28333508D01*
X46297844Y-28471996D01*
X46301000Y-28500000D01*
X46297844Y-28528006D01*
X46283289Y-28666491D01*
X46281684Y-28671429D01*
X46280917Y-28678239D01*
X46260678Y-28736077D01*
X46231554Y-28825712D01*
X46225868Y-28835559D01*
X46221676Y-28847541D01*
X46188098Y-28900978D01*
X46147851Y-28970690D01*
X46136086Y-28983756D01*
X46126247Y-28999415D01*
X46083468Y-29042193D01*
X46035830Y-29095101D01*
X46016561Y-29109100D01*
X45999415Y-29126247D01*
X45951673Y-29156245D01*
X45900397Y-29193500D01*
X45872896Y-29205743D01*
X45847541Y-29221676D01*
X45798828Y-29238721D01*
X45747455Y-29261594D01*
X45711804Y-29269171D01*
X45678239Y-29280917D01*
X45632083Y-29286117D01*
X45583705Y-29296401D01*
X45540817Y-29296401D01*
X45500000Y-29301000D01*
X45459183Y-29296401D01*
X45416295Y-29296401D01*
X45367915Y-29286117D01*
X45321761Y-29280917D01*
X45288196Y-29269172D01*
X45252544Y-29261594D01*
X45201167Y-29238719D01*
X45152459Y-29221676D01*
X45127105Y-29205745D01*
X45099602Y-29193500D01*
X45048319Y-29156240D01*
X45000585Y-29126247D01*
X44983441Y-29109103D01*
X44964169Y-29095101D01*
X44916521Y-29042183D01*
X44873753Y-28999415D01*
X44863916Y-28983759D01*
X44852148Y-28970690D01*
X44811888Y-28900958D01*
X44778324Y-28847541D01*
X44774133Y-28835564D01*
X44768445Y-28825712D01*
X44739307Y-28736037D01*
X44719083Y-28678239D01*
X44718316Y-28671434D01*
X44716710Y-28666491D01*
X44702140Y-28527874D01*
X44699000Y-28500000D01*
X44702140Y-28472128D01*
X44716710Y-28333508D01*
X44718316Y-28328563D01*
X44719083Y-28321761D01*
X44739302Y-28263975D01*
X44768445Y-28174287D01*
X44774134Y-28164433D01*
X44778324Y-28152459D01*
X44811881Y-28099052D01*
X44852148Y-28029309D01*
X44863918Y-28016236D01*
X44873753Y-28000585D01*
X44916512Y-27957825D01*
X44964169Y-27904898D01*
X44983444Y-27890893D01*
X45000585Y-27873753D01*
X45048314Y-27843762D01*
X45099603Y-27806499D01*
X45127109Y-27794252D01*
X45152459Y-27778324D01*
X45201158Y-27761283D01*
X45252544Y-27738405D01*
X45288202Y-27730825D01*
X45321761Y-27719083D01*
X45367912Y-27713882D01*
X45416295Y-27703599D01*
X45459183Y-27703599D01*
X45500000Y-27699000D01*
X45540817Y-27703599D01*
G37*
G36*
X40578424Y-27243098D02*
G01*
X40750500Y-27319711D01*
X40902887Y-27430427D01*
X41028924Y-27570405D01*
X41123104Y-27733530D01*
X41181311Y-27912672D01*
X41201000Y-28100000D01*
X41181311Y-28287328D01*
X41123104Y-28466470D01*
X41028924Y-28629595D01*
X40902887Y-28769573D01*
X40750500Y-28880289D01*
X40578424Y-28956902D01*
X40394180Y-28996064D01*
X40205820Y-28996064D01*
X40021576Y-28956902D01*
X39849500Y-28880289D01*
X39697113Y-28769573D01*
X39571076Y-28629595D01*
X39476896Y-28466470D01*
X39418689Y-28287328D01*
X39399000Y-28100000D01*
X39418689Y-27912672D01*
X39476896Y-27733530D01*
X39571076Y-27570405D01*
X39697113Y-27430427D01*
X39849500Y-27319711D01*
X40021576Y-27243098D01*
X40205820Y-27203936D01*
X40394180Y-27203936D01*
X40578424Y-27243098D01*
G37*
G36*
X42728424Y-27243098D02*
G01*
X42900500Y-27319711D01*
X43052887Y-27430427D01*
X43178924Y-27570405D01*
X43273104Y-27733530D01*
X43331311Y-27912672D01*
X43351000Y-28100000D01*
X43331311Y-28287328D01*
X43273104Y-28466470D01*
X43178924Y-28629595D01*
X43052887Y-28769573D01*
X42900500Y-28880289D01*
X42728424Y-28956902D01*
X42544180Y-28996064D01*
X42355820Y-28996064D01*
X42171576Y-28956902D01*
X41999500Y-28880289D01*
X41847113Y-28769573D01*
X41721076Y-28629595D01*
X41626896Y-28466470D01*
X41568689Y-28287328D01*
X41549000Y-28100000D01*
X41568689Y-27912672D01*
X41626896Y-27733530D01*
X41721076Y-27570405D01*
X41847113Y-27430427D01*
X41999500Y-27319711D01*
X42171576Y-27243098D01*
X42355820Y-27203936D01*
X42544180Y-27203936D01*
X42728424Y-27243098D01*
G37*
G36*
X47778424Y-26893098D02*
G01*
X47950500Y-26969711D01*
X48102887Y-27080427D01*
X48228924Y-27220405D01*
X48323104Y-27383530D01*
X48381311Y-27562672D01*
X48401000Y-27750000D01*
X48381311Y-27937328D01*
X48323104Y-28116470D01*
X48228924Y-28279595D01*
X48102887Y-28419573D01*
X47950500Y-28530289D01*
X47778424Y-28606902D01*
X47594180Y-28646064D01*
X47405820Y-28646064D01*
X47221576Y-28606902D01*
X47049500Y-28530289D01*
X46897113Y-28419573D01*
X46771076Y-28279595D01*
X46676896Y-28116470D01*
X46618689Y-27937328D01*
X46599000Y-27750000D01*
X46618689Y-27562672D01*
X46676896Y-27383530D01*
X46771076Y-27220405D01*
X46897113Y-27080427D01*
X47049500Y-26969711D01*
X47221576Y-26893098D01*
X47405820Y-26853936D01*
X47594180Y-26853936D01*
X47778424Y-26893098D01*
G37*
G36*
X54378424Y-25443098D02*
G01*
X54550500Y-25519711D01*
X54702887Y-25630427D01*
X54828924Y-25770405D01*
X54923104Y-25933530D01*
X54981311Y-26112672D01*
X55001000Y-26300000D01*
X54981311Y-26487328D01*
X54923104Y-26666470D01*
X54828924Y-26829595D01*
X54702887Y-26969573D01*
X54550500Y-27080289D01*
X54378424Y-27156902D01*
X54194180Y-27196064D01*
X54005820Y-27196064D01*
X53821576Y-27156902D01*
X53649500Y-27080289D01*
X53497113Y-26969573D01*
X53371076Y-26829595D01*
X53276896Y-26666470D01*
X53218689Y-26487328D01*
X53199000Y-26300000D01*
X53218689Y-26112672D01*
X53276896Y-25933530D01*
X53371076Y-25770405D01*
X53497113Y-25630427D01*
X53649500Y-25519711D01*
X53821576Y-25443098D01*
X54005820Y-25403936D01*
X54194180Y-25403936D01*
X54378424Y-25443098D01*
G37*
G36*
X45540817Y-25203599D02*
G01*
X45583705Y-25203599D01*
X45632086Y-25213882D01*
X45678239Y-25219083D01*
X45711799Y-25230826D01*
X45747455Y-25238405D01*
X45798838Y-25261282D01*
X45847541Y-25278324D01*
X45872891Y-25294252D01*
X45900397Y-25306499D01*
X45951683Y-25343761D01*
X45999415Y-25373753D01*
X46016557Y-25390895D01*
X46035830Y-25404898D01*
X46083477Y-25457815D01*
X46126247Y-25500585D01*
X46136084Y-25516240D01*
X46147851Y-25529309D01*
X46188106Y-25599032D01*
X46221676Y-25652459D01*
X46225867Y-25664437D01*
X46231554Y-25674287D01*
X46260683Y-25763935D01*
X46280917Y-25821761D01*
X46281684Y-25828568D01*
X46283289Y-25833508D01*
X46297844Y-25971996D01*
X46301000Y-26000000D01*
X46297844Y-26028006D01*
X46283289Y-26166491D01*
X46281684Y-26171429D01*
X46280917Y-26178239D01*
X46260678Y-26236077D01*
X46231554Y-26325712D01*
X46225868Y-26335559D01*
X46221676Y-26347541D01*
X46188098Y-26400978D01*
X46147851Y-26470690D01*
X46136086Y-26483756D01*
X46126247Y-26499415D01*
X46083468Y-26542193D01*
X46035830Y-26595101D01*
X46016561Y-26609100D01*
X45999415Y-26626247D01*
X45951673Y-26656245D01*
X45900397Y-26693500D01*
X45872896Y-26705743D01*
X45847541Y-26721676D01*
X45798828Y-26738721D01*
X45747455Y-26761594D01*
X45711804Y-26769171D01*
X45678239Y-26780917D01*
X45632083Y-26786117D01*
X45583705Y-26796401D01*
X45540817Y-26796401D01*
X45500000Y-26801000D01*
X45459183Y-26796401D01*
X45416295Y-26796401D01*
X45367915Y-26786117D01*
X45321761Y-26780917D01*
X45288196Y-26769172D01*
X45252544Y-26761594D01*
X45201167Y-26738719D01*
X45152459Y-26721676D01*
X45127105Y-26705745D01*
X45099602Y-26693500D01*
X45048319Y-26656240D01*
X45000585Y-26626247D01*
X44983441Y-26609103D01*
X44964169Y-26595101D01*
X44916521Y-26542183D01*
X44873753Y-26499415D01*
X44863916Y-26483759D01*
X44852148Y-26470690D01*
X44811888Y-26400958D01*
X44778324Y-26347541D01*
X44774133Y-26335564D01*
X44768445Y-26325712D01*
X44739307Y-26236037D01*
X44719083Y-26178239D01*
X44718316Y-26171434D01*
X44716710Y-26166491D01*
X44702140Y-26027874D01*
X44699000Y-26000000D01*
X44702140Y-25972128D01*
X44716710Y-25833508D01*
X44718316Y-25828563D01*
X44719083Y-25821761D01*
X44739302Y-25763975D01*
X44768445Y-25674287D01*
X44774134Y-25664433D01*
X44778324Y-25652459D01*
X44811881Y-25599052D01*
X44852148Y-25529309D01*
X44863918Y-25516236D01*
X44873753Y-25500585D01*
X44916512Y-25457825D01*
X44964169Y-25404898D01*
X44983444Y-25390893D01*
X45000585Y-25373753D01*
X45048314Y-25343762D01*
X45099603Y-25306499D01*
X45127109Y-25294252D01*
X45152459Y-25278324D01*
X45201158Y-25261283D01*
X45252544Y-25238405D01*
X45288202Y-25230825D01*
X45321761Y-25219083D01*
X45367912Y-25213882D01*
X45416295Y-25203599D01*
X45459183Y-25203599D01*
X45500000Y-25199000D01*
X45540817Y-25203599D01*
G37*
G36*
X54078424Y-22843098D02*
G01*
X54250500Y-22919711D01*
X54402887Y-23030427D01*
X54528924Y-23170405D01*
X54623104Y-23333530D01*
X54681311Y-23512672D01*
X54701000Y-23700000D01*
X54681311Y-23887328D01*
X54623104Y-24066470D01*
X54528924Y-24229595D01*
X54402887Y-24369573D01*
X54250500Y-24480289D01*
X54078424Y-24556902D01*
X53894180Y-24596064D01*
X53705820Y-24596064D01*
X53521576Y-24556902D01*
X53349500Y-24480289D01*
X53197113Y-24369573D01*
X53071076Y-24229595D01*
X52976896Y-24066470D01*
X52918689Y-23887328D01*
X52899000Y-23700000D01*
X52918689Y-23512672D01*
X52976896Y-23333530D01*
X53071076Y-23170405D01*
X53197113Y-23030427D01*
X53349500Y-22919711D01*
X53521576Y-22843098D01*
X53705820Y-22803936D01*
X53894180Y-22803936D01*
X54078424Y-22843098D01*
G37*
G36*
X45540817Y-22703599D02*
G01*
X45583705Y-22703599D01*
X45632086Y-22713882D01*
X45678239Y-22719083D01*
X45711799Y-22730826D01*
X45747455Y-22738405D01*
X45798838Y-22761282D01*
X45847541Y-22778324D01*
X45872891Y-22794252D01*
X45900397Y-22806499D01*
X45951683Y-22843761D01*
X45999415Y-22873753D01*
X46016557Y-22890895D01*
X46035830Y-22904898D01*
X46083477Y-22957815D01*
X46126247Y-23000585D01*
X46136084Y-23016240D01*
X46147851Y-23029309D01*
X46188106Y-23099032D01*
X46221676Y-23152459D01*
X46225867Y-23164437D01*
X46231554Y-23174287D01*
X46260683Y-23263935D01*
X46280917Y-23321761D01*
X46281684Y-23328568D01*
X46283289Y-23333508D01*
X46297844Y-23471996D01*
X46301000Y-23500000D01*
X46297844Y-23528006D01*
X46283289Y-23666491D01*
X46281684Y-23671429D01*
X46280917Y-23678239D01*
X46260678Y-23736077D01*
X46231554Y-23825712D01*
X46225868Y-23835559D01*
X46221676Y-23847541D01*
X46188098Y-23900978D01*
X46147851Y-23970690D01*
X46136086Y-23983756D01*
X46126247Y-23999415D01*
X46083468Y-24042193D01*
X46035830Y-24095101D01*
X46016561Y-24109100D01*
X45999415Y-24126247D01*
X45951673Y-24156245D01*
X45900397Y-24193500D01*
X45872896Y-24205743D01*
X45847541Y-24221676D01*
X45798828Y-24238721D01*
X45747455Y-24261594D01*
X45711804Y-24269171D01*
X45678239Y-24280917D01*
X45632083Y-24286117D01*
X45583705Y-24296401D01*
X45540817Y-24296401D01*
X45500000Y-24301000D01*
X45459183Y-24296401D01*
X45416295Y-24296401D01*
X45367915Y-24286117D01*
X45321761Y-24280917D01*
X45288196Y-24269172D01*
X45252544Y-24261594D01*
X45201167Y-24238719D01*
X45152459Y-24221676D01*
X45127105Y-24205745D01*
X45099602Y-24193500D01*
X45048319Y-24156240D01*
X45000585Y-24126247D01*
X44983441Y-24109103D01*
X44964169Y-24095101D01*
X44916521Y-24042183D01*
X44873753Y-23999415D01*
X44863916Y-23983759D01*
X44852148Y-23970690D01*
X44811888Y-23900958D01*
X44778324Y-23847541D01*
X44774133Y-23835564D01*
X44768445Y-23825712D01*
X44739307Y-23736037D01*
X44719083Y-23678239D01*
X44718316Y-23671434D01*
X44716710Y-23666491D01*
X44702140Y-23527874D01*
X44699000Y-23500000D01*
X44702140Y-23472128D01*
X44716710Y-23333508D01*
X44718316Y-23328563D01*
X44719083Y-23321761D01*
X44739302Y-23263975D01*
X44768445Y-23174287D01*
X44774134Y-23164433D01*
X44778324Y-23152459D01*
X44811881Y-23099052D01*
X44852148Y-23029309D01*
X44863918Y-23016236D01*
X44873753Y-23000585D01*
X44916512Y-22957825D01*
X44964169Y-22904898D01*
X44983444Y-22890893D01*
X45000585Y-22873753D01*
X45048314Y-22843762D01*
X45099603Y-22806499D01*
X45127109Y-22794252D01*
X45152459Y-22778324D01*
X45201158Y-22761283D01*
X45252544Y-22738405D01*
X45288202Y-22730825D01*
X45321761Y-22719083D01*
X45367912Y-22713882D01*
X45416295Y-22703599D01*
X45459183Y-22703599D01*
X45500000Y-22699000D01*
X45540817Y-22703599D01*
G37*
G36*
X-12496587Y-22143098D02*
G01*
X-12332968Y-22175644D01*
X-12178841Y-22239485D01*
X-12040131Y-22332168D01*
X-11922168Y-22450131D01*
X-11829485Y-22588841D01*
X-11765644Y-22742968D01*
X-11733098Y-22906587D01*
X-11733098Y-23073413D01*
X-11765644Y-23237032D01*
X-11829485Y-23391159D01*
X-11922168Y-23529869D01*
X-12040131Y-23647832D01*
X-12178841Y-23740515D01*
X-12332968Y-23804356D01*
X-12496587Y-23836902D01*
X-12580000Y-23841000D01*
X-12580953Y-23841000D01*
X-13779047Y-23841000D01*
X-13780000Y-23841000D01*
X-13863413Y-23836902D01*
X-14027032Y-23804356D01*
X-14181159Y-23740515D01*
X-14319869Y-23647832D01*
X-14437832Y-23529869D01*
X-14530515Y-23391159D01*
X-14594356Y-23237032D01*
X-14626902Y-23073413D01*
X-14626902Y-22906587D01*
X-14594356Y-22742968D01*
X-14530515Y-22588841D01*
X-14437832Y-22450131D01*
X-14319869Y-22332168D01*
X-14181159Y-22239485D01*
X-14027032Y-22175644D01*
X-13863413Y-22143098D01*
X-13780000Y-22139000D01*
X-12580000Y-22139000D01*
X-12496587Y-22143098D01*
G37*
G36*
X-4951576Y-21143098D02*
G01*
X-4779500Y-21219711D01*
X-4627113Y-21330427D01*
X-4501076Y-21470405D01*
X-4406896Y-21633530D01*
X-4348689Y-21812672D01*
X-4329000Y-22000000D01*
X-4348689Y-22187328D01*
X-4406896Y-22366470D01*
X-4501076Y-22529595D01*
X-4627113Y-22669573D01*
X-4779500Y-22780289D01*
X-4951576Y-22856902D01*
X-5135820Y-22896064D01*
X-5324180Y-22896064D01*
X-5508424Y-22856902D01*
X-5680500Y-22780289D01*
X-5832887Y-22669573D01*
X-5958924Y-22529595D01*
X-6053104Y-22366470D01*
X-6111311Y-22187328D01*
X-6131000Y-22000000D01*
X-6111311Y-21812672D01*
X-6053104Y-21633530D01*
X-5958924Y-21470405D01*
X-5832887Y-21330427D01*
X-5680500Y-21219711D01*
X-5508424Y-21143098D01*
X-5324180Y-21103936D01*
X-5135820Y-21103936D01*
X-4951576Y-21143098D01*
G37*
G36*
X60704943Y-20974983D02*
G01*
X60770497Y-20983613D01*
X60786987Y-20991302D01*
X60805621Y-20995009D01*
X60830303Y-21011501D01*
X60857966Y-21024401D01*
X60874796Y-21041231D01*
X60895161Y-21054839D01*
X60908768Y-21075203D01*
X60925598Y-21092033D01*
X60938496Y-21119694D01*
X60954991Y-21144379D01*
X60958697Y-21163014D01*
X60966386Y-21179502D01*
X60975014Y-21245043D01*
X60976000Y-21250000D01*
X60976000Y-21750000D01*
X60975013Y-21754958D01*
X60966386Y-21820497D01*
X60958698Y-21836983D01*
X60954991Y-21855621D01*
X60938495Y-21880308D01*
X60925598Y-21907966D01*
X60908770Y-21924793D01*
X60895161Y-21945161D01*
X60874793Y-21958770D01*
X60857966Y-21975598D01*
X60830308Y-21988495D01*
X60805621Y-22004991D01*
X60786983Y-22008698D01*
X60770497Y-22016386D01*
X60704958Y-22025013D01*
X60700000Y-22026000D01*
X60250000Y-22026000D01*
X60245043Y-22025014D01*
X60179502Y-22016386D01*
X60163014Y-22008697D01*
X60144379Y-22004991D01*
X60119694Y-21988496D01*
X60092033Y-21975598D01*
X60075203Y-21958768D01*
X60054839Y-21945161D01*
X60041231Y-21924796D01*
X60024401Y-21907966D01*
X60011501Y-21880303D01*
X59995009Y-21855621D01*
X59991302Y-21836987D01*
X59983613Y-21820497D01*
X59974983Y-21754943D01*
X59974000Y-21750000D01*
X59974000Y-21250000D01*
X59974982Y-21245058D01*
X59983613Y-21179502D01*
X59991302Y-21163011D01*
X59995009Y-21144379D01*
X60011499Y-21119699D01*
X60024401Y-21092033D01*
X60041233Y-21075200D01*
X60054839Y-21054839D01*
X60075200Y-21041233D01*
X60092033Y-21024401D01*
X60119699Y-21011499D01*
X60144379Y-20995009D01*
X60163011Y-20991302D01*
X60179502Y-20983613D01*
X60245058Y-20974982D01*
X60250000Y-20974000D01*
X60700000Y-20974000D01*
X60704943Y-20974983D01*
G37*
G36*
X62254943Y-20974983D02*
G01*
X62320497Y-20983613D01*
X62336987Y-20991302D01*
X62355621Y-20995009D01*
X62380303Y-21011501D01*
X62407966Y-21024401D01*
X62424796Y-21041231D01*
X62445161Y-21054839D01*
X62458768Y-21075203D01*
X62475598Y-21092033D01*
X62488496Y-21119694D01*
X62504991Y-21144379D01*
X62508697Y-21163014D01*
X62516386Y-21179502D01*
X62525014Y-21245043D01*
X62526000Y-21250000D01*
X62526000Y-21750000D01*
X62525013Y-21754958D01*
X62516386Y-21820497D01*
X62508698Y-21836983D01*
X62504991Y-21855621D01*
X62488495Y-21880308D01*
X62475598Y-21907966D01*
X62458770Y-21924793D01*
X62445161Y-21945161D01*
X62424793Y-21958770D01*
X62407966Y-21975598D01*
X62380308Y-21988495D01*
X62355621Y-22004991D01*
X62336983Y-22008698D01*
X62320497Y-22016386D01*
X62254958Y-22025013D01*
X62250000Y-22026000D01*
X61800000Y-22026000D01*
X61795043Y-22025014D01*
X61729502Y-22016386D01*
X61713014Y-22008697D01*
X61694379Y-22004991D01*
X61669694Y-21988496D01*
X61642033Y-21975598D01*
X61625203Y-21958768D01*
X61604839Y-21945161D01*
X61591231Y-21924796D01*
X61574401Y-21907966D01*
X61561501Y-21880303D01*
X61545009Y-21855621D01*
X61541302Y-21836987D01*
X61533613Y-21820497D01*
X61524983Y-21754943D01*
X61524000Y-21750000D01*
X61524000Y-21250000D01*
X61524982Y-21245058D01*
X61533613Y-21179502D01*
X61541302Y-21163011D01*
X61545009Y-21144379D01*
X61561499Y-21119699D01*
X61574401Y-21092033D01*
X61591233Y-21075200D01*
X61604839Y-21054839D01*
X61625200Y-21041233D01*
X61642033Y-21024401D01*
X61669699Y-21011499D01*
X61694379Y-20995009D01*
X61713011Y-20991302D01*
X61729502Y-20983613D01*
X61795058Y-20974982D01*
X61800000Y-20974000D01*
X62250000Y-20974000D01*
X62254943Y-20974983D01*
G37*
G36*
X-8644469Y-19797273D02*
G01*
X-8466068Y-19851391D01*
X-8301653Y-19939272D01*
X-8157541Y-20057541D01*
X-8039272Y-20201653D01*
X-7951391Y-20366068D01*
X-7897273Y-20544469D01*
X-7879000Y-20730000D01*
X-7897273Y-20915531D01*
X-7951391Y-21093932D01*
X-8039272Y-21258347D01*
X-8157541Y-21402459D01*
X-8301653Y-21520728D01*
X-8466068Y-21608609D01*
X-8644469Y-21662727D01*
X-8830000Y-21681000D01*
X-9015531Y-21662727D01*
X-9193932Y-21608609D01*
X-9358347Y-21520728D01*
X-9502459Y-21402459D01*
X-9620728Y-21258347D01*
X-9708609Y-21093932D01*
X-9762727Y-20915531D01*
X-9781000Y-20730000D01*
X-9762727Y-20544469D01*
X-9708609Y-20366068D01*
X-9620728Y-20201653D01*
X-9502459Y-20057541D01*
X-9358347Y-19939272D01*
X-9193932Y-19851391D01*
X-9015531Y-19797273D01*
X-8830000Y-19779000D01*
X-8644469Y-19797273D01*
G37*
G36*
X34797191Y-19203648D02*
G01*
X34846961Y-19203648D01*
X34902390Y-19214009D01*
X34955040Y-19219195D01*
X34995033Y-19231327D01*
X35037574Y-19239279D01*
X35096496Y-19262105D01*
X35152200Y-19279003D01*
X35184026Y-19296014D01*
X35218393Y-19309328D01*
X35278102Y-19346298D01*
X35333904Y-19376125D01*
X35357351Y-19395367D01*
X35383270Y-19411416D01*
X35440701Y-19463772D01*
X35493169Y-19506831D01*
X35508717Y-19525776D01*
X35526575Y-19542056D01*
X35578417Y-19610705D01*
X35623875Y-19666096D01*
X35632664Y-19682540D01*
X35643439Y-19696808D01*
X35686310Y-19782904D01*
X35720997Y-19847800D01*
X35724696Y-19859994D01*
X35729875Y-19870395D01*
X35760455Y-19977877D01*
X35780805Y-20044960D01*
X35781473Y-20051750D01*
X35782941Y-20056907D01*
X35798194Y-20221515D01*
X35801000Y-20250000D01*
X35798194Y-20278486D01*
X35782941Y-20443092D01*
X35781473Y-20448248D01*
X35780805Y-20455040D01*
X35760451Y-20522137D01*
X35729875Y-20629604D01*
X35724696Y-20640002D01*
X35720997Y-20652200D01*
X35686302Y-20717108D01*
X35643439Y-20803191D01*
X35632666Y-20817455D01*
X35623875Y-20833904D01*
X35578407Y-20889305D01*
X35526575Y-20957943D01*
X35508720Y-20974219D01*
X35493169Y-20993169D01*
X35440690Y-21036237D01*
X35383270Y-21088583D01*
X35357356Y-21104628D01*
X35333904Y-21123875D01*
X35278090Y-21153707D01*
X35218393Y-21190671D01*
X35184033Y-21203981D01*
X35152200Y-21220997D01*
X35096484Y-21237898D01*
X35037574Y-21260720D01*
X34995040Y-21268670D01*
X34955040Y-21280805D01*
X34902387Y-21285990D01*
X34846961Y-21296352D01*
X34797191Y-21296352D01*
X34750000Y-21301000D01*
X34702809Y-21296352D01*
X34653039Y-21296352D01*
X34597611Y-21285990D01*
X34544960Y-21280805D01*
X34504960Y-21268671D01*
X34462425Y-21260720D01*
X34403510Y-21237896D01*
X34347800Y-21220997D01*
X34315969Y-21203983D01*
X34281606Y-21190671D01*
X34221902Y-21153703D01*
X34166096Y-21123875D01*
X34142647Y-21104630D01*
X34116729Y-21088583D01*
X34059299Y-21036228D01*
X34006831Y-20993169D01*
X33991282Y-20974223D01*
X33973424Y-20957943D01*
X33921579Y-20889290D01*
X33876125Y-20833904D01*
X33867335Y-20817460D01*
X33856560Y-20803191D01*
X33813682Y-20717081D01*
X33779003Y-20652200D01*
X33775304Y-20640008D01*
X33770124Y-20629604D01*
X33739532Y-20522084D01*
X33719195Y-20455040D01*
X33718526Y-20448253D01*
X33717058Y-20443092D01*
X33701788Y-20278314D01*
X33699000Y-20250000D01*
X33701788Y-20221687D01*
X33717058Y-20056907D01*
X33718526Y-20051744D01*
X33719195Y-20044960D01*
X33739528Y-19977930D01*
X33770124Y-19870395D01*
X33775305Y-19859989D01*
X33779003Y-19847800D01*
X33813675Y-19782932D01*
X33856560Y-19696808D01*
X33867337Y-19682536D01*
X33876125Y-19666096D01*
X33921570Y-19610721D01*
X33973424Y-19542056D01*
X33991285Y-19525772D01*
X34006831Y-19506831D01*
X34059288Y-19463780D01*
X34116729Y-19411416D01*
X34142651Y-19395365D01*
X34166096Y-19376125D01*
X34221890Y-19346302D01*
X34281606Y-19309328D01*
X34315976Y-19296013D01*
X34347800Y-19279003D01*
X34403498Y-19262106D01*
X34462425Y-19239279D01*
X34504967Y-19231326D01*
X34544960Y-19219195D01*
X34597608Y-19214009D01*
X34653039Y-19203648D01*
X34702809Y-19203648D01*
X34750000Y-19199000D01*
X34797191Y-19203648D01*
G37*
G36*
X37297191Y-19203648D02*
G01*
X37346961Y-19203648D01*
X37402390Y-19214009D01*
X37455040Y-19219195D01*
X37495033Y-19231327D01*
X37537574Y-19239279D01*
X37596496Y-19262105D01*
X37652200Y-19279003D01*
X37684026Y-19296014D01*
X37718393Y-19309328D01*
X37778102Y-19346298D01*
X37833904Y-19376125D01*
X37857351Y-19395367D01*
X37883270Y-19411416D01*
X37940701Y-19463772D01*
X37993169Y-19506831D01*
X38008717Y-19525776D01*
X38026575Y-19542056D01*
X38078417Y-19610705D01*
X38123875Y-19666096D01*
X38132664Y-19682540D01*
X38143439Y-19696808D01*
X38186310Y-19782904D01*
X38220997Y-19847800D01*
X38224696Y-19859994D01*
X38229875Y-19870395D01*
X38260455Y-19977877D01*
X38280805Y-20044960D01*
X38281473Y-20051750D01*
X38282941Y-20056907D01*
X38298194Y-20221515D01*
X38301000Y-20250000D01*
X38298194Y-20278486D01*
X38282941Y-20443092D01*
X38281473Y-20448248D01*
X38280805Y-20455040D01*
X38260451Y-20522137D01*
X38229875Y-20629604D01*
X38224696Y-20640002D01*
X38220997Y-20652200D01*
X38186302Y-20717108D01*
X38143439Y-20803191D01*
X38132666Y-20817455D01*
X38123875Y-20833904D01*
X38078407Y-20889305D01*
X38026575Y-20957943D01*
X38008720Y-20974219D01*
X37993169Y-20993169D01*
X37940690Y-21036237D01*
X37883270Y-21088583D01*
X37857356Y-21104628D01*
X37833904Y-21123875D01*
X37778090Y-21153707D01*
X37718393Y-21190671D01*
X37684033Y-21203981D01*
X37652200Y-21220997D01*
X37596484Y-21237898D01*
X37537574Y-21260720D01*
X37495040Y-21268670D01*
X37455040Y-21280805D01*
X37402387Y-21285990D01*
X37346961Y-21296352D01*
X37297191Y-21296352D01*
X37250000Y-21301000D01*
X37202809Y-21296352D01*
X37153039Y-21296352D01*
X37097611Y-21285990D01*
X37044960Y-21280805D01*
X37004960Y-21268671D01*
X36962425Y-21260720D01*
X36903510Y-21237896D01*
X36847800Y-21220997D01*
X36815969Y-21203983D01*
X36781606Y-21190671D01*
X36721902Y-21153703D01*
X36666096Y-21123875D01*
X36642647Y-21104630D01*
X36616729Y-21088583D01*
X36559299Y-21036228D01*
X36506831Y-20993169D01*
X36491282Y-20974223D01*
X36473424Y-20957943D01*
X36421579Y-20889290D01*
X36376125Y-20833904D01*
X36367335Y-20817460D01*
X36356560Y-20803191D01*
X36313682Y-20717081D01*
X36279003Y-20652200D01*
X36275304Y-20640008D01*
X36270124Y-20629604D01*
X36239532Y-20522084D01*
X36219195Y-20455040D01*
X36218526Y-20448253D01*
X36217058Y-20443092D01*
X36201788Y-20278314D01*
X36199000Y-20250000D01*
X36201788Y-20221687D01*
X36217058Y-20056907D01*
X36218526Y-20051744D01*
X36219195Y-20044960D01*
X36239528Y-19977930D01*
X36270124Y-19870395D01*
X36275305Y-19859989D01*
X36279003Y-19847800D01*
X36313675Y-19782932D01*
X36356560Y-19696808D01*
X36367337Y-19682536D01*
X36376125Y-19666096D01*
X36421570Y-19610721D01*
X36473424Y-19542056D01*
X36491285Y-19525772D01*
X36506831Y-19506831D01*
X36559288Y-19463780D01*
X36616729Y-19411416D01*
X36642651Y-19395365D01*
X36666096Y-19376125D01*
X36721890Y-19346302D01*
X36781606Y-19309328D01*
X36815976Y-19296013D01*
X36847800Y-19279003D01*
X36903498Y-19262106D01*
X36962425Y-19239279D01*
X37004967Y-19231326D01*
X37044960Y-19219195D01*
X37097608Y-19214009D01*
X37153039Y-19203648D01*
X37202809Y-19203648D01*
X37250000Y-19199000D01*
X37297191Y-19203648D01*
G37*
G36*
X64336920Y-19678714D02*
G01*
X64475859Y-19715942D01*
X64600428Y-19787862D01*
X64702138Y-19889572D01*
X64774058Y-20014141D01*
X64811286Y-20153080D01*
X64811286Y-20296920D01*
X64774058Y-20435859D01*
X64702138Y-20560428D01*
X64600428Y-20662138D01*
X64475859Y-20734058D01*
X64336920Y-20771286D01*
X64265000Y-20776000D01*
X64263733Y-20776000D01*
X63236267Y-20776000D01*
X63235000Y-20776000D01*
X63163080Y-20771286D01*
X63024141Y-20734058D01*
X62899572Y-20662138D01*
X62797862Y-20560428D01*
X62725942Y-20435859D01*
X62688714Y-20296920D01*
X62688714Y-20153080D01*
X62725942Y-20014141D01*
X62797862Y-19889572D01*
X62899572Y-19787862D01*
X63024141Y-19715942D01*
X63163080Y-19678714D01*
X63235000Y-19674000D01*
X64265000Y-19674000D01*
X64336920Y-19678714D01*
G37*
G36*
X-4951576Y-18603098D02*
G01*
X-4779500Y-18679711D01*
X-4627113Y-18790427D01*
X-4501076Y-18930405D01*
X-4406896Y-19093530D01*
X-4348689Y-19272672D01*
X-4329000Y-19460000D01*
X-4348689Y-19647328D01*
X-4406896Y-19826470D01*
X-4501076Y-19989595D01*
X-4627113Y-20129573D01*
X-4779500Y-20240289D01*
X-4951576Y-20316902D01*
X-5135820Y-20356064D01*
X-5324180Y-20356064D01*
X-5508424Y-20316902D01*
X-5680500Y-20240289D01*
X-5832887Y-20129573D01*
X-5958924Y-19989595D01*
X-6053104Y-19826470D01*
X-6111311Y-19647328D01*
X-6131000Y-19460000D01*
X-6111311Y-19272672D01*
X-6053104Y-19093530D01*
X-5958924Y-18930405D01*
X-5832887Y-18790427D01*
X-5680500Y-18679711D01*
X-5508424Y-18603098D01*
X-5324180Y-18563936D01*
X-5135820Y-18563936D01*
X-4951576Y-18603098D01*
G37*
G36*
X62520872Y-18660114D02*
G01*
X62568238Y-18691762D01*
X62599886Y-18739128D01*
X62611000Y-18795000D01*
X62611000Y-19405000D01*
X62599886Y-19460872D01*
X62568238Y-19508238D01*
X62520872Y-19539886D01*
X62465000Y-19551000D01*
X61315000Y-19551000D01*
X61259128Y-19539886D01*
X61211762Y-19508238D01*
X61180114Y-19460872D01*
X61169000Y-19405000D01*
X61169000Y-18795000D01*
X61180114Y-18739128D01*
X61211762Y-18691762D01*
X61259128Y-18660114D01*
X61315000Y-18649000D01*
X62465000Y-18649000D01*
X62520872Y-18660114D01*
G37*
G36*
X-10239183Y-17763599D02*
G01*
X-10196295Y-17763599D01*
X-10147914Y-17773882D01*
X-10101761Y-17779083D01*
X-10068201Y-17790826D01*
X-10032545Y-17798405D01*
X-9981162Y-17821282D01*
X-9932459Y-17838324D01*
X-9907109Y-17854252D01*
X-9879603Y-17866499D01*
X-9828317Y-17903761D01*
X-9780585Y-17933753D01*
X-9763443Y-17950895D01*
X-9744170Y-17964898D01*
X-9696523Y-18017815D01*
X-9653753Y-18060585D01*
X-9643916Y-18076240D01*
X-9632149Y-18089309D01*
X-9591894Y-18159032D01*
X-9558324Y-18212459D01*
X-9554133Y-18224437D01*
X-9548446Y-18234287D01*
X-9519317Y-18323935D01*
X-9499083Y-18381761D01*
X-9498316Y-18388568D01*
X-9496711Y-18393508D01*
X-9482156Y-18531996D01*
X-9479000Y-18560000D01*
X-9482156Y-18588006D01*
X-9496711Y-18726491D01*
X-9498316Y-18731429D01*
X-9499083Y-18738239D01*
X-9519322Y-18796077D01*
X-9548446Y-18885712D01*
X-9554132Y-18895559D01*
X-9558324Y-18907541D01*
X-9591902Y-18960978D01*
X-9632149Y-19030690D01*
X-9643914Y-19043756D01*
X-9653753Y-19059415D01*
X-9696532Y-19102193D01*
X-9744170Y-19155101D01*
X-9763439Y-19169100D01*
X-9780585Y-19186247D01*
X-9828327Y-19216245D01*
X-9879603Y-19253500D01*
X-9907104Y-19265743D01*
X-9932459Y-19281676D01*
X-9981172Y-19298721D01*
X-10032545Y-19321594D01*
X-10068196Y-19329171D01*
X-10101761Y-19340917D01*
X-10147917Y-19346117D01*
X-10196295Y-19356401D01*
X-10239183Y-19356401D01*
X-10280000Y-19361000D01*
X-10320817Y-19356401D01*
X-10363705Y-19356401D01*
X-10412085Y-19346117D01*
X-10458239Y-19340917D01*
X-10491804Y-19329172D01*
X-10527456Y-19321594D01*
X-10578833Y-19298719D01*
X-10627541Y-19281676D01*
X-10652895Y-19265745D01*
X-10680398Y-19253500D01*
X-10731681Y-19216240D01*
X-10779415Y-19186247D01*
X-10796559Y-19169103D01*
X-10815831Y-19155101D01*
X-10863479Y-19102183D01*
X-10906247Y-19059415D01*
X-10916084Y-19043759D01*
X-10927852Y-19030690D01*
X-10968112Y-18960958D01*
X-11001676Y-18907541D01*
X-11005867Y-18895564D01*
X-11011555Y-18885712D01*
X-11040693Y-18796037D01*
X-11060917Y-18738239D01*
X-11061684Y-18731434D01*
X-11063290Y-18726491D01*
X-11077860Y-18587874D01*
X-11081000Y-18560000D01*
X-11077860Y-18532128D01*
X-11063290Y-18393508D01*
X-11061684Y-18388563D01*
X-11060917Y-18381761D01*
X-11040698Y-18323975D01*
X-11011555Y-18234287D01*
X-11005866Y-18224433D01*
X-11001676Y-18212459D01*
X-10968119Y-18159052D01*
X-10927852Y-18089309D01*
X-10916082Y-18076236D01*
X-10906247Y-18060585D01*
X-10863488Y-18017825D01*
X-10815831Y-17964898D01*
X-10796556Y-17950893D01*
X-10779415Y-17933753D01*
X-10731686Y-17903762D01*
X-10680397Y-17866499D01*
X-10652891Y-17854252D01*
X-10627541Y-17838324D01*
X-10578842Y-17821283D01*
X-10527456Y-17798405D01*
X-10491798Y-17790825D01*
X-10458239Y-17779083D01*
X-10412088Y-17773882D01*
X-10363705Y-17763599D01*
X-10320817Y-17763599D01*
X-10280000Y-17759000D01*
X-10239183Y-17763599D01*
G37*
G36*
X60498463Y-18154110D02*
G01*
X60562861Y-18197139D01*
X60605890Y-18261537D01*
X60621000Y-18337500D01*
X60621000Y-18632500D01*
X60605890Y-18708463D01*
X60562861Y-18772861D01*
X60498463Y-18815890D01*
X60422500Y-18831000D01*
X60077500Y-18831000D01*
X60001537Y-18815890D01*
X59937139Y-18772861D01*
X59894110Y-18708463D01*
X59879000Y-18632500D01*
X59879000Y-18337500D01*
X59894110Y-18261537D01*
X59937139Y-18197139D01*
X60001537Y-18154110D01*
X60077500Y-18139000D01*
X60422500Y-18139000D01*
X60498463Y-18154110D01*
G37*
G36*
X62520872Y-17960114D02*
G01*
X62568238Y-17991762D01*
X62599886Y-18039128D01*
X62611000Y-18095000D01*
X62611000Y-18285000D01*
X62599886Y-18340872D01*
X62568238Y-18388238D01*
X62520872Y-18419886D01*
X62465000Y-18431000D01*
X61315000Y-18431000D01*
X61259128Y-18419886D01*
X61211762Y-18388238D01*
X61180114Y-18340872D01*
X61169000Y-18285000D01*
X61169000Y-18095000D01*
X61180114Y-18039128D01*
X61211762Y-17991762D01*
X61259128Y-17960114D01*
X61315000Y-17949000D01*
X62465000Y-17949000D01*
X62520872Y-17960114D01*
G37*
G36*
X-8459183Y-16743599D02*
G01*
X-8416295Y-16743599D01*
X-8367914Y-16753882D01*
X-8321761Y-16759083D01*
X-8288201Y-16770826D01*
X-8252545Y-16778405D01*
X-8201162Y-16801282D01*
X-8152459Y-16818324D01*
X-8127109Y-16834252D01*
X-8099603Y-16846499D01*
X-8048317Y-16883761D01*
X-8000585Y-16913753D01*
X-7983443Y-16930895D01*
X-7964170Y-16944898D01*
X-7916523Y-16997815D01*
X-7873753Y-17040585D01*
X-7863916Y-17056240D01*
X-7852149Y-17069309D01*
X-7811894Y-17139032D01*
X-7778324Y-17192459D01*
X-7774133Y-17204437D01*
X-7768446Y-17214287D01*
X-7739317Y-17303935D01*
X-7719083Y-17361761D01*
X-7718316Y-17368568D01*
X-7716711Y-17373508D01*
X-7702156Y-17511996D01*
X-7699000Y-17540000D01*
X-7702156Y-17568006D01*
X-7716711Y-17706491D01*
X-7718316Y-17711429D01*
X-7719083Y-17718239D01*
X-7739322Y-17776077D01*
X-7768446Y-17865712D01*
X-7774132Y-17875559D01*
X-7778324Y-17887541D01*
X-7811902Y-17940978D01*
X-7852149Y-18010690D01*
X-7863914Y-18023756D01*
X-7873753Y-18039415D01*
X-7916532Y-18082193D01*
X-7964170Y-18135101D01*
X-7983439Y-18149100D01*
X-8000585Y-18166247D01*
X-8048327Y-18196245D01*
X-8099603Y-18233500D01*
X-8127104Y-18245743D01*
X-8152459Y-18261676D01*
X-8201172Y-18278721D01*
X-8252545Y-18301594D01*
X-8288196Y-18309171D01*
X-8321761Y-18320917D01*
X-8367917Y-18326117D01*
X-8416295Y-18336401D01*
X-8459183Y-18336401D01*
X-8500000Y-18341000D01*
X-8540817Y-18336401D01*
X-8583705Y-18336401D01*
X-8632085Y-18326117D01*
X-8678239Y-18320917D01*
X-8711804Y-18309172D01*
X-8747456Y-18301594D01*
X-8798833Y-18278719D01*
X-8847541Y-18261676D01*
X-8872895Y-18245745D01*
X-8900398Y-18233500D01*
X-8951681Y-18196240D01*
X-8999415Y-18166247D01*
X-9016559Y-18149103D01*
X-9035831Y-18135101D01*
X-9083479Y-18082183D01*
X-9126247Y-18039415D01*
X-9136084Y-18023759D01*
X-9147852Y-18010690D01*
X-9188112Y-17940958D01*
X-9221676Y-17887541D01*
X-9225867Y-17875564D01*
X-9231555Y-17865712D01*
X-9260693Y-17776037D01*
X-9280917Y-17718239D01*
X-9281684Y-17711434D01*
X-9283290Y-17706491D01*
X-9297860Y-17567874D01*
X-9301000Y-17540000D01*
X-9297860Y-17512128D01*
X-9283290Y-17373508D01*
X-9281684Y-17368563D01*
X-9280917Y-17361761D01*
X-9260698Y-17303975D01*
X-9231555Y-17214287D01*
X-9225866Y-17204433D01*
X-9221676Y-17192459D01*
X-9188119Y-17139052D01*
X-9147852Y-17069309D01*
X-9136082Y-17056236D01*
X-9126247Y-17040585D01*
X-9083488Y-16997825D01*
X-9035831Y-16944898D01*
X-9016556Y-16930893D01*
X-8999415Y-16913753D01*
X-8951686Y-16883762D01*
X-8900397Y-16846499D01*
X-8872891Y-16834252D01*
X-8847541Y-16818324D01*
X-8798842Y-16801283D01*
X-8747456Y-16778405D01*
X-8711798Y-16770825D01*
X-8678239Y-16759083D01*
X-8632088Y-16753882D01*
X-8583705Y-16743599D01*
X-8540817Y-16743599D01*
X-8500000Y-16739000D01*
X-8459183Y-16743599D01*
G37*
G36*
X59498463Y-17554110D02*
G01*
X59562861Y-17597139D01*
X59605890Y-17661537D01*
X59621000Y-17737500D01*
X59621000Y-18032500D01*
X59605890Y-18108463D01*
X59562861Y-18172861D01*
X59498463Y-18215890D01*
X59422500Y-18231000D01*
X59077500Y-18231000D01*
X59001537Y-18215890D01*
X58937139Y-18172861D01*
X58894110Y-18108463D01*
X58879000Y-18032500D01*
X58879000Y-17737500D01*
X58894110Y-17661537D01*
X58937139Y-17597139D01*
X59001537Y-17554110D01*
X59077500Y-17539000D01*
X59422500Y-17539000D01*
X59498463Y-17554110D01*
G37*
G36*
X60498463Y-17184110D02*
G01*
X60562861Y-17227139D01*
X60605890Y-17291537D01*
X60621000Y-17367500D01*
X60621000Y-17662500D01*
X60605890Y-17738463D01*
X60562861Y-17802861D01*
X60498463Y-17845890D01*
X60422500Y-17861000D01*
X60077500Y-17861000D01*
X60001537Y-17845890D01*
X59937139Y-17802861D01*
X59894110Y-17738463D01*
X59879000Y-17662500D01*
X59879000Y-17367500D01*
X59894110Y-17291537D01*
X59937139Y-17227139D01*
X60001537Y-17184110D01*
X60077500Y-17169000D01*
X60422500Y-17169000D01*
X60498463Y-17184110D01*
G37*
G36*
X62520872Y-17310114D02*
G01*
X62568238Y-17341762D01*
X62599886Y-17389128D01*
X62611000Y-17445000D01*
X62611000Y-17635000D01*
X62599886Y-17690872D01*
X62568238Y-17738238D01*
X62520872Y-17769886D01*
X62465000Y-17781000D01*
X61315000Y-17781000D01*
X61259128Y-17769886D01*
X61211762Y-17738238D01*
X61180114Y-17690872D01*
X61169000Y-17635000D01*
X61169000Y-17445000D01*
X61180114Y-17389128D01*
X61211762Y-17341762D01*
X61259128Y-17310114D01*
X61315000Y-17299000D01*
X62465000Y-17299000D01*
X62520872Y-17310114D01*
G37*
G36*
X-10239183Y-15723599D02*
G01*
X-10196295Y-15723599D01*
X-10147914Y-15733882D01*
X-10101761Y-15739083D01*
X-10068201Y-15750826D01*
X-10032545Y-15758405D01*
X-9981162Y-15781282D01*
X-9932459Y-15798324D01*
X-9907109Y-15814252D01*
X-9879603Y-15826499D01*
X-9828317Y-15863761D01*
X-9780585Y-15893753D01*
X-9763443Y-15910895D01*
X-9744170Y-15924898D01*
X-9696523Y-15977815D01*
X-9653753Y-16020585D01*
X-9643916Y-16036240D01*
X-9632149Y-16049309D01*
X-9591894Y-16119032D01*
X-9558324Y-16172459D01*
X-9554133Y-16184437D01*
X-9548446Y-16194287D01*
X-9519317Y-16283935D01*
X-9499083Y-16341761D01*
X-9498316Y-16348568D01*
X-9496711Y-16353508D01*
X-9482156Y-16491996D01*
X-9479000Y-16520000D01*
X-9482156Y-16548006D01*
X-9496711Y-16686491D01*
X-9498316Y-16691429D01*
X-9499083Y-16698239D01*
X-9519322Y-16756077D01*
X-9548446Y-16845712D01*
X-9554132Y-16855559D01*
X-9558324Y-16867541D01*
X-9591902Y-16920978D01*
X-9632149Y-16990690D01*
X-9643914Y-17003756D01*
X-9653753Y-17019415D01*
X-9696532Y-17062193D01*
X-9744170Y-17115101D01*
X-9763439Y-17129100D01*
X-9780585Y-17146247D01*
X-9828327Y-17176245D01*
X-9879603Y-17213500D01*
X-9907104Y-17225743D01*
X-9932459Y-17241676D01*
X-9981172Y-17258721D01*
X-10032545Y-17281594D01*
X-10068196Y-17289171D01*
X-10101761Y-17300917D01*
X-10147917Y-17306117D01*
X-10196295Y-17316401D01*
X-10239183Y-17316401D01*
X-10280000Y-17321000D01*
X-10320817Y-17316401D01*
X-10363705Y-17316401D01*
X-10412085Y-17306117D01*
X-10458239Y-17300917D01*
X-10491804Y-17289172D01*
X-10527456Y-17281594D01*
X-10578833Y-17258719D01*
X-10627541Y-17241676D01*
X-10652895Y-17225745D01*
X-10680398Y-17213500D01*
X-10731681Y-17176240D01*
X-10779415Y-17146247D01*
X-10796559Y-17129103D01*
X-10815831Y-17115101D01*
X-10863479Y-17062183D01*
X-10906247Y-17019415D01*
X-10916084Y-17003759D01*
X-10927852Y-16990690D01*
X-10968112Y-16920958D01*
X-11001676Y-16867541D01*
X-11005867Y-16855564D01*
X-11011555Y-16845712D01*
X-11040693Y-16756037D01*
X-11060917Y-16698239D01*
X-11061684Y-16691434D01*
X-11063290Y-16686491D01*
X-11077860Y-16547874D01*
X-11081000Y-16520000D01*
X-11077860Y-16492128D01*
X-11063290Y-16353508D01*
X-11061684Y-16348563D01*
X-11060917Y-16341761D01*
X-11040698Y-16283975D01*
X-11011555Y-16194287D01*
X-11005866Y-16184433D01*
X-11001676Y-16172459D01*
X-10968119Y-16119052D01*
X-10927852Y-16049309D01*
X-10916082Y-16036236D01*
X-10906247Y-16020585D01*
X-10863488Y-15977825D01*
X-10815831Y-15924898D01*
X-10796556Y-15910893D01*
X-10779415Y-15893753D01*
X-10731686Y-15863762D01*
X-10680397Y-15826499D01*
X-10652891Y-15814252D01*
X-10627541Y-15798324D01*
X-10578842Y-15781283D01*
X-10527456Y-15758405D01*
X-10491798Y-15750825D01*
X-10458239Y-15739083D01*
X-10412088Y-15733882D01*
X-10363705Y-15723599D01*
X-10320817Y-15723599D01*
X-10280000Y-15719000D01*
X-10239183Y-15723599D01*
G37*
G36*
X59498463Y-16584110D02*
G01*
X59562861Y-16627139D01*
X59605890Y-16691537D01*
X59621000Y-16767500D01*
X59621000Y-17062500D01*
X59605890Y-17138463D01*
X59562861Y-17202861D01*
X59498463Y-17245890D01*
X59422500Y-17261000D01*
X59077500Y-17261000D01*
X59001537Y-17245890D01*
X58937139Y-17202861D01*
X58894110Y-17138463D01*
X58879000Y-17062500D01*
X58879000Y-16767500D01*
X58894110Y-16691537D01*
X58937139Y-16627139D01*
X59001537Y-16584110D01*
X59077500Y-16569000D01*
X59422500Y-16569000D01*
X59498463Y-16584110D01*
G37*
G36*
X62520872Y-16660114D02*
G01*
X62568238Y-16691762D01*
X62599886Y-16739128D01*
X62611000Y-16795000D01*
X62611000Y-16985000D01*
X62599886Y-17040872D01*
X62568238Y-17088238D01*
X62520872Y-17119886D01*
X62465000Y-17131000D01*
X61315000Y-17131000D01*
X61259128Y-17119886D01*
X61211762Y-17088238D01*
X61180114Y-17040872D01*
X61169000Y-16985000D01*
X61169000Y-16795000D01*
X61180114Y-16739128D01*
X61211762Y-16691762D01*
X61259128Y-16660114D01*
X61315000Y-16649000D01*
X62465000Y-16649000D01*
X62520872Y-16660114D01*
G37*
G36*
X50628109Y-15324618D02*
G01*
X50681056Y-15330761D01*
X50699145Y-15338748D01*
X50721054Y-15343106D01*
X50744507Y-15358777D01*
X50766471Y-15368475D01*
X50781472Y-15383476D01*
X50802484Y-15397516D01*
X50816523Y-15418527D01*
X50831524Y-15433528D01*
X50841221Y-15455490D01*
X50856894Y-15478946D01*
X50861252Y-15500855D01*
X50869237Y-15518940D01*
X50875376Y-15571867D01*
X50876000Y-15575000D01*
X50876000Y-16125000D01*
X50875379Y-16128121D01*
X50869238Y-16181056D01*
X50861252Y-16199141D01*
X50856894Y-16221054D01*
X50841219Y-16244512D01*
X50831524Y-16266471D01*
X50816525Y-16281469D01*
X50802484Y-16302484D01*
X50781469Y-16316525D01*
X50766471Y-16331524D01*
X50744511Y-16341219D01*
X50721054Y-16356894D01*
X50699142Y-16361252D01*
X50681059Y-16369237D01*
X50628133Y-16375376D01*
X50625000Y-16376000D01*
X50225000Y-16376000D01*
X50221879Y-16375379D01*
X50168943Y-16369238D01*
X50150856Y-16361252D01*
X50128946Y-16356894D01*
X50105489Y-16341220D01*
X50083528Y-16331524D01*
X50068527Y-16316523D01*
X50047516Y-16302484D01*
X50033476Y-16281472D01*
X50018475Y-16266471D01*
X50008777Y-16244507D01*
X49993106Y-16221054D01*
X49988748Y-16199146D01*
X49980762Y-16181059D01*
X49974620Y-16128121D01*
X49974000Y-16125000D01*
X49974000Y-15575000D01*
X49974618Y-15571891D01*
X49980761Y-15518943D01*
X49988748Y-15500852D01*
X49993106Y-15478946D01*
X50008776Y-15455494D01*
X50018475Y-15433528D01*
X50033478Y-15418524D01*
X50047516Y-15397516D01*
X50068524Y-15383478D01*
X50083528Y-15368475D01*
X50105494Y-15358775D01*
X50128946Y-15343106D01*
X50150851Y-15338748D01*
X50168940Y-15330762D01*
X50221879Y-15324620D01*
X50225000Y-15324000D01*
X50625000Y-15324000D01*
X50628109Y-15324618D01*
G37*
G36*
X52278109Y-15324618D02*
G01*
X52331056Y-15330761D01*
X52349145Y-15338748D01*
X52371054Y-15343106D01*
X52394507Y-15358777D01*
X52416471Y-15368475D01*
X52431472Y-15383476D01*
X52452484Y-15397516D01*
X52466523Y-15418527D01*
X52481524Y-15433528D01*
X52491221Y-15455490D01*
X52506894Y-15478946D01*
X52511252Y-15500855D01*
X52519237Y-15518940D01*
X52525376Y-15571867D01*
X52526000Y-15575000D01*
X52526000Y-16125000D01*
X52525379Y-16128121D01*
X52519238Y-16181056D01*
X52511252Y-16199141D01*
X52506894Y-16221054D01*
X52491219Y-16244512D01*
X52481524Y-16266471D01*
X52466525Y-16281469D01*
X52452484Y-16302484D01*
X52431469Y-16316525D01*
X52416471Y-16331524D01*
X52394511Y-16341219D01*
X52371054Y-16356894D01*
X52349142Y-16361252D01*
X52331059Y-16369237D01*
X52278133Y-16375376D01*
X52275000Y-16376000D01*
X51875000Y-16376000D01*
X51871879Y-16375379D01*
X51818943Y-16369238D01*
X51800856Y-16361252D01*
X51778946Y-16356894D01*
X51755489Y-16341220D01*
X51733528Y-16331524D01*
X51718527Y-16316523D01*
X51697516Y-16302484D01*
X51683476Y-16281472D01*
X51668475Y-16266471D01*
X51658777Y-16244507D01*
X51643106Y-16221054D01*
X51638748Y-16199146D01*
X51630762Y-16181059D01*
X51624620Y-16128121D01*
X51624000Y-16125000D01*
X51624000Y-15575000D01*
X51624618Y-15571891D01*
X51630761Y-15518943D01*
X51638748Y-15500852D01*
X51643106Y-15478946D01*
X51658776Y-15455494D01*
X51668475Y-15433528D01*
X51683478Y-15418524D01*
X51697516Y-15397516D01*
X51718524Y-15383478D01*
X51733528Y-15368475D01*
X51755494Y-15358775D01*
X51778946Y-15343106D01*
X51800851Y-15338748D01*
X51818940Y-15330762D01*
X51871879Y-15324620D01*
X51875000Y-15324000D01*
X52275000Y-15324000D01*
X52278109Y-15324618D01*
G37*
G36*
X-8459183Y-14703599D02*
G01*
X-8416295Y-14703599D01*
X-8367914Y-14713882D01*
X-8321761Y-14719083D01*
X-8288201Y-14730826D01*
X-8252545Y-14738405D01*
X-8201162Y-14761282D01*
X-8152459Y-14778324D01*
X-8127109Y-14794252D01*
X-8099603Y-14806499D01*
X-8048317Y-14843761D01*
X-8000585Y-14873753D01*
X-7983443Y-14890895D01*
X-7964170Y-14904898D01*
X-7916523Y-14957815D01*
X-7873753Y-15000585D01*
X-7863916Y-15016240D01*
X-7852149Y-15029309D01*
X-7811894Y-15099032D01*
X-7778324Y-15152459D01*
X-7774133Y-15164437D01*
X-7768446Y-15174287D01*
X-7739317Y-15263935D01*
X-7719083Y-15321761D01*
X-7718316Y-15328568D01*
X-7716711Y-15333508D01*
X-7702156Y-15471996D01*
X-7699000Y-15500000D01*
X-7702156Y-15528006D01*
X-7716711Y-15666491D01*
X-7718316Y-15671429D01*
X-7719083Y-15678239D01*
X-7739322Y-15736077D01*
X-7768446Y-15825712D01*
X-7774132Y-15835559D01*
X-7778324Y-15847541D01*
X-7811902Y-15900978D01*
X-7852149Y-15970690D01*
X-7863914Y-15983756D01*
X-7873753Y-15999415D01*
X-7916532Y-16042193D01*
X-7964170Y-16095101D01*
X-7983439Y-16109100D01*
X-8000585Y-16126247D01*
X-8048327Y-16156245D01*
X-8099603Y-16193500D01*
X-8127104Y-16205743D01*
X-8152459Y-16221676D01*
X-8201172Y-16238721D01*
X-8252545Y-16261594D01*
X-8288196Y-16269171D01*
X-8321761Y-16280917D01*
X-8367917Y-16286117D01*
X-8416295Y-16296401D01*
X-8459183Y-16296401D01*
X-8500000Y-16301000D01*
X-8540817Y-16296401D01*
X-8583705Y-16296401D01*
X-8632085Y-16286117D01*
X-8678239Y-16280917D01*
X-8711804Y-16269172D01*
X-8747456Y-16261594D01*
X-8798833Y-16238719D01*
X-8847541Y-16221676D01*
X-8872895Y-16205745D01*
X-8900398Y-16193500D01*
X-8951681Y-16156240D01*
X-8999415Y-16126247D01*
X-9016559Y-16109103D01*
X-9035831Y-16095101D01*
X-9083479Y-16042183D01*
X-9126247Y-15999415D01*
X-9136084Y-15983759D01*
X-9147852Y-15970690D01*
X-9188112Y-15900958D01*
X-9221676Y-15847541D01*
X-9225867Y-15835564D01*
X-9231555Y-15825712D01*
X-9260693Y-15736037D01*
X-9280917Y-15678239D01*
X-9281684Y-15671434D01*
X-9283290Y-15666491D01*
X-9297860Y-15527874D01*
X-9301000Y-15500000D01*
X-9297860Y-15472128D01*
X-9283290Y-15333508D01*
X-9281684Y-15328563D01*
X-9280917Y-15321761D01*
X-9260698Y-15263975D01*
X-9231555Y-15174287D01*
X-9225866Y-15164433D01*
X-9221676Y-15152459D01*
X-9188119Y-15099052D01*
X-9147852Y-15029309D01*
X-9136082Y-15016236D01*
X-9126247Y-15000585D01*
X-9083488Y-14957825D01*
X-9035831Y-14904898D01*
X-9016556Y-14890893D01*
X-8999415Y-14873753D01*
X-8951686Y-14843762D01*
X-8900397Y-14806499D01*
X-8872891Y-14794252D01*
X-8847541Y-14778324D01*
X-8798842Y-14761283D01*
X-8747456Y-14738405D01*
X-8711798Y-14730825D01*
X-8678239Y-14719083D01*
X-8632088Y-14713882D01*
X-8583705Y-14703599D01*
X-8540817Y-14703599D01*
X-8500000Y-14699000D01*
X-8459183Y-14703599D01*
G37*
G36*
X35769517Y-14202882D02*
G01*
X35786062Y-14213938D01*
X35797118Y-14230483D01*
X35801000Y-14250000D01*
X35801000Y-16250000D01*
X35797118Y-16269517D01*
X35786062Y-16286062D01*
X35769517Y-16297118D01*
X35750000Y-16301000D01*
X33750000Y-16301000D01*
X33730483Y-16297118D01*
X33713938Y-16286062D01*
X33702882Y-16269517D01*
X33699000Y-16250000D01*
X33699000Y-14250000D01*
X33702882Y-14230483D01*
X33713938Y-14213938D01*
X33730483Y-14202882D01*
X33750000Y-14199000D01*
X35750000Y-14199000D01*
X35769517Y-14202882D01*
G37*
G36*
X38269517Y-14202882D02*
G01*
X38286062Y-14213938D01*
X38297118Y-14230483D01*
X38301000Y-14250000D01*
X38301000Y-16250000D01*
X38297118Y-16269517D01*
X38286062Y-16286062D01*
X38269517Y-16297118D01*
X38250000Y-16301000D01*
X36250000Y-16301000D01*
X36230483Y-16297118D01*
X36213938Y-16286062D01*
X36202882Y-16269517D01*
X36199000Y-16250000D01*
X36199000Y-14250000D01*
X36202882Y-14230483D01*
X36213938Y-14213938D01*
X36230483Y-14202882D01*
X36250000Y-14199000D01*
X38250000Y-14199000D01*
X38269517Y-14202882D01*
G37*
G36*
X55901919Y-15214300D02*
G01*
X55967128Y-15257872D01*
X56010700Y-15323081D01*
X56026000Y-15400000D01*
X56026000Y-15700000D01*
X56010700Y-15776919D01*
X55967128Y-15842128D01*
X55901919Y-15885700D01*
X55825000Y-15901000D01*
X54800000Y-15901000D01*
X54723081Y-15885700D01*
X54657872Y-15842128D01*
X54614300Y-15776919D01*
X54599000Y-15700000D01*
X54599000Y-15400000D01*
X54614300Y-15323081D01*
X54657872Y-15257872D01*
X54723081Y-15214300D01*
X54800000Y-15199000D01*
X55825000Y-15199000D01*
X55901919Y-15214300D01*
G37*
G36*
X58176919Y-15214300D02*
G01*
X58242128Y-15257872D01*
X58285700Y-15323081D01*
X58301000Y-15400000D01*
X58301000Y-15700000D01*
X58285700Y-15776919D01*
X58242128Y-15842128D01*
X58176919Y-15885700D01*
X58100000Y-15901000D01*
X57075000Y-15901000D01*
X56998081Y-15885700D01*
X56932872Y-15842128D01*
X56889300Y-15776919D01*
X56874000Y-15700000D01*
X56874000Y-15400000D01*
X56889300Y-15323081D01*
X56932872Y-15257872D01*
X56998081Y-15214300D01*
X57075000Y-15199000D01*
X58100000Y-15199000D01*
X58176919Y-15214300D01*
G37*
G36*
X62520872Y-15360114D02*
G01*
X62568238Y-15391762D01*
X62599886Y-15439128D01*
X62611000Y-15495000D01*
X62611000Y-15685000D01*
X62599886Y-15740872D01*
X62568238Y-15788238D01*
X62520872Y-15819886D01*
X62465000Y-15831000D01*
X61315000Y-15831000D01*
X61259128Y-15819886D01*
X61211762Y-15788238D01*
X61180114Y-15740872D01*
X61169000Y-15685000D01*
X61169000Y-15495000D01*
X61180114Y-15439128D01*
X61211762Y-15391762D01*
X61259128Y-15360114D01*
X61315000Y-15349000D01*
X62465000Y-15349000D01*
X62520872Y-15360114D01*
G37*
G36*
X-10239183Y-13683599D02*
G01*
X-10196295Y-13683599D01*
X-10147914Y-13693882D01*
X-10101761Y-13699083D01*
X-10068201Y-13710826D01*
X-10032545Y-13718405D01*
X-9981162Y-13741282D01*
X-9932459Y-13758324D01*
X-9907109Y-13774252D01*
X-9879603Y-13786499D01*
X-9828317Y-13823761D01*
X-9780585Y-13853753D01*
X-9763443Y-13870895D01*
X-9744170Y-13884898D01*
X-9696523Y-13937815D01*
X-9653753Y-13980585D01*
X-9643916Y-13996240D01*
X-9632149Y-14009309D01*
X-9591894Y-14079032D01*
X-9558324Y-14132459D01*
X-9554133Y-14144437D01*
X-9548446Y-14154287D01*
X-9519317Y-14243935D01*
X-9499083Y-14301761D01*
X-9498316Y-14308568D01*
X-9496711Y-14313508D01*
X-9482156Y-14451996D01*
X-9479000Y-14480000D01*
X-9482156Y-14508006D01*
X-9496711Y-14646491D01*
X-9498316Y-14651429D01*
X-9499083Y-14658239D01*
X-9519322Y-14716077D01*
X-9548446Y-14805712D01*
X-9554132Y-14815559D01*
X-9558324Y-14827541D01*
X-9591902Y-14880978D01*
X-9632149Y-14950690D01*
X-9643914Y-14963756D01*
X-9653753Y-14979415D01*
X-9696532Y-15022193D01*
X-9744170Y-15075101D01*
X-9763439Y-15089100D01*
X-9780585Y-15106247D01*
X-9828327Y-15136245D01*
X-9879603Y-15173500D01*
X-9907104Y-15185743D01*
X-9932459Y-15201676D01*
X-9981172Y-15218721D01*
X-10032545Y-15241594D01*
X-10068196Y-15249171D01*
X-10101761Y-15260917D01*
X-10147917Y-15266117D01*
X-10196295Y-15276401D01*
X-10239183Y-15276401D01*
X-10280000Y-15281000D01*
X-10320817Y-15276401D01*
X-10363705Y-15276401D01*
X-10412085Y-15266117D01*
X-10458239Y-15260917D01*
X-10491804Y-15249172D01*
X-10527456Y-15241594D01*
X-10578833Y-15218719D01*
X-10627541Y-15201676D01*
X-10652895Y-15185745D01*
X-10680398Y-15173500D01*
X-10731681Y-15136240D01*
X-10779415Y-15106247D01*
X-10796559Y-15089103D01*
X-10815831Y-15075101D01*
X-10863479Y-15022183D01*
X-10906247Y-14979415D01*
X-10916084Y-14963759D01*
X-10927852Y-14950690D01*
X-10968112Y-14880958D01*
X-11001676Y-14827541D01*
X-11005867Y-14815564D01*
X-11011555Y-14805712D01*
X-11040693Y-14716037D01*
X-11060917Y-14658239D01*
X-11061684Y-14651434D01*
X-11063290Y-14646491D01*
X-11077860Y-14507874D01*
X-11081000Y-14480000D01*
X-11077860Y-14452128D01*
X-11063290Y-14313508D01*
X-11061684Y-14308563D01*
X-11060917Y-14301761D01*
X-11040698Y-14243975D01*
X-11011555Y-14154287D01*
X-11005866Y-14144433D01*
X-11001676Y-14132459D01*
X-10968119Y-14079052D01*
X-10927852Y-14009309D01*
X-10916082Y-13996236D01*
X-10906247Y-13980585D01*
X-10863488Y-13937825D01*
X-10815831Y-13884898D01*
X-10796556Y-13870893D01*
X-10779415Y-13853753D01*
X-10731686Y-13823762D01*
X-10680397Y-13786499D01*
X-10652891Y-13774252D01*
X-10627541Y-13758324D01*
X-10578842Y-13741283D01*
X-10527456Y-13718405D01*
X-10491798Y-13710825D01*
X-10458239Y-13699083D01*
X-10412088Y-13693882D01*
X-10363705Y-13683599D01*
X-10320817Y-13683599D01*
X-10280000Y-13679000D01*
X-10239183Y-13683599D01*
G37*
G36*
X62520872Y-14710114D02*
G01*
X62568238Y-14741762D01*
X62599886Y-14789128D01*
X62611000Y-14845000D01*
X62611000Y-15035000D01*
X62599886Y-15090872D01*
X62568238Y-15138238D01*
X62520872Y-15169886D01*
X62465000Y-15181000D01*
X61315000Y-15181000D01*
X61259128Y-15169886D01*
X61211762Y-15138238D01*
X61180114Y-15090872D01*
X61169000Y-15035000D01*
X61169000Y-14845000D01*
X61180114Y-14789128D01*
X61211762Y-14741762D01*
X61259128Y-14710114D01*
X61315000Y-14699000D01*
X62465000Y-14699000D01*
X62520872Y-14710114D01*
G37*
G36*
X55901919Y-14264300D02*
G01*
X55967128Y-14307872D01*
X56010700Y-14373081D01*
X56026000Y-14450000D01*
X56026000Y-14750000D01*
X56010700Y-14826919D01*
X55967128Y-14892128D01*
X55901919Y-14935700D01*
X55825000Y-14951000D01*
X54800000Y-14951000D01*
X54723081Y-14935700D01*
X54657872Y-14892128D01*
X54614300Y-14826919D01*
X54599000Y-14750000D01*
X54599000Y-14450000D01*
X54614300Y-14373081D01*
X54657872Y-14307872D01*
X54723081Y-14264300D01*
X54800000Y-14249000D01*
X55825000Y-14249000D01*
X55901919Y-14264300D01*
G37*
G36*
X58176919Y-14264300D02*
G01*
X58242128Y-14307872D01*
X58285700Y-14373081D01*
X58301000Y-14450000D01*
X58301000Y-14750000D01*
X58285700Y-14826919D01*
X58242128Y-14892128D01*
X58176919Y-14935700D01*
X58100000Y-14951000D01*
X57075000Y-14951000D01*
X56998081Y-14935700D01*
X56932872Y-14892128D01*
X56889300Y-14826919D01*
X56874000Y-14750000D01*
X56874000Y-14450000D01*
X56889300Y-14373081D01*
X56932872Y-14307872D01*
X56998081Y-14264300D01*
X57075000Y-14249000D01*
X58100000Y-14249000D01*
X58176919Y-14264300D01*
G37*
G36*
X62520872Y-14060114D02*
G01*
X62568238Y-14091762D01*
X62599886Y-14139128D01*
X62611000Y-14195000D01*
X62611000Y-14385000D01*
X62599886Y-14440872D01*
X62568238Y-14488238D01*
X62520872Y-14519886D01*
X62465000Y-14531000D01*
X61315000Y-14531000D01*
X61259128Y-14519886D01*
X61211762Y-14488238D01*
X61180114Y-14440872D01*
X61169000Y-14385000D01*
X61169000Y-14195000D01*
X61180114Y-14139128D01*
X61211762Y-14091762D01*
X61259128Y-14060114D01*
X61315000Y-14049000D01*
X62465000Y-14049000D01*
X62520872Y-14060114D01*
G37*
G36*
X-8459183Y-12663599D02*
G01*
X-8416295Y-12663599D01*
X-8367914Y-12673882D01*
X-8321761Y-12679083D01*
X-8288201Y-12690826D01*
X-8252545Y-12698405D01*
X-8201162Y-12721282D01*
X-8152459Y-12738324D01*
X-8127109Y-12754252D01*
X-8099603Y-12766499D01*
X-8048317Y-12803761D01*
X-8000585Y-12833753D01*
X-7983443Y-12850895D01*
X-7964170Y-12864898D01*
X-7916523Y-12917815D01*
X-7873753Y-12960585D01*
X-7863916Y-12976240D01*
X-7852149Y-12989309D01*
X-7811894Y-13059032D01*
X-7778324Y-13112459D01*
X-7774133Y-13124437D01*
X-7768446Y-13134287D01*
X-7739317Y-13223935D01*
X-7719083Y-13281761D01*
X-7718316Y-13288568D01*
X-7716711Y-13293508D01*
X-7702156Y-13431996D01*
X-7699000Y-13460000D01*
X-7702156Y-13488006D01*
X-7716711Y-13626491D01*
X-7718316Y-13631429D01*
X-7719083Y-13638239D01*
X-7739322Y-13696077D01*
X-7768446Y-13785712D01*
X-7774132Y-13795559D01*
X-7778324Y-13807541D01*
X-7811902Y-13860978D01*
X-7852149Y-13930690D01*
X-7863914Y-13943756D01*
X-7873753Y-13959415D01*
X-7916532Y-14002193D01*
X-7964170Y-14055101D01*
X-7983439Y-14069100D01*
X-8000585Y-14086247D01*
X-8048327Y-14116245D01*
X-8099603Y-14153500D01*
X-8127104Y-14165743D01*
X-8152459Y-14181676D01*
X-8201172Y-14198721D01*
X-8252545Y-14221594D01*
X-8288196Y-14229171D01*
X-8321761Y-14240917D01*
X-8367917Y-14246117D01*
X-8416295Y-14256401D01*
X-8459183Y-14256401D01*
X-8500000Y-14261000D01*
X-8540817Y-14256401D01*
X-8583705Y-14256401D01*
X-8632085Y-14246117D01*
X-8678239Y-14240917D01*
X-8711804Y-14229172D01*
X-8747456Y-14221594D01*
X-8798833Y-14198719D01*
X-8847541Y-14181676D01*
X-8872895Y-14165745D01*
X-8900398Y-14153500D01*
X-8951681Y-14116240D01*
X-8999415Y-14086247D01*
X-9016559Y-14069103D01*
X-9035831Y-14055101D01*
X-9083479Y-14002183D01*
X-9126247Y-13959415D01*
X-9136084Y-13943759D01*
X-9147852Y-13930690D01*
X-9188112Y-13860958D01*
X-9221676Y-13807541D01*
X-9225867Y-13795564D01*
X-9231555Y-13785712D01*
X-9260693Y-13696037D01*
X-9280917Y-13638239D01*
X-9281684Y-13631434D01*
X-9283290Y-13626491D01*
X-9297860Y-13487874D01*
X-9301000Y-13460000D01*
X-9297860Y-13432128D01*
X-9283290Y-13293508D01*
X-9281684Y-13288563D01*
X-9280917Y-13281761D01*
X-9260698Y-13223975D01*
X-9231555Y-13134287D01*
X-9225866Y-13124433D01*
X-9221676Y-13112459D01*
X-9188119Y-13059052D01*
X-9147852Y-12989309D01*
X-9136082Y-12976236D01*
X-9126247Y-12960585D01*
X-9083488Y-12917825D01*
X-9035831Y-12864898D01*
X-9016556Y-12850893D01*
X-8999415Y-12833753D01*
X-8951686Y-12803762D01*
X-8900397Y-12766499D01*
X-8872891Y-12754252D01*
X-8847541Y-12738324D01*
X-8798842Y-12721283D01*
X-8747456Y-12698405D01*
X-8711798Y-12690825D01*
X-8678239Y-12679083D01*
X-8632088Y-12673882D01*
X-8583705Y-12663599D01*
X-8540817Y-12663599D01*
X-8500000Y-12659000D01*
X-8459183Y-12663599D01*
G37*
G36*
X55901919Y-13314300D02*
G01*
X55967128Y-13357872D01*
X56010700Y-13423081D01*
X56026000Y-13500000D01*
X56026000Y-13800000D01*
X56010700Y-13876919D01*
X55967128Y-13942128D01*
X55901919Y-13985700D01*
X55825000Y-14001000D01*
X54800000Y-14001000D01*
X54723081Y-13985700D01*
X54657872Y-13942128D01*
X54614300Y-13876919D01*
X54599000Y-13800000D01*
X54599000Y-13500000D01*
X54614300Y-13423081D01*
X54657872Y-13357872D01*
X54723081Y-13314300D01*
X54800000Y-13299000D01*
X55825000Y-13299000D01*
X55901919Y-13314300D01*
G37*
G36*
X58176919Y-13314300D02*
G01*
X58242128Y-13357872D01*
X58285700Y-13423081D01*
X58301000Y-13500000D01*
X58301000Y-13800000D01*
X58285700Y-13876919D01*
X58242128Y-13942128D01*
X58176919Y-13985700D01*
X58100000Y-14001000D01*
X57075000Y-14001000D01*
X56998081Y-13985700D01*
X56932872Y-13942128D01*
X56889300Y-13876919D01*
X56874000Y-13800000D01*
X56874000Y-13500000D01*
X56889300Y-13423081D01*
X56932872Y-13357872D01*
X56998081Y-13314300D01*
X57075000Y-13299000D01*
X58100000Y-13299000D01*
X58176919Y-13314300D01*
G37*
G36*
X62520872Y-13410114D02*
G01*
X62568238Y-13441762D01*
X62599886Y-13489128D01*
X62611000Y-13545000D01*
X62611000Y-13735000D01*
X62599886Y-13790872D01*
X62568238Y-13838238D01*
X62520872Y-13869886D01*
X62465000Y-13881000D01*
X61315000Y-13881000D01*
X61259128Y-13869886D01*
X61211762Y-13838238D01*
X61180114Y-13790872D01*
X61169000Y-13735000D01*
X61169000Y-13545000D01*
X61180114Y-13489128D01*
X61211762Y-13441762D01*
X61259128Y-13410114D01*
X61315000Y-13399000D01*
X62465000Y-13399000D01*
X62520872Y-13410114D01*
G37*
G36*
X59498463Y-12654110D02*
G01*
X59562861Y-12697139D01*
X59605890Y-12761537D01*
X59621000Y-12837500D01*
X59621000Y-13132500D01*
X59605890Y-13208463D01*
X59562861Y-13272861D01*
X59498463Y-13315890D01*
X59422500Y-13331000D01*
X59077500Y-13331000D01*
X59001537Y-13315890D01*
X58937139Y-13272861D01*
X58894110Y-13208463D01*
X58879000Y-13132500D01*
X58879000Y-12837500D01*
X58894110Y-12761537D01*
X58937139Y-12697139D01*
X59001537Y-12654110D01*
X59077500Y-12639000D01*
X59422500Y-12639000D01*
X59498463Y-12654110D01*
G37*
G36*
X-10239183Y-11643599D02*
G01*
X-10196295Y-11643599D01*
X-10147914Y-11653882D01*
X-10101761Y-11659083D01*
X-10068201Y-11670826D01*
X-10032545Y-11678405D01*
X-9981162Y-11701282D01*
X-9932459Y-11718324D01*
X-9907109Y-11734252D01*
X-9879603Y-11746499D01*
X-9828317Y-11783761D01*
X-9780585Y-11813753D01*
X-9763443Y-11830895D01*
X-9744170Y-11844898D01*
X-9696523Y-11897815D01*
X-9653753Y-11940585D01*
X-9643916Y-11956240D01*
X-9632149Y-11969309D01*
X-9591894Y-12039032D01*
X-9558324Y-12092459D01*
X-9554133Y-12104437D01*
X-9548446Y-12114287D01*
X-9519317Y-12203935D01*
X-9499083Y-12261761D01*
X-9498316Y-12268568D01*
X-9496711Y-12273508D01*
X-9482156Y-12411996D01*
X-9479000Y-12440000D01*
X-9482156Y-12468006D01*
X-9496711Y-12606491D01*
X-9498316Y-12611429D01*
X-9499083Y-12618239D01*
X-9519322Y-12676077D01*
X-9548446Y-12765712D01*
X-9554132Y-12775559D01*
X-9558324Y-12787541D01*
X-9591902Y-12840978D01*
X-9632149Y-12910690D01*
X-9643914Y-12923756D01*
X-9653753Y-12939415D01*
X-9696532Y-12982193D01*
X-9744170Y-13035101D01*
X-9763439Y-13049100D01*
X-9780585Y-13066247D01*
X-9828327Y-13096245D01*
X-9879603Y-13133500D01*
X-9907104Y-13145743D01*
X-9932459Y-13161676D01*
X-9981172Y-13178721D01*
X-10032545Y-13201594D01*
X-10068196Y-13209171D01*
X-10101761Y-13220917D01*
X-10147917Y-13226117D01*
X-10196295Y-13236401D01*
X-10239183Y-13236401D01*
X-10280000Y-13241000D01*
X-10320817Y-13236401D01*
X-10363705Y-13236401D01*
X-10412085Y-13226117D01*
X-10458239Y-13220917D01*
X-10491804Y-13209172D01*
X-10527456Y-13201594D01*
X-10578833Y-13178719D01*
X-10627541Y-13161676D01*
X-10652895Y-13145745D01*
X-10680398Y-13133500D01*
X-10731681Y-13096240D01*
X-10779415Y-13066247D01*
X-10796559Y-13049103D01*
X-10815831Y-13035101D01*
X-10863479Y-12982183D01*
X-10906247Y-12939415D01*
X-10916084Y-12923759D01*
X-10927852Y-12910690D01*
X-10968112Y-12840958D01*
X-11001676Y-12787541D01*
X-11005867Y-12775564D01*
X-11011555Y-12765712D01*
X-11040693Y-12676037D01*
X-11060917Y-12618239D01*
X-11061684Y-12611434D01*
X-11063290Y-12606491D01*
X-11077860Y-12467874D01*
X-11081000Y-12440000D01*
X-11077860Y-12412128D01*
X-11063290Y-12273508D01*
X-11061684Y-12268563D01*
X-11060917Y-12261761D01*
X-11040698Y-12203975D01*
X-11011555Y-12114287D01*
X-11005866Y-12104433D01*
X-11001676Y-12092459D01*
X-10968119Y-12039052D01*
X-10927852Y-11969309D01*
X-10916082Y-11956236D01*
X-10906247Y-11940585D01*
X-10863488Y-11897825D01*
X-10815831Y-11844898D01*
X-10796556Y-11830893D01*
X-10779415Y-11813753D01*
X-10731686Y-11783762D01*
X-10680397Y-11746499D01*
X-10652891Y-11734252D01*
X-10627541Y-11718324D01*
X-10578842Y-11701283D01*
X-10527456Y-11678405D01*
X-10491798Y-11670825D01*
X-10458239Y-11659083D01*
X-10412088Y-11653882D01*
X-10363705Y-11643599D01*
X-10320817Y-11643599D01*
X-10280000Y-11639000D01*
X-10239183Y-11643599D01*
G37*
G36*
X62520872Y-12760114D02*
G01*
X62568238Y-12791762D01*
X62599886Y-12839128D01*
X62611000Y-12895000D01*
X62611000Y-13085000D01*
X62599886Y-13140872D01*
X62568238Y-13188238D01*
X62520872Y-13219886D01*
X62465000Y-13231000D01*
X61315000Y-13231000D01*
X61259128Y-13219886D01*
X61211762Y-13188238D01*
X61180114Y-13140872D01*
X61169000Y-13085000D01*
X61169000Y-12895000D01*
X61180114Y-12839128D01*
X61211762Y-12791762D01*
X61259128Y-12760114D01*
X61315000Y-12749000D01*
X62465000Y-12749000D01*
X62520872Y-12760114D01*
G37*
G36*
X60498463Y-12004110D02*
G01*
X60562861Y-12047139D01*
X60605890Y-12111537D01*
X60621000Y-12187500D01*
X60621000Y-12482500D01*
X60605890Y-12558463D01*
X60562861Y-12622861D01*
X60498463Y-12665890D01*
X60422500Y-12681000D01*
X60077500Y-12681000D01*
X60001537Y-12665890D01*
X59937139Y-12622861D01*
X59894110Y-12558463D01*
X59879000Y-12482500D01*
X59879000Y-12187500D01*
X59894110Y-12111537D01*
X59937139Y-12047139D01*
X60001537Y-12004110D01*
X60077500Y-11989000D01*
X60422500Y-11989000D01*
X60498463Y-12004110D01*
G37*
G36*
X62520872Y-12110114D02*
G01*
X62568238Y-12141762D01*
X62599886Y-12189128D01*
X62611000Y-12245000D01*
X62611000Y-12435000D01*
X62599886Y-12490872D01*
X62568238Y-12538238D01*
X62520872Y-12569886D01*
X62465000Y-12581000D01*
X61315000Y-12581000D01*
X61259128Y-12569886D01*
X61211762Y-12538238D01*
X61180114Y-12490872D01*
X61169000Y-12435000D01*
X61169000Y-12245000D01*
X61180114Y-12189128D01*
X61211762Y-12141762D01*
X61259128Y-12110114D01*
X61315000Y-12099000D01*
X62465000Y-12099000D01*
X62520872Y-12110114D01*
G37*
G36*
X59498463Y-11684110D02*
G01*
X59562861Y-11727139D01*
X59605890Y-11791537D01*
X59621000Y-11867500D01*
X59621000Y-12162500D01*
X59605890Y-12238463D01*
X59562861Y-12302861D01*
X59498463Y-12345890D01*
X59422500Y-12361000D01*
X59077500Y-12361000D01*
X59001537Y-12345890D01*
X58937139Y-12302861D01*
X58894110Y-12238463D01*
X58879000Y-12162500D01*
X58879000Y-11867500D01*
X58894110Y-11791537D01*
X58937139Y-11727139D01*
X59001537Y-11684110D01*
X59077500Y-11669000D01*
X59422500Y-11669000D01*
X59498463Y-11684110D01*
G37*
G36*
X-7931086Y-10626995D02*
G01*
X-7926538Y-10629003D01*
X-7923030Y-10629465D01*
X-7879137Y-10649933D01*
X-7829894Y-10671676D01*
X-7751676Y-10749894D01*
X-7729924Y-10799158D01*
X-7709466Y-10843029D01*
X-7709005Y-10846535D01*
X-7706995Y-10851086D01*
X-7699000Y-10920000D01*
X-7699000Y-11920000D01*
X-7706995Y-11988914D01*
X-7709005Y-11993465D01*
X-7709466Y-11996970D01*
X-7729916Y-12040823D01*
X-7751676Y-12090106D01*
X-7829894Y-12168324D01*
X-7879177Y-12190084D01*
X-7923030Y-12210534D01*
X-7926535Y-12210995D01*
X-7931086Y-12213005D01*
X-8000000Y-12221000D01*
X-9000000Y-12221000D01*
X-9068914Y-12213005D01*
X-9073465Y-12210995D01*
X-9076971Y-12210534D01*
X-9120842Y-12190076D01*
X-9170106Y-12168324D01*
X-9248324Y-12090106D01*
X-9270067Y-12040863D01*
X-9290535Y-11996970D01*
X-9290997Y-11993462D01*
X-9293005Y-11988914D01*
X-9301000Y-11920000D01*
X-9301000Y-10920000D01*
X-9293005Y-10851086D01*
X-9290997Y-10846538D01*
X-9290535Y-10843029D01*
X-9270059Y-10799117D01*
X-9248324Y-10749894D01*
X-9170106Y-10671676D01*
X-9120883Y-10649941D01*
X-9076971Y-10629465D01*
X-9073462Y-10629003D01*
X-9068914Y-10626995D01*
X-9000000Y-10619000D01*
X-8000000Y-10619000D01*
X-7931086Y-10626995D01*
G37*
G36*
X60498463Y-11034110D02*
G01*
X60562861Y-11077139D01*
X60605890Y-11141537D01*
X60621000Y-11217500D01*
X60621000Y-11512500D01*
X60605890Y-11588463D01*
X60562861Y-11652861D01*
X60498463Y-11695890D01*
X60422500Y-11711000D01*
X60077500Y-11711000D01*
X60001537Y-11695890D01*
X59937139Y-11652861D01*
X59894110Y-11588463D01*
X59879000Y-11512500D01*
X59879000Y-11217500D01*
X59894110Y-11141537D01*
X59937139Y-11077139D01*
X60001537Y-11034110D01*
X60077500Y-11019000D01*
X60422500Y-11019000D01*
X60498463Y-11034110D01*
G37*
G36*
X-4951576Y-9663098D02*
G01*
X-4779500Y-9739711D01*
X-4627113Y-9850427D01*
X-4501076Y-9990405D01*
X-4406896Y-10153530D01*
X-4348689Y-10332672D01*
X-4329000Y-10520000D01*
X-4348689Y-10707328D01*
X-4406896Y-10886470D01*
X-4501076Y-11049595D01*
X-4627113Y-11189573D01*
X-4779500Y-11300289D01*
X-4951576Y-11376902D01*
X-5135820Y-11416064D01*
X-5324180Y-11416064D01*
X-5508424Y-11376902D01*
X-5680500Y-11300289D01*
X-5832887Y-11189573D01*
X-5958924Y-11049595D01*
X-6053104Y-10886470D01*
X-6111311Y-10707328D01*
X-6131000Y-10520000D01*
X-6111311Y-10332672D01*
X-6053104Y-10153530D01*
X-5958924Y-9990405D01*
X-5832887Y-9850427D01*
X-5680500Y-9739711D01*
X-5508424Y-9663098D01*
X-5324180Y-9623936D01*
X-5135820Y-9623936D01*
X-4951576Y-9663098D01*
G37*
G36*
X62520872Y-10460114D02*
G01*
X62568238Y-10491762D01*
X62599886Y-10539128D01*
X62611000Y-10595000D01*
X62611000Y-11205000D01*
X62599886Y-11260872D01*
X62568238Y-11308238D01*
X62520872Y-11339886D01*
X62465000Y-11351000D01*
X61315000Y-11351000D01*
X61259128Y-11339886D01*
X61211762Y-11308238D01*
X61180114Y-11260872D01*
X61169000Y-11205000D01*
X61169000Y-10595000D01*
X61180114Y-10539128D01*
X61211762Y-10491762D01*
X61259128Y-10460114D01*
X61315000Y-10449000D01*
X62465000Y-10449000D01*
X62520872Y-10460114D01*
G37*
G36*
X64336920Y-9228714D02*
G01*
X64475859Y-9265942D01*
X64600428Y-9337862D01*
X64702138Y-9439572D01*
X64774058Y-9564141D01*
X64811286Y-9703080D01*
X64811286Y-9846920D01*
X64774058Y-9985859D01*
X64702138Y-10110428D01*
X64600428Y-10212138D01*
X64475859Y-10284058D01*
X64336920Y-10321286D01*
X64265000Y-10326000D01*
X64263733Y-10326000D01*
X63236267Y-10326000D01*
X63235000Y-10326000D01*
X63163080Y-10321286D01*
X63024141Y-10284058D01*
X62899572Y-10212138D01*
X62797862Y-10110428D01*
X62725942Y-9985859D01*
X62688714Y-9846920D01*
X62688714Y-9703080D01*
X62725942Y-9564141D01*
X62797862Y-9439572D01*
X62899572Y-9337862D01*
X63024141Y-9265942D01*
X63163080Y-9228714D01*
X63235000Y-9224000D01*
X64265000Y-9224000D01*
X64336920Y-9228714D01*
G37*
G36*
X-8644469Y-8317273D02*
G01*
X-8466068Y-8371391D01*
X-8301653Y-8459272D01*
X-8157541Y-8577541D01*
X-8039272Y-8721653D01*
X-7951391Y-8886068D01*
X-7897273Y-9064469D01*
X-7879000Y-9250000D01*
X-7897273Y-9435531D01*
X-7951391Y-9613932D01*
X-8039272Y-9778347D01*
X-8157541Y-9922459D01*
X-8301653Y-10040728D01*
X-8466068Y-10128609D01*
X-8644469Y-10182727D01*
X-8830000Y-10201000D01*
X-9015531Y-10182727D01*
X-9193932Y-10128609D01*
X-9358347Y-10040728D01*
X-9502459Y-9922459D01*
X-9620728Y-9778347D01*
X-9708609Y-9613932D01*
X-9762727Y-9435531D01*
X-9781000Y-9250000D01*
X-9762727Y-9064469D01*
X-9708609Y-8886068D01*
X-9620728Y-8721653D01*
X-9502459Y-8577541D01*
X-9358347Y-8459272D01*
X-9193932Y-8371391D01*
X-9015531Y-8317273D01*
X-8830000Y-8299000D01*
X-8644469Y-8317273D01*
G37*
G36*
X60704943Y-7974983D02*
G01*
X60770497Y-7983613D01*
X60786987Y-7991302D01*
X60805621Y-7995009D01*
X60830303Y-8011501D01*
X60857966Y-8024401D01*
X60874796Y-8041231D01*
X60895161Y-8054839D01*
X60908768Y-8075203D01*
X60925598Y-8092033D01*
X60938496Y-8119694D01*
X60954991Y-8144379D01*
X60958697Y-8163014D01*
X60966386Y-8179502D01*
X60975014Y-8245043D01*
X60976000Y-8250000D01*
X60976000Y-8750000D01*
X60975013Y-8754958D01*
X60966386Y-8820497D01*
X60958698Y-8836983D01*
X60954991Y-8855621D01*
X60938495Y-8880308D01*
X60925598Y-8907966D01*
X60908770Y-8924793D01*
X60895161Y-8945161D01*
X60874793Y-8958770D01*
X60857966Y-8975598D01*
X60830308Y-8988495D01*
X60805621Y-9004991D01*
X60786983Y-9008698D01*
X60770497Y-9016386D01*
X60704958Y-9025013D01*
X60700000Y-9026000D01*
X60250000Y-9026000D01*
X60245043Y-9025014D01*
X60179502Y-9016386D01*
X60163014Y-9008697D01*
X60144379Y-9004991D01*
X60119694Y-8988496D01*
X60092033Y-8975598D01*
X60075203Y-8958768D01*
X60054839Y-8945161D01*
X60041231Y-8924796D01*
X60024401Y-8907966D01*
X60011501Y-8880303D01*
X59995009Y-8855621D01*
X59991302Y-8836987D01*
X59983613Y-8820497D01*
X59974983Y-8754943D01*
X59974000Y-8750000D01*
X59974000Y-8250000D01*
X59974982Y-8245058D01*
X59983613Y-8179502D01*
X59991302Y-8163011D01*
X59995009Y-8144379D01*
X60011499Y-8119699D01*
X60024401Y-8092033D01*
X60041233Y-8075200D01*
X60054839Y-8054839D01*
X60075200Y-8041233D01*
X60092033Y-8024401D01*
X60119699Y-8011499D01*
X60144379Y-7995009D01*
X60163011Y-7991302D01*
X60179502Y-7983613D01*
X60245058Y-7974982D01*
X60250000Y-7974000D01*
X60700000Y-7974000D01*
X60704943Y-7974983D01*
G37*
G36*
X62254943Y-7974983D02*
G01*
X62320497Y-7983613D01*
X62336987Y-7991302D01*
X62355621Y-7995009D01*
X62380303Y-8011501D01*
X62407966Y-8024401D01*
X62424796Y-8041231D01*
X62445161Y-8054839D01*
X62458768Y-8075203D01*
X62475598Y-8092033D01*
X62488496Y-8119694D01*
X62504991Y-8144379D01*
X62508697Y-8163014D01*
X62516386Y-8179502D01*
X62525014Y-8245043D01*
X62526000Y-8250000D01*
X62526000Y-8750000D01*
X62525013Y-8754958D01*
X62516386Y-8820497D01*
X62508698Y-8836983D01*
X62504991Y-8855621D01*
X62488495Y-8880308D01*
X62475598Y-8907966D01*
X62458770Y-8924793D01*
X62445161Y-8945161D01*
X62424793Y-8958770D01*
X62407966Y-8975598D01*
X62380308Y-8988495D01*
X62355621Y-9004991D01*
X62336983Y-9008698D01*
X62320497Y-9016386D01*
X62254958Y-9025013D01*
X62250000Y-9026000D01*
X61800000Y-9026000D01*
X61795043Y-9025014D01*
X61729502Y-9016386D01*
X61713014Y-9008697D01*
X61694379Y-9004991D01*
X61669694Y-8988496D01*
X61642033Y-8975598D01*
X61625203Y-8958768D01*
X61604839Y-8945161D01*
X61591231Y-8924796D01*
X61574401Y-8907966D01*
X61561501Y-8880303D01*
X61545009Y-8855621D01*
X61541302Y-8836987D01*
X61533613Y-8820497D01*
X61524983Y-8754943D01*
X61524000Y-8750000D01*
X61524000Y-8250000D01*
X61524982Y-8245058D01*
X61533613Y-8179502D01*
X61541302Y-8163011D01*
X61545009Y-8144379D01*
X61561499Y-8119699D01*
X61574401Y-8092033D01*
X61591233Y-8075200D01*
X61604839Y-8054839D01*
X61625200Y-8041233D01*
X61642033Y-8024401D01*
X61669699Y-8011499D01*
X61694379Y-7995009D01*
X61713011Y-7991302D01*
X61729502Y-7983613D01*
X61795058Y-7974982D01*
X61800000Y-7974000D01*
X62250000Y-7974000D01*
X62254943Y-7974983D01*
G37*
G36*
X-4951576Y-7123098D02*
G01*
X-4779500Y-7199711D01*
X-4627113Y-7310427D01*
X-4501076Y-7450405D01*
X-4406896Y-7613530D01*
X-4348689Y-7792672D01*
X-4329000Y-7980000D01*
X-4348689Y-8167328D01*
X-4406896Y-8346470D01*
X-4501076Y-8509595D01*
X-4627113Y-8649573D01*
X-4779500Y-8760289D01*
X-4951576Y-8836902D01*
X-5135820Y-8876064D01*
X-5324180Y-8876064D01*
X-5508424Y-8836902D01*
X-5680500Y-8760289D01*
X-5832887Y-8649573D01*
X-5958924Y-8509595D01*
X-6053104Y-8346470D01*
X-6111311Y-8167328D01*
X-6131000Y-7980000D01*
X-6111311Y-7792672D01*
X-6053104Y-7613530D01*
X-5958924Y-7450405D01*
X-5832887Y-7310427D01*
X-5680500Y-7199711D01*
X-5508424Y-7123098D01*
X-5324180Y-7083936D01*
X-5135820Y-7083936D01*
X-4951576Y-7123098D01*
G37*
G36*
X-12496587Y-6143098D02*
G01*
X-12332968Y-6175644D01*
X-12178841Y-6239485D01*
X-12040131Y-6332168D01*
X-11922168Y-6450131D01*
X-11829485Y-6588841D01*
X-11765644Y-6742968D01*
X-11733098Y-6906587D01*
X-11733098Y-7073413D01*
X-11765644Y-7237032D01*
X-11829485Y-7391159D01*
X-11922168Y-7529869D01*
X-12040131Y-7647832D01*
X-12178841Y-7740515D01*
X-12332968Y-7804356D01*
X-12496587Y-7836902D01*
X-12580000Y-7841000D01*
X-12580953Y-7841000D01*
X-13779047Y-7841000D01*
X-13780000Y-7841000D01*
X-13863413Y-7836902D01*
X-14027032Y-7804356D01*
X-14181159Y-7740515D01*
X-14319869Y-7647832D01*
X-14437832Y-7529869D01*
X-14530515Y-7391159D01*
X-14594356Y-7237032D01*
X-14626902Y-7073413D01*
X-14626902Y-6906587D01*
X-14594356Y-6742968D01*
X-14530515Y-6588841D01*
X-14437832Y-6450131D01*
X-14319869Y-6332168D01*
X-14181159Y-6239485D01*
X-14027032Y-6175644D01*
X-13863413Y-6143098D01*
X-13780000Y-6139000D01*
X-12580000Y-6139000D01*
X-12496587Y-6143098D01*
G37*
G36*
X3841604Y-468184D02*
G01*
X4178911Y-525495D01*
X4507681Y-620212D01*
X4823779Y-751144D01*
X5123230Y-916644D01*
X5402267Y-1114632D01*
X5657383Y-1342617D01*
X5885368Y-1597733D01*
X6083356Y-1876770D01*
X6248856Y-2176221D01*
X6379788Y-2492319D01*
X6474505Y-2821089D01*
X6531816Y-3158396D01*
X6551000Y-3500000D01*
X6531816Y-3841604D01*
X6474505Y-4178911D01*
X6379788Y-4507681D01*
X6248856Y-4823779D01*
X6083356Y-5123230D01*
X5885368Y-5402267D01*
X5657383Y-5657383D01*
X5402267Y-5885368D01*
X5123230Y-6083356D01*
X4823779Y-6248856D01*
X4507681Y-6379788D01*
X4178911Y-6474505D01*
X3841604Y-6531816D01*
X3500000Y-6551000D01*
X3158396Y-6531816D01*
X2821089Y-6474505D01*
X2492319Y-6379788D01*
X2176221Y-6248856D01*
X1876770Y-6083356D01*
X1597733Y-5885368D01*
X1342617Y-5657383D01*
X1114632Y-5402267D01*
X916644Y-5123230D01*
X751144Y-4823779D01*
X620212Y-4507681D01*
X525495Y-4178911D01*
X468184Y-3841604D01*
X449000Y-3500000D01*
X468184Y-3158396D01*
X525495Y-2821089D01*
X620212Y-2492319D01*
X751144Y-2176221D01*
X916644Y-1876770D01*
X1114632Y-1597733D01*
X1342617Y-1342617D01*
X1597733Y-1114632D01*
X1876770Y-916644D01*
X2176221Y-751144D01*
X2492319Y-620212D01*
X2821089Y-525495D01*
X3158396Y-468184D01*
X3500000Y-449000D01*
X3841604Y-468184D01*
G37*
G36*
X61841604Y-468184D02*
G01*
X62178911Y-525495D01*
X62507681Y-620212D01*
X62823779Y-751144D01*
X63123230Y-916644D01*
X63402267Y-1114632D01*
X63657383Y-1342617D01*
X63885368Y-1597733D01*
X64083356Y-1876770D01*
X64248856Y-2176221D01*
X64379788Y-2492319D01*
X64474505Y-2821089D01*
X64531816Y-3158396D01*
X64551000Y-3500000D01*
X64531816Y-3841604D01*
X64474505Y-4178911D01*
X64379788Y-4507681D01*
X64248856Y-4823779D01*
X64083356Y-5123230D01*
X63885368Y-5402267D01*
X63657383Y-5657383D01*
X63402267Y-5885368D01*
X63123230Y-6083356D01*
X62823779Y-6248856D01*
X62507681Y-6379788D01*
X62178911Y-6474505D01*
X61841604Y-6531816D01*
X61500000Y-6551000D01*
X61158396Y-6531816D01*
X60821089Y-6474505D01*
X60492319Y-6379788D01*
X60176221Y-6248856D01*
X59876770Y-6083356D01*
X59597733Y-5885368D01*
X59342617Y-5657383D01*
X59114632Y-5402267D01*
X58916644Y-5123230D01*
X58751144Y-4823779D01*
X58620212Y-4507681D01*
X58525495Y-4178911D01*
X58468184Y-3841604D01*
X58449000Y-3500000D01*
X58468184Y-3158396D01*
X58525495Y-2821089D01*
X58620212Y-2492319D01*
X58751144Y-2176221D01*
X58916644Y-1876770D01*
X59114632Y-1597733D01*
X59342617Y-1342617D01*
X59597733Y-1114632D01*
X59876770Y-916644D01*
X60176221Y-751144D01*
X60492319Y-620212D01*
X60821089Y-525495D01*
X61158396Y-468184D01*
X61500000Y-449000D01*
X61841604Y-468184D01*
G37*
G36*
X30626919Y-5319300D02*
G01*
X30692128Y-5362872D01*
X30735700Y-5428081D01*
X30751000Y-5505000D01*
X30751000Y-5805000D01*
X30735700Y-5881919D01*
X30692128Y-5947128D01*
X30626919Y-5990700D01*
X30550000Y-6006000D01*
X29250000Y-6006000D01*
X29173081Y-5990700D01*
X29107872Y-5947128D01*
X29064300Y-5881919D01*
X29049000Y-5805000D01*
X29049000Y-5505000D01*
X29064300Y-5428081D01*
X29107872Y-5362872D01*
X29173081Y-5319300D01*
X29250000Y-5304000D01*
X30550000Y-5304000D01*
X30626919Y-5319300D01*
G37*
G36*
X37826919Y-5319300D02*
G01*
X37892128Y-5362872D01*
X37935700Y-5428081D01*
X37951000Y-5505000D01*
X37951000Y-5805000D01*
X37935700Y-5881919D01*
X37892128Y-5947128D01*
X37826919Y-5990700D01*
X37750000Y-6006000D01*
X36450000Y-6006000D01*
X36373081Y-5990700D01*
X36307872Y-5947128D01*
X36264300Y-5881919D01*
X36249000Y-5805000D01*
X36249000Y-5505000D01*
X36264300Y-5428081D01*
X36307872Y-5362872D01*
X36373081Y-5319300D01*
X36450000Y-5304000D01*
X37750000Y-5304000D01*
X37826919Y-5319300D01*
G37*
G36*
X30626919Y-4049300D02*
G01*
X30692128Y-4092872D01*
X30735700Y-4158081D01*
X30751000Y-4235000D01*
X30751000Y-4535000D01*
X30735700Y-4611919D01*
X30692128Y-4677128D01*
X30626919Y-4720700D01*
X30550000Y-4736000D01*
X29250000Y-4736000D01*
X29173081Y-4720700D01*
X29107872Y-4677128D01*
X29064300Y-4611919D01*
X29049000Y-4535000D01*
X29049000Y-4235000D01*
X29064300Y-4158081D01*
X29107872Y-4092872D01*
X29173081Y-4049300D01*
X29250000Y-4034000D01*
X30550000Y-4034000D01*
X30626919Y-4049300D01*
G37*
G36*
X37826919Y-4049300D02*
G01*
X37892128Y-4092872D01*
X37935700Y-4158081D01*
X37951000Y-4235000D01*
X37951000Y-4535000D01*
X37935700Y-4611919D01*
X37892128Y-4677128D01*
X37826919Y-4720700D01*
X37750000Y-4736000D01*
X36450000Y-4736000D01*
X36373081Y-4720700D01*
X36307872Y-4677128D01*
X36264300Y-4611919D01*
X36249000Y-4535000D01*
X36249000Y-4235000D01*
X36264300Y-4158081D01*
X36307872Y-4092872D01*
X36373081Y-4049300D01*
X36450000Y-4034000D01*
X37750000Y-4034000D01*
X37826919Y-4049300D01*
G37*
G36*
X30626919Y-2779300D02*
G01*
X30692128Y-2822872D01*
X30735700Y-2888081D01*
X30751000Y-2965000D01*
X30751000Y-3265000D01*
X30735700Y-3341919D01*
X30692128Y-3407128D01*
X30626919Y-3450700D01*
X30550000Y-3466000D01*
X29250000Y-3466000D01*
X29173081Y-3450700D01*
X29107872Y-3407128D01*
X29064300Y-3341919D01*
X29049000Y-3265000D01*
X29049000Y-2965000D01*
X29064300Y-2888081D01*
X29107872Y-2822872D01*
X29173081Y-2779300D01*
X29250000Y-2764000D01*
X30550000Y-2764000D01*
X30626919Y-2779300D01*
G37*
G36*
X37826919Y-2779300D02*
G01*
X37892128Y-2822872D01*
X37935700Y-2888081D01*
X37951000Y-2965000D01*
X37951000Y-3265000D01*
X37935700Y-3341919D01*
X37892128Y-3407128D01*
X37826919Y-3450700D01*
X37750000Y-3466000D01*
X36450000Y-3466000D01*
X36373081Y-3450700D01*
X36307872Y-3407128D01*
X36264300Y-3341919D01*
X36249000Y-3265000D01*
X36249000Y-2965000D01*
X36264300Y-2888081D01*
X36307872Y-2822872D01*
X36373081Y-2779300D01*
X36450000Y-2764000D01*
X37750000Y-2764000D01*
X37826919Y-2779300D01*
G37*
G36*
X30626919Y-1509300D02*
G01*
X30692128Y-1552872D01*
X30735700Y-1618081D01*
X30751000Y-1695000D01*
X30751000Y-1995000D01*
X30735700Y-2071919D01*
X30692128Y-2137128D01*
X30626919Y-2180700D01*
X30550000Y-2196000D01*
X29250000Y-2196000D01*
X29173081Y-2180700D01*
X29107872Y-2137128D01*
X29064300Y-2071919D01*
X29049000Y-1995000D01*
X29049000Y-1695000D01*
X29064300Y-1618081D01*
X29107872Y-1552872D01*
X29173081Y-1509300D01*
X29250000Y-1494000D01*
X30550000Y-1494000D01*
X30626919Y-1509300D01*
G37*
G36*
X37826919Y-1509300D02*
G01*
X37892128Y-1552872D01*
X37935700Y-1618081D01*
X37951000Y-1695000D01*
X37951000Y-1995000D01*
X37935700Y-2071919D01*
X37892128Y-2137128D01*
X37826919Y-2180700D01*
X37750000Y-2196000D01*
X36450000Y-2196000D01*
X36373081Y-2180700D01*
X36307872Y-2137128D01*
X36264300Y-2071919D01*
X36249000Y-1995000D01*
X36249000Y-1695000D01*
X36264300Y-1618081D01*
X36307872Y-1552872D01*
X36373081Y-1509300D01*
X36450000Y-1494000D01*
X37750000Y-1494000D01*
X37826919Y-1509300D01*
G37*
M02*
