%TF.GenerationSoftware,KiCad,Pcbnew,8.0.7*%
%TF.CreationDate,2025-01-01T14:13:32-08:00*%
%TF.ProjectId,pizero-papoe,70697a65-726f-42d7-9061-706f652e6b69,R1*%
%TF.SameCoordinates,PX652f520PY4a19ba0*%
%TF.FileFunction,Copper,L3,Inr*%
%TF.FilePolarity,Positive*%
%FSLAX46Y46*%
G04 Gerber Fmt 4.6, Leading zero omitted, Abs format (unit mm)*
G04 Created by KiCad (PCBNEW 8.0.7) date 2025-01-01 14:13:32*
%MOMM*%
%LPD*%
G01*
G04 APERTURE LIST*
G04 Aperture macros list*
%AMRoundRect*
0 Rectangle with rounded corners*
0 $1 Rounding radius*
0 $2 $3 $4 $5 $6 $7 $8 $9 X,Y pos of 4 corners*
0 Add a 4 corners polygon primitive as box body*
4,1,4,$2,$3,$4,$5,$6,$7,$8,$9,$2,$3,0*
0 Add four circle primitives for the rounded corners*
1,1,$1+$1,$2,$3*
1,1,$1+$1,$4,$5*
1,1,$1+$1,$6,$7*
1,1,$1+$1,$8,$9*
0 Add four rect primitives between the rounded corners*
20,1,$1+$1,$2,$3,$4,$5,0*
20,1,$1+$1,$4,$5,$6,$7,0*
20,1,$1+$1,$6,$7,$8,$9,0*
20,1,$1+$1,$8,$9,$2,$3,0*%
G04 Aperture macros list end*
%TA.AperFunction,ComponentPad*%
%ADD10C,1.700000*%
%TD*%
%TA.AperFunction,HeatsinkPad*%
%ADD11C,0.500000*%
%TD*%
%TA.AperFunction,ComponentPad*%
%ADD12RoundRect,0.250000X-0.500000X0.500000X-0.500000X-0.500000X0.500000X-0.500000X0.500000X0.500000X0*%
%TD*%
%TA.AperFunction,ComponentPad*%
%ADD13C,1.500000*%
%TD*%
%TA.AperFunction,ComponentPad*%
%ADD14O,2.800000X1.600000*%
%TD*%
%TA.AperFunction,ComponentPad*%
%ADD15R,2.000000X2.000000*%
%TD*%
%TA.AperFunction,ComponentPad*%
%ADD16C,2.000000*%
%TD*%
%TA.AperFunction,ComponentPad*%
%ADD17O,2.030000X1.000000*%
%TD*%
%TA.AperFunction,ViaPad*%
%ADD18C,0.609600*%
%TD*%
%TA.AperFunction,Conductor*%
%ADD19C,0.152400*%
%TD*%
G04 APERTURE END LIST*
D10*
%TO.N,GND*%
%TO.C,J5*%
X47500000Y-27750000D03*
%TD*%
%TO.N,/A1_U2DN*%
%TO.C,J3*%
X40300000Y-28100000D03*
%TD*%
D11*
%TO.N,GND*%
%TO.C,IC1*%
X22200000Y-13200000D03*
X22200000Y-14233333D03*
X22200000Y-15266667D03*
X22200000Y-16300000D03*
X23233333Y-13200000D03*
X23233333Y-14233333D03*
X23233333Y-15266667D03*
X23233333Y-16300000D03*
X24266667Y-13200000D03*
X24266667Y-14233333D03*
X24266667Y-15266667D03*
X24266667Y-16300000D03*
X25300000Y-13200000D03*
X25300000Y-14233333D03*
X25300000Y-15266667D03*
X25300000Y-16300000D03*
%TD*%
D10*
%TO.N,/A1_U2DP*%
%TO.C,J4*%
X42450000Y-28100000D03*
%TD*%
%TO.N,GND*%
%TO.C,J1*%
X54100000Y-26300000D03*
%TD*%
D12*
%TO.N,/J6_DA_P*%
%TO.C,J6*%
X-8500000Y-11420000D03*
D13*
%TO.N,/J6_DA_N*%
X-10280000Y-12440000D03*
%TO.N,/J6_DB_P*%
X-8500000Y-13460000D03*
%TO.N,/J6_DC_P*%
X-10280000Y-14480000D03*
%TO.N,/J6_DC_N*%
X-8500000Y-15500000D03*
%TO.N,/J6_DB_N*%
X-10280000Y-16520000D03*
%TO.N,/J6_DD_P*%
X-8500000Y-17540000D03*
%TO.N,/J6_DD_N*%
X-10280000Y-18560000D03*
D10*
%TO.N,/J1_LED_GN_A*%
X-5230000Y-7980000D03*
%TO.N,/IC1_LED0_SPICSB*%
X-5230000Y-10520000D03*
%TO.N,/J1_LED_YL_A*%
X-5230000Y-19460000D03*
%TO.N,/IC1_LED1_SPISCK*%
X-5230000Y-22000000D03*
D14*
%TO.N,/J1_SH_C*%
X-13180000Y-6990000D03*
X-13180000Y-22990000D03*
%TD*%
D10*
%TO.N,/RPI_VBUS*%
%TO.C,J2*%
X53800000Y-23700000D03*
%TD*%
D15*
%TO.N,/POE_VP*%
%TO.C,C23*%
X34750000Y-15250000D03*
D16*
%TO.N,GND*%
X34750000Y-20250000D03*
%TD*%
D17*
%TO.N,/P1_SH*%
%TO.C,P1*%
X63750000Y-9775000D03*
X63750000Y-20225000D03*
%TD*%
D15*
%TO.N,/POE_VP*%
%TO.C,C24*%
X37250000Y-15250000D03*
D16*
%TO.N,GND*%
X37250000Y-20250000D03*
%TD*%
D18*
%TO.N,+1V0*%
X18250000Y-17000000D03*
X32000000Y-11750000D03*
X30529338Y-11992748D03*
X22150636Y-20212963D03*
X21902795Y-9033977D03*
X27250000Y-20250000D03*
X18250000Y-12500000D03*
X25574290Y-9068443D03*
%TO.N,/J1_SH_C*%
X-500000Y-20500000D03*
X2250000Y-12000000D03*
X-500000Y-17500000D03*
X7512000Y-7750000D03*
X-1500000Y-11500000D03*
X7512000Y-22250000D03*
X-1750000Y-15000000D03*
X2250000Y-14000000D03*
%TO.N,GND*%
X19250000Y-25750000D03*
X26500000Y-22000000D03*
X33241998Y-15250000D03*
X29250000Y-14000000D03*
X40000000Y-6000000D03*
X10500000Y-22250000D03*
X41000000Y-2250000D03*
X23750000Y-2750000D03*
X27750000Y-2750000D03*
X30000000Y-22000000D03*
X13250000Y-2750000D03*
X47000000Y-22250000D03*
X14750000Y-26750000D03*
X51230243Y-16252288D03*
X22000000Y-24750000D03*
X47000000Y-1500000D03*
X60250000Y-10600000D03*
X14750000Y-24750000D03*
X41000000Y-5250000D03*
X52250000Y-13500000D03*
X57000000Y-8750000D03*
X59500000Y-21500000D03*
X22500000Y-22000000D03*
X51221621Y-15496307D03*
X16500000Y-28250000D03*
X32500000Y-17000000D03*
X51250000Y-18000000D03*
X15000000Y-1500000D03*
X46250000Y-11250000D03*
X59500000Y-8500000D03*
X10500000Y-7750000D03*
X53500000Y-15750000D03*
X41750000Y-18500000D03*
X36250000Y-1250000D03*
X19750000Y-22000000D03*
X14000000Y-26750000D03*
X40000000Y-3750000D03*
X16000000Y-26000000D03*
X19000000Y-7500000D03*
X41750000Y-5250000D03*
X14750000Y-750000D03*
X40000000Y-6750000D03*
X19000000Y-22500000D03*
X52000000Y-9750000D03*
X-9250000Y-4000000D03*
X14000000Y-750000D03*
X15500000Y-26750000D03*
X36750000Y-750000D03*
X34000000Y-13741998D03*
X15500000Y-7250000D03*
X46250000Y-1500000D03*
X39750000Y-750000D03*
X16750000Y-17000000D03*
X26750000Y-7500000D03*
X47750000Y-11250000D03*
X14000000Y-2750000D03*
X16750000Y-12500000D03*
X16500000Y-29250000D03*
X20750000Y-7500000D03*
X30750000Y-18500000D03*
X42750000Y-19500000D03*
X13250000Y-750000D03*
X28250000Y-22000000D03*
X59250000Y-11250000D03*
X59250000Y-18650000D03*
X40250000Y-2250000D03*
X21750000Y-2750000D03*
X45500000Y-1500000D03*
X40000000Y-7500000D03*
X48750000Y-22250000D03*
X37500000Y-28250000D03*
X23000000Y-25750000D03*
X39750000Y-1500000D03*
X40000000Y-4500000D03*
X40250000Y-5250000D03*
X25000000Y-7500000D03*
X61000000Y-20000000D03*
X50750000Y-27250000D03*
X41750000Y-2250000D03*
X45500000Y-11250000D03*
X33500000Y-10250000D03*
X60250000Y-19250000D03*
X58650000Y-14600000D03*
X22500000Y-7500000D03*
X47000000Y-11250000D03*
X18250000Y-24750000D03*
X52750000Y-10250000D03*
X57000000Y-10750000D03*
X30000000Y-504800D03*
X51500000Y-13500000D03*
X40000000Y-3000000D03*
X27331000Y-17000000D03*
X25750000Y-2750000D03*
X31750000Y-22000000D03*
X19750000Y-2750000D03*
X37500000Y-29250000D03*
X14000000Y-24750000D03*
%TO.N,/P1_U3SSRX_P*%
X23278388Y-25028388D03*
%TO.N,/RPI_VBUS*%
X46500000Y-24500000D03*
%TO.N,/P1_U3SSRX_N*%
X22721612Y-24471612D03*
%TO.N,/P1_U3SSTX_P*%
X19528388Y-25028388D03*
%TO.N,/P1_U3SSTX_N*%
X18971612Y-24471612D03*
%TO.N,/J1_LED_OR_A*%
X13000000Y-24250000D03*
X-6750000Y-24750000D03*
%TO.N,/IC1_EED0_LED2*%
X29397302Y-15415190D03*
X-7250000Y-24000000D03*
X34250000Y-9250000D03*
%TO.N,/IC1_LED1_SPISCK*%
X32282500Y-8282500D03*
X32250000Y-5500000D03*
%TO.N,/IC1_LED0_SPICSB*%
X26500000Y-11000000D03*
%TO.N,/IC1_EEDI_ENSWREG*%
X33500000Y-8500000D03*
X27256408Y-14843135D03*
X33500000Y-5500000D03*
%TO.N,+5V*%
X50250000Y-1500000D03*
X54170770Y-14610723D03*
X48750000Y-1500000D03*
X54500000Y-20000000D03*
X51750000Y-1500000D03*
X56500000Y-20000000D03*
X60300000Y-13700000D03*
X54500000Y-18500000D03*
X52500000Y-1500000D03*
X53500000Y-22000000D03*
X54500000Y-19250000D03*
X57250000Y-19250000D03*
X58000000Y-18500000D03*
X56500000Y-19250000D03*
X53250000Y-1500000D03*
X51000000Y-1500000D03*
X56500000Y-18500000D03*
X49500000Y-1500000D03*
X53750000Y-2000000D03*
X57250000Y-18500000D03*
X48250000Y-2000000D03*
%TO.N,+3V3*%
X29000000Y-20250000D03*
X35250000Y-12000000D03*
X44000000Y-24750000D03*
X30750000Y-1000000D03*
X17500000Y-19750000D03*
X18500000Y-19750000D03*
X28250000Y-7500000D03*
X18250000Y-10000000D03*
X28750000Y-14660572D03*
X38750000Y-20000000D03*
X35250000Y-9250000D03*
X27370627Y-7957242D03*
X30750000Y-15500000D03*
X19997492Y-9416874D03*
%TO.N,/U2_L1*%
X43999986Y-13750000D03*
X42500000Y-13750000D03*
X44250000Y-12250000D03*
X41000000Y-13750000D03*
X44250000Y-13000000D03*
X41750000Y-13750000D03*
%TO.N,/U2_L2*%
X41750000Y-8750000D03*
X48750000Y-9750000D03*
X44000044Y-8750000D03*
X42500000Y-8750000D03*
X47750000Y-9749998D03*
X44250000Y-9500000D03*
X44250000Y-10250000D03*
X48250000Y-10500000D03*
X41000000Y-8750000D03*
%TO.N,/J1_LED_GN_A*%
X29750000Y-7500000D03*
%TO.N,/J1_LED_YL_A*%
X15250000Y-22500000D03*
%TO.N,/P1_U2DP*%
X42028388Y-19778388D03*
%TO.N,/P1_U2DN*%
X41471612Y-19221612D03*
%TO.N,/J6_DB_P*%
X2945654Y-12600900D03*
%TO.N,/J6_DB_N*%
X2945654Y-13439100D03*
%TO.N,/POE_VP_F*%
X11500000Y-4250000D03*
X-1750000Y-6000000D03*
%TD*%
D19*
%TO.N,GND*%
X1250000Y-6750000D02*
X-6500000Y-6750000D01*
X-6500000Y-6750000D02*
X-9250000Y-4000000D01*
X10500000Y-7750000D02*
X9500000Y-6750000D01*
X9500000Y-6750000D02*
X1250000Y-6750000D01*
%TO.N,+3V3*%
X31000000Y-1250000D02*
X31000000Y-6000000D01*
X30750000Y-1000000D02*
X31000000Y-1250000D01*
X28750000Y-14660572D02*
X28750000Y-15522230D01*
X29227770Y-16000000D02*
X29500000Y-16000000D01*
X28750000Y-15522230D02*
X29227770Y-16000000D01*
X28750000Y-14660572D02*
X29410572Y-14660572D01*
X29410572Y-14660572D02*
X29571144Y-14500000D01*
X29571144Y-14500000D02*
X30500000Y-14500000D01*
%TO.N,/POE_VP_F*%
X9500000Y-6250000D02*
X11500000Y-4250000D01*
X-1750000Y-6000000D02*
X-1500000Y-6250000D01*
X1000000Y-6250000D02*
X9500000Y-6250000D01*
X-1500000Y-6250000D02*
X1000000Y-6250000D01*
%TD*%
%TA.AperFunction,Conductor*%
%TO.N,GND*%
G36*
X62003525Y-200697D02*
G01*
X62306382Y-217706D01*
X62320418Y-219287D01*
X62615971Y-269503D01*
X62629743Y-272647D01*
X62917820Y-355641D01*
X62931151Y-360306D01*
X63139018Y-446407D01*
X63208120Y-475030D01*
X63220851Y-481161D01*
X63483227Y-626171D01*
X63495191Y-633688D01*
X63739690Y-807169D01*
X63750737Y-815979D01*
X63974268Y-1015740D01*
X63984259Y-1025731D01*
X64184020Y-1249262D01*
X64192830Y-1260309D01*
X64366311Y-1504808D01*
X64373828Y-1516772D01*
X64518838Y-1779148D01*
X64524969Y-1791879D01*
X64639691Y-2068842D01*
X64644358Y-2082179D01*
X64727352Y-2370256D01*
X64730496Y-2384031D01*
X64780711Y-2679579D01*
X64782293Y-2693620D01*
X64799302Y-2996474D01*
X64799500Y-3003539D01*
X64799500Y-9050079D01*
X64779498Y-9118200D01*
X64725842Y-9164693D01*
X64655568Y-9174797D01*
X64603500Y-9154845D01*
X64598330Y-9151390D01*
X64598327Y-9151389D01*
X64470267Y-9098345D01*
X64470262Y-9098343D01*
X64334310Y-9071300D01*
X64334308Y-9071300D01*
X63165692Y-9071300D01*
X63165689Y-9071300D01*
X63029737Y-9098343D01*
X63029732Y-9098345D01*
X62901672Y-9151389D01*
X62786415Y-9228401D01*
X62786409Y-9228406D01*
X62688406Y-9326409D01*
X62688401Y-9326415D01*
X62611389Y-9441672D01*
X62558345Y-9569732D01*
X62558343Y-9569737D01*
X62531300Y-9705689D01*
X62531300Y-9844310D01*
X62556751Y-9972257D01*
X62558343Y-9980262D01*
X62611389Y-10108327D01*
X62684203Y-10217302D01*
X62688401Y-10223584D01*
X62688406Y-10223590D01*
X62786409Y-10321593D01*
X62786415Y-10321598D01*
X62786417Y-10321600D01*
X62901673Y-10398611D01*
X63029738Y-10451657D01*
X63165692Y-10478700D01*
X63386200Y-10478700D01*
X63454321Y-10498702D01*
X63500814Y-10552358D01*
X63510918Y-10622632D01*
X63482721Y-10685692D01*
X63468421Y-10702732D01*
X63468419Y-10702735D01*
X63385266Y-10846762D01*
X63385262Y-10846770D01*
X63328379Y-11003052D01*
X63328379Y-11003054D01*
X63299500Y-11166842D01*
X63299500Y-18833157D01*
X63328379Y-18996945D01*
X63328379Y-18996947D01*
X63385262Y-19153229D01*
X63385266Y-19153237D01*
X63468419Y-19297264D01*
X63468421Y-19297267D01*
X63482721Y-19314308D01*
X63511186Y-19379349D01*
X63499969Y-19449454D01*
X63452631Y-19502365D01*
X63386200Y-19521300D01*
X63165689Y-19521300D01*
X63029737Y-19548343D01*
X63029732Y-19548345D01*
X62901672Y-19601389D01*
X62786415Y-19678401D01*
X62786409Y-19678406D01*
X62688406Y-19776409D01*
X62688401Y-19776415D01*
X62611389Y-19891672D01*
X62558345Y-20019732D01*
X62558343Y-20019737D01*
X62531300Y-20155689D01*
X62531300Y-20294310D01*
X62558343Y-20430262D01*
X62558345Y-20430267D01*
X62577574Y-20476690D01*
X62611389Y-20558327D01*
X62652093Y-20619246D01*
X62688401Y-20673584D01*
X62688406Y-20673590D01*
X62786409Y-20771593D01*
X62786415Y-20771598D01*
X62786417Y-20771600D01*
X62901673Y-20848611D01*
X63029738Y-20901657D01*
X63165692Y-20928700D01*
X63165693Y-20928700D01*
X64334307Y-20928700D01*
X64334308Y-20928700D01*
X64470262Y-20901657D01*
X64598327Y-20848611D01*
X64603496Y-20845156D01*
X64671245Y-20823940D01*
X64739713Y-20842720D01*
X64787158Y-20895535D01*
X64799500Y-20949920D01*
X64799500Y-26996460D01*
X64799302Y-27003525D01*
X64782293Y-27306379D01*
X64780711Y-27320420D01*
X64730496Y-27615968D01*
X64727352Y-27629743D01*
X64644358Y-27917820D01*
X64639691Y-27931157D01*
X64524969Y-28208120D01*
X64518838Y-28220851D01*
X64373828Y-28483227D01*
X64366311Y-28495191D01*
X64192830Y-28739690D01*
X64184020Y-28750737D01*
X63984259Y-28974268D01*
X63974268Y-28984259D01*
X63750737Y-29184020D01*
X63739690Y-29192830D01*
X63495191Y-29366311D01*
X63483227Y-29373828D01*
X63220851Y-29518838D01*
X63208120Y-29524969D01*
X62931157Y-29639691D01*
X62917820Y-29644358D01*
X62629743Y-29727352D01*
X62615968Y-29730496D01*
X62320420Y-29780711D01*
X62306379Y-29782293D01*
X62003526Y-29799302D01*
X61996461Y-29799500D01*
X13626000Y-29799500D01*
X13557879Y-29779498D01*
X13511386Y-29725842D01*
X13500000Y-29673500D01*
X13500000Y-28099997D01*
X39241202Y-28099997D01*
X39241202Y-28100002D01*
X39261545Y-28306554D01*
X39261546Y-28306560D01*
X39261547Y-28306561D01*
X39321798Y-28505184D01*
X39419642Y-28688237D01*
X39551317Y-28848683D01*
X39711763Y-28980358D01*
X39894816Y-29078202D01*
X40093439Y-29138453D01*
X40093443Y-29138453D01*
X40093445Y-29138454D01*
X40299997Y-29158798D01*
X40300000Y-29158798D01*
X40300003Y-29158798D01*
X40506554Y-29138454D01*
X40506555Y-29138453D01*
X40506561Y-29138453D01*
X40705184Y-29078202D01*
X40888237Y-28980358D01*
X41048683Y-28848683D01*
X41180358Y-28688237D01*
X41263878Y-28531981D01*
X41313630Y-28481334D01*
X41382867Y-28465624D01*
X41449606Y-28489840D01*
X41486121Y-28531981D01*
X41569642Y-28688237D01*
X41701317Y-28848683D01*
X41861763Y-28980358D01*
X42044816Y-29078202D01*
X42243439Y-29138453D01*
X42243443Y-29138453D01*
X42243445Y-29138454D01*
X42449997Y-29158798D01*
X42450000Y-29158798D01*
X42450003Y-29158798D01*
X42656554Y-29138454D01*
X42656555Y-29138453D01*
X42656561Y-29138453D01*
X42855184Y-29078202D01*
X43038237Y-28980358D01*
X43198683Y-28848683D01*
X43330358Y-28688237D01*
X43428202Y-28505184D01*
X43488453Y-28306561D01*
X43503874Y-28150000D01*
X43508798Y-28100002D01*
X43508798Y-28099997D01*
X43488454Y-27893445D01*
X43488453Y-27893443D01*
X43488453Y-27893439D01*
X43444940Y-27749996D01*
X46441704Y-27749996D01*
X46441704Y-27750003D01*
X46462037Y-27956456D01*
X46522262Y-28154992D01*
X46620059Y-28337958D01*
X46670394Y-28399291D01*
X47141180Y-27928506D01*
X47179920Y-27995606D01*
X47254394Y-28070080D01*
X47321492Y-28108819D01*
X46850706Y-28579604D01*
X46912041Y-28629940D01*
X47095007Y-28727737D01*
X47293543Y-28787962D01*
X47499997Y-28808296D01*
X47500003Y-28808296D01*
X47706456Y-28787962D01*
X47904992Y-28727737D01*
X48087952Y-28629943D01*
X48087963Y-28629936D01*
X48149292Y-28579604D01*
X48149292Y-28579603D01*
X47678507Y-28108818D01*
X47745606Y-28070080D01*
X47820080Y-27995606D01*
X47858818Y-27928507D01*
X48329603Y-28399292D01*
X48329604Y-28399292D01*
X48379936Y-28337963D01*
X48379943Y-28337952D01*
X48477737Y-28154992D01*
X48537962Y-27956456D01*
X48558296Y-27750003D01*
X48558296Y-27749996D01*
X48537962Y-27543543D01*
X48477737Y-27345007D01*
X48379940Y-27162041D01*
X48329603Y-27100706D01*
X47858818Y-27571491D01*
X47820080Y-27504394D01*
X47745606Y-27429920D01*
X47678506Y-27391180D01*
X48149292Y-26920394D01*
X48087958Y-26870059D01*
X47904992Y-26772262D01*
X47706456Y-26712037D01*
X47500003Y-26691704D01*
X47499997Y-26691704D01*
X47293543Y-26712037D01*
X47095007Y-26772262D01*
X46912043Y-26870058D01*
X46912040Y-26870060D01*
X46850706Y-26920394D01*
X46850706Y-26920395D01*
X47321492Y-27391181D01*
X47254394Y-27429920D01*
X47179920Y-27504394D01*
X47141181Y-27571492D01*
X46670395Y-27100706D01*
X46670394Y-27100706D01*
X46620060Y-27162040D01*
X46620058Y-27162043D01*
X46522262Y-27345007D01*
X46462037Y-27543543D01*
X46441704Y-27749996D01*
X43444940Y-27749996D01*
X43428202Y-27694816D01*
X43330358Y-27511763D01*
X43198683Y-27351317D01*
X43038237Y-27219642D01*
X42855184Y-27121798D01*
X42656561Y-27061547D01*
X42656560Y-27061546D01*
X42656554Y-27061545D01*
X42450003Y-27041202D01*
X42449997Y-27041202D01*
X42243445Y-27061545D01*
X42044815Y-27121798D01*
X41861762Y-27219642D01*
X41701317Y-27351317D01*
X41569642Y-27511762D01*
X41486122Y-27668017D01*
X41436370Y-27718665D01*
X41367133Y-27734375D01*
X41300394Y-27710159D01*
X41263878Y-27668017D01*
X41225173Y-27595606D01*
X41180358Y-27511763D01*
X41048683Y-27351317D01*
X40888237Y-27219642D01*
X40705184Y-27121798D01*
X40506561Y-27061547D01*
X40506560Y-27061546D01*
X40506554Y-27061545D01*
X40300003Y-27041202D01*
X40299997Y-27041202D01*
X40093445Y-27061545D01*
X39894815Y-27121798D01*
X39711762Y-27219642D01*
X39551317Y-27351317D01*
X39419642Y-27511762D01*
X39321798Y-27694815D01*
X39261545Y-27893445D01*
X39241202Y-28099997D01*
X13500000Y-28099997D01*
X13500000Y-26299996D01*
X53041704Y-26299996D01*
X53041704Y-26300003D01*
X53062037Y-26506456D01*
X53122262Y-26704992D01*
X53220059Y-26887958D01*
X53270394Y-26949291D01*
X53741180Y-26478506D01*
X53779920Y-26545606D01*
X53854394Y-26620080D01*
X53921492Y-26658819D01*
X53450706Y-27129604D01*
X53512041Y-27179940D01*
X53695007Y-27277737D01*
X53893543Y-27337962D01*
X54099997Y-27358296D01*
X54100003Y-27358296D01*
X54306456Y-27337962D01*
X54504992Y-27277737D01*
X54687952Y-27179943D01*
X54687963Y-27179936D01*
X54749292Y-27129604D01*
X54749292Y-27129603D01*
X54278507Y-26658818D01*
X54345606Y-26620080D01*
X54420080Y-26545606D01*
X54458818Y-26478507D01*
X54929603Y-26949292D01*
X54929604Y-26949292D01*
X54979936Y-26887963D01*
X54979943Y-26887952D01*
X55077737Y-26704992D01*
X55137962Y-26506456D01*
X55152642Y-26357407D01*
X59324500Y-26357407D01*
X59324500Y-26642592D01*
X59361721Y-26925323D01*
X59361723Y-26925330D01*
X59435533Y-27200792D01*
X59544667Y-27464264D01*
X59544668Y-27464265D01*
X59544673Y-27464275D01*
X59687254Y-27711232D01*
X59687256Y-27711235D01*
X59687257Y-27711236D01*
X59777994Y-27829487D01*
X59860863Y-27937485D01*
X59860872Y-27937495D01*
X60062504Y-28139127D01*
X60062514Y-28139136D01*
X60062515Y-28139137D01*
X60280707Y-28306561D01*
X60288767Y-28312745D01*
X60483552Y-28425204D01*
X60535736Y-28455333D01*
X60799208Y-28564467D01*
X61074670Y-28638277D01*
X61074674Y-28638277D01*
X61074676Y-28638278D01*
X61147546Y-28647871D01*
X61357410Y-28675500D01*
X61357417Y-28675500D01*
X61642583Y-28675500D01*
X61642590Y-28675500D01*
X61898115Y-28641859D01*
X61925323Y-28638278D01*
X61925323Y-28638277D01*
X61925330Y-28638277D01*
X62200792Y-28564467D01*
X62464264Y-28455333D01*
X62711236Y-28312743D01*
X62937485Y-28139137D01*
X63139137Y-27937485D01*
X63312743Y-27711236D01*
X63455333Y-27464264D01*
X63564467Y-27200792D01*
X63638277Y-26925330D01*
X63675500Y-26642590D01*
X63675500Y-26357410D01*
X63638277Y-26074670D01*
X63564467Y-25799208D01*
X63455333Y-25535736D01*
X63388546Y-25420058D01*
X63312745Y-25288767D01*
X63292234Y-25262037D01*
X63139137Y-25062515D01*
X63139136Y-25062514D01*
X63139127Y-25062504D01*
X62937495Y-24860872D01*
X62937485Y-24860863D01*
X62793005Y-24750000D01*
X62711236Y-24687257D01*
X62711235Y-24687256D01*
X62711232Y-24687254D01*
X62464275Y-24544673D01*
X62464270Y-24544670D01*
X62464264Y-24544667D01*
X62200792Y-24435533D01*
X61925330Y-24361723D01*
X61925323Y-24361721D01*
X61642592Y-24324500D01*
X61642590Y-24324500D01*
X61357410Y-24324500D01*
X61357407Y-24324500D01*
X61074676Y-24361721D01*
X60887702Y-24411821D01*
X60799208Y-24435533D01*
X60643572Y-24500000D01*
X60535734Y-24544668D01*
X60535724Y-24544673D01*
X60288767Y-24687254D01*
X60062514Y-24860863D01*
X60062504Y-24860872D01*
X59860872Y-25062504D01*
X59860863Y-25062514D01*
X59687254Y-25288767D01*
X59544673Y-25535724D01*
X59544668Y-25535734D01*
X59435533Y-25799208D01*
X59435532Y-25799212D01*
X59361721Y-26074676D01*
X59324500Y-26357407D01*
X55152642Y-26357407D01*
X55158296Y-26300003D01*
X55158296Y-26299996D01*
X55137962Y-26093543D01*
X55077737Y-25895007D01*
X54979940Y-25712041D01*
X54929603Y-25650706D01*
X54458818Y-26121491D01*
X54420080Y-26054394D01*
X54345606Y-25979920D01*
X54278506Y-25941180D01*
X54749292Y-25470394D01*
X54687958Y-25420059D01*
X54504992Y-25322262D01*
X54306456Y-25262037D01*
X54100003Y-25241704D01*
X54099997Y-25241704D01*
X53893543Y-25262037D01*
X53695007Y-25322262D01*
X53512043Y-25420058D01*
X53512040Y-25420060D01*
X53450706Y-25470394D01*
X53450706Y-25470395D01*
X53921492Y-25941181D01*
X53854394Y-25979920D01*
X53779920Y-26054394D01*
X53741181Y-26121492D01*
X53270395Y-25650706D01*
X53270394Y-25650706D01*
X53220060Y-25712040D01*
X53220058Y-25712043D01*
X53122262Y-25895007D01*
X53062037Y-26093543D01*
X53041704Y-26299996D01*
X13500000Y-26299996D01*
X13500000Y-24471608D01*
X18457883Y-24471608D01*
X18457883Y-24471615D01*
X18478691Y-24616339D01*
X18478693Y-24616346D01*
X18539436Y-24749355D01*
X18635191Y-24859862D01*
X18758201Y-24938916D01*
X18877651Y-24973990D01*
X18898497Y-24980111D01*
X18898498Y-24980111D01*
X18898501Y-24980112D01*
X18898538Y-24980112D01*
X18898570Y-24980121D01*
X18907421Y-24981394D01*
X18907238Y-24982666D01*
X18966659Y-25000114D01*
X19013152Y-25053770D01*
X19023255Y-25088179D01*
X19035467Y-25173116D01*
X19035469Y-25173122D01*
X19096212Y-25306131D01*
X19191967Y-25416638D01*
X19314977Y-25495692D01*
X19434427Y-25530766D01*
X19455273Y-25536887D01*
X19455274Y-25536887D01*
X19455277Y-25536888D01*
X19455280Y-25536888D01*
X19601496Y-25536888D01*
X19601499Y-25536888D01*
X19741799Y-25495692D01*
X19864809Y-25416638D01*
X19960564Y-25306131D01*
X20021307Y-25173122D01*
X20033520Y-25088179D01*
X20042117Y-25028391D01*
X20042117Y-25028384D01*
X20021308Y-24883660D01*
X20021307Y-24883659D01*
X20021307Y-24883654D01*
X19960564Y-24750645D01*
X19864809Y-24640138D01*
X19864808Y-24640137D01*
X19771788Y-24580357D01*
X19741799Y-24561084D01*
X19685892Y-24544668D01*
X19601502Y-24519888D01*
X19601499Y-24519888D01*
X19601462Y-24519888D01*
X19601429Y-24519878D01*
X19592579Y-24518606D01*
X19592761Y-24517333D01*
X19533341Y-24499886D01*
X19508838Y-24471608D01*
X22207883Y-24471608D01*
X22207883Y-24471615D01*
X22228691Y-24616339D01*
X22228693Y-24616346D01*
X22289436Y-24749355D01*
X22385191Y-24859862D01*
X22508201Y-24938916D01*
X22627651Y-24973990D01*
X22648497Y-24980111D01*
X22648498Y-24980111D01*
X22648501Y-24980112D01*
X22648538Y-24980112D01*
X22648570Y-24980121D01*
X22657421Y-24981394D01*
X22657238Y-24982666D01*
X22716659Y-25000114D01*
X22763152Y-25053770D01*
X22773255Y-25088179D01*
X22785467Y-25173116D01*
X22785469Y-25173122D01*
X22846212Y-25306131D01*
X22941967Y-25416638D01*
X23064977Y-25495692D01*
X23184427Y-25530766D01*
X23205273Y-25536887D01*
X23205274Y-25536887D01*
X23205277Y-25536888D01*
X23205280Y-25536888D01*
X23351496Y-25536888D01*
X23351499Y-25536888D01*
X23491799Y-25495692D01*
X23614809Y-25416638D01*
X23710564Y-25306131D01*
X23771307Y-25173122D01*
X23783520Y-25088179D01*
X23792117Y-25028391D01*
X23792117Y-25028384D01*
X23771308Y-24883660D01*
X23771307Y-24883659D01*
X23771307Y-24883654D01*
X23710564Y-24750645D01*
X23710002Y-24749996D01*
X43486271Y-24749996D01*
X43486271Y-24750003D01*
X43507079Y-24894727D01*
X43507081Y-24894734D01*
X43567824Y-25027743D01*
X43663579Y-25138250D01*
X43786589Y-25217304D01*
X43906039Y-25252378D01*
X43926885Y-25258499D01*
X43926886Y-25258499D01*
X43926889Y-25258500D01*
X43926892Y-25258500D01*
X44073108Y-25258500D01*
X44073111Y-25258500D01*
X44213411Y-25217304D01*
X44336421Y-25138250D01*
X44432176Y-25027743D01*
X44492919Y-24894734D01*
X44512507Y-24758500D01*
X44513729Y-24750003D01*
X44513729Y-24749996D01*
X44492920Y-24605272D01*
X44492919Y-24605271D01*
X44492919Y-24605266D01*
X44444844Y-24499996D01*
X45986271Y-24499996D01*
X45986271Y-24500003D01*
X46007079Y-24644727D01*
X46007081Y-24644734D01*
X46067824Y-24777743D01*
X46163579Y-24888250D01*
X46286589Y-24967304D01*
X46398329Y-25000114D01*
X46426885Y-25008499D01*
X46426886Y-25008499D01*
X46426889Y-25008500D01*
X46426892Y-25008500D01*
X46573108Y-25008500D01*
X46573111Y-25008500D01*
X46713411Y-24967304D01*
X46836421Y-24888250D01*
X46932176Y-24777743D01*
X46992919Y-24644734D01*
X47004946Y-24561085D01*
X47013729Y-24500003D01*
X47013729Y-24499996D01*
X46992920Y-24355272D01*
X46992919Y-24355271D01*
X46992919Y-24355266D01*
X46932176Y-24222257D01*
X46836421Y-24111750D01*
X46836420Y-24111749D01*
X46774916Y-24072223D01*
X46713411Y-24032696D01*
X46678336Y-24022397D01*
X46573114Y-23991500D01*
X46573111Y-23991500D01*
X46426889Y-23991500D01*
X46426885Y-23991500D01*
X46286589Y-24032696D01*
X46286587Y-24032697D01*
X46163579Y-24111749D01*
X46067824Y-24222256D01*
X46007081Y-24355265D01*
X46007079Y-24355272D01*
X45986271Y-24499996D01*
X44444844Y-24499996D01*
X44432176Y-24472257D01*
X44336421Y-24361750D01*
X44336420Y-24361749D01*
X44274916Y-24322223D01*
X44213411Y-24282696D01*
X44178336Y-24272397D01*
X44073114Y-24241500D01*
X44073111Y-24241500D01*
X43926889Y-24241500D01*
X43926885Y-24241500D01*
X43786589Y-24282696D01*
X43786587Y-24282697D01*
X43663579Y-24361749D01*
X43567824Y-24472256D01*
X43507081Y-24605265D01*
X43507079Y-24605272D01*
X43486271Y-24749996D01*
X23710002Y-24749996D01*
X23614809Y-24640138D01*
X23614808Y-24640137D01*
X23521788Y-24580357D01*
X23491799Y-24561084D01*
X23435892Y-24544668D01*
X23351502Y-24519888D01*
X23351499Y-24519888D01*
X23351462Y-24519888D01*
X23351429Y-24519878D01*
X23342579Y-24518606D01*
X23342761Y-24517333D01*
X23283341Y-24499886D01*
X23236848Y-24446230D01*
X23226745Y-24411821D01*
X23214532Y-24326883D01*
X23214531Y-24326881D01*
X23214531Y-24326878D01*
X23153788Y-24193869D01*
X23058033Y-24083362D01*
X23058032Y-24083361D01*
X22979195Y-24032696D01*
X22935023Y-24004308D01*
X22891403Y-23991500D01*
X22794726Y-23963112D01*
X22794723Y-23963112D01*
X22648501Y-23963112D01*
X22648497Y-23963112D01*
X22508201Y-24004308D01*
X22508199Y-24004309D01*
X22385191Y-24083361D01*
X22289436Y-24193868D01*
X22228693Y-24326877D01*
X22228691Y-24326884D01*
X22207883Y-24471608D01*
X19508838Y-24471608D01*
X19486848Y-24446230D01*
X19476745Y-24411821D01*
X19464532Y-24326883D01*
X19464531Y-24326881D01*
X19464531Y-24326878D01*
X19403788Y-24193869D01*
X19308033Y-24083362D01*
X19308032Y-24083361D01*
X19229195Y-24032696D01*
X19185023Y-24004308D01*
X19141403Y-23991500D01*
X19044726Y-23963112D01*
X19044723Y-23963112D01*
X18898501Y-23963112D01*
X18898497Y-23963112D01*
X18758201Y-24004308D01*
X18758199Y-24004309D01*
X18635191Y-24083361D01*
X18539436Y-24193868D01*
X18478693Y-24326877D01*
X18478691Y-24326884D01*
X18457883Y-24471608D01*
X13500000Y-24471608D01*
X13500000Y-24354494D01*
X13501283Y-24336561D01*
X13502675Y-24326884D01*
X13513729Y-24250000D01*
X13513729Y-24249996D01*
X13501283Y-24163437D01*
X13500000Y-24145505D01*
X13500000Y-23699997D01*
X52741202Y-23699997D01*
X52741202Y-23700002D01*
X52761545Y-23906554D01*
X52761546Y-23906560D01*
X52761547Y-23906561D01*
X52821798Y-24105184D01*
X52919642Y-24288237D01*
X53051317Y-24448683D01*
X53211763Y-24580358D01*
X53394816Y-24678202D01*
X53593439Y-24738453D01*
X53593443Y-24738453D01*
X53593445Y-24738454D01*
X53799997Y-24758798D01*
X53800000Y-24758798D01*
X53800003Y-24758798D01*
X54006554Y-24738454D01*
X54006555Y-24738453D01*
X54006561Y-24738453D01*
X54205184Y-24678202D01*
X54388237Y-24580358D01*
X54548683Y-24448683D01*
X54680358Y-24288237D01*
X54778202Y-24105184D01*
X54838453Y-23906561D01*
X54858798Y-23700000D01*
X54838453Y-23493439D01*
X54778202Y-23294816D01*
X54680358Y-23111763D01*
X54548683Y-22951317D01*
X54388237Y-22819642D01*
X54205184Y-22721798D01*
X54006561Y-22661547D01*
X54006560Y-22661546D01*
X54006554Y-22661545D01*
X53850849Y-22646210D01*
X53785017Y-22619628D01*
X53744007Y-22561673D01*
X53740840Y-22490747D01*
X53776521Y-22429368D01*
X53795079Y-22414819D01*
X53836419Y-22388251D01*
X53836420Y-22388251D01*
X53836421Y-22388250D01*
X53932176Y-22277743D01*
X53992919Y-22144734D01*
X53993227Y-22142589D01*
X54013729Y-22000003D01*
X54013729Y-21999996D01*
X53992920Y-21855272D01*
X53992919Y-21855271D01*
X53992919Y-21855266D01*
X53932176Y-21722257D01*
X53836421Y-21611750D01*
X53836420Y-21611749D01*
X53743744Y-21552190D01*
X53713411Y-21532696D01*
X53678336Y-21522397D01*
X53573114Y-21491500D01*
X53573111Y-21491500D01*
X53426889Y-21491500D01*
X53426885Y-21491500D01*
X53286589Y-21532696D01*
X53286587Y-21532697D01*
X53163579Y-21611749D01*
X53067824Y-21722256D01*
X53007081Y-21855265D01*
X53007079Y-21855272D01*
X52986271Y-21999996D01*
X52986271Y-22000003D01*
X53007079Y-22144727D01*
X53007081Y-22144734D01*
X53067824Y-22277743D01*
X53163579Y-22388250D01*
X53286589Y-22467304D01*
X53368159Y-22491255D01*
X53427885Y-22529639D01*
X53457378Y-22594220D01*
X53447274Y-22664494D01*
X53400781Y-22718149D01*
X53392056Y-22723273D01*
X53211762Y-22819642D01*
X53051317Y-22951317D01*
X52919642Y-23111762D01*
X52821798Y-23294815D01*
X52761545Y-23493445D01*
X52741202Y-23699997D01*
X13500000Y-23699997D01*
X13500000Y-22499996D01*
X14736271Y-22499996D01*
X14736271Y-22500003D01*
X14757079Y-22644727D01*
X14757081Y-22644734D01*
X14817824Y-22777743D01*
X14913579Y-22888250D01*
X15036589Y-22967304D01*
X15156039Y-23002378D01*
X15176885Y-23008499D01*
X15176886Y-23008499D01*
X15176889Y-23008500D01*
X15176892Y-23008500D01*
X15323108Y-23008500D01*
X15323111Y-23008500D01*
X15463411Y-22967304D01*
X15586421Y-22888250D01*
X15682176Y-22777743D01*
X15742919Y-22644734D01*
X15754862Y-22561673D01*
X15763729Y-22500003D01*
X15763729Y-22499996D01*
X15742920Y-22355272D01*
X15742919Y-22355271D01*
X15742919Y-22355266D01*
X15682176Y-22222257D01*
X15586421Y-22111750D01*
X15586420Y-22111749D01*
X15524916Y-22072223D01*
X15463411Y-22032696D01*
X15428336Y-22022397D01*
X15323114Y-21991500D01*
X15323111Y-21991500D01*
X15176889Y-21991500D01*
X15176885Y-21991500D01*
X15036589Y-22032696D01*
X15036587Y-22032697D01*
X14913579Y-22111749D01*
X14817824Y-22222256D01*
X14757081Y-22355265D01*
X14757079Y-22355272D01*
X14736271Y-22499996D01*
X13500000Y-22499996D01*
X13500000Y-21552190D01*
X13520002Y-21484069D01*
X13536905Y-21463095D01*
X13963095Y-21036905D01*
X14025407Y-21002879D01*
X14052190Y-21000000D01*
X15000000Y-21000000D01*
X15250000Y-20750000D01*
X15250000Y-9531147D01*
X16791300Y-9531147D01*
X16791300Y-11549402D01*
X16791300Y-12075533D01*
X16793545Y-12105265D01*
X16793666Y-12106870D01*
X16793667Y-12106879D01*
X16797055Y-12129189D01*
X16798921Y-12139670D01*
X16798922Y-12139672D01*
X16837312Y-12224247D01*
X16868463Y-12265181D01*
X16901087Y-12295315D01*
X16910808Y-12305350D01*
X16931104Y-12328772D01*
X16949763Y-12350306D01*
X16969151Y-12380474D01*
X16983843Y-12412644D01*
X16993947Y-12447054D01*
X16998981Y-12482062D01*
X16998982Y-12517927D01*
X16993948Y-12552941D01*
X16983842Y-12587355D01*
X16969149Y-12619526D01*
X16949762Y-12649693D01*
X16921482Y-12682330D01*
X16902181Y-12700374D01*
X16896630Y-12704564D01*
X16879673Y-12719495D01*
X16871868Y-12726728D01*
X16821479Y-12804748D01*
X16821477Y-12804752D01*
X16803884Y-12853091D01*
X16803884Y-12853092D01*
X16793313Y-12913050D01*
X16791300Y-12924466D01*
X16791300Y-16575533D01*
X16793666Y-16606870D01*
X16793667Y-16606879D01*
X16797055Y-16629189D01*
X16798921Y-16639670D01*
X16798922Y-16639672D01*
X16837312Y-16724247D01*
X16868463Y-16765181D01*
X16901087Y-16795315D01*
X16910808Y-16805350D01*
X16914733Y-16809879D01*
X16949763Y-16850306D01*
X16969151Y-16880474D01*
X16983843Y-16912644D01*
X16993947Y-16947054D01*
X16998981Y-16982062D01*
X16998982Y-17017927D01*
X16993948Y-17052941D01*
X16983842Y-17087355D01*
X16969149Y-17119526D01*
X16949762Y-17149693D01*
X16921482Y-17182330D01*
X16902181Y-17200374D01*
X16896630Y-17204564D01*
X16879673Y-17219495D01*
X16871868Y-17226728D01*
X16821479Y-17304748D01*
X16821477Y-17304752D01*
X16803884Y-17353091D01*
X16803884Y-17353092D01*
X16791300Y-17424466D01*
X16791300Y-19468856D01*
X16791498Y-19477950D01*
X16791784Y-19484506D01*
X16811140Y-19563607D01*
X16811141Y-19563609D01*
X16832881Y-19610229D01*
X16874453Y-19669599D01*
X16961893Y-19757039D01*
X16995917Y-19819349D01*
X16997514Y-19828201D01*
X17007079Y-19894727D01*
X17007081Y-19894734D01*
X17067824Y-20027743D01*
X17163579Y-20138250D01*
X17286589Y-20217304D01*
X17426889Y-20258500D01*
X17426896Y-20258500D01*
X17427960Y-20258653D01*
X17428950Y-20259105D01*
X17435536Y-20261039D01*
X17435258Y-20261985D01*
X17492542Y-20288142D01*
X17499131Y-20294277D01*
X19080379Y-21875526D01*
X19080395Y-21875541D01*
X19080401Y-21875547D01*
X19086950Y-21881818D01*
X19091786Y-21886251D01*
X19091788Y-21886252D01*
X19091787Y-21886252D01*
X19119163Y-21902866D01*
X19161433Y-21928522D01*
X19209771Y-21946115D01*
X19281148Y-21958700D01*
X19326658Y-21958700D01*
X19326659Y-21958700D01*
X19343206Y-21958043D01*
X19355087Y-21957098D01*
X19440006Y-21931429D01*
X19484957Y-21906420D01*
X19541216Y-21860715D01*
X19573403Y-21823567D01*
X19600504Y-21800085D01*
X19630256Y-21780964D01*
X19662871Y-21766070D01*
X19696820Y-21756102D01*
X19732312Y-21751000D01*
X19767686Y-21751000D01*
X19803183Y-21756104D01*
X19837122Y-21766069D01*
X19869739Y-21780963D01*
X19899495Y-21800085D01*
X19926597Y-21823570D01*
X19958778Y-21860710D01*
X19958783Y-21860715D01*
X19958784Y-21860716D01*
X19970105Y-21872779D01*
X19978599Y-21881140D01*
X20018629Y-21906420D01*
X20053629Y-21928524D01*
X20101961Y-21946114D01*
X20101964Y-21946115D01*
X20173341Y-21958700D01*
X22076658Y-21958700D01*
X22076659Y-21958700D01*
X22093206Y-21958043D01*
X22105087Y-21957098D01*
X22190006Y-21931429D01*
X22234957Y-21906420D01*
X22291216Y-21860715D01*
X22323403Y-21823567D01*
X22350504Y-21800085D01*
X22380256Y-21780964D01*
X22412871Y-21766070D01*
X22446820Y-21756102D01*
X22482312Y-21751000D01*
X22517686Y-21751000D01*
X22553183Y-21756104D01*
X22587122Y-21766069D01*
X22619739Y-21780963D01*
X22649495Y-21800085D01*
X22676597Y-21823570D01*
X22708778Y-21860710D01*
X22708783Y-21860715D01*
X22708784Y-21860716D01*
X22720105Y-21872779D01*
X22728599Y-21881140D01*
X22768629Y-21906420D01*
X22803629Y-21928524D01*
X22851961Y-21946114D01*
X22851964Y-21946115D01*
X22923341Y-21958700D01*
X26076658Y-21958700D01*
X26076659Y-21958700D01*
X26093206Y-21958043D01*
X26105087Y-21957098D01*
X26190006Y-21931429D01*
X26234957Y-21906420D01*
X26291216Y-21860715D01*
X26323403Y-21823567D01*
X26350504Y-21800085D01*
X26380256Y-21780964D01*
X26412871Y-21766070D01*
X26446820Y-21756102D01*
X26482312Y-21751000D01*
X26517686Y-21751000D01*
X26553183Y-21756104D01*
X26587122Y-21766069D01*
X26619739Y-21780963D01*
X26649495Y-21800085D01*
X26676597Y-21823570D01*
X26708778Y-21860710D01*
X26708783Y-21860715D01*
X26708784Y-21860716D01*
X26720105Y-21872779D01*
X26728599Y-21881140D01*
X26768629Y-21906420D01*
X26803629Y-21928524D01*
X26851961Y-21946114D01*
X26851964Y-21946115D01*
X26923341Y-21958700D01*
X27826658Y-21958700D01*
X27826659Y-21958700D01*
X27843206Y-21958043D01*
X27855087Y-21957098D01*
X27940006Y-21931429D01*
X27984957Y-21906420D01*
X28041216Y-21860715D01*
X28073403Y-21823567D01*
X28100504Y-21800085D01*
X28130256Y-21780964D01*
X28162871Y-21766070D01*
X28196820Y-21756102D01*
X28232312Y-21751000D01*
X28267686Y-21751000D01*
X28303183Y-21756104D01*
X28337122Y-21766069D01*
X28369739Y-21780963D01*
X28399495Y-21800085D01*
X28426597Y-21823570D01*
X28458778Y-21860710D01*
X28458783Y-21860715D01*
X28458784Y-21860716D01*
X28470105Y-21872779D01*
X28478599Y-21881140D01*
X28518629Y-21906420D01*
X28553629Y-21928524D01*
X28601961Y-21946114D01*
X28601964Y-21946115D01*
X28673341Y-21958700D01*
X29468856Y-21958700D01*
X29469584Y-21958684D01*
X29477950Y-21958502D01*
X29484504Y-21958216D01*
X29563609Y-21938859D01*
X29610229Y-21917119D01*
X29669599Y-21875547D01*
X30125547Y-21419599D01*
X30131818Y-21413050D01*
X30136251Y-21408214D01*
X30178522Y-21338567D01*
X30196115Y-21290229D01*
X30208700Y-21218852D01*
X30208700Y-20249995D01*
X33541645Y-20249995D01*
X33541645Y-20250004D01*
X33562219Y-20472031D01*
X33623241Y-20686502D01*
X33623243Y-20686507D01*
X33722637Y-20886118D01*
X33813390Y-21006295D01*
X33813391Y-21006295D01*
X34317975Y-20501710D01*
X34349901Y-20557007D01*
X34442993Y-20650099D01*
X34498287Y-20682023D01*
X33992623Y-21187687D01*
X34021803Y-21214288D01*
X34211386Y-21331672D01*
X34211394Y-21331676D01*
X34419310Y-21412224D01*
X34419313Y-21412225D01*
X34638509Y-21453200D01*
X34861491Y-21453200D01*
X35080686Y-21412225D01*
X35080689Y-21412224D01*
X35288605Y-21331676D01*
X35288616Y-21331671D01*
X35478196Y-21214288D01*
X35478201Y-21214284D01*
X35507375Y-21187686D01*
X35001712Y-20682023D01*
X35057007Y-20650099D01*
X35150099Y-20557007D01*
X35182023Y-20501712D01*
X35686606Y-21006295D01*
X35686607Y-21006295D01*
X35777364Y-20886114D01*
X35876756Y-20686507D01*
X35876759Y-20686499D01*
X35878810Y-20679293D01*
X35916690Y-20619246D01*
X35981021Y-20589212D01*
X36051377Y-20598725D01*
X36105422Y-20644765D01*
X36121190Y-20679293D01*
X36123240Y-20686499D01*
X36123243Y-20686507D01*
X36222637Y-20886118D01*
X36313390Y-21006295D01*
X36313391Y-21006295D01*
X36817975Y-20501710D01*
X36849901Y-20557007D01*
X36942993Y-20650099D01*
X36998287Y-20682023D01*
X36492623Y-21187687D01*
X36521803Y-21214288D01*
X36711386Y-21331672D01*
X36711394Y-21331676D01*
X36919310Y-21412224D01*
X36919313Y-21412225D01*
X37138509Y-21453200D01*
X37361491Y-21453200D01*
X37580686Y-21412225D01*
X37580689Y-21412224D01*
X37788605Y-21331676D01*
X37788616Y-21331671D01*
X37978196Y-21214288D01*
X37978201Y-21214284D01*
X38007375Y-21187686D01*
X37501712Y-20682023D01*
X37557007Y-20650099D01*
X37650099Y-20557007D01*
X37682023Y-20501712D01*
X38186606Y-21006295D01*
X38186607Y-21006295D01*
X38277364Y-20886114D01*
X38376756Y-20686507D01*
X38376759Y-20686499D01*
X38411868Y-20563105D01*
X38449748Y-20503058D01*
X38514079Y-20473024D01*
X38568553Y-20476689D01*
X38676889Y-20508500D01*
X38676892Y-20508500D01*
X38823108Y-20508500D01*
X38823111Y-20508500D01*
X38963411Y-20467304D01*
X39086421Y-20388250D01*
X39182176Y-20277743D01*
X39242919Y-20144734D01*
X39253709Y-20069688D01*
X39263729Y-20000003D01*
X39263729Y-19999996D01*
X39242920Y-19855272D01*
X39242919Y-19855271D01*
X39242919Y-19855266D01*
X39182176Y-19722257D01*
X39086421Y-19611750D01*
X39086420Y-19611749D01*
X38963414Y-19532698D01*
X38963411Y-19532696D01*
X38924600Y-19521300D01*
X38823114Y-19491500D01*
X38823111Y-19491500D01*
X38676889Y-19491500D01*
X38676885Y-19491500D01*
X38536589Y-19532696D01*
X38536583Y-19532698D01*
X38419058Y-19608227D01*
X38350937Y-19628229D01*
X38282817Y-19608227D01*
X38250388Y-19578161D01*
X38186607Y-19493703D01*
X37682023Y-19998287D01*
X37650099Y-19942993D01*
X37557007Y-19849901D01*
X37501711Y-19817976D01*
X38007375Y-19312311D01*
X37978197Y-19285711D01*
X37874666Y-19221608D01*
X40957883Y-19221608D01*
X40957883Y-19221615D01*
X40978691Y-19366339D01*
X40978693Y-19366346D01*
X41039436Y-19499355D01*
X41135191Y-19609862D01*
X41258201Y-19688916D01*
X41377651Y-19723990D01*
X41398497Y-19730111D01*
X41398498Y-19730111D01*
X41398501Y-19730112D01*
X41398538Y-19730112D01*
X41398570Y-19730121D01*
X41407421Y-19731394D01*
X41407238Y-19732666D01*
X41466659Y-19750114D01*
X41513152Y-19803770D01*
X41523255Y-19838179D01*
X41535467Y-19923116D01*
X41535469Y-19923122D01*
X41596212Y-20056131D01*
X41691967Y-20166638D01*
X41814977Y-20245692D01*
X41924132Y-20277743D01*
X41955273Y-20286887D01*
X41955274Y-20286887D01*
X41955277Y-20286888D01*
X41955280Y-20286888D01*
X42101496Y-20286888D01*
X42101499Y-20286888D01*
X42241799Y-20245692D01*
X42364809Y-20166638D01*
X42460564Y-20056131D01*
X42521307Y-19923122D01*
X42523080Y-19910788D01*
X42542117Y-19778391D01*
X42542117Y-19778384D01*
X42521308Y-19633660D01*
X42521307Y-19633659D01*
X42521307Y-19633654D01*
X42460564Y-19500645D01*
X42364809Y-19390138D01*
X42364808Y-19390137D01*
X42268712Y-19328380D01*
X42241799Y-19311084D01*
X42194733Y-19297264D01*
X42101502Y-19269888D01*
X42101499Y-19269888D01*
X42101462Y-19269888D01*
X42101429Y-19269878D01*
X42092579Y-19268606D01*
X42092761Y-19267333D01*
X42033341Y-19249886D01*
X41986848Y-19196230D01*
X41976745Y-19161821D01*
X41964532Y-19076883D01*
X41964531Y-19076881D01*
X41964531Y-19076878D01*
X41903788Y-18943869D01*
X41808033Y-18833362D01*
X41808032Y-18833361D01*
X41721488Y-18777743D01*
X41685023Y-18754308D01*
X41649948Y-18744009D01*
X41544726Y-18713112D01*
X41544723Y-18713112D01*
X41398501Y-18713112D01*
X41398497Y-18713112D01*
X41258201Y-18754308D01*
X41258199Y-18754309D01*
X41135191Y-18833361D01*
X41039436Y-18943868D01*
X40978693Y-19076877D01*
X40978691Y-19076884D01*
X40957883Y-19221608D01*
X37874666Y-19221608D01*
X37788613Y-19168327D01*
X37788605Y-19168323D01*
X37580689Y-19087775D01*
X37580686Y-19087774D01*
X37361491Y-19046800D01*
X37138509Y-19046800D01*
X36919313Y-19087774D01*
X36919310Y-19087775D01*
X36711394Y-19168323D01*
X36711378Y-19168331D01*
X36521811Y-19285706D01*
X36521803Y-19285712D01*
X36492623Y-19312312D01*
X36998287Y-19817976D01*
X36942993Y-19849901D01*
X36849901Y-19942993D01*
X36817976Y-19998287D01*
X36313392Y-19493703D01*
X36313390Y-19493703D01*
X36222638Y-19613879D01*
X36123243Y-19813492D01*
X36123239Y-19813502D01*
X36121189Y-19820709D01*
X36083308Y-19880754D01*
X36018976Y-19910788D01*
X35948620Y-19901273D01*
X35894577Y-19855232D01*
X35878811Y-19820709D01*
X35876760Y-19813502D01*
X35876756Y-19813492D01*
X35777362Y-19613881D01*
X35686607Y-19493703D01*
X35182023Y-19998287D01*
X35150099Y-19942993D01*
X35057007Y-19849901D01*
X35001711Y-19817976D01*
X35507375Y-19312311D01*
X35478197Y-19285711D01*
X35288613Y-19168327D01*
X35288605Y-19168323D01*
X35080689Y-19087775D01*
X35080686Y-19087774D01*
X34861491Y-19046800D01*
X34638509Y-19046800D01*
X34419313Y-19087774D01*
X34419310Y-19087775D01*
X34211394Y-19168323D01*
X34211378Y-19168331D01*
X34021811Y-19285706D01*
X34021803Y-19285712D01*
X33992623Y-19312312D01*
X34498287Y-19817976D01*
X34442993Y-19849901D01*
X34349901Y-19942993D01*
X34317976Y-19998287D01*
X33813392Y-19493703D01*
X33813390Y-19493703D01*
X33722638Y-19613879D01*
X33623243Y-19813492D01*
X33623241Y-19813497D01*
X33562219Y-20027968D01*
X33541645Y-20249995D01*
X30208700Y-20249995D01*
X30208700Y-18499996D01*
X53986271Y-18499996D01*
X53986271Y-18500003D01*
X54007079Y-18644727D01*
X54007080Y-18644732D01*
X54007081Y-18644734D01*
X54067824Y-18777743D01*
X54067825Y-18777744D01*
X54080601Y-18792489D01*
X54110093Y-18857070D01*
X54099988Y-18927344D01*
X54080601Y-18957511D01*
X54067825Y-18972255D01*
X54067824Y-18972256D01*
X54067824Y-18972257D01*
X54056083Y-18997967D01*
X54007081Y-19105266D01*
X54007079Y-19105272D01*
X53986271Y-19249996D01*
X53986271Y-19250003D01*
X54007079Y-19394727D01*
X54007080Y-19394732D01*
X54007081Y-19394734D01*
X54067824Y-19527743D01*
X54067825Y-19527744D01*
X54080601Y-19542489D01*
X54110093Y-19607070D01*
X54099988Y-19677344D01*
X54080601Y-19707511D01*
X54067825Y-19722255D01*
X54067824Y-19722256D01*
X54067824Y-19722257D01*
X54026156Y-19813497D01*
X54007081Y-19855266D01*
X54007079Y-19855272D01*
X53986271Y-19999996D01*
X53986271Y-20000003D01*
X54007079Y-20144727D01*
X54007081Y-20144734D01*
X54067824Y-20277743D01*
X54163579Y-20388250D01*
X54286589Y-20467304D01*
X54406039Y-20502378D01*
X54426885Y-20508499D01*
X54426886Y-20508499D01*
X54426889Y-20508500D01*
X54426892Y-20508500D01*
X54573108Y-20508500D01*
X54573111Y-20508500D01*
X54713411Y-20467304D01*
X54836421Y-20388250D01*
X54932176Y-20277743D01*
X54992919Y-20144734D01*
X55003709Y-20069688D01*
X55013729Y-20000003D01*
X55013729Y-19999996D01*
X54992920Y-19855272D01*
X54992919Y-19855271D01*
X54992919Y-19855266D01*
X54932176Y-19722257D01*
X54919400Y-19707513D01*
X54889907Y-19642933D01*
X54900010Y-19572659D01*
X54919401Y-19542486D01*
X54927883Y-19532697D01*
X54932176Y-19527743D01*
X54992919Y-19394734D01*
X54997002Y-19366339D01*
X55013729Y-19250003D01*
X55013729Y-19249996D01*
X54992920Y-19105272D01*
X54992919Y-19105271D01*
X54992919Y-19105266D01*
X54932176Y-18972257D01*
X54919400Y-18957513D01*
X54889907Y-18892933D01*
X54900010Y-18822659D01*
X54919401Y-18792486D01*
X54932176Y-18777743D01*
X54992919Y-18644734D01*
X55013729Y-18500000D01*
X55013729Y-18499996D01*
X55986271Y-18499996D01*
X55986271Y-18500003D01*
X56007079Y-18644727D01*
X56007080Y-18644732D01*
X56007081Y-18644734D01*
X56067824Y-18777743D01*
X56067825Y-18777744D01*
X56080601Y-18792489D01*
X56110093Y-18857070D01*
X56099988Y-18927344D01*
X56080601Y-18957511D01*
X56067825Y-18972255D01*
X56067824Y-18972256D01*
X56067824Y-18972257D01*
X56056083Y-18997967D01*
X56007081Y-19105266D01*
X56007079Y-19105272D01*
X55986271Y-19249996D01*
X55986271Y-19250003D01*
X56007079Y-19394727D01*
X56007080Y-19394732D01*
X56007081Y-19394734D01*
X56067824Y-19527743D01*
X56067825Y-19527744D01*
X56080601Y-19542489D01*
X56110093Y-19607070D01*
X56099988Y-19677344D01*
X56080601Y-19707511D01*
X56067825Y-19722255D01*
X56067824Y-19722256D01*
X56067824Y-19722257D01*
X56026156Y-19813497D01*
X56007081Y-19855266D01*
X56007079Y-19855272D01*
X55986271Y-19999996D01*
X55986271Y-20000003D01*
X56007079Y-20144727D01*
X56007081Y-20144734D01*
X56067824Y-20277743D01*
X56163579Y-20388250D01*
X56286589Y-20467304D01*
X56406039Y-20502378D01*
X56426885Y-20508499D01*
X56426886Y-20508499D01*
X56426889Y-20508500D01*
X56426892Y-20508500D01*
X56573108Y-20508500D01*
X56573111Y-20508500D01*
X56713411Y-20467304D01*
X56836421Y-20388250D01*
X56932176Y-20277743D01*
X56992919Y-20144734D01*
X57003709Y-20069688D01*
X57013729Y-20000003D01*
X57013729Y-19999998D01*
X57002675Y-19923122D01*
X56998186Y-19891899D01*
X57008289Y-19821626D01*
X57054781Y-19767970D01*
X57122902Y-19747967D01*
X57158402Y-19753071D01*
X57176889Y-19758500D01*
X57176892Y-19758500D01*
X57323108Y-19758500D01*
X57323111Y-19758500D01*
X57463411Y-19717304D01*
X57586421Y-19638250D01*
X57682176Y-19527743D01*
X57742919Y-19394734D01*
X57747002Y-19366339D01*
X57763729Y-19250003D01*
X57763729Y-19249998D01*
X57753609Y-19179616D01*
X57748186Y-19141899D01*
X57758289Y-19071626D01*
X57804781Y-19017970D01*
X57872902Y-18997967D01*
X57908402Y-19003071D01*
X57926889Y-19008500D01*
X57926892Y-19008500D01*
X58073108Y-19008500D01*
X58073111Y-19008500D01*
X58213411Y-18967304D01*
X58336421Y-18888250D01*
X58432176Y-18777743D01*
X58492919Y-18644734D01*
X58513729Y-18500000D01*
X58513729Y-18499996D01*
X58492920Y-18355272D01*
X58492919Y-18355271D01*
X58492919Y-18355266D01*
X58432176Y-18222257D01*
X58336421Y-18111750D01*
X58336420Y-18111749D01*
X58274916Y-18072223D01*
X58213411Y-18032696D01*
X58178336Y-18022397D01*
X58073114Y-17991500D01*
X58073111Y-17991500D01*
X57926889Y-17991500D01*
X57926885Y-17991500D01*
X57786589Y-18032696D01*
X57786587Y-18032697D01*
X57693121Y-18092764D01*
X57625000Y-18112766D01*
X57556879Y-18092764D01*
X57505101Y-18059489D01*
X57463411Y-18032696D01*
X57428336Y-18022397D01*
X57323114Y-17991500D01*
X57323111Y-17991500D01*
X57176889Y-17991500D01*
X57176885Y-17991500D01*
X57036589Y-18032696D01*
X57036587Y-18032697D01*
X56943121Y-18092764D01*
X56875000Y-18112766D01*
X56806879Y-18092764D01*
X56755101Y-18059489D01*
X56713411Y-18032696D01*
X56678336Y-18022397D01*
X56573114Y-17991500D01*
X56573111Y-17991500D01*
X56426889Y-17991500D01*
X56426885Y-17991500D01*
X56286589Y-18032696D01*
X56286587Y-18032697D01*
X56163579Y-18111749D01*
X56067824Y-18222256D01*
X56007081Y-18355265D01*
X56007079Y-18355272D01*
X55986271Y-18499996D01*
X55013729Y-18499996D01*
X54992920Y-18355272D01*
X54992919Y-18355271D01*
X54992919Y-18355266D01*
X54932176Y-18222257D01*
X54836421Y-18111750D01*
X54836420Y-18111749D01*
X54774916Y-18072223D01*
X54713411Y-18032696D01*
X54678336Y-18022397D01*
X54573114Y-17991500D01*
X54573111Y-17991500D01*
X54426889Y-17991500D01*
X54426885Y-17991500D01*
X54286589Y-18032696D01*
X54286587Y-18032697D01*
X54163579Y-18111749D01*
X54067824Y-18222256D01*
X54007081Y-18355265D01*
X54007079Y-18355272D01*
X53986271Y-18499996D01*
X30208700Y-18499996D01*
X30208700Y-17388634D01*
X30228702Y-17320513D01*
X30245605Y-17299539D01*
X33331205Y-14213939D01*
X33393517Y-14179913D01*
X33464332Y-14184978D01*
X33521168Y-14227525D01*
X33545979Y-14294045D01*
X33546300Y-14303034D01*
X33546300Y-16270064D01*
X33558118Y-16329479D01*
X33558119Y-16329480D01*
X33603140Y-16396860D01*
X33670520Y-16441881D01*
X33729936Y-16453700D01*
X33729941Y-16453700D01*
X35770059Y-16453700D01*
X35770064Y-16453700D01*
X35829480Y-16441881D01*
X35896860Y-16396860D01*
X35896861Y-16396858D01*
X35896863Y-16396857D01*
X35905636Y-16388085D01*
X35907006Y-16389455D01*
X35949709Y-16353766D01*
X36020152Y-16344916D01*
X36084197Y-16375556D01*
X36099528Y-16393249D01*
X36103136Y-16396857D01*
X36103139Y-16396859D01*
X36103140Y-16396860D01*
X36170520Y-16441881D01*
X36229936Y-16453700D01*
X36229941Y-16453700D01*
X38270059Y-16453700D01*
X38270064Y-16453700D01*
X38329480Y-16441881D01*
X38396860Y-16396860D01*
X38441881Y-16329480D01*
X38453700Y-16270064D01*
X38453700Y-14610719D01*
X53657041Y-14610719D01*
X53657041Y-14610726D01*
X53677849Y-14755450D01*
X53677851Y-14755457D01*
X53738594Y-14888466D01*
X53834349Y-14998973D01*
X53957359Y-15078027D01*
X54076809Y-15113101D01*
X54097655Y-15119222D01*
X54097656Y-15119222D01*
X54097659Y-15119223D01*
X54097662Y-15119223D01*
X54243878Y-15119223D01*
X54243881Y-15119223D01*
X54384181Y-15078027D01*
X54507191Y-14998973D01*
X54602946Y-14888466D01*
X54663689Y-14755457D01*
X54684499Y-14610723D01*
X54684499Y-14610719D01*
X54663690Y-14465995D01*
X54663689Y-14465994D01*
X54663689Y-14465989D01*
X54602946Y-14332980D01*
X54507191Y-14222473D01*
X54507190Y-14222472D01*
X54425769Y-14170146D01*
X54384181Y-14143419D01*
X54349106Y-14133120D01*
X54243884Y-14102223D01*
X54243881Y-14102223D01*
X54097659Y-14102223D01*
X54097655Y-14102223D01*
X53957359Y-14143419D01*
X53957357Y-14143420D01*
X53834349Y-14222472D01*
X53738594Y-14332979D01*
X53677851Y-14465988D01*
X53677849Y-14465995D01*
X53657041Y-14610719D01*
X38453700Y-14610719D01*
X38453700Y-14229936D01*
X38441881Y-14170520D01*
X38396860Y-14103140D01*
X38329480Y-14058119D01*
X38329479Y-14058118D01*
X38270064Y-14046300D01*
X36229936Y-14046300D01*
X36229935Y-14046300D01*
X36170520Y-14058118D01*
X36103136Y-14103142D01*
X36094364Y-14111915D01*
X36092994Y-14110545D01*
X36050284Y-14146236D01*
X35979841Y-14155082D01*
X35915798Y-14124438D01*
X35900464Y-14106743D01*
X35896863Y-14103142D01*
X35829479Y-14058118D01*
X35770064Y-14046300D01*
X33793460Y-14046300D01*
X33725339Y-14026298D01*
X33678846Y-13972642D01*
X33668742Y-13902368D01*
X33691260Y-13846604D01*
X33711487Y-13818555D01*
X33732747Y-13776084D01*
X33740916Y-13749996D01*
X40486271Y-13749996D01*
X40486271Y-13750003D01*
X40507079Y-13894727D01*
X40507081Y-13894734D01*
X40567824Y-14027743D01*
X40663579Y-14138250D01*
X40786589Y-14217304D01*
X40894535Y-14249000D01*
X40926885Y-14258499D01*
X40926886Y-14258499D01*
X40926889Y-14258500D01*
X40926892Y-14258500D01*
X41073108Y-14258500D01*
X41073111Y-14258500D01*
X41213411Y-14217304D01*
X41306880Y-14157234D01*
X41374999Y-14137233D01*
X41443120Y-14157235D01*
X41536589Y-14217304D01*
X41644535Y-14249000D01*
X41676885Y-14258499D01*
X41676886Y-14258499D01*
X41676889Y-14258500D01*
X41676892Y-14258500D01*
X41823108Y-14258500D01*
X41823111Y-14258500D01*
X41963411Y-14217304D01*
X42056880Y-14157234D01*
X42124999Y-14137233D01*
X42193120Y-14157235D01*
X42286589Y-14217304D01*
X42394535Y-14249000D01*
X42426885Y-14258499D01*
X42426886Y-14258499D01*
X42426889Y-14258500D01*
X42426892Y-14258500D01*
X42573108Y-14258500D01*
X42573111Y-14258500D01*
X42713411Y-14217304D01*
X42836421Y-14138250D01*
X42932176Y-14027743D01*
X42992919Y-13894734D01*
X42997265Y-13864505D01*
X43013729Y-13750003D01*
X43013729Y-13749996D01*
X43486257Y-13749996D01*
X43486257Y-13750003D01*
X43507065Y-13894727D01*
X43507067Y-13894734D01*
X43567810Y-14027743D01*
X43663565Y-14138250D01*
X43786575Y-14217304D01*
X43894521Y-14249000D01*
X43926871Y-14258499D01*
X43926872Y-14258499D01*
X43926875Y-14258500D01*
X43926878Y-14258500D01*
X44073094Y-14258500D01*
X44073097Y-14258500D01*
X44213397Y-14217304D01*
X44336407Y-14138250D01*
X44432162Y-14027743D01*
X44492905Y-13894734D01*
X44497251Y-13864505D01*
X44513715Y-13750003D01*
X44513715Y-13749996D01*
X44506526Y-13699996D01*
X59786271Y-13699996D01*
X59786271Y-13700003D01*
X59807079Y-13844727D01*
X59807081Y-13844734D01*
X59867824Y-13977743D01*
X59963579Y-14088250D01*
X60086589Y-14167304D01*
X60206039Y-14202378D01*
X60226885Y-14208499D01*
X60226886Y-14208499D01*
X60226889Y-14208500D01*
X60226892Y-14208500D01*
X60373108Y-14208500D01*
X60373111Y-14208500D01*
X60513411Y-14167304D01*
X60636421Y-14088250D01*
X60732176Y-13977743D01*
X60759387Y-13918158D01*
X60805879Y-13864505D01*
X60873999Y-13844502D01*
X60942120Y-13864504D01*
X60988613Y-13918159D01*
X61000000Y-13970502D01*
X61000000Y-17500001D01*
X61249998Y-17749999D01*
X61250000Y-17750000D01*
X62500000Y-17750000D01*
X62750000Y-17500000D01*
X62750000Y-12250000D01*
X62749999Y-12249998D01*
X62500001Y-12000000D01*
X62500000Y-12000000D01*
X61250000Y-12000000D01*
X61249998Y-12000000D01*
X61000000Y-12249998D01*
X61000000Y-13429497D01*
X60979998Y-13497618D01*
X60926342Y-13544111D01*
X60856068Y-13554215D01*
X60791488Y-13524721D01*
X60759386Y-13481839D01*
X60744121Y-13448413D01*
X60732176Y-13422257D01*
X60636421Y-13311750D01*
X60636420Y-13311749D01*
X60520119Y-13237007D01*
X60513411Y-13232696D01*
X60478336Y-13222397D01*
X60373114Y-13191500D01*
X60373111Y-13191500D01*
X60226889Y-13191500D01*
X60226885Y-13191500D01*
X60086589Y-13232696D01*
X60086587Y-13232697D01*
X59963579Y-13311749D01*
X59867824Y-13422256D01*
X59807081Y-13555265D01*
X59807079Y-13555272D01*
X59786271Y-13699996D01*
X44506526Y-13699996D01*
X44492906Y-13605272D01*
X44492905Y-13605271D01*
X44492905Y-13605266D01*
X44482857Y-13583265D01*
X44472753Y-13512994D01*
X44502245Y-13448413D01*
X44529346Y-13424929D01*
X44586421Y-13388250D01*
X44682176Y-13277743D01*
X44742919Y-13144734D01*
X44757844Y-13040930D01*
X44763729Y-13000003D01*
X44763729Y-12999996D01*
X44742920Y-12855272D01*
X44742919Y-12855271D01*
X44742919Y-12855266D01*
X44682176Y-12722257D01*
X44669400Y-12707513D01*
X44639907Y-12642933D01*
X44650010Y-12572659D01*
X44669401Y-12542486D01*
X44682176Y-12527743D01*
X44742919Y-12394734D01*
X44756531Y-12300062D01*
X44763729Y-12250003D01*
X44763729Y-12249996D01*
X44742920Y-12105272D01*
X44742919Y-12105271D01*
X44742919Y-12105266D01*
X44682176Y-11972257D01*
X44586421Y-11861750D01*
X44586420Y-11861749D01*
X44524916Y-11822223D01*
X44463411Y-11782696D01*
X44428336Y-11772397D01*
X44323114Y-11741500D01*
X44323111Y-11741500D01*
X44176889Y-11741500D01*
X44176885Y-11741500D01*
X44036589Y-11782696D01*
X44036587Y-11782697D01*
X43913579Y-11861749D01*
X43817824Y-11972256D01*
X43757081Y-12105265D01*
X43757079Y-12105272D01*
X43736271Y-12249996D01*
X43736271Y-12250003D01*
X43757079Y-12394727D01*
X43757080Y-12394732D01*
X43757081Y-12394734D01*
X43817824Y-12527743D01*
X43817825Y-12527744D01*
X43830601Y-12542489D01*
X43860093Y-12607070D01*
X43849988Y-12677344D01*
X43830601Y-12707511D01*
X43817825Y-12722255D01*
X43757081Y-12855266D01*
X43757079Y-12855272D01*
X43736271Y-12999996D01*
X43736271Y-13000003D01*
X43757079Y-13144727D01*
X43757081Y-13144734D01*
X43767128Y-13166733D01*
X43777231Y-13237007D01*
X43747738Y-13301588D01*
X43720635Y-13325073D01*
X43663565Y-13361749D01*
X43567810Y-13472256D01*
X43507067Y-13605265D01*
X43507065Y-13605272D01*
X43486257Y-13749996D01*
X43013729Y-13749996D01*
X42992920Y-13605272D01*
X42992919Y-13605271D01*
X42992919Y-13605266D01*
X42932176Y-13472257D01*
X42836421Y-13361750D01*
X42836420Y-13361749D01*
X42740336Y-13300000D01*
X42713411Y-13282696D01*
X42678336Y-13272397D01*
X42573114Y-13241500D01*
X42573111Y-13241500D01*
X42426889Y-13241500D01*
X42426885Y-13241500D01*
X42286589Y-13282696D01*
X42286587Y-13282697D01*
X42193121Y-13342764D01*
X42125000Y-13362766D01*
X42056879Y-13342764D01*
X41990336Y-13300000D01*
X41963411Y-13282696D01*
X41928336Y-13272397D01*
X41823114Y-13241500D01*
X41823111Y-13241500D01*
X41676889Y-13241500D01*
X41676885Y-13241500D01*
X41536589Y-13282696D01*
X41536587Y-13282697D01*
X41443121Y-13342764D01*
X41375000Y-13362766D01*
X41306879Y-13342764D01*
X41240336Y-13300000D01*
X41213411Y-13282696D01*
X41178336Y-13272397D01*
X41073114Y-13241500D01*
X41073111Y-13241500D01*
X40926889Y-13241500D01*
X40926885Y-13241500D01*
X40786589Y-13282696D01*
X40786587Y-13282697D01*
X40663579Y-13361749D01*
X40567824Y-13472256D01*
X40507081Y-13605265D01*
X40507079Y-13605272D01*
X40486271Y-13749996D01*
X33740916Y-13749996D01*
X33752699Y-13712367D01*
X33756051Y-13689049D01*
X33766153Y-13654642D01*
X33780846Y-13622469D01*
X33800233Y-13592304D01*
X33823402Y-13565565D01*
X33850499Y-13542085D01*
X33880258Y-13522961D01*
X33912871Y-13508068D01*
X33992987Y-13484545D01*
X33992986Y-13484544D01*
X34025363Y-13475038D01*
X34026444Y-13474492D01*
X34029304Y-13473158D01*
X34029311Y-13473157D01*
X34035013Y-13470497D01*
X34088247Y-13458700D01*
X35468856Y-13458700D01*
X35469584Y-13458684D01*
X35477950Y-13458502D01*
X35484504Y-13458216D01*
X35563609Y-13438859D01*
X35610229Y-13417119D01*
X35669599Y-13375547D01*
X36125547Y-12919599D01*
X36131818Y-12913050D01*
X36136251Y-12908214D01*
X36178522Y-12838567D01*
X36196115Y-12790229D01*
X36208700Y-12718852D01*
X36208700Y-8749996D01*
X40486271Y-8749996D01*
X40486271Y-8750003D01*
X40507079Y-8894727D01*
X40507081Y-8894733D01*
X40507081Y-8894734D01*
X40567824Y-9027743D01*
X40663579Y-9138250D01*
X40786589Y-9217304D01*
X40897934Y-9249998D01*
X40926885Y-9258499D01*
X40926886Y-9258499D01*
X40926889Y-9258500D01*
X40926892Y-9258500D01*
X41073108Y-9258500D01*
X41073111Y-9258500D01*
X41213411Y-9217304D01*
X41306880Y-9157234D01*
X41374999Y-9137233D01*
X41443120Y-9157235D01*
X41536589Y-9217304D01*
X41647934Y-9249998D01*
X41676885Y-9258499D01*
X41676886Y-9258499D01*
X41676889Y-9258500D01*
X41676892Y-9258500D01*
X41823108Y-9258500D01*
X41823111Y-9258500D01*
X41963411Y-9217304D01*
X42056880Y-9157234D01*
X42124999Y-9137233D01*
X42193120Y-9157235D01*
X42286589Y-9217304D01*
X42397934Y-9249998D01*
X42426885Y-9258499D01*
X42426886Y-9258499D01*
X42426889Y-9258500D01*
X42426892Y-9258500D01*
X42573108Y-9258500D01*
X42573111Y-9258500D01*
X42713411Y-9217304D01*
X42836421Y-9138250D01*
X42932176Y-9027743D01*
X42992919Y-8894734D01*
X43013729Y-8750000D01*
X43013729Y-8749996D01*
X43486315Y-8749996D01*
X43486315Y-8750003D01*
X43507123Y-8894727D01*
X43507125Y-8894734D01*
X43567868Y-9027743D01*
X43646249Y-9118200D01*
X43663623Y-9138250D01*
X43720649Y-9174898D01*
X43767140Y-9228552D01*
X43777245Y-9298826D01*
X43767142Y-9333235D01*
X43757081Y-9355265D01*
X43757079Y-9355272D01*
X43736271Y-9499996D01*
X43736271Y-9500003D01*
X43757079Y-9644727D01*
X43757080Y-9644732D01*
X43757081Y-9644734D01*
X43817824Y-9777743D01*
X43817825Y-9777744D01*
X43830601Y-9792489D01*
X43860093Y-9857070D01*
X43849988Y-9927344D01*
X43830601Y-9957511D01*
X43817825Y-9972255D01*
X43817824Y-9972256D01*
X43817824Y-9972257D01*
X43757081Y-10105265D01*
X43757081Y-10105266D01*
X43757079Y-10105272D01*
X43736271Y-10249996D01*
X43736271Y-10250003D01*
X43757079Y-10394727D01*
X43757081Y-10394734D01*
X43817824Y-10527743D01*
X43913579Y-10638250D01*
X44036589Y-10717304D01*
X44156039Y-10752378D01*
X44176885Y-10758499D01*
X44176886Y-10758499D01*
X44176889Y-10758500D01*
X44176892Y-10758500D01*
X44323108Y-10758500D01*
X44323111Y-10758500D01*
X44463411Y-10717304D01*
X44586421Y-10638250D01*
X44682176Y-10527743D01*
X44742919Y-10394734D01*
X44753435Y-10321598D01*
X44763729Y-10250003D01*
X44763729Y-10249996D01*
X44742920Y-10105272D01*
X44742919Y-10105271D01*
X44742919Y-10105266D01*
X44682176Y-9972257D01*
X44669400Y-9957513D01*
X44639907Y-9892933D01*
X44650010Y-9822659D01*
X44669401Y-9792486D01*
X44682176Y-9777743D01*
X44694849Y-9749994D01*
X47236271Y-9749994D01*
X47236271Y-9750001D01*
X47257079Y-9894725D01*
X47257080Y-9894727D01*
X47257081Y-9894732D01*
X47317824Y-10027741D01*
X47413579Y-10138248D01*
X47536589Y-10217302D01*
X47647934Y-10249996D01*
X47662425Y-10254251D01*
X47722151Y-10292635D01*
X47751644Y-10357216D01*
X47751644Y-10393078D01*
X47744881Y-10440118D01*
X47736272Y-10499998D01*
X47736271Y-10500002D01*
X47736271Y-10500003D01*
X47757079Y-10644727D01*
X47757081Y-10644734D01*
X47817824Y-10777743D01*
X47913579Y-10888250D01*
X48036589Y-10967304D01*
X48156039Y-11002378D01*
X48176885Y-11008499D01*
X48176886Y-11008499D01*
X48176889Y-11008500D01*
X48176892Y-11008500D01*
X48323108Y-11008500D01*
X48323111Y-11008500D01*
X48463411Y-10967304D01*
X48586421Y-10888250D01*
X48682176Y-10777743D01*
X48742919Y-10644734D01*
X48747232Y-10614736D01*
X48763729Y-10500003D01*
X48763729Y-10499998D01*
X48748356Y-10393082D01*
X48758459Y-10322808D01*
X48804951Y-10269152D01*
X48837575Y-10254253D01*
X48852073Y-10249996D01*
X48963411Y-10217304D01*
X49086421Y-10138250D01*
X49182176Y-10027743D01*
X49242919Y-9894734D01*
X49250169Y-9844308D01*
X49263729Y-9750003D01*
X49263729Y-9749996D01*
X49242920Y-9605272D01*
X49242919Y-9605271D01*
X49242919Y-9605266D01*
X49182176Y-9472257D01*
X49086421Y-9361750D01*
X49086420Y-9361749D01*
X49012614Y-9314317D01*
X48963411Y-9282696D01*
X48928336Y-9272397D01*
X48823114Y-9241500D01*
X48823111Y-9241500D01*
X48676889Y-9241500D01*
X48676885Y-9241500D01*
X48536589Y-9282696D01*
X48536587Y-9282697D01*
X48413578Y-9361750D01*
X48345223Y-9440635D01*
X48285497Y-9479018D01*
X48214500Y-9479017D01*
X48154776Y-9440633D01*
X48086423Y-9361749D01*
X48086421Y-9361748D01*
X48031442Y-9326415D01*
X47963411Y-9282694D01*
X47928336Y-9272395D01*
X47823114Y-9241498D01*
X47823111Y-9241498D01*
X47676889Y-9241498D01*
X47676885Y-9241498D01*
X47536589Y-9282694D01*
X47536587Y-9282695D01*
X47413579Y-9361747D01*
X47317824Y-9472254D01*
X47257081Y-9605263D01*
X47257079Y-9605270D01*
X47236271Y-9749994D01*
X44694849Y-9749994D01*
X44742919Y-9644734D01*
X44763729Y-9500000D01*
X44763729Y-9499996D01*
X44742920Y-9355272D01*
X44742919Y-9355271D01*
X44742919Y-9355266D01*
X44682176Y-9222257D01*
X44667423Y-9205231D01*
X44586420Y-9111748D01*
X44586417Y-9111746D01*
X44529395Y-9075100D01*
X44482902Y-9021445D01*
X44472799Y-8951171D01*
X44482901Y-8916765D01*
X44492963Y-8894734D01*
X44513773Y-8750000D01*
X44513773Y-8749996D01*
X44492964Y-8605272D01*
X44492963Y-8605271D01*
X44492963Y-8605266D01*
X44432220Y-8472257D01*
X44336465Y-8361750D01*
X44336464Y-8361749D01*
X44274960Y-8322223D01*
X44213455Y-8282696D01*
X44178380Y-8272397D01*
X44073158Y-8241500D01*
X44073155Y-8241500D01*
X43926933Y-8241500D01*
X43926929Y-8241500D01*
X43786633Y-8282696D01*
X43786631Y-8282697D01*
X43663623Y-8361749D01*
X43567868Y-8472256D01*
X43507125Y-8605265D01*
X43507123Y-8605272D01*
X43486315Y-8749996D01*
X43013729Y-8749996D01*
X42992920Y-8605272D01*
X42992919Y-8605271D01*
X42992919Y-8605266D01*
X42932176Y-8472257D01*
X42836421Y-8361750D01*
X42836420Y-8361749D01*
X42774916Y-8322223D01*
X42713411Y-8282696D01*
X42678336Y-8272397D01*
X42573114Y-8241500D01*
X42573111Y-8241500D01*
X42426889Y-8241500D01*
X42426885Y-8241500D01*
X42286589Y-8282696D01*
X42286587Y-8282697D01*
X42193121Y-8342764D01*
X42125000Y-8362766D01*
X42056879Y-8342764D01*
X42005101Y-8309489D01*
X41963411Y-8282696D01*
X41928336Y-8272397D01*
X41823114Y-8241500D01*
X41823111Y-8241500D01*
X41676889Y-8241500D01*
X41676885Y-8241500D01*
X41536589Y-8282696D01*
X41536587Y-8282697D01*
X41443121Y-8342764D01*
X41375000Y-8362766D01*
X41306879Y-8342764D01*
X41255101Y-8309489D01*
X41213411Y-8282696D01*
X41178336Y-8272397D01*
X41073114Y-8241500D01*
X41073111Y-8241500D01*
X40926889Y-8241500D01*
X40926885Y-8241500D01*
X40786589Y-8282696D01*
X40786587Y-8282697D01*
X40663579Y-8361749D01*
X40567824Y-8472256D01*
X40507081Y-8605265D01*
X40507079Y-8605272D01*
X40486271Y-8749996D01*
X36208700Y-8749996D01*
X36208700Y-6281148D01*
X36208502Y-6272050D01*
X36208216Y-6265496D01*
X36188859Y-6186391D01*
X36167119Y-6139771D01*
X36125547Y-6080401D01*
X36125546Y-6080400D01*
X36125541Y-6080394D01*
X35669620Y-5624473D01*
X35663060Y-5618192D01*
X35663050Y-5618182D01*
X35658214Y-5613749D01*
X35658211Y-5613747D01*
X35658212Y-5613747D01*
X35588565Y-5571477D01*
X35540230Y-5553885D01*
X35540225Y-5553884D01*
X35468852Y-5541300D01*
X34128847Y-5541300D01*
X34060726Y-5521298D01*
X34014233Y-5467642D01*
X34004130Y-5433233D01*
X33992920Y-5355271D01*
X33992919Y-5355269D01*
X33992919Y-5355266D01*
X33932176Y-5222257D01*
X33836421Y-5111750D01*
X33836420Y-5111749D01*
X33774916Y-5072223D01*
X33713411Y-5032696D01*
X33678336Y-5022397D01*
X33573114Y-4991500D01*
X33573111Y-4991500D01*
X33426889Y-4991500D01*
X33426885Y-4991500D01*
X33286589Y-5032696D01*
X33286587Y-5032697D01*
X33163579Y-5111749D01*
X33067824Y-5222256D01*
X33007081Y-5355265D01*
X33007079Y-5355272D01*
X32999717Y-5406479D01*
X32970224Y-5471060D01*
X32910498Y-5509443D01*
X32839501Y-5509443D01*
X32779775Y-5471059D01*
X32750283Y-5406479D01*
X32742920Y-5355272D01*
X32742919Y-5355271D01*
X32742919Y-5355266D01*
X32682176Y-5222257D01*
X32586421Y-5111750D01*
X32586420Y-5111749D01*
X32524916Y-5072223D01*
X32463411Y-5032696D01*
X32428336Y-5022397D01*
X32323114Y-4991500D01*
X32323111Y-4991500D01*
X32176889Y-4991500D01*
X32176885Y-4991500D01*
X32036589Y-5032696D01*
X32036587Y-5032697D01*
X31913579Y-5111749D01*
X31817824Y-5222256D01*
X31757081Y-5355265D01*
X31757079Y-5355271D01*
X31745870Y-5433233D01*
X31716377Y-5497813D01*
X31656650Y-5536196D01*
X31621153Y-5541300D01*
X31405900Y-5541300D01*
X31337779Y-5521298D01*
X31291286Y-5467642D01*
X31279900Y-5415300D01*
X31279900Y-3357407D01*
X59324500Y-3357407D01*
X59324500Y-3642592D01*
X59361721Y-3925323D01*
X59361723Y-3925330D01*
X59435533Y-4200792D01*
X59544667Y-4464264D01*
X59544668Y-4464265D01*
X59544673Y-4464275D01*
X59687254Y-4711232D01*
X59860863Y-4937485D01*
X59860872Y-4937495D01*
X60062504Y-5139127D01*
X60062514Y-5139136D01*
X60062515Y-5139137D01*
X60170838Y-5222256D01*
X60288767Y-5312745D01*
X60362424Y-5355271D01*
X60535736Y-5455333D01*
X60799208Y-5564467D01*
X61074670Y-5638277D01*
X61074674Y-5638277D01*
X61074676Y-5638278D01*
X61147546Y-5647871D01*
X61357410Y-5675500D01*
X61357417Y-5675500D01*
X61642583Y-5675500D01*
X61642590Y-5675500D01*
X61898115Y-5641859D01*
X61925323Y-5638278D01*
X61925323Y-5638277D01*
X61925330Y-5638277D01*
X62200792Y-5564467D01*
X62464264Y-5455333D01*
X62711236Y-5312743D01*
X62937485Y-5139137D01*
X63139137Y-4937485D01*
X63312743Y-4711236D01*
X63455333Y-4464264D01*
X63564467Y-4200792D01*
X63638277Y-3925330D01*
X63675500Y-3642590D01*
X63675500Y-3357410D01*
X63638277Y-3074670D01*
X63564467Y-2799208D01*
X63455333Y-2535736D01*
X63312743Y-2288764D01*
X63139137Y-2062515D01*
X63139136Y-2062514D01*
X63139127Y-2062504D01*
X62937495Y-1860872D01*
X62937485Y-1860863D01*
X62711232Y-1687254D01*
X62464275Y-1544673D01*
X62464270Y-1544670D01*
X62464264Y-1544667D01*
X62200792Y-1435533D01*
X61925330Y-1361723D01*
X61925323Y-1361721D01*
X61642592Y-1324500D01*
X61642590Y-1324500D01*
X61357410Y-1324500D01*
X61357407Y-1324500D01*
X61074676Y-1361721D01*
X60958801Y-1392770D01*
X60799208Y-1435533D01*
X60563908Y-1532998D01*
X60535734Y-1544668D01*
X60535724Y-1544673D01*
X60288767Y-1687254D01*
X60062514Y-1860863D01*
X60062504Y-1860872D01*
X59860872Y-2062504D01*
X59860863Y-2062514D01*
X59687254Y-2288767D01*
X59544673Y-2535724D01*
X59544668Y-2535734D01*
X59435533Y-2799208D01*
X59435532Y-2799212D01*
X59361721Y-3074676D01*
X59324500Y-3357407D01*
X31279900Y-3357407D01*
X31279900Y-1999996D01*
X47736271Y-1999996D01*
X47736271Y-2000003D01*
X47757079Y-2144727D01*
X47757081Y-2144733D01*
X47757081Y-2144734D01*
X47817824Y-2277743D01*
X47913579Y-2388250D01*
X48036589Y-2467304D01*
X48143323Y-2498644D01*
X48176885Y-2508499D01*
X48176886Y-2508499D01*
X48176889Y-2508500D01*
X48176892Y-2508500D01*
X48323108Y-2508500D01*
X48323111Y-2508500D01*
X48463411Y-2467304D01*
X48586421Y-2388250D01*
X48682176Y-2277743D01*
X48742919Y-2144734D01*
X48748311Y-2107228D01*
X48777802Y-2042651D01*
X48837525Y-2004267D01*
X48963411Y-1967304D01*
X49056880Y-1907234D01*
X49124999Y-1887233D01*
X49193120Y-1907235D01*
X49286589Y-1967304D01*
X49397927Y-1999996D01*
X49426885Y-2008499D01*
X49426886Y-2008499D01*
X49426889Y-2008500D01*
X49426892Y-2008500D01*
X49573108Y-2008500D01*
X49573111Y-2008500D01*
X49713411Y-1967304D01*
X49806880Y-1907234D01*
X49874999Y-1887233D01*
X49943120Y-1907235D01*
X50036589Y-1967304D01*
X50147927Y-1999996D01*
X50176885Y-2008499D01*
X50176886Y-2008499D01*
X50176889Y-2008500D01*
X50176892Y-2008500D01*
X50323108Y-2008500D01*
X50323111Y-2008500D01*
X50463411Y-1967304D01*
X50556880Y-1907234D01*
X50624999Y-1887233D01*
X50693120Y-1907235D01*
X50786589Y-1967304D01*
X50897927Y-1999996D01*
X50926885Y-2008499D01*
X50926886Y-2008499D01*
X50926889Y-2008500D01*
X50926892Y-2008500D01*
X51073108Y-2008500D01*
X51073111Y-2008500D01*
X51213411Y-1967304D01*
X51306880Y-1907234D01*
X51374999Y-1887233D01*
X51443120Y-1907235D01*
X51536589Y-1967304D01*
X51647927Y-1999996D01*
X51676885Y-2008499D01*
X51676886Y-2008499D01*
X51676889Y-2008500D01*
X51676892Y-2008500D01*
X51823108Y-2008500D01*
X51823111Y-2008500D01*
X51963411Y-1967304D01*
X52056880Y-1907234D01*
X52124999Y-1887233D01*
X52193120Y-1907235D01*
X52286589Y-1967304D01*
X52397927Y-1999996D01*
X52426885Y-2008499D01*
X52426886Y-2008499D01*
X52426889Y-2008500D01*
X52426892Y-2008500D01*
X52573108Y-2008500D01*
X52573111Y-2008500D01*
X52713411Y-1967304D01*
X52806880Y-1907234D01*
X52874999Y-1887233D01*
X52943120Y-1907235D01*
X53036589Y-1967304D01*
X53162470Y-2004266D01*
X53222196Y-2042650D01*
X53251688Y-2107230D01*
X53257079Y-2144727D01*
X53257081Y-2144733D01*
X53257081Y-2144734D01*
X53317824Y-2277743D01*
X53413579Y-2388250D01*
X53536589Y-2467304D01*
X53643323Y-2498644D01*
X53676885Y-2508499D01*
X53676886Y-2508499D01*
X53676889Y-2508500D01*
X53676892Y-2508500D01*
X53823108Y-2508500D01*
X53823111Y-2508500D01*
X53963411Y-2467304D01*
X54086421Y-2388250D01*
X54182176Y-2277743D01*
X54242919Y-2144734D01*
X54263729Y-2000000D01*
X54263729Y-1999996D01*
X54242920Y-1855272D01*
X54242919Y-1855271D01*
X54242919Y-1855266D01*
X54182176Y-1722257D01*
X54086421Y-1611750D01*
X54086420Y-1611749D01*
X53982570Y-1545009D01*
X53963411Y-1532696D01*
X53888078Y-1510576D01*
X53837529Y-1495733D01*
X53777803Y-1457349D01*
X53748311Y-1392770D01*
X53742919Y-1355266D01*
X53682176Y-1222257D01*
X53586421Y-1111750D01*
X53586420Y-1111749D01*
X53524916Y-1072223D01*
X53463411Y-1032696D01*
X53421722Y-1020455D01*
X53323114Y-991500D01*
X53323111Y-991500D01*
X53176889Y-991500D01*
X53176885Y-991500D01*
X53036589Y-1032696D01*
X53036587Y-1032697D01*
X52943121Y-1092764D01*
X52875000Y-1112766D01*
X52806879Y-1092764D01*
X52755101Y-1059489D01*
X52713411Y-1032696D01*
X52671722Y-1020455D01*
X52573114Y-991500D01*
X52573111Y-991500D01*
X52426889Y-991500D01*
X52426885Y-991500D01*
X52286589Y-1032696D01*
X52286587Y-1032697D01*
X52193121Y-1092764D01*
X52125000Y-1112766D01*
X52056879Y-1092764D01*
X52005101Y-1059489D01*
X51963411Y-1032696D01*
X51921722Y-1020455D01*
X51823114Y-991500D01*
X51823111Y-991500D01*
X51676889Y-991500D01*
X51676885Y-991500D01*
X51536589Y-1032696D01*
X51536587Y-1032697D01*
X51443121Y-1092764D01*
X51375000Y-1112766D01*
X51306879Y-1092764D01*
X51255101Y-1059489D01*
X51213411Y-1032696D01*
X51171722Y-1020455D01*
X51073114Y-991500D01*
X51073111Y-991500D01*
X50926889Y-991500D01*
X50926885Y-991500D01*
X50786589Y-1032696D01*
X50786587Y-1032697D01*
X50693121Y-1092764D01*
X50625000Y-1112766D01*
X50556879Y-1092764D01*
X50505101Y-1059489D01*
X50463411Y-1032696D01*
X50421722Y-1020455D01*
X50323114Y-991500D01*
X50323111Y-991500D01*
X50176889Y-991500D01*
X50176885Y-991500D01*
X50036589Y-1032696D01*
X50036587Y-1032697D01*
X49943121Y-1092764D01*
X49875000Y-1112766D01*
X49806879Y-1092764D01*
X49755101Y-1059489D01*
X49713411Y-1032696D01*
X49671722Y-1020455D01*
X49573114Y-991500D01*
X49573111Y-991500D01*
X49426889Y-991500D01*
X49426885Y-991500D01*
X49286589Y-1032696D01*
X49286587Y-1032697D01*
X49193121Y-1092764D01*
X49125000Y-1112766D01*
X49056879Y-1092764D01*
X49005101Y-1059489D01*
X48963411Y-1032696D01*
X48921722Y-1020455D01*
X48823114Y-991500D01*
X48823111Y-991500D01*
X48676889Y-991500D01*
X48676885Y-991500D01*
X48536589Y-1032696D01*
X48536587Y-1032697D01*
X48413579Y-1111749D01*
X48317824Y-1222256D01*
X48257081Y-1355265D01*
X48257079Y-1355271D01*
X48251688Y-1392770D01*
X48222195Y-1457350D01*
X48162470Y-1495733D01*
X48036589Y-1532695D01*
X48036587Y-1532697D01*
X47913579Y-1611749D01*
X47817824Y-1722256D01*
X47757081Y-1855265D01*
X47757079Y-1855272D01*
X47736271Y-1999996D01*
X31279900Y-1999996D01*
X31279900Y-1213150D01*
X31279899Y-1213148D01*
X31261567Y-1144734D01*
X31260825Y-1141963D01*
X31260825Y-1141962D01*
X31260824Y-1141960D01*
X31256531Y-1125937D01*
X31261151Y-1124698D01*
X31251873Y-1086464D01*
X31253012Y-1074533D01*
X31263729Y-1000000D01*
X31263729Y-999996D01*
X31242920Y-855272D01*
X31242919Y-855271D01*
X31242919Y-855266D01*
X31182176Y-722257D01*
X31086421Y-611750D01*
X31086420Y-611749D01*
X31024916Y-572223D01*
X30963411Y-532696D01*
X30928336Y-522397D01*
X30823114Y-491500D01*
X30823111Y-491500D01*
X30676889Y-491500D01*
X30676885Y-491500D01*
X30536589Y-532696D01*
X30536587Y-532697D01*
X30413579Y-611749D01*
X30317824Y-722256D01*
X30257081Y-855265D01*
X30257079Y-855272D01*
X30236271Y-999996D01*
X30236271Y-1000003D01*
X30257079Y-1144727D01*
X30257081Y-1144734D01*
X30317824Y-1277743D01*
X30413579Y-1388250D01*
X30536589Y-1467304D01*
X30618993Y-1491500D01*
X30629598Y-1494614D01*
X30689325Y-1532998D01*
X30718818Y-1597578D01*
X30720100Y-1615510D01*
X30720100Y-5415300D01*
X30700098Y-5483421D01*
X30646442Y-5529914D01*
X30594100Y-5541300D01*
X29031144Y-5541300D01*
X29022049Y-5541498D01*
X29015493Y-5541784D01*
X28936392Y-5561140D01*
X28889772Y-5582880D01*
X28830400Y-5624453D01*
X28830394Y-5624458D01*
X27102426Y-7352427D01*
X27089319Y-7365534D01*
X27076213Y-7378639D01*
X27037167Y-7432786D01*
X27037165Y-7432789D01*
X27015909Y-7475252D01*
X27015905Y-7475263D01*
X27008160Y-7500000D01*
X26995957Y-7538969D01*
X26995954Y-7538983D01*
X26993947Y-7552945D01*
X26983844Y-7587352D01*
X26969151Y-7619525D01*
X26949760Y-7649696D01*
X26926596Y-7676428D01*
X26899492Y-7699913D01*
X26869738Y-7719034D01*
X26837121Y-7733930D01*
X26803187Y-7743895D01*
X26767685Y-7749000D01*
X26732313Y-7749000D01*
X26696812Y-7743895D01*
X26691323Y-7742283D01*
X26674176Y-7737248D01*
X26674175Y-7737247D01*
X26674175Y-7737248D01*
X26662872Y-7733929D01*
X26630252Y-7719031D01*
X26600503Y-7699912D01*
X26573402Y-7676430D01*
X26541215Y-7639284D01*
X26541212Y-7639280D01*
X26529890Y-7627216D01*
X26521402Y-7618861D01*
X26521401Y-7618860D01*
X26471510Y-7587352D01*
X26446370Y-7571475D01*
X26398038Y-7553885D01*
X26398032Y-7553884D01*
X26326659Y-7541300D01*
X25423341Y-7541300D01*
X25421502Y-7541373D01*
X25406786Y-7541957D01*
X25394917Y-7542901D01*
X25394913Y-7542901D01*
X25394913Y-7542902D01*
X25361687Y-7552945D01*
X25309996Y-7568569D01*
X25265052Y-7593573D01*
X25265038Y-7593582D01*
X25208784Y-7639282D01*
X25176596Y-7676428D01*
X25149492Y-7699913D01*
X25119738Y-7719034D01*
X25087121Y-7733930D01*
X25053187Y-7743895D01*
X25017685Y-7749000D01*
X24982313Y-7749000D01*
X24946812Y-7743895D01*
X24941323Y-7742283D01*
X24924176Y-7737248D01*
X24924175Y-7737247D01*
X24924175Y-7737248D01*
X24912872Y-7733929D01*
X24880252Y-7719031D01*
X24850503Y-7699912D01*
X24823402Y-7676430D01*
X24791215Y-7639284D01*
X24791212Y-7639280D01*
X24779890Y-7627216D01*
X24771402Y-7618861D01*
X24771401Y-7618860D01*
X24721510Y-7587352D01*
X24696370Y-7571475D01*
X24648038Y-7553885D01*
X24648032Y-7553884D01*
X24576659Y-7541300D01*
X22923341Y-7541300D01*
X22921502Y-7541373D01*
X22906786Y-7541957D01*
X22894917Y-7542901D01*
X22894913Y-7542901D01*
X22894913Y-7542902D01*
X22861687Y-7552945D01*
X22809996Y-7568569D01*
X22765052Y-7593573D01*
X22765038Y-7593582D01*
X22708784Y-7639282D01*
X22676596Y-7676428D01*
X22649492Y-7699913D01*
X22619738Y-7719034D01*
X22587121Y-7733930D01*
X22553187Y-7743895D01*
X22517685Y-7749000D01*
X22482313Y-7749000D01*
X22446812Y-7743895D01*
X22441323Y-7742283D01*
X22424176Y-7737248D01*
X22424175Y-7737247D01*
X22424175Y-7737248D01*
X22412872Y-7733929D01*
X22380252Y-7719031D01*
X22350503Y-7699912D01*
X22323402Y-7676430D01*
X22291215Y-7639284D01*
X22291212Y-7639280D01*
X22279890Y-7627216D01*
X22271402Y-7618861D01*
X22271401Y-7618860D01*
X22221510Y-7587352D01*
X22196370Y-7571475D01*
X22148038Y-7553885D01*
X22148032Y-7553884D01*
X22076659Y-7541300D01*
X21173341Y-7541300D01*
X21171502Y-7541373D01*
X21156786Y-7541957D01*
X21144917Y-7542901D01*
X21144913Y-7542901D01*
X21144913Y-7542902D01*
X21111687Y-7552945D01*
X21059996Y-7568569D01*
X21015052Y-7593573D01*
X21015038Y-7593582D01*
X20958784Y-7639282D01*
X20926596Y-7676428D01*
X20899492Y-7699913D01*
X20869738Y-7719034D01*
X20837121Y-7733930D01*
X20803187Y-7743895D01*
X20767685Y-7749000D01*
X20732313Y-7749000D01*
X20696812Y-7743895D01*
X20691323Y-7742283D01*
X20674176Y-7737248D01*
X20674175Y-7737247D01*
X20674175Y-7737248D01*
X20662872Y-7733929D01*
X20630252Y-7719031D01*
X20600503Y-7699912D01*
X20573402Y-7676430D01*
X20541215Y-7639284D01*
X20541212Y-7639280D01*
X20529890Y-7627216D01*
X20521402Y-7618861D01*
X20521401Y-7618860D01*
X20471510Y-7587352D01*
X20446370Y-7571475D01*
X20398038Y-7553885D01*
X20398032Y-7553884D01*
X20326659Y-7541300D01*
X19423341Y-7541300D01*
X19421502Y-7541373D01*
X19406786Y-7541957D01*
X19394917Y-7542901D01*
X19394913Y-7542901D01*
X19394913Y-7542902D01*
X19361687Y-7552945D01*
X19309996Y-7568569D01*
X19265052Y-7593573D01*
X19265038Y-7593582D01*
X19208784Y-7639282D01*
X19176596Y-7676428D01*
X19149492Y-7699913D01*
X19119738Y-7719034D01*
X19087121Y-7733930D01*
X19053187Y-7743895D01*
X19017685Y-7749000D01*
X18982313Y-7749000D01*
X18946812Y-7743895D01*
X18921421Y-7736439D01*
X18921420Y-7736439D01*
X18912876Y-7733930D01*
X18880259Y-7719033D01*
X18832599Y-7688405D01*
X18832596Y-7688403D01*
X18769779Y-7661355D01*
X18769778Y-7661354D01*
X18722573Y-7649703D01*
X18722566Y-7649702D01*
X18675157Y-7643638D01*
X18584352Y-7663176D01*
X18537742Y-7684911D01*
X18537738Y-7684913D01*
X18478366Y-7726486D01*
X18274146Y-7930706D01*
X18069926Y-8134927D01*
X16874462Y-9330390D01*
X16868181Y-9336950D01*
X16863747Y-9341787D01*
X16821477Y-9411433D01*
X16803885Y-9459768D01*
X16803884Y-9459773D01*
X16801683Y-9472257D01*
X16791300Y-9531147D01*
X15250000Y-9531147D01*
X15250000Y-9250000D01*
X15249999Y-9249998D01*
X15000001Y-9000000D01*
X15000000Y-9000000D01*
X14052190Y-9000000D01*
X13984069Y-8979998D01*
X13963095Y-8963095D01*
X13536905Y-8536905D01*
X13502879Y-8474593D01*
X13500000Y-8447810D01*
X13500000Y-326500D01*
X13520002Y-258379D01*
X13573658Y-211886D01*
X13626000Y-200500D01*
X61960118Y-200500D01*
X61996461Y-200500D01*
X62003525Y-200697D01*
G37*
%TD.AperFunction*%
%TD*%
%TA.AperFunction,Conductor*%
%TO.N,/J1_SH_C*%
G36*
X-9767653Y-3732676D02*
G01*
X-9737923Y-3797149D01*
X-9741676Y-3851030D01*
X-9742920Y-3855265D01*
X-9763729Y-3999996D01*
X-9763729Y-4000003D01*
X-9742921Y-4144727D01*
X-9742919Y-4144734D01*
X-9682176Y-4277743D01*
X-9586421Y-4388250D01*
X-9463411Y-4467304D01*
X-9353687Y-4499522D01*
X-9323115Y-4508499D01*
X-9323114Y-4508499D01*
X-9323111Y-4508500D01*
X-9323108Y-4508500D01*
X-9189528Y-4508500D01*
X-9121407Y-4528502D01*
X-9100433Y-4545405D01*
X-6671870Y-6973970D01*
X-6671865Y-6973974D01*
X-6671863Y-6973976D01*
X-6671862Y-6973977D01*
X-6671860Y-6973978D01*
X-6608044Y-7010822D01*
X-6608043Y-7010822D01*
X-6608038Y-7010825D01*
X-6536850Y-7029900D01*
X-6463150Y-7029900D01*
X-6079789Y-7029900D01*
X-6011668Y-7049902D01*
X-5965175Y-7103558D01*
X-5955071Y-7173832D01*
X-5982390Y-7235834D01*
X-6110358Y-7391762D01*
X-6208202Y-7574815D01*
X-6268455Y-7773445D01*
X-6288798Y-7979997D01*
X-6288798Y-7980002D01*
X-6268455Y-8186554D01*
X-6268454Y-8186560D01*
X-6268453Y-8186561D01*
X-6208202Y-8385184D01*
X-6110358Y-8568237D01*
X-5978683Y-8728683D01*
X-5818237Y-8860358D01*
X-5635184Y-8958202D01*
X-5436561Y-9018453D01*
X-5436557Y-9018453D01*
X-5436555Y-9018454D01*
X-5230003Y-9038798D01*
X-5230000Y-9038798D01*
X-5229997Y-9038798D01*
X-5023446Y-9018454D01*
X-5023445Y-9018453D01*
X-5023439Y-9018453D01*
X-4824816Y-8958202D01*
X-4641763Y-8860358D01*
X-4481317Y-8728683D01*
X-4349642Y-8568237D01*
X-4251798Y-8385184D01*
X-4191547Y-8186561D01*
X-4190565Y-8176599D01*
X-4171202Y-7980002D01*
X-4171202Y-7979997D01*
X-4191546Y-7773445D01*
X-4191547Y-7773443D01*
X-4191547Y-7773439D01*
X-4251798Y-7574816D01*
X-4349642Y-7391763D01*
X-4477611Y-7235833D01*
X-4505364Y-7170487D01*
X-4493382Y-7100508D01*
X-4445470Y-7048116D01*
X-4380211Y-7029900D01*
X6977710Y-7029900D01*
X7045831Y-7049902D01*
X7066805Y-7066805D01*
X7463095Y-7463095D01*
X7497121Y-7525407D01*
X7500000Y-7552190D01*
X7500000Y-22447810D01*
X7479998Y-22515931D01*
X7463095Y-22536905D01*
X5127406Y-24872593D01*
X5065094Y-24906619D01*
X4994278Y-24901554D01*
X4949216Y-24872593D01*
X4937495Y-24860872D01*
X4937485Y-24860863D01*
X4793005Y-24750000D01*
X4711236Y-24687257D01*
X4711235Y-24687256D01*
X4711232Y-24687254D01*
X4464275Y-24544673D01*
X4464270Y-24544670D01*
X4464264Y-24544667D01*
X4200792Y-24435533D01*
X3925330Y-24361723D01*
X3925323Y-24361721D01*
X3642592Y-24324500D01*
X3642590Y-24324500D01*
X3357410Y-24324500D01*
X3357407Y-24324500D01*
X3074676Y-24361721D01*
X2843839Y-24423574D01*
X2799208Y-24435533D01*
X2580443Y-24526149D01*
X2535734Y-24544668D01*
X2535724Y-24544673D01*
X2288767Y-24687254D01*
X2062514Y-24860863D01*
X2062504Y-24860872D01*
X1860872Y-25062504D01*
X1860863Y-25062514D01*
X1687254Y-25288767D01*
X1544673Y-25535724D01*
X1544668Y-25535734D01*
X1435533Y-25799208D01*
X1435532Y-25799212D01*
X1361721Y-26074676D01*
X1324500Y-26357407D01*
X1324500Y-26642592D01*
X1361721Y-26925323D01*
X1361723Y-26925330D01*
X1435533Y-27200792D01*
X1544667Y-27464264D01*
X1544668Y-27464265D01*
X1544673Y-27464275D01*
X1687254Y-27711232D01*
X1860863Y-27937485D01*
X1860872Y-27937495D01*
X2062504Y-28139127D01*
X2062514Y-28139136D01*
X2062515Y-28139137D01*
X2288764Y-28312743D01*
X2535736Y-28455333D01*
X2799208Y-28564467D01*
X3074670Y-28638277D01*
X3074674Y-28638277D01*
X3074676Y-28638278D01*
X3147546Y-28647871D01*
X3357410Y-28675500D01*
X3357417Y-28675500D01*
X3374000Y-28675500D01*
X3442121Y-28695502D01*
X3488614Y-28749158D01*
X3500000Y-28801500D01*
X3500000Y-29624000D01*
X3479998Y-29692121D01*
X3426342Y-29738614D01*
X3374000Y-29750000D01*
X1739061Y-29750000D01*
X1720852Y-29748677D01*
X1719421Y-29748468D01*
X1707555Y-29746149D01*
X1454571Y-29683966D01*
X1448635Y-29682352D01*
X-12748371Y-25448157D01*
X-12748665Y-25448037D01*
X-12795349Y-25434144D01*
X-12801743Y-25432054D01*
X-13073679Y-25335048D01*
X-13086088Y-25329860D01*
X-13343113Y-25205879D01*
X-13354898Y-25199397D01*
X-13575079Y-25062504D01*
X-13597242Y-25048724D01*
X-13608268Y-25041023D01*
X-13795589Y-24894727D01*
X-13833152Y-24865390D01*
X-13843295Y-24856558D01*
X-14048196Y-24657934D01*
X-14057340Y-24648071D01*
X-14239894Y-24428747D01*
X-14247934Y-24417965D01*
X-14406065Y-24180437D01*
X-14412911Y-24168859D01*
X-14425488Y-24144734D01*
X-14500943Y-23999996D01*
X-7763729Y-23999996D01*
X-7763729Y-24000003D01*
X-7742921Y-24144727D01*
X-7742919Y-24144734D01*
X-7682176Y-24277743D01*
X-7586421Y-24388250D01*
X-7463411Y-24467304D01*
X-7341775Y-24503019D01*
X-7337575Y-24504253D01*
X-7277849Y-24542637D01*
X-7248356Y-24607218D01*
X-7248356Y-24643080D01*
X-7249073Y-24648071D01*
X-7263729Y-24750003D01*
X-7242921Y-24894727D01*
X-7242919Y-24894734D01*
X-7182176Y-25027743D01*
X-7086421Y-25138250D01*
X-6963411Y-25217304D01*
X-6843961Y-25252378D01*
X-6823115Y-25258499D01*
X-6823114Y-25258499D01*
X-6823111Y-25258500D01*
X-6823108Y-25258500D01*
X-6676892Y-25258500D01*
X-6676889Y-25258500D01*
X-6536589Y-25217304D01*
X-6413579Y-25138250D01*
X-6317824Y-25027743D01*
X-6257081Y-24894734D01*
X-6256773Y-24892589D01*
X-6236271Y-24750003D01*
X-6236271Y-24749996D01*
X-6257080Y-24605272D01*
X-6257081Y-24605271D01*
X-6257081Y-24605266D01*
X-6317824Y-24472257D01*
X-6413579Y-24361750D01*
X-6413580Y-24361749D01*
X-6475084Y-24322223D01*
X-6536589Y-24282696D01*
X-6536590Y-24282695D01*
X-6662426Y-24245746D01*
X-6722152Y-24207362D01*
X-6751645Y-24142781D01*
X-6751644Y-24106917D01*
X-6736271Y-24000001D01*
X-6736271Y-23999996D01*
X-6757080Y-23855272D01*
X-6757081Y-23855271D01*
X-6757081Y-23855266D01*
X-6817824Y-23722257D01*
X-6913579Y-23611750D01*
X-6913580Y-23611749D01*
X-6975084Y-23572223D01*
X-7036589Y-23532696D01*
X-7071664Y-23522397D01*
X-7176886Y-23491500D01*
X-7176889Y-23491500D01*
X-7323111Y-23491500D01*
X-7323115Y-23491500D01*
X-7463411Y-23532696D01*
X-7463413Y-23532697D01*
X-7586421Y-23611749D01*
X-7682176Y-23722256D01*
X-7742919Y-23855265D01*
X-7742921Y-23855272D01*
X-7763729Y-23999996D01*
X-14500943Y-23999996D01*
X-14501534Y-23998863D01*
X-14515287Y-23929215D01*
X-14489201Y-23863184D01*
X-14431558Y-23821738D01*
X-14360658Y-23818036D01*
X-14319803Y-23835854D01*
X-14255198Y-23879021D01*
X-14255189Y-23879026D01*
X-14072631Y-23954645D01*
X-13878810Y-23993199D01*
X-13878806Y-23993200D01*
X-13307500Y-23993200D01*
X-13307500Y-23390000D01*
X-13052500Y-23390000D01*
X-13052500Y-23993200D01*
X-12481194Y-23993200D01*
X-12481191Y-23993199D01*
X-12287370Y-23954645D01*
X-12104812Y-23879026D01*
X-12104808Y-23879024D01*
X-11940499Y-23769236D01*
X-11940493Y-23769231D01*
X-11800769Y-23629507D01*
X-11800764Y-23629501D01*
X-11690977Y-23465192D01*
X-11615353Y-23282622D01*
X-11615352Y-23282620D01*
X-11582507Y-23117500D01*
X-12200053Y-23117500D01*
X-12180000Y-23042661D01*
X-12180000Y-22937339D01*
X-12200053Y-22862500D01*
X-11582507Y-22862500D01*
X-11582508Y-22862499D01*
X-11615352Y-22697379D01*
X-11615353Y-22697377D01*
X-11690977Y-22514807D01*
X-11800764Y-22350498D01*
X-11800769Y-22350492D01*
X-11940493Y-22210768D01*
X-11940499Y-22210763D01*
X-12104808Y-22100975D01*
X-12104812Y-22100973D01*
X-12287370Y-22025354D01*
X-12414846Y-21999997D01*
X-6288798Y-21999997D01*
X-6288798Y-22000002D01*
X-6268455Y-22206554D01*
X-6268454Y-22206560D01*
X-6268453Y-22206561D01*
X-6208202Y-22405184D01*
X-6110358Y-22588237D01*
X-5978683Y-22748683D01*
X-5818237Y-22880358D01*
X-5635184Y-22978202D01*
X-5436561Y-23038453D01*
X-5436557Y-23038453D01*
X-5436555Y-23038454D01*
X-5230003Y-23058798D01*
X-5230000Y-23058798D01*
X-5229997Y-23058798D01*
X-5023446Y-23038454D01*
X-5023445Y-23038453D01*
X-5023439Y-23038453D01*
X-4824816Y-22978202D01*
X-4641763Y-22880358D01*
X-4481317Y-22748683D01*
X-4349642Y-22588237D01*
X-4251798Y-22405184D01*
X-4191547Y-22206561D01*
X-4171202Y-22000000D01*
X-4172502Y-21986800D01*
X-4191546Y-21793445D01*
X-4191547Y-21793443D01*
X-4191547Y-21793439D01*
X-4251798Y-21594816D01*
X-4349642Y-21411763D01*
X-4481317Y-21251317D01*
X-4641763Y-21119642D01*
X-4824816Y-21021798D01*
X-5023439Y-20961547D01*
X-5023440Y-20961546D01*
X-5023446Y-20961545D01*
X-5229997Y-20941202D01*
X-5230003Y-20941202D01*
X-5436555Y-20961545D01*
X-5635185Y-21021798D01*
X-5818238Y-21119642D01*
X-5978683Y-21251317D01*
X-6110358Y-21411762D01*
X-6208202Y-21594815D01*
X-6268455Y-21793445D01*
X-6288798Y-21999997D01*
X-12414846Y-21999997D01*
X-12481191Y-21986800D01*
X-13052500Y-21986800D01*
X-13052500Y-22590000D01*
X-13307500Y-22590000D01*
X-13307500Y-21986800D01*
X-13878810Y-21986800D01*
X-14072631Y-22025354D01*
X-14255189Y-22100973D01*
X-14255193Y-22100975D01*
X-14419502Y-22210763D01*
X-14419508Y-22210768D01*
X-14559232Y-22350492D01*
X-14559237Y-22350498D01*
X-14568735Y-22364714D01*
X-14623212Y-22410242D01*
X-14693655Y-22419090D01*
X-14757699Y-22388448D01*
X-14795011Y-22328047D01*
X-14799500Y-22294712D01*
X-14799500Y-20643389D01*
X-9930500Y-20643389D01*
X-9930500Y-20816611D01*
X-9903402Y-20987701D01*
X-9849873Y-21152445D01*
X-9849872Y-21152448D01*
X-9849870Y-21152452D01*
X-9771232Y-21306788D01*
X-9669413Y-21446930D01*
X-9546931Y-21569412D01*
X-9546928Y-21569414D01*
X-9406788Y-21671232D01*
X-9252445Y-21749873D01*
X-9087701Y-21803402D01*
X-8916611Y-21830500D01*
X-8916608Y-21830500D01*
X-8743392Y-21830500D01*
X-8743389Y-21830500D01*
X-8572299Y-21803402D01*
X-8407555Y-21749873D01*
X-8253212Y-21671232D01*
X-8113072Y-21569414D01*
X-7990586Y-21446928D01*
X-7888768Y-21306788D01*
X-7810127Y-21152445D01*
X-7756598Y-20987701D01*
X-7729500Y-20816611D01*
X-7729500Y-20643389D01*
X-7756598Y-20472299D01*
X-7810127Y-20307555D01*
X-7888768Y-20153212D01*
X-7990586Y-20013072D01*
X-7990588Y-20013069D01*
X-8113070Y-19890587D01*
X-8253212Y-19788768D01*
X-8407548Y-19710130D01*
X-8407552Y-19710128D01*
X-8407555Y-19710127D01*
X-8572299Y-19656598D01*
X-8743389Y-19629500D01*
X-8916611Y-19629500D01*
X-9087701Y-19656598D01*
X-9087704Y-19656598D01*
X-9087705Y-19656599D01*
X-9118364Y-19666561D01*
X-9252445Y-19710127D01*
X-9252447Y-19710127D01*
X-9252453Y-19710130D01*
X-9406789Y-19788768D01*
X-9546931Y-19890587D01*
X-9669413Y-20013069D01*
X-9771232Y-20153211D01*
X-9849870Y-20307547D01*
X-9849873Y-20307553D01*
X-9849873Y-20307555D01*
X-9903402Y-20472299D01*
X-9930500Y-20643389D01*
X-14799500Y-20643389D01*
X-14799500Y-19756186D01*
X-14798893Y-19743837D01*
X-14791282Y-19666561D01*
X-14785354Y-19606368D01*
X-14780539Y-19582158D01*
X-14742244Y-19455916D01*
X-14732793Y-19433102D01*
X-14692014Y-19356810D01*
X-14670608Y-19316761D01*
X-14656893Y-19296235D01*
X-14573199Y-19194253D01*
X-14555747Y-19176801D01*
X-14453765Y-19093107D01*
X-14433239Y-19079392D01*
X-14316897Y-19017206D01*
X-14294084Y-19007756D01*
X-14167842Y-18969461D01*
X-14143632Y-18964646D01*
X-14025164Y-18952978D01*
X-14006162Y-18951107D01*
X-13993813Y-18950500D01*
X-13905522Y-18950500D01*
X-13905519Y-18950500D01*
X-13718882Y-18920940D01*
X-13539168Y-18862547D01*
X-13370801Y-18776760D01*
X-13217927Y-18665690D01*
X-13084310Y-18532073D01*
X-12973240Y-18379199D01*
X-12887453Y-18210832D01*
X-12829060Y-18031118D01*
X-12799500Y-17844481D01*
X-12799500Y-17750000D01*
X-12799500Y-17710118D01*
X-12799500Y-12439996D01*
X-11238315Y-12439996D01*
X-11238315Y-12440003D01*
X-11219903Y-12626951D01*
X-11219902Y-12626957D01*
X-11219901Y-12626958D01*
X-11165368Y-12806731D01*
X-11076810Y-12972411D01*
X-10957631Y-13117631D01*
X-10812411Y-13236810D01*
X-10646731Y-13325368D01*
X-10600390Y-13339425D01*
X-10541009Y-13378341D01*
X-10512093Y-13443182D01*
X-10522824Y-13513363D01*
X-10569794Y-13566602D01*
X-10600389Y-13580574D01*
X-10611111Y-13583827D01*
X-10646733Y-13594632D01*
X-10812412Y-13683190D01*
X-10957631Y-13802369D01*
X-11076810Y-13947588D01*
X-11165368Y-14113268D01*
X-11219903Y-14293048D01*
X-11238315Y-14479996D01*
X-11238315Y-14480003D01*
X-11219903Y-14666951D01*
X-11219902Y-14666957D01*
X-11219901Y-14666958D01*
X-11165368Y-14846731D01*
X-11076810Y-15012411D01*
X-10957631Y-15157631D01*
X-10812411Y-15276810D01*
X-10646731Y-15365368D01*
X-10600390Y-15379425D01*
X-10541009Y-15418341D01*
X-10512093Y-15483182D01*
X-10522824Y-15553363D01*
X-10569794Y-15606602D01*
X-10600389Y-15620574D01*
X-10613861Y-15624660D01*
X-10646733Y-15634632D01*
X-10812412Y-15723190D01*
X-10957631Y-15842369D01*
X-11076810Y-15987588D01*
X-11165368Y-16153268D01*
X-11219903Y-16333048D01*
X-11238315Y-16519996D01*
X-11238315Y-16520003D01*
X-11219903Y-16706951D01*
X-11219902Y-16706957D01*
X-11219901Y-16706958D01*
X-11165368Y-16886731D01*
X-11076810Y-17052411D01*
X-10957631Y-17197631D01*
X-10812411Y-17316810D01*
X-10646731Y-17405368D01*
X-10600390Y-17419425D01*
X-10541009Y-17458341D01*
X-10512093Y-17523182D01*
X-10522824Y-17593363D01*
X-10569794Y-17646602D01*
X-10600389Y-17660574D01*
X-10613861Y-17664660D01*
X-10646733Y-17674632D01*
X-10812412Y-17763190D01*
X-10957631Y-17882369D01*
X-11076810Y-18027588D01*
X-11165368Y-18193268D01*
X-11219903Y-18373048D01*
X-11238315Y-18559996D01*
X-11238315Y-18560003D01*
X-11219903Y-18746951D01*
X-11219902Y-18746957D01*
X-11219901Y-18746958D01*
X-11165368Y-18926731D01*
X-11076810Y-19092411D01*
X-10957631Y-19237631D01*
X-10812411Y-19356810D01*
X-10646731Y-19445368D01*
X-10466958Y-19499901D01*
X-10466954Y-19499901D01*
X-10466952Y-19499902D01*
X-10280003Y-19518315D01*
X-10280000Y-19518315D01*
X-10279997Y-19518315D01*
X-10093049Y-19499902D01*
X-10093048Y-19499901D01*
X-10093042Y-19499901D01*
X-9961495Y-19459997D01*
X-6288798Y-19459997D01*
X-6288798Y-19460002D01*
X-6268455Y-19666554D01*
X-6268454Y-19666560D01*
X-6268453Y-19666561D01*
X-6208202Y-19865184D01*
X-6110358Y-20048237D01*
X-5978683Y-20208683D01*
X-5818237Y-20340358D01*
X-5635184Y-20438202D01*
X-5436561Y-20498453D01*
X-5436557Y-20498453D01*
X-5436555Y-20498454D01*
X-5230003Y-20518798D01*
X-5230000Y-20518798D01*
X-5229997Y-20518798D01*
X-5023446Y-20498454D01*
X-5023445Y-20498453D01*
X-5023439Y-20498453D01*
X-4824816Y-20438202D01*
X-4641763Y-20340358D01*
X-4481317Y-20208683D01*
X-4349642Y-20048237D01*
X-4251798Y-19865184D01*
X-4191547Y-19666561D01*
X-4190565Y-19656599D01*
X-4171202Y-19460002D01*
X-4171202Y-19459997D01*
X-4191546Y-19253445D01*
X-4191547Y-19253443D01*
X-4191547Y-19253439D01*
X-4251798Y-19054816D01*
X-4349642Y-18871763D01*
X-4481317Y-18711317D01*
X-4641763Y-18579642D01*
X-4824816Y-18481798D01*
X-5023439Y-18421547D01*
X-5023440Y-18421546D01*
X-5023446Y-18421545D01*
X-5229997Y-18401202D01*
X-5230003Y-18401202D01*
X-5436555Y-18421545D01*
X-5635185Y-18481798D01*
X-5818238Y-18579642D01*
X-5978683Y-18711317D01*
X-6110358Y-18871762D01*
X-6208202Y-19054815D01*
X-6268455Y-19253445D01*
X-6288798Y-19459997D01*
X-9961495Y-19459997D01*
X-9913269Y-19445368D01*
X-9747589Y-19356810D01*
X-9602369Y-19237631D01*
X-9483190Y-19092411D01*
X-9394632Y-18926731D01*
X-9340099Y-18746958D01*
X-9336588Y-18711317D01*
X-9321685Y-18560003D01*
X-9321685Y-18559996D01*
X-9340705Y-18366882D01*
X-9339448Y-18366758D01*
X-9333715Y-18302640D01*
X-9290165Y-18246569D01*
X-9223214Y-18222944D01*
X-9154119Y-18239266D01*
X-9136534Y-18251358D01*
X-9032411Y-18336810D01*
X-8866731Y-18425368D01*
X-8686958Y-18479901D01*
X-8686954Y-18479901D01*
X-8686952Y-18479902D01*
X-8500003Y-18498315D01*
X-8500000Y-18498315D01*
X-8499997Y-18498315D01*
X-8313049Y-18479902D01*
X-8313048Y-18479901D01*
X-8313042Y-18479901D01*
X-8133269Y-18425368D01*
X-7967589Y-18336810D01*
X-7822369Y-18217631D01*
X-7703190Y-18072411D01*
X-7614632Y-17906731D01*
X-7560099Y-17726958D01*
X-7553560Y-17660575D01*
X-7541685Y-17540003D01*
X-7541685Y-17539996D01*
X-7560098Y-17353048D01*
X-7560099Y-17353046D01*
X-7560099Y-17353042D01*
X-7614632Y-17173269D01*
X-7703190Y-17007589D01*
X-7822369Y-16862369D01*
X-7967589Y-16743190D01*
X-8133269Y-16654632D01*
X-8179611Y-16640574D01*
X-8238991Y-16601660D01*
X-8267907Y-16536819D01*
X-8257177Y-16466638D01*
X-8210208Y-16413399D01*
X-8179612Y-16399425D01*
X-8133269Y-16385368D01*
X-7967589Y-16296810D01*
X-7822369Y-16177631D01*
X-7703190Y-16032411D01*
X-7614632Y-15866731D01*
X-7560099Y-15686958D01*
X-7553560Y-15620575D01*
X-7541685Y-15500003D01*
X-7541685Y-15499996D01*
X-7560098Y-15313048D01*
X-7560099Y-15313046D01*
X-7560099Y-15313042D01*
X-7614632Y-15133269D01*
X-7703190Y-14967589D01*
X-7822369Y-14822369D01*
X-7967589Y-14703190D01*
X-8133269Y-14614632D01*
X-8179611Y-14600574D01*
X-8238991Y-14561660D01*
X-8267907Y-14496819D01*
X-8257177Y-14426638D01*
X-8210208Y-14373399D01*
X-8179612Y-14359425D01*
X-8133269Y-14345368D01*
X-7967589Y-14256810D01*
X-7822369Y-14137631D01*
X-7703190Y-13992411D01*
X-7614632Y-13826731D01*
X-7560099Y-13646958D01*
X-7553881Y-13583834D01*
X-7541685Y-13460003D01*
X-7541685Y-13459996D01*
X-7560098Y-13273048D01*
X-7560099Y-13273046D01*
X-7560099Y-13273042D01*
X-7614632Y-13093269D01*
X-7703190Y-12927589D01*
X-7822369Y-12782369D01*
X-7967589Y-12663190D01*
X-8065566Y-12610820D01*
X-8075669Y-12600896D01*
X2431925Y-12600896D01*
X2431925Y-12600903D01*
X2452733Y-12745627D01*
X2452735Y-12745634D01*
X2513478Y-12878643D01*
X2564467Y-12937488D01*
X2593960Y-13002069D01*
X2583855Y-13072343D01*
X2564467Y-13102512D01*
X2513478Y-13161356D01*
X2452735Y-13294365D01*
X2452733Y-13294372D01*
X2431925Y-13439096D01*
X2431925Y-13439103D01*
X2452733Y-13583827D01*
X2452735Y-13583834D01*
X2513478Y-13716843D01*
X2609233Y-13827350D01*
X2732243Y-13906404D01*
X2851693Y-13941478D01*
X2872539Y-13947599D01*
X2872540Y-13947599D01*
X2872543Y-13947600D01*
X2872546Y-13947600D01*
X3018762Y-13947600D01*
X3018765Y-13947600D01*
X3159065Y-13906404D01*
X3282075Y-13827350D01*
X3377830Y-13716843D01*
X3438573Y-13583834D01*
X3447509Y-13521685D01*
X3459383Y-13439103D01*
X3459383Y-13439096D01*
X3438574Y-13294372D01*
X3438573Y-13294371D01*
X3438573Y-13294366D01*
X3377830Y-13161357D01*
X3326840Y-13102512D01*
X3297348Y-13037932D01*
X3307451Y-12967658D01*
X3326841Y-12937487D01*
X3335418Y-12927589D01*
X3377830Y-12878643D01*
X3438573Y-12745634D01*
X3450427Y-12663190D01*
X3459383Y-12600903D01*
X3459383Y-12600896D01*
X3438574Y-12456172D01*
X3438573Y-12456171D01*
X3438573Y-12456166D01*
X3377830Y-12323157D01*
X3282075Y-12212650D01*
X3282074Y-12212649D01*
X3193182Y-12155522D01*
X3159065Y-12133596D01*
X3123990Y-12123297D01*
X3018768Y-12092400D01*
X3018765Y-12092400D01*
X2872543Y-12092400D01*
X2872539Y-12092400D01*
X2732243Y-12133596D01*
X2732241Y-12133597D01*
X2609233Y-12212649D01*
X2513478Y-12323156D01*
X2452735Y-12456165D01*
X2452733Y-12456172D01*
X2431925Y-12600896D01*
X-8075669Y-12600896D01*
X-8116213Y-12561069D01*
X-8131923Y-12491832D01*
X-8107707Y-12425093D01*
X-8051254Y-12382041D01*
X-8006170Y-12373699D01*
X-7945348Y-12373699D01*
X-7914699Y-12370826D01*
X-7785605Y-12325654D01*
X-7675562Y-12244438D01*
X-7594346Y-12134395D01*
X-7549174Y-12005301D01*
X-7546300Y-11974653D01*
X-7546301Y-10865348D01*
X-7549174Y-10834699D01*
X-7587013Y-10726561D01*
X-7594344Y-10705610D01*
X-7594347Y-10705603D01*
X-7675562Y-10595561D01*
X-7777947Y-10519997D01*
X-6288798Y-10519997D01*
X-6288798Y-10520002D01*
X-6268455Y-10726554D01*
X-6268454Y-10726560D01*
X-6268453Y-10726561D01*
X-6208202Y-10925184D01*
X-6110358Y-11108237D01*
X-5978683Y-11268683D01*
X-5818237Y-11400358D01*
X-5635184Y-11498202D01*
X-5436561Y-11558453D01*
X-5436557Y-11558453D01*
X-5436555Y-11558454D01*
X-5230003Y-11578798D01*
X-5230000Y-11578798D01*
X-5229997Y-11578798D01*
X-5023446Y-11558454D01*
X-5023445Y-11558453D01*
X-5023439Y-11558453D01*
X-4824816Y-11498202D01*
X-4641763Y-11400358D01*
X-4481317Y-11268683D01*
X-4349642Y-11108237D01*
X-4251798Y-10925184D01*
X-4191547Y-10726561D01*
X-4189997Y-10710832D01*
X-4171202Y-10520002D01*
X-4171202Y-10519997D01*
X-4191546Y-10313445D01*
X-4191547Y-10313443D01*
X-4191547Y-10313439D01*
X-4251798Y-10114816D01*
X-4349642Y-9931763D01*
X-4481317Y-9771317D01*
X-4641763Y-9639642D01*
X-4824816Y-9541798D01*
X-5023439Y-9481547D01*
X-5023440Y-9481546D01*
X-5023446Y-9481545D01*
X-5229997Y-9461202D01*
X-5230003Y-9461202D01*
X-5436555Y-9481545D01*
X-5635185Y-9541798D01*
X-5818238Y-9639642D01*
X-5978683Y-9771317D01*
X-6110358Y-9931762D01*
X-6208202Y-10114815D01*
X-6268455Y-10313445D01*
X-6288798Y-10519997D01*
X-7777947Y-10519997D01*
X-7785604Y-10514346D01*
X-7785611Y-10514343D01*
X-7914694Y-10469175D01*
X-7914699Y-10469174D01*
X-7945345Y-10466300D01*
X-8268238Y-10466300D01*
X-8336359Y-10446298D01*
X-8382852Y-10392642D01*
X-8392956Y-10322368D01*
X-8363462Y-10257788D01*
X-8325443Y-10228034D01*
X-8253212Y-10191232D01*
X-8113072Y-10089414D01*
X-7990586Y-9966928D01*
X-7888768Y-9826788D01*
X-7810127Y-9672445D01*
X-7756598Y-9507701D01*
X-7729500Y-9336611D01*
X-7729500Y-9163389D01*
X-7756598Y-8992299D01*
X-7810127Y-8827555D01*
X-7888768Y-8673212D01*
X-7990586Y-8533072D01*
X-7990588Y-8533069D01*
X-8113070Y-8410587D01*
X-8253212Y-8308768D01*
X-8407548Y-8230130D01*
X-8407552Y-8230128D01*
X-8407555Y-8230127D01*
X-8572299Y-8176598D01*
X-8743389Y-8149500D01*
X-8916611Y-8149500D01*
X-9087701Y-8176598D01*
X-9087704Y-8176598D01*
X-9087705Y-8176599D01*
X-9118364Y-8186561D01*
X-9252445Y-8230127D01*
X-9252447Y-8230127D01*
X-9252453Y-8230130D01*
X-9406789Y-8308768D01*
X-9546931Y-8410587D01*
X-9669413Y-8533069D01*
X-9771232Y-8673211D01*
X-9849870Y-8827547D01*
X-9849873Y-8827553D01*
X-9849873Y-8827555D01*
X-9903402Y-8992299D01*
X-9930500Y-9163389D01*
X-9930500Y-9336611D01*
X-9903402Y-9507701D01*
X-9849873Y-9672445D01*
X-9849872Y-9672448D01*
X-9849870Y-9672452D01*
X-9771232Y-9826788D01*
X-9669413Y-9966930D01*
X-9546931Y-10089412D01*
X-9546928Y-10089414D01*
X-9406788Y-10191232D01*
X-9252445Y-10269873D01*
X-9225644Y-10278581D01*
X-9167038Y-10318654D01*
X-9139400Y-10384050D01*
X-9151506Y-10454007D01*
X-9199512Y-10506314D01*
X-9206271Y-10509499D01*
X-9206042Y-10509931D01*
X-9214397Y-10514346D01*
X-9324439Y-10595561D01*
X-9405654Y-10705603D01*
X-9405657Y-10705610D01*
X-9450825Y-10834693D01*
X-9450826Y-10834698D01*
X-9453700Y-10865344D01*
X-9453700Y-11617974D01*
X-9473702Y-11686095D01*
X-9527358Y-11732588D01*
X-9597632Y-11742692D01*
X-9659634Y-11715373D01*
X-9747589Y-11643190D01*
X-9913269Y-11554632D01*
X-10093049Y-11500097D01*
X-10279997Y-11481685D01*
X-10280003Y-11481685D01*
X-10466952Y-11500097D01*
X-10646732Y-11554632D01*
X-10812412Y-11643190D01*
X-10957631Y-11762369D01*
X-11076810Y-11907588D01*
X-11165368Y-12073268D01*
X-11219903Y-12253048D01*
X-11238315Y-12439996D01*
X-12799500Y-12439996D01*
X-12799500Y-12210118D01*
X-12799500Y-12155519D01*
X-12829060Y-11968882D01*
X-12887453Y-11789168D01*
X-12973240Y-11620801D01*
X-13052755Y-11511358D01*
X-13084312Y-11467924D01*
X-13217925Y-11334311D01*
X-13370798Y-11223242D01*
X-13370799Y-11223241D01*
X-13370801Y-11223240D01*
X-13539168Y-11137453D01*
X-13539169Y-11137452D01*
X-13539172Y-11137451D01*
X-13718877Y-11079061D01*
X-13718881Y-11079060D01*
X-13718882Y-11079060D01*
X-13905519Y-11049500D01*
X-13905522Y-11049500D01*
X-13993813Y-11049500D01*
X-14006163Y-11048893D01*
X-14143626Y-11035354D01*
X-14167852Y-11030535D01*
X-14195873Y-11022035D01*
X-14294079Y-10992244D01*
X-14316898Y-10982792D01*
X-14433233Y-10920610D01*
X-14453770Y-10906888D01*
X-14487509Y-10879199D01*
X-14555741Y-10823203D01*
X-14573206Y-10805738D01*
X-14651093Y-10710832D01*
X-14656890Y-10703768D01*
X-14670611Y-10683232D01*
X-14732793Y-10566897D01*
X-14742245Y-10544078D01*
X-14746176Y-10531118D01*
X-14780538Y-10417843D01*
X-14785354Y-10393631D01*
X-14798867Y-10256431D01*
X-14799472Y-10243572D01*
X-14788466Y-7701253D01*
X-14768169Y-7633221D01*
X-14714313Y-7586961D01*
X-14643996Y-7577161D01*
X-14579543Y-7606934D01*
X-14563605Y-7625079D01*
X-14563163Y-7624717D01*
X-14559232Y-7629507D01*
X-14419508Y-7769231D01*
X-14419502Y-7769236D01*
X-14255193Y-7879024D01*
X-14255189Y-7879026D01*
X-14072631Y-7954645D01*
X-13878810Y-7993199D01*
X-13878806Y-7993200D01*
X-13307500Y-7993200D01*
X-13307500Y-7390000D01*
X-13052500Y-7390000D01*
X-13052500Y-7993200D01*
X-12481194Y-7993200D01*
X-12481191Y-7993199D01*
X-12287370Y-7954645D01*
X-12104812Y-7879026D01*
X-12104808Y-7879024D01*
X-11940499Y-7769236D01*
X-11940493Y-7769231D01*
X-11800769Y-7629507D01*
X-11800764Y-7629501D01*
X-11690977Y-7465192D01*
X-11615353Y-7282622D01*
X-11615352Y-7282620D01*
X-11582507Y-7117500D01*
X-12200053Y-7117500D01*
X-12180000Y-7042661D01*
X-12180000Y-6937339D01*
X-12200053Y-6862500D01*
X-11582507Y-6862500D01*
X-11582508Y-6862499D01*
X-11615352Y-6697379D01*
X-11615353Y-6697377D01*
X-11690977Y-6514807D01*
X-11800764Y-6350498D01*
X-11800769Y-6350492D01*
X-11940493Y-6210768D01*
X-11940499Y-6210763D01*
X-12104808Y-6100975D01*
X-12104812Y-6100973D01*
X-12287370Y-6025354D01*
X-12481191Y-5986800D01*
X-13052500Y-5986800D01*
X-13052500Y-6590000D01*
X-13307500Y-6590000D01*
X-13307500Y-5986800D01*
X-13878810Y-5986800D01*
X-14072631Y-6025354D01*
X-14255189Y-6100973D01*
X-14255191Y-6100974D01*
X-14294005Y-6126909D01*
X-14361759Y-6148123D01*
X-14430225Y-6129339D01*
X-14477668Y-6076521D01*
X-14489023Y-6006439D01*
X-14475736Y-5963897D01*
X-14399847Y-5818334D01*
X-14393026Y-5806798D01*
X-14234865Y-5569235D01*
X-14226846Y-5558481D01*
X-14044266Y-5339132D01*
X-14035145Y-5329294D01*
X-13830239Y-5130669D01*
X-13820110Y-5121848D01*
X-13595185Y-4946185D01*
X-13584193Y-4938509D01*
X-13341827Y-4787822D01*
X-13330067Y-4781355D01*
X-13073024Y-4657363D01*
X-13060629Y-4652181D01*
X-12787984Y-4554921D01*
X-12781618Y-4552840D01*
X-12747303Y-4542629D01*
X-12747303Y-4542628D01*
X-12726163Y-4536338D01*
X-12726150Y-4536331D01*
X-9898513Y-3694772D01*
X-9827520Y-3694512D01*
X-9767653Y-3732676D01*
G37*
%TD.AperFunction*%
%TD*%
%TA.AperFunction,Conductor*%
%TO.N,+3V3*%
G36*
X31874997Y-5767593D02*
G01*
X31883491Y-5775954D01*
X31947191Y-5849467D01*
X32057908Y-5920620D01*
X32147742Y-5946997D01*
X32184193Y-5957700D01*
X32184196Y-5957700D01*
X32315804Y-5957700D01*
X32315807Y-5957700D01*
X32442091Y-5920620D01*
X32552808Y-5849467D01*
X32552808Y-5849466D01*
X32552812Y-5849464D01*
X32616509Y-5775953D01*
X32661460Y-5750945D01*
X32673341Y-5750000D01*
X33076659Y-5750000D01*
X33124997Y-5767593D01*
X33133491Y-5775954D01*
X33197191Y-5849467D01*
X33307908Y-5920620D01*
X33397742Y-5946997D01*
X33434193Y-5957700D01*
X33434196Y-5957700D01*
X33565804Y-5957700D01*
X33565807Y-5957700D01*
X33692091Y-5920620D01*
X33802808Y-5849467D01*
X33802808Y-5849466D01*
X33802812Y-5849464D01*
X33866509Y-5775953D01*
X33911460Y-5750945D01*
X33923341Y-5750000D01*
X35468852Y-5750000D01*
X35517190Y-5767593D01*
X35522026Y-5772026D01*
X35977974Y-6227974D01*
X35999714Y-6274594D01*
X36000000Y-6281148D01*
X36000000Y-12718852D01*
X35982407Y-12767190D01*
X35977974Y-12772026D01*
X35522026Y-13227974D01*
X35475406Y-13249714D01*
X35468852Y-13250000D01*
X34000000Y-13250000D01*
X33987728Y-13262272D01*
X33941108Y-13284012D01*
X33934554Y-13284298D01*
X33934190Y-13284298D01*
X33807908Y-13321377D01*
X33697191Y-13392530D01*
X33611000Y-13491999D01*
X33610995Y-13492007D01*
X33556325Y-13611717D01*
X33556323Y-13611725D01*
X33546123Y-13682664D01*
X33524863Y-13725135D01*
X30000000Y-17249999D01*
X30000000Y-21218852D01*
X29982407Y-21267190D01*
X29977974Y-21272026D01*
X29522026Y-21727974D01*
X29475406Y-21749714D01*
X29468852Y-21750000D01*
X28673341Y-21750000D01*
X28625003Y-21732407D01*
X28616509Y-21724046D01*
X28552812Y-21650536D01*
X28552810Y-21650535D01*
X28552808Y-21650532D01*
X28442091Y-21579379D01*
X28315809Y-21542300D01*
X28315807Y-21542300D01*
X28184193Y-21542300D01*
X28184190Y-21542300D01*
X28057908Y-21579379D01*
X27947191Y-21650532D01*
X27883491Y-21724046D01*
X27838540Y-21749055D01*
X27826659Y-21750000D01*
X26923341Y-21750000D01*
X26875003Y-21732407D01*
X26866509Y-21724046D01*
X26802812Y-21650536D01*
X26802810Y-21650535D01*
X26802808Y-21650532D01*
X26692091Y-21579379D01*
X26565809Y-21542300D01*
X26565807Y-21542300D01*
X26434193Y-21542300D01*
X26434190Y-21542300D01*
X26307908Y-21579379D01*
X26197191Y-21650532D01*
X26133491Y-21724046D01*
X26088540Y-21749055D01*
X26076659Y-21750000D01*
X22923341Y-21750000D01*
X22875003Y-21732407D01*
X22866509Y-21724046D01*
X22802812Y-21650536D01*
X22802810Y-21650535D01*
X22802808Y-21650532D01*
X22692091Y-21579379D01*
X22565809Y-21542300D01*
X22565807Y-21542300D01*
X22434193Y-21542300D01*
X22434190Y-21542300D01*
X22307908Y-21579379D01*
X22197191Y-21650532D01*
X22133491Y-21724046D01*
X22088540Y-21749055D01*
X22076659Y-21750000D01*
X20173341Y-21750000D01*
X20125003Y-21732407D01*
X20116509Y-21724046D01*
X20052812Y-21650536D01*
X20052810Y-21650535D01*
X20052808Y-21650532D01*
X19942091Y-21579379D01*
X19815809Y-21542300D01*
X19815807Y-21542300D01*
X19684193Y-21542300D01*
X19684190Y-21542300D01*
X19557908Y-21579379D01*
X19447191Y-21650532D01*
X19383491Y-21724046D01*
X19338540Y-21749055D01*
X19326659Y-21750000D01*
X19281148Y-21750000D01*
X19232810Y-21732407D01*
X19227974Y-21727974D01*
X17022026Y-19522026D01*
X17000286Y-19475406D01*
X17000000Y-19468852D01*
X17000000Y-17424466D01*
X17017593Y-17376128D01*
X17034542Y-17361205D01*
X17052812Y-17349464D01*
X17139002Y-17249996D01*
X17193676Y-17130275D01*
X17212407Y-17000000D01*
X17193676Y-16869725D01*
X17193674Y-16869720D01*
X17193674Y-16869719D01*
X17139004Y-16750009D01*
X17139002Y-16750004D01*
X17052812Y-16650536D01*
X17046888Y-16646728D01*
X17034542Y-16638794D01*
X17003391Y-16597860D01*
X17000000Y-16575533D01*
X17000000Y-12924466D01*
X17017593Y-12876128D01*
X17034542Y-12861205D01*
X17052812Y-12849464D01*
X17139002Y-12749996D01*
X17193676Y-12630275D01*
X17212407Y-12500000D01*
X17193676Y-12369725D01*
X17193674Y-12369720D01*
X17193674Y-12369719D01*
X17139004Y-12250009D01*
X17139002Y-12250004D01*
X17052812Y-12150536D01*
X17046888Y-12146728D01*
X17034542Y-12138794D01*
X17003391Y-12097860D01*
X17000000Y-12075533D01*
X17000000Y-11531143D01*
X17592100Y-11531143D01*
X17592100Y-17468854D01*
X17592250Y-17475752D01*
X17592535Y-17482282D01*
X17592537Y-17482294D01*
X17607179Y-17542134D01*
X17607180Y-17542137D01*
X17607181Y-17542139D01*
X17628921Y-17588759D01*
X17628922Y-17588760D01*
X17628924Y-17588764D01*
X17660369Y-17633672D01*
X17660380Y-17633685D01*
X20866300Y-20839605D01*
X20866315Y-20839619D01*
X20866322Y-20839626D01*
X20871277Y-20844371D01*
X20875575Y-20848311D01*
X20876114Y-20848805D01*
X20893776Y-20859524D01*
X20928807Y-20880785D01*
X20977145Y-20898378D01*
X21031143Y-20907899D01*
X21031144Y-20907900D01*
X21031148Y-20907900D01*
X27718855Y-20907900D01*
X27719484Y-20907886D01*
X27725736Y-20907750D01*
X27732290Y-20907464D01*
X27792139Y-20892819D01*
X27838759Y-20871079D01*
X27883678Y-20839626D01*
X28339626Y-20383678D01*
X28344371Y-20378723D01*
X28348804Y-20373887D01*
X28380785Y-20321193D01*
X28398378Y-20272855D01*
X28407899Y-20218856D01*
X28407900Y-20218856D01*
X28407900Y-16346550D01*
X28425493Y-16298212D01*
X28429915Y-16293386D01*
X28760363Y-15962939D01*
X28769666Y-15952787D01*
X28778092Y-15942746D01*
X28809656Y-15882115D01*
X28822970Y-15832428D01*
X28827750Y-15805319D01*
X28813556Y-15724826D01*
X28791816Y-15678206D01*
X28760363Y-15633287D01*
X28760361Y-15633285D01*
X28760356Y-15633279D01*
X28700826Y-15573749D01*
X28679086Y-15527129D01*
X28678800Y-15520575D01*
X28678800Y-15415190D01*
X28934895Y-15415190D01*
X28953626Y-15545465D01*
X28953626Y-15545466D01*
X28953627Y-15545468D01*
X28953627Y-15545470D01*
X29008297Y-15665180D01*
X29008300Y-15665186D01*
X29019580Y-15678204D01*
X29094493Y-15764657D01*
X29205210Y-15835810D01*
X29295044Y-15862187D01*
X29331495Y-15872890D01*
X29331498Y-15872890D01*
X29463106Y-15872890D01*
X29463109Y-15872890D01*
X29589393Y-15835810D01*
X29700110Y-15764657D01*
X29700110Y-15764656D01*
X29700114Y-15764654D01*
X29786304Y-15665186D01*
X29840978Y-15545465D01*
X29859709Y-15415190D01*
X29840978Y-15284915D01*
X29840976Y-15284910D01*
X29840976Y-15284909D01*
X29786306Y-15165199D01*
X29786304Y-15165194D01*
X29700114Y-15065726D01*
X29700112Y-15065725D01*
X29700110Y-15065722D01*
X29589393Y-14994569D01*
X29463111Y-14957490D01*
X29463109Y-14957490D01*
X29331495Y-14957490D01*
X29331492Y-14957490D01*
X29205210Y-14994569D01*
X29094493Y-15065722D01*
X29008302Y-15165191D01*
X29008297Y-15165199D01*
X28953627Y-15284909D01*
X28953627Y-15284911D01*
X28953626Y-15284913D01*
X28953626Y-15284915D01*
X28934895Y-15415190D01*
X28678800Y-15415190D01*
X28678800Y-15098477D01*
X28678800Y-15098470D01*
X28677010Y-15074762D01*
X28673619Y-15052433D01*
X28643158Y-14980513D01*
X28612005Y-14939580D01*
X28571722Y-14902373D01*
X28571720Y-14902371D01*
X28571715Y-14902367D01*
X28560749Y-14895320D01*
X28544573Y-14881304D01*
X28502276Y-14832491D01*
X28490704Y-14814485D01*
X28463877Y-14755742D01*
X28457847Y-14735207D01*
X28448655Y-14671269D01*
X28448655Y-14649874D01*
X28457848Y-14585931D01*
X28463878Y-14565398D01*
X28490705Y-14506655D01*
X28502273Y-14488652D01*
X28544577Y-14439832D01*
X28560748Y-14425820D01*
X28615082Y-14390902D01*
X28634550Y-14382013D01*
X28696519Y-14363818D01*
X28717704Y-14360772D01*
X28729985Y-14360772D01*
X28749116Y-14359250D01*
X28754928Y-14358788D01*
X28778393Y-14355033D01*
X28851048Y-14323235D01*
X28851049Y-14323233D01*
X28853551Y-14322139D01*
X28904887Y-14318876D01*
X28940532Y-14341783D01*
X28947188Y-14349464D01*
X28947191Y-14349467D01*
X29057908Y-14420620D01*
X29123350Y-14439835D01*
X29184193Y-14457700D01*
X29184196Y-14457700D01*
X29315804Y-14457700D01*
X29315807Y-14457700D01*
X29442091Y-14420620D01*
X29519087Y-14371137D01*
X29569261Y-14359805D01*
X29602875Y-14372800D01*
X29644125Y-14401683D01*
X29644126Y-14401683D01*
X29644128Y-14401685D01*
X29692466Y-14419278D01*
X29746464Y-14428799D01*
X29746465Y-14428800D01*
X29746469Y-14428800D01*
X30197955Y-14428800D01*
X30198584Y-14428786D01*
X30204836Y-14428650D01*
X30211390Y-14428364D01*
X30271239Y-14413719D01*
X30317859Y-14391979D01*
X30362778Y-14360526D01*
X32589626Y-12133678D01*
X32594371Y-12128723D01*
X32598804Y-12123887D01*
X32630785Y-12071193D01*
X32648378Y-12022855D01*
X32657899Y-11968856D01*
X32657900Y-11968856D01*
X32657900Y-10531145D01*
X32657885Y-10530496D01*
X32657750Y-10524264D01*
X32657464Y-10517710D01*
X32642819Y-10457861D01*
X32621079Y-10411241D01*
X32599400Y-10380280D01*
X32589630Y-10366327D01*
X32589619Y-10366314D01*
X32473305Y-10250000D01*
X33037593Y-10250000D01*
X33056324Y-10380275D01*
X33056324Y-10380276D01*
X33056325Y-10380278D01*
X33056325Y-10380280D01*
X33110995Y-10499990D01*
X33110998Y-10499996D01*
X33132026Y-10524264D01*
X33197191Y-10599467D01*
X33307908Y-10670620D01*
X33397742Y-10696997D01*
X33434193Y-10707700D01*
X33434196Y-10707700D01*
X33565804Y-10707700D01*
X33565807Y-10707700D01*
X33692091Y-10670620D01*
X33802808Y-10599467D01*
X33802808Y-10599466D01*
X33802812Y-10599464D01*
X33889002Y-10499996D01*
X33928536Y-10413427D01*
X33943674Y-10380280D01*
X33943674Y-10380279D01*
X33943676Y-10380275D01*
X33962407Y-10250000D01*
X33943676Y-10119725D01*
X33943674Y-10119720D01*
X33943674Y-10119719D01*
X33889004Y-10000009D01*
X33889002Y-10000004D01*
X33802812Y-9900536D01*
X33802810Y-9900535D01*
X33802808Y-9900532D01*
X33692091Y-9829379D01*
X33565809Y-9792300D01*
X33565807Y-9792300D01*
X33434193Y-9792300D01*
X33434190Y-9792300D01*
X33307908Y-9829379D01*
X33197191Y-9900532D01*
X33111000Y-10000001D01*
X33110995Y-10000009D01*
X33056325Y-10119719D01*
X33056325Y-10119721D01*
X33056324Y-10119723D01*
X33056324Y-10119725D01*
X33037593Y-10250000D01*
X32473305Y-10250000D01*
X31473305Y-9250000D01*
X33787593Y-9250000D01*
X33806324Y-9380275D01*
X33806324Y-9380276D01*
X33806325Y-9380278D01*
X33806325Y-9380280D01*
X33850946Y-9477985D01*
X33860998Y-9499996D01*
X33861000Y-9499998D01*
X33947191Y-9599467D01*
X34057908Y-9670620D01*
X34147742Y-9696997D01*
X34184193Y-9707700D01*
X34184196Y-9707700D01*
X34315804Y-9707700D01*
X34315807Y-9707700D01*
X34442091Y-9670620D01*
X34552808Y-9599467D01*
X34552808Y-9599466D01*
X34552812Y-9599464D01*
X34639002Y-9499996D01*
X34693676Y-9380275D01*
X34712407Y-9250000D01*
X34693676Y-9119725D01*
X34693674Y-9119720D01*
X34693674Y-9119719D01*
X34639004Y-9000009D01*
X34639002Y-9000004D01*
X34552812Y-8900536D01*
X34552810Y-8900535D01*
X34552808Y-8900532D01*
X34442091Y-8829379D01*
X34315809Y-8792300D01*
X34315807Y-8792300D01*
X34184193Y-8792300D01*
X34184190Y-8792300D01*
X34057909Y-8829379D01*
X33961510Y-8891330D01*
X33911334Y-8902662D01*
X33893926Y-8893687D01*
X33904259Y-8918354D01*
X33888985Y-8967474D01*
X33885977Y-8971177D01*
X33861000Y-9000001D01*
X33860995Y-9000009D01*
X33806325Y-9119719D01*
X33806325Y-9119721D01*
X33806324Y-9119723D01*
X33806324Y-9119725D01*
X33787593Y-9250000D01*
X31473305Y-9250000D01*
X30633699Y-8410394D01*
X30628730Y-8405636D01*
X30628723Y-8405629D01*
X30623887Y-8401196D01*
X30623885Y-8401194D01*
X30572033Y-8369725D01*
X30571193Y-8369215D01*
X30571192Y-8369214D01*
X30571191Y-8369214D01*
X30522856Y-8351622D01*
X30468856Y-8342100D01*
X30468852Y-8342100D01*
X21781148Y-8342100D01*
X21781145Y-8342100D01*
X21774247Y-8342250D01*
X21767717Y-8342535D01*
X21767711Y-8342535D01*
X21767710Y-8342536D01*
X21767707Y-8342536D01*
X21767705Y-8342537D01*
X21707865Y-8357179D01*
X21661239Y-8378922D01*
X21661235Y-8378924D01*
X21616327Y-8410369D01*
X21616314Y-8410380D01*
X19206622Y-10820074D01*
X19160002Y-10841814D01*
X19153448Y-10842100D01*
X18281145Y-10842100D01*
X18274247Y-10842250D01*
X18267717Y-10842535D01*
X18267711Y-10842535D01*
X18267710Y-10842536D01*
X18267707Y-10842536D01*
X18267705Y-10842537D01*
X18207865Y-10857179D01*
X18161239Y-10878922D01*
X18161235Y-10878924D01*
X18116327Y-10910369D01*
X18116321Y-10910374D01*
X18071509Y-10955187D01*
X18026696Y-11000000D01*
X17843534Y-11183162D01*
X17660372Y-11366323D01*
X17655636Y-11371269D01*
X17651194Y-11376114D01*
X17619214Y-11428808D01*
X17601622Y-11477142D01*
X17601622Y-11477144D01*
X17592100Y-11531143D01*
X17000000Y-11531143D01*
X17000000Y-9531147D01*
X17017593Y-9482809D01*
X17022015Y-9477985D01*
X18217499Y-8282500D01*
X31820093Y-8282500D01*
X31838824Y-8412775D01*
X31838824Y-8412776D01*
X31838825Y-8412778D01*
X31838825Y-8412780D01*
X31893495Y-8532490D01*
X31893498Y-8532496D01*
X31978224Y-8630275D01*
X31979691Y-8631967D01*
X32090408Y-8703120D01*
X32180242Y-8729497D01*
X32216693Y-8740200D01*
X32216696Y-8740200D01*
X32348304Y-8740200D01*
X32348307Y-8740200D01*
X32474591Y-8703120D01*
X32585308Y-8631967D01*
X32585308Y-8631966D01*
X32585312Y-8631964D01*
X32671502Y-8532496D01*
X32686342Y-8500000D01*
X33037593Y-8500000D01*
X33056324Y-8630275D01*
X33056324Y-8630276D01*
X33056325Y-8630278D01*
X33056325Y-8630280D01*
X33106524Y-8740199D01*
X33110998Y-8749996D01*
X33179784Y-8829379D01*
X33197191Y-8849467D01*
X33307908Y-8920620D01*
X33397742Y-8946997D01*
X33434193Y-8957700D01*
X33434196Y-8957700D01*
X33565804Y-8957700D01*
X33565807Y-8957700D01*
X33692091Y-8920620D01*
X33720034Y-8902662D01*
X33788488Y-8858670D01*
X33838664Y-8847337D01*
X33856072Y-8856311D01*
X33845740Y-8831644D01*
X33861014Y-8782524D01*
X33863998Y-8778851D01*
X33889002Y-8749996D01*
X33928536Y-8663427D01*
X33943674Y-8630280D01*
X33943674Y-8630279D01*
X33943676Y-8630275D01*
X33962407Y-8500000D01*
X33943676Y-8369725D01*
X33943674Y-8369720D01*
X33943674Y-8369719D01*
X33889004Y-8250009D01*
X33889002Y-8250004D01*
X33802812Y-8150536D01*
X33802810Y-8150535D01*
X33802808Y-8150532D01*
X33692091Y-8079379D01*
X33565809Y-8042300D01*
X33565807Y-8042300D01*
X33434193Y-8042300D01*
X33434190Y-8042300D01*
X33307908Y-8079379D01*
X33197191Y-8150532D01*
X33111000Y-8250001D01*
X33110995Y-8250009D01*
X33056325Y-8369719D01*
X33056325Y-8369721D01*
X33056324Y-8369723D01*
X33056324Y-8369725D01*
X33037593Y-8500000D01*
X32686342Y-8500000D01*
X32726176Y-8412775D01*
X32744907Y-8282500D01*
X32726176Y-8152225D01*
X32726174Y-8152220D01*
X32726174Y-8152219D01*
X32686641Y-8065656D01*
X32671502Y-8032504D01*
X32585312Y-7933036D01*
X32585310Y-7933035D01*
X32585308Y-7933032D01*
X32474591Y-7861879D01*
X32348309Y-7824800D01*
X32348307Y-7824800D01*
X32216693Y-7824800D01*
X32216690Y-7824800D01*
X32090408Y-7861879D01*
X31979691Y-7933032D01*
X31893500Y-8032501D01*
X31893495Y-8032509D01*
X31838825Y-8152219D01*
X31838825Y-8152221D01*
X31838824Y-8152223D01*
X31838824Y-8152225D01*
X31820093Y-8282500D01*
X18217499Y-8282500D01*
X18625939Y-7874060D01*
X18672556Y-7852322D01*
X18719766Y-7863974D01*
X18807908Y-7920620D01*
X18850194Y-7933036D01*
X18934193Y-7957700D01*
X18934196Y-7957700D01*
X19065804Y-7957700D01*
X19065807Y-7957700D01*
X19192091Y-7920620D01*
X19264540Y-7874060D01*
X19302808Y-7849467D01*
X19302808Y-7849466D01*
X19302812Y-7849464D01*
X19366509Y-7775953D01*
X19411460Y-7750945D01*
X19423341Y-7750000D01*
X20326659Y-7750000D01*
X20374997Y-7767593D01*
X20383490Y-7775953D01*
X20425816Y-7824800D01*
X20447191Y-7849467D01*
X20557908Y-7920620D01*
X20600194Y-7933036D01*
X20684193Y-7957700D01*
X20684196Y-7957700D01*
X20815804Y-7957700D01*
X20815807Y-7957700D01*
X20942091Y-7920620D01*
X21014540Y-7874060D01*
X21052808Y-7849467D01*
X21052808Y-7849466D01*
X21052812Y-7849464D01*
X21116509Y-7775953D01*
X21161460Y-7750945D01*
X21173341Y-7750000D01*
X22076659Y-7750000D01*
X22124997Y-7767593D01*
X22133490Y-7775953D01*
X22175816Y-7824800D01*
X22197191Y-7849467D01*
X22307908Y-7920620D01*
X22350194Y-7933036D01*
X22434193Y-7957700D01*
X22434196Y-7957700D01*
X22565804Y-7957700D01*
X22565807Y-7957700D01*
X22692091Y-7920620D01*
X22764540Y-7874060D01*
X22802808Y-7849467D01*
X22802808Y-7849466D01*
X22802812Y-7849464D01*
X22866509Y-7775953D01*
X22911460Y-7750945D01*
X22923341Y-7750000D01*
X24576659Y-7750000D01*
X24624997Y-7767593D01*
X24633490Y-7775953D01*
X24675816Y-7824800D01*
X24697191Y-7849467D01*
X24807908Y-7920620D01*
X24850194Y-7933036D01*
X24934193Y-7957700D01*
X24934196Y-7957700D01*
X25065804Y-7957700D01*
X25065807Y-7957700D01*
X25192091Y-7920620D01*
X25264540Y-7874060D01*
X25302808Y-7849467D01*
X25302808Y-7849466D01*
X25302812Y-7849464D01*
X25366509Y-7775953D01*
X25411460Y-7750945D01*
X25423341Y-7750000D01*
X26326659Y-7750000D01*
X26374997Y-7767593D01*
X26383490Y-7775953D01*
X26425816Y-7824800D01*
X26447191Y-7849467D01*
X26557908Y-7920620D01*
X26600194Y-7933036D01*
X26684193Y-7957700D01*
X26684196Y-7957700D01*
X26815804Y-7957700D01*
X26815807Y-7957700D01*
X26942091Y-7920620D01*
X27014540Y-7874060D01*
X27052808Y-7849467D01*
X27052808Y-7849466D01*
X27052812Y-7849464D01*
X27139002Y-7749996D01*
X27193676Y-7630275D01*
X27202532Y-7568675D01*
X27223789Y-7526210D01*
X27249999Y-7500000D01*
X29287593Y-7500000D01*
X29306324Y-7630275D01*
X29306324Y-7630276D01*
X29306325Y-7630278D01*
X29306325Y-7630280D01*
X29360995Y-7749990D01*
X29360998Y-7749996D01*
X29425816Y-7824800D01*
X29447191Y-7849467D01*
X29557908Y-7920620D01*
X29600194Y-7933036D01*
X29684193Y-7957700D01*
X29684196Y-7957700D01*
X29815804Y-7957700D01*
X29815807Y-7957700D01*
X29942091Y-7920620D01*
X30014540Y-7874060D01*
X30052808Y-7849467D01*
X30052808Y-7849466D01*
X30052812Y-7849464D01*
X30139002Y-7749996D01*
X30193676Y-7630275D01*
X30212407Y-7500000D01*
X30193676Y-7369725D01*
X30193674Y-7369720D01*
X30193674Y-7369719D01*
X30139004Y-7250009D01*
X30139002Y-7250004D01*
X30052812Y-7150536D01*
X30052810Y-7150535D01*
X30052808Y-7150532D01*
X29942091Y-7079379D01*
X29815809Y-7042300D01*
X29815807Y-7042300D01*
X29684193Y-7042300D01*
X29684190Y-7042300D01*
X29557908Y-7079379D01*
X29447191Y-7150532D01*
X29361000Y-7250001D01*
X29360995Y-7250009D01*
X29306325Y-7369719D01*
X29306325Y-7369721D01*
X29306324Y-7369723D01*
X29306324Y-7369725D01*
X29287593Y-7500000D01*
X27249999Y-7500000D01*
X27750000Y-7000000D01*
X28000000Y-6750000D01*
X28977974Y-5772026D01*
X29024594Y-5750286D01*
X29031148Y-5750000D01*
X31826659Y-5750000D01*
X31874997Y-5767593D01*
G37*
%TD.AperFunction*%
%TD*%
%TA.AperFunction,Conductor*%
%TO.N,+1V0*%
G36*
X30517190Y-8517593D02*
G01*
X30522026Y-8522026D01*
X32477974Y-10477974D01*
X32499714Y-10524594D01*
X32500000Y-10531148D01*
X32500000Y-11968852D01*
X32482407Y-12017190D01*
X32477974Y-12022026D01*
X30251126Y-14248874D01*
X30204506Y-14270614D01*
X30197952Y-14270900D01*
X29746469Y-14270900D01*
X29698131Y-14253307D01*
X29672411Y-14208758D01*
X29678064Y-14164461D01*
X29678326Y-14163886D01*
X29693676Y-14130275D01*
X29712407Y-14000000D01*
X29693676Y-13869725D01*
X29693674Y-13869720D01*
X29693674Y-13869719D01*
X29639004Y-13750009D01*
X29639002Y-13750004D01*
X29552812Y-13650536D01*
X29552810Y-13650535D01*
X29552808Y-13650532D01*
X29442091Y-13579379D01*
X29315809Y-13542300D01*
X29315807Y-13542300D01*
X29184193Y-13542300D01*
X29184190Y-13542300D01*
X29057908Y-13579379D01*
X28947191Y-13650532D01*
X28861000Y-13750001D01*
X28860995Y-13750009D01*
X28806325Y-13869719D01*
X28806325Y-13869721D01*
X28806324Y-13869723D01*
X28806324Y-13869725D01*
X28787593Y-14000000D01*
X28804411Y-14116972D01*
X28793877Y-14167319D01*
X28753442Y-14199117D01*
X28729977Y-14202872D01*
X28684190Y-14202872D01*
X28557908Y-14239951D01*
X28447191Y-14311104D01*
X28361000Y-14410573D01*
X28360995Y-14410581D01*
X28306325Y-14530291D01*
X28306325Y-14530293D01*
X28306324Y-14530295D01*
X28306324Y-14530297D01*
X28287593Y-14660572D01*
X28306324Y-14790847D01*
X28306324Y-14790848D01*
X28306325Y-14790850D01*
X28306325Y-14790852D01*
X28360995Y-14910562D01*
X28360998Y-14910568D01*
X28447188Y-15010036D01*
X28447189Y-15010036D01*
X28447190Y-15010038D01*
X28486356Y-15035208D01*
X28517509Y-15076141D01*
X28520900Y-15098470D01*
X28520900Y-15567800D01*
X28555778Y-15652006D01*
X28648711Y-15744939D01*
X28670451Y-15791559D01*
X28657137Y-15841246D01*
X28648711Y-15851287D01*
X28250000Y-16249998D01*
X28250000Y-20218852D01*
X28232407Y-20267190D01*
X28227974Y-20272026D01*
X27772026Y-20727974D01*
X27725406Y-20749714D01*
X27718852Y-20750000D01*
X21031148Y-20750000D01*
X20982810Y-20732407D01*
X20977974Y-20727974D01*
X17772026Y-17522026D01*
X17750286Y-17475406D01*
X17750000Y-17468852D01*
X17750000Y-17000000D01*
X26868593Y-17000000D01*
X26887324Y-17130275D01*
X26887324Y-17130276D01*
X26887325Y-17130278D01*
X26887325Y-17130280D01*
X26941995Y-17249990D01*
X26941998Y-17249996D01*
X26942000Y-17249998D01*
X27028191Y-17349467D01*
X27138908Y-17420620D01*
X27228742Y-17446997D01*
X27265193Y-17457700D01*
X27265196Y-17457700D01*
X27396804Y-17457700D01*
X27396807Y-17457700D01*
X27523091Y-17420620D01*
X27633808Y-17349467D01*
X27633808Y-17349466D01*
X27633812Y-17349464D01*
X27720002Y-17249996D01*
X27774676Y-17130275D01*
X27793407Y-17000000D01*
X27774676Y-16869725D01*
X27774674Y-16869720D01*
X27774674Y-16869719D01*
X27720004Y-16750009D01*
X27720002Y-16750004D01*
X27633812Y-16650536D01*
X27633810Y-16650535D01*
X27633808Y-16650532D01*
X27523091Y-16579379D01*
X27396809Y-16542300D01*
X27396807Y-16542300D01*
X27265193Y-16542300D01*
X27265190Y-16542300D01*
X27138908Y-16579379D01*
X27028191Y-16650532D01*
X26942000Y-16750001D01*
X26941995Y-16750009D01*
X26887325Y-16869719D01*
X26887325Y-16869721D01*
X26887324Y-16869723D01*
X26887324Y-16869725D01*
X26868593Y-17000000D01*
X17750000Y-17000000D01*
X17750000Y-16299999D01*
X21792078Y-16299999D01*
X21792078Y-16300000D01*
X21812043Y-16426056D01*
X21869984Y-16539771D01*
X21960229Y-16630016D01*
X22073943Y-16687956D01*
X22073945Y-16687957D01*
X22200000Y-16707922D01*
X22326055Y-16687957D01*
X22439771Y-16630016D01*
X22530016Y-16539771D01*
X22587957Y-16426055D01*
X22607922Y-16300000D01*
X22607922Y-16299999D01*
X22825411Y-16299999D01*
X22825411Y-16300000D01*
X22845376Y-16426056D01*
X22903317Y-16539771D01*
X22993562Y-16630016D01*
X23107276Y-16687956D01*
X23107278Y-16687957D01*
X23233333Y-16707922D01*
X23359388Y-16687957D01*
X23473104Y-16630016D01*
X23563349Y-16539771D01*
X23621290Y-16426055D01*
X23641255Y-16300000D01*
X23641255Y-16299999D01*
X23858745Y-16299999D01*
X23858745Y-16300000D01*
X23878710Y-16426056D01*
X23936651Y-16539771D01*
X24026896Y-16630016D01*
X24140610Y-16687956D01*
X24140612Y-16687957D01*
X24266667Y-16707922D01*
X24392722Y-16687957D01*
X24506438Y-16630016D01*
X24596683Y-16539771D01*
X24654624Y-16426055D01*
X24674589Y-16300000D01*
X24674589Y-16299999D01*
X24892078Y-16299999D01*
X24892078Y-16300000D01*
X24912043Y-16426056D01*
X24969984Y-16539771D01*
X25060229Y-16630016D01*
X25173943Y-16687956D01*
X25173945Y-16687957D01*
X25300000Y-16707922D01*
X25426055Y-16687957D01*
X25539771Y-16630016D01*
X25630016Y-16539771D01*
X25687957Y-16426055D01*
X25707922Y-16300000D01*
X25687957Y-16173945D01*
X25630016Y-16060229D01*
X25539771Y-15969984D01*
X25426055Y-15912043D01*
X25426057Y-15912043D01*
X25300000Y-15892078D01*
X25173943Y-15912043D01*
X25060228Y-15969984D01*
X24969984Y-16060228D01*
X24912043Y-16173943D01*
X24892078Y-16299999D01*
X24674589Y-16299999D01*
X24654624Y-16173945D01*
X24596683Y-16060229D01*
X24506438Y-15969984D01*
X24392722Y-15912043D01*
X24392724Y-15912043D01*
X24266667Y-15892078D01*
X24140610Y-15912043D01*
X24026895Y-15969984D01*
X23936651Y-16060228D01*
X23878710Y-16173943D01*
X23858745Y-16299999D01*
X23641255Y-16299999D01*
X23621290Y-16173945D01*
X23563349Y-16060229D01*
X23473104Y-15969984D01*
X23359388Y-15912043D01*
X23359390Y-15912043D01*
X23233333Y-15892078D01*
X23107276Y-15912043D01*
X22993561Y-15969984D01*
X22903317Y-16060228D01*
X22845376Y-16173943D01*
X22825411Y-16299999D01*
X22607922Y-16299999D01*
X22587957Y-16173945D01*
X22530016Y-16060229D01*
X22439771Y-15969984D01*
X22326055Y-15912043D01*
X22326057Y-15912043D01*
X22200000Y-15892078D01*
X22073943Y-15912043D01*
X21960228Y-15969984D01*
X21869984Y-16060228D01*
X21812043Y-16173943D01*
X21792078Y-16299999D01*
X17750000Y-16299999D01*
X17750000Y-15266666D01*
X21792078Y-15266666D01*
X21792078Y-15266667D01*
X21812043Y-15392723D01*
X21823491Y-15415190D01*
X21869984Y-15506438D01*
X21960229Y-15596683D01*
X22073943Y-15654623D01*
X22073945Y-15654624D01*
X22200000Y-15674589D01*
X22326055Y-15654624D01*
X22439771Y-15596683D01*
X22530016Y-15506438D01*
X22587957Y-15392722D01*
X22607922Y-15266667D01*
X22607922Y-15266666D01*
X22825411Y-15266666D01*
X22825411Y-15266667D01*
X22845376Y-15392723D01*
X22856824Y-15415190D01*
X22903317Y-15506438D01*
X22993562Y-15596683D01*
X23107276Y-15654623D01*
X23107278Y-15654624D01*
X23233333Y-15674589D01*
X23359388Y-15654624D01*
X23473104Y-15596683D01*
X23563349Y-15506438D01*
X23621290Y-15392722D01*
X23641255Y-15266667D01*
X23641255Y-15266666D01*
X23858745Y-15266666D01*
X23858745Y-15266667D01*
X23878710Y-15392723D01*
X23890158Y-15415190D01*
X23936651Y-15506438D01*
X24026896Y-15596683D01*
X24140610Y-15654623D01*
X24140612Y-15654624D01*
X24266667Y-15674589D01*
X24392722Y-15654624D01*
X24506438Y-15596683D01*
X24596683Y-15506438D01*
X24654624Y-15392722D01*
X24674589Y-15266667D01*
X24674589Y-15266666D01*
X24892078Y-15266666D01*
X24892078Y-15266667D01*
X24912043Y-15392723D01*
X24923491Y-15415190D01*
X24969984Y-15506438D01*
X25060229Y-15596683D01*
X25173943Y-15654623D01*
X25173945Y-15654624D01*
X25300000Y-15674589D01*
X25426055Y-15654624D01*
X25539771Y-15596683D01*
X25630016Y-15506438D01*
X25687957Y-15392722D01*
X25707922Y-15266667D01*
X25687957Y-15140612D01*
X25630016Y-15026896D01*
X25539771Y-14936651D01*
X25426055Y-14878710D01*
X25426057Y-14878710D01*
X25300000Y-14858745D01*
X25173943Y-14878710D01*
X25060228Y-14936651D01*
X24969984Y-15026895D01*
X24912043Y-15140610D01*
X24892078Y-15266666D01*
X24674589Y-15266666D01*
X24654624Y-15140612D01*
X24596683Y-15026896D01*
X24506438Y-14936651D01*
X24392722Y-14878710D01*
X24392724Y-14878710D01*
X24266667Y-14858745D01*
X24140610Y-14878710D01*
X24026895Y-14936651D01*
X23936651Y-15026895D01*
X23878710Y-15140610D01*
X23858745Y-15266666D01*
X23641255Y-15266666D01*
X23621290Y-15140612D01*
X23563349Y-15026896D01*
X23473104Y-14936651D01*
X23359388Y-14878710D01*
X23359390Y-14878710D01*
X23233333Y-14858745D01*
X23107276Y-14878710D01*
X22993561Y-14936651D01*
X22903317Y-15026895D01*
X22845376Y-15140610D01*
X22825411Y-15266666D01*
X22607922Y-15266666D01*
X22587957Y-15140612D01*
X22530016Y-15026896D01*
X22439771Y-14936651D01*
X22326055Y-14878710D01*
X22326057Y-14878710D01*
X22200000Y-14858745D01*
X22073943Y-14878710D01*
X21960228Y-14936651D01*
X21869984Y-15026895D01*
X21812043Y-15140610D01*
X21792078Y-15266666D01*
X17750000Y-15266666D01*
X17750000Y-14843135D01*
X26794001Y-14843135D01*
X26812732Y-14973410D01*
X26812732Y-14973411D01*
X26812733Y-14973413D01*
X26812733Y-14973415D01*
X26859647Y-15076141D01*
X26867406Y-15093131D01*
X26929849Y-15165194D01*
X26953599Y-15192602D01*
X27064316Y-15263755D01*
X27074234Y-15266667D01*
X27190601Y-15300835D01*
X27190604Y-15300835D01*
X27322212Y-15300835D01*
X27322215Y-15300835D01*
X27448499Y-15263755D01*
X27502372Y-15229133D01*
X27559216Y-15192602D01*
X27559216Y-15192601D01*
X27559220Y-15192599D01*
X27645410Y-15093131D01*
X27700084Y-14973410D01*
X27718815Y-14843135D01*
X27700084Y-14712860D01*
X27700082Y-14712855D01*
X27700082Y-14712854D01*
X27645412Y-14593144D01*
X27645410Y-14593139D01*
X27559220Y-14493671D01*
X27559218Y-14493670D01*
X27559216Y-14493667D01*
X27448499Y-14422514D01*
X27322217Y-14385435D01*
X27322215Y-14385435D01*
X27190601Y-14385435D01*
X27190598Y-14385435D01*
X27064316Y-14422514D01*
X26953599Y-14493667D01*
X26867408Y-14593136D01*
X26867403Y-14593144D01*
X26812733Y-14712854D01*
X26812733Y-14712856D01*
X26812732Y-14712858D01*
X26812732Y-14712860D01*
X26794001Y-14843135D01*
X17750000Y-14843135D01*
X17750000Y-14233332D01*
X21792078Y-14233332D01*
X21792078Y-14233333D01*
X21812043Y-14359389D01*
X21860469Y-14454429D01*
X21869984Y-14473104D01*
X21960229Y-14563349D01*
X22073943Y-14621289D01*
X22073945Y-14621290D01*
X22200000Y-14641255D01*
X22326055Y-14621290D01*
X22439771Y-14563349D01*
X22530016Y-14473104D01*
X22587957Y-14359388D01*
X22607922Y-14233333D01*
X22607922Y-14233332D01*
X22825411Y-14233332D01*
X22825411Y-14233333D01*
X22845376Y-14359389D01*
X22893802Y-14454429D01*
X22903317Y-14473104D01*
X22993562Y-14563349D01*
X23107276Y-14621289D01*
X23107278Y-14621290D01*
X23233333Y-14641255D01*
X23359388Y-14621290D01*
X23473104Y-14563349D01*
X23563349Y-14473104D01*
X23621290Y-14359388D01*
X23641255Y-14233333D01*
X23641255Y-14233332D01*
X23858745Y-14233332D01*
X23858745Y-14233333D01*
X23878710Y-14359389D01*
X23927136Y-14454429D01*
X23936651Y-14473104D01*
X24026896Y-14563349D01*
X24140610Y-14621289D01*
X24140612Y-14621290D01*
X24266667Y-14641255D01*
X24392722Y-14621290D01*
X24506438Y-14563349D01*
X24596683Y-14473104D01*
X24654624Y-14359388D01*
X24674589Y-14233333D01*
X24674589Y-14233332D01*
X24892078Y-14233332D01*
X24892078Y-14233333D01*
X24912043Y-14359389D01*
X24960469Y-14454429D01*
X24969984Y-14473104D01*
X25060229Y-14563349D01*
X25173943Y-14621289D01*
X25173945Y-14621290D01*
X25300000Y-14641255D01*
X25426055Y-14621290D01*
X25539771Y-14563349D01*
X25630016Y-14473104D01*
X25687957Y-14359388D01*
X25707922Y-14233333D01*
X25687957Y-14107278D01*
X25630016Y-13993562D01*
X25539771Y-13903317D01*
X25426055Y-13845376D01*
X25426057Y-13845376D01*
X25300000Y-13825411D01*
X25173943Y-13845376D01*
X25060228Y-13903317D01*
X24969984Y-13993561D01*
X24912043Y-14107276D01*
X24892078Y-14233332D01*
X24674589Y-14233332D01*
X24654624Y-14107278D01*
X24596683Y-13993562D01*
X24506438Y-13903317D01*
X24392722Y-13845376D01*
X24392724Y-13845376D01*
X24266667Y-13825411D01*
X24140610Y-13845376D01*
X24026895Y-13903317D01*
X23936651Y-13993561D01*
X23878710Y-14107276D01*
X23858745Y-14233332D01*
X23641255Y-14233332D01*
X23621290Y-14107278D01*
X23563349Y-13993562D01*
X23473104Y-13903317D01*
X23359388Y-13845376D01*
X23359390Y-13845376D01*
X23233333Y-13825411D01*
X23107276Y-13845376D01*
X22993561Y-13903317D01*
X22903317Y-13993561D01*
X22845376Y-14107276D01*
X22825411Y-14233332D01*
X22607922Y-14233332D01*
X22587957Y-14107278D01*
X22530016Y-13993562D01*
X22439771Y-13903317D01*
X22326055Y-13845376D01*
X22326057Y-13845376D01*
X22200000Y-13825411D01*
X22073943Y-13845376D01*
X21960228Y-13903317D01*
X21869984Y-13993561D01*
X21812043Y-14107276D01*
X21792078Y-14233332D01*
X17750000Y-14233332D01*
X17750000Y-13199999D01*
X21792078Y-13199999D01*
X21792078Y-13200000D01*
X21812043Y-13326056D01*
X21869984Y-13439771D01*
X21960229Y-13530016D01*
X22073943Y-13587956D01*
X22073945Y-13587957D01*
X22200000Y-13607922D01*
X22326055Y-13587957D01*
X22439771Y-13530016D01*
X22530016Y-13439771D01*
X22587957Y-13326055D01*
X22607922Y-13200000D01*
X22607922Y-13199999D01*
X22825411Y-13199999D01*
X22825411Y-13200000D01*
X22845376Y-13326056D01*
X22903317Y-13439771D01*
X22993562Y-13530016D01*
X23107276Y-13587956D01*
X23107278Y-13587957D01*
X23233333Y-13607922D01*
X23359388Y-13587957D01*
X23473104Y-13530016D01*
X23563349Y-13439771D01*
X23621290Y-13326055D01*
X23641255Y-13200000D01*
X23641255Y-13199999D01*
X23858745Y-13199999D01*
X23858745Y-13200000D01*
X23878710Y-13326056D01*
X23936651Y-13439771D01*
X24026896Y-13530016D01*
X24140610Y-13587956D01*
X24140612Y-13587957D01*
X24266667Y-13607922D01*
X24392722Y-13587957D01*
X24506438Y-13530016D01*
X24596683Y-13439771D01*
X24654624Y-13326055D01*
X24674589Y-13200000D01*
X24674589Y-13199999D01*
X24892078Y-13199999D01*
X24892078Y-13200000D01*
X24912043Y-13326056D01*
X24969984Y-13439771D01*
X25060229Y-13530016D01*
X25173943Y-13587956D01*
X25173945Y-13587957D01*
X25300000Y-13607922D01*
X25426055Y-13587957D01*
X25539771Y-13530016D01*
X25630016Y-13439771D01*
X25687957Y-13326055D01*
X25707922Y-13200000D01*
X25687957Y-13073945D01*
X25630016Y-12960229D01*
X25539771Y-12869984D01*
X25426055Y-12812043D01*
X25426057Y-12812043D01*
X25300000Y-12792078D01*
X25173943Y-12812043D01*
X25060228Y-12869984D01*
X24969984Y-12960228D01*
X24912043Y-13073943D01*
X24892078Y-13199999D01*
X24674589Y-13199999D01*
X24654624Y-13073945D01*
X24596683Y-12960229D01*
X24506438Y-12869984D01*
X24392722Y-12812043D01*
X24392724Y-12812043D01*
X24266667Y-12792078D01*
X24140610Y-12812043D01*
X24026895Y-12869984D01*
X23936651Y-12960228D01*
X23878710Y-13073943D01*
X23858745Y-13199999D01*
X23641255Y-13199999D01*
X23621290Y-13073945D01*
X23563349Y-12960229D01*
X23473104Y-12869984D01*
X23359388Y-12812043D01*
X23359390Y-12812043D01*
X23233333Y-12792078D01*
X23107276Y-12812043D01*
X22993561Y-12869984D01*
X22903317Y-12960228D01*
X22845376Y-13073943D01*
X22825411Y-13199999D01*
X22607922Y-13199999D01*
X22587957Y-13073945D01*
X22530016Y-12960229D01*
X22439771Y-12869984D01*
X22326055Y-12812043D01*
X22326057Y-12812043D01*
X22200000Y-12792078D01*
X22073943Y-12812043D01*
X21960228Y-12869984D01*
X21869984Y-12960228D01*
X21812043Y-13073943D01*
X21792078Y-13199999D01*
X17750000Y-13199999D01*
X17750000Y-11531148D01*
X17767593Y-11482810D01*
X17772026Y-11477974D01*
X18227974Y-11022026D01*
X18274594Y-11000286D01*
X18281148Y-11000000D01*
X19250000Y-11000000D01*
X26037593Y-11000000D01*
X26056324Y-11130275D01*
X26056324Y-11130276D01*
X26056325Y-11130278D01*
X26056325Y-11130280D01*
X26110995Y-11249990D01*
X26110998Y-11249996D01*
X26111000Y-11249998D01*
X26197191Y-11349467D01*
X26307908Y-11420620D01*
X26397742Y-11446997D01*
X26434193Y-11457700D01*
X26434196Y-11457700D01*
X26565804Y-11457700D01*
X26565807Y-11457700D01*
X26692091Y-11420620D01*
X26802808Y-11349467D01*
X26802808Y-11349466D01*
X26802812Y-11349464D01*
X26889002Y-11249996D01*
X26943676Y-11130275D01*
X26962407Y-11000000D01*
X26943676Y-10869725D01*
X26943674Y-10869720D01*
X26943674Y-10869719D01*
X26889004Y-10750009D01*
X26889002Y-10750004D01*
X26802812Y-10650536D01*
X26802810Y-10650535D01*
X26802808Y-10650532D01*
X26692091Y-10579379D01*
X26565809Y-10542300D01*
X26565807Y-10542300D01*
X26434193Y-10542300D01*
X26434190Y-10542300D01*
X26307908Y-10579379D01*
X26197191Y-10650532D01*
X26111000Y-10750001D01*
X26110995Y-10750009D01*
X26056325Y-10869719D01*
X26056325Y-10869721D01*
X26056324Y-10869723D01*
X26056324Y-10869725D01*
X26037593Y-11000000D01*
X19250000Y-11000000D01*
X21727974Y-8522026D01*
X21774594Y-8500286D01*
X21781148Y-8500000D01*
X30468852Y-8500000D01*
X30517190Y-8517593D01*
G37*
%TD.AperFunction*%
%TD*%
M02*
