M48
; DRILL file {KiCad 8.0.7} date 2025-01-01T13:56:25-0800
; FORMAT={-:-/ absolute / metric / decimal}
; #@! TF.CreationDate,2025-01-01T13:56:25-08:00
; #@! TF.GenerationSoftware,Kicad,Pcbnew,8.0.7
; #@! TF.FileFunction,Plated,1,4,PTH
FMAT,2
METRIC
; #@! TA.AperFunction,Plated,PTH,ComponentDrill
T1C0.200
; #@! TA.AperFunction,Plated,PTH,ViaDrill
T2C0.305
; #@! TA.AperFunction,Plated,PTH,ComponentDrill
T3C0.500
; #@! TA.AperFunction,Plated,PTH,ComponentDrill
T4C0.800
; #@! TA.AperFunction,Plated,PTH,ComponentDrill
T5C0.900
; #@! TA.AperFunction,Plated,PTH,ComponentDrill
T6C1.000
; #@! TA.AperFunction,Plated,PTH,ComponentDrill
T7C1.100
%
G90
G05
T1
X22.2Y-13.2
X22.2Y-14.233
X22.2Y-15.267
X22.2Y-16.3
X23.233Y-13.2
X23.233Y-14.233
X23.233Y-15.267
X23.233Y-16.3
X24.267Y-13.2
X24.267Y-14.233
X24.267Y-15.267
X24.267Y-16.3
X25.3Y-13.2
X25.3Y-14.233
X25.3Y-15.267
X25.3Y-16.3
T2
X-9.25Y-4.0
X-7.25Y-24.0
X-6.75Y-24.75
X-1.75Y-6.0
X-1.75Y-15.0
X-1.5Y-11.5
X-0.5Y-17.5
X-0.5Y-20.5
X2.25Y-12.0
X2.25Y-14.0
X2.946Y-12.601
X2.946Y-13.439
X7.512Y-7.75
X7.512Y-22.25
X10.5Y-7.75
X10.5Y-22.25
X11.5Y-4.25
X13.0Y-24.25
X13.25Y-0.75
X13.25Y-2.75
X14.0Y-0.75
X14.0Y-2.75
X14.0Y-24.75
X14.0Y-26.75
X14.75Y-0.75
X14.75Y-24.75
X14.75Y-26.75
X15.0Y-1.5
X15.25Y-22.5
X15.5Y-7.25
X15.5Y-26.75
X16.0Y-26.0
X16.5Y-28.25
X16.5Y-29.25
X16.75Y-12.5
X16.75Y-17.0
X17.5Y-19.75
X18.25Y-10.0
X18.25Y-12.5
X18.25Y-17.0
X18.25Y-24.75
X18.5Y-19.75
X18.972Y-24.472
X19.0Y-7.5
X19.0Y-22.5
X19.25Y-25.75
X19.528Y-25.028
X19.75Y-2.75
X19.75Y-22.0
X19.997Y-9.417
X20.75Y-7.5
X21.75Y-2.75
X21.903Y-9.034
X22.0Y-24.75
X22.151Y-20.213
X22.5Y-7.5
X22.5Y-22.0
X22.722Y-24.472
X23.0Y-25.75
X23.278Y-25.028
X23.75Y-2.75
X25.0Y-7.5
X25.574Y-9.068
X25.75Y-2.75
X26.5Y-11.0
X26.5Y-22.0
X26.75Y-7.5
X27.25Y-20.25
X27.256Y-14.843
X27.331Y-17.0
X27.371Y-7.957
X27.75Y-2.75
X28.25Y-7.5
X28.25Y-22.0
X28.75Y-14.661
X29.0Y-20.25
X29.25Y-14.0
X29.397Y-15.415
X29.75Y-7.5
X30.0Y-0.505
X30.0Y-22.0
X30.529Y-11.993
X30.75Y-1.0
X30.75Y-15.5
X30.75Y-18.5
X31.75Y-22.0
X32.0Y-11.75
X32.25Y-5.5
X32.282Y-8.282
X32.5Y-17.0
X33.242Y-15.25
X33.5Y-5.5
X33.5Y-8.5
X33.5Y-10.25
X34.0Y-13.742
X34.25Y-9.25
X35.25Y-9.25
X35.25Y-12.0
X36.25Y-1.25
X36.75Y-0.75
X37.5Y-28.25
X37.5Y-29.25
X38.75Y-20.0
X39.75Y-0.75
X39.75Y-1.5
X40.0Y-3.0
X40.0Y-3.75
X40.0Y-4.5
X40.0Y-6.0
X40.0Y-6.75
X40.0Y-7.5
X40.25Y-2.25
X40.25Y-5.25
X41.0Y-2.25
X41.0Y-5.25
X41.0Y-8.75
X41.0Y-13.75
X41.472Y-19.222
X41.75Y-2.25
X41.75Y-5.25
X41.75Y-8.75
X41.75Y-13.75
X41.75Y-18.5
X42.028Y-19.778
X42.5Y-8.75
X42.5Y-13.75
X42.75Y-19.5
X44.0Y-13.75
X44.0Y-24.75
X44.0Y-8.75
X44.25Y-9.5
X44.25Y-10.25
X44.25Y-12.25
X44.25Y-13.0
X45.5Y-1.5
X45.5Y-11.25
X46.25Y-1.5
X46.25Y-11.25
X46.5Y-24.5
X47.0Y-1.5
X47.0Y-11.25
X47.0Y-22.25
X47.75Y-9.75
X47.75Y-11.25
X48.25Y-2.0
X48.25Y-10.5
X48.75Y-1.5
X48.75Y-9.75
X48.75Y-22.25
X49.5Y-1.5
X50.25Y-1.5
X50.75Y-27.25
X51.0Y-1.5
X51.222Y-15.496
X51.23Y-16.252
X51.25Y-18.0
X51.5Y-13.5
X51.75Y-1.5
X52.0Y-9.75
X52.25Y-13.5
X52.5Y-1.5
X52.75Y-10.25
X53.25Y-1.5
X53.5Y-15.75
X53.5Y-22.0
X53.75Y-2.0
X54.171Y-14.611
X54.5Y-18.5
X54.5Y-19.25
X54.5Y-20.0
X56.5Y-18.5
X56.5Y-19.25
X56.5Y-20.0
X57.0Y-8.75
X57.0Y-10.75
X57.25Y-18.5
X57.25Y-19.25
X58.0Y-18.5
X58.65Y-14.6
X59.25Y-11.25
X59.25Y-18.65
X59.5Y-8.5
X59.5Y-21.5
X60.25Y-10.6
X60.25Y-19.25
X60.3Y-13.7
X61.0Y-20.0
T4
X40.3Y-28.1
X42.45Y-28.1
X47.5Y-27.75
X53.8Y-23.7
X54.1Y-26.3
T5
X-10.28Y-12.44
X-10.28Y-14.48
X-10.28Y-16.52
X-10.28Y-18.56
X-8.5Y-11.42
X-8.5Y-13.46
X-8.5Y-15.5
X-8.5Y-17.54
T6
X34.75Y-15.25
X34.75Y-20.25
X37.25Y-15.25
X37.25Y-20.25
T7
X-5.23Y-7.98
X-5.23Y-10.52
X-5.23Y-19.46
X-5.23Y-22.0
T3
G00X64.265Y-9.775
M15
G01X63.235Y-9.775
M16
G05
G00X64.265Y-20.225
M15
G01X63.235Y-20.225
M16
G05
T4
G00X-12.58Y-6.99
M15
G01X-13.78Y-6.99
M16
G05
G00X-12.58Y-22.99
M15
G01X-13.78Y-22.99
M16
G05
M30
