%TF.GenerationSoftware,KiCad,Pcbnew,8.0.7*%
%TF.CreationDate,2025-01-01T14:13:32-08:00*%
%TF.ProjectId,pizero-papoe,70697a65-726f-42d7-9061-706f652e6b69,R1*%
%TF.SameCoordinates,PX652f520PY4a19ba0*%
%TF.FileFunction,Legend,Top*%
%TF.FilePolarity,Positive*%
%FSLAX46Y46*%
G04 Gerber Fmt 4.6, Leading zero omitted, Abs format (unit mm)*
G04 Created by KiCad (PCBNEW 8.0.7) date 2025-01-01 14:13:32*
%MOMM*%
%LPD*%
G01*
G04 APERTURE LIST*
%ADD10C,0.150000*%
%ADD11C,0.120000*%
%ADD12C,0.381000*%
%ADD13C,0.127000*%
%ADD14C,0.200000*%
G04 APERTURE END LIST*
D10*
G36*
X-10621683Y-5944029D02*
G01*
X-10600800Y-5964912D01*
X-10576065Y-6014381D01*
X-10576065Y-6093255D01*
X-10600800Y-6142724D01*
X-10621683Y-6163608D01*
X-10671151Y-6188342D01*
X-10883208Y-6188342D01*
X-10883208Y-5919295D01*
X-10671151Y-5919295D01*
X-10621683Y-5944029D01*
G37*
G36*
X-11383588Y-4656074D02*
G01*
X-11330693Y-4708968D01*
X-11299875Y-4832239D01*
X-11299875Y-5080439D01*
X-11330693Y-5203710D01*
X-11383588Y-5256606D01*
X-11433056Y-5281340D01*
X-11550027Y-5281340D01*
X-11599496Y-5256605D01*
X-11652391Y-5203710D01*
X-11683209Y-5080437D01*
X-11683209Y-4832241D01*
X-11652391Y-4708968D01*
X-11599497Y-4656074D01*
X-11550027Y-4631340D01*
X-11433056Y-4631340D01*
X-11383588Y-4656074D01*
G37*
G36*
X-12183588Y-4656074D02*
G01*
X-12162705Y-4676957D01*
X-12137970Y-4726426D01*
X-12137970Y-4805300D01*
X-12162705Y-4854769D01*
X-12183588Y-4875653D01*
X-12233056Y-4900387D01*
X-12445113Y-4900387D01*
X-12445113Y-4631340D01*
X-12233056Y-4631340D01*
X-12183588Y-4656074D01*
G37*
G36*
X-10337176Y-6807595D02*
G01*
X-12684002Y-6807595D01*
X-12684002Y-5853675D01*
X-11832619Y-5853675D01*
X-11829359Y-5868012D01*
X-11562692Y-6668012D01*
X-11556698Y-6681437D01*
X-11553188Y-6685484D01*
X-11550791Y-6690278D01*
X-11543687Y-6696440D01*
X-11537524Y-6703545D01*
X-11532731Y-6705941D01*
X-11528683Y-6709452D01*
X-11519762Y-6712425D01*
X-11511351Y-6716631D01*
X-11506007Y-6717010D01*
X-11500921Y-6718706D01*
X-11491541Y-6718039D01*
X-11482161Y-6718706D01*
X-11477076Y-6717010D01*
X-11471731Y-6716631D01*
X-11463322Y-6712426D01*
X-11454398Y-6709452D01*
X-11450350Y-6705940D01*
X-11445558Y-6703545D01*
X-11439397Y-6696441D01*
X-11432291Y-6690278D01*
X-11429895Y-6685484D01*
X-11426384Y-6681437D01*
X-11420390Y-6668012D01*
X-11153724Y-5868012D01*
X-11150464Y-5853675D01*
X-11151130Y-5844295D01*
X-11033208Y-5844295D01*
X-11033208Y-6644295D01*
X-11031767Y-6658927D01*
X-11020568Y-6685963D01*
X-10999876Y-6706655D01*
X-10972840Y-6717854D01*
X-10943576Y-6717854D01*
X-10916540Y-6706655D01*
X-10895848Y-6685963D01*
X-10884649Y-6658927D01*
X-10883208Y-6644295D01*
X-10883208Y-6338342D01*
X-10653446Y-6338342D01*
X-10638814Y-6336901D01*
X-10636325Y-6335869D01*
X-10633637Y-6335679D01*
X-10619905Y-6330424D01*
X-10543715Y-6292329D01*
X-10537416Y-6288364D01*
X-10535588Y-6287607D01*
X-10533532Y-6285918D01*
X-10531272Y-6284497D01*
X-10529973Y-6282998D01*
X-10524223Y-6278280D01*
X-10486128Y-6240185D01*
X-10481408Y-6234432D01*
X-10479912Y-6233136D01*
X-10478493Y-6230881D01*
X-10476801Y-6228820D01*
X-10476043Y-6226989D01*
X-10472079Y-6220693D01*
X-10433983Y-6144503D01*
X-10428728Y-6130771D01*
X-10428537Y-6128081D01*
X-10427506Y-6125593D01*
X-10426065Y-6110961D01*
X-10426065Y-5996676D01*
X-10427506Y-5982044D01*
X-10428537Y-5979555D01*
X-10428728Y-5976866D01*
X-10433983Y-5963134D01*
X-10472079Y-5886944D01*
X-10476043Y-5880647D01*
X-10476801Y-5878817D01*
X-10478493Y-5876755D01*
X-10479912Y-5874501D01*
X-10481408Y-5873204D01*
X-10486128Y-5867452D01*
X-10524223Y-5829357D01*
X-10529973Y-5824638D01*
X-10531272Y-5823140D01*
X-10533532Y-5821718D01*
X-10535588Y-5820030D01*
X-10537416Y-5819272D01*
X-10543715Y-5815308D01*
X-10619905Y-5777213D01*
X-10633637Y-5771958D01*
X-10636325Y-5771767D01*
X-10638814Y-5770736D01*
X-10653446Y-5769295D01*
X-10958208Y-5769295D01*
X-10972840Y-5770736D01*
X-10999876Y-5781935D01*
X-11020568Y-5802627D01*
X-11031767Y-5829663D01*
X-11033208Y-5844295D01*
X-11151130Y-5844295D01*
X-11152538Y-5824485D01*
X-11165625Y-5798311D01*
X-11187732Y-5779138D01*
X-11215495Y-5769884D01*
X-11244685Y-5771958D01*
X-11270858Y-5785045D01*
X-11290032Y-5807152D01*
X-11296026Y-5820578D01*
X-11491542Y-6407124D01*
X-11687057Y-5820578D01*
X-11693051Y-5807152D01*
X-11712225Y-5785045D01*
X-11738398Y-5771959D01*
X-11767588Y-5769884D01*
X-11795351Y-5779138D01*
X-11817458Y-5798312D01*
X-11830544Y-5824485D01*
X-11832619Y-5853675D01*
X-12684002Y-5853675D01*
X-12684002Y-4556340D01*
X-12595113Y-4556340D01*
X-12595113Y-5356340D01*
X-12593672Y-5370972D01*
X-12582473Y-5398008D01*
X-12561781Y-5418700D01*
X-12534745Y-5429899D01*
X-12505481Y-5429899D01*
X-12478445Y-5418700D01*
X-12457753Y-5398008D01*
X-12446554Y-5370972D01*
X-12445113Y-5356340D01*
X-12445113Y-5050387D01*
X-12215351Y-5050387D01*
X-12200719Y-5048946D01*
X-12198230Y-5047914D01*
X-12195542Y-5047724D01*
X-12181810Y-5042469D01*
X-12105620Y-5004374D01*
X-12099321Y-5000409D01*
X-12097493Y-4999652D01*
X-12095437Y-4997963D01*
X-12093177Y-4996542D01*
X-12091878Y-4995043D01*
X-12086128Y-4990325D01*
X-12048033Y-4952230D01*
X-12043313Y-4946477D01*
X-12041817Y-4945181D01*
X-12040398Y-4942926D01*
X-12038706Y-4940865D01*
X-12037948Y-4939034D01*
X-12033984Y-4932738D01*
X-11995888Y-4856548D01*
X-11990633Y-4842816D01*
X-11990442Y-4840126D01*
X-11989411Y-4837638D01*
X-11987970Y-4823006D01*
X-11833209Y-4823006D01*
X-11833209Y-5089673D01*
X-11832958Y-5092226D01*
X-11833120Y-5093319D01*
X-11832311Y-5098793D01*
X-11831768Y-5104305D01*
X-11831346Y-5105325D01*
X-11830970Y-5107864D01*
X-11792874Y-5260245D01*
X-11787927Y-5274090D01*
X-11784608Y-5278570D01*
X-11782474Y-5283721D01*
X-11773146Y-5295087D01*
X-11696956Y-5371278D01*
X-11691207Y-5375996D01*
X-11689907Y-5377495D01*
X-11687648Y-5378916D01*
X-11685591Y-5380605D01*
X-11683764Y-5381362D01*
X-11677464Y-5385327D01*
X-11601273Y-5423422D01*
X-11587541Y-5428677D01*
X-11584854Y-5428867D01*
X-11582364Y-5429899D01*
X-11567732Y-5431340D01*
X-11415351Y-5431340D01*
X-11400719Y-5429899D01*
X-11398230Y-5428867D01*
X-11395542Y-5428677D01*
X-11381810Y-5423422D01*
X-11305620Y-5385327D01*
X-11299321Y-5381362D01*
X-11297493Y-5380605D01*
X-11295437Y-5378916D01*
X-11293177Y-5377495D01*
X-11291878Y-5375996D01*
X-11286128Y-5371278D01*
X-11209937Y-5295087D01*
X-11200610Y-5283722D01*
X-11198477Y-5278570D01*
X-11195156Y-5274090D01*
X-11190209Y-5260244D01*
X-11152114Y-5107863D01*
X-11151739Y-5105325D01*
X-11151316Y-5104305D01*
X-11150775Y-5098802D01*
X-11149963Y-5093318D01*
X-11150127Y-5092222D01*
X-11149875Y-5089673D01*
X-11149875Y-4823006D01*
X-11150127Y-4820456D01*
X-11149963Y-4819361D01*
X-11150775Y-4813876D01*
X-11151316Y-4808374D01*
X-11151739Y-4807353D01*
X-11152114Y-4804816D01*
X-11190209Y-4652435D01*
X-11195156Y-4638589D01*
X-11198477Y-4634108D01*
X-11200610Y-4628957D01*
X-11209937Y-4617592D01*
X-11271190Y-4556340D01*
X-10957018Y-4556340D01*
X-10957018Y-5356340D01*
X-10955577Y-5370972D01*
X-10944378Y-5398008D01*
X-10923686Y-5418700D01*
X-10896650Y-5429899D01*
X-10882018Y-5431340D01*
X-10501066Y-5431340D01*
X-10486434Y-5429899D01*
X-10459398Y-5418700D01*
X-10438706Y-5398008D01*
X-10427507Y-5370972D01*
X-10427507Y-5341708D01*
X-10438706Y-5314672D01*
X-10459398Y-5293980D01*
X-10486434Y-5282781D01*
X-10501066Y-5281340D01*
X-10807018Y-5281340D01*
X-10807018Y-5012292D01*
X-10615352Y-5012292D01*
X-10600720Y-5010851D01*
X-10573684Y-4999652D01*
X-10552992Y-4978960D01*
X-10541793Y-4951924D01*
X-10541793Y-4922660D01*
X-10552992Y-4895624D01*
X-10573684Y-4874932D01*
X-10600720Y-4863733D01*
X-10615352Y-4862292D01*
X-10807018Y-4862292D01*
X-10807018Y-4631340D01*
X-10501066Y-4631340D01*
X-10486434Y-4629899D01*
X-10459398Y-4618700D01*
X-10438706Y-4598008D01*
X-10427507Y-4570972D01*
X-10427507Y-4541708D01*
X-10438706Y-4514672D01*
X-10459398Y-4493980D01*
X-10486434Y-4482781D01*
X-10501066Y-4481340D01*
X-10882018Y-4481340D01*
X-10896650Y-4482781D01*
X-10923686Y-4493980D01*
X-10944378Y-4514672D01*
X-10955577Y-4541708D01*
X-10957018Y-4556340D01*
X-11271190Y-4556340D01*
X-11286128Y-4541402D01*
X-11291878Y-4536683D01*
X-11293177Y-4535185D01*
X-11295436Y-4533763D01*
X-11297494Y-4532074D01*
X-11299324Y-4531316D01*
X-11305620Y-4527353D01*
X-11381810Y-4489258D01*
X-11395542Y-4484003D01*
X-11398230Y-4483812D01*
X-11400719Y-4482781D01*
X-11415351Y-4481340D01*
X-11567732Y-4481340D01*
X-11582364Y-4482781D01*
X-11584854Y-4483812D01*
X-11587541Y-4484003D01*
X-11601273Y-4489258D01*
X-11677464Y-4527353D01*
X-11683759Y-4531315D01*
X-11685591Y-4532074D01*
X-11687653Y-4533765D01*
X-11689907Y-4535185D01*
X-11691206Y-4536681D01*
X-11696956Y-4541402D01*
X-11773146Y-4617592D01*
X-11782473Y-4628957D01*
X-11784607Y-4634107D01*
X-11787927Y-4638589D01*
X-11792874Y-4652434D01*
X-11830970Y-4804815D01*
X-11831346Y-4807353D01*
X-11831768Y-4808374D01*
X-11832311Y-4813885D01*
X-11833120Y-4819360D01*
X-11832958Y-4820452D01*
X-11833209Y-4823006D01*
X-11987970Y-4823006D01*
X-11987970Y-4708721D01*
X-11989411Y-4694089D01*
X-11990442Y-4691600D01*
X-11990633Y-4688911D01*
X-11995888Y-4675179D01*
X-12033984Y-4598989D01*
X-12037948Y-4592692D01*
X-12038706Y-4590862D01*
X-12040398Y-4588800D01*
X-12041817Y-4586546D01*
X-12043313Y-4585249D01*
X-12048033Y-4579497D01*
X-12086128Y-4541402D01*
X-12091878Y-4536683D01*
X-12093177Y-4535185D01*
X-12095437Y-4533763D01*
X-12097493Y-4532075D01*
X-12099321Y-4531317D01*
X-12105620Y-4527353D01*
X-12181810Y-4489258D01*
X-12195542Y-4484003D01*
X-12198230Y-4483812D01*
X-12200719Y-4482781D01*
X-12215351Y-4481340D01*
X-12520113Y-4481340D01*
X-12534745Y-4482781D01*
X-12561781Y-4493980D01*
X-12582473Y-4514672D01*
X-12593672Y-4541708D01*
X-12595113Y-4556340D01*
X-12684002Y-4556340D01*
X-12684002Y-4392451D01*
X-10337176Y-4392451D01*
X-10337176Y-6807595D01*
G37*
G36*
X56854630Y-28455812D02*
G01*
X56875512Y-28476694D01*
X56900247Y-28526163D01*
X56900247Y-28700125D01*
X56669295Y-28700125D01*
X56669295Y-28526163D01*
X56694029Y-28476694D01*
X56714911Y-28455812D01*
X56764381Y-28431078D01*
X56805161Y-28431078D01*
X56854630Y-28455812D01*
G37*
G36*
X57273676Y-28417716D02*
G01*
X57294561Y-28438600D01*
X57319295Y-28488068D01*
X57319295Y-28700125D01*
X57050247Y-28700125D01*
X57050247Y-28520628D01*
X57078893Y-28434687D01*
X57095863Y-28417717D01*
X57145334Y-28392982D01*
X57224208Y-28392982D01*
X57273676Y-28417716D01*
G37*
G36*
X57558184Y-29738425D02*
G01*
X56430406Y-29738425D01*
X56430406Y-29032412D01*
X56519884Y-29032412D01*
X56521959Y-29061602D01*
X56535045Y-29087775D01*
X56557153Y-29106949D01*
X56570578Y-29112943D01*
X57157124Y-29308458D01*
X56570578Y-29503974D01*
X56557152Y-29509968D01*
X56535045Y-29529142D01*
X56521959Y-29555315D01*
X56519884Y-29584505D01*
X56529138Y-29612268D01*
X56548312Y-29634375D01*
X56574485Y-29647461D01*
X56603675Y-29649536D01*
X56618012Y-29646276D01*
X57418012Y-29379609D01*
X57431437Y-29373615D01*
X57435482Y-29370106D01*
X57440279Y-29367708D01*
X57446443Y-29360599D01*
X57453545Y-29354441D01*
X57455940Y-29349649D01*
X57459452Y-29345601D01*
X57462426Y-29336677D01*
X57466631Y-29328268D01*
X57467010Y-29322923D01*
X57468706Y-29317838D01*
X57468039Y-29308455D01*
X57468706Y-29299078D01*
X57467011Y-29293995D01*
X57466632Y-29288648D01*
X57462425Y-29280234D01*
X57459452Y-29271315D01*
X57455941Y-29267267D01*
X57453545Y-29262475D01*
X57446440Y-29256312D01*
X57440278Y-29249208D01*
X57435486Y-29246812D01*
X57431438Y-29243301D01*
X57418012Y-29237307D01*
X56618012Y-28970641D01*
X56603675Y-28967381D01*
X56574485Y-28969456D01*
X56548312Y-28982542D01*
X56529138Y-29004650D01*
X56519884Y-29032412D01*
X56430406Y-29032412D01*
X56430406Y-28508459D01*
X56519295Y-28508459D01*
X56519295Y-28775125D01*
X56520736Y-28789757D01*
X56531935Y-28816793D01*
X56552627Y-28837485D01*
X56579663Y-28848684D01*
X56594295Y-28850125D01*
X57394295Y-28850125D01*
X57408927Y-28848684D01*
X57435963Y-28837485D01*
X57456655Y-28816793D01*
X57467854Y-28789757D01*
X57469295Y-28775125D01*
X57469295Y-28470363D01*
X57467854Y-28455731D01*
X57466822Y-28453241D01*
X57466632Y-28450554D01*
X57461377Y-28436822D01*
X57423282Y-28360632D01*
X57419318Y-28354334D01*
X57418560Y-28352504D01*
X57416869Y-28350444D01*
X57415450Y-28348189D01*
X57413952Y-28346890D01*
X57409232Y-28341139D01*
X57371136Y-28303044D01*
X57365384Y-28298323D01*
X57364088Y-28296829D01*
X57361834Y-28295410D01*
X57359771Y-28293717D01*
X57357939Y-28292958D01*
X57351645Y-28288996D01*
X57275456Y-28250900D01*
X57261724Y-28245645D01*
X57259034Y-28245453D01*
X57256546Y-28244423D01*
X57241914Y-28242982D01*
X57127628Y-28242982D01*
X57112996Y-28244423D01*
X57110504Y-28245455D01*
X57107818Y-28245646D01*
X57094086Y-28250901D01*
X57017896Y-28288996D01*
X57011601Y-28292958D01*
X57009771Y-28293717D01*
X57007708Y-28295409D01*
X57005454Y-28296829D01*
X57004157Y-28298323D01*
X56998406Y-28303044D01*
X56960310Y-28341139D01*
X56956604Y-28345654D01*
X56952090Y-28341140D01*
X56946340Y-28336421D01*
X56945041Y-28334923D01*
X56942781Y-28333501D01*
X56940725Y-28331813D01*
X56938897Y-28331055D01*
X56932598Y-28327091D01*
X56856407Y-28288996D01*
X56842675Y-28283741D01*
X56839987Y-28283550D01*
X56837498Y-28282519D01*
X56822866Y-28281078D01*
X56746676Y-28281078D01*
X56732044Y-28282519D01*
X56729554Y-28283550D01*
X56726867Y-28283741D01*
X56713135Y-28288996D01*
X56636944Y-28327091D01*
X56630644Y-28331055D01*
X56628817Y-28331813D01*
X56626760Y-28333501D01*
X56624501Y-28334923D01*
X56623201Y-28336421D01*
X56617452Y-28341140D01*
X56579357Y-28379235D01*
X56574638Y-28384984D01*
X56573140Y-28386284D01*
X56571718Y-28388543D01*
X56570030Y-28390600D01*
X56569272Y-28392427D01*
X56565308Y-28398727D01*
X56527213Y-28474918D01*
X56521958Y-28488650D01*
X56521767Y-28491337D01*
X56520736Y-28493827D01*
X56519295Y-28508459D01*
X56430406Y-28508459D01*
X56430406Y-27503350D01*
X56520736Y-27503350D01*
X56520736Y-27532614D01*
X56531935Y-27559650D01*
X56552627Y-27580342D01*
X56579663Y-27591541D01*
X56594295Y-27592982D01*
X57224208Y-27592982D01*
X57273676Y-27617716D01*
X57294561Y-27638600D01*
X57319295Y-27688068D01*
X57319295Y-27805039D01*
X57294561Y-27854507D01*
X57273677Y-27875390D01*
X57224209Y-27900125D01*
X56594295Y-27900125D01*
X56579663Y-27901566D01*
X56552627Y-27912765D01*
X56531935Y-27933457D01*
X56520736Y-27960493D01*
X56520736Y-27989757D01*
X56531935Y-28016793D01*
X56552627Y-28037485D01*
X56579663Y-28048684D01*
X56594295Y-28050125D01*
X57241914Y-28050125D01*
X57256546Y-28048684D01*
X57259035Y-28047652D01*
X57261723Y-28047462D01*
X57275455Y-28042207D01*
X57351645Y-28004112D01*
X57357941Y-28000148D01*
X57359771Y-27999391D01*
X57361829Y-27997701D01*
X57364088Y-27996280D01*
X57365387Y-27994781D01*
X57371136Y-27990064D01*
X57409232Y-27951969D01*
X57413952Y-27946217D01*
X57415450Y-27944919D01*
X57416869Y-27942663D01*
X57418560Y-27940604D01*
X57419318Y-27938773D01*
X57423282Y-27932476D01*
X57461377Y-27856285D01*
X57466632Y-27842553D01*
X57466822Y-27839865D01*
X57467854Y-27837376D01*
X57469295Y-27822744D01*
X57469295Y-27670363D01*
X57467854Y-27655731D01*
X57466822Y-27653241D01*
X57466632Y-27650554D01*
X57461377Y-27636822D01*
X57423282Y-27560632D01*
X57419318Y-27554334D01*
X57418560Y-27552504D01*
X57416869Y-27550444D01*
X57415450Y-27548189D01*
X57413952Y-27546890D01*
X57409232Y-27541139D01*
X57371136Y-27503044D01*
X57365384Y-27498323D01*
X57364088Y-27496829D01*
X57361834Y-27495410D01*
X57359771Y-27493717D01*
X57357939Y-27492958D01*
X57351645Y-27488996D01*
X57275456Y-27450900D01*
X57261724Y-27445645D01*
X57259034Y-27445453D01*
X57256546Y-27444423D01*
X57241914Y-27442982D01*
X56594295Y-27442982D01*
X56579663Y-27444423D01*
X56552627Y-27455622D01*
X56531935Y-27476314D01*
X56520736Y-27503350D01*
X56430406Y-27503350D01*
X56430406Y-26832268D01*
X56519295Y-26832268D01*
X56519295Y-27022745D01*
X56520736Y-27037377D01*
X56521767Y-27039866D01*
X56521958Y-27042554D01*
X56527213Y-27056286D01*
X56565308Y-27132476D01*
X56569272Y-27138775D01*
X56570030Y-27140603D01*
X56571718Y-27142659D01*
X56573140Y-27144919D01*
X56574638Y-27146218D01*
X56579357Y-27151968D01*
X56617452Y-27190063D01*
X56623204Y-27194783D01*
X56624501Y-27196279D01*
X56626755Y-27197698D01*
X56628817Y-27199390D01*
X56630647Y-27200148D01*
X56636944Y-27204112D01*
X56713134Y-27242208D01*
X56726866Y-27247463D01*
X56729555Y-27247654D01*
X56732044Y-27248685D01*
X56746676Y-27250126D01*
X56822866Y-27250126D01*
X56837498Y-27248685D01*
X56839986Y-27247654D01*
X56842676Y-27247463D01*
X56856407Y-27242208D01*
X56932598Y-27204112D01*
X56938894Y-27200148D01*
X56940725Y-27199390D01*
X56942786Y-27197698D01*
X56945041Y-27196279D01*
X56946337Y-27194783D01*
X56952090Y-27190063D01*
X56990185Y-27151968D01*
X56994903Y-27146218D01*
X56996402Y-27144919D01*
X56997823Y-27142659D01*
X56999512Y-27140603D01*
X57000269Y-27138775D01*
X57004234Y-27132476D01*
X57042329Y-27056286D01*
X57042738Y-27055216D01*
X57043061Y-27054781D01*
X57045256Y-27048635D01*
X57047584Y-27042554D01*
X57047622Y-27042014D01*
X57048008Y-27040935D01*
X57084106Y-26896540D01*
X57113077Y-26838599D01*
X57133960Y-26817717D01*
X57183428Y-26792983D01*
X57224209Y-26792983D01*
X57273677Y-26817717D01*
X57294561Y-26838600D01*
X57319295Y-26888068D01*
X57319295Y-27048670D01*
X57285049Y-27151409D01*
X57281789Y-27165746D01*
X57283864Y-27194936D01*
X57296950Y-27221109D01*
X57319058Y-27240283D01*
X57346820Y-27249537D01*
X57376010Y-27247462D01*
X57402183Y-27234376D01*
X57421357Y-27212268D01*
X57427351Y-27198843D01*
X57465446Y-27084557D01*
X57467095Y-27077303D01*
X57467854Y-27075472D01*
X57468115Y-27072817D01*
X57468706Y-27070220D01*
X57468565Y-27068245D01*
X57469295Y-27060840D01*
X57469295Y-26870364D01*
X57467854Y-26855732D01*
X57466822Y-26853242D01*
X57466632Y-26850555D01*
X57461377Y-26836823D01*
X57423282Y-26760632D01*
X57419318Y-26754334D01*
X57418560Y-26752504D01*
X57416869Y-26750444D01*
X57415450Y-26748189D01*
X57413952Y-26746890D01*
X57409232Y-26741139D01*
X57371136Y-26703044D01*
X57365387Y-26698326D01*
X57364088Y-26696828D01*
X57361829Y-26695406D01*
X57359771Y-26693717D01*
X57357941Y-26692959D01*
X57351645Y-26688996D01*
X57275455Y-26650901D01*
X57261723Y-26645646D01*
X57259035Y-26645455D01*
X57256546Y-26644424D01*
X57241914Y-26642983D01*
X57165723Y-26642983D01*
X57151091Y-26644424D01*
X57148601Y-26645455D01*
X57145914Y-26645646D01*
X57132182Y-26650901D01*
X57055992Y-26688996D01*
X57049692Y-26692960D01*
X57047865Y-26693718D01*
X57045808Y-26695406D01*
X57043549Y-26696828D01*
X57042249Y-26698326D01*
X57036500Y-26703045D01*
X56998405Y-26741140D01*
X56993684Y-26746892D01*
X56992189Y-26748189D01*
X56990769Y-26750443D01*
X56989078Y-26752505D01*
X56988319Y-26754335D01*
X56984356Y-26760632D01*
X56946260Y-26836823D01*
X56945850Y-26837892D01*
X56945528Y-26838328D01*
X56943335Y-26844464D01*
X56941005Y-26850554D01*
X56940966Y-26851094D01*
X56940581Y-26852174D01*
X56904482Y-26996569D01*
X56875513Y-27054508D01*
X56854630Y-27075390D01*
X56805161Y-27100126D01*
X56764381Y-27100126D01*
X56714912Y-27075391D01*
X56694029Y-27054508D01*
X56669295Y-27005040D01*
X56669295Y-26844438D01*
X56703541Y-26741700D01*
X56706801Y-26727363D01*
X56704726Y-26698173D01*
X56691640Y-26672000D01*
X56669533Y-26652826D01*
X56641770Y-26643572D01*
X56612580Y-26645647D01*
X56586407Y-26658733D01*
X56567233Y-26680840D01*
X56561239Y-26694266D01*
X56523144Y-26808551D01*
X56521494Y-26815804D01*
X56520736Y-26817636D01*
X56520474Y-26820290D01*
X56519884Y-26822888D01*
X56520024Y-26824862D01*
X56519295Y-26832268D01*
X56430406Y-26832268D01*
X56430406Y-26554094D01*
X57558184Y-26554094D01*
X57558184Y-29738425D01*
G37*
G36*
X47191503Y-447942D02*
G01*
X47246567Y-503006D01*
X47275537Y-560945D01*
X47309398Y-696387D01*
X47309398Y-792202D01*
X47275537Y-927643D01*
X47246567Y-985582D01*
X47191502Y-1040648D01*
X47105561Y-1069295D01*
X47002255Y-1069295D01*
X47002255Y-419295D01*
X47105561Y-419295D01*
X47191503Y-447942D01*
G37*
G36*
X47548287Y-1308184D02*
G01*
X45087175Y-1308184D01*
X45087175Y-687152D01*
X45176064Y-687152D01*
X45176064Y-801438D01*
X45176315Y-803991D01*
X45176153Y-805084D01*
X45176962Y-810558D01*
X45177505Y-816070D01*
X45177927Y-817090D01*
X45178303Y-819629D01*
X45216399Y-972010D01*
X45216784Y-973089D01*
X45216823Y-973628D01*
X45219147Y-979703D01*
X45221346Y-985855D01*
X45221668Y-986290D01*
X45222078Y-987360D01*
X45260173Y-1063550D01*
X45264136Y-1069846D01*
X45264894Y-1071676D01*
X45266583Y-1073734D01*
X45268005Y-1075993D01*
X45269503Y-1077292D01*
X45274222Y-1083042D01*
X45350412Y-1159233D01*
X45361777Y-1168560D01*
X45364267Y-1169591D01*
X45366303Y-1171357D01*
X45379728Y-1177351D01*
X45494014Y-1215446D01*
X45501267Y-1217095D01*
X45503099Y-1217854D01*
X45505753Y-1218115D01*
X45508351Y-1218706D01*
X45510325Y-1218565D01*
X45517731Y-1219295D01*
X45593922Y-1219295D01*
X45601327Y-1218565D01*
X45603302Y-1218706D01*
X45605899Y-1218115D01*
X45608554Y-1217854D01*
X45610385Y-1217095D01*
X45617639Y-1215446D01*
X45731924Y-1177351D01*
X45745350Y-1171357D01*
X45747386Y-1169590D01*
X45749875Y-1168560D01*
X45761240Y-1159233D01*
X45799336Y-1121137D01*
X45808664Y-1109772D01*
X45819735Y-1083042D01*
X45819862Y-1082736D01*
X45821303Y-1068104D01*
X45821303Y-801438D01*
X45819862Y-786806D01*
X45808663Y-759770D01*
X45787971Y-739078D01*
X45760935Y-727879D01*
X45746303Y-726438D01*
X45593922Y-726438D01*
X45579290Y-727879D01*
X45552254Y-739078D01*
X45531562Y-759770D01*
X45520363Y-786806D01*
X45520363Y-816070D01*
X45531562Y-843106D01*
X45552254Y-863798D01*
X45579290Y-874997D01*
X45593922Y-876438D01*
X45671303Y-876438D01*
X45671303Y-1037038D01*
X45667693Y-1040648D01*
X45581752Y-1069295D01*
X45529901Y-1069295D01*
X45443959Y-1040648D01*
X45388894Y-985582D01*
X45359924Y-927642D01*
X45326064Y-792202D01*
X45326064Y-696387D01*
X45359924Y-560946D01*
X45388894Y-503006D01*
X45443958Y-447942D01*
X45529901Y-419295D01*
X45614312Y-419295D01*
X45674666Y-449472D01*
X45688398Y-454727D01*
X45717588Y-456801D01*
X45745349Y-447547D01*
X45767457Y-428374D01*
X45780544Y-402199D01*
X45782618Y-373009D01*
X45773364Y-345248D01*
X45772538Y-344295D01*
X46014160Y-344295D01*
X46014160Y-1144295D01*
X46015601Y-1158927D01*
X46026800Y-1185963D01*
X46047492Y-1206655D01*
X46074528Y-1217854D01*
X46103792Y-1217854D01*
X46130828Y-1206655D01*
X46151520Y-1185963D01*
X46162719Y-1158927D01*
X46164160Y-1144295D01*
X46164160Y-626711D01*
X46481185Y-1181505D01*
X46483373Y-1184588D01*
X46483943Y-1185963D01*
X46485342Y-1187362D01*
X46489695Y-1193495D01*
X46497583Y-1199603D01*
X46504635Y-1206655D01*
X46509053Y-1208485D01*
X46512833Y-1211412D01*
X46522454Y-1214036D01*
X46531671Y-1217854D01*
X46536452Y-1217854D01*
X46541064Y-1219112D01*
X46550961Y-1217854D01*
X46560935Y-1217854D01*
X46565350Y-1216024D01*
X46570094Y-1215422D01*
X46578758Y-1210471D01*
X46587971Y-1206655D01*
X46591349Y-1203276D01*
X46595503Y-1200903D01*
X46601612Y-1193013D01*
X46608663Y-1185963D01*
X46610492Y-1181546D01*
X46613420Y-1177766D01*
X46616044Y-1168142D01*
X46619862Y-1158927D01*
X46620598Y-1151444D01*
X46621120Y-1149534D01*
X46620932Y-1148058D01*
X46621303Y-1144295D01*
X46621303Y-344295D01*
X46852255Y-344295D01*
X46852255Y-1144295D01*
X46853696Y-1158927D01*
X46864895Y-1185963D01*
X46885587Y-1206655D01*
X46912623Y-1217854D01*
X46927255Y-1219295D01*
X47117731Y-1219295D01*
X47125136Y-1218565D01*
X47127111Y-1218706D01*
X47129708Y-1218115D01*
X47132363Y-1217854D01*
X47134194Y-1217095D01*
X47141448Y-1215446D01*
X47255734Y-1177351D01*
X47269159Y-1171357D01*
X47271194Y-1169591D01*
X47273685Y-1168560D01*
X47285050Y-1159233D01*
X47361241Y-1083041D01*
X47365958Y-1077292D01*
X47367457Y-1075993D01*
X47368878Y-1073734D01*
X47370568Y-1071676D01*
X47371325Y-1069846D01*
X47375289Y-1063550D01*
X47413384Y-987360D01*
X47413793Y-986290D01*
X47414116Y-985855D01*
X47416314Y-979703D01*
X47418639Y-973628D01*
X47418677Y-973089D01*
X47419063Y-972010D01*
X47457159Y-819628D01*
X47457534Y-817091D01*
X47457957Y-816070D01*
X47458499Y-810557D01*
X47459309Y-805084D01*
X47459146Y-803991D01*
X47459398Y-801438D01*
X47459398Y-687152D01*
X47459146Y-684598D01*
X47459309Y-683506D01*
X47458499Y-678032D01*
X47457957Y-672520D01*
X47457534Y-671498D01*
X47457159Y-668962D01*
X47419063Y-516580D01*
X47418677Y-515500D01*
X47418639Y-514962D01*
X47416314Y-508886D01*
X47414116Y-502735D01*
X47413793Y-502299D01*
X47413384Y-501230D01*
X47375289Y-425039D01*
X47371326Y-418744D01*
X47370568Y-416912D01*
X47368876Y-414850D01*
X47367457Y-412596D01*
X47365960Y-411297D01*
X47361240Y-405547D01*
X47285050Y-329357D01*
X47273685Y-320030D01*
X47271194Y-318998D01*
X47269159Y-317233D01*
X47255734Y-311239D01*
X47141448Y-273144D01*
X47134194Y-271494D01*
X47132363Y-270736D01*
X47129708Y-270474D01*
X47127111Y-269884D01*
X47125136Y-270024D01*
X47117731Y-269295D01*
X46927255Y-269295D01*
X46912623Y-270736D01*
X46885587Y-281935D01*
X46864895Y-302627D01*
X46853696Y-329663D01*
X46852255Y-344295D01*
X46621303Y-344295D01*
X46619862Y-329663D01*
X46608663Y-302627D01*
X46587971Y-281935D01*
X46560935Y-270736D01*
X46531671Y-270736D01*
X46504635Y-281935D01*
X46483943Y-302627D01*
X46472744Y-329663D01*
X46471303Y-344295D01*
X46471303Y-861878D01*
X46154278Y-307085D01*
X46152089Y-304001D01*
X46151520Y-302627D01*
X46150120Y-301227D01*
X46145768Y-295095D01*
X46137878Y-288985D01*
X46130828Y-281935D01*
X46126411Y-280105D01*
X46122631Y-277178D01*
X46113007Y-274553D01*
X46103792Y-270736D01*
X46099011Y-270736D01*
X46094399Y-269478D01*
X46084502Y-270736D01*
X46074528Y-270736D01*
X46070112Y-272565D01*
X46065369Y-273168D01*
X46056704Y-278118D01*
X46047492Y-281935D01*
X46044113Y-285313D01*
X46039960Y-287687D01*
X46033850Y-295576D01*
X46026800Y-302627D01*
X46024970Y-307043D01*
X46022043Y-310824D01*
X46019418Y-320447D01*
X46015601Y-329663D01*
X46014864Y-337145D01*
X46014343Y-339056D01*
X46014530Y-340531D01*
X46014160Y-344295D01*
X45772538Y-344295D01*
X45754191Y-323140D01*
X45741748Y-315308D01*
X45665558Y-277213D01*
X45651826Y-271958D01*
X45649138Y-271767D01*
X45646649Y-270736D01*
X45632017Y-269295D01*
X45517731Y-269295D01*
X45510325Y-270024D01*
X45508351Y-269884D01*
X45505753Y-270474D01*
X45503099Y-270736D01*
X45501267Y-271494D01*
X45494014Y-273144D01*
X45379728Y-311239D01*
X45366303Y-317233D01*
X45364269Y-318996D01*
X45361777Y-320029D01*
X45350412Y-329357D01*
X45274222Y-405547D01*
X45269503Y-411296D01*
X45268005Y-412596D01*
X45266583Y-414855D01*
X45264895Y-416912D01*
X45264137Y-418739D01*
X45260173Y-425039D01*
X45222078Y-501230D01*
X45221668Y-502299D01*
X45221346Y-502735D01*
X45219147Y-508886D01*
X45216823Y-514962D01*
X45216784Y-515500D01*
X45216399Y-516580D01*
X45178303Y-668961D01*
X45177927Y-671499D01*
X45177505Y-672520D01*
X45176962Y-678031D01*
X45176153Y-683506D01*
X45176315Y-684598D01*
X45176064Y-687152D01*
X45087175Y-687152D01*
X45087175Y-180406D01*
X47548287Y-180406D01*
X47548287Y-1308184D01*
G37*
G36*
X55560919Y-6276184D02*
G01*
X54015032Y-6276184D01*
X54015032Y-5700487D01*
X54103921Y-5700487D01*
X54105012Y-5704102D01*
X54105012Y-5707877D01*
X54109205Y-5718003D01*
X54112374Y-5728503D01*
X54114765Y-5731425D01*
X54116210Y-5734914D01*
X54123964Y-5742668D01*
X54130905Y-5751151D01*
X54134231Y-5752935D01*
X54136903Y-5755607D01*
X54147032Y-5759802D01*
X54156692Y-5764985D01*
X54160450Y-5765360D01*
X54163939Y-5766806D01*
X54174901Y-5766806D01*
X54185811Y-5767897D01*
X54189427Y-5766806D01*
X54193201Y-5766806D01*
X54203327Y-5762612D01*
X54213827Y-5759444D01*
X54216749Y-5757052D01*
X54220238Y-5755608D01*
X54231603Y-5746281D01*
X54261093Y-5716791D01*
X54310562Y-5692057D01*
X54465628Y-5692057D01*
X54515097Y-5716791D01*
X54535979Y-5737673D01*
X54560714Y-5787142D01*
X54560714Y-5942209D01*
X54535979Y-5991677D01*
X54515096Y-6012561D01*
X54465628Y-6037295D01*
X54310562Y-6037295D01*
X54261094Y-6012561D01*
X54231604Y-5983071D01*
X54220239Y-5973744D01*
X54193202Y-5962545D01*
X54163940Y-5962545D01*
X54136903Y-5973744D01*
X54116211Y-5994436D01*
X54105012Y-6021473D01*
X54105012Y-6050735D01*
X54116211Y-6077772D01*
X54125538Y-6089137D01*
X54163634Y-6127233D01*
X54169384Y-6131953D01*
X54170683Y-6133450D01*
X54172937Y-6134869D01*
X54174999Y-6136561D01*
X54176831Y-6137319D01*
X54183126Y-6141282D01*
X54259316Y-6179377D01*
X54273048Y-6184632D01*
X54275735Y-6184822D01*
X54278225Y-6185854D01*
X54292857Y-6187295D01*
X54483333Y-6187295D01*
X54497965Y-6185854D01*
X54500454Y-6184822D01*
X54503142Y-6184632D01*
X54516874Y-6179377D01*
X54593065Y-6141282D01*
X54599364Y-6137317D01*
X54601192Y-6136560D01*
X54603248Y-6134872D01*
X54605508Y-6133450D01*
X54606808Y-6131950D01*
X54612558Y-6127232D01*
X54650653Y-6089136D01*
X54655370Y-6083387D01*
X54656869Y-6082088D01*
X54658290Y-6079829D01*
X54659980Y-6077771D01*
X54660737Y-6075941D01*
X54664701Y-6069645D01*
X54702796Y-5993455D01*
X54708051Y-5979723D01*
X54708241Y-5977035D01*
X54709273Y-5974546D01*
X54710714Y-5959914D01*
X54710714Y-5769438D01*
X54709273Y-5754806D01*
X54708241Y-5752316D01*
X54708051Y-5749629D01*
X54702796Y-5735897D01*
X54664701Y-5659706D01*
X54660736Y-5653406D01*
X54659979Y-5651579D01*
X54658290Y-5649522D01*
X54656869Y-5647263D01*
X54655370Y-5645963D01*
X54650652Y-5640214D01*
X54612557Y-5602119D01*
X54606807Y-5597400D01*
X54605508Y-5595902D01*
X54603248Y-5594480D01*
X54601192Y-5592792D01*
X54599364Y-5592034D01*
X54593065Y-5588070D01*
X54516874Y-5549975D01*
X54503142Y-5544720D01*
X54500454Y-5544529D01*
X54497965Y-5543498D01*
X54483333Y-5542057D01*
X54292857Y-5542057D01*
X54278225Y-5543498D01*
X54275735Y-5544529D01*
X54273048Y-5544720D01*
X54268629Y-5546410D01*
X54284541Y-5387295D01*
X54597619Y-5387295D01*
X54612251Y-5385854D01*
X54639287Y-5374655D01*
X54659979Y-5353963D01*
X54671178Y-5326927D01*
X54671178Y-5321675D01*
X54789875Y-5321675D01*
X54793135Y-5336012D01*
X55059802Y-6136012D01*
X55065796Y-6149437D01*
X55069306Y-6153484D01*
X55071703Y-6158278D01*
X55078807Y-6164440D01*
X55084970Y-6171545D01*
X55089763Y-6173941D01*
X55093811Y-6177452D01*
X55102732Y-6180425D01*
X55111143Y-6184631D01*
X55116487Y-6185010D01*
X55121573Y-6186706D01*
X55130953Y-6186039D01*
X55140333Y-6186706D01*
X55145418Y-6185010D01*
X55150763Y-6184631D01*
X55159172Y-6180426D01*
X55168096Y-6177452D01*
X55172144Y-6173940D01*
X55176936Y-6171545D01*
X55183097Y-6164441D01*
X55190203Y-6158278D01*
X55192599Y-6153484D01*
X55196110Y-6149437D01*
X55202104Y-6136012D01*
X55468770Y-5336012D01*
X55472030Y-5321675D01*
X55469956Y-5292485D01*
X55456869Y-5266311D01*
X55434762Y-5247138D01*
X55406999Y-5237884D01*
X55377809Y-5239958D01*
X55351636Y-5253045D01*
X55332462Y-5275152D01*
X55326468Y-5288578D01*
X55130952Y-5875124D01*
X54935437Y-5288578D01*
X54929443Y-5275152D01*
X54910269Y-5253045D01*
X54884096Y-5239959D01*
X54854906Y-5237884D01*
X54827143Y-5247138D01*
X54805036Y-5266312D01*
X54791950Y-5292485D01*
X54789875Y-5321675D01*
X54671178Y-5321675D01*
X54671178Y-5297663D01*
X54659979Y-5270627D01*
X54639287Y-5249935D01*
X54612251Y-5238736D01*
X54597619Y-5237295D01*
X54216667Y-5237295D01*
X54211255Y-5237827D01*
X54209427Y-5237645D01*
X54207640Y-5238183D01*
X54202035Y-5238736D01*
X54191908Y-5242930D01*
X54181411Y-5246098D01*
X54178487Y-5248489D01*
X54174999Y-5249935D01*
X54167245Y-5257688D01*
X54158763Y-5264629D01*
X54156978Y-5267955D01*
X54154307Y-5270627D01*
X54150111Y-5280756D01*
X54144929Y-5290416D01*
X54143821Y-5295940D01*
X54143108Y-5297663D01*
X54143108Y-5299499D01*
X54142039Y-5304832D01*
X54103943Y-5685784D01*
X54103921Y-5700487D01*
X54015032Y-5700487D01*
X54015032Y-5148406D01*
X55560919Y-5148406D01*
X55560919Y-6276184D01*
G37*
G36*
X19191503Y-26947942D02*
G01*
X19246567Y-27003006D01*
X19275537Y-27060945D01*
X19309398Y-27196387D01*
X19309398Y-27292202D01*
X19275537Y-27427643D01*
X19246567Y-27485582D01*
X19191502Y-27540648D01*
X19105561Y-27569295D01*
X19002255Y-27569295D01*
X19002255Y-26919295D01*
X19105561Y-26919295D01*
X19191503Y-26947942D01*
G37*
G36*
X19548287Y-27808184D02*
G01*
X17087175Y-27808184D01*
X17087175Y-27187152D01*
X17176064Y-27187152D01*
X17176064Y-27301438D01*
X17176315Y-27303991D01*
X17176153Y-27305084D01*
X17176962Y-27310558D01*
X17177505Y-27316070D01*
X17177927Y-27317090D01*
X17178303Y-27319629D01*
X17216399Y-27472010D01*
X17216784Y-27473089D01*
X17216823Y-27473628D01*
X17219147Y-27479703D01*
X17221346Y-27485855D01*
X17221668Y-27486290D01*
X17222078Y-27487360D01*
X17260173Y-27563550D01*
X17264136Y-27569846D01*
X17264894Y-27571676D01*
X17266583Y-27573734D01*
X17268005Y-27575993D01*
X17269503Y-27577292D01*
X17274222Y-27583042D01*
X17350412Y-27659233D01*
X17361777Y-27668560D01*
X17364267Y-27669591D01*
X17366303Y-27671357D01*
X17379728Y-27677351D01*
X17494014Y-27715446D01*
X17501267Y-27717095D01*
X17503099Y-27717854D01*
X17505753Y-27718115D01*
X17508351Y-27718706D01*
X17510325Y-27718565D01*
X17517731Y-27719295D01*
X17593922Y-27719295D01*
X17601327Y-27718565D01*
X17603302Y-27718706D01*
X17605899Y-27718115D01*
X17608554Y-27717854D01*
X17610385Y-27717095D01*
X17617639Y-27715446D01*
X17731924Y-27677351D01*
X17745350Y-27671357D01*
X17747386Y-27669590D01*
X17749875Y-27668560D01*
X17761240Y-27659233D01*
X17799336Y-27621137D01*
X17808664Y-27609772D01*
X17819735Y-27583042D01*
X17819862Y-27582736D01*
X17821303Y-27568104D01*
X17821303Y-27301438D01*
X17819862Y-27286806D01*
X17808663Y-27259770D01*
X17787971Y-27239078D01*
X17760935Y-27227879D01*
X17746303Y-27226438D01*
X17593922Y-27226438D01*
X17579290Y-27227879D01*
X17552254Y-27239078D01*
X17531562Y-27259770D01*
X17520363Y-27286806D01*
X17520363Y-27316070D01*
X17531562Y-27343106D01*
X17552254Y-27363798D01*
X17579290Y-27374997D01*
X17593922Y-27376438D01*
X17671303Y-27376438D01*
X17671303Y-27537038D01*
X17667693Y-27540648D01*
X17581752Y-27569295D01*
X17529901Y-27569295D01*
X17443959Y-27540648D01*
X17388894Y-27485582D01*
X17359924Y-27427642D01*
X17326064Y-27292202D01*
X17326064Y-27196387D01*
X17359924Y-27060946D01*
X17388894Y-27003006D01*
X17443958Y-26947942D01*
X17529901Y-26919295D01*
X17614312Y-26919295D01*
X17674666Y-26949472D01*
X17688398Y-26954727D01*
X17717588Y-26956801D01*
X17745349Y-26947547D01*
X17767457Y-26928374D01*
X17780544Y-26902199D01*
X17782618Y-26873009D01*
X17773364Y-26845248D01*
X17772538Y-26844295D01*
X18014160Y-26844295D01*
X18014160Y-27644295D01*
X18015601Y-27658927D01*
X18026800Y-27685963D01*
X18047492Y-27706655D01*
X18074528Y-27717854D01*
X18103792Y-27717854D01*
X18130828Y-27706655D01*
X18151520Y-27685963D01*
X18162719Y-27658927D01*
X18164160Y-27644295D01*
X18164160Y-27126711D01*
X18481185Y-27681505D01*
X18483373Y-27684588D01*
X18483943Y-27685963D01*
X18485342Y-27687362D01*
X18489695Y-27693495D01*
X18497583Y-27699603D01*
X18504635Y-27706655D01*
X18509053Y-27708485D01*
X18512833Y-27711412D01*
X18522454Y-27714036D01*
X18531671Y-27717854D01*
X18536452Y-27717854D01*
X18541064Y-27719112D01*
X18550961Y-27717854D01*
X18560935Y-27717854D01*
X18565350Y-27716024D01*
X18570094Y-27715422D01*
X18578758Y-27710471D01*
X18587971Y-27706655D01*
X18591349Y-27703276D01*
X18595503Y-27700903D01*
X18601612Y-27693013D01*
X18608663Y-27685963D01*
X18610492Y-27681546D01*
X18613420Y-27677766D01*
X18616044Y-27668142D01*
X18619862Y-27658927D01*
X18620598Y-27651444D01*
X18621120Y-27649534D01*
X18620932Y-27648058D01*
X18621303Y-27644295D01*
X18621303Y-26844295D01*
X18852255Y-26844295D01*
X18852255Y-27644295D01*
X18853696Y-27658927D01*
X18864895Y-27685963D01*
X18885587Y-27706655D01*
X18912623Y-27717854D01*
X18927255Y-27719295D01*
X19117731Y-27719295D01*
X19125136Y-27718565D01*
X19127111Y-27718706D01*
X19129708Y-27718115D01*
X19132363Y-27717854D01*
X19134194Y-27717095D01*
X19141448Y-27715446D01*
X19255734Y-27677351D01*
X19269159Y-27671357D01*
X19271194Y-27669591D01*
X19273685Y-27668560D01*
X19285050Y-27659233D01*
X19361241Y-27583041D01*
X19365958Y-27577292D01*
X19367457Y-27575993D01*
X19368878Y-27573734D01*
X19370568Y-27571676D01*
X19371325Y-27569846D01*
X19375289Y-27563550D01*
X19413384Y-27487360D01*
X19413793Y-27486290D01*
X19414116Y-27485855D01*
X19416314Y-27479703D01*
X19418639Y-27473628D01*
X19418677Y-27473089D01*
X19419063Y-27472010D01*
X19457159Y-27319628D01*
X19457534Y-27317091D01*
X19457957Y-27316070D01*
X19458499Y-27310557D01*
X19459309Y-27305084D01*
X19459146Y-27303991D01*
X19459398Y-27301438D01*
X19459398Y-27187152D01*
X19459146Y-27184598D01*
X19459309Y-27183506D01*
X19458499Y-27178032D01*
X19457957Y-27172520D01*
X19457534Y-27171498D01*
X19457159Y-27168962D01*
X19419063Y-27016580D01*
X19418677Y-27015500D01*
X19418639Y-27014962D01*
X19416314Y-27008886D01*
X19414116Y-27002735D01*
X19413793Y-27002299D01*
X19413384Y-27001230D01*
X19375289Y-26925039D01*
X19371326Y-26918744D01*
X19370568Y-26916912D01*
X19368876Y-26914850D01*
X19367457Y-26912596D01*
X19365960Y-26911297D01*
X19361240Y-26905547D01*
X19285050Y-26829357D01*
X19273685Y-26820030D01*
X19271194Y-26818998D01*
X19269159Y-26817233D01*
X19255734Y-26811239D01*
X19141448Y-26773144D01*
X19134194Y-26771494D01*
X19132363Y-26770736D01*
X19129708Y-26770474D01*
X19127111Y-26769884D01*
X19125136Y-26770024D01*
X19117731Y-26769295D01*
X18927255Y-26769295D01*
X18912623Y-26770736D01*
X18885587Y-26781935D01*
X18864895Y-26802627D01*
X18853696Y-26829663D01*
X18852255Y-26844295D01*
X18621303Y-26844295D01*
X18619862Y-26829663D01*
X18608663Y-26802627D01*
X18587971Y-26781935D01*
X18560935Y-26770736D01*
X18531671Y-26770736D01*
X18504635Y-26781935D01*
X18483943Y-26802627D01*
X18472744Y-26829663D01*
X18471303Y-26844295D01*
X18471303Y-27361878D01*
X18154278Y-26807085D01*
X18152089Y-26804001D01*
X18151520Y-26802627D01*
X18150120Y-26801227D01*
X18145768Y-26795095D01*
X18137878Y-26788985D01*
X18130828Y-26781935D01*
X18126411Y-26780105D01*
X18122631Y-26777178D01*
X18113007Y-26774553D01*
X18103792Y-26770736D01*
X18099011Y-26770736D01*
X18094399Y-26769478D01*
X18084502Y-26770736D01*
X18074528Y-26770736D01*
X18070112Y-26772565D01*
X18065369Y-26773168D01*
X18056704Y-26778118D01*
X18047492Y-26781935D01*
X18044113Y-26785313D01*
X18039960Y-26787687D01*
X18033850Y-26795576D01*
X18026800Y-26802627D01*
X18024970Y-26807043D01*
X18022043Y-26810824D01*
X18019418Y-26820447D01*
X18015601Y-26829663D01*
X18014864Y-26837145D01*
X18014343Y-26839056D01*
X18014530Y-26840531D01*
X18014160Y-26844295D01*
X17772538Y-26844295D01*
X17754191Y-26823140D01*
X17741748Y-26815308D01*
X17665558Y-26777213D01*
X17651826Y-26771958D01*
X17649138Y-26771767D01*
X17646649Y-26770736D01*
X17632017Y-26769295D01*
X17517731Y-26769295D01*
X17510325Y-26770024D01*
X17508351Y-26769884D01*
X17505753Y-26770474D01*
X17503099Y-26770736D01*
X17501267Y-26771494D01*
X17494014Y-26773144D01*
X17379728Y-26811239D01*
X17366303Y-26817233D01*
X17364269Y-26818996D01*
X17361777Y-26820029D01*
X17350412Y-26829357D01*
X17274222Y-26905547D01*
X17269503Y-26911296D01*
X17268005Y-26912596D01*
X17266583Y-26914855D01*
X17264895Y-26916912D01*
X17264137Y-26918739D01*
X17260173Y-26925039D01*
X17222078Y-27001230D01*
X17221668Y-27002299D01*
X17221346Y-27002735D01*
X17219147Y-27008886D01*
X17216823Y-27014962D01*
X17216784Y-27015500D01*
X17216399Y-27016580D01*
X17178303Y-27168961D01*
X17177927Y-27171499D01*
X17177505Y-27172520D01*
X17176962Y-27178031D01*
X17176153Y-27183506D01*
X17176315Y-27184598D01*
X17176064Y-27187152D01*
X17087175Y-27187152D01*
X17087175Y-26680406D01*
X19548287Y-26680406D01*
X19548287Y-27808184D01*
G37*
G36*
X-11575163Y-24447942D02*
G01*
X-11520099Y-24503006D01*
X-11491129Y-24560945D01*
X-11457268Y-24696387D01*
X-11457268Y-24792202D01*
X-11491129Y-24927643D01*
X-11520099Y-24985582D01*
X-11575164Y-25040648D01*
X-11661105Y-25069295D01*
X-11764411Y-25069295D01*
X-11764411Y-24419295D01*
X-11661105Y-24419295D01*
X-11575163Y-24447942D01*
G37*
G36*
X-10456475Y-25308184D02*
G01*
X-13374729Y-25308184D01*
X-13374729Y-24344295D01*
X-13285840Y-24344295D01*
X-13285840Y-25144295D01*
X-13284399Y-25158926D01*
X-13284399Y-25158927D01*
X-13273200Y-25185963D01*
X-13252508Y-25206655D01*
X-13225472Y-25217854D01*
X-13210840Y-25219295D01*
X-12829888Y-25219295D01*
X-12815256Y-25217854D01*
X-12788220Y-25206655D01*
X-12767528Y-25185963D01*
X-12756329Y-25158927D01*
X-12756329Y-25129663D01*
X-12767528Y-25102627D01*
X-12788220Y-25081935D01*
X-12815256Y-25070736D01*
X-12829888Y-25069295D01*
X-13135840Y-25069295D01*
X-13135840Y-24344295D01*
X-12638221Y-24344295D01*
X-12638221Y-25144295D01*
X-12636780Y-25158926D01*
X-12636780Y-25158927D01*
X-12625581Y-25185963D01*
X-12604889Y-25206655D01*
X-12577853Y-25217854D01*
X-12563221Y-25219295D01*
X-12182269Y-25219295D01*
X-12167637Y-25217854D01*
X-12140601Y-25206655D01*
X-12119909Y-25185963D01*
X-12108710Y-25158927D01*
X-12108710Y-25129663D01*
X-12119909Y-25102627D01*
X-12140601Y-25081935D01*
X-12167637Y-25070736D01*
X-12182269Y-25069295D01*
X-12488221Y-25069295D01*
X-12488221Y-24800247D01*
X-12296555Y-24800247D01*
X-12281923Y-24798806D01*
X-12254887Y-24787607D01*
X-12234195Y-24766915D01*
X-12222996Y-24739879D01*
X-12222996Y-24710615D01*
X-12234195Y-24683579D01*
X-12254887Y-24662887D01*
X-12281923Y-24651688D01*
X-12296555Y-24650247D01*
X-12488221Y-24650247D01*
X-12488221Y-24419295D01*
X-12182269Y-24419295D01*
X-12167637Y-24417854D01*
X-12140601Y-24406655D01*
X-12119909Y-24385963D01*
X-12108710Y-24358927D01*
X-12108710Y-24344295D01*
X-11914411Y-24344295D01*
X-11914411Y-25144295D01*
X-11912970Y-25158926D01*
X-11912970Y-25158927D01*
X-11901771Y-25185963D01*
X-11881079Y-25206655D01*
X-11854043Y-25217854D01*
X-11839411Y-25219295D01*
X-11648935Y-25219295D01*
X-11641530Y-25218565D01*
X-11639555Y-25218706D01*
X-11636958Y-25218115D01*
X-11634303Y-25217854D01*
X-11632472Y-25217095D01*
X-11625218Y-25215446D01*
X-11510932Y-25177351D01*
X-11497507Y-25171357D01*
X-11495472Y-25169591D01*
X-11492981Y-25168560D01*
X-11481616Y-25159233D01*
X-11452046Y-25129663D01*
X-11189161Y-25129663D01*
X-11189161Y-25158927D01*
X-11177962Y-25185963D01*
X-11157270Y-25206655D01*
X-11130234Y-25217854D01*
X-11115602Y-25219295D01*
X-10620364Y-25219295D01*
X-10605732Y-25217854D01*
X-10578696Y-25206655D01*
X-10558004Y-25185963D01*
X-10546805Y-25158927D01*
X-10546805Y-25129663D01*
X-10558004Y-25102627D01*
X-10578696Y-25081935D01*
X-10605732Y-25070736D01*
X-10620364Y-25069295D01*
X-10934536Y-25069295D01*
X-10605426Y-24740185D01*
X-10596098Y-24728820D01*
X-10595066Y-24726327D01*
X-10593302Y-24724294D01*
X-10587308Y-24710869D01*
X-10549213Y-24596583D01*
X-10547564Y-24589329D01*
X-10546805Y-24587498D01*
X-10546544Y-24584843D01*
X-10545953Y-24582246D01*
X-10546094Y-24580271D01*
X-10545364Y-24572866D01*
X-10545364Y-24496676D01*
X-10546805Y-24482044D01*
X-10547837Y-24479554D01*
X-10548027Y-24476867D01*
X-10553282Y-24463135D01*
X-10591377Y-24386944D01*
X-10595342Y-24380644D01*
X-10596099Y-24378817D01*
X-10597788Y-24376760D01*
X-10599209Y-24374501D01*
X-10600708Y-24373201D01*
X-10605426Y-24367452D01*
X-10643521Y-24329357D01*
X-10649271Y-24324638D01*
X-10650570Y-24323140D01*
X-10652830Y-24321718D01*
X-10654886Y-24320030D01*
X-10656714Y-24319272D01*
X-10663013Y-24315308D01*
X-10739204Y-24277213D01*
X-10752936Y-24271958D01*
X-10755624Y-24271767D01*
X-10758113Y-24270736D01*
X-10772745Y-24269295D01*
X-10963221Y-24269295D01*
X-10977853Y-24270736D01*
X-10980343Y-24271767D01*
X-10983030Y-24271958D01*
X-10996762Y-24277213D01*
X-11072952Y-24315308D01*
X-11079249Y-24319271D01*
X-11081078Y-24320029D01*
X-11083137Y-24321718D01*
X-11085395Y-24323140D01*
X-11086695Y-24324638D01*
X-11092443Y-24329356D01*
X-11130539Y-24367451D01*
X-11139867Y-24378817D01*
X-11151066Y-24405853D01*
X-11151066Y-24435115D01*
X-11139868Y-24462152D01*
X-11119175Y-24482845D01*
X-11092139Y-24494044D01*
X-11062877Y-24494044D01*
X-11035840Y-24482846D01*
X-11024475Y-24473519D01*
X-10994985Y-24444029D01*
X-10945516Y-24419295D01*
X-10790450Y-24419295D01*
X-10740981Y-24444029D01*
X-10720099Y-24464911D01*
X-10695364Y-24514380D01*
X-10695364Y-24560696D01*
X-10724012Y-24646638D01*
X-11168635Y-25091262D01*
X-11177962Y-25102627D01*
X-11189161Y-25129663D01*
X-11452046Y-25129663D01*
X-11405425Y-25083041D01*
X-11400708Y-25077292D01*
X-11399209Y-25075993D01*
X-11397788Y-25073734D01*
X-11396098Y-25071676D01*
X-11395341Y-25069846D01*
X-11391377Y-25063550D01*
X-11353282Y-24987360D01*
X-11352873Y-24986290D01*
X-11352550Y-24985855D01*
X-11350352Y-24979703D01*
X-11348027Y-24973628D01*
X-11347989Y-24973089D01*
X-11347603Y-24972010D01*
X-11309507Y-24819628D01*
X-11309132Y-24817091D01*
X-11308709Y-24816070D01*
X-11308167Y-24810557D01*
X-11307357Y-24805084D01*
X-11307520Y-24803991D01*
X-11307268Y-24801438D01*
X-11307268Y-24687152D01*
X-11307520Y-24684598D01*
X-11307357Y-24683506D01*
X-11308167Y-24678032D01*
X-11308709Y-24672520D01*
X-11309132Y-24671498D01*
X-11309507Y-24668962D01*
X-11347603Y-24516580D01*
X-11347989Y-24515500D01*
X-11348027Y-24514962D01*
X-11350352Y-24508886D01*
X-11352550Y-24502735D01*
X-11352873Y-24502299D01*
X-11353282Y-24501230D01*
X-11391377Y-24425039D01*
X-11395340Y-24418744D01*
X-11396098Y-24416912D01*
X-11397790Y-24414850D01*
X-11399209Y-24412596D01*
X-11400706Y-24411297D01*
X-11405426Y-24405547D01*
X-11481616Y-24329357D01*
X-11492981Y-24320030D01*
X-11495472Y-24318998D01*
X-11497507Y-24317233D01*
X-11510932Y-24311239D01*
X-11625218Y-24273144D01*
X-11632472Y-24271494D01*
X-11634303Y-24270736D01*
X-11636958Y-24270474D01*
X-11639555Y-24269884D01*
X-11641530Y-24270024D01*
X-11648935Y-24269295D01*
X-11839411Y-24269295D01*
X-11854043Y-24270736D01*
X-11881079Y-24281935D01*
X-11901771Y-24302627D01*
X-11912970Y-24329663D01*
X-11914411Y-24344295D01*
X-12108710Y-24344295D01*
X-12108710Y-24329663D01*
X-12119909Y-24302627D01*
X-12140601Y-24281935D01*
X-12167637Y-24270736D01*
X-12182269Y-24269295D01*
X-12563221Y-24269295D01*
X-12577853Y-24270736D01*
X-12604889Y-24281935D01*
X-12625581Y-24302627D01*
X-12636780Y-24329663D01*
X-12638221Y-24344295D01*
X-13135840Y-24344295D01*
X-13137281Y-24329663D01*
X-13148480Y-24302627D01*
X-13169172Y-24281935D01*
X-13196208Y-24270736D01*
X-13225472Y-24270736D01*
X-13252508Y-24281935D01*
X-13273200Y-24302627D01*
X-13284399Y-24329663D01*
X-13285840Y-24344295D01*
X-13374729Y-24344295D01*
X-13374729Y-24180406D01*
X-10456475Y-24180406D01*
X-10456475Y-25308184D01*
G37*
G36*
X29642725Y-4103431D02*
G01*
X29663608Y-4124314D01*
X29688342Y-4173782D01*
X29688342Y-4385839D01*
X29419295Y-4385839D01*
X29419295Y-4173782D01*
X29444029Y-4124314D01*
X29464912Y-4103430D01*
X29514381Y-4078696D01*
X29593256Y-4078696D01*
X29642725Y-4103431D01*
G37*
G36*
X29991665Y-3271418D02*
G01*
X30044561Y-3324314D01*
X30069295Y-3373782D01*
X30069295Y-3490753D01*
X30044560Y-3540221D01*
X29991665Y-3593116D01*
X29868393Y-3623935D01*
X29620196Y-3623935D01*
X29496923Y-3593116D01*
X29444029Y-3540222D01*
X29419295Y-3490753D01*
X29419295Y-3373782D01*
X29444029Y-3324313D01*
X29496923Y-3271418D01*
X29620195Y-3240601D01*
X29868394Y-3240601D01*
X29991665Y-3271418D01*
G37*
G36*
X29642725Y-446288D02*
G01*
X29663608Y-467171D01*
X29688342Y-516639D01*
X29688342Y-728696D01*
X29419295Y-728696D01*
X29419295Y-516639D01*
X29444029Y-467171D01*
X29464912Y-446287D01*
X29514381Y-421553D01*
X29593256Y-421553D01*
X29642725Y-446288D01*
G37*
G36*
X30384374Y-4624728D02*
G01*
X29180406Y-4624728D01*
X29180406Y-4156077D01*
X29269295Y-4156077D01*
X29269295Y-4460839D01*
X29270736Y-4475471D01*
X29281935Y-4502507D01*
X29302627Y-4523199D01*
X29329663Y-4534398D01*
X29344295Y-4535839D01*
X30144295Y-4535839D01*
X30158927Y-4534398D01*
X30185963Y-4523199D01*
X30206655Y-4502507D01*
X30217854Y-4475471D01*
X30217854Y-4446207D01*
X30206655Y-4419171D01*
X30185963Y-4398479D01*
X30158927Y-4387280D01*
X30144295Y-4385839D01*
X29838342Y-4385839D01*
X29838342Y-4156077D01*
X29836901Y-4141445D01*
X29835869Y-4138955D01*
X29835679Y-4136268D01*
X29830424Y-4122536D01*
X29792329Y-4046346D01*
X29788364Y-4040046D01*
X29787607Y-4038219D01*
X29785918Y-4036162D01*
X29784497Y-4033903D01*
X29782998Y-4032603D01*
X29778280Y-4026854D01*
X29740185Y-3988759D01*
X29734432Y-3984038D01*
X29733136Y-3982543D01*
X29730881Y-3981123D01*
X29728820Y-3979432D01*
X29726989Y-3978673D01*
X29720693Y-3974710D01*
X29644502Y-3936614D01*
X29630771Y-3931359D01*
X29628081Y-3931167D01*
X29625593Y-3930137D01*
X29610961Y-3928696D01*
X29496676Y-3928696D01*
X29482044Y-3930137D01*
X29479555Y-3931167D01*
X29476866Y-3931359D01*
X29463134Y-3936614D01*
X29386944Y-3974710D01*
X29380647Y-3978673D01*
X29378817Y-3979432D01*
X29376755Y-3981123D01*
X29374501Y-3982543D01*
X29373204Y-3984038D01*
X29367452Y-3988759D01*
X29329357Y-4026854D01*
X29324638Y-4032603D01*
X29323140Y-4033903D01*
X29321718Y-4036162D01*
X29320030Y-4038219D01*
X29319272Y-4040046D01*
X29315308Y-4046346D01*
X29277213Y-4122536D01*
X29271958Y-4136268D01*
X29271767Y-4138955D01*
X29270736Y-4141445D01*
X29269295Y-4156077D01*
X29180406Y-4156077D01*
X29180406Y-3356077D01*
X29269295Y-3356077D01*
X29269295Y-3508458D01*
X29270736Y-3523090D01*
X29271767Y-3525579D01*
X29271958Y-3528267D01*
X29277213Y-3541999D01*
X29315308Y-3618190D01*
X29319272Y-3624489D01*
X29320030Y-3626317D01*
X29321718Y-3628373D01*
X29323140Y-3630633D01*
X29324638Y-3631932D01*
X29329357Y-3637682D01*
X29405547Y-3713872D01*
X29416912Y-3723200D01*
X29422064Y-3725334D01*
X29426544Y-3728653D01*
X29440389Y-3733600D01*
X29592771Y-3771696D01*
X29595307Y-3772071D01*
X29596329Y-3772494D01*
X29601841Y-3773036D01*
X29607315Y-3773846D01*
X29608407Y-3773683D01*
X29610961Y-3773935D01*
X29877628Y-3773935D01*
X29880181Y-3773683D01*
X29881274Y-3773846D01*
X29886748Y-3773036D01*
X29892260Y-3772494D01*
X29893280Y-3772071D01*
X29895819Y-3771696D01*
X30048200Y-3733600D01*
X30062045Y-3728653D01*
X30066525Y-3725333D01*
X30071676Y-3723200D01*
X30083042Y-3713872D01*
X30159233Y-3637682D01*
X30163951Y-3631932D01*
X30165450Y-3630633D01*
X30166871Y-3628373D01*
X30168560Y-3626317D01*
X30169317Y-3624489D01*
X30173282Y-3618190D01*
X30211377Y-3541999D01*
X30216632Y-3528267D01*
X30216822Y-3525579D01*
X30217854Y-3523090D01*
X30219295Y-3508458D01*
X30219295Y-3356077D01*
X30217854Y-3341445D01*
X30216822Y-3338955D01*
X30216632Y-3336268D01*
X30211377Y-3322536D01*
X30173282Y-3246346D01*
X30169317Y-3240046D01*
X30168560Y-3238219D01*
X30166871Y-3236162D01*
X30165450Y-3233903D01*
X30163951Y-3232603D01*
X30159233Y-3226854D01*
X30083042Y-3150663D01*
X30071677Y-3141336D01*
X30066526Y-3139202D01*
X30062045Y-3135882D01*
X30048199Y-3130935D01*
X29895818Y-3092840D01*
X29893281Y-3092465D01*
X29892260Y-3092042D01*
X29886745Y-3091498D01*
X29881273Y-3090690D01*
X29880181Y-3090852D01*
X29877628Y-3090601D01*
X29610961Y-3090601D01*
X29608411Y-3090852D01*
X29607316Y-3090689D01*
X29601831Y-3091500D01*
X29596329Y-3092042D01*
X29595308Y-3092464D01*
X29592771Y-3092840D01*
X29440390Y-3130935D01*
X29426544Y-3135882D01*
X29422063Y-3139202D01*
X29416912Y-3141336D01*
X29405547Y-3150663D01*
X29329357Y-3226854D01*
X29324638Y-3232603D01*
X29323140Y-3233903D01*
X29321718Y-3236161D01*
X29320029Y-3238220D01*
X29319271Y-3240049D01*
X29315308Y-3246346D01*
X29277213Y-3322536D01*
X29271958Y-3336268D01*
X29271767Y-3338955D01*
X29270736Y-3341445D01*
X29269295Y-3356077D01*
X29180406Y-3356077D01*
X29180406Y-2441792D01*
X29269295Y-2441792D01*
X29269295Y-2822744D01*
X29270736Y-2837376D01*
X29281935Y-2864412D01*
X29302627Y-2885104D01*
X29329663Y-2896303D01*
X29344295Y-2897744D01*
X30144295Y-2897744D01*
X30158927Y-2896303D01*
X30185963Y-2885104D01*
X30206655Y-2864412D01*
X30217854Y-2837376D01*
X30219295Y-2822744D01*
X30219295Y-2441792D01*
X30217854Y-2427160D01*
X30206655Y-2400124D01*
X30185963Y-2379432D01*
X30158927Y-2368233D01*
X30129663Y-2368233D01*
X30102627Y-2379432D01*
X30081935Y-2400124D01*
X30070736Y-2427160D01*
X30069295Y-2441792D01*
X30069295Y-2747744D01*
X29800247Y-2747744D01*
X29800247Y-2556078D01*
X29798806Y-2541446D01*
X29787607Y-2514410D01*
X29766915Y-2493718D01*
X29739879Y-2482519D01*
X29710615Y-2482519D01*
X29683579Y-2493718D01*
X29662887Y-2514410D01*
X29651688Y-2541446D01*
X29650247Y-2556078D01*
X29650247Y-2747744D01*
X29419295Y-2747744D01*
X29419295Y-2441792D01*
X29417854Y-2427160D01*
X29406655Y-2400124D01*
X29385963Y-2379432D01*
X29358927Y-2368233D01*
X29329663Y-2368233D01*
X29302627Y-2379432D01*
X29281935Y-2400124D01*
X29270736Y-2427160D01*
X29269295Y-2441792D01*
X29180406Y-2441792D01*
X29180406Y-1679887D01*
X30145485Y-1679887D01*
X30145485Y-2289411D01*
X30146926Y-2304043D01*
X30158125Y-2331079D01*
X30178817Y-2351771D01*
X30205853Y-2362970D01*
X30235117Y-2362970D01*
X30262153Y-2351771D01*
X30282845Y-2331079D01*
X30294044Y-2304043D01*
X30295485Y-2289411D01*
X30295485Y-1679887D01*
X30294044Y-1665255D01*
X30282845Y-1638219D01*
X30262153Y-1617527D01*
X30235117Y-1606328D01*
X30205853Y-1606328D01*
X30178817Y-1617527D01*
X30158125Y-1638219D01*
X30146926Y-1665255D01*
X30145485Y-1679887D01*
X29180406Y-1679887D01*
X29180406Y-1060983D01*
X29269884Y-1060983D01*
X29271959Y-1090173D01*
X29285045Y-1116346D01*
X29307153Y-1135520D01*
X29320578Y-1141514D01*
X29907124Y-1337029D01*
X29320578Y-1532545D01*
X29307152Y-1538539D01*
X29285045Y-1557713D01*
X29271959Y-1583886D01*
X29269884Y-1613076D01*
X29279138Y-1640839D01*
X29298312Y-1662946D01*
X29324485Y-1676032D01*
X29353675Y-1678107D01*
X29368012Y-1674847D01*
X30168012Y-1408180D01*
X30181437Y-1402186D01*
X30185482Y-1398677D01*
X30190279Y-1396279D01*
X30196443Y-1389170D01*
X30203545Y-1383012D01*
X30205940Y-1378220D01*
X30209452Y-1374172D01*
X30212426Y-1365248D01*
X30216631Y-1356839D01*
X30217010Y-1351494D01*
X30218706Y-1346409D01*
X30218039Y-1337026D01*
X30218706Y-1327649D01*
X30217011Y-1322566D01*
X30216632Y-1317219D01*
X30212425Y-1308805D01*
X30209452Y-1299886D01*
X30205941Y-1295838D01*
X30203545Y-1291046D01*
X30196440Y-1284883D01*
X30190278Y-1277779D01*
X30185486Y-1275383D01*
X30181438Y-1271872D01*
X30168012Y-1265878D01*
X29368012Y-999212D01*
X29353675Y-995952D01*
X29324485Y-998027D01*
X29298312Y-1011113D01*
X29279138Y-1033221D01*
X29269884Y-1060983D01*
X29180406Y-1060983D01*
X29180406Y-498934D01*
X29269295Y-498934D01*
X29269295Y-803696D01*
X29270736Y-818328D01*
X29281935Y-845364D01*
X29302627Y-866056D01*
X29329663Y-877255D01*
X29344295Y-878696D01*
X30144295Y-878696D01*
X30158927Y-877255D01*
X30185963Y-866056D01*
X30206655Y-845364D01*
X30217854Y-818328D01*
X30217854Y-789064D01*
X30206655Y-762028D01*
X30185963Y-741336D01*
X30158927Y-730137D01*
X30144295Y-728696D01*
X29838342Y-728696D01*
X29838342Y-498934D01*
X29836901Y-484302D01*
X29835869Y-481812D01*
X29835679Y-479125D01*
X29830424Y-465393D01*
X29792329Y-389203D01*
X29788364Y-382903D01*
X29787607Y-381076D01*
X29785918Y-379019D01*
X29784497Y-376760D01*
X29782998Y-375460D01*
X29778280Y-369711D01*
X29740185Y-331616D01*
X29734432Y-326895D01*
X29733136Y-325400D01*
X29730881Y-323980D01*
X29728820Y-322289D01*
X29726989Y-321530D01*
X29720693Y-317567D01*
X29644502Y-279471D01*
X29630771Y-274216D01*
X29628081Y-274024D01*
X29625593Y-272994D01*
X29610961Y-271553D01*
X29496676Y-271553D01*
X29482044Y-272994D01*
X29479555Y-274024D01*
X29476866Y-274216D01*
X29463134Y-279471D01*
X29386944Y-317567D01*
X29380647Y-321530D01*
X29378817Y-322289D01*
X29376755Y-323980D01*
X29374501Y-325400D01*
X29373204Y-326895D01*
X29367452Y-331616D01*
X29329357Y-369711D01*
X29324638Y-375460D01*
X29323140Y-376760D01*
X29321718Y-379019D01*
X29320030Y-381076D01*
X29319272Y-382903D01*
X29315308Y-389203D01*
X29277213Y-465393D01*
X29271958Y-479125D01*
X29271767Y-481812D01*
X29270736Y-484302D01*
X29269295Y-498934D01*
X29180406Y-498934D01*
X29180406Y-182664D01*
X30384374Y-182664D01*
X30384374Y-4624728D01*
G37*
X27731342Y-6630951D02*
X28112295Y-6630951D01*
X27312295Y-6897618D02*
X27731342Y-6630951D01*
X27731342Y-6630951D02*
X27312295Y-6364285D01*
X28112295Y-5678571D02*
X28112295Y-6135714D01*
X28112295Y-5907142D02*
X27312295Y-5907142D01*
X27312295Y-5907142D02*
X27426580Y-5983333D01*
X27426580Y-5983333D02*
X27502771Y-6059523D01*
X27502771Y-6059523D02*
X27540866Y-6135714D01*
X29286104Y-6383332D02*
X29324200Y-6421428D01*
X29324200Y-6421428D02*
X29362295Y-6535713D01*
X29362295Y-6535713D02*
X29362295Y-6611904D01*
X29362295Y-6611904D02*
X29324200Y-6726190D01*
X29324200Y-6726190D02*
X29248009Y-6802380D01*
X29248009Y-6802380D02*
X29171819Y-6840475D01*
X29171819Y-6840475D02*
X29019438Y-6878571D01*
X29019438Y-6878571D02*
X28905152Y-6878571D01*
X28905152Y-6878571D02*
X28752771Y-6840475D01*
X28752771Y-6840475D02*
X28676580Y-6802380D01*
X28676580Y-6802380D02*
X28600390Y-6726190D01*
X28600390Y-6726190D02*
X28562295Y-6611904D01*
X28562295Y-6611904D02*
X28562295Y-6535713D01*
X28562295Y-6535713D02*
X28600390Y-6421428D01*
X28600390Y-6421428D02*
X28638485Y-6383332D01*
X28638485Y-6078571D02*
X28600390Y-6040475D01*
X28600390Y-6040475D02*
X28562295Y-5964285D01*
X28562295Y-5964285D02*
X28562295Y-5773809D01*
X28562295Y-5773809D02*
X28600390Y-5697618D01*
X28600390Y-5697618D02*
X28638485Y-5659523D01*
X28638485Y-5659523D02*
X28714676Y-5621428D01*
X28714676Y-5621428D02*
X28790866Y-5621428D01*
X28790866Y-5621428D02*
X28905152Y-5659523D01*
X28905152Y-5659523D02*
X29362295Y-6116666D01*
X29362295Y-6116666D02*
X29362295Y-5621428D01*
X19786104Y-6633332D02*
X19824200Y-6671428D01*
X19824200Y-6671428D02*
X19862295Y-6785713D01*
X19862295Y-6785713D02*
X19862295Y-6861904D01*
X19862295Y-6861904D02*
X19824200Y-6976190D01*
X19824200Y-6976190D02*
X19748009Y-7052380D01*
X19748009Y-7052380D02*
X19671819Y-7090475D01*
X19671819Y-7090475D02*
X19519438Y-7128571D01*
X19519438Y-7128571D02*
X19405152Y-7128571D01*
X19405152Y-7128571D02*
X19252771Y-7090475D01*
X19252771Y-7090475D02*
X19176580Y-7052380D01*
X19176580Y-7052380D02*
X19100390Y-6976190D01*
X19100390Y-6976190D02*
X19062295Y-6861904D01*
X19062295Y-6861904D02*
X19062295Y-6785713D01*
X19062295Y-6785713D02*
X19100390Y-6671428D01*
X19100390Y-6671428D02*
X19138485Y-6633332D01*
X19062295Y-6366666D02*
X19062295Y-5871428D01*
X19062295Y-5871428D02*
X19367057Y-6138094D01*
X19367057Y-6138094D02*
X19367057Y-6023809D01*
X19367057Y-6023809D02*
X19405152Y-5947618D01*
X19405152Y-5947618D02*
X19443247Y-5909523D01*
X19443247Y-5909523D02*
X19519438Y-5871428D01*
X19519438Y-5871428D02*
X19709914Y-5871428D01*
X19709914Y-5871428D02*
X19786104Y-5909523D01*
X19786104Y-5909523D02*
X19824200Y-5947618D01*
X19824200Y-5947618D02*
X19862295Y-6023809D01*
X19862295Y-6023809D02*
X19862295Y-6252380D01*
X19862295Y-6252380D02*
X19824200Y-6328571D01*
X19824200Y-6328571D02*
X19786104Y-6366666D01*
X35786104Y-13633332D02*
X35824200Y-13671428D01*
X35824200Y-13671428D02*
X35862295Y-13785713D01*
X35862295Y-13785713D02*
X35862295Y-13861904D01*
X35862295Y-13861904D02*
X35824200Y-13976190D01*
X35824200Y-13976190D02*
X35748009Y-14052380D01*
X35748009Y-14052380D02*
X35671819Y-14090475D01*
X35671819Y-14090475D02*
X35519438Y-14128571D01*
X35519438Y-14128571D02*
X35405152Y-14128571D01*
X35405152Y-14128571D02*
X35252771Y-14090475D01*
X35252771Y-14090475D02*
X35176580Y-14052380D01*
X35176580Y-14052380D02*
X35100390Y-13976190D01*
X35100390Y-13976190D02*
X35062295Y-13861904D01*
X35062295Y-13861904D02*
X35062295Y-13785713D01*
X35062295Y-13785713D02*
X35100390Y-13671428D01*
X35100390Y-13671428D02*
X35138485Y-13633332D01*
X35062295Y-13366666D02*
X35062295Y-12833332D01*
X35062295Y-12833332D02*
X35862295Y-13176190D01*
X31866667Y-9286104D02*
X31828571Y-9324200D01*
X31828571Y-9324200D02*
X31714286Y-9362295D01*
X31714286Y-9362295D02*
X31638095Y-9362295D01*
X31638095Y-9362295D02*
X31523809Y-9324200D01*
X31523809Y-9324200D02*
X31447619Y-9248009D01*
X31447619Y-9248009D02*
X31409524Y-9171819D01*
X31409524Y-9171819D02*
X31371428Y-9019438D01*
X31371428Y-9019438D02*
X31371428Y-8905152D01*
X31371428Y-8905152D02*
X31409524Y-8752771D01*
X31409524Y-8752771D02*
X31447619Y-8676580D01*
X31447619Y-8676580D02*
X31523809Y-8600390D01*
X31523809Y-8600390D02*
X31638095Y-8562295D01*
X31638095Y-8562295D02*
X31714286Y-8562295D01*
X31714286Y-8562295D02*
X31828571Y-8600390D01*
X31828571Y-8600390D02*
X31866667Y-8638485D01*
X32323809Y-8905152D02*
X32247619Y-8867057D01*
X32247619Y-8867057D02*
X32209524Y-8828961D01*
X32209524Y-8828961D02*
X32171428Y-8752771D01*
X32171428Y-8752771D02*
X32171428Y-8714676D01*
X32171428Y-8714676D02*
X32209524Y-8638485D01*
X32209524Y-8638485D02*
X32247619Y-8600390D01*
X32247619Y-8600390D02*
X32323809Y-8562295D01*
X32323809Y-8562295D02*
X32476190Y-8562295D01*
X32476190Y-8562295D02*
X32552381Y-8600390D01*
X32552381Y-8600390D02*
X32590476Y-8638485D01*
X32590476Y-8638485D02*
X32628571Y-8714676D01*
X32628571Y-8714676D02*
X32628571Y-8752771D01*
X32628571Y-8752771D02*
X32590476Y-8828961D01*
X32590476Y-8828961D02*
X32552381Y-8867057D01*
X32552381Y-8867057D02*
X32476190Y-8905152D01*
X32476190Y-8905152D02*
X32323809Y-8905152D01*
X32323809Y-8905152D02*
X32247619Y-8943247D01*
X32247619Y-8943247D02*
X32209524Y-8981342D01*
X32209524Y-8981342D02*
X32171428Y-9057533D01*
X32171428Y-9057533D02*
X32171428Y-9209914D01*
X32171428Y-9209914D02*
X32209524Y-9286104D01*
X32209524Y-9286104D02*
X32247619Y-9324200D01*
X32247619Y-9324200D02*
X32323809Y-9362295D01*
X32323809Y-9362295D02*
X32476190Y-9362295D01*
X32476190Y-9362295D02*
X32552381Y-9324200D01*
X32552381Y-9324200D02*
X32590476Y-9286104D01*
X32590476Y-9286104D02*
X32628571Y-9209914D01*
X32628571Y-9209914D02*
X32628571Y-9057533D01*
X32628571Y-9057533D02*
X32590476Y-8981342D01*
X32590476Y-8981342D02*
X32552381Y-8943247D01*
X32552381Y-8943247D02*
X32476190Y-8905152D01*
X24536104Y-7383332D02*
X24574200Y-7421428D01*
X24574200Y-7421428D02*
X24612295Y-7535713D01*
X24612295Y-7535713D02*
X24612295Y-7611904D01*
X24612295Y-7611904D02*
X24574200Y-7726190D01*
X24574200Y-7726190D02*
X24498009Y-7802380D01*
X24498009Y-7802380D02*
X24421819Y-7840475D01*
X24421819Y-7840475D02*
X24269438Y-7878571D01*
X24269438Y-7878571D02*
X24155152Y-7878571D01*
X24155152Y-7878571D02*
X24002771Y-7840475D01*
X24002771Y-7840475D02*
X23926580Y-7802380D01*
X23926580Y-7802380D02*
X23850390Y-7726190D01*
X23850390Y-7726190D02*
X23812295Y-7611904D01*
X23812295Y-7611904D02*
X23812295Y-7535713D01*
X23812295Y-7535713D02*
X23850390Y-7421428D01*
X23850390Y-7421428D02*
X23888485Y-7383332D01*
X24612295Y-7002380D02*
X24612295Y-6849999D01*
X24612295Y-6849999D02*
X24574200Y-6773809D01*
X24574200Y-6773809D02*
X24536104Y-6735713D01*
X24536104Y-6735713D02*
X24421819Y-6659523D01*
X24421819Y-6659523D02*
X24269438Y-6621428D01*
X24269438Y-6621428D02*
X23964676Y-6621428D01*
X23964676Y-6621428D02*
X23888485Y-6659523D01*
X23888485Y-6659523D02*
X23850390Y-6697618D01*
X23850390Y-6697618D02*
X23812295Y-6773809D01*
X23812295Y-6773809D02*
X23812295Y-6926190D01*
X23812295Y-6926190D02*
X23850390Y-7002380D01*
X23850390Y-7002380D02*
X23888485Y-7040475D01*
X23888485Y-7040475D02*
X23964676Y-7078571D01*
X23964676Y-7078571D02*
X24155152Y-7078571D01*
X24155152Y-7078571D02*
X24231342Y-7040475D01*
X24231342Y-7040475D02*
X24269438Y-7002380D01*
X24269438Y-7002380D02*
X24307533Y-6926190D01*
X24307533Y-6926190D02*
X24307533Y-6773809D01*
X24307533Y-6773809D02*
X24269438Y-6697618D01*
X24269438Y-6697618D02*
X24231342Y-6659523D01*
X24231342Y-6659523D02*
X24155152Y-6621428D01*
X21735714Y-7286104D02*
X21697618Y-7324200D01*
X21697618Y-7324200D02*
X21583333Y-7362295D01*
X21583333Y-7362295D02*
X21507142Y-7362295D01*
X21507142Y-7362295D02*
X21392856Y-7324200D01*
X21392856Y-7324200D02*
X21316666Y-7248009D01*
X21316666Y-7248009D02*
X21278571Y-7171819D01*
X21278571Y-7171819D02*
X21240475Y-7019438D01*
X21240475Y-7019438D02*
X21240475Y-6905152D01*
X21240475Y-6905152D02*
X21278571Y-6752771D01*
X21278571Y-6752771D02*
X21316666Y-6676580D01*
X21316666Y-6676580D02*
X21392856Y-6600390D01*
X21392856Y-6600390D02*
X21507142Y-6562295D01*
X21507142Y-6562295D02*
X21583333Y-6562295D01*
X21583333Y-6562295D02*
X21697618Y-6600390D01*
X21697618Y-6600390D02*
X21735714Y-6638485D01*
X22497618Y-7362295D02*
X22040475Y-7362295D01*
X22269047Y-7362295D02*
X22269047Y-6562295D01*
X22269047Y-6562295D02*
X22192856Y-6676580D01*
X22192856Y-6676580D02*
X22116666Y-6752771D01*
X22116666Y-6752771D02*
X22040475Y-6790866D01*
X22992857Y-6562295D02*
X23069047Y-6562295D01*
X23069047Y-6562295D02*
X23145238Y-6600390D01*
X23145238Y-6600390D02*
X23183333Y-6638485D01*
X23183333Y-6638485D02*
X23221428Y-6714676D01*
X23221428Y-6714676D02*
X23259523Y-6867057D01*
X23259523Y-6867057D02*
X23259523Y-7057533D01*
X23259523Y-7057533D02*
X23221428Y-7209914D01*
X23221428Y-7209914D02*
X23183333Y-7286104D01*
X23183333Y-7286104D02*
X23145238Y-7324200D01*
X23145238Y-7324200D02*
X23069047Y-7362295D01*
X23069047Y-7362295D02*
X22992857Y-7362295D01*
X22992857Y-7362295D02*
X22916666Y-7324200D01*
X22916666Y-7324200D02*
X22878571Y-7286104D01*
X22878571Y-7286104D02*
X22840476Y-7209914D01*
X22840476Y-7209914D02*
X22802380Y-7057533D01*
X22802380Y-7057533D02*
X22802380Y-6867057D01*
X22802380Y-6867057D02*
X22840476Y-6714676D01*
X22840476Y-6714676D02*
X22878571Y-6638485D01*
X22878571Y-6638485D02*
X22916666Y-6600390D01*
X22916666Y-6600390D02*
X22992857Y-6562295D01*
X42985714Y-2536104D02*
X42947618Y-2574200D01*
X42947618Y-2574200D02*
X42833333Y-2612295D01*
X42833333Y-2612295D02*
X42757142Y-2612295D01*
X42757142Y-2612295D02*
X42642856Y-2574200D01*
X42642856Y-2574200D02*
X42566666Y-2498009D01*
X42566666Y-2498009D02*
X42528571Y-2421819D01*
X42528571Y-2421819D02*
X42490475Y-2269438D01*
X42490475Y-2269438D02*
X42490475Y-2155152D01*
X42490475Y-2155152D02*
X42528571Y-2002771D01*
X42528571Y-2002771D02*
X42566666Y-1926580D01*
X42566666Y-1926580D02*
X42642856Y-1850390D01*
X42642856Y-1850390D02*
X42757142Y-1812295D01*
X42757142Y-1812295D02*
X42833333Y-1812295D01*
X42833333Y-1812295D02*
X42947618Y-1850390D01*
X42947618Y-1850390D02*
X42985714Y-1888485D01*
X43747618Y-2612295D02*
X43290475Y-2612295D01*
X43519047Y-2612295D02*
X43519047Y-1812295D01*
X43519047Y-1812295D02*
X43442856Y-1926580D01*
X43442856Y-1926580D02*
X43366666Y-2002771D01*
X43366666Y-2002771D02*
X43290475Y-2040866D01*
X44471428Y-1812295D02*
X44090476Y-1812295D01*
X44090476Y-1812295D02*
X44052380Y-2193247D01*
X44052380Y-2193247D02*
X44090476Y-2155152D01*
X44090476Y-2155152D02*
X44166666Y-2117057D01*
X44166666Y-2117057D02*
X44357142Y-2117057D01*
X44357142Y-2117057D02*
X44433333Y-2155152D01*
X44433333Y-2155152D02*
X44471428Y-2193247D01*
X44471428Y-2193247D02*
X44509523Y-2269438D01*
X44509523Y-2269438D02*
X44509523Y-2459914D01*
X44509523Y-2459914D02*
X44471428Y-2536104D01*
X44471428Y-2536104D02*
X44433333Y-2574200D01*
X44433333Y-2574200D02*
X44357142Y-2612295D01*
X44357142Y-2612295D02*
X44166666Y-2612295D01*
X44166666Y-2612295D02*
X44090476Y-2574200D01*
X44090476Y-2574200D02*
X44052380Y-2536104D01*
X45036104Y-4764285D02*
X45074200Y-4802381D01*
X45074200Y-4802381D02*
X45112295Y-4916666D01*
X45112295Y-4916666D02*
X45112295Y-4992857D01*
X45112295Y-4992857D02*
X45074200Y-5107143D01*
X45074200Y-5107143D02*
X44998009Y-5183333D01*
X44998009Y-5183333D02*
X44921819Y-5221428D01*
X44921819Y-5221428D02*
X44769438Y-5259524D01*
X44769438Y-5259524D02*
X44655152Y-5259524D01*
X44655152Y-5259524D02*
X44502771Y-5221428D01*
X44502771Y-5221428D02*
X44426580Y-5183333D01*
X44426580Y-5183333D02*
X44350390Y-5107143D01*
X44350390Y-5107143D02*
X44312295Y-4992857D01*
X44312295Y-4992857D02*
X44312295Y-4916666D01*
X44312295Y-4916666D02*
X44350390Y-4802381D01*
X44350390Y-4802381D02*
X44388485Y-4764285D01*
X45112295Y-4002381D02*
X45112295Y-4459524D01*
X45112295Y-4230952D02*
X44312295Y-4230952D01*
X44312295Y-4230952D02*
X44426580Y-4307143D01*
X44426580Y-4307143D02*
X44502771Y-4383333D01*
X44502771Y-4383333D02*
X44540866Y-4459524D01*
X44312295Y-3316666D02*
X44312295Y-3469047D01*
X44312295Y-3469047D02*
X44350390Y-3545238D01*
X44350390Y-3545238D02*
X44388485Y-3583333D01*
X44388485Y-3583333D02*
X44502771Y-3659523D01*
X44502771Y-3659523D02*
X44655152Y-3697619D01*
X44655152Y-3697619D02*
X44959914Y-3697619D01*
X44959914Y-3697619D02*
X45036104Y-3659523D01*
X45036104Y-3659523D02*
X45074200Y-3621428D01*
X45074200Y-3621428D02*
X45112295Y-3545238D01*
X45112295Y-3545238D02*
X45112295Y-3392857D01*
X45112295Y-3392857D02*
X45074200Y-3316666D01*
X45074200Y-3316666D02*
X45036104Y-3278571D01*
X45036104Y-3278571D02*
X44959914Y-3240476D01*
X44959914Y-3240476D02*
X44769438Y-3240476D01*
X44769438Y-3240476D02*
X44693247Y-3278571D01*
X44693247Y-3278571D02*
X44655152Y-3316666D01*
X44655152Y-3316666D02*
X44617057Y-3392857D01*
X44617057Y-3392857D02*
X44617057Y-3545238D01*
X44617057Y-3545238D02*
X44655152Y-3621428D01*
X44655152Y-3621428D02*
X44693247Y-3659523D01*
X44693247Y-3659523D02*
X44769438Y-3697619D01*
X19536104Y-23264285D02*
X19574200Y-23302381D01*
X19574200Y-23302381D02*
X19612295Y-23416666D01*
X19612295Y-23416666D02*
X19612295Y-23492857D01*
X19612295Y-23492857D02*
X19574200Y-23607143D01*
X19574200Y-23607143D02*
X19498009Y-23683333D01*
X19498009Y-23683333D02*
X19421819Y-23721428D01*
X19421819Y-23721428D02*
X19269438Y-23759524D01*
X19269438Y-23759524D02*
X19155152Y-23759524D01*
X19155152Y-23759524D02*
X19002771Y-23721428D01*
X19002771Y-23721428D02*
X18926580Y-23683333D01*
X18926580Y-23683333D02*
X18850390Y-23607143D01*
X18850390Y-23607143D02*
X18812295Y-23492857D01*
X18812295Y-23492857D02*
X18812295Y-23416666D01*
X18812295Y-23416666D02*
X18850390Y-23302381D01*
X18850390Y-23302381D02*
X18888485Y-23264285D01*
X19612295Y-22502381D02*
X19612295Y-22959524D01*
X19612295Y-22730952D02*
X18812295Y-22730952D01*
X18812295Y-22730952D02*
X18926580Y-22807143D01*
X18926580Y-22807143D02*
X19002771Y-22883333D01*
X19002771Y-22883333D02*
X19040866Y-22959524D01*
X18812295Y-22235714D02*
X18812295Y-21702380D01*
X18812295Y-21702380D02*
X19612295Y-22045238D01*
X11985714Y-6786104D02*
X11947618Y-6824200D01*
X11947618Y-6824200D02*
X11833333Y-6862295D01*
X11833333Y-6862295D02*
X11757142Y-6862295D01*
X11757142Y-6862295D02*
X11642856Y-6824200D01*
X11642856Y-6824200D02*
X11566666Y-6748009D01*
X11566666Y-6748009D02*
X11528571Y-6671819D01*
X11528571Y-6671819D02*
X11490475Y-6519438D01*
X11490475Y-6519438D02*
X11490475Y-6405152D01*
X11490475Y-6405152D02*
X11528571Y-6252771D01*
X11528571Y-6252771D02*
X11566666Y-6176580D01*
X11566666Y-6176580D02*
X11642856Y-6100390D01*
X11642856Y-6100390D02*
X11757142Y-6062295D01*
X11757142Y-6062295D02*
X11833333Y-6062295D01*
X11833333Y-6062295D02*
X11947618Y-6100390D01*
X11947618Y-6100390D02*
X11985714Y-6138485D01*
X12747618Y-6862295D02*
X12290475Y-6862295D01*
X12519047Y-6862295D02*
X12519047Y-6062295D01*
X12519047Y-6062295D02*
X12442856Y-6176580D01*
X12442856Y-6176580D02*
X12366666Y-6252771D01*
X12366666Y-6252771D02*
X12290475Y-6290866D01*
X13204761Y-6405152D02*
X13128571Y-6367057D01*
X13128571Y-6367057D02*
X13090476Y-6328961D01*
X13090476Y-6328961D02*
X13052380Y-6252771D01*
X13052380Y-6252771D02*
X13052380Y-6214676D01*
X13052380Y-6214676D02*
X13090476Y-6138485D01*
X13090476Y-6138485D02*
X13128571Y-6100390D01*
X13128571Y-6100390D02*
X13204761Y-6062295D01*
X13204761Y-6062295D02*
X13357142Y-6062295D01*
X13357142Y-6062295D02*
X13433333Y-6100390D01*
X13433333Y-6100390D02*
X13471428Y-6138485D01*
X13471428Y-6138485D02*
X13509523Y-6214676D01*
X13509523Y-6214676D02*
X13509523Y-6252771D01*
X13509523Y-6252771D02*
X13471428Y-6328961D01*
X13471428Y-6328961D02*
X13433333Y-6367057D01*
X13433333Y-6367057D02*
X13357142Y-6405152D01*
X13357142Y-6405152D02*
X13204761Y-6405152D01*
X13204761Y-6405152D02*
X13128571Y-6443247D01*
X13128571Y-6443247D02*
X13090476Y-6481342D01*
X13090476Y-6481342D02*
X13052380Y-6557533D01*
X13052380Y-6557533D02*
X13052380Y-6709914D01*
X13052380Y-6709914D02*
X13090476Y-6786104D01*
X13090476Y-6786104D02*
X13128571Y-6824200D01*
X13128571Y-6824200D02*
X13204761Y-6862295D01*
X13204761Y-6862295D02*
X13357142Y-6862295D01*
X13357142Y-6862295D02*
X13433333Y-6824200D01*
X13433333Y-6824200D02*
X13471428Y-6786104D01*
X13471428Y-6786104D02*
X13509523Y-6709914D01*
X13509523Y-6709914D02*
X13509523Y-6557533D01*
X13509523Y-6557533D02*
X13471428Y-6481342D01*
X13471428Y-6481342D02*
X13433333Y-6443247D01*
X13433333Y-6443247D02*
X13357142Y-6405152D01*
X31985714Y-10286104D02*
X31947618Y-10324200D01*
X31947618Y-10324200D02*
X31833333Y-10362295D01*
X31833333Y-10362295D02*
X31757142Y-10362295D01*
X31757142Y-10362295D02*
X31642856Y-10324200D01*
X31642856Y-10324200D02*
X31566666Y-10248009D01*
X31566666Y-10248009D02*
X31528571Y-10171819D01*
X31528571Y-10171819D02*
X31490475Y-10019438D01*
X31490475Y-10019438D02*
X31490475Y-9905152D01*
X31490475Y-9905152D02*
X31528571Y-9752771D01*
X31528571Y-9752771D02*
X31566666Y-9676580D01*
X31566666Y-9676580D02*
X31642856Y-9600390D01*
X31642856Y-9600390D02*
X31757142Y-9562295D01*
X31757142Y-9562295D02*
X31833333Y-9562295D01*
X31833333Y-9562295D02*
X31947618Y-9600390D01*
X31947618Y-9600390D02*
X31985714Y-9638485D01*
X32290475Y-9638485D02*
X32328571Y-9600390D01*
X32328571Y-9600390D02*
X32404761Y-9562295D01*
X32404761Y-9562295D02*
X32595237Y-9562295D01*
X32595237Y-9562295D02*
X32671428Y-9600390D01*
X32671428Y-9600390D02*
X32709523Y-9638485D01*
X32709523Y-9638485D02*
X32747618Y-9714676D01*
X32747618Y-9714676D02*
X32747618Y-9790866D01*
X32747618Y-9790866D02*
X32709523Y-9905152D01*
X32709523Y-9905152D02*
X32252380Y-10362295D01*
X32252380Y-10362295D02*
X32747618Y-10362295D01*
X33242857Y-9562295D02*
X33319047Y-9562295D01*
X33319047Y-9562295D02*
X33395238Y-9600390D01*
X33395238Y-9600390D02*
X33433333Y-9638485D01*
X33433333Y-9638485D02*
X33471428Y-9714676D01*
X33471428Y-9714676D02*
X33509523Y-9867057D01*
X33509523Y-9867057D02*
X33509523Y-10057533D01*
X33509523Y-10057533D02*
X33471428Y-10209914D01*
X33471428Y-10209914D02*
X33433333Y-10286104D01*
X33433333Y-10286104D02*
X33395238Y-10324200D01*
X33395238Y-10324200D02*
X33319047Y-10362295D01*
X33319047Y-10362295D02*
X33242857Y-10362295D01*
X33242857Y-10362295D02*
X33166666Y-10324200D01*
X33166666Y-10324200D02*
X33128571Y-10286104D01*
X33128571Y-10286104D02*
X33090476Y-10209914D01*
X33090476Y-10209914D02*
X33052380Y-10057533D01*
X33052380Y-10057533D02*
X33052380Y-9867057D01*
X33052380Y-9867057D02*
X33090476Y-9714676D01*
X33090476Y-9714676D02*
X33128571Y-9638485D01*
X33128571Y-9638485D02*
X33166666Y-9600390D01*
X33166666Y-9600390D02*
X33242857Y-9562295D01*
X11985714Y-23786104D02*
X11947618Y-23824200D01*
X11947618Y-23824200D02*
X11833333Y-23862295D01*
X11833333Y-23862295D02*
X11757142Y-23862295D01*
X11757142Y-23862295D02*
X11642856Y-23824200D01*
X11642856Y-23824200D02*
X11566666Y-23748009D01*
X11566666Y-23748009D02*
X11528571Y-23671819D01*
X11528571Y-23671819D02*
X11490475Y-23519438D01*
X11490475Y-23519438D02*
X11490475Y-23405152D01*
X11490475Y-23405152D02*
X11528571Y-23252771D01*
X11528571Y-23252771D02*
X11566666Y-23176580D01*
X11566666Y-23176580D02*
X11642856Y-23100390D01*
X11642856Y-23100390D02*
X11757142Y-23062295D01*
X11757142Y-23062295D02*
X11833333Y-23062295D01*
X11833333Y-23062295D02*
X11947618Y-23100390D01*
X11947618Y-23100390D02*
X11985714Y-23138485D01*
X12290475Y-23138485D02*
X12328571Y-23100390D01*
X12328571Y-23100390D02*
X12404761Y-23062295D01*
X12404761Y-23062295D02*
X12595237Y-23062295D01*
X12595237Y-23062295D02*
X12671428Y-23100390D01*
X12671428Y-23100390D02*
X12709523Y-23138485D01*
X12709523Y-23138485D02*
X12747618Y-23214676D01*
X12747618Y-23214676D02*
X12747618Y-23290866D01*
X12747618Y-23290866D02*
X12709523Y-23405152D01*
X12709523Y-23405152D02*
X12252380Y-23862295D01*
X12252380Y-23862295D02*
X12747618Y-23862295D01*
X13509523Y-23862295D02*
X13052380Y-23862295D01*
X13280952Y-23862295D02*
X13280952Y-23062295D01*
X13280952Y-23062295D02*
X13204761Y-23176580D01*
X13204761Y-23176580D02*
X13128571Y-23252771D01*
X13128571Y-23252771D02*
X13052380Y-23290866D01*
X7159524Y-1112295D02*
X7159524Y-312295D01*
X7159524Y-312295D02*
X7350000Y-312295D01*
X7350000Y-312295D02*
X7464286Y-350390D01*
X7464286Y-350390D02*
X7540476Y-426580D01*
X7540476Y-426580D02*
X7578571Y-502771D01*
X7578571Y-502771D02*
X7616667Y-655152D01*
X7616667Y-655152D02*
X7616667Y-769438D01*
X7616667Y-769438D02*
X7578571Y-921819D01*
X7578571Y-921819D02*
X7540476Y-998009D01*
X7540476Y-998009D02*
X7464286Y-1074200D01*
X7464286Y-1074200D02*
X7350000Y-1112295D01*
X7350000Y-1112295D02*
X7159524Y-1112295D01*
X8378571Y-1112295D02*
X7921428Y-1112295D01*
X8150000Y-1112295D02*
X8150000Y-312295D01*
X8150000Y-312295D02*
X8073809Y-426580D01*
X8073809Y-426580D02*
X7997619Y-502771D01*
X7997619Y-502771D02*
X7921428Y-540866D01*
X7909524Y-29612295D02*
X7909524Y-28812295D01*
X7909524Y-28812295D02*
X8100000Y-28812295D01*
X8100000Y-28812295D02*
X8214286Y-28850390D01*
X8214286Y-28850390D02*
X8290476Y-28926580D01*
X8290476Y-28926580D02*
X8328571Y-29002771D01*
X8328571Y-29002771D02*
X8366667Y-29155152D01*
X8366667Y-29155152D02*
X8366667Y-29269438D01*
X8366667Y-29269438D02*
X8328571Y-29421819D01*
X8328571Y-29421819D02*
X8290476Y-29498009D01*
X8290476Y-29498009D02*
X8214286Y-29574200D01*
X8214286Y-29574200D02*
X8100000Y-29612295D01*
X8100000Y-29612295D02*
X7909524Y-29612295D01*
X8671428Y-28888485D02*
X8709524Y-28850390D01*
X8709524Y-28850390D02*
X8785714Y-28812295D01*
X8785714Y-28812295D02*
X8976190Y-28812295D01*
X8976190Y-28812295D02*
X9052381Y-28850390D01*
X9052381Y-28850390D02*
X9090476Y-28888485D01*
X9090476Y-28888485D02*
X9128571Y-28964676D01*
X9128571Y-28964676D02*
X9128571Y-29040866D01*
X9128571Y-29040866D02*
X9090476Y-29155152D01*
X9090476Y-29155152D02*
X8633333Y-29612295D01*
X8633333Y-29612295D02*
X9128571Y-29612295D01*
X29662295Y-6859523D02*
X30309914Y-6859523D01*
X30309914Y-6859523D02*
X30386104Y-6821428D01*
X30386104Y-6821428D02*
X30424200Y-6783333D01*
X30424200Y-6783333D02*
X30462295Y-6707142D01*
X30462295Y-6707142D02*
X30462295Y-6554761D01*
X30462295Y-6554761D02*
X30424200Y-6478571D01*
X30424200Y-6478571D02*
X30386104Y-6440476D01*
X30386104Y-6440476D02*
X30309914Y-6402380D01*
X30309914Y-6402380D02*
X29662295Y-6402380D01*
X30462295Y-5602381D02*
X30462295Y-6059524D01*
X30462295Y-5830952D02*
X29662295Y-5830952D01*
X29662295Y-5830952D02*
X29776580Y-5907143D01*
X29776580Y-5907143D02*
X29852771Y-5983333D01*
X29852771Y-5983333D02*
X29890866Y-6059524D01*
X51423809Y-23338485D02*
X51347619Y-23300390D01*
X51347619Y-23300390D02*
X51271428Y-23224200D01*
X51271428Y-23224200D02*
X51157142Y-23109914D01*
X51157142Y-23109914D02*
X51080952Y-23071819D01*
X51080952Y-23071819D02*
X51004761Y-23071819D01*
X51042857Y-23262295D02*
X50966666Y-23224200D01*
X50966666Y-23224200D02*
X50890476Y-23148009D01*
X50890476Y-23148009D02*
X50852380Y-22995628D01*
X50852380Y-22995628D02*
X50852380Y-22728961D01*
X50852380Y-22728961D02*
X50890476Y-22576580D01*
X50890476Y-22576580D02*
X50966666Y-22500390D01*
X50966666Y-22500390D02*
X51042857Y-22462295D01*
X51042857Y-22462295D02*
X51195238Y-22462295D01*
X51195238Y-22462295D02*
X51271428Y-22500390D01*
X51271428Y-22500390D02*
X51347619Y-22576580D01*
X51347619Y-22576580D02*
X51385714Y-22728961D01*
X51385714Y-22728961D02*
X51385714Y-22995628D01*
X51385714Y-22995628D02*
X51347619Y-23148009D01*
X51347619Y-23148009D02*
X51271428Y-23224200D01*
X51271428Y-23224200D02*
X51195238Y-23262295D01*
X51195238Y-23262295D02*
X51042857Y-23262295D01*
X51690475Y-22538485D02*
X51728571Y-22500390D01*
X51728571Y-22500390D02*
X51804761Y-22462295D01*
X51804761Y-22462295D02*
X51995237Y-22462295D01*
X51995237Y-22462295D02*
X52071428Y-22500390D01*
X52071428Y-22500390D02*
X52109523Y-22538485D01*
X52109523Y-22538485D02*
X52147618Y-22614676D01*
X52147618Y-22614676D02*
X52147618Y-22690866D01*
X52147618Y-22690866D02*
X52109523Y-22805152D01*
X52109523Y-22805152D02*
X51652380Y-23262295D01*
X51652380Y-23262295D02*
X52147618Y-23262295D01*
X53538485Y-20576190D02*
X53500390Y-20652380D01*
X53500390Y-20652380D02*
X53424200Y-20728571D01*
X53424200Y-20728571D02*
X53309914Y-20842857D01*
X53309914Y-20842857D02*
X53271819Y-20919047D01*
X53271819Y-20919047D02*
X53271819Y-20995238D01*
X53462295Y-20957142D02*
X53424200Y-21033333D01*
X53424200Y-21033333D02*
X53348009Y-21109523D01*
X53348009Y-21109523D02*
X53195628Y-21147619D01*
X53195628Y-21147619D02*
X52928961Y-21147619D01*
X52928961Y-21147619D02*
X52776580Y-21109523D01*
X52776580Y-21109523D02*
X52700390Y-21033333D01*
X52700390Y-21033333D02*
X52662295Y-20957142D01*
X52662295Y-20957142D02*
X52662295Y-20804761D01*
X52662295Y-20804761D02*
X52700390Y-20728571D01*
X52700390Y-20728571D02*
X52776580Y-20652380D01*
X52776580Y-20652380D02*
X52928961Y-20614285D01*
X52928961Y-20614285D02*
X53195628Y-20614285D01*
X53195628Y-20614285D02*
X53348009Y-20652380D01*
X53348009Y-20652380D02*
X53424200Y-20728571D01*
X53424200Y-20728571D02*
X53462295Y-20804761D01*
X53462295Y-20804761D02*
X53462295Y-20957142D01*
X52662295Y-20347619D02*
X52662295Y-19852381D01*
X52662295Y-19852381D02*
X52967057Y-20119047D01*
X52967057Y-20119047D02*
X52967057Y-20004762D01*
X52967057Y-20004762D02*
X53005152Y-19928571D01*
X53005152Y-19928571D02*
X53043247Y-19890476D01*
X53043247Y-19890476D02*
X53119438Y-19852381D01*
X53119438Y-19852381D02*
X53309914Y-19852381D01*
X53309914Y-19852381D02*
X53386104Y-19890476D01*
X53386104Y-19890476D02*
X53424200Y-19928571D01*
X53424200Y-19928571D02*
X53462295Y-20004762D01*
X53462295Y-20004762D02*
X53462295Y-20233333D01*
X53462295Y-20233333D02*
X53424200Y-20309524D01*
X53424200Y-20309524D02*
X53386104Y-20347619D01*
X18616667Y-24862295D02*
X18350000Y-24481342D01*
X18159524Y-24862295D02*
X18159524Y-24062295D01*
X18159524Y-24062295D02*
X18464286Y-24062295D01*
X18464286Y-24062295D02*
X18540476Y-24100390D01*
X18540476Y-24100390D02*
X18578571Y-24138485D01*
X18578571Y-24138485D02*
X18616667Y-24214676D01*
X18616667Y-24214676D02*
X18616667Y-24328961D01*
X18616667Y-24328961D02*
X18578571Y-24405152D01*
X18578571Y-24405152D02*
X18540476Y-24443247D01*
X18540476Y-24443247D02*
X18464286Y-24481342D01*
X18464286Y-24481342D02*
X18159524Y-24481342D01*
X18883333Y-24062295D02*
X19378571Y-24062295D01*
X19378571Y-24062295D02*
X19111905Y-24367057D01*
X19111905Y-24367057D02*
X19226190Y-24367057D01*
X19226190Y-24367057D02*
X19302381Y-24405152D01*
X19302381Y-24405152D02*
X19340476Y-24443247D01*
X19340476Y-24443247D02*
X19378571Y-24519438D01*
X19378571Y-24519438D02*
X19378571Y-24709914D01*
X19378571Y-24709914D02*
X19340476Y-24786104D01*
X19340476Y-24786104D02*
X19302381Y-24824200D01*
X19302381Y-24824200D02*
X19226190Y-24862295D01*
X19226190Y-24862295D02*
X18997619Y-24862295D01*
X18997619Y-24862295D02*
X18921428Y-24824200D01*
X18921428Y-24824200D02*
X18883333Y-24786104D01*
X56862295Y-6514285D02*
X56481342Y-6780952D01*
X56862295Y-6971428D02*
X56062295Y-6971428D01*
X56062295Y-6971428D02*
X56062295Y-6666666D01*
X56062295Y-6666666D02*
X56100390Y-6590476D01*
X56100390Y-6590476D02*
X56138485Y-6552381D01*
X56138485Y-6552381D02*
X56214676Y-6514285D01*
X56214676Y-6514285D02*
X56328961Y-6514285D01*
X56328961Y-6514285D02*
X56405152Y-6552381D01*
X56405152Y-6552381D02*
X56443247Y-6590476D01*
X56443247Y-6590476D02*
X56481342Y-6666666D01*
X56481342Y-6666666D02*
X56481342Y-6971428D01*
X56862295Y-5752381D02*
X56862295Y-6209524D01*
X56862295Y-5980952D02*
X56062295Y-5980952D01*
X56062295Y-5980952D02*
X56176580Y-6057143D01*
X56176580Y-6057143D02*
X56252771Y-6133333D01*
X56252771Y-6133333D02*
X56290866Y-6209524D01*
X56062295Y-5485714D02*
X56062295Y-4990476D01*
X56062295Y-4990476D02*
X56367057Y-5257142D01*
X56367057Y-5257142D02*
X56367057Y-5142857D01*
X56367057Y-5142857D02*
X56405152Y-5066666D01*
X56405152Y-5066666D02*
X56443247Y-5028571D01*
X56443247Y-5028571D02*
X56519438Y-4990476D01*
X56519438Y-4990476D02*
X56709914Y-4990476D01*
X56709914Y-4990476D02*
X56786104Y-5028571D01*
X56786104Y-5028571D02*
X56824200Y-5066666D01*
X56824200Y-5066666D02*
X56862295Y-5142857D01*
X56862295Y-5142857D02*
X56862295Y-5371428D01*
X56862295Y-5371428D02*
X56824200Y-5447619D01*
X56824200Y-5447619D02*
X56786104Y-5485714D01*
X50292295Y-21014285D02*
X49911342Y-21280952D01*
X50292295Y-21471428D02*
X49492295Y-21471428D01*
X49492295Y-21471428D02*
X49492295Y-21166666D01*
X49492295Y-21166666D02*
X49530390Y-21090476D01*
X49530390Y-21090476D02*
X49568485Y-21052381D01*
X49568485Y-21052381D02*
X49644676Y-21014285D01*
X49644676Y-21014285D02*
X49758961Y-21014285D01*
X49758961Y-21014285D02*
X49835152Y-21052381D01*
X49835152Y-21052381D02*
X49873247Y-21090476D01*
X49873247Y-21090476D02*
X49911342Y-21166666D01*
X49911342Y-21166666D02*
X49911342Y-21471428D01*
X50292295Y-20252381D02*
X50292295Y-20709524D01*
X50292295Y-20480952D02*
X49492295Y-20480952D01*
X49492295Y-20480952D02*
X49606580Y-20557143D01*
X49606580Y-20557143D02*
X49682771Y-20633333D01*
X49682771Y-20633333D02*
X49720866Y-20709524D01*
X49492295Y-19528571D02*
X49492295Y-19909523D01*
X49492295Y-19909523D02*
X49873247Y-19947619D01*
X49873247Y-19947619D02*
X49835152Y-19909523D01*
X49835152Y-19909523D02*
X49797057Y-19833333D01*
X49797057Y-19833333D02*
X49797057Y-19642857D01*
X49797057Y-19642857D02*
X49835152Y-19566666D01*
X49835152Y-19566666D02*
X49873247Y-19528571D01*
X49873247Y-19528571D02*
X49949438Y-19490476D01*
X49949438Y-19490476D02*
X50139914Y-19490476D01*
X50139914Y-19490476D02*
X50216104Y-19528571D01*
X50216104Y-19528571D02*
X50254200Y-19566666D01*
X50254200Y-19566666D02*
X50292295Y-19642857D01*
X50292295Y-19642857D02*
X50292295Y-19833333D01*
X50292295Y-19833333D02*
X50254200Y-19909523D01*
X50254200Y-19909523D02*
X50216104Y-19947619D01*
X41642526Y-20369836D02*
X41184590Y-20289024D01*
X41319277Y-20693085D02*
X40753592Y-20127399D01*
X40753592Y-20127399D02*
X40969091Y-19911900D01*
X40969091Y-19911900D02*
X41049903Y-19884963D01*
X41049903Y-19884963D02*
X41103778Y-19884963D01*
X41103778Y-19884963D02*
X41184590Y-19911900D01*
X41184590Y-19911900D02*
X41265402Y-19992712D01*
X41265402Y-19992712D02*
X41292340Y-20073525D01*
X41292340Y-20073525D02*
X41292340Y-20127399D01*
X41292340Y-20127399D02*
X41265402Y-20208212D01*
X41265402Y-20208212D02*
X41049903Y-20423711D01*
X42181274Y-19831088D02*
X41858025Y-20154337D01*
X42019649Y-19992712D02*
X41453964Y-19427027D01*
X41453964Y-19427027D02*
X41480901Y-19561714D01*
X41480901Y-19561714D02*
X41480901Y-19669464D01*
X41480901Y-19669464D02*
X41453964Y-19750276D01*
X42181274Y-19184590D02*
X42100462Y-19211528D01*
X42100462Y-19211528D02*
X42046587Y-19211528D01*
X42046587Y-19211528D02*
X41965775Y-19184590D01*
X41965775Y-19184590D02*
X41938837Y-19157653D01*
X41938837Y-19157653D02*
X41911900Y-19076841D01*
X41911900Y-19076841D02*
X41911900Y-19022966D01*
X41911900Y-19022966D02*
X41938837Y-18942154D01*
X41938837Y-18942154D02*
X42046587Y-18834404D01*
X42046587Y-18834404D02*
X42127399Y-18807467D01*
X42127399Y-18807467D02*
X42181274Y-18807467D01*
X42181274Y-18807467D02*
X42262086Y-18834404D01*
X42262086Y-18834404D02*
X42289024Y-18861341D01*
X42289024Y-18861341D02*
X42315961Y-18942154D01*
X42315961Y-18942154D02*
X42315961Y-18996028D01*
X42315961Y-18996028D02*
X42289024Y-19076841D01*
X42289024Y-19076841D02*
X42181274Y-19184590D01*
X42181274Y-19184590D02*
X42154337Y-19265402D01*
X42154337Y-19265402D02*
X42154337Y-19319277D01*
X42154337Y-19319277D02*
X42181274Y-19400089D01*
X42181274Y-19400089D02*
X42289024Y-19507839D01*
X42289024Y-19507839D02*
X42369836Y-19534776D01*
X42369836Y-19534776D02*
X42423711Y-19534776D01*
X42423711Y-19534776D02*
X42504523Y-19507839D01*
X42504523Y-19507839D02*
X42612272Y-19400089D01*
X42612272Y-19400089D02*
X42639210Y-19319277D01*
X42639210Y-19319277D02*
X42639210Y-19265402D01*
X42639210Y-19265402D02*
X42612272Y-19184590D01*
X42612272Y-19184590D02*
X42504523Y-19076841D01*
X42504523Y-19076841D02*
X42423711Y-19049903D01*
X42423711Y-19049903D02*
X42369836Y-19049903D01*
X42369836Y-19049903D02*
X42289024Y-19076841D01*
X48542295Y-21014285D02*
X48161342Y-21280952D01*
X48542295Y-21471428D02*
X47742295Y-21471428D01*
X47742295Y-21471428D02*
X47742295Y-21166666D01*
X47742295Y-21166666D02*
X47780390Y-21090476D01*
X47780390Y-21090476D02*
X47818485Y-21052381D01*
X47818485Y-21052381D02*
X47894676Y-21014285D01*
X47894676Y-21014285D02*
X48008961Y-21014285D01*
X48008961Y-21014285D02*
X48085152Y-21052381D01*
X48085152Y-21052381D02*
X48123247Y-21090476D01*
X48123247Y-21090476D02*
X48161342Y-21166666D01*
X48161342Y-21166666D02*
X48161342Y-21471428D01*
X48542295Y-20252381D02*
X48542295Y-20709524D01*
X48542295Y-20480952D02*
X47742295Y-20480952D01*
X47742295Y-20480952D02*
X47856580Y-20557143D01*
X47856580Y-20557143D02*
X47932771Y-20633333D01*
X47932771Y-20633333D02*
X47970866Y-20709524D01*
X48542295Y-19871428D02*
X48542295Y-19719047D01*
X48542295Y-19719047D02*
X48504200Y-19642857D01*
X48504200Y-19642857D02*
X48466104Y-19604761D01*
X48466104Y-19604761D02*
X48351819Y-19528571D01*
X48351819Y-19528571D02*
X48199438Y-19490476D01*
X48199438Y-19490476D02*
X47894676Y-19490476D01*
X47894676Y-19490476D02*
X47818485Y-19528571D01*
X47818485Y-19528571D02*
X47780390Y-19566666D01*
X47780390Y-19566666D02*
X47742295Y-19642857D01*
X47742295Y-19642857D02*
X47742295Y-19795238D01*
X47742295Y-19795238D02*
X47780390Y-19871428D01*
X47780390Y-19871428D02*
X47818485Y-19909523D01*
X47818485Y-19909523D02*
X47894676Y-19947619D01*
X47894676Y-19947619D02*
X48085152Y-19947619D01*
X48085152Y-19947619D02*
X48161342Y-19909523D01*
X48161342Y-19909523D02*
X48199438Y-19871428D01*
X48199438Y-19871428D02*
X48237533Y-19795238D01*
X48237533Y-19795238D02*
X48237533Y-19642857D01*
X48237533Y-19642857D02*
X48199438Y-19566666D01*
X48199438Y-19566666D02*
X48161342Y-19528571D01*
X48161342Y-19528571D02*
X48085152Y-19490476D01*
X43892527Y-22369836D02*
X43434591Y-22289024D01*
X43569278Y-22693085D02*
X43003593Y-22127399D01*
X43003593Y-22127399D02*
X43219092Y-21911900D01*
X43219092Y-21911900D02*
X43299904Y-21884963D01*
X43299904Y-21884963D02*
X43353779Y-21884963D01*
X43353779Y-21884963D02*
X43434591Y-21911900D01*
X43434591Y-21911900D02*
X43515403Y-21992712D01*
X43515403Y-21992712D02*
X43542341Y-22073525D01*
X43542341Y-22073525D02*
X43542341Y-22127399D01*
X43542341Y-22127399D02*
X43515403Y-22208212D01*
X43515403Y-22208212D02*
X43299904Y-22423711D01*
X43596215Y-21642526D02*
X43596215Y-21588651D01*
X43596215Y-21588651D02*
X43623153Y-21507839D01*
X43623153Y-21507839D02*
X43757840Y-21373152D01*
X43757840Y-21373152D02*
X43838652Y-21346215D01*
X43838652Y-21346215D02*
X43892527Y-21346215D01*
X43892527Y-21346215D02*
X43973339Y-21373152D01*
X43973339Y-21373152D02*
X44027214Y-21427027D01*
X44027214Y-21427027D02*
X44081089Y-21534777D01*
X44081089Y-21534777D02*
X44081089Y-22181274D01*
X44081089Y-22181274D02*
X44431275Y-21831088D01*
X44215776Y-20915216D02*
X44269651Y-20861341D01*
X44269651Y-20861341D02*
X44350463Y-20834404D01*
X44350463Y-20834404D02*
X44404338Y-20834404D01*
X44404338Y-20834404D02*
X44485150Y-20861341D01*
X44485150Y-20861341D02*
X44619837Y-20942154D01*
X44619837Y-20942154D02*
X44754524Y-21076841D01*
X44754524Y-21076841D02*
X44835336Y-21211528D01*
X44835336Y-21211528D02*
X44862273Y-21292340D01*
X44862273Y-21292340D02*
X44862273Y-21346215D01*
X44862273Y-21346215D02*
X44835336Y-21427027D01*
X44835336Y-21427027D02*
X44781461Y-21480902D01*
X44781461Y-21480902D02*
X44700649Y-21507839D01*
X44700649Y-21507839D02*
X44646774Y-21507839D01*
X44646774Y-21507839D02*
X44565962Y-21480902D01*
X44565962Y-21480902D02*
X44431275Y-21400089D01*
X44431275Y-21400089D02*
X44296588Y-21265402D01*
X44296588Y-21265402D02*
X44215776Y-21130715D01*
X44215776Y-21130715D02*
X44188838Y-21049903D01*
X44188838Y-21049903D02*
X44188838Y-20996028D01*
X44188838Y-20996028D02*
X44215776Y-20915216D01*
X16485714Y-19862295D02*
X16219047Y-19481342D01*
X16028571Y-19862295D02*
X16028571Y-19062295D01*
X16028571Y-19062295D02*
X16333333Y-19062295D01*
X16333333Y-19062295D02*
X16409523Y-19100390D01*
X16409523Y-19100390D02*
X16447618Y-19138485D01*
X16447618Y-19138485D02*
X16485714Y-19214676D01*
X16485714Y-19214676D02*
X16485714Y-19328961D01*
X16485714Y-19328961D02*
X16447618Y-19405152D01*
X16447618Y-19405152D02*
X16409523Y-19443247D01*
X16409523Y-19443247D02*
X16333333Y-19481342D01*
X16333333Y-19481342D02*
X16028571Y-19481342D01*
X16790475Y-19138485D02*
X16828571Y-19100390D01*
X16828571Y-19100390D02*
X16904761Y-19062295D01*
X16904761Y-19062295D02*
X17095237Y-19062295D01*
X17095237Y-19062295D02*
X17171428Y-19100390D01*
X17171428Y-19100390D02*
X17209523Y-19138485D01*
X17209523Y-19138485D02*
X17247618Y-19214676D01*
X17247618Y-19214676D02*
X17247618Y-19290866D01*
X17247618Y-19290866D02*
X17209523Y-19405152D01*
X17209523Y-19405152D02*
X16752380Y-19862295D01*
X16752380Y-19862295D02*
X17247618Y-19862295D01*
X18009523Y-19862295D02*
X17552380Y-19862295D01*
X17780952Y-19862295D02*
X17780952Y-19062295D01*
X17780952Y-19062295D02*
X17704761Y-19176580D01*
X17704761Y-19176580D02*
X17628571Y-19252771D01*
X17628571Y-19252771D02*
X17552380Y-19290866D01*
X31112295Y-9014285D02*
X30731342Y-9280952D01*
X31112295Y-9471428D02*
X30312295Y-9471428D01*
X30312295Y-9471428D02*
X30312295Y-9166666D01*
X30312295Y-9166666D02*
X30350390Y-9090476D01*
X30350390Y-9090476D02*
X30388485Y-9052381D01*
X30388485Y-9052381D02*
X30464676Y-9014285D01*
X30464676Y-9014285D02*
X30578961Y-9014285D01*
X30578961Y-9014285D02*
X30655152Y-9052381D01*
X30655152Y-9052381D02*
X30693247Y-9090476D01*
X30693247Y-9090476D02*
X30731342Y-9166666D01*
X30731342Y-9166666D02*
X30731342Y-9471428D01*
X30388485Y-8709524D02*
X30350390Y-8671428D01*
X30350390Y-8671428D02*
X30312295Y-8595238D01*
X30312295Y-8595238D02*
X30312295Y-8404762D01*
X30312295Y-8404762D02*
X30350390Y-8328571D01*
X30350390Y-8328571D02*
X30388485Y-8290476D01*
X30388485Y-8290476D02*
X30464676Y-8252381D01*
X30464676Y-8252381D02*
X30540866Y-8252381D01*
X30540866Y-8252381D02*
X30655152Y-8290476D01*
X30655152Y-8290476D02*
X31112295Y-8747619D01*
X31112295Y-8747619D02*
X31112295Y-8252381D01*
X30388485Y-7947619D02*
X30350390Y-7909523D01*
X30350390Y-7909523D02*
X30312295Y-7833333D01*
X30312295Y-7833333D02*
X30312295Y-7642857D01*
X30312295Y-7642857D02*
X30350390Y-7566666D01*
X30350390Y-7566666D02*
X30388485Y-7528571D01*
X30388485Y-7528571D02*
X30464676Y-7490476D01*
X30464676Y-7490476D02*
X30540866Y-7490476D01*
X30540866Y-7490476D02*
X30655152Y-7528571D01*
X30655152Y-7528571D02*
X31112295Y-7985714D01*
X31112295Y-7985714D02*
X31112295Y-7490476D01*
X35862295Y-11014285D02*
X35481342Y-11280952D01*
X35862295Y-11471428D02*
X35062295Y-11471428D01*
X35062295Y-11471428D02*
X35062295Y-11166666D01*
X35062295Y-11166666D02*
X35100390Y-11090476D01*
X35100390Y-11090476D02*
X35138485Y-11052381D01*
X35138485Y-11052381D02*
X35214676Y-11014285D01*
X35214676Y-11014285D02*
X35328961Y-11014285D01*
X35328961Y-11014285D02*
X35405152Y-11052381D01*
X35405152Y-11052381D02*
X35443247Y-11090476D01*
X35443247Y-11090476D02*
X35481342Y-11166666D01*
X35481342Y-11166666D02*
X35481342Y-11471428D01*
X35138485Y-10709524D02*
X35100390Y-10671428D01*
X35100390Y-10671428D02*
X35062295Y-10595238D01*
X35062295Y-10595238D02*
X35062295Y-10404762D01*
X35062295Y-10404762D02*
X35100390Y-10328571D01*
X35100390Y-10328571D02*
X35138485Y-10290476D01*
X35138485Y-10290476D02*
X35214676Y-10252381D01*
X35214676Y-10252381D02*
X35290866Y-10252381D01*
X35290866Y-10252381D02*
X35405152Y-10290476D01*
X35405152Y-10290476D02*
X35862295Y-10747619D01*
X35862295Y-10747619D02*
X35862295Y-10252381D01*
X35062295Y-9985714D02*
X35062295Y-9490476D01*
X35062295Y-9490476D02*
X35367057Y-9757142D01*
X35367057Y-9757142D02*
X35367057Y-9642857D01*
X35367057Y-9642857D02*
X35405152Y-9566666D01*
X35405152Y-9566666D02*
X35443247Y-9528571D01*
X35443247Y-9528571D02*
X35519438Y-9490476D01*
X35519438Y-9490476D02*
X35709914Y-9490476D01*
X35709914Y-9490476D02*
X35786104Y-9528571D01*
X35786104Y-9528571D02*
X35824200Y-9566666D01*
X35824200Y-9566666D02*
X35862295Y-9642857D01*
X35862295Y-9642857D02*
X35862295Y-9871428D01*
X35862295Y-9871428D02*
X35824200Y-9947619D01*
X35824200Y-9947619D02*
X35786104Y-9985714D01*
X39659524Y-1112295D02*
X39659524Y-312295D01*
X39659524Y-312295D02*
X39850000Y-312295D01*
X39850000Y-312295D02*
X39964286Y-350390D01*
X39964286Y-350390D02*
X40040476Y-426580D01*
X40040476Y-426580D02*
X40078571Y-502771D01*
X40078571Y-502771D02*
X40116667Y-655152D01*
X40116667Y-655152D02*
X40116667Y-769438D01*
X40116667Y-769438D02*
X40078571Y-921819D01*
X40078571Y-921819D02*
X40040476Y-998009D01*
X40040476Y-998009D02*
X39964286Y-1074200D01*
X39964286Y-1074200D02*
X39850000Y-1112295D01*
X39850000Y-1112295D02*
X39659524Y-1112295D01*
X40383333Y-312295D02*
X40878571Y-312295D01*
X40878571Y-312295D02*
X40611905Y-617057D01*
X40611905Y-617057D02*
X40726190Y-617057D01*
X40726190Y-617057D02*
X40802381Y-655152D01*
X40802381Y-655152D02*
X40840476Y-693247D01*
X40840476Y-693247D02*
X40878571Y-769438D01*
X40878571Y-769438D02*
X40878571Y-959914D01*
X40878571Y-959914D02*
X40840476Y-1036104D01*
X40840476Y-1036104D02*
X40802381Y-1074200D01*
X40802381Y-1074200D02*
X40726190Y-1112295D01*
X40726190Y-1112295D02*
X40497619Y-1112295D01*
X40497619Y-1112295D02*
X40421428Y-1074200D01*
X40421428Y-1074200D02*
X40383333Y-1036104D01*
X34536104Y-18014285D02*
X34574200Y-18052381D01*
X34574200Y-18052381D02*
X34612295Y-18166666D01*
X34612295Y-18166666D02*
X34612295Y-18242857D01*
X34612295Y-18242857D02*
X34574200Y-18357143D01*
X34574200Y-18357143D02*
X34498009Y-18433333D01*
X34498009Y-18433333D02*
X34421819Y-18471428D01*
X34421819Y-18471428D02*
X34269438Y-18509524D01*
X34269438Y-18509524D02*
X34155152Y-18509524D01*
X34155152Y-18509524D02*
X34002771Y-18471428D01*
X34002771Y-18471428D02*
X33926580Y-18433333D01*
X33926580Y-18433333D02*
X33850390Y-18357143D01*
X33850390Y-18357143D02*
X33812295Y-18242857D01*
X33812295Y-18242857D02*
X33812295Y-18166666D01*
X33812295Y-18166666D02*
X33850390Y-18052381D01*
X33850390Y-18052381D02*
X33888485Y-18014285D01*
X33888485Y-17709524D02*
X33850390Y-17671428D01*
X33850390Y-17671428D02*
X33812295Y-17595238D01*
X33812295Y-17595238D02*
X33812295Y-17404762D01*
X33812295Y-17404762D02*
X33850390Y-17328571D01*
X33850390Y-17328571D02*
X33888485Y-17290476D01*
X33888485Y-17290476D02*
X33964676Y-17252381D01*
X33964676Y-17252381D02*
X34040866Y-17252381D01*
X34040866Y-17252381D02*
X34155152Y-17290476D01*
X34155152Y-17290476D02*
X34612295Y-17747619D01*
X34612295Y-17747619D02*
X34612295Y-17252381D01*
X34155152Y-16795238D02*
X34117057Y-16871428D01*
X34117057Y-16871428D02*
X34078961Y-16909523D01*
X34078961Y-16909523D02*
X34002771Y-16947619D01*
X34002771Y-16947619D02*
X33964676Y-16947619D01*
X33964676Y-16947619D02*
X33888485Y-16909523D01*
X33888485Y-16909523D02*
X33850390Y-16871428D01*
X33850390Y-16871428D02*
X33812295Y-16795238D01*
X33812295Y-16795238D02*
X33812295Y-16642857D01*
X33812295Y-16642857D02*
X33850390Y-16566666D01*
X33850390Y-16566666D02*
X33888485Y-16528571D01*
X33888485Y-16528571D02*
X33964676Y-16490476D01*
X33964676Y-16490476D02*
X34002771Y-16490476D01*
X34002771Y-16490476D02*
X34078961Y-16528571D01*
X34078961Y-16528571D02*
X34117057Y-16566666D01*
X34117057Y-16566666D02*
X34155152Y-16642857D01*
X34155152Y-16642857D02*
X34155152Y-16795238D01*
X34155152Y-16795238D02*
X34193247Y-16871428D01*
X34193247Y-16871428D02*
X34231342Y-16909523D01*
X34231342Y-16909523D02*
X34307533Y-16947619D01*
X34307533Y-16947619D02*
X34459914Y-16947619D01*
X34459914Y-16947619D02*
X34536104Y-16909523D01*
X34536104Y-16909523D02*
X34574200Y-16871428D01*
X34574200Y-16871428D02*
X34612295Y-16795238D01*
X34612295Y-16795238D02*
X34612295Y-16642857D01*
X34612295Y-16642857D02*
X34574200Y-16566666D01*
X34574200Y-16566666D02*
X34536104Y-16528571D01*
X34536104Y-16528571D02*
X34459914Y-16490476D01*
X34459914Y-16490476D02*
X34307533Y-16490476D01*
X34307533Y-16490476D02*
X34231342Y-16528571D01*
X34231342Y-16528571D02*
X34193247Y-16566666D01*
X34193247Y-16566666D02*
X34155152Y-16642857D01*
X15286104Y-8264285D02*
X15324200Y-8302381D01*
X15324200Y-8302381D02*
X15362295Y-8416666D01*
X15362295Y-8416666D02*
X15362295Y-8492857D01*
X15362295Y-8492857D02*
X15324200Y-8607143D01*
X15324200Y-8607143D02*
X15248009Y-8683333D01*
X15248009Y-8683333D02*
X15171819Y-8721428D01*
X15171819Y-8721428D02*
X15019438Y-8759524D01*
X15019438Y-8759524D02*
X14905152Y-8759524D01*
X14905152Y-8759524D02*
X14752771Y-8721428D01*
X14752771Y-8721428D02*
X14676580Y-8683333D01*
X14676580Y-8683333D02*
X14600390Y-8607143D01*
X14600390Y-8607143D02*
X14562295Y-8492857D01*
X14562295Y-8492857D02*
X14562295Y-8416666D01*
X14562295Y-8416666D02*
X14600390Y-8302381D01*
X14600390Y-8302381D02*
X14638485Y-8264285D01*
X15362295Y-7502381D02*
X15362295Y-7959524D01*
X15362295Y-7730952D02*
X14562295Y-7730952D01*
X14562295Y-7730952D02*
X14676580Y-7807143D01*
X14676580Y-7807143D02*
X14752771Y-7883333D01*
X14752771Y-7883333D02*
X14790866Y-7959524D01*
X15362295Y-6740476D02*
X15362295Y-7197619D01*
X15362295Y-6969047D02*
X14562295Y-6969047D01*
X14562295Y-6969047D02*
X14676580Y-7045238D01*
X14676580Y-7045238D02*
X14752771Y-7121428D01*
X14752771Y-7121428D02*
X14790866Y-7197619D01*
X57366667Y-14112295D02*
X57100000Y-13731342D01*
X56909524Y-14112295D02*
X56909524Y-13312295D01*
X56909524Y-13312295D02*
X57214286Y-13312295D01*
X57214286Y-13312295D02*
X57290476Y-13350390D01*
X57290476Y-13350390D02*
X57328571Y-13388485D01*
X57328571Y-13388485D02*
X57366667Y-13464676D01*
X57366667Y-13464676D02*
X57366667Y-13578961D01*
X57366667Y-13578961D02*
X57328571Y-13655152D01*
X57328571Y-13655152D02*
X57290476Y-13693247D01*
X57290476Y-13693247D02*
X57214286Y-13731342D01*
X57214286Y-13731342D02*
X56909524Y-13731342D01*
X58052381Y-13578961D02*
X58052381Y-14112295D01*
X57861905Y-13274200D02*
X57671428Y-13845628D01*
X57671428Y-13845628D02*
X58166667Y-13845628D01*
X27536104Y-23014285D02*
X27574200Y-23052381D01*
X27574200Y-23052381D02*
X27612295Y-23166666D01*
X27612295Y-23166666D02*
X27612295Y-23242857D01*
X27612295Y-23242857D02*
X27574200Y-23357143D01*
X27574200Y-23357143D02*
X27498009Y-23433333D01*
X27498009Y-23433333D02*
X27421819Y-23471428D01*
X27421819Y-23471428D02*
X27269438Y-23509524D01*
X27269438Y-23509524D02*
X27155152Y-23509524D01*
X27155152Y-23509524D02*
X27002771Y-23471428D01*
X27002771Y-23471428D02*
X26926580Y-23433333D01*
X26926580Y-23433333D02*
X26850390Y-23357143D01*
X26850390Y-23357143D02*
X26812295Y-23242857D01*
X26812295Y-23242857D02*
X26812295Y-23166666D01*
X26812295Y-23166666D02*
X26850390Y-23052381D01*
X26850390Y-23052381D02*
X26888485Y-23014285D01*
X27078961Y-22328571D02*
X27612295Y-22328571D01*
X26774200Y-22519047D02*
X27345628Y-22709524D01*
X27345628Y-22709524D02*
X27345628Y-22214285D01*
X26888485Y-21947619D02*
X26850390Y-21909523D01*
X26850390Y-21909523D02*
X26812295Y-21833333D01*
X26812295Y-21833333D02*
X26812295Y-21642857D01*
X26812295Y-21642857D02*
X26850390Y-21566666D01*
X26850390Y-21566666D02*
X26888485Y-21528571D01*
X26888485Y-21528571D02*
X26964676Y-21490476D01*
X26964676Y-21490476D02*
X27040866Y-21490476D01*
X27040866Y-21490476D02*
X27155152Y-21528571D01*
X27155152Y-21528571D02*
X27612295Y-21985714D01*
X27612295Y-21985714D02*
X27612295Y-21490476D01*
X57366667Y-10112295D02*
X57100000Y-9731342D01*
X56909524Y-10112295D02*
X56909524Y-9312295D01*
X56909524Y-9312295D02*
X57214286Y-9312295D01*
X57214286Y-9312295D02*
X57290476Y-9350390D01*
X57290476Y-9350390D02*
X57328571Y-9388485D01*
X57328571Y-9388485D02*
X57366667Y-9464676D01*
X57366667Y-9464676D02*
X57366667Y-9578961D01*
X57366667Y-9578961D02*
X57328571Y-9655152D01*
X57328571Y-9655152D02*
X57290476Y-9693247D01*
X57290476Y-9693247D02*
X57214286Y-9731342D01*
X57214286Y-9731342D02*
X56909524Y-9731342D01*
X57671428Y-9388485D02*
X57709524Y-9350390D01*
X57709524Y-9350390D02*
X57785714Y-9312295D01*
X57785714Y-9312295D02*
X57976190Y-9312295D01*
X57976190Y-9312295D02*
X58052381Y-9350390D01*
X58052381Y-9350390D02*
X58090476Y-9388485D01*
X58090476Y-9388485D02*
X58128571Y-9464676D01*
X58128571Y-9464676D02*
X58128571Y-9540866D01*
X58128571Y-9540866D02*
X58090476Y-9655152D01*
X58090476Y-9655152D02*
X57633333Y-10112295D01*
X57633333Y-10112295D02*
X58128571Y-10112295D01*
X65428571Y-29383723D02*
X65809524Y-29383723D01*
X65352381Y-29612295D02*
X65619048Y-28812295D01*
X65619048Y-28812295D02*
X65885714Y-29612295D01*
X66571428Y-29612295D02*
X66114285Y-29612295D01*
X66342857Y-29612295D02*
X66342857Y-28812295D01*
X66342857Y-28812295D02*
X66266666Y-28926580D01*
X66266666Y-28926580D02*
X66190476Y-29002771D01*
X66190476Y-29002771D02*
X66114285Y-29040866D01*
X51366667Y-29862295D02*
X51100000Y-29481342D01*
X50909524Y-29862295D02*
X50909524Y-29062295D01*
X50909524Y-29062295D02*
X51214286Y-29062295D01*
X51214286Y-29062295D02*
X51290476Y-29100390D01*
X51290476Y-29100390D02*
X51328571Y-29138485D01*
X51328571Y-29138485D02*
X51366667Y-29214676D01*
X51366667Y-29214676D02*
X51366667Y-29328961D01*
X51366667Y-29328961D02*
X51328571Y-29405152D01*
X51328571Y-29405152D02*
X51290476Y-29443247D01*
X51290476Y-29443247D02*
X51214286Y-29481342D01*
X51214286Y-29481342D02*
X50909524Y-29481342D01*
X51823809Y-29405152D02*
X51747619Y-29367057D01*
X51747619Y-29367057D02*
X51709524Y-29328961D01*
X51709524Y-29328961D02*
X51671428Y-29252771D01*
X51671428Y-29252771D02*
X51671428Y-29214676D01*
X51671428Y-29214676D02*
X51709524Y-29138485D01*
X51709524Y-29138485D02*
X51747619Y-29100390D01*
X51747619Y-29100390D02*
X51823809Y-29062295D01*
X51823809Y-29062295D02*
X51976190Y-29062295D01*
X51976190Y-29062295D02*
X52052381Y-29100390D01*
X52052381Y-29100390D02*
X52090476Y-29138485D01*
X52090476Y-29138485D02*
X52128571Y-29214676D01*
X52128571Y-29214676D02*
X52128571Y-29252771D01*
X52128571Y-29252771D02*
X52090476Y-29328961D01*
X52090476Y-29328961D02*
X52052381Y-29367057D01*
X52052381Y-29367057D02*
X51976190Y-29405152D01*
X51976190Y-29405152D02*
X51823809Y-29405152D01*
X51823809Y-29405152D02*
X51747619Y-29443247D01*
X51747619Y-29443247D02*
X51709524Y-29481342D01*
X51709524Y-29481342D02*
X51671428Y-29557533D01*
X51671428Y-29557533D02*
X51671428Y-29709914D01*
X51671428Y-29709914D02*
X51709524Y-29786104D01*
X51709524Y-29786104D02*
X51747619Y-29824200D01*
X51747619Y-29824200D02*
X51823809Y-29862295D01*
X51823809Y-29862295D02*
X51976190Y-29862295D01*
X51976190Y-29862295D02*
X52052381Y-29824200D01*
X52052381Y-29824200D02*
X52090476Y-29786104D01*
X52090476Y-29786104D02*
X52128571Y-29709914D01*
X52128571Y-29709914D02*
X52128571Y-29557533D01*
X52128571Y-29557533D02*
X52090476Y-29481342D01*
X52090476Y-29481342D02*
X52052381Y-29443247D01*
X52052381Y-29443247D02*
X51976190Y-29405152D01*
X29286104Y-23014285D02*
X29324200Y-23052381D01*
X29324200Y-23052381D02*
X29362295Y-23166666D01*
X29362295Y-23166666D02*
X29362295Y-23242857D01*
X29362295Y-23242857D02*
X29324200Y-23357143D01*
X29324200Y-23357143D02*
X29248009Y-23433333D01*
X29248009Y-23433333D02*
X29171819Y-23471428D01*
X29171819Y-23471428D02*
X29019438Y-23509524D01*
X29019438Y-23509524D02*
X28905152Y-23509524D01*
X28905152Y-23509524D02*
X28752771Y-23471428D01*
X28752771Y-23471428D02*
X28676580Y-23433333D01*
X28676580Y-23433333D02*
X28600390Y-23357143D01*
X28600390Y-23357143D02*
X28562295Y-23242857D01*
X28562295Y-23242857D02*
X28562295Y-23166666D01*
X28562295Y-23166666D02*
X28600390Y-23052381D01*
X28600390Y-23052381D02*
X28638485Y-23014285D01*
X28638485Y-22709524D02*
X28600390Y-22671428D01*
X28600390Y-22671428D02*
X28562295Y-22595238D01*
X28562295Y-22595238D02*
X28562295Y-22404762D01*
X28562295Y-22404762D02*
X28600390Y-22328571D01*
X28600390Y-22328571D02*
X28638485Y-22290476D01*
X28638485Y-22290476D02*
X28714676Y-22252381D01*
X28714676Y-22252381D02*
X28790866Y-22252381D01*
X28790866Y-22252381D02*
X28905152Y-22290476D01*
X28905152Y-22290476D02*
X29362295Y-22747619D01*
X29362295Y-22747619D02*
X29362295Y-22252381D01*
X29362295Y-21871428D02*
X29362295Y-21719047D01*
X29362295Y-21719047D02*
X29324200Y-21642857D01*
X29324200Y-21642857D02*
X29286104Y-21604761D01*
X29286104Y-21604761D02*
X29171819Y-21528571D01*
X29171819Y-21528571D02*
X29019438Y-21490476D01*
X29019438Y-21490476D02*
X28714676Y-21490476D01*
X28714676Y-21490476D02*
X28638485Y-21528571D01*
X28638485Y-21528571D02*
X28600390Y-21566666D01*
X28600390Y-21566666D02*
X28562295Y-21642857D01*
X28562295Y-21642857D02*
X28562295Y-21795238D01*
X28562295Y-21795238D02*
X28600390Y-21871428D01*
X28600390Y-21871428D02*
X28638485Y-21909523D01*
X28638485Y-21909523D02*
X28714676Y-21947619D01*
X28714676Y-21947619D02*
X28905152Y-21947619D01*
X28905152Y-21947619D02*
X28981342Y-21909523D01*
X28981342Y-21909523D02*
X29019438Y-21871428D01*
X29019438Y-21871428D02*
X29057533Y-21795238D01*
X29057533Y-21795238D02*
X29057533Y-21642857D01*
X29057533Y-21642857D02*
X29019438Y-21566666D01*
X29019438Y-21566666D02*
X28981342Y-21528571D01*
X28981342Y-21528571D02*
X28905152Y-21490476D01*
X48233333Y-28812295D02*
X48233333Y-29383723D01*
X48233333Y-29383723D02*
X48195238Y-29498009D01*
X48195238Y-29498009D02*
X48119047Y-29574200D01*
X48119047Y-29574200D02*
X48004762Y-29612295D01*
X48004762Y-29612295D02*
X47928571Y-29612295D01*
X48995238Y-28812295D02*
X48614286Y-28812295D01*
X48614286Y-28812295D02*
X48576190Y-29193247D01*
X48576190Y-29193247D02*
X48614286Y-29155152D01*
X48614286Y-29155152D02*
X48690476Y-29117057D01*
X48690476Y-29117057D02*
X48880952Y-29117057D01*
X48880952Y-29117057D02*
X48957143Y-29155152D01*
X48957143Y-29155152D02*
X48995238Y-29193247D01*
X48995238Y-29193247D02*
X49033333Y-29269438D01*
X49033333Y-29269438D02*
X49033333Y-29459914D01*
X49033333Y-29459914D02*
X48995238Y-29536104D01*
X48995238Y-29536104D02*
X48957143Y-29574200D01*
X48957143Y-29574200D02*
X48880952Y-29612295D01*
X48880952Y-29612295D02*
X48690476Y-29612295D01*
X48690476Y-29612295D02*
X48614286Y-29574200D01*
X48614286Y-29574200D02*
X48576190Y-29536104D01*
X35786104Y-18014285D02*
X35824200Y-18052381D01*
X35824200Y-18052381D02*
X35862295Y-18166666D01*
X35862295Y-18166666D02*
X35862295Y-18242857D01*
X35862295Y-18242857D02*
X35824200Y-18357143D01*
X35824200Y-18357143D02*
X35748009Y-18433333D01*
X35748009Y-18433333D02*
X35671819Y-18471428D01*
X35671819Y-18471428D02*
X35519438Y-18509524D01*
X35519438Y-18509524D02*
X35405152Y-18509524D01*
X35405152Y-18509524D02*
X35252771Y-18471428D01*
X35252771Y-18471428D02*
X35176580Y-18433333D01*
X35176580Y-18433333D02*
X35100390Y-18357143D01*
X35100390Y-18357143D02*
X35062295Y-18242857D01*
X35062295Y-18242857D02*
X35062295Y-18166666D01*
X35062295Y-18166666D02*
X35100390Y-18052381D01*
X35100390Y-18052381D02*
X35138485Y-18014285D01*
X35062295Y-17747619D02*
X35062295Y-17252381D01*
X35062295Y-17252381D02*
X35367057Y-17519047D01*
X35367057Y-17519047D02*
X35367057Y-17404762D01*
X35367057Y-17404762D02*
X35405152Y-17328571D01*
X35405152Y-17328571D02*
X35443247Y-17290476D01*
X35443247Y-17290476D02*
X35519438Y-17252381D01*
X35519438Y-17252381D02*
X35709914Y-17252381D01*
X35709914Y-17252381D02*
X35786104Y-17290476D01*
X35786104Y-17290476D02*
X35824200Y-17328571D01*
X35824200Y-17328571D02*
X35862295Y-17404762D01*
X35862295Y-17404762D02*
X35862295Y-17633333D01*
X35862295Y-17633333D02*
X35824200Y-17709524D01*
X35824200Y-17709524D02*
X35786104Y-17747619D01*
X35062295Y-16528571D02*
X35062295Y-16909523D01*
X35062295Y-16909523D02*
X35443247Y-16947619D01*
X35443247Y-16947619D02*
X35405152Y-16909523D01*
X35405152Y-16909523D02*
X35367057Y-16833333D01*
X35367057Y-16833333D02*
X35367057Y-16642857D01*
X35367057Y-16642857D02*
X35405152Y-16566666D01*
X35405152Y-16566666D02*
X35443247Y-16528571D01*
X35443247Y-16528571D02*
X35519438Y-16490476D01*
X35519438Y-16490476D02*
X35709914Y-16490476D01*
X35709914Y-16490476D02*
X35786104Y-16528571D01*
X35786104Y-16528571D02*
X35824200Y-16566666D01*
X35824200Y-16566666D02*
X35862295Y-16642857D01*
X35862295Y-16642857D02*
X35862295Y-16833333D01*
X35862295Y-16833333D02*
X35824200Y-16909523D01*
X35824200Y-16909523D02*
X35786104Y-16947619D01*
X14193247Y-6016666D02*
X14193247Y-6283332D01*
X14612295Y-6283332D02*
X13812295Y-6283332D01*
X13812295Y-6283332D02*
X13812295Y-5902380D01*
X13888485Y-5635714D02*
X13850390Y-5597618D01*
X13850390Y-5597618D02*
X13812295Y-5521428D01*
X13812295Y-5521428D02*
X13812295Y-5330952D01*
X13812295Y-5330952D02*
X13850390Y-5254761D01*
X13850390Y-5254761D02*
X13888485Y-5216666D01*
X13888485Y-5216666D02*
X13964676Y-5178571D01*
X13964676Y-5178571D02*
X14040866Y-5178571D01*
X14040866Y-5178571D02*
X14155152Y-5216666D01*
X14155152Y-5216666D02*
X14612295Y-5673809D01*
X14612295Y-5673809D02*
X14612295Y-5178571D01*
X40983333Y-28812295D02*
X40983333Y-29383723D01*
X40983333Y-29383723D02*
X40945238Y-29498009D01*
X40945238Y-29498009D02*
X40869047Y-29574200D01*
X40869047Y-29574200D02*
X40754762Y-29612295D01*
X40754762Y-29612295D02*
X40678571Y-29612295D01*
X41288095Y-28812295D02*
X41783333Y-28812295D01*
X41783333Y-28812295D02*
X41516667Y-29117057D01*
X41516667Y-29117057D02*
X41630952Y-29117057D01*
X41630952Y-29117057D02*
X41707143Y-29155152D01*
X41707143Y-29155152D02*
X41745238Y-29193247D01*
X41745238Y-29193247D02*
X41783333Y-29269438D01*
X41783333Y-29269438D02*
X41783333Y-29459914D01*
X41783333Y-29459914D02*
X41745238Y-29536104D01*
X41745238Y-29536104D02*
X41707143Y-29574200D01*
X41707143Y-29574200D02*
X41630952Y-29612295D01*
X41630952Y-29612295D02*
X41402381Y-29612295D01*
X41402381Y-29612295D02*
X41326190Y-29574200D01*
X41326190Y-29574200D02*
X41288095Y-29536104D01*
X18786104Y-7514285D02*
X18824200Y-7552381D01*
X18824200Y-7552381D02*
X18862295Y-7666666D01*
X18862295Y-7666666D02*
X18862295Y-7742857D01*
X18862295Y-7742857D02*
X18824200Y-7857143D01*
X18824200Y-7857143D02*
X18748009Y-7933333D01*
X18748009Y-7933333D02*
X18671819Y-7971428D01*
X18671819Y-7971428D02*
X18519438Y-8009524D01*
X18519438Y-8009524D02*
X18405152Y-8009524D01*
X18405152Y-8009524D02*
X18252771Y-7971428D01*
X18252771Y-7971428D02*
X18176580Y-7933333D01*
X18176580Y-7933333D02*
X18100390Y-7857143D01*
X18100390Y-7857143D02*
X18062295Y-7742857D01*
X18062295Y-7742857D02*
X18062295Y-7666666D01*
X18062295Y-7666666D02*
X18100390Y-7552381D01*
X18100390Y-7552381D02*
X18138485Y-7514285D01*
X18138485Y-7209524D02*
X18100390Y-7171428D01*
X18100390Y-7171428D02*
X18062295Y-7095238D01*
X18062295Y-7095238D02*
X18062295Y-6904762D01*
X18062295Y-6904762D02*
X18100390Y-6828571D01*
X18100390Y-6828571D02*
X18138485Y-6790476D01*
X18138485Y-6790476D02*
X18214676Y-6752381D01*
X18214676Y-6752381D02*
X18290866Y-6752381D01*
X18290866Y-6752381D02*
X18405152Y-6790476D01*
X18405152Y-6790476D02*
X18862295Y-7247619D01*
X18862295Y-7247619D02*
X18862295Y-6752381D01*
X18062295Y-6066666D02*
X18062295Y-6219047D01*
X18062295Y-6219047D02*
X18100390Y-6295238D01*
X18100390Y-6295238D02*
X18138485Y-6333333D01*
X18138485Y-6333333D02*
X18252771Y-6409523D01*
X18252771Y-6409523D02*
X18405152Y-6447619D01*
X18405152Y-6447619D02*
X18709914Y-6447619D01*
X18709914Y-6447619D02*
X18786104Y-6409523D01*
X18786104Y-6409523D02*
X18824200Y-6371428D01*
X18824200Y-6371428D02*
X18862295Y-6295238D01*
X18862295Y-6295238D02*
X18862295Y-6142857D01*
X18862295Y-6142857D02*
X18824200Y-6066666D01*
X18824200Y-6066666D02*
X18786104Y-6028571D01*
X18786104Y-6028571D02*
X18709914Y-5990476D01*
X18709914Y-5990476D02*
X18519438Y-5990476D01*
X18519438Y-5990476D02*
X18443247Y-6028571D01*
X18443247Y-6028571D02*
X18405152Y-6066666D01*
X18405152Y-6066666D02*
X18367057Y-6142857D01*
X18367057Y-6142857D02*
X18367057Y-6295238D01*
X18367057Y-6295238D02*
X18405152Y-6371428D01*
X18405152Y-6371428D02*
X18443247Y-6409523D01*
X18443247Y-6409523D02*
X18519438Y-6447619D01*
X-6340476Y-25112295D02*
X-6340476Y-24312295D01*
X-6340476Y-24312295D02*
X-6150000Y-24312295D01*
X-6150000Y-24312295D02*
X-6035714Y-24350390D01*
X-6035714Y-24350390D02*
X-5959524Y-24426580D01*
X-5959524Y-24426580D02*
X-5921429Y-24502771D01*
X-5921429Y-24502771D02*
X-5883333Y-24655152D01*
X-5883333Y-24655152D02*
X-5883333Y-24769438D01*
X-5883333Y-24769438D02*
X-5921429Y-24921819D01*
X-5921429Y-24921819D02*
X-5959524Y-24998009D01*
X-5959524Y-24998009D02*
X-6035714Y-25074200D01*
X-6035714Y-25074200D02*
X-6150000Y-25112295D01*
X-6150000Y-25112295D02*
X-6340476Y-25112295D01*
X-5197619Y-24578961D02*
X-5197619Y-25112295D01*
X-5388095Y-24274200D02*
X-5578572Y-24845628D01*
X-5578572Y-24845628D02*
X-5083333Y-24845628D01*
X47943247Y-5266666D02*
X47943247Y-5533332D01*
X48362295Y-5533332D02*
X47562295Y-5533332D01*
X47562295Y-5533332D02*
X47562295Y-5152380D01*
X48362295Y-4428571D02*
X48362295Y-4885714D01*
X48362295Y-4657142D02*
X47562295Y-4657142D01*
X47562295Y-4657142D02*
X47676580Y-4733333D01*
X47676580Y-4733333D02*
X47752771Y-4809523D01*
X47752771Y-4809523D02*
X47790866Y-4885714D01*
X52390476Y-10812295D02*
X52390476Y-11459914D01*
X52390476Y-11459914D02*
X52428571Y-11536104D01*
X52428571Y-11536104D02*
X52466666Y-11574200D01*
X52466666Y-11574200D02*
X52542857Y-11612295D01*
X52542857Y-11612295D02*
X52695238Y-11612295D01*
X52695238Y-11612295D02*
X52771428Y-11574200D01*
X52771428Y-11574200D02*
X52809523Y-11536104D01*
X52809523Y-11536104D02*
X52847619Y-11459914D01*
X52847619Y-11459914D02*
X52847619Y-10812295D01*
X53190475Y-10888485D02*
X53228571Y-10850390D01*
X53228571Y-10850390D02*
X53304761Y-10812295D01*
X53304761Y-10812295D02*
X53495237Y-10812295D01*
X53495237Y-10812295D02*
X53571428Y-10850390D01*
X53571428Y-10850390D02*
X53609523Y-10888485D01*
X53609523Y-10888485D02*
X53647618Y-10964676D01*
X53647618Y-10964676D02*
X53647618Y-11040866D01*
X53647618Y-11040866D02*
X53609523Y-11155152D01*
X53609523Y-11155152D02*
X53152380Y-11612295D01*
X53152380Y-11612295D02*
X53647618Y-11612295D01*
X13240476Y-21812295D02*
X13697619Y-21812295D01*
X13469047Y-22612295D02*
X13469047Y-21812295D01*
X14421429Y-22612295D02*
X14154762Y-22231342D01*
X13964286Y-22612295D02*
X13964286Y-21812295D01*
X13964286Y-21812295D02*
X14269048Y-21812295D01*
X14269048Y-21812295D02*
X14345238Y-21850390D01*
X14345238Y-21850390D02*
X14383333Y-21888485D01*
X14383333Y-21888485D02*
X14421429Y-21964676D01*
X14421429Y-21964676D02*
X14421429Y-22078961D01*
X14421429Y-22078961D02*
X14383333Y-22155152D01*
X14383333Y-22155152D02*
X14345238Y-22193247D01*
X14345238Y-22193247D02*
X14269048Y-22231342D01*
X14269048Y-22231342D02*
X13964286Y-22231342D01*
X15183333Y-22612295D02*
X14726190Y-22612295D01*
X14954762Y-22612295D02*
X14954762Y-21812295D01*
X14954762Y-21812295D02*
X14878571Y-21926580D01*
X14878571Y-21926580D02*
X14802381Y-22002771D01*
X14802381Y-22002771D02*
X14726190Y-22040866D01*
X33286104Y-18014285D02*
X33324200Y-18052381D01*
X33324200Y-18052381D02*
X33362295Y-18166666D01*
X33362295Y-18166666D02*
X33362295Y-18242857D01*
X33362295Y-18242857D02*
X33324200Y-18357143D01*
X33324200Y-18357143D02*
X33248009Y-18433333D01*
X33248009Y-18433333D02*
X33171819Y-18471428D01*
X33171819Y-18471428D02*
X33019438Y-18509524D01*
X33019438Y-18509524D02*
X32905152Y-18509524D01*
X32905152Y-18509524D02*
X32752771Y-18471428D01*
X32752771Y-18471428D02*
X32676580Y-18433333D01*
X32676580Y-18433333D02*
X32600390Y-18357143D01*
X32600390Y-18357143D02*
X32562295Y-18242857D01*
X32562295Y-18242857D02*
X32562295Y-18166666D01*
X32562295Y-18166666D02*
X32600390Y-18052381D01*
X32600390Y-18052381D02*
X32638485Y-18014285D01*
X32562295Y-17747619D02*
X32562295Y-17252381D01*
X32562295Y-17252381D02*
X32867057Y-17519047D01*
X32867057Y-17519047D02*
X32867057Y-17404762D01*
X32867057Y-17404762D02*
X32905152Y-17328571D01*
X32905152Y-17328571D02*
X32943247Y-17290476D01*
X32943247Y-17290476D02*
X33019438Y-17252381D01*
X33019438Y-17252381D02*
X33209914Y-17252381D01*
X33209914Y-17252381D02*
X33286104Y-17290476D01*
X33286104Y-17290476D02*
X33324200Y-17328571D01*
X33324200Y-17328571D02*
X33362295Y-17404762D01*
X33362295Y-17404762D02*
X33362295Y-17633333D01*
X33362295Y-17633333D02*
X33324200Y-17709524D01*
X33324200Y-17709524D02*
X33286104Y-17747619D01*
X32828961Y-16566666D02*
X33362295Y-16566666D01*
X32524200Y-16757142D02*
X33095628Y-16947619D01*
X33095628Y-16947619D02*
X33095628Y-16452380D01*
X20719048Y-11612295D02*
X20719048Y-10812295D01*
X21557143Y-11536104D02*
X21519047Y-11574200D01*
X21519047Y-11574200D02*
X21404762Y-11612295D01*
X21404762Y-11612295D02*
X21328571Y-11612295D01*
X21328571Y-11612295D02*
X21214285Y-11574200D01*
X21214285Y-11574200D02*
X21138095Y-11498009D01*
X21138095Y-11498009D02*
X21100000Y-11421819D01*
X21100000Y-11421819D02*
X21061904Y-11269438D01*
X21061904Y-11269438D02*
X21061904Y-11155152D01*
X21061904Y-11155152D02*
X21100000Y-11002771D01*
X21100000Y-11002771D02*
X21138095Y-10926580D01*
X21138095Y-10926580D02*
X21214285Y-10850390D01*
X21214285Y-10850390D02*
X21328571Y-10812295D01*
X21328571Y-10812295D02*
X21404762Y-10812295D01*
X21404762Y-10812295D02*
X21519047Y-10850390D01*
X21519047Y-10850390D02*
X21557143Y-10888485D01*
X22319047Y-11612295D02*
X21861904Y-11612295D01*
X22090476Y-11612295D02*
X22090476Y-10812295D01*
X22090476Y-10812295D02*
X22014285Y-10926580D01*
X22014285Y-10926580D02*
X21938095Y-11002771D01*
X21938095Y-11002771D02*
X21861904Y-11040866D01*
X20786104Y-23264285D02*
X20824200Y-23302381D01*
X20824200Y-23302381D02*
X20862295Y-23416666D01*
X20862295Y-23416666D02*
X20862295Y-23492857D01*
X20862295Y-23492857D02*
X20824200Y-23607143D01*
X20824200Y-23607143D02*
X20748009Y-23683333D01*
X20748009Y-23683333D02*
X20671819Y-23721428D01*
X20671819Y-23721428D02*
X20519438Y-23759524D01*
X20519438Y-23759524D02*
X20405152Y-23759524D01*
X20405152Y-23759524D02*
X20252771Y-23721428D01*
X20252771Y-23721428D02*
X20176580Y-23683333D01*
X20176580Y-23683333D02*
X20100390Y-23607143D01*
X20100390Y-23607143D02*
X20062295Y-23492857D01*
X20062295Y-23492857D02*
X20062295Y-23416666D01*
X20062295Y-23416666D02*
X20100390Y-23302381D01*
X20100390Y-23302381D02*
X20138485Y-23264285D01*
X20328961Y-22578571D02*
X20862295Y-22578571D01*
X20024200Y-22769047D02*
X20595628Y-22959524D01*
X20595628Y-22959524D02*
X20595628Y-22464285D01*
X20062295Y-22007142D02*
X20062295Y-21930952D01*
X20062295Y-21930952D02*
X20100390Y-21854761D01*
X20100390Y-21854761D02*
X20138485Y-21816666D01*
X20138485Y-21816666D02*
X20214676Y-21778571D01*
X20214676Y-21778571D02*
X20367057Y-21740476D01*
X20367057Y-21740476D02*
X20557533Y-21740476D01*
X20557533Y-21740476D02*
X20709914Y-21778571D01*
X20709914Y-21778571D02*
X20786104Y-21816666D01*
X20786104Y-21816666D02*
X20824200Y-21854761D01*
X20824200Y-21854761D02*
X20862295Y-21930952D01*
X20862295Y-21930952D02*
X20862295Y-22007142D01*
X20862295Y-22007142D02*
X20824200Y-22083333D01*
X20824200Y-22083333D02*
X20786104Y-22121428D01*
X20786104Y-22121428D02*
X20709914Y-22159523D01*
X20709914Y-22159523D02*
X20557533Y-22197619D01*
X20557533Y-22197619D02*
X20367057Y-22197619D01*
X20367057Y-22197619D02*
X20214676Y-22159523D01*
X20214676Y-22159523D02*
X20138485Y-22121428D01*
X20138485Y-22121428D02*
X20100390Y-22083333D01*
X20100390Y-22083333D02*
X20062295Y-22007142D01*
X43233333Y-28812295D02*
X43233333Y-29383723D01*
X43233333Y-29383723D02*
X43195238Y-29498009D01*
X43195238Y-29498009D02*
X43119047Y-29574200D01*
X43119047Y-29574200D02*
X43004762Y-29612295D01*
X43004762Y-29612295D02*
X42928571Y-29612295D01*
X43957143Y-29078961D02*
X43957143Y-29612295D01*
X43766667Y-28774200D02*
X43576190Y-29345628D01*
X43576190Y-29345628D02*
X44071429Y-29345628D01*
X57366667Y-16362295D02*
X57100000Y-15981342D01*
X56909524Y-16362295D02*
X56909524Y-15562295D01*
X56909524Y-15562295D02*
X57214286Y-15562295D01*
X57214286Y-15562295D02*
X57290476Y-15600390D01*
X57290476Y-15600390D02*
X57328571Y-15638485D01*
X57328571Y-15638485D02*
X57366667Y-15714676D01*
X57366667Y-15714676D02*
X57366667Y-15828961D01*
X57366667Y-15828961D02*
X57328571Y-15905152D01*
X57328571Y-15905152D02*
X57290476Y-15943247D01*
X57290476Y-15943247D02*
X57214286Y-15981342D01*
X57214286Y-15981342D02*
X56909524Y-15981342D01*
X58090476Y-15562295D02*
X57709524Y-15562295D01*
X57709524Y-15562295D02*
X57671428Y-15943247D01*
X57671428Y-15943247D02*
X57709524Y-15905152D01*
X57709524Y-15905152D02*
X57785714Y-15867057D01*
X57785714Y-15867057D02*
X57976190Y-15867057D01*
X57976190Y-15867057D02*
X58052381Y-15905152D01*
X58052381Y-15905152D02*
X58090476Y-15943247D01*
X58090476Y-15943247D02*
X58128571Y-16019438D01*
X58128571Y-16019438D02*
X58128571Y-16209914D01*
X58128571Y-16209914D02*
X58090476Y-16286104D01*
X58090476Y-16286104D02*
X58052381Y-16324200D01*
X58052381Y-16324200D02*
X57976190Y-16362295D01*
X57976190Y-16362295D02*
X57785714Y-16362295D01*
X57785714Y-16362295D02*
X57709524Y-16324200D01*
X57709524Y-16324200D02*
X57671428Y-16286104D01*
X24286104Y-20764285D02*
X24324200Y-20802381D01*
X24324200Y-20802381D02*
X24362295Y-20916666D01*
X24362295Y-20916666D02*
X24362295Y-20992857D01*
X24362295Y-20992857D02*
X24324200Y-21107143D01*
X24324200Y-21107143D02*
X24248009Y-21183333D01*
X24248009Y-21183333D02*
X24171819Y-21221428D01*
X24171819Y-21221428D02*
X24019438Y-21259524D01*
X24019438Y-21259524D02*
X23905152Y-21259524D01*
X23905152Y-21259524D02*
X23752771Y-21221428D01*
X23752771Y-21221428D02*
X23676580Y-21183333D01*
X23676580Y-21183333D02*
X23600390Y-21107143D01*
X23600390Y-21107143D02*
X23562295Y-20992857D01*
X23562295Y-20992857D02*
X23562295Y-20916666D01*
X23562295Y-20916666D02*
X23600390Y-20802381D01*
X23600390Y-20802381D02*
X23638485Y-20764285D01*
X23828961Y-20078571D02*
X24362295Y-20078571D01*
X23524200Y-20269047D02*
X24095628Y-20459524D01*
X24095628Y-20459524D02*
X24095628Y-19964285D01*
X24362295Y-19240476D02*
X24362295Y-19697619D01*
X24362295Y-19469047D02*
X23562295Y-19469047D01*
X23562295Y-19469047D02*
X23676580Y-19545238D01*
X23676580Y-19545238D02*
X23752771Y-19621428D01*
X23752771Y-19621428D02*
X23790866Y-19697619D01*
X48286104Y-13264285D02*
X48324200Y-13302381D01*
X48324200Y-13302381D02*
X48362295Y-13416666D01*
X48362295Y-13416666D02*
X48362295Y-13492857D01*
X48362295Y-13492857D02*
X48324200Y-13607143D01*
X48324200Y-13607143D02*
X48248009Y-13683333D01*
X48248009Y-13683333D02*
X48171819Y-13721428D01*
X48171819Y-13721428D02*
X48019438Y-13759524D01*
X48019438Y-13759524D02*
X47905152Y-13759524D01*
X47905152Y-13759524D02*
X47752771Y-13721428D01*
X47752771Y-13721428D02*
X47676580Y-13683333D01*
X47676580Y-13683333D02*
X47600390Y-13607143D01*
X47600390Y-13607143D02*
X47562295Y-13492857D01*
X47562295Y-13492857D02*
X47562295Y-13416666D01*
X47562295Y-13416666D02*
X47600390Y-13302381D01*
X47600390Y-13302381D02*
X47638485Y-13264285D01*
X48362295Y-12502381D02*
X48362295Y-12959524D01*
X48362295Y-12730952D02*
X47562295Y-12730952D01*
X47562295Y-12730952D02*
X47676580Y-12807143D01*
X47676580Y-12807143D02*
X47752771Y-12883333D01*
X47752771Y-12883333D02*
X47790866Y-12959524D01*
X47638485Y-12197619D02*
X47600390Y-12159523D01*
X47600390Y-12159523D02*
X47562295Y-12083333D01*
X47562295Y-12083333D02*
X47562295Y-11892857D01*
X47562295Y-11892857D02*
X47600390Y-11816666D01*
X47600390Y-11816666D02*
X47638485Y-11778571D01*
X47638485Y-11778571D02*
X47714676Y-11740476D01*
X47714676Y-11740476D02*
X47790866Y-11740476D01*
X47790866Y-11740476D02*
X47905152Y-11778571D01*
X47905152Y-11778571D02*
X48362295Y-12235714D01*
X48362295Y-12235714D02*
X48362295Y-11740476D01*
X27612295Y-11633333D02*
X27612295Y-12014285D01*
X27612295Y-12014285D02*
X26812295Y-12014285D01*
X26812295Y-11442857D02*
X26812295Y-10947619D01*
X26812295Y-10947619D02*
X27117057Y-11214285D01*
X27117057Y-11214285D02*
X27117057Y-11100000D01*
X27117057Y-11100000D02*
X27155152Y-11023809D01*
X27155152Y-11023809D02*
X27193247Y-10985714D01*
X27193247Y-10985714D02*
X27269438Y-10947619D01*
X27269438Y-10947619D02*
X27459914Y-10947619D01*
X27459914Y-10947619D02*
X27536104Y-10985714D01*
X27536104Y-10985714D02*
X27574200Y-11023809D01*
X27574200Y-11023809D02*
X27612295Y-11100000D01*
X27612295Y-11100000D02*
X27612295Y-11328571D01*
X27612295Y-11328571D02*
X27574200Y-11404762D01*
X27574200Y-11404762D02*
X27536104Y-11442857D01*
X25485714Y-7286104D02*
X25447618Y-7324200D01*
X25447618Y-7324200D02*
X25333333Y-7362295D01*
X25333333Y-7362295D02*
X25257142Y-7362295D01*
X25257142Y-7362295D02*
X25142856Y-7324200D01*
X25142856Y-7324200D02*
X25066666Y-7248009D01*
X25066666Y-7248009D02*
X25028571Y-7171819D01*
X25028571Y-7171819D02*
X24990475Y-7019438D01*
X24990475Y-7019438D02*
X24990475Y-6905152D01*
X24990475Y-6905152D02*
X25028571Y-6752771D01*
X25028571Y-6752771D02*
X25066666Y-6676580D01*
X25066666Y-6676580D02*
X25142856Y-6600390D01*
X25142856Y-6600390D02*
X25257142Y-6562295D01*
X25257142Y-6562295D02*
X25333333Y-6562295D01*
X25333333Y-6562295D02*
X25447618Y-6600390D01*
X25447618Y-6600390D02*
X25485714Y-6638485D01*
X25790475Y-6638485D02*
X25828571Y-6600390D01*
X25828571Y-6600390D02*
X25904761Y-6562295D01*
X25904761Y-6562295D02*
X26095237Y-6562295D01*
X26095237Y-6562295D02*
X26171428Y-6600390D01*
X26171428Y-6600390D02*
X26209523Y-6638485D01*
X26209523Y-6638485D02*
X26247618Y-6714676D01*
X26247618Y-6714676D02*
X26247618Y-6790866D01*
X26247618Y-6790866D02*
X26209523Y-6905152D01*
X26209523Y-6905152D02*
X25752380Y-7362295D01*
X25752380Y-7362295D02*
X26247618Y-7362295D01*
X26971428Y-6562295D02*
X26590476Y-6562295D01*
X26590476Y-6562295D02*
X26552380Y-6943247D01*
X26552380Y-6943247D02*
X26590476Y-6905152D01*
X26590476Y-6905152D02*
X26666666Y-6867057D01*
X26666666Y-6867057D02*
X26857142Y-6867057D01*
X26857142Y-6867057D02*
X26933333Y-6905152D01*
X26933333Y-6905152D02*
X26971428Y-6943247D01*
X26971428Y-6943247D02*
X27009523Y-7019438D01*
X27009523Y-7019438D02*
X27009523Y-7209914D01*
X27009523Y-7209914D02*
X26971428Y-7286104D01*
X26971428Y-7286104D02*
X26933333Y-7324200D01*
X26933333Y-7324200D02*
X26857142Y-7362295D01*
X26857142Y-7362295D02*
X26666666Y-7362295D01*
X26666666Y-7362295D02*
X26590476Y-7324200D01*
X26590476Y-7324200D02*
X26552380Y-7286104D01*
X51983333Y-25812295D02*
X51983333Y-26383723D01*
X51983333Y-26383723D02*
X51945238Y-26498009D01*
X51945238Y-26498009D02*
X51869047Y-26574200D01*
X51869047Y-26574200D02*
X51754762Y-26612295D01*
X51754762Y-26612295D02*
X51678571Y-26612295D01*
X52783333Y-26612295D02*
X52326190Y-26612295D01*
X52554762Y-26612295D02*
X52554762Y-25812295D01*
X52554762Y-25812295D02*
X52478571Y-25926580D01*
X52478571Y-25926580D02*
X52402381Y-26002771D01*
X52402381Y-26002771D02*
X52326190Y-26040866D01*
X-264286Y-14036104D02*
X-302382Y-14074200D01*
X-302382Y-14074200D02*
X-416667Y-14112295D01*
X-416667Y-14112295D02*
X-492858Y-14112295D01*
X-492858Y-14112295D02*
X-607144Y-14074200D01*
X-607144Y-14074200D02*
X-683334Y-13998009D01*
X-683334Y-13998009D02*
X-721429Y-13921819D01*
X-721429Y-13921819D02*
X-759525Y-13769438D01*
X-759525Y-13769438D02*
X-759525Y-13655152D01*
X-759525Y-13655152D02*
X-721429Y-13502771D01*
X-721429Y-13502771D02*
X-683334Y-13426580D01*
X-683334Y-13426580D02*
X-607144Y-13350390D01*
X-607144Y-13350390D02*
X-492858Y-13312295D01*
X-492858Y-13312295D02*
X-416667Y-13312295D01*
X-416667Y-13312295D02*
X-302382Y-13350390D01*
X-302382Y-13350390D02*
X-264286Y-13388485D01*
X421428Y-13578961D02*
X421428Y-14112295D01*
X230952Y-13274200D02*
X40475Y-13845628D01*
X40475Y-13845628D02*
X535714Y-13845628D01*
X1183333Y-13578961D02*
X1183333Y-14112295D01*
X992857Y-13274200D02*
X802380Y-13845628D01*
X802380Y-13845628D02*
X1297619Y-13845628D01*
X39112295Y-11383333D02*
X39112295Y-11764285D01*
X39112295Y-11764285D02*
X38312295Y-11764285D01*
X39112295Y-10697619D02*
X39112295Y-11154762D01*
X39112295Y-10926190D02*
X38312295Y-10926190D01*
X38312295Y-10926190D02*
X38426580Y-11002381D01*
X38426580Y-11002381D02*
X38502771Y-11078571D01*
X38502771Y-11078571D02*
X38540866Y-11154762D01*
X-1633333Y-5362295D02*
X-1900000Y-4981342D01*
X-2090476Y-5362295D02*
X-2090476Y-4562295D01*
X-2090476Y-4562295D02*
X-1785714Y-4562295D01*
X-1785714Y-4562295D02*
X-1709524Y-4600390D01*
X-1709524Y-4600390D02*
X-1671429Y-4638485D01*
X-1671429Y-4638485D02*
X-1633333Y-4714676D01*
X-1633333Y-4714676D02*
X-1633333Y-4828961D01*
X-1633333Y-4828961D02*
X-1671429Y-4905152D01*
X-1671429Y-4905152D02*
X-1709524Y-4943247D01*
X-1709524Y-4943247D02*
X-1785714Y-4981342D01*
X-1785714Y-4981342D02*
X-2090476Y-4981342D01*
X-1252381Y-5362295D02*
X-1100000Y-5362295D01*
X-1100000Y-5362295D02*
X-1023810Y-5324200D01*
X-1023810Y-5324200D02*
X-985714Y-5286104D01*
X-985714Y-5286104D02*
X-909524Y-5171819D01*
X-909524Y-5171819D02*
X-871429Y-5019438D01*
X-871429Y-5019438D02*
X-871429Y-4714676D01*
X-871429Y-4714676D02*
X-909524Y-4638485D01*
X-909524Y-4638485D02*
X-947619Y-4600390D01*
X-947619Y-4600390D02*
X-1023810Y-4562295D01*
X-1023810Y-4562295D02*
X-1176191Y-4562295D01*
X-1176191Y-4562295D02*
X-1252381Y-4600390D01*
X-1252381Y-4600390D02*
X-1290476Y-4638485D01*
X-1290476Y-4638485D02*
X-1328572Y-4714676D01*
X-1328572Y-4714676D02*
X-1328572Y-4905152D01*
X-1328572Y-4905152D02*
X-1290476Y-4981342D01*
X-1290476Y-4981342D02*
X-1252381Y-5019438D01*
X-1252381Y-5019438D02*
X-1176191Y-5057533D01*
X-1176191Y-5057533D02*
X-1023810Y-5057533D01*
X-1023810Y-5057533D02*
X-947619Y-5019438D01*
X-947619Y-5019438D02*
X-909524Y-4981342D01*
X-909524Y-4981342D02*
X-871429Y-4905152D01*
X34536104Y-13633332D02*
X34574200Y-13671428D01*
X34574200Y-13671428D02*
X34612295Y-13785713D01*
X34612295Y-13785713D02*
X34612295Y-13861904D01*
X34612295Y-13861904D02*
X34574200Y-13976190D01*
X34574200Y-13976190D02*
X34498009Y-14052380D01*
X34498009Y-14052380D02*
X34421819Y-14090475D01*
X34421819Y-14090475D02*
X34269438Y-14128571D01*
X34269438Y-14128571D02*
X34155152Y-14128571D01*
X34155152Y-14128571D02*
X34002771Y-14090475D01*
X34002771Y-14090475D02*
X33926580Y-14052380D01*
X33926580Y-14052380D02*
X33850390Y-13976190D01*
X33850390Y-13976190D02*
X33812295Y-13861904D01*
X33812295Y-13861904D02*
X33812295Y-13785713D01*
X33812295Y-13785713D02*
X33850390Y-13671428D01*
X33850390Y-13671428D02*
X33888485Y-13633332D01*
X34612295Y-12871428D02*
X34612295Y-13328571D01*
X34612295Y-13099999D02*
X33812295Y-13099999D01*
X33812295Y-13099999D02*
X33926580Y-13176190D01*
X33926580Y-13176190D02*
X34002771Y-13252380D01*
X34002771Y-13252380D02*
X34040866Y-13328571D01*
X57366667Y-12036104D02*
X57328571Y-12074200D01*
X57328571Y-12074200D02*
X57214286Y-12112295D01*
X57214286Y-12112295D02*
X57138095Y-12112295D01*
X57138095Y-12112295D02*
X57023809Y-12074200D01*
X57023809Y-12074200D02*
X56947619Y-11998009D01*
X56947619Y-11998009D02*
X56909524Y-11921819D01*
X56909524Y-11921819D02*
X56871428Y-11769438D01*
X56871428Y-11769438D02*
X56871428Y-11655152D01*
X56871428Y-11655152D02*
X56909524Y-11502771D01*
X56909524Y-11502771D02*
X56947619Y-11426580D01*
X56947619Y-11426580D02*
X57023809Y-11350390D01*
X57023809Y-11350390D02*
X57138095Y-11312295D01*
X57138095Y-11312295D02*
X57214286Y-11312295D01*
X57214286Y-11312295D02*
X57328571Y-11350390D01*
X57328571Y-11350390D02*
X57366667Y-11388485D01*
X58052381Y-11578961D02*
X58052381Y-12112295D01*
X57861905Y-11274200D02*
X57671428Y-11845628D01*
X57671428Y-11845628D02*
X58166667Y-11845628D01*
X17735714Y-17786104D02*
X17697618Y-17824200D01*
X17697618Y-17824200D02*
X17583333Y-17862295D01*
X17583333Y-17862295D02*
X17507142Y-17862295D01*
X17507142Y-17862295D02*
X17392856Y-17824200D01*
X17392856Y-17824200D02*
X17316666Y-17748009D01*
X17316666Y-17748009D02*
X17278571Y-17671819D01*
X17278571Y-17671819D02*
X17240475Y-17519438D01*
X17240475Y-17519438D02*
X17240475Y-17405152D01*
X17240475Y-17405152D02*
X17278571Y-17252771D01*
X17278571Y-17252771D02*
X17316666Y-17176580D01*
X17316666Y-17176580D02*
X17392856Y-17100390D01*
X17392856Y-17100390D02*
X17507142Y-17062295D01*
X17507142Y-17062295D02*
X17583333Y-17062295D01*
X17583333Y-17062295D02*
X17697618Y-17100390D01*
X17697618Y-17100390D02*
X17735714Y-17138485D01*
X18002380Y-17062295D02*
X18497618Y-17062295D01*
X18497618Y-17062295D02*
X18230952Y-17367057D01*
X18230952Y-17367057D02*
X18345237Y-17367057D01*
X18345237Y-17367057D02*
X18421428Y-17405152D01*
X18421428Y-17405152D02*
X18459523Y-17443247D01*
X18459523Y-17443247D02*
X18497618Y-17519438D01*
X18497618Y-17519438D02*
X18497618Y-17709914D01*
X18497618Y-17709914D02*
X18459523Y-17786104D01*
X18459523Y-17786104D02*
X18421428Y-17824200D01*
X18421428Y-17824200D02*
X18345237Y-17862295D01*
X18345237Y-17862295D02*
X18116666Y-17862295D01*
X18116666Y-17862295D02*
X18040475Y-17824200D01*
X18040475Y-17824200D02*
X18002380Y-17786104D01*
X19183333Y-17062295D02*
X19030952Y-17062295D01*
X19030952Y-17062295D02*
X18954761Y-17100390D01*
X18954761Y-17100390D02*
X18916666Y-17138485D01*
X18916666Y-17138485D02*
X18840476Y-17252771D01*
X18840476Y-17252771D02*
X18802380Y-17405152D01*
X18802380Y-17405152D02*
X18802380Y-17709914D01*
X18802380Y-17709914D02*
X18840476Y-17786104D01*
X18840476Y-17786104D02*
X18878571Y-17824200D01*
X18878571Y-17824200D02*
X18954761Y-17862295D01*
X18954761Y-17862295D02*
X19107142Y-17862295D01*
X19107142Y-17862295D02*
X19183333Y-17824200D01*
X19183333Y-17824200D02*
X19221428Y-17786104D01*
X19221428Y-17786104D02*
X19259523Y-17709914D01*
X19259523Y-17709914D02*
X19259523Y-17519438D01*
X19259523Y-17519438D02*
X19221428Y-17443247D01*
X19221428Y-17443247D02*
X19183333Y-17405152D01*
X19183333Y-17405152D02*
X19107142Y-17367057D01*
X19107142Y-17367057D02*
X18954761Y-17367057D01*
X18954761Y-17367057D02*
X18878571Y-17405152D01*
X18878571Y-17405152D02*
X18840476Y-17443247D01*
X18840476Y-17443247D02*
X18802380Y-17519438D01*
X-2264286Y-17786104D02*
X-2302382Y-17824200D01*
X-2302382Y-17824200D02*
X-2416667Y-17862295D01*
X-2416667Y-17862295D02*
X-2492858Y-17862295D01*
X-2492858Y-17862295D02*
X-2607144Y-17824200D01*
X-2607144Y-17824200D02*
X-2683334Y-17748009D01*
X-2683334Y-17748009D02*
X-2721429Y-17671819D01*
X-2721429Y-17671819D02*
X-2759525Y-17519438D01*
X-2759525Y-17519438D02*
X-2759525Y-17405152D01*
X-2759525Y-17405152D02*
X-2721429Y-17252771D01*
X-2721429Y-17252771D02*
X-2683334Y-17176580D01*
X-2683334Y-17176580D02*
X-2607144Y-17100390D01*
X-2607144Y-17100390D02*
X-2492858Y-17062295D01*
X-2492858Y-17062295D02*
X-2416667Y-17062295D01*
X-2416667Y-17062295D02*
X-2302382Y-17100390D01*
X-2302382Y-17100390D02*
X-2264286Y-17138485D01*
X-1578572Y-17328961D02*
X-1578572Y-17862295D01*
X-1769048Y-17024200D02*
X-1959525Y-17595628D01*
X-1959525Y-17595628D02*
X-1464286Y-17595628D01*
X-778572Y-17062295D02*
X-1159524Y-17062295D01*
X-1159524Y-17062295D02*
X-1197620Y-17443247D01*
X-1197620Y-17443247D02*
X-1159524Y-17405152D01*
X-1159524Y-17405152D02*
X-1083334Y-17367057D01*
X-1083334Y-17367057D02*
X-892858Y-17367057D01*
X-892858Y-17367057D02*
X-816667Y-17405152D01*
X-816667Y-17405152D02*
X-778572Y-17443247D01*
X-778572Y-17443247D02*
X-740477Y-17519438D01*
X-740477Y-17519438D02*
X-740477Y-17709914D01*
X-740477Y-17709914D02*
X-778572Y-17786104D01*
X-778572Y-17786104D02*
X-816667Y-17824200D01*
X-816667Y-17824200D02*
X-892858Y-17862295D01*
X-892858Y-17862295D02*
X-1083334Y-17862295D01*
X-1083334Y-17862295D02*
X-1159524Y-17824200D01*
X-1159524Y-17824200D02*
X-1197620Y-17786104D01*
X32786104Y-23014285D02*
X32824200Y-23052381D01*
X32824200Y-23052381D02*
X32862295Y-23166666D01*
X32862295Y-23166666D02*
X32862295Y-23242857D01*
X32862295Y-23242857D02*
X32824200Y-23357143D01*
X32824200Y-23357143D02*
X32748009Y-23433333D01*
X32748009Y-23433333D02*
X32671819Y-23471428D01*
X32671819Y-23471428D02*
X32519438Y-23509524D01*
X32519438Y-23509524D02*
X32405152Y-23509524D01*
X32405152Y-23509524D02*
X32252771Y-23471428D01*
X32252771Y-23471428D02*
X32176580Y-23433333D01*
X32176580Y-23433333D02*
X32100390Y-23357143D01*
X32100390Y-23357143D02*
X32062295Y-23242857D01*
X32062295Y-23242857D02*
X32062295Y-23166666D01*
X32062295Y-23166666D02*
X32100390Y-23052381D01*
X32100390Y-23052381D02*
X32138485Y-23014285D01*
X32062295Y-22747619D02*
X32062295Y-22252381D01*
X32062295Y-22252381D02*
X32367057Y-22519047D01*
X32367057Y-22519047D02*
X32367057Y-22404762D01*
X32367057Y-22404762D02*
X32405152Y-22328571D01*
X32405152Y-22328571D02*
X32443247Y-22290476D01*
X32443247Y-22290476D02*
X32519438Y-22252381D01*
X32519438Y-22252381D02*
X32709914Y-22252381D01*
X32709914Y-22252381D02*
X32786104Y-22290476D01*
X32786104Y-22290476D02*
X32824200Y-22328571D01*
X32824200Y-22328571D02*
X32862295Y-22404762D01*
X32862295Y-22404762D02*
X32862295Y-22633333D01*
X32862295Y-22633333D02*
X32824200Y-22709524D01*
X32824200Y-22709524D02*
X32786104Y-22747619D01*
X32062295Y-21985714D02*
X32062295Y-21490476D01*
X32062295Y-21490476D02*
X32367057Y-21757142D01*
X32367057Y-21757142D02*
X32367057Y-21642857D01*
X32367057Y-21642857D02*
X32405152Y-21566666D01*
X32405152Y-21566666D02*
X32443247Y-21528571D01*
X32443247Y-21528571D02*
X32519438Y-21490476D01*
X32519438Y-21490476D02*
X32709914Y-21490476D01*
X32709914Y-21490476D02*
X32786104Y-21528571D01*
X32786104Y-21528571D02*
X32824200Y-21566666D01*
X32824200Y-21566666D02*
X32862295Y-21642857D01*
X32862295Y-21642857D02*
X32862295Y-21871428D01*
X32862295Y-21871428D02*
X32824200Y-21947619D01*
X32824200Y-21947619D02*
X32786104Y-21985714D01*
X55112295Y-2090475D02*
X54312295Y-2090475D01*
X54312295Y-2090475D02*
X54312295Y-1899999D01*
X54312295Y-1899999D02*
X54350390Y-1785713D01*
X54350390Y-1785713D02*
X54426580Y-1709523D01*
X54426580Y-1709523D02*
X54502771Y-1671428D01*
X54502771Y-1671428D02*
X54655152Y-1633332D01*
X54655152Y-1633332D02*
X54769438Y-1633332D01*
X54769438Y-1633332D02*
X54921819Y-1671428D01*
X54921819Y-1671428D02*
X54998009Y-1709523D01*
X54998009Y-1709523D02*
X55074200Y-1785713D01*
X55074200Y-1785713D02*
X55112295Y-1899999D01*
X55112295Y-1899999D02*
X55112295Y-2090475D01*
X54312295Y-909523D02*
X54312295Y-1290475D01*
X54312295Y-1290475D02*
X54693247Y-1328571D01*
X54693247Y-1328571D02*
X54655152Y-1290475D01*
X54655152Y-1290475D02*
X54617057Y-1214285D01*
X54617057Y-1214285D02*
X54617057Y-1023809D01*
X54617057Y-1023809D02*
X54655152Y-947618D01*
X54655152Y-947618D02*
X54693247Y-909523D01*
X54693247Y-909523D02*
X54769438Y-871428D01*
X54769438Y-871428D02*
X54959914Y-871428D01*
X54959914Y-871428D02*
X55036104Y-909523D01*
X55036104Y-909523D02*
X55074200Y-947618D01*
X55074200Y-947618D02*
X55112295Y-1023809D01*
X55112295Y-1023809D02*
X55112295Y-1214285D01*
X55112295Y-1214285D02*
X55074200Y-1290475D01*
X55074200Y-1290475D02*
X55036104Y-1328571D01*
X48216104Y-9764285D02*
X48254200Y-9802381D01*
X48254200Y-9802381D02*
X48292295Y-9916666D01*
X48292295Y-9916666D02*
X48292295Y-9992857D01*
X48292295Y-9992857D02*
X48254200Y-10107143D01*
X48254200Y-10107143D02*
X48178009Y-10183333D01*
X48178009Y-10183333D02*
X48101819Y-10221428D01*
X48101819Y-10221428D02*
X47949438Y-10259524D01*
X47949438Y-10259524D02*
X47835152Y-10259524D01*
X47835152Y-10259524D02*
X47682771Y-10221428D01*
X47682771Y-10221428D02*
X47606580Y-10183333D01*
X47606580Y-10183333D02*
X47530390Y-10107143D01*
X47530390Y-10107143D02*
X47492295Y-9992857D01*
X47492295Y-9992857D02*
X47492295Y-9916666D01*
X47492295Y-9916666D02*
X47530390Y-9802381D01*
X47530390Y-9802381D02*
X47568485Y-9764285D01*
X48292295Y-9002381D02*
X48292295Y-9459524D01*
X48292295Y-9230952D02*
X47492295Y-9230952D01*
X47492295Y-9230952D02*
X47606580Y-9307143D01*
X47606580Y-9307143D02*
X47682771Y-9383333D01*
X47682771Y-9383333D02*
X47720866Y-9459524D01*
X47492295Y-8735714D02*
X47492295Y-8240476D01*
X47492295Y-8240476D02*
X47797057Y-8507142D01*
X47797057Y-8507142D02*
X47797057Y-8392857D01*
X47797057Y-8392857D02*
X47835152Y-8316666D01*
X47835152Y-8316666D02*
X47873247Y-8278571D01*
X47873247Y-8278571D02*
X47949438Y-8240476D01*
X47949438Y-8240476D02*
X48139914Y-8240476D01*
X48139914Y-8240476D02*
X48216104Y-8278571D01*
X48216104Y-8278571D02*
X48254200Y-8316666D01*
X48254200Y-8316666D02*
X48292295Y-8392857D01*
X48292295Y-8392857D02*
X48292295Y-8621428D01*
X48292295Y-8621428D02*
X48254200Y-8697619D01*
X48254200Y-8697619D02*
X48216104Y-8735714D01*
X48286104Y-17383332D02*
X48324200Y-17421428D01*
X48324200Y-17421428D02*
X48362295Y-17535713D01*
X48362295Y-17535713D02*
X48362295Y-17611904D01*
X48362295Y-17611904D02*
X48324200Y-17726190D01*
X48324200Y-17726190D02*
X48248009Y-17802380D01*
X48248009Y-17802380D02*
X48171819Y-17840475D01*
X48171819Y-17840475D02*
X48019438Y-17878571D01*
X48019438Y-17878571D02*
X47905152Y-17878571D01*
X47905152Y-17878571D02*
X47752771Y-17840475D01*
X47752771Y-17840475D02*
X47676580Y-17802380D01*
X47676580Y-17802380D02*
X47600390Y-17726190D01*
X47600390Y-17726190D02*
X47562295Y-17611904D01*
X47562295Y-17611904D02*
X47562295Y-17535713D01*
X47562295Y-17535713D02*
X47600390Y-17421428D01*
X47600390Y-17421428D02*
X47638485Y-17383332D01*
X47562295Y-16697618D02*
X47562295Y-16849999D01*
X47562295Y-16849999D02*
X47600390Y-16926190D01*
X47600390Y-16926190D02*
X47638485Y-16964285D01*
X47638485Y-16964285D02*
X47752771Y-17040475D01*
X47752771Y-17040475D02*
X47905152Y-17078571D01*
X47905152Y-17078571D02*
X48209914Y-17078571D01*
X48209914Y-17078571D02*
X48286104Y-17040475D01*
X48286104Y-17040475D02*
X48324200Y-17002380D01*
X48324200Y-17002380D02*
X48362295Y-16926190D01*
X48362295Y-16926190D02*
X48362295Y-16773809D01*
X48362295Y-16773809D02*
X48324200Y-16697618D01*
X48324200Y-16697618D02*
X48286104Y-16659523D01*
X48286104Y-16659523D02*
X48209914Y-16621428D01*
X48209914Y-16621428D02*
X48019438Y-16621428D01*
X48019438Y-16621428D02*
X47943247Y-16659523D01*
X47943247Y-16659523D02*
X47905152Y-16697618D01*
X47905152Y-16697618D02*
X47867057Y-16773809D01*
X47867057Y-16773809D02*
X47867057Y-16926190D01*
X47867057Y-16926190D02*
X47905152Y-17002380D01*
X47905152Y-17002380D02*
X47943247Y-17040475D01*
X47943247Y-17040475D02*
X48019438Y-17078571D01*
X-264286Y-13036104D02*
X-302382Y-13074200D01*
X-302382Y-13074200D02*
X-416667Y-13112295D01*
X-416667Y-13112295D02*
X-492858Y-13112295D01*
X-492858Y-13112295D02*
X-607144Y-13074200D01*
X-607144Y-13074200D02*
X-683334Y-12998009D01*
X-683334Y-12998009D02*
X-721429Y-12921819D01*
X-721429Y-12921819D02*
X-759525Y-12769438D01*
X-759525Y-12769438D02*
X-759525Y-12655152D01*
X-759525Y-12655152D02*
X-721429Y-12502771D01*
X-721429Y-12502771D02*
X-683334Y-12426580D01*
X-683334Y-12426580D02*
X-607144Y-12350390D01*
X-607144Y-12350390D02*
X-492858Y-12312295D01*
X-492858Y-12312295D02*
X-416667Y-12312295D01*
X-416667Y-12312295D02*
X-302382Y-12350390D01*
X-302382Y-12350390D02*
X-264286Y-12388485D01*
X421428Y-12578961D02*
X421428Y-13112295D01*
X230952Y-12274200D02*
X40475Y-12845628D01*
X40475Y-12845628D02*
X535714Y-12845628D01*
X764285Y-12312295D02*
X1259523Y-12312295D01*
X1259523Y-12312295D02*
X992857Y-12617057D01*
X992857Y-12617057D02*
X1107142Y-12617057D01*
X1107142Y-12617057D02*
X1183333Y-12655152D01*
X1183333Y-12655152D02*
X1221428Y-12693247D01*
X1221428Y-12693247D02*
X1259523Y-12769438D01*
X1259523Y-12769438D02*
X1259523Y-12959914D01*
X1259523Y-12959914D02*
X1221428Y-13036104D01*
X1221428Y-13036104D02*
X1183333Y-13074200D01*
X1183333Y-13074200D02*
X1107142Y-13112295D01*
X1107142Y-13112295D02*
X878571Y-13112295D01*
X878571Y-13112295D02*
X802380Y-13074200D01*
X802380Y-13074200D02*
X764285Y-13036104D01*
X17235714Y-18786104D02*
X17197618Y-18824200D01*
X17197618Y-18824200D02*
X17083333Y-18862295D01*
X17083333Y-18862295D02*
X17007142Y-18862295D01*
X17007142Y-18862295D02*
X16892856Y-18824200D01*
X16892856Y-18824200D02*
X16816666Y-18748009D01*
X16816666Y-18748009D02*
X16778571Y-18671819D01*
X16778571Y-18671819D02*
X16740475Y-18519438D01*
X16740475Y-18519438D02*
X16740475Y-18405152D01*
X16740475Y-18405152D02*
X16778571Y-18252771D01*
X16778571Y-18252771D02*
X16816666Y-18176580D01*
X16816666Y-18176580D02*
X16892856Y-18100390D01*
X16892856Y-18100390D02*
X17007142Y-18062295D01*
X17007142Y-18062295D02*
X17083333Y-18062295D01*
X17083333Y-18062295D02*
X17197618Y-18100390D01*
X17197618Y-18100390D02*
X17235714Y-18138485D01*
X17502380Y-18062295D02*
X17997618Y-18062295D01*
X17997618Y-18062295D02*
X17730952Y-18367057D01*
X17730952Y-18367057D02*
X17845237Y-18367057D01*
X17845237Y-18367057D02*
X17921428Y-18405152D01*
X17921428Y-18405152D02*
X17959523Y-18443247D01*
X17959523Y-18443247D02*
X17997618Y-18519438D01*
X17997618Y-18519438D02*
X17997618Y-18709914D01*
X17997618Y-18709914D02*
X17959523Y-18786104D01*
X17959523Y-18786104D02*
X17921428Y-18824200D01*
X17921428Y-18824200D02*
X17845237Y-18862295D01*
X17845237Y-18862295D02*
X17616666Y-18862295D01*
X17616666Y-18862295D02*
X17540475Y-18824200D01*
X17540475Y-18824200D02*
X17502380Y-18786104D01*
X18492857Y-18062295D02*
X18569047Y-18062295D01*
X18569047Y-18062295D02*
X18645238Y-18100390D01*
X18645238Y-18100390D02*
X18683333Y-18138485D01*
X18683333Y-18138485D02*
X18721428Y-18214676D01*
X18721428Y-18214676D02*
X18759523Y-18367057D01*
X18759523Y-18367057D02*
X18759523Y-18557533D01*
X18759523Y-18557533D02*
X18721428Y-18709914D01*
X18721428Y-18709914D02*
X18683333Y-18786104D01*
X18683333Y-18786104D02*
X18645238Y-18824200D01*
X18645238Y-18824200D02*
X18569047Y-18862295D01*
X18569047Y-18862295D02*
X18492857Y-18862295D01*
X18492857Y-18862295D02*
X18416666Y-18824200D01*
X18416666Y-18824200D02*
X18378571Y-18786104D01*
X18378571Y-18786104D02*
X18340476Y-18709914D01*
X18340476Y-18709914D02*
X18302380Y-18557533D01*
X18302380Y-18557533D02*
X18302380Y-18367057D01*
X18302380Y-18367057D02*
X18340476Y-18214676D01*
X18340476Y-18214676D02*
X18378571Y-18138485D01*
X18378571Y-18138485D02*
X18416666Y-18100390D01*
X18416666Y-18100390D02*
X18492857Y-18062295D01*
X57366667Y-8112295D02*
X57100000Y-7731342D01*
X56909524Y-8112295D02*
X56909524Y-7312295D01*
X56909524Y-7312295D02*
X57214286Y-7312295D01*
X57214286Y-7312295D02*
X57290476Y-7350390D01*
X57290476Y-7350390D02*
X57328571Y-7388485D01*
X57328571Y-7388485D02*
X57366667Y-7464676D01*
X57366667Y-7464676D02*
X57366667Y-7578961D01*
X57366667Y-7578961D02*
X57328571Y-7655152D01*
X57328571Y-7655152D02*
X57290476Y-7693247D01*
X57290476Y-7693247D02*
X57214286Y-7731342D01*
X57214286Y-7731342D02*
X56909524Y-7731342D01*
X58128571Y-8112295D02*
X57671428Y-8112295D01*
X57900000Y-8112295D02*
X57900000Y-7312295D01*
X57900000Y-7312295D02*
X57823809Y-7426580D01*
X57823809Y-7426580D02*
X57747619Y-7502771D01*
X57747619Y-7502771D02*
X57671428Y-7540866D01*
X-2264286Y-20786104D02*
X-2302382Y-20824200D01*
X-2302382Y-20824200D02*
X-2416667Y-20862295D01*
X-2416667Y-20862295D02*
X-2492858Y-20862295D01*
X-2492858Y-20862295D02*
X-2607144Y-20824200D01*
X-2607144Y-20824200D02*
X-2683334Y-20748009D01*
X-2683334Y-20748009D02*
X-2721429Y-20671819D01*
X-2721429Y-20671819D02*
X-2759525Y-20519438D01*
X-2759525Y-20519438D02*
X-2759525Y-20405152D01*
X-2759525Y-20405152D02*
X-2721429Y-20252771D01*
X-2721429Y-20252771D02*
X-2683334Y-20176580D01*
X-2683334Y-20176580D02*
X-2607144Y-20100390D01*
X-2607144Y-20100390D02*
X-2492858Y-20062295D01*
X-2492858Y-20062295D02*
X-2416667Y-20062295D01*
X-2416667Y-20062295D02*
X-2302382Y-20100390D01*
X-2302382Y-20100390D02*
X-2264286Y-20138485D01*
X-1578572Y-20328961D02*
X-1578572Y-20862295D01*
X-1769048Y-20024200D02*
X-1959525Y-20595628D01*
X-1959525Y-20595628D02*
X-1464286Y-20595628D01*
X-816667Y-20062295D02*
X-969048Y-20062295D01*
X-969048Y-20062295D02*
X-1045239Y-20100390D01*
X-1045239Y-20100390D02*
X-1083334Y-20138485D01*
X-1083334Y-20138485D02*
X-1159524Y-20252771D01*
X-1159524Y-20252771D02*
X-1197620Y-20405152D01*
X-1197620Y-20405152D02*
X-1197620Y-20709914D01*
X-1197620Y-20709914D02*
X-1159524Y-20786104D01*
X-1159524Y-20786104D02*
X-1121429Y-20824200D01*
X-1121429Y-20824200D02*
X-1045239Y-20862295D01*
X-1045239Y-20862295D02*
X-892858Y-20862295D01*
X-892858Y-20862295D02*
X-816667Y-20824200D01*
X-816667Y-20824200D02*
X-778572Y-20786104D01*
X-778572Y-20786104D02*
X-740477Y-20709914D01*
X-740477Y-20709914D02*
X-740477Y-20519438D01*
X-740477Y-20519438D02*
X-778572Y-20443247D01*
X-778572Y-20443247D02*
X-816667Y-20405152D01*
X-816667Y-20405152D02*
X-892858Y-20367057D01*
X-892858Y-20367057D02*
X-1045239Y-20367057D01*
X-1045239Y-20367057D02*
X-1121429Y-20405152D01*
X-1121429Y-20405152D02*
X-1159524Y-20443247D01*
X-1159524Y-20443247D02*
X-1197620Y-20519438D01*
X31036104Y-23014285D02*
X31074200Y-23052381D01*
X31074200Y-23052381D02*
X31112295Y-23166666D01*
X31112295Y-23166666D02*
X31112295Y-23242857D01*
X31112295Y-23242857D02*
X31074200Y-23357143D01*
X31074200Y-23357143D02*
X30998009Y-23433333D01*
X30998009Y-23433333D02*
X30921819Y-23471428D01*
X30921819Y-23471428D02*
X30769438Y-23509524D01*
X30769438Y-23509524D02*
X30655152Y-23509524D01*
X30655152Y-23509524D02*
X30502771Y-23471428D01*
X30502771Y-23471428D02*
X30426580Y-23433333D01*
X30426580Y-23433333D02*
X30350390Y-23357143D01*
X30350390Y-23357143D02*
X30312295Y-23242857D01*
X30312295Y-23242857D02*
X30312295Y-23166666D01*
X30312295Y-23166666D02*
X30350390Y-23052381D01*
X30350390Y-23052381D02*
X30388485Y-23014285D01*
X30312295Y-22747619D02*
X30312295Y-22252381D01*
X30312295Y-22252381D02*
X30617057Y-22519047D01*
X30617057Y-22519047D02*
X30617057Y-22404762D01*
X30617057Y-22404762D02*
X30655152Y-22328571D01*
X30655152Y-22328571D02*
X30693247Y-22290476D01*
X30693247Y-22290476D02*
X30769438Y-22252381D01*
X30769438Y-22252381D02*
X30959914Y-22252381D01*
X30959914Y-22252381D02*
X31036104Y-22290476D01*
X31036104Y-22290476D02*
X31074200Y-22328571D01*
X31074200Y-22328571D02*
X31112295Y-22404762D01*
X31112295Y-22404762D02*
X31112295Y-22633333D01*
X31112295Y-22633333D02*
X31074200Y-22709524D01*
X31074200Y-22709524D02*
X31036104Y-22747619D01*
X30388485Y-21947619D02*
X30350390Y-21909523D01*
X30350390Y-21909523D02*
X30312295Y-21833333D01*
X30312295Y-21833333D02*
X30312295Y-21642857D01*
X30312295Y-21642857D02*
X30350390Y-21566666D01*
X30350390Y-21566666D02*
X30388485Y-21528571D01*
X30388485Y-21528571D02*
X30464676Y-21490476D01*
X30464676Y-21490476D02*
X30540866Y-21490476D01*
X30540866Y-21490476D02*
X30655152Y-21528571D01*
X30655152Y-21528571D02*
X31112295Y-21985714D01*
X31112295Y-21985714D02*
X31112295Y-21490476D01*
X42985714Y-5536104D02*
X42947618Y-5574200D01*
X42947618Y-5574200D02*
X42833333Y-5612295D01*
X42833333Y-5612295D02*
X42757142Y-5612295D01*
X42757142Y-5612295D02*
X42642856Y-5574200D01*
X42642856Y-5574200D02*
X42566666Y-5498009D01*
X42566666Y-5498009D02*
X42528571Y-5421819D01*
X42528571Y-5421819D02*
X42490475Y-5269438D01*
X42490475Y-5269438D02*
X42490475Y-5155152D01*
X42490475Y-5155152D02*
X42528571Y-5002771D01*
X42528571Y-5002771D02*
X42566666Y-4926580D01*
X42566666Y-4926580D02*
X42642856Y-4850390D01*
X42642856Y-4850390D02*
X42757142Y-4812295D01*
X42757142Y-4812295D02*
X42833333Y-4812295D01*
X42833333Y-4812295D02*
X42947618Y-4850390D01*
X42947618Y-4850390D02*
X42985714Y-4888485D01*
X43747618Y-5612295D02*
X43290475Y-5612295D01*
X43519047Y-5612295D02*
X43519047Y-4812295D01*
X43519047Y-4812295D02*
X43442856Y-4926580D01*
X43442856Y-4926580D02*
X43366666Y-5002771D01*
X43366666Y-5002771D02*
X43290475Y-5040866D01*
X44433333Y-5078961D02*
X44433333Y-5612295D01*
X44242857Y-4774200D02*
X44052380Y-5345628D01*
X44052380Y-5345628D02*
X44547619Y-5345628D01*
X53528571Y-29862295D02*
X53528571Y-29062295D01*
X53528571Y-29062295D02*
X53719047Y-29062295D01*
X53719047Y-29062295D02*
X53833333Y-29100390D01*
X53833333Y-29100390D02*
X53909523Y-29176580D01*
X53909523Y-29176580D02*
X53947618Y-29252771D01*
X53947618Y-29252771D02*
X53985714Y-29405152D01*
X53985714Y-29405152D02*
X53985714Y-29519438D01*
X53985714Y-29519438D02*
X53947618Y-29671819D01*
X53947618Y-29671819D02*
X53909523Y-29748009D01*
X53909523Y-29748009D02*
X53833333Y-29824200D01*
X53833333Y-29824200D02*
X53719047Y-29862295D01*
X53719047Y-29862295D02*
X53528571Y-29862295D01*
X54747618Y-29862295D02*
X54290475Y-29862295D01*
X54519047Y-29862295D02*
X54519047Y-29062295D01*
X54519047Y-29062295D02*
X54442856Y-29176580D01*
X54442856Y-29176580D02*
X54366666Y-29252771D01*
X54366666Y-29252771D02*
X54290475Y-29290866D01*
X55242857Y-29062295D02*
X55319047Y-29062295D01*
X55319047Y-29062295D02*
X55395238Y-29100390D01*
X55395238Y-29100390D02*
X55433333Y-29138485D01*
X55433333Y-29138485D02*
X55471428Y-29214676D01*
X55471428Y-29214676D02*
X55509523Y-29367057D01*
X55509523Y-29367057D02*
X55509523Y-29557533D01*
X55509523Y-29557533D02*
X55471428Y-29709914D01*
X55471428Y-29709914D02*
X55433333Y-29786104D01*
X55433333Y-29786104D02*
X55395238Y-29824200D01*
X55395238Y-29824200D02*
X55319047Y-29862295D01*
X55319047Y-29862295D02*
X55242857Y-29862295D01*
X55242857Y-29862295D02*
X55166666Y-29824200D01*
X55166666Y-29824200D02*
X55128571Y-29786104D01*
X55128571Y-29786104D02*
X55090476Y-29709914D01*
X55090476Y-29709914D02*
X55052380Y-29557533D01*
X55052380Y-29557533D02*
X55052380Y-29367057D01*
X55052380Y-29367057D02*
X55090476Y-29214676D01*
X55090476Y-29214676D02*
X55128571Y-29138485D01*
X55128571Y-29138485D02*
X55166666Y-29100390D01*
X55166666Y-29100390D02*
X55242857Y-29062295D01*
X41380163Y-24892527D02*
X41460975Y-24434591D01*
X41056914Y-24569278D02*
X41622600Y-24003593D01*
X41622600Y-24003593D02*
X41838099Y-24219092D01*
X41838099Y-24219092D02*
X41865036Y-24299904D01*
X41865036Y-24299904D02*
X41865036Y-24353779D01*
X41865036Y-24353779D02*
X41838099Y-24434591D01*
X41838099Y-24434591D02*
X41757287Y-24515403D01*
X41757287Y-24515403D02*
X41676474Y-24542341D01*
X41676474Y-24542341D02*
X41622600Y-24542341D01*
X41622600Y-24542341D02*
X41541787Y-24515403D01*
X41541787Y-24515403D02*
X41326288Y-24299904D01*
X41918911Y-25431275D02*
X41595662Y-25108026D01*
X41757287Y-25269650D02*
X42322972Y-24703965D01*
X42322972Y-24703965D02*
X42188285Y-24730902D01*
X42188285Y-24730902D02*
X42080535Y-24730902D01*
X42080535Y-24730902D02*
X41999723Y-24703965D01*
X42646221Y-25134964D02*
X42700096Y-25134964D01*
X42700096Y-25134964D02*
X42780908Y-25161901D01*
X42780908Y-25161901D02*
X42915595Y-25296588D01*
X42915595Y-25296588D02*
X42942532Y-25377400D01*
X42942532Y-25377400D02*
X42942532Y-25431275D01*
X42942532Y-25431275D02*
X42915595Y-25512087D01*
X42915595Y-25512087D02*
X42861720Y-25565962D01*
X42861720Y-25565962D02*
X42753971Y-25619837D01*
X42753971Y-25619837D02*
X42107473Y-25619837D01*
X42107473Y-25619837D02*
X42457659Y-25970023D01*
X20786104Y-7514285D02*
X20824200Y-7552381D01*
X20824200Y-7552381D02*
X20862295Y-7666666D01*
X20862295Y-7666666D02*
X20862295Y-7742857D01*
X20862295Y-7742857D02*
X20824200Y-7857143D01*
X20824200Y-7857143D02*
X20748009Y-7933333D01*
X20748009Y-7933333D02*
X20671819Y-7971428D01*
X20671819Y-7971428D02*
X20519438Y-8009524D01*
X20519438Y-8009524D02*
X20405152Y-8009524D01*
X20405152Y-8009524D02*
X20252771Y-7971428D01*
X20252771Y-7971428D02*
X20176580Y-7933333D01*
X20176580Y-7933333D02*
X20100390Y-7857143D01*
X20100390Y-7857143D02*
X20062295Y-7742857D01*
X20062295Y-7742857D02*
X20062295Y-7666666D01*
X20062295Y-7666666D02*
X20100390Y-7552381D01*
X20100390Y-7552381D02*
X20138485Y-7514285D01*
X20138485Y-7209524D02*
X20100390Y-7171428D01*
X20100390Y-7171428D02*
X20062295Y-7095238D01*
X20062295Y-7095238D02*
X20062295Y-6904762D01*
X20062295Y-6904762D02*
X20100390Y-6828571D01*
X20100390Y-6828571D02*
X20138485Y-6790476D01*
X20138485Y-6790476D02*
X20214676Y-6752381D01*
X20214676Y-6752381D02*
X20290866Y-6752381D01*
X20290866Y-6752381D02*
X20405152Y-6790476D01*
X20405152Y-6790476D02*
X20862295Y-7247619D01*
X20862295Y-7247619D02*
X20862295Y-6752381D01*
X20062295Y-6485714D02*
X20062295Y-5952380D01*
X20062295Y-5952380D02*
X20862295Y-6295238D01*
X22036104Y-23264285D02*
X22074200Y-23302381D01*
X22074200Y-23302381D02*
X22112295Y-23416666D01*
X22112295Y-23416666D02*
X22112295Y-23492857D01*
X22112295Y-23492857D02*
X22074200Y-23607143D01*
X22074200Y-23607143D02*
X21998009Y-23683333D01*
X21998009Y-23683333D02*
X21921819Y-23721428D01*
X21921819Y-23721428D02*
X21769438Y-23759524D01*
X21769438Y-23759524D02*
X21655152Y-23759524D01*
X21655152Y-23759524D02*
X21502771Y-23721428D01*
X21502771Y-23721428D02*
X21426580Y-23683333D01*
X21426580Y-23683333D02*
X21350390Y-23607143D01*
X21350390Y-23607143D02*
X21312295Y-23492857D01*
X21312295Y-23492857D02*
X21312295Y-23416666D01*
X21312295Y-23416666D02*
X21350390Y-23302381D01*
X21350390Y-23302381D02*
X21388485Y-23264285D01*
X21312295Y-22997619D02*
X21312295Y-22502381D01*
X21312295Y-22502381D02*
X21617057Y-22769047D01*
X21617057Y-22769047D02*
X21617057Y-22654762D01*
X21617057Y-22654762D02*
X21655152Y-22578571D01*
X21655152Y-22578571D02*
X21693247Y-22540476D01*
X21693247Y-22540476D02*
X21769438Y-22502381D01*
X21769438Y-22502381D02*
X21959914Y-22502381D01*
X21959914Y-22502381D02*
X22036104Y-22540476D01*
X22036104Y-22540476D02*
X22074200Y-22578571D01*
X22074200Y-22578571D02*
X22112295Y-22654762D01*
X22112295Y-22654762D02*
X22112295Y-22883333D01*
X22112295Y-22883333D02*
X22074200Y-22959524D01*
X22074200Y-22959524D02*
X22036104Y-22997619D01*
X22112295Y-22121428D02*
X22112295Y-21969047D01*
X22112295Y-21969047D02*
X22074200Y-21892857D01*
X22074200Y-21892857D02*
X22036104Y-21854761D01*
X22036104Y-21854761D02*
X21921819Y-21778571D01*
X21921819Y-21778571D02*
X21769438Y-21740476D01*
X21769438Y-21740476D02*
X21464676Y-21740476D01*
X21464676Y-21740476D02*
X21388485Y-21778571D01*
X21388485Y-21778571D02*
X21350390Y-21816666D01*
X21350390Y-21816666D02*
X21312295Y-21892857D01*
X21312295Y-21892857D02*
X21312295Y-22045238D01*
X21312295Y-22045238D02*
X21350390Y-22121428D01*
X21350390Y-22121428D02*
X21388485Y-22159523D01*
X21388485Y-22159523D02*
X21464676Y-22197619D01*
X21464676Y-22197619D02*
X21655152Y-22197619D01*
X21655152Y-22197619D02*
X21731342Y-22159523D01*
X21731342Y-22159523D02*
X21769438Y-22121428D01*
X21769438Y-22121428D02*
X21807533Y-22045238D01*
X21807533Y-22045238D02*
X21807533Y-21892857D01*
X21807533Y-21892857D02*
X21769438Y-21816666D01*
X21769438Y-21816666D02*
X21731342Y-21778571D01*
X21731342Y-21778571D02*
X21655152Y-21740476D01*
X-6971429Y-5362295D02*
X-6971429Y-4562295D01*
X-6971429Y-4562295D02*
X-6780953Y-4562295D01*
X-6780953Y-4562295D02*
X-6666667Y-4600390D01*
X-6666667Y-4600390D02*
X-6590477Y-4676580D01*
X-6590477Y-4676580D02*
X-6552382Y-4752771D01*
X-6552382Y-4752771D02*
X-6514286Y-4905152D01*
X-6514286Y-4905152D02*
X-6514286Y-5019438D01*
X-6514286Y-5019438D02*
X-6552382Y-5171819D01*
X-6552382Y-5171819D02*
X-6590477Y-5248009D01*
X-6590477Y-5248009D02*
X-6666667Y-5324200D01*
X-6666667Y-5324200D02*
X-6780953Y-5362295D01*
X-6780953Y-5362295D02*
X-6971429Y-5362295D01*
X-5752382Y-5362295D02*
X-6209525Y-5362295D01*
X-5980953Y-5362295D02*
X-5980953Y-4562295D01*
X-5980953Y-4562295D02*
X-6057144Y-4676580D01*
X-6057144Y-4676580D02*
X-6133334Y-4752771D01*
X-6133334Y-4752771D02*
X-6209525Y-4790866D01*
X-4990477Y-5362295D02*
X-5447620Y-5362295D01*
X-5219048Y-5362295D02*
X-5219048Y-4562295D01*
X-5219048Y-4562295D02*
X-5295239Y-4676580D01*
X-5295239Y-4676580D02*
X-5371429Y-4752771D01*
X-5371429Y-4752771D02*
X-5447620Y-4790866D01*
X25536104Y-25764285D02*
X25574200Y-25802381D01*
X25574200Y-25802381D02*
X25612295Y-25916666D01*
X25612295Y-25916666D02*
X25612295Y-25992857D01*
X25612295Y-25992857D02*
X25574200Y-26107143D01*
X25574200Y-26107143D02*
X25498009Y-26183333D01*
X25498009Y-26183333D02*
X25421819Y-26221428D01*
X25421819Y-26221428D02*
X25269438Y-26259524D01*
X25269438Y-26259524D02*
X25155152Y-26259524D01*
X25155152Y-26259524D02*
X25002771Y-26221428D01*
X25002771Y-26221428D02*
X24926580Y-26183333D01*
X24926580Y-26183333D02*
X24850390Y-26107143D01*
X24850390Y-26107143D02*
X24812295Y-25992857D01*
X24812295Y-25992857D02*
X24812295Y-25916666D01*
X24812295Y-25916666D02*
X24850390Y-25802381D01*
X24850390Y-25802381D02*
X24888485Y-25764285D01*
X24812295Y-25497619D02*
X24812295Y-25002381D01*
X24812295Y-25002381D02*
X25117057Y-25269047D01*
X25117057Y-25269047D02*
X25117057Y-25154762D01*
X25117057Y-25154762D02*
X25155152Y-25078571D01*
X25155152Y-25078571D02*
X25193247Y-25040476D01*
X25193247Y-25040476D02*
X25269438Y-25002381D01*
X25269438Y-25002381D02*
X25459914Y-25002381D01*
X25459914Y-25002381D02*
X25536104Y-25040476D01*
X25536104Y-25040476D02*
X25574200Y-25078571D01*
X25574200Y-25078571D02*
X25612295Y-25154762D01*
X25612295Y-25154762D02*
X25612295Y-25383333D01*
X25612295Y-25383333D02*
X25574200Y-25459524D01*
X25574200Y-25459524D02*
X25536104Y-25497619D01*
X24812295Y-24735714D02*
X24812295Y-24202380D01*
X24812295Y-24202380D02*
X25612295Y-24545238D01*
X-1766667Y-6812295D02*
X-1766667Y-7383723D01*
X-1766667Y-7383723D02*
X-1804762Y-7498009D01*
X-1804762Y-7498009D02*
X-1880953Y-7574200D01*
X-1880953Y-7574200D02*
X-1995238Y-7612295D01*
X-1995238Y-7612295D02*
X-2071429Y-7612295D01*
X-1042857Y-6812295D02*
X-1195238Y-6812295D01*
X-1195238Y-6812295D02*
X-1271429Y-6850390D01*
X-1271429Y-6850390D02*
X-1309524Y-6888485D01*
X-1309524Y-6888485D02*
X-1385714Y-7002771D01*
X-1385714Y-7002771D02*
X-1423810Y-7155152D01*
X-1423810Y-7155152D02*
X-1423810Y-7459914D01*
X-1423810Y-7459914D02*
X-1385714Y-7536104D01*
X-1385714Y-7536104D02*
X-1347619Y-7574200D01*
X-1347619Y-7574200D02*
X-1271429Y-7612295D01*
X-1271429Y-7612295D02*
X-1119048Y-7612295D01*
X-1119048Y-7612295D02*
X-1042857Y-7574200D01*
X-1042857Y-7574200D02*
X-1004762Y-7536104D01*
X-1004762Y-7536104D02*
X-966667Y-7459914D01*
X-966667Y-7459914D02*
X-966667Y-7269438D01*
X-966667Y-7269438D02*
X-1004762Y-7193247D01*
X-1004762Y-7193247D02*
X-1042857Y-7155152D01*
X-1042857Y-7155152D02*
X-1119048Y-7117057D01*
X-1119048Y-7117057D02*
X-1271429Y-7117057D01*
X-1271429Y-7117057D02*
X-1347619Y-7155152D01*
X-1347619Y-7155152D02*
X-1385714Y-7193247D01*
X-1385714Y-7193247D02*
X-1423810Y-7269438D01*
X38880163Y-25142527D02*
X38960975Y-24684591D01*
X38556914Y-24819278D02*
X39122600Y-24253593D01*
X39122600Y-24253593D02*
X39338099Y-24469092D01*
X39338099Y-24469092D02*
X39365036Y-24549904D01*
X39365036Y-24549904D02*
X39365036Y-24603779D01*
X39365036Y-24603779D02*
X39338099Y-24684591D01*
X39338099Y-24684591D02*
X39257287Y-24765403D01*
X39257287Y-24765403D02*
X39176474Y-24792341D01*
X39176474Y-24792341D02*
X39122600Y-24792341D01*
X39122600Y-24792341D02*
X39041787Y-24765403D01*
X39041787Y-24765403D02*
X38826288Y-24549904D01*
X39418911Y-25681275D02*
X39095662Y-25358026D01*
X39257287Y-25519650D02*
X39822972Y-24953965D01*
X39822972Y-24953965D02*
X39688285Y-24980902D01*
X39688285Y-24980902D02*
X39580535Y-24980902D01*
X39580535Y-24980902D02*
X39499723Y-24953965D01*
X39957659Y-26220023D02*
X39634410Y-25896774D01*
X39796035Y-26058399D02*
X40361720Y-25492713D01*
X40361720Y-25492713D02*
X40227033Y-25519651D01*
X40227033Y-25519651D02*
X40119284Y-25519651D01*
X40119284Y-25519651D02*
X40038471Y-25492713D01*
X17485714Y-12286104D02*
X17447618Y-12324200D01*
X17447618Y-12324200D02*
X17333333Y-12362295D01*
X17333333Y-12362295D02*
X17257142Y-12362295D01*
X17257142Y-12362295D02*
X17142856Y-12324200D01*
X17142856Y-12324200D02*
X17066666Y-12248009D01*
X17066666Y-12248009D02*
X17028571Y-12171819D01*
X17028571Y-12171819D02*
X16990475Y-12019438D01*
X16990475Y-12019438D02*
X16990475Y-11905152D01*
X16990475Y-11905152D02*
X17028571Y-11752771D01*
X17028571Y-11752771D02*
X17066666Y-11676580D01*
X17066666Y-11676580D02*
X17142856Y-11600390D01*
X17142856Y-11600390D02*
X17257142Y-11562295D01*
X17257142Y-11562295D02*
X17333333Y-11562295D01*
X17333333Y-11562295D02*
X17447618Y-11600390D01*
X17447618Y-11600390D02*
X17485714Y-11638485D01*
X17752380Y-11562295D02*
X18247618Y-11562295D01*
X18247618Y-11562295D02*
X17980952Y-11867057D01*
X17980952Y-11867057D02*
X18095237Y-11867057D01*
X18095237Y-11867057D02*
X18171428Y-11905152D01*
X18171428Y-11905152D02*
X18209523Y-11943247D01*
X18209523Y-11943247D02*
X18247618Y-12019438D01*
X18247618Y-12019438D02*
X18247618Y-12209914D01*
X18247618Y-12209914D02*
X18209523Y-12286104D01*
X18209523Y-12286104D02*
X18171428Y-12324200D01*
X18171428Y-12324200D02*
X18095237Y-12362295D01*
X18095237Y-12362295D02*
X17866666Y-12362295D01*
X17866666Y-12362295D02*
X17790475Y-12324200D01*
X17790475Y-12324200D02*
X17752380Y-12286104D01*
X19009523Y-12362295D02*
X18552380Y-12362295D01*
X18780952Y-12362295D02*
X18780952Y-11562295D01*
X18780952Y-11562295D02*
X18704761Y-11676580D01*
X18704761Y-11676580D02*
X18628571Y-11752771D01*
X18628571Y-11752771D02*
X18552380Y-11790866D01*
X48286104Y-15133332D02*
X48324200Y-15171428D01*
X48324200Y-15171428D02*
X48362295Y-15285713D01*
X48362295Y-15285713D02*
X48362295Y-15361904D01*
X48362295Y-15361904D02*
X48324200Y-15476190D01*
X48324200Y-15476190D02*
X48248009Y-15552380D01*
X48248009Y-15552380D02*
X48171819Y-15590475D01*
X48171819Y-15590475D02*
X48019438Y-15628571D01*
X48019438Y-15628571D02*
X47905152Y-15628571D01*
X47905152Y-15628571D02*
X47752771Y-15590475D01*
X47752771Y-15590475D02*
X47676580Y-15552380D01*
X47676580Y-15552380D02*
X47600390Y-15476190D01*
X47600390Y-15476190D02*
X47562295Y-15361904D01*
X47562295Y-15361904D02*
X47562295Y-15285713D01*
X47562295Y-15285713D02*
X47600390Y-15171428D01*
X47600390Y-15171428D02*
X47638485Y-15133332D01*
X47562295Y-14409523D02*
X47562295Y-14790475D01*
X47562295Y-14790475D02*
X47943247Y-14828571D01*
X47943247Y-14828571D02*
X47905152Y-14790475D01*
X47905152Y-14790475D02*
X47867057Y-14714285D01*
X47867057Y-14714285D02*
X47867057Y-14523809D01*
X47867057Y-14523809D02*
X47905152Y-14447618D01*
X47905152Y-14447618D02*
X47943247Y-14409523D01*
X47943247Y-14409523D02*
X48019438Y-14371428D01*
X48019438Y-14371428D02*
X48209914Y-14371428D01*
X48209914Y-14371428D02*
X48286104Y-14409523D01*
X48286104Y-14409523D02*
X48324200Y-14447618D01*
X48324200Y-14447618D02*
X48362295Y-14523809D01*
X48362295Y-14523809D02*
X48362295Y-14714285D01*
X48362295Y-14714285D02*
X48324200Y-14790475D01*
X48324200Y-14790475D02*
X48286104Y-14828571D01*
X55233333Y-23312295D02*
X55233333Y-23883723D01*
X55233333Y-23883723D02*
X55195238Y-23998009D01*
X55195238Y-23998009D02*
X55119047Y-24074200D01*
X55119047Y-24074200D02*
X55004762Y-24112295D01*
X55004762Y-24112295D02*
X54928571Y-24112295D01*
X55576190Y-23388485D02*
X55614286Y-23350390D01*
X55614286Y-23350390D02*
X55690476Y-23312295D01*
X55690476Y-23312295D02*
X55880952Y-23312295D01*
X55880952Y-23312295D02*
X55957143Y-23350390D01*
X55957143Y-23350390D02*
X55995238Y-23388485D01*
X55995238Y-23388485D02*
X56033333Y-23464676D01*
X56033333Y-23464676D02*
X56033333Y-23540866D01*
X56033333Y-23540866D02*
X55995238Y-23655152D01*
X55995238Y-23655152D02*
X55538095Y-24112295D01*
X55538095Y-24112295D02*
X56033333Y-24112295D01*
X17862295Y-6633332D02*
X17481342Y-6899999D01*
X17862295Y-7090475D02*
X17062295Y-7090475D01*
X17062295Y-7090475D02*
X17062295Y-6785713D01*
X17062295Y-6785713D02*
X17100390Y-6709523D01*
X17100390Y-6709523D02*
X17138485Y-6671428D01*
X17138485Y-6671428D02*
X17214676Y-6633332D01*
X17214676Y-6633332D02*
X17328961Y-6633332D01*
X17328961Y-6633332D02*
X17405152Y-6671428D01*
X17405152Y-6671428D02*
X17443247Y-6709523D01*
X17443247Y-6709523D02*
X17481342Y-6785713D01*
X17481342Y-6785713D02*
X17481342Y-7090475D01*
X17062295Y-6366666D02*
X17062295Y-5833332D01*
X17062295Y-5833332D02*
X17862295Y-6176190D01*
X24336104Y-25764285D02*
X24374200Y-25802381D01*
X24374200Y-25802381D02*
X24412295Y-25916666D01*
X24412295Y-25916666D02*
X24412295Y-25992857D01*
X24412295Y-25992857D02*
X24374200Y-26107143D01*
X24374200Y-26107143D02*
X24298009Y-26183333D01*
X24298009Y-26183333D02*
X24221819Y-26221428D01*
X24221819Y-26221428D02*
X24069438Y-26259524D01*
X24069438Y-26259524D02*
X23955152Y-26259524D01*
X23955152Y-26259524D02*
X23802771Y-26221428D01*
X23802771Y-26221428D02*
X23726580Y-26183333D01*
X23726580Y-26183333D02*
X23650390Y-26107143D01*
X23650390Y-26107143D02*
X23612295Y-25992857D01*
X23612295Y-25992857D02*
X23612295Y-25916666D01*
X23612295Y-25916666D02*
X23650390Y-25802381D01*
X23650390Y-25802381D02*
X23688485Y-25764285D01*
X23612295Y-25497619D02*
X23612295Y-25002381D01*
X23612295Y-25002381D02*
X23917057Y-25269047D01*
X23917057Y-25269047D02*
X23917057Y-25154762D01*
X23917057Y-25154762D02*
X23955152Y-25078571D01*
X23955152Y-25078571D02*
X23993247Y-25040476D01*
X23993247Y-25040476D02*
X24069438Y-25002381D01*
X24069438Y-25002381D02*
X24259914Y-25002381D01*
X24259914Y-25002381D02*
X24336104Y-25040476D01*
X24336104Y-25040476D02*
X24374200Y-25078571D01*
X24374200Y-25078571D02*
X24412295Y-25154762D01*
X24412295Y-25154762D02*
X24412295Y-25383333D01*
X24412295Y-25383333D02*
X24374200Y-25459524D01*
X24374200Y-25459524D02*
X24336104Y-25497619D01*
X23955152Y-24545238D02*
X23917057Y-24621428D01*
X23917057Y-24621428D02*
X23878961Y-24659523D01*
X23878961Y-24659523D02*
X23802771Y-24697619D01*
X23802771Y-24697619D02*
X23764676Y-24697619D01*
X23764676Y-24697619D02*
X23688485Y-24659523D01*
X23688485Y-24659523D02*
X23650390Y-24621428D01*
X23650390Y-24621428D02*
X23612295Y-24545238D01*
X23612295Y-24545238D02*
X23612295Y-24392857D01*
X23612295Y-24392857D02*
X23650390Y-24316666D01*
X23650390Y-24316666D02*
X23688485Y-24278571D01*
X23688485Y-24278571D02*
X23764676Y-24240476D01*
X23764676Y-24240476D02*
X23802771Y-24240476D01*
X23802771Y-24240476D02*
X23878961Y-24278571D01*
X23878961Y-24278571D02*
X23917057Y-24316666D01*
X23917057Y-24316666D02*
X23955152Y-24392857D01*
X23955152Y-24392857D02*
X23955152Y-24545238D01*
X23955152Y-24545238D02*
X23993247Y-24621428D01*
X23993247Y-24621428D02*
X24031342Y-24659523D01*
X24031342Y-24659523D02*
X24107533Y-24697619D01*
X24107533Y-24697619D02*
X24259914Y-24697619D01*
X24259914Y-24697619D02*
X24336104Y-24659523D01*
X24336104Y-24659523D02*
X24374200Y-24621428D01*
X24374200Y-24621428D02*
X24412295Y-24545238D01*
X24412295Y-24545238D02*
X24412295Y-24392857D01*
X24412295Y-24392857D02*
X24374200Y-24316666D01*
X24374200Y-24316666D02*
X24336104Y-24278571D01*
X24336104Y-24278571D02*
X24259914Y-24240476D01*
X24259914Y-24240476D02*
X24107533Y-24240476D01*
X24107533Y-24240476D02*
X24031342Y-24278571D01*
X24031342Y-24278571D02*
X23993247Y-24316666D01*
X23993247Y-24316666D02*
X23955152Y-24392857D01*
D11*
%TO.C,Y1*%
X21050000Y-6300000D02*
X26800000Y-6300000D01*
X26800000Y-2700000D02*
X21050000Y-2700000D01*
X26800000Y-6300000D02*
X26800000Y-2700000D01*
%TO.C,C2*%
X27490000Y-4359420D02*
X27490000Y-4640580D01*
X28510000Y-4359420D02*
X28510000Y-4640580D01*
%TO.C,C3*%
X18990000Y-4359420D02*
X18990000Y-4640580D01*
X20010000Y-4359420D02*
X20010000Y-4640580D01*
%TO.C,C7*%
X31859420Y-13990000D02*
X32140580Y-13990000D01*
X31859420Y-15010000D02*
X32140580Y-15010000D01*
%TO.C,C8*%
X31859420Y-10490000D02*
X32140580Y-10490000D01*
X31859420Y-11510000D02*
X32140580Y-11510000D01*
%TO.C,C9*%
X24240000Y-9390580D02*
X24240000Y-9109420D01*
X25260000Y-9390580D02*
X25260000Y-9109420D01*
%TO.C,C10*%
X22240000Y-9390580D02*
X22240000Y-9109420D01*
X23260000Y-9390580D02*
X23260000Y-9109420D01*
%TO.C,C15*%
X43211252Y-2840000D02*
X41788748Y-2840000D01*
X43211252Y-4660000D02*
X41788748Y-4660000D01*
%TO.C,C16*%
X45340000Y-4961252D02*
X45340000Y-3538748D01*
X47160000Y-4961252D02*
X47160000Y-3538748D01*
%TO.C,C17*%
X17140580Y-20240000D02*
X16859420Y-20240000D01*
X17140580Y-21260000D02*
X16859420Y-21260000D01*
%TO.C,C18*%
X9609420Y-5990000D02*
X9890580Y-5990000D01*
X9609420Y-7010000D02*
X9890580Y-7010000D01*
%TO.C,C20*%
X31859420Y-12240000D02*
X32140580Y-12240000D01*
X31859420Y-13260000D02*
X32140580Y-13260000D01*
%TO.C,C21*%
X9609420Y-22990000D02*
X9890580Y-22990000D01*
X9609420Y-24010000D02*
X9890580Y-24010000D01*
D12*
%TO.C,D1*%
X8899420Y-548900D02*
X8899420Y-5451100D01*
X8899420Y-1699520D02*
X8000260Y-1699520D01*
X8899420Y-4300480D02*
X8000260Y-4300480D01*
X8899420Y-5451100D02*
X13100580Y-5451100D01*
D13*
X12198880Y-3899160D02*
X12198880Y-4699260D01*
X12600200Y-1699520D02*
X11800100Y-1699520D01*
X12600200Y-4297940D02*
X11800100Y-4297940D01*
D12*
X13100580Y-548900D02*
X8899420Y-548900D01*
X13100580Y-1699520D02*
X13999740Y-1699520D01*
X13100580Y-4300480D02*
X13999740Y-4300480D01*
X13100580Y-5451100D02*
X13100580Y-548900D01*
D13*
X9600460Y-2098300D02*
G75*
G02*
X9201680Y-1699520I0J398780D01*
G01*
X9600460Y-4699260D02*
G75*
G02*
X9201680Y-4300480I0J398780D01*
G01*
X9999240Y-1699520D02*
G75*
G02*
X9600460Y-2098300I-398780J0D01*
G01*
X9999240Y-1699520D02*
G75*
G02*
X10400560Y-1298200I401320J0D01*
G01*
X9999240Y-4300480D02*
G75*
G02*
X9600460Y-4699260I-398780J0D01*
G01*
X9999240Y-4300480D02*
G75*
G02*
X10400560Y-3899160I401320J0D01*
G01*
X10400560Y-1298200D02*
G75*
G02*
X10801880Y-1699520I0J-401320D01*
G01*
X10400560Y-3899160D02*
G75*
G02*
X10801880Y-4300480I0J-401320D01*
G01*
D12*
%TO.C,D2*%
X9649420Y-24548900D02*
X9649420Y-29451100D01*
X9649420Y-25699520D02*
X8750260Y-25699520D01*
X9649420Y-28300480D02*
X8750260Y-28300480D01*
X9649420Y-29451100D02*
X13850580Y-29451100D01*
D13*
X12948880Y-27899160D02*
X12948880Y-28699260D01*
X13350200Y-25699520D02*
X12550100Y-25699520D01*
X13350200Y-28297940D02*
X12550100Y-28297940D01*
D12*
X13850580Y-24548900D02*
X9649420Y-24548900D01*
X13850580Y-25699520D02*
X14749740Y-25699520D01*
X13850580Y-28300480D02*
X14749740Y-28300480D01*
X13850580Y-29451100D02*
X13850580Y-24548900D01*
D13*
X10350460Y-26098300D02*
G75*
G02*
X9951680Y-25699520I0J398780D01*
G01*
X10350460Y-28699260D02*
G75*
G02*
X9951680Y-28300480I0J398780D01*
G01*
X10749240Y-25699520D02*
G75*
G02*
X10350460Y-26098300I-398780J0D01*
G01*
X10749240Y-25699520D02*
G75*
G02*
X11150560Y-25298200I401320J0D01*
G01*
X10749240Y-28300480D02*
G75*
G02*
X10350460Y-28699260I-398780J0D01*
G01*
X10749240Y-28300480D02*
G75*
G02*
X11150560Y-27899160I401320J0D01*
G01*
X11150560Y-25298200D02*
G75*
G02*
X11551880Y-25699520I0J-401320D01*
G01*
X11150560Y-27899160D02*
G75*
G02*
X11551880Y-28300480I0J-401320D01*
G01*
D11*
%TO.C,U1*%
X30940000Y-4250000D02*
X30940000Y-2300000D01*
X30940000Y-4250000D02*
X30940000Y-6200000D01*
X36060000Y-4250000D02*
X36060000Y-2300000D01*
X36060000Y-4250000D02*
X36060000Y-6200000D01*
X31035000Y-6950000D02*
X30705000Y-7190000D01*
X30705000Y-6710000D01*
X31035000Y-6950000D01*
G36*
X31035000Y-6950000D02*
G01*
X30705000Y-7190000D01*
X30705000Y-6710000D01*
X31035000Y-6950000D01*
G37*
%TO.C,Q2*%
X51500000Y-18940000D02*
X50700000Y-18940000D01*
X51500000Y-18940000D02*
X52300000Y-18940000D01*
X51500000Y-22060000D02*
X50700000Y-22060000D01*
X51500000Y-22060000D02*
X53300000Y-22060000D01*
%TO.C,Q3*%
X53940000Y-20500000D02*
X53940000Y-19850000D01*
X53940000Y-20500000D02*
X53940000Y-22175000D01*
X57060000Y-20500000D02*
X57060000Y-19850000D01*
X57060000Y-20500000D02*
X57060000Y-21150000D01*
%TO.C,R3*%
X16262742Y-23727500D02*
X16737258Y-23727500D01*
X16262742Y-24772500D02*
X16737258Y-24772500D01*
%TO.C,R13*%
X55977500Y-3737258D02*
X55977500Y-3262742D01*
X57022500Y-3737258D02*
X57022500Y-3262742D01*
%TO.C,R15*%
X47977500Y-20262742D02*
X47977500Y-20737258D01*
X49022500Y-20262742D02*
X49022500Y-20737258D01*
%TO.C,R18*%
X38962770Y-21798303D02*
X39298303Y-21462770D01*
X39701697Y-22537230D02*
X40037230Y-22201697D01*
%TO.C,R19*%
X46227500Y-20262742D02*
X46227500Y-20737258D01*
X47272500Y-20262742D02*
X47272500Y-20737258D01*
%TO.C,R20*%
X41462770Y-21548303D02*
X41798303Y-21212770D01*
X42201697Y-22287230D02*
X42537230Y-21951697D01*
%TO.C,R21*%
X16762742Y-21977500D02*
X17237258Y-21977500D01*
X16762742Y-23022500D02*
X17237258Y-23022500D01*
%TO.C,R22*%
X29237258Y-7977500D02*
X28762742Y-7977500D01*
X29237258Y-9022500D02*
X28762742Y-9022500D01*
%TO.C,R23*%
X33977500Y-11512742D02*
X33977500Y-11987258D01*
X35022500Y-11512742D02*
X35022500Y-11987258D01*
%TO.C,D3*%
X36600000Y-7510000D02*
X36600000Y-2000000D01*
X36600000Y-7510000D02*
X39900000Y-7510000D01*
X39900000Y-7510000D02*
X39900000Y-2000000D01*
%TO.C,C28*%
X29490000Y-16859420D02*
X29490000Y-17140580D01*
X30510000Y-16859420D02*
X30510000Y-17140580D01*
%TO.C,C11*%
X15990000Y-7859420D02*
X15990000Y-8140580D01*
X17010000Y-7859420D02*
X17010000Y-8140580D01*
%TO.C,R4*%
X55737258Y-13227500D02*
X55262742Y-13227500D01*
X55737258Y-14272500D02*
X55262742Y-14272500D01*
%TO.C,C42*%
X25990000Y-20109420D02*
X25990000Y-20390580D01*
X27010000Y-20109420D02*
X27010000Y-20390580D01*
%TO.C,R2*%
X55262742Y-9227500D02*
X55737258Y-9227500D01*
X55262742Y-10272500D02*
X55737258Y-10272500D01*
%TO.C,R8*%
X51737258Y-27727500D02*
X51262742Y-27727500D01*
X51737258Y-28772500D02*
X51262742Y-28772500D01*
%TO.C,C29*%
X27740000Y-20109420D02*
X27740000Y-20390580D01*
X28760000Y-20109420D02*
X28760000Y-20390580D01*
%TO.C,C35*%
X31240000Y-16859420D02*
X31240000Y-17140580D01*
X32260000Y-16859420D02*
X32260000Y-17140580D01*
%TO.C,F2*%
X14840000Y-4602064D02*
X14840000Y-3397936D01*
X16660000Y-4602064D02*
X16660000Y-3397936D01*
%TO.C,C26*%
X18740000Y-9390580D02*
X18740000Y-9109420D01*
X19760000Y-9390580D02*
X19760000Y-9109420D01*
%TO.C,D4*%
X-10235000Y-24015000D02*
X-10235000Y-25485000D01*
X-10235000Y-25485000D02*
X-7950000Y-25485000D01*
X-7950000Y-24015000D02*
X-10235000Y-24015000D01*
%TO.C,F1*%
X48750000Y-6402064D02*
X48750000Y-3597936D01*
X53250000Y-6402064D02*
X53250000Y-3597936D01*
D13*
%TO.C,U2*%
X49250000Y-9750000D02*
X49330000Y-9750000D01*
X49250000Y-10255000D02*
X49250000Y-9750000D01*
X49250000Y-12750000D02*
X49250000Y-12245000D01*
X49330000Y-12750000D02*
X49250000Y-12750000D01*
X51670000Y-9750000D02*
X51750000Y-9750000D01*
X51670000Y-12750000D02*
X51750000Y-12750000D01*
X51750000Y-9750000D02*
X51750000Y-10055000D01*
X51750000Y-12750000D02*
X51750000Y-12445000D01*
D14*
X52600000Y-12400000D02*
G75*
G02*
X52400000Y-12400000I-100000J0D01*
G01*
X52400000Y-12400000D02*
G75*
G02*
X52600000Y-12400000I100000J0D01*
G01*
D11*
%TO.C,TR1*%
X5840000Y-7340000D02*
X5840000Y-8905000D01*
X5840000Y-22660000D02*
X5840000Y-21095000D01*
X9500000Y-7340000D02*
X5840000Y-7340000D01*
X9500000Y-7340000D02*
X13160000Y-7340000D01*
X9500000Y-22660000D02*
X5840000Y-22660000D01*
X9500000Y-22660000D02*
X13160000Y-22660000D01*
X13160000Y-7340000D02*
X13160000Y-8905000D01*
X13160000Y-22660000D02*
X13160000Y-21095000D01*
X14365000Y-21425000D02*
X13885000Y-21425000D01*
X14125000Y-21095000D01*
X14365000Y-21425000D01*
G36*
X14365000Y-21425000D02*
G01*
X13885000Y-21425000D01*
X14125000Y-21095000D01*
X14365000Y-21425000D01*
G37*
%TO.C,C34*%
X27740000Y-16859420D02*
X27740000Y-17140580D01*
X28760000Y-16859420D02*
X28760000Y-17140580D01*
%TO.C,IC1*%
X21140000Y-12565000D02*
X21140000Y-12380000D01*
X21140000Y-17360000D02*
X21140000Y-16935000D01*
X21565000Y-12140000D02*
X21440000Y-12140000D01*
X21565000Y-17360000D02*
X21140000Y-17360000D01*
X25935000Y-12140000D02*
X26360000Y-12140000D01*
X25935000Y-17360000D02*
X26360000Y-17360000D01*
X26360000Y-12140000D02*
X26360000Y-12565000D01*
X26360000Y-17360000D02*
X26360000Y-16935000D01*
X21140000Y-12140000D02*
X20900000Y-11810000D01*
X21380000Y-11810000D01*
X21140000Y-12140000D01*
G36*
X21140000Y-12140000D02*
G01*
X20900000Y-11810000D01*
X21380000Y-11810000D01*
X21140000Y-12140000D01*
G37*
%TO.C,R5*%
X55737258Y-15227500D02*
X55262742Y-15227500D01*
X55737258Y-16272500D02*
X55262742Y-16272500D01*
%TO.C,C41*%
X22240000Y-20109420D02*
X22240000Y-20390580D01*
X23260000Y-20109420D02*
X23260000Y-20390580D01*
%TO.C,C12*%
X45515000Y-13511252D02*
X45515000Y-12988748D01*
X46985000Y-13511252D02*
X46985000Y-12988748D01*
%TO.C,L3*%
X27890000Y-11238748D02*
X27890000Y-11761252D01*
X30110000Y-11238748D02*
X30110000Y-11761252D01*
%TO.C,C25*%
X25990000Y-9390580D02*
X25990000Y-9109420D01*
X27010000Y-9390580D02*
X27010000Y-9109420D01*
%TO.C,C44*%
X390580Y-14240000D02*
X109420Y-14240000D01*
X390580Y-15260000D02*
X109420Y-15260000D01*
%TO.C,L1*%
X39490000Y-8990000D02*
X39640000Y-8990000D01*
X39490000Y-13510000D02*
X39490000Y-8990000D01*
X39490000Y-13510000D02*
X39640000Y-13510000D01*
X44010000Y-8990000D02*
X43860000Y-8990000D01*
X44010000Y-13510000D02*
X43860000Y-13510000D01*
X44010000Y-13510000D02*
X44010000Y-8990000D01*
%TO.C,R9*%
X-3262742Y-4477500D02*
X-3737258Y-4477500D01*
X-3262742Y-5522500D02*
X-3737258Y-5522500D01*
%TO.C,C1*%
X28859420Y-13990000D02*
X29140580Y-13990000D01*
X28859420Y-15010000D02*
X29140580Y-15010000D01*
%TO.C,C4*%
X55359420Y-11240000D02*
X55640580Y-11240000D01*
X55359420Y-12260000D02*
X55640580Y-12260000D01*
%TO.C,C36*%
X18390580Y-15740000D02*
X18109420Y-15740000D01*
X18390580Y-16760000D02*
X18109420Y-16760000D01*
%TO.C,C45*%
X1390580Y-16990000D02*
X1109420Y-16990000D01*
X1390580Y-18010000D02*
X1109420Y-18010000D01*
%TO.C,C33*%
X31240000Y-20109420D02*
X31240000Y-20390580D01*
X32260000Y-20109420D02*
X32260000Y-20390580D01*
%TO.C,D5*%
X54015000Y-2700000D02*
X54015000Y-4985000D01*
X54015000Y-4985000D02*
X55485000Y-4985000D01*
X55485000Y-4985000D02*
X55485000Y-2700000D01*
%TO.C,C13*%
X45515000Y-8988748D02*
X45515000Y-9511252D01*
X46985000Y-8988748D02*
X46985000Y-9511252D01*
%TO.C,C6*%
X50288748Y-16490000D02*
X51711252Y-16490000D01*
X50288748Y-18310000D02*
X51711252Y-18310000D01*
%TO.C,C43*%
X390580Y-10990000D02*
X109420Y-10990000D01*
X390580Y-12010000D02*
X109420Y-12010000D01*
%TO.C,C30*%
X18990000Y-20109420D02*
X18990000Y-20390580D01*
X20010000Y-20109420D02*
X20010000Y-20390580D01*
%TO.C,R1*%
X55262742Y-7227500D02*
X55737258Y-7227500D01*
X55262742Y-8272500D02*
X55737258Y-8272500D01*
%TO.C,C46*%
X1390580Y-19990000D02*
X1109420Y-19990000D01*
X1390580Y-21010000D02*
X1109420Y-21010000D01*
%TO.C,C32*%
X29490000Y-20109420D02*
X29490000Y-20390580D01*
X30510000Y-20109420D02*
X30510000Y-20390580D01*
%TO.C,C14*%
X43211252Y-5840000D02*
X41788748Y-5840000D01*
X43211252Y-7660000D02*
X41788748Y-7660000D01*
%TO.C,D10*%
X53265000Y-27515000D02*
X53265000Y-28985000D01*
X53265000Y-28985000D02*
X55550000Y-28985000D01*
X55550000Y-27515000D02*
X53265000Y-27515000D01*
%TO.C,R12*%
X41798303Y-23537230D02*
X41462770Y-23201697D01*
X42537230Y-22798303D02*
X42201697Y-22462770D01*
%TO.C,C27*%
X20490000Y-9390580D02*
X20490000Y-9109420D01*
X21510000Y-9390580D02*
X21510000Y-9109420D01*
%TO.C,D11*%
X-10235000Y-4265000D02*
X-10235000Y-5735000D01*
X-10235000Y-5735000D02*
X-7950000Y-5735000D01*
X-7950000Y-4265000D02*
X-10235000Y-4265000D01*
%TO.C,J6*%
X-11580000Y-6740000D02*
X-2380000Y-6740000D01*
X-7530000Y-11440000D02*
X-7030000Y-10940000D01*
X-7080000Y-8990000D02*
X-6580000Y-9490000D01*
X-7080000Y-9490000D02*
X-6580000Y-9490000D01*
X-7080000Y-20490000D02*
X-6580000Y-20990000D01*
X-7080000Y-20990000D02*
X-6580000Y-20990000D01*
X-7030000Y-10940000D02*
X-7030000Y-11940000D01*
X-7030000Y-11940000D02*
X-7530000Y-11440000D01*
X-6580000Y-8990000D02*
X-6580000Y-8240000D01*
X-6580000Y-9490000D02*
X-6080000Y-8990000D01*
X-6580000Y-10240000D02*
X-6580000Y-9490000D01*
X-6580000Y-20490000D02*
X-6580000Y-19740000D01*
X-6580000Y-20990000D02*
X-6080000Y-20490000D01*
X-6580000Y-21740000D02*
X-6580000Y-20990000D01*
X-6080000Y-8990000D02*
X-7080000Y-8990000D01*
X-6080000Y-9490000D02*
X-7080000Y-9490000D01*
X-6080000Y-20490000D02*
X-7080000Y-20490000D01*
X-6080000Y-20990000D02*
X-7080000Y-20990000D01*
X-2380000Y-6740000D02*
X-2380000Y-23240000D01*
X-2380000Y-23240000D02*
X-11580000Y-23240000D01*
%TO.C,R11*%
X39298303Y-23787230D02*
X38962770Y-23451697D01*
X40037230Y-23048303D02*
X39701697Y-22712770D01*
%TO.C,C31*%
X18390580Y-12740000D02*
X18109420Y-12740000D01*
X18390580Y-13760000D02*
X18109420Y-13760000D01*
%TO.C,C5*%
X50288748Y-14090000D02*
X51711252Y-14090000D01*
X50288748Y-15910000D02*
X51711252Y-15910000D01*
%TO.C,R7*%
X17227500Y-4262742D02*
X17227500Y-4737258D01*
X18272500Y-4262742D02*
X18272500Y-4737258D01*
%TD*%
M02*
