%TF.GenerationSoftware,KiCad,Pcbnew,8.0.7*%
%TF.CreationDate,2024-12-30T22:20:21-08:00*%
%TF.ProjectId,pizero-papoe,70697a65-726f-42d7-9061-706f652e6b69,0.1*%
%TF.SameCoordinates,PX652f520PY4a19ba0*%
%TF.FileFunction,Copper,L1,Top*%
%TF.FilePolarity,Positive*%
%FSLAX46Y46*%
G04 Gerber Fmt 4.6, Leading zero omitted, Abs format (unit mm)*
G04 Created by KiCad (PCBNEW 8.0.7) date 2024-12-30 22:20:21*
%MOMM*%
%LPD*%
G01*
G04 APERTURE LIST*
G04 Aperture macros list*
%AMRoundRect*
0 Rectangle with rounded corners*
0 $1 Rounding radius*
0 $2 $3 $4 $5 $6 $7 $8 $9 X,Y pos of 4 corners*
0 Add a 4 corners polygon primitive as box body*
4,1,4,$2,$3,$4,$5,$6,$7,$8,$9,$2,$3,0*
0 Add four circle primitives for the rounded corners*
1,1,$1+$1,$2,$3*
1,1,$1+$1,$4,$5*
1,1,$1+$1,$6,$7*
1,1,$1+$1,$8,$9*
0 Add four rect primitives between the rounded corners*
20,1,$1+$1,$2,$3,$4,$5,0*
20,1,$1+$1,$4,$5,$6,$7,0*
20,1,$1+$1,$6,$7,$8,$9,0*
20,1,$1+$1,$8,$9,$2,$3,0*%
G04 Aperture macros list end*
%ADD10C,0.203200*%
%TA.AperFunction,NonConductor*%
%ADD11C,0.203200*%
%TD*%
%TA.AperFunction,SMDPad,CuDef*%
%ADD12R,2.000000X2.400000*%
%TD*%
%TA.AperFunction,SMDPad,CuDef*%
%ADD13RoundRect,0.225000X-0.250000X0.225000X-0.250000X-0.225000X0.250000X-0.225000X0.250000X0.225000X0*%
%TD*%
%TA.AperFunction,SMDPad,CuDef*%
%ADD14RoundRect,0.225000X-0.225000X-0.250000X0.225000X-0.250000X0.225000X0.250000X-0.225000X0.250000X0*%
%TD*%
%TA.AperFunction,SMDPad,CuDef*%
%ADD15RoundRect,0.225000X0.250000X-0.225000X0.250000X0.225000X-0.250000X0.225000X-0.250000X-0.225000X0*%
%TD*%
%TA.AperFunction,SMDPad,CuDef*%
%ADD16RoundRect,0.250000X0.325000X0.650000X-0.325000X0.650000X-0.325000X-0.650000X0.325000X-0.650000X0*%
%TD*%
%TA.AperFunction,SMDPad,CuDef*%
%ADD17RoundRect,0.250000X0.650000X-0.325000X0.650000X0.325000X-0.650000X0.325000X-0.650000X-0.325000X0*%
%TD*%
%TA.AperFunction,SMDPad,CuDef*%
%ADD18RoundRect,0.225000X0.225000X0.250000X-0.225000X0.250000X-0.225000X-0.250000X0.225000X-0.250000X0*%
%TD*%
%TA.AperFunction,SMDPad,CuDef*%
%ADD19R,1.198880X0.800100*%
%TD*%
%TA.AperFunction,SMDPad,CuDef*%
%ADD20RoundRect,0.150000X0.150000X-0.825000X0.150000X0.825000X-0.150000X0.825000X-0.150000X-0.825000X0*%
%TD*%
%TA.AperFunction,SMDPad,CuDef*%
%ADD21RoundRect,0.150000X0.512500X0.150000X-0.512500X0.150000X-0.512500X-0.150000X0.512500X-0.150000X0*%
%TD*%
%TA.AperFunction,SMDPad,CuDef*%
%ADD22RoundRect,0.150000X0.150000X-0.587500X0.150000X0.587500X-0.150000X0.587500X-0.150000X-0.587500X0*%
%TD*%
%TA.AperFunction,SMDPad,CuDef*%
%ADD23RoundRect,0.200000X-0.200000X-0.275000X0.200000X-0.275000X0.200000X0.275000X-0.200000X0.275000X0*%
%TD*%
%TA.AperFunction,SMDPad,CuDef*%
%ADD24RoundRect,0.200000X0.275000X-0.200000X0.275000X0.200000X-0.275000X0.200000X-0.275000X-0.200000X0*%
%TD*%
%TA.AperFunction,SMDPad,CuDef*%
%ADD25RoundRect,0.200000X-0.275000X0.200000X-0.275000X-0.200000X0.275000X-0.200000X0.275000X0.200000X0*%
%TD*%
%TA.AperFunction,SMDPad,CuDef*%
%ADD26RoundRect,0.200000X-0.053033X0.335876X-0.335876X0.053033X0.053033X-0.335876X0.335876X-0.053033X0*%
%TD*%
%TA.AperFunction,SMDPad,CuDef*%
%ADD27RoundRect,0.200000X0.200000X0.275000X-0.200000X0.275000X-0.200000X-0.275000X0.200000X-0.275000X0*%
%TD*%
%TA.AperFunction,SMDPad,CuDef*%
%ADD28RoundRect,0.250000X-1.000000X-0.650000X1.000000X-0.650000X1.000000X0.650000X-1.000000X0.650000X0*%
%TD*%
%TA.AperFunction,WasherPad*%
%ADD29C,6.000000*%
%TD*%
%TA.AperFunction,ComponentPad*%
%ADD30C,1.700000*%
%TD*%
%TA.AperFunction,SMDPad,CuDef*%
%ADD31RoundRect,0.218750X-0.218750X-0.256250X0.218750X-0.256250X0.218750X0.256250X-0.218750X0.256250X0*%
%TD*%
%TA.AperFunction,SMDPad,CuDef*%
%ADD32RoundRect,0.250000X1.875000X-0.425000X1.875000X0.425000X-1.875000X0.425000X-1.875000X-0.425000X0*%
%TD*%
%TA.AperFunction,SMDPad,CuDef*%
%ADD33RoundRect,0.006250X0.293750X0.118750X-0.293750X0.118750X-0.293750X-0.118750X0.293750X-0.118750X0*%
%TD*%
%TA.AperFunction,SMDPad,CuDef*%
%ADD34RoundRect,0.006250X0.118750X0.293750X-0.118750X0.293750X-0.118750X-0.293750X0.118750X-0.293750X0*%
%TD*%
%TA.AperFunction,SMDPad,CuDef*%
%ADD35RoundRect,0.017500X0.407500X0.332500X-0.407500X0.332500X-0.407500X-0.332500X0.407500X-0.332500X0*%
%TD*%
%TA.AperFunction,SMDPad,CuDef*%
%ADD36RoundRect,0.008750X0.716250X0.166250X-0.716250X0.166250X-0.716250X-0.166250X0.716250X-0.166250X0*%
%TD*%
%TA.AperFunction,SMDPad,CuDef*%
%ADD37RoundRect,0.008750X0.891250X0.166250X-0.891250X0.166250X-0.891250X-0.166250X0.891250X-0.166250X0*%
%TD*%
%TA.AperFunction,SMDPad,CuDef*%
%ADD38RoundRect,0.195000X0.805000X0.195000X-0.805000X0.195000X-0.805000X-0.195000X0.805000X-0.195000X0*%
%TD*%
%TA.AperFunction,SMDPad,CuDef*%
%ADD39RoundRect,0.062500X-0.350000X-0.062500X0.350000X-0.062500X0.350000X0.062500X-0.350000X0.062500X0*%
%TD*%
%TA.AperFunction,SMDPad,CuDef*%
%ADD40RoundRect,0.062500X-0.062500X-0.350000X0.062500X-0.350000X0.062500X0.350000X-0.062500X0.350000X0*%
%TD*%
%TA.AperFunction,HeatsinkPad*%
%ADD41C,0.500000*%
%TD*%
%TA.AperFunction,HeatsinkPad*%
%ADD42R,3.600000X3.600000*%
%TD*%
%TA.AperFunction,SMDPad,CuDef*%
%ADD43RoundRect,0.100000X-0.100000X0.130000X-0.100000X-0.130000X0.100000X-0.130000X0.100000X0.130000X0*%
%TD*%
%TA.AperFunction,SMDPad,CuDef*%
%ADD44RoundRect,0.250000X0.475000X-0.250000X0.475000X0.250000X-0.475000X0.250000X-0.475000X-0.250000X0*%
%TD*%
%TA.AperFunction,SMDPad,CuDef*%
%ADD45R,3.700000X1.100000*%
%TD*%
%TA.AperFunction,SMDPad,CuDef*%
%ADD46RoundRect,0.218750X0.256250X-0.218750X0.256250X0.218750X-0.256250X0.218750X-0.256250X-0.218750X0*%
%TD*%
%TA.AperFunction,SMDPad,CuDef*%
%ADD47RoundRect,0.250000X-0.475000X0.250000X-0.475000X-0.250000X0.475000X-0.250000X0.475000X0.250000X0*%
%TD*%
%TA.AperFunction,SMDPad,CuDef*%
%ADD48RoundRect,0.250000X-0.325000X-0.650000X0.325000X-0.650000X0.325000X0.650000X-0.325000X0.650000X0*%
%TD*%
%TA.AperFunction,SMDPad,CuDef*%
%ADD49RoundRect,0.200000X0.335876X0.053033X0.053033X0.335876X-0.335876X-0.053033X-0.053033X-0.335876X0*%
%TD*%
%TA.AperFunction,ComponentPad*%
%ADD50RoundRect,0.250000X-0.500000X0.500000X-0.500000X-0.500000X0.500000X-0.500000X0.500000X0.500000X0*%
%TD*%
%TA.AperFunction,ComponentPad*%
%ADD51C,1.500000*%
%TD*%
%TA.AperFunction,ComponentPad*%
%ADD52O,2.800000X1.600000*%
%TD*%
%TA.AperFunction,ComponentPad*%
%ADD53R,2.000000X2.000000*%
%TD*%
%TA.AperFunction,ComponentPad*%
%ADD54C,2.000000*%
%TD*%
%TA.AperFunction,ComponentPad*%
%ADD55O,2.030000X1.000000*%
%TD*%
%TA.AperFunction,SMDPad,CuDef*%
%ADD56RoundRect,0.250000X-0.850000X0.375000X-0.850000X-0.375000X0.850000X-0.375000X0.850000X0.375000X0*%
%TD*%
%TA.AperFunction,ViaPad*%
%ADD57C,0.609600*%
%TD*%
%TA.AperFunction,Conductor*%
%ADD58C,0.152400*%
%TD*%
%TA.AperFunction,Conductor*%
%ADD59C,0.254000*%
%TD*%
%TA.AperFunction,Conductor*%
%ADD60C,0.600000*%
%TD*%
%TA.AperFunction,Conductor*%
%ADD61C,0.151130*%
%TD*%
%TA.AperFunction,Conductor*%
%ADD62C,0.508000*%
%TD*%
%TA.AperFunction,Conductor*%
%ADD63C,0.129032*%
%TD*%
G04 APERTURE END LIST*
D10*
D11*
X27580951Y-25698434D02*
X27580951Y-24848434D01*
X27580951Y-24848434D02*
X27904761Y-24848434D01*
X27904761Y-24848434D02*
X27985713Y-24888910D01*
X27985713Y-24888910D02*
X28026190Y-24929386D01*
X28026190Y-24929386D02*
X28066666Y-25010338D01*
X28066666Y-25010338D02*
X28066666Y-25131767D01*
X28066666Y-25131767D02*
X28026190Y-25212719D01*
X28026190Y-25212719D02*
X27985713Y-25253196D01*
X27985713Y-25253196D02*
X27904761Y-25293672D01*
X27904761Y-25293672D02*
X27580951Y-25293672D01*
X28430951Y-25698434D02*
X28430951Y-25131767D01*
X28430951Y-24848434D02*
X28390475Y-24888910D01*
X28390475Y-24888910D02*
X28430951Y-24929386D01*
X28430951Y-24929386D02*
X28471428Y-24888910D01*
X28471428Y-24888910D02*
X28430951Y-24848434D01*
X28430951Y-24848434D02*
X28430951Y-24929386D01*
X28754761Y-24848434D02*
X29321428Y-24848434D01*
X29321428Y-24848434D02*
X28754761Y-25698434D01*
X28754761Y-25698434D02*
X29321428Y-25698434D01*
X29969047Y-25657958D02*
X29888095Y-25698434D01*
X29888095Y-25698434D02*
X29726190Y-25698434D01*
X29726190Y-25698434D02*
X29645237Y-25657958D01*
X29645237Y-25657958D02*
X29604761Y-25577005D01*
X29604761Y-25577005D02*
X29604761Y-25253196D01*
X29604761Y-25253196D02*
X29645237Y-25172243D01*
X29645237Y-25172243D02*
X29726190Y-25131767D01*
X29726190Y-25131767D02*
X29888095Y-25131767D01*
X29888095Y-25131767D02*
X29969047Y-25172243D01*
X29969047Y-25172243D02*
X30009523Y-25253196D01*
X30009523Y-25253196D02*
X30009523Y-25334148D01*
X30009523Y-25334148D02*
X29604761Y-25415100D01*
X30373808Y-25698434D02*
X30373808Y-25131767D01*
X30373808Y-25293672D02*
X30414285Y-25212719D01*
X30414285Y-25212719D02*
X30454761Y-25172243D01*
X30454761Y-25172243D02*
X30535713Y-25131767D01*
X30535713Y-25131767D02*
X30616666Y-25131767D01*
X31021427Y-25698434D02*
X30940475Y-25657958D01*
X30940475Y-25657958D02*
X30899998Y-25617481D01*
X30899998Y-25617481D02*
X30859522Y-25536529D01*
X30859522Y-25536529D02*
X30859522Y-25293672D01*
X30859522Y-25293672D02*
X30899998Y-25212719D01*
X30899998Y-25212719D02*
X30940475Y-25172243D01*
X30940475Y-25172243D02*
X31021427Y-25131767D01*
X31021427Y-25131767D02*
X31142856Y-25131767D01*
X31142856Y-25131767D02*
X31223808Y-25172243D01*
X31223808Y-25172243D02*
X31264284Y-25212719D01*
X31264284Y-25212719D02*
X31304760Y-25293672D01*
X31304760Y-25293672D02*
X31304760Y-25536529D01*
X31304760Y-25536529D02*
X31264284Y-25617481D01*
X31264284Y-25617481D02*
X31223808Y-25657958D01*
X31223808Y-25657958D02*
X31142856Y-25698434D01*
X31142856Y-25698434D02*
X31021427Y-25698434D01*
X32316665Y-25698434D02*
X32316665Y-24848434D01*
X32316665Y-24848434D02*
X32640475Y-24848434D01*
X32640475Y-24848434D02*
X32721427Y-24888910D01*
X32721427Y-24888910D02*
X32761904Y-24929386D01*
X32761904Y-24929386D02*
X32802380Y-25010338D01*
X32802380Y-25010338D02*
X32802380Y-25131767D01*
X32802380Y-25131767D02*
X32761904Y-25212719D01*
X32761904Y-25212719D02*
X32721427Y-25253196D01*
X32721427Y-25253196D02*
X32640475Y-25293672D01*
X32640475Y-25293672D02*
X32316665Y-25293672D01*
X33530951Y-25698434D02*
X33530951Y-25253196D01*
X33530951Y-25253196D02*
X33490475Y-25172243D01*
X33490475Y-25172243D02*
X33409523Y-25131767D01*
X33409523Y-25131767D02*
X33247618Y-25131767D01*
X33247618Y-25131767D02*
X33166665Y-25172243D01*
X33530951Y-25657958D02*
X33449999Y-25698434D01*
X33449999Y-25698434D02*
X33247618Y-25698434D01*
X33247618Y-25698434D02*
X33166665Y-25657958D01*
X33166665Y-25657958D02*
X33126189Y-25577005D01*
X33126189Y-25577005D02*
X33126189Y-25496053D01*
X33126189Y-25496053D02*
X33166665Y-25415100D01*
X33166665Y-25415100D02*
X33247618Y-25374624D01*
X33247618Y-25374624D02*
X33449999Y-25374624D01*
X33449999Y-25374624D02*
X33530951Y-25334148D01*
X33935713Y-25698434D02*
X33935713Y-24848434D01*
X33935713Y-24848434D02*
X34259523Y-24848434D01*
X34259523Y-24848434D02*
X34340475Y-24888910D01*
X34340475Y-24888910D02*
X34380952Y-24929386D01*
X34380952Y-24929386D02*
X34421428Y-25010338D01*
X34421428Y-25010338D02*
X34421428Y-25131767D01*
X34421428Y-25131767D02*
X34380952Y-25212719D01*
X34380952Y-25212719D02*
X34340475Y-25253196D01*
X34340475Y-25253196D02*
X34259523Y-25293672D01*
X34259523Y-25293672D02*
X33935713Y-25293672D01*
X34907142Y-25698434D02*
X34826190Y-25657958D01*
X34826190Y-25657958D02*
X34785713Y-25617481D01*
X34785713Y-25617481D02*
X34745237Y-25536529D01*
X34745237Y-25536529D02*
X34745237Y-25293672D01*
X34745237Y-25293672D02*
X34785713Y-25212719D01*
X34785713Y-25212719D02*
X34826190Y-25172243D01*
X34826190Y-25172243D02*
X34907142Y-25131767D01*
X34907142Y-25131767D02*
X35028571Y-25131767D01*
X35028571Y-25131767D02*
X35109523Y-25172243D01*
X35109523Y-25172243D02*
X35149999Y-25212719D01*
X35149999Y-25212719D02*
X35190475Y-25293672D01*
X35190475Y-25293672D02*
X35190475Y-25536529D01*
X35190475Y-25536529D02*
X35149999Y-25617481D01*
X35149999Y-25617481D02*
X35109523Y-25657958D01*
X35109523Y-25657958D02*
X35028571Y-25698434D01*
X35028571Y-25698434D02*
X34907142Y-25698434D01*
X35554761Y-25253196D02*
X35838095Y-25253196D01*
X35959523Y-25698434D02*
X35554761Y-25698434D01*
X35554761Y-25698434D02*
X35554761Y-24848434D01*
X35554761Y-24848434D02*
X35959523Y-24848434D01*
X26953570Y-27066886D02*
X26953570Y-26500219D01*
X26953570Y-26216886D02*
X26913094Y-26257362D01*
X26913094Y-26257362D02*
X26953570Y-26297838D01*
X26953570Y-26297838D02*
X26994047Y-26257362D01*
X26994047Y-26257362D02*
X26953570Y-26216886D01*
X26953570Y-26216886D02*
X26953570Y-26297838D01*
X27358332Y-27066886D02*
X27358332Y-26216886D01*
X27722618Y-27066886D02*
X27722618Y-26621648D01*
X27722618Y-26621648D02*
X27682142Y-26540695D01*
X27682142Y-26540695D02*
X27601190Y-26500219D01*
X27601190Y-26500219D02*
X27479761Y-26500219D01*
X27479761Y-26500219D02*
X27398809Y-26540695D01*
X27398809Y-26540695D02*
X27358332Y-26581171D01*
X28491666Y-27066886D02*
X28491666Y-26621648D01*
X28491666Y-26621648D02*
X28451190Y-26540695D01*
X28451190Y-26540695D02*
X28370238Y-26500219D01*
X28370238Y-26500219D02*
X28208333Y-26500219D01*
X28208333Y-26500219D02*
X28127380Y-26540695D01*
X28491666Y-27026410D02*
X28410714Y-27066886D01*
X28410714Y-27066886D02*
X28208333Y-27066886D01*
X28208333Y-27066886D02*
X28127380Y-27026410D01*
X28127380Y-27026410D02*
X28086904Y-26945457D01*
X28086904Y-26945457D02*
X28086904Y-26864505D01*
X28086904Y-26864505D02*
X28127380Y-26783552D01*
X28127380Y-26783552D02*
X28208333Y-26743076D01*
X28208333Y-26743076D02*
X28410714Y-26743076D01*
X28410714Y-26743076D02*
X28491666Y-26702600D01*
X28896428Y-27066886D02*
X28896428Y-26500219D01*
X28896428Y-26662124D02*
X28936905Y-26581171D01*
X28936905Y-26581171D02*
X28977381Y-26540695D01*
X28977381Y-26540695D02*
X29058333Y-26500219D01*
X29058333Y-26500219D02*
X29139286Y-26500219D01*
X29301190Y-26500219D02*
X29624999Y-26500219D01*
X29422618Y-26216886D02*
X29422618Y-26945457D01*
X29422618Y-26945457D02*
X29463095Y-27026410D01*
X29463095Y-27026410D02*
X29544047Y-27066886D01*
X29544047Y-27066886D02*
X29624999Y-27066886D01*
X29827380Y-26500219D02*
X29989285Y-27066886D01*
X29989285Y-27066886D02*
X30151190Y-26662124D01*
X30151190Y-26662124D02*
X30313094Y-27066886D01*
X30313094Y-27066886D02*
X30474999Y-26500219D01*
X30798808Y-27066886D02*
X30798808Y-26500219D01*
X30798808Y-26216886D02*
X30758332Y-26257362D01*
X30758332Y-26257362D02*
X30798808Y-26297838D01*
X30798808Y-26297838D02*
X30839285Y-26257362D01*
X30839285Y-26257362D02*
X30798808Y-26216886D01*
X30798808Y-26216886D02*
X30798808Y-26297838D01*
X31567856Y-26500219D02*
X31567856Y-27188314D01*
X31567856Y-27188314D02*
X31527380Y-27269267D01*
X31527380Y-27269267D02*
X31486904Y-27309743D01*
X31486904Y-27309743D02*
X31405951Y-27350219D01*
X31405951Y-27350219D02*
X31284523Y-27350219D01*
X31284523Y-27350219D02*
X31203570Y-27309743D01*
X31567856Y-27026410D02*
X31486904Y-27066886D01*
X31486904Y-27066886D02*
X31324999Y-27066886D01*
X31324999Y-27066886D02*
X31244047Y-27026410D01*
X31244047Y-27026410D02*
X31203570Y-26985933D01*
X31203570Y-26985933D02*
X31163094Y-26904981D01*
X31163094Y-26904981D02*
X31163094Y-26662124D01*
X31163094Y-26662124D02*
X31203570Y-26581171D01*
X31203570Y-26581171D02*
X31244047Y-26540695D01*
X31244047Y-26540695D02*
X31324999Y-26500219D01*
X31324999Y-26500219D02*
X31486904Y-26500219D01*
X31486904Y-26500219D02*
X31567856Y-26540695D01*
X32660714Y-26216886D02*
X32579761Y-26378790D01*
X32984523Y-26297838D02*
X33024999Y-26257362D01*
X33024999Y-26257362D02*
X33105952Y-26216886D01*
X33105952Y-26216886D02*
X33308333Y-26216886D01*
X33308333Y-26216886D02*
X33389285Y-26257362D01*
X33389285Y-26257362D02*
X33429761Y-26297838D01*
X33429761Y-26297838D02*
X33470238Y-26378790D01*
X33470238Y-26378790D02*
X33470238Y-26459743D01*
X33470238Y-26459743D02*
X33429761Y-26581171D01*
X33429761Y-26581171D02*
X32944047Y-27066886D01*
X32944047Y-27066886D02*
X33470238Y-27066886D01*
X34198809Y-26500219D02*
X34198809Y-27066886D01*
X33996428Y-26176410D02*
X33794047Y-26783552D01*
X33794047Y-26783552D02*
X34320238Y-26783552D01*
X35777381Y-27066886D02*
X35494047Y-26662124D01*
X35291666Y-27066886D02*
X35291666Y-26216886D01*
X35291666Y-26216886D02*
X35615476Y-26216886D01*
X35615476Y-26216886D02*
X35696428Y-26257362D01*
X35696428Y-26257362D02*
X35736905Y-26297838D01*
X35736905Y-26297838D02*
X35777381Y-26378790D01*
X35777381Y-26378790D02*
X35777381Y-26500219D01*
X35777381Y-26500219D02*
X35736905Y-26581171D01*
X35736905Y-26581171D02*
X35696428Y-26621648D01*
X35696428Y-26621648D02*
X35615476Y-26662124D01*
X35615476Y-26662124D02*
X35291666Y-26662124D01*
X36586905Y-27066886D02*
X36101190Y-27066886D01*
X36344047Y-27066886D02*
X36344047Y-26216886D01*
X36344047Y-26216886D02*
X36263095Y-26338314D01*
X36263095Y-26338314D02*
X36182143Y-26419267D01*
X36182143Y-26419267D02*
X36101190Y-26459743D01*
D12*
%TO.P,Y1,1,1*%
%TO.N,/IC1_CKXTAL1*%
X25600000Y-4500000D03*
%TO.P,Y1,2,2*%
%TO.N,/IC1_CKXTAL2*%
X21900000Y-4500000D03*
%TD*%
D13*
%TO.P,C2,1*%
%TO.N,GND*%
X28000000Y-3725000D03*
%TO.P,C2,2*%
%TO.N,/IC1_CKXTAL1*%
X28000000Y-5275000D03*
%TD*%
%TO.P,C3,1*%
%TO.N,GND*%
X19500000Y-3725000D03*
%TO.P,C3,2*%
%TO.N,/IC1_CKXTAL2*%
X19500000Y-5275000D03*
%TD*%
D14*
%TO.P,C8,1*%
%TO.N,+1V0*%
X31225000Y-11000000D03*
%TO.P,C8,2*%
%TO.N,GND*%
X32775000Y-11000000D03*
%TD*%
D15*
%TO.P,C9,1*%
%TO.N,+1V0*%
X24750000Y-10025000D03*
%TO.P,C9,2*%
%TO.N,GND*%
X24750000Y-8475000D03*
%TD*%
%TO.P,C10,1*%
%TO.N,+1V0*%
X22750000Y-10025000D03*
%TO.P,C10,2*%
%TO.N,GND*%
X22750000Y-8475000D03*
%TD*%
D16*
%TO.P,C15,1*%
%TO.N,/U2_VOUT*%
X43225000Y-3750000D03*
%TO.P,C15,2*%
%TO.N,GND*%
X40275000Y-3750000D03*
%TD*%
D17*
%TO.P,C16,1*%
%TO.N,/U2_VOUT*%
X46250000Y-5725000D03*
%TO.P,C16,2*%
%TO.N,GND*%
X46250000Y-2775000D03*
%TD*%
D18*
%TO.P,C17,1*%
%TO.N,GND*%
X17775000Y-20750000D03*
%TO.P,C17,2*%
%TO.N,/TR1_CT*%
X16225000Y-20750000D03*
%TD*%
D14*
%TO.P,C18,1*%
%TO.N,/J1_SH_C*%
X8975000Y-6500000D03*
%TO.P,C18,2*%
%TO.N,GND*%
X10525000Y-6500000D03*
%TD*%
%TO.P,C20,1*%
%TO.N,+1V0*%
X31225000Y-12750000D03*
%TO.P,C20,2*%
%TO.N,GND*%
X32775000Y-12750000D03*
%TD*%
%TO.P,C21,1*%
%TO.N,/J1_SH_C*%
X8975000Y-23500000D03*
%TO.P,C21,2*%
%TO.N,GND*%
X10525000Y-23500000D03*
%TD*%
D19*
%TO.P,D1,1,V+*%
%TO.N,/POE_VP*%
X14698940Y-4270000D03*
%TO.P,D1,2,~{1}*%
%TO.N,/J6_DB_C*%
X8801060Y-1730000D03*
%TO.P,D1,3,~{2}*%
%TO.N,/J6_DA_C*%
X8803600Y-4270000D03*
%TO.P,D1,4,V-*%
%TO.N,GND*%
X14696400Y-1730000D03*
%TD*%
%TO.P,D2,1,V+*%
%TO.N,/POE_VP*%
X14698940Y-28270000D03*
%TO.P,D2,2,~{1}*%
%TO.N,/J6_DC_C*%
X8801060Y-25730000D03*
%TO.P,D2,3,~{2}*%
%TO.N,/J6_DD_C*%
X8803600Y-28270000D03*
%TO.P,D2,4,V-*%
%TO.N,GND*%
X14696400Y-25730000D03*
%TD*%
D20*
%TO.P,U1,1,CS*%
%TO.N,/IC1_EECS*%
X31595000Y-6725000D03*
%TO.P,U1,2,SCLK*%
%TO.N,/IC1_LED1_SPISCK*%
X32865000Y-6725000D03*
%TO.P,U1,3,DI*%
%TO.N,/IC1_EEDI_ENSWREG*%
X34135000Y-6725000D03*
%TO.P,U1,4,DO*%
%TO.N,/IC1_EED0_LED2*%
X35405000Y-6725000D03*
%TO.P,U1,5,GND*%
%TO.N,GND*%
X35405000Y-1775000D03*
%TO.P,U1,6,NC*%
%TO.N,unconnected-(U1-NC-Pad6)*%
X34135000Y-1775000D03*
%TO.P,U1,7,NC*%
%TO.N,unconnected-(U1-NC-Pad7)*%
X32865000Y-1775000D03*
%TO.P,U1,8,VCC*%
%TO.N,+3V3*%
X31595000Y-1775000D03*
%TD*%
D21*
%TO.P,Q2,1,E1*%
%TO.N,+5V*%
X52637500Y-21450000D03*
%TO.P,Q2,2*%
%TO.N,N/C*%
X52637500Y-20500000D03*
%TO.P,Q2,3,E2*%
%TO.N,/RPI_VBUS*%
X52637500Y-19550000D03*
%TO.P,Q2,4,C2*%
%TO.N,Net-(Q2-C2)*%
X50362500Y-19550000D03*
%TO.P,Q2,5,B*%
%TO.N,Net-(Q2-B)*%
X50362500Y-20500000D03*
%TO.P,Q2,6,C1*%
X50362500Y-21450000D03*
%TD*%
D22*
%TO.P,Q3,1,G*%
%TO.N,Net-(Q2-C2)*%
X54550000Y-21437500D03*
%TO.P,Q3,2,S*%
%TO.N,/RPI_VBUS*%
X56450000Y-21437500D03*
%TO.P,Q3,3,D*%
%TO.N,+5V*%
X55500000Y-19562500D03*
%TD*%
D23*
%TO.P,R3,1*%
%TO.N,Net-(D4-K)*%
X15675000Y-24250000D03*
%TO.P,R3,2*%
%TO.N,GND*%
X17325000Y-24250000D03*
%TD*%
D24*
%TO.P,R13,1*%
%TO.N,Net-(D5-K)*%
X56500000Y-4325000D03*
%TO.P,R13,2*%
%TO.N,GND*%
X56500000Y-2675000D03*
%TD*%
D25*
%TO.P,R15,1*%
%TO.N,Net-(Q2-B)*%
X48500000Y-19675000D03*
%TO.P,R15,2*%
%TO.N,GND*%
X48500000Y-21325000D03*
%TD*%
D26*
%TO.P,R18,1*%
%TO.N,/P1_U2DN*%
X40083363Y-21416637D03*
%TO.P,R18,2*%
%TO.N,/IC1_U2DN*%
X38916637Y-22583363D03*
%TD*%
D25*
%TO.P,R19,1*%
%TO.N,Net-(Q2-C2)*%
X46750000Y-19675000D03*
%TO.P,R19,2*%
%TO.N,GND*%
X46750000Y-21325000D03*
%TD*%
D26*
%TO.P,R20,1*%
%TO.N,/P1_U2DP*%
X42583363Y-21166637D03*
%TO.P,R20,2*%
%TO.N,/IC1_U2DP*%
X41416637Y-22333363D03*
%TD*%
D23*
%TO.P,R21,1*%
%TO.N,/J1_LED_YL_A*%
X16175000Y-22500000D03*
%TO.P,R21,2*%
%TO.N,GND*%
X17825000Y-22500000D03*
%TD*%
D27*
%TO.P,R22,1*%
%TO.N,/J1_LED_GN_A*%
X29825000Y-8500000D03*
%TO.P,R22,2*%
%TO.N,GND*%
X28175000Y-8500000D03*
%TD*%
D24*
%TO.P,R23,1*%
%TO.N,+3V3*%
X34500000Y-12575000D03*
%TO.P,R23,2*%
%TO.N,/IC1_EEDI_ENSWREG*%
X34500000Y-10925000D03*
%TD*%
D28*
%TO.P,D3,1,K*%
%TO.N,/POE_VP*%
X17250000Y-28250000D03*
%TO.P,D3,2,A*%
%TO.N,GND*%
X21250000Y-28250000D03*
%TD*%
D13*
%TO.P,C28,1*%
%TO.N,+3V3*%
X30000000Y-16225000D03*
%TO.P,C28,2*%
%TO.N,GND*%
X30000000Y-17775000D03*
%TD*%
%TO.P,C11,1*%
%TO.N,GND*%
X16500000Y-7225000D03*
%TO.P,C11,2*%
%TO.N,/TR1_CT*%
X16500000Y-8775000D03*
%TD*%
D27*
%TO.P,R4,1*%
%TO.N,/U2_VOUT*%
X56325000Y-13750000D03*
%TO.P,R4,2*%
%TO.N,/U2_PG*%
X54675000Y-13750000D03*
%TD*%
D13*
%TO.P,C42,1*%
%TO.N,+1V0*%
X26500000Y-19475000D03*
%TO.P,C42,2*%
%TO.N,GND*%
X26500000Y-21025000D03*
%TD*%
D23*
%TO.P,R2,1*%
%TO.N,/U2_FB*%
X54675000Y-9750000D03*
%TO.P,R2,2*%
%TO.N,GND*%
X56325000Y-9750000D03*
%TD*%
D29*
%TO.P,A1,*%
%TO.N,*%
X3500000Y-3500000D03*
X3500000Y-26500000D03*
X61500000Y-3500000D03*
X61500000Y-26500000D03*
%TD*%
D27*
%TO.P,R8,1*%
%TO.N,Net-(D10-K)*%
X52325000Y-28250000D03*
%TO.P,R8,2*%
%TO.N,GND*%
X50675000Y-28250000D03*
%TD*%
D13*
%TO.P,C29,1*%
%TO.N,+3V3*%
X28250000Y-19475000D03*
%TO.P,C29,2*%
%TO.N,GND*%
X28250000Y-21025000D03*
%TD*%
D30*
%TO.P,J5,1,Pin_1*%
%TO.N,GND*%
X47500000Y-27750000D03*
%TD*%
D13*
%TO.P,C35,1*%
%TO.N,/IC1_DVDD10_UPS*%
X31750000Y-16225000D03*
%TO.P,C35,2*%
%TO.N,GND*%
X31750000Y-17775000D03*
%TD*%
D30*
%TO.P,J3,1,Pin_1*%
%TO.N,/A1_U2DN*%
X40300000Y-28100000D03*
%TD*%
D15*
%TO.P,C26,1*%
%TO.N,+3V3*%
X19250000Y-10025000D03*
%TO.P,C26,2*%
%TO.N,GND*%
X19250000Y-8475000D03*
%TD*%
D31*
%TO.P,D4,1,K*%
%TO.N,Net-(D4-K)*%
X-9537500Y-24750000D03*
%TO.P,D4,2,A*%
%TO.N,/IC1_EED0_LED2*%
X-7962500Y-24750000D03*
%TD*%
D32*
%TO.P,F1,1*%
%TO.N,/U2_VOUT*%
X51000000Y-7250000D03*
%TO.P,F1,2*%
%TO.N,+5V*%
X51000000Y-2750000D03*
%TD*%
D33*
%TO.P,U2,1,PS/SYNC*%
%TO.N,/U2_EN*%
X51650000Y-12000000D03*
%TO.P,U2,2,PG*%
%TO.N,/U2_PG*%
X51650000Y-11500000D03*
%TO.P,U2,3,VAUX*%
%TO.N,/U2_VAUX*%
X51650000Y-11000000D03*
%TO.P,U2,4,GND*%
%TO.N,GND*%
X51650000Y-10500000D03*
D34*
%TO.P,U2,5,FB*%
%TO.N,/U2_FB*%
X51225000Y-9850000D03*
%TO.P,U2,6,FB2*%
%TO.N,GND*%
X50725000Y-9850000D03*
D35*
%TO.P,U2,7_8,VOUT*%
%TO.N,/U2_VOUT*%
X49975000Y-9850000D03*
D36*
%TO.P,U2,9,L2*%
%TO.N,/U2_L2*%
X49725000Y-10750000D03*
D37*
%TO.P,U2,10,PGND*%
%TO.N,GND*%
X49900000Y-11250000D03*
D36*
%TO.P,U2,11,L1*%
%TO.N,/U2_L1*%
X49725000Y-11750000D03*
D35*
%TO.P,U2,12_13,VIN*%
%TO.N,/POE_VP*%
X49975000Y-12650000D03*
D34*
%TO.P,U2,14,EN*%
%TO.N,/U2_EN*%
X50725000Y-12650000D03*
%TO.P,U2,15,VSEL*%
%TO.N,GND*%
X51225000Y-12650000D03*
%TD*%
D38*
%TO.P,TR1,1,CT*%
%TO.N,/TR1_CT*%
X14200000Y-20445000D03*
%TO.P,TR1,2,TD1+*%
%TO.N,/IC1_MDI3_N*%
X14200000Y-19455000D03*
%TO.P,TR1,3,TD1-*%
%TO.N,/IC1_MDI3_P*%
X14200000Y-18465000D03*
%TO.P,TR1,4,CT*%
%TO.N,/TR1_CT*%
X14200000Y-17475000D03*
%TO.P,TR1,5,TD2+*%
%TO.N,/IC1_MDI2_N*%
X14200000Y-16485000D03*
%TO.P,TR1,6,TD2-*%
%TO.N,/IC1_MDI2_P*%
X14200000Y-15495000D03*
%TO.P,TR1,7,CT*%
%TO.N,/TR1_CT*%
X14200000Y-14505000D03*
%TO.P,TR1,8,TD3+*%
%TO.N,/IC1_MDI1_N*%
X14200000Y-13515000D03*
%TO.P,TR1,9,TD3-*%
%TO.N,/IC1_MDI1_P*%
X14200000Y-12525000D03*
%TO.P,TR1,10,CT*%
%TO.N,/TR1_CT*%
X14200000Y-11535000D03*
%TO.P,TR1,11,TD4+*%
%TO.N,/IC1_MDI0_N*%
X14200000Y-10545000D03*
%TO.P,TR1,12,TD4-*%
%TO.N,/IC1_MDI0_P*%
X14200000Y-9555000D03*
%TO.P,TR1,13,MX4-*%
%TO.N,/J6_DA_P*%
X4800000Y-9555000D03*
%TO.P,TR1,14,MX4+*%
%TO.N,/J6_DA_N*%
X4800000Y-10545000D03*
%TO.P,TR1,15,CT*%
%TO.N,/J6_DA_C*%
X4800000Y-11535000D03*
%TO.P,TR1,16,MX3-*%
%TO.N,/J6_DB_P*%
X4800000Y-12525000D03*
%TO.P,TR1,17,MX3+*%
%TO.N,/J6_DB_N*%
X4800000Y-13515000D03*
%TO.P,TR1,18,CT*%
%TO.N,/J6_DB_C*%
X4800000Y-14505000D03*
%TO.P,TR1,19,MX2-*%
%TO.N,/J6_DC_P*%
X4800000Y-15495000D03*
%TO.P,TR1,20,MX2+*%
%TO.N,/J6_DC_N*%
X4800000Y-16485000D03*
%TO.P,TR1,21,CT*%
%TO.N,/J6_DC_C*%
X4800000Y-17475000D03*
%TO.P,TR1,22,MX1-*%
%TO.N,/J6_DD_P*%
X4800000Y-18465000D03*
%TO.P,TR1,23,MX1+*%
%TO.N,/J6_DD_N*%
X4800000Y-19455000D03*
%TO.P,TR1,24,CT*%
%TO.N,/J6_DD_C*%
X4800000Y-20445000D03*
%TD*%
D13*
%TO.P,C34,1*%
%TO.N,/IC1_DVDD10_UPS*%
X28250000Y-16225000D03*
%TO.P,C34,2*%
%TO.N,GND*%
X28250000Y-17775000D03*
%TD*%
D39*
%TO.P,IC1,1,MDIP0*%
%TO.N,/IC1_MDI0_P*%
X21312500Y-12950000D03*
%TO.P,IC1,2,MDIN0*%
%TO.N,/IC1_MDI0_N*%
X21312500Y-13350000D03*
%TO.P,IC1,3,AVDD10_1*%
%TO.N,+1V0*%
X21312500Y-13750000D03*
%TO.P,IC1,4,MDIP1*%
%TO.N,/IC1_MDI1_P*%
X21312500Y-14150000D03*
%TO.P,IC1,5,MDIN1*%
%TO.N,/IC1_MDI1_N*%
X21312500Y-14550000D03*
%TO.P,IC1,6,MDIP2*%
%TO.N,/IC1_MDI2_P*%
X21312500Y-14950000D03*
%TO.P,IC1,7,MDIN2*%
%TO.N,/IC1_MDI2_N*%
X21312500Y-15350000D03*
%TO.P,IC1,8,AVDD10_2*%
%TO.N,+1V0*%
X21312500Y-15750000D03*
%TO.P,IC1,9,MDIP3*%
%TO.N,/IC1_MDI3_P*%
X21312500Y-16150000D03*
%TO.P,IC1,10,MDIN3*%
%TO.N,/IC1_MDI3_N*%
X21312500Y-16550000D03*
D40*
%TO.P,IC1,11,AVDD33_1*%
%TO.N,+3V3*%
X21950000Y-17187500D03*
%TO.P,IC1,12,U3SSTXN*%
%TO.N,/IC1_U3SSTX_N*%
X22350000Y-17187500D03*
%TO.P,IC1,13,U3SSTXP*%
%TO.N,/IC1_U3SSTX_P*%
X22750000Y-17187500D03*
%TO.P,IC1,14,U3VDD10*%
%TO.N,+1V0*%
X23150000Y-17187500D03*
%TO.P,IC1,15,U3SSRXN*%
%TO.N,/IC1_U3SSRX_N*%
X23550000Y-17187500D03*
%TO.P,IC1,16,U3SSRXP*%
%TO.N,/IC1_U3SSRX_P*%
X23950000Y-17187500D03*
%TO.P,IC1,17,U2DM*%
%TO.N,/IC1_U2DN*%
X24350000Y-17187500D03*
%TO.P,IC1,18,U2DP*%
%TO.N,/IC1_U2DP*%
X24750000Y-17187500D03*
%TO.P,IC1,19,U2VDD10*%
%TO.N,+1V0*%
X25150000Y-17187500D03*
%TO.P,IC1,20,AVDD33_2*%
%TO.N,+3V3*%
X25550000Y-17187500D03*
D39*
%TO.P,IC1,21,VDD5*%
%TO.N,/RPI_VBUS*%
X26187500Y-16550000D03*
%TO.P,IC1,22,DVDD10_UPS*%
%TO.N,/IC1_DVDD10_UPS*%
X26187500Y-16150000D03*
%TO.P,IC1,23,DVDD33_1*%
%TO.N,+3V3*%
X26187500Y-15750000D03*
%TO.P,IC1,24,EEDO/LED2/SPISDO/LANW/AKEB/GPIO*%
%TO.N,/IC1_EED0_LED2*%
X26187500Y-15350000D03*
%TO.P,IC1,25,EEDI/SPISDI/ENSWREG*%
%TO.N,/IC1_EEDI_ENSWREG*%
X26187500Y-14950000D03*
%TO.P,IC1,26,VDDREG33*%
%TO.N,+3V3*%
X26187500Y-14550000D03*
%TO.P,IC1,27,VDDREG5*%
%TO.N,/RPI_VBUS*%
X26187500Y-14150000D03*
%TO.P,IC1,28,REGOUT*%
%TO.N,/IC1_REGOUT*%
X26187500Y-13750000D03*
%TO.P,IC1,29,GND*%
%TO.N,GND*%
X26187500Y-13350000D03*
%TO.P,IC1,30,EESK/LED1/SPISCK*%
%TO.N,/IC1_LED1_SPISCK*%
X26187500Y-12950000D03*
D40*
%TO.P,IC1,31,EECS*%
%TO.N,/IC1_EECS*%
X25550000Y-12312500D03*
%TO.P,IC1,32,LED0/SPICSB*%
%TO.N,/IC1_LED0_SPICSB*%
X25150000Y-12312500D03*
%TO.P,IC1,33,DVDD33_2*%
%TO.N,+3V3*%
X24750000Y-12312500D03*
%TO.P,IC1,34,DVDD10*%
%TO.N,+1V0*%
X24350000Y-12312500D03*
%TO.P,IC1,35,CKXTAL1*%
%TO.N,/IC1_CKXTAL1*%
X23950000Y-12312500D03*
%TO.P,IC1,36,CKXTAL2*%
%TO.N,/IC1_CKXTAL2*%
X23550000Y-12312500D03*
%TO.P,IC1,37,AVDD10_3*%
%TO.N,+1V0*%
X23150000Y-12312500D03*
%TO.P,IC1,38,RSET*%
%TO.N,/IC1_RST*%
X22750000Y-12312500D03*
%TO.P,IC1,39,AVDD33_3*%
%TO.N,+3V3*%
X22350000Y-12312500D03*
%TO.P,IC1,40,AVDD33_4*%
X21950000Y-12312500D03*
D41*
%TO.P,IC1,41,EP*%
%TO.N,GND*%
X22200000Y-13200000D03*
X22200000Y-14233333D03*
X22200000Y-15266667D03*
X22200000Y-16300000D03*
X23233333Y-13200000D03*
X23233333Y-14233333D03*
X23233333Y-15266667D03*
X23233333Y-16300000D03*
D42*
X23750000Y-14750000D03*
D41*
X24266667Y-13200000D03*
X24266667Y-14233333D03*
X24266667Y-15266667D03*
X24266667Y-16300000D03*
X25300000Y-13200000D03*
X25300000Y-14233333D03*
X25300000Y-15266667D03*
X25300000Y-16300000D03*
%TD*%
D43*
%TO.P,C40,1*%
%TO.N,/IC1_U3SSTX_N*%
X20750000Y-20430000D03*
%TO.P,C40,2*%
%TO.N,/P1_U3SSTX_N*%
X20750000Y-21070000D03*
%TD*%
D30*
%TO.P,J4,1,Pin_1*%
%TO.N,/A1_U2DP*%
X42450000Y-28100000D03*
%TD*%
D27*
%TO.P,R5,1*%
%TO.N,/POE_VP*%
X56325000Y-15750000D03*
%TO.P,R5,2*%
%TO.N,/U2_EN*%
X54675000Y-15750000D03*
%TD*%
D13*
%TO.P,C41,1*%
%TO.N,+1V0*%
X22750000Y-19475000D03*
%TO.P,C41,2*%
%TO.N,GND*%
X22750000Y-21025000D03*
%TD*%
D44*
%TO.P,C12,1*%
%TO.N,/POE_VP*%
X46250000Y-14200000D03*
%TO.P,C12,2*%
%TO.N,GND*%
X46250000Y-12300000D03*
%TD*%
D15*
%TO.P,C25,1*%
%TO.N,+3V3*%
X26500000Y-10025000D03*
%TO.P,C25,2*%
%TO.N,GND*%
X26500000Y-8475000D03*
%TD*%
D30*
%TO.P,J1,1,Pin_1*%
%TO.N,GND*%
X54100000Y-26300000D03*
%TD*%
D18*
%TO.P,C44,1*%
%TO.N,/J6_DB_C*%
X1025000Y-14750000D03*
%TO.P,C44,2*%
%TO.N,/J1_SH_C*%
X-525000Y-14750000D03*
%TD*%
D45*
%TO.P,L1,1,1*%
%TO.N,/U2_L1*%
X41750000Y-12750000D03*
%TO.P,L1,2,2*%
%TO.N,/U2_L2*%
X41750000Y-9750000D03*
%TD*%
D14*
%TO.P,C4,1*%
%TO.N,/U2_VAUX*%
X54725000Y-11750000D03*
%TO.P,C4,2*%
%TO.N,GND*%
X56275000Y-11750000D03*
%TD*%
D18*
%TO.P,C36,1*%
%TO.N,+1V0*%
X19025000Y-16250000D03*
%TO.P,C36,2*%
%TO.N,GND*%
X17475000Y-16250000D03*
%TD*%
%TO.P,C45,1*%
%TO.N,/J6_DC_C*%
X2025000Y-17500000D03*
%TO.P,C45,2*%
%TO.N,/J1_SH_C*%
X475000Y-17500000D03*
%TD*%
D13*
%TO.P,C33,1*%
%TO.N,/RPI_VBUS*%
X31750000Y-19475000D03*
%TO.P,C33,2*%
%TO.N,GND*%
X31750000Y-21025000D03*
%TD*%
D46*
%TO.P,D5,1,K*%
%TO.N,Net-(D5-K)*%
X54750000Y-4287500D03*
%TO.P,D5,2,A*%
%TO.N,+5V*%
X54750000Y-2712500D03*
%TD*%
D47*
%TO.P,C13,1*%
%TO.N,/U2_VOUT*%
X46250000Y-8300000D03*
%TO.P,C13,2*%
%TO.N,GND*%
X46250000Y-10200000D03*
%TD*%
D48*
%TO.P,C6,1*%
%TO.N,/POE_VP*%
X49525000Y-17400000D03*
%TO.P,C6,2*%
%TO.N,GND*%
X52475000Y-17400000D03*
%TD*%
D18*
%TO.P,C43,1*%
%TO.N,/J6_DA_C*%
X1025000Y-11500000D03*
%TO.P,C43,2*%
%TO.N,/J1_SH_C*%
X-525000Y-11500000D03*
%TD*%
D13*
%TO.P,C30,1*%
%TO.N,+3V3*%
X19500000Y-19475000D03*
%TO.P,C30,2*%
%TO.N,GND*%
X19500000Y-21025000D03*
%TD*%
D23*
%TO.P,R1,1*%
%TO.N,/U2_VOUT*%
X54675000Y-7750000D03*
%TO.P,R1,2*%
%TO.N,/U2_FB*%
X56325000Y-7750000D03*
%TD*%
D18*
%TO.P,C46,1*%
%TO.N,/J6_DD_C*%
X2025000Y-20500000D03*
%TO.P,C46,2*%
%TO.N,/J1_SH_C*%
X475000Y-20500000D03*
%TD*%
D13*
%TO.P,C32,1*%
%TO.N,/RPI_VBUS*%
X30000000Y-19475000D03*
%TO.P,C32,2*%
%TO.N,GND*%
X30000000Y-21025000D03*
%TD*%
D16*
%TO.P,C14,1*%
%TO.N,/U2_VOUT*%
X43225000Y-6750000D03*
%TO.P,C14,2*%
%TO.N,GND*%
X40275000Y-6750000D03*
%TD*%
D31*
%TO.P,D10,1,K*%
%TO.N,Net-(D10-K)*%
X53962500Y-28250000D03*
%TO.P,D10,2,A*%
%TO.N,/RPI_VBUS*%
X55537500Y-28250000D03*
%TD*%
D49*
%TO.P,R12,1*%
%TO.N,/A1_U2DP*%
X42583363Y-23583363D03*
%TO.P,R12,2*%
%TO.N,/IC1_U2DP*%
X41416637Y-22416637D03*
%TD*%
D15*
%TO.P,C27,1*%
%TO.N,+3V3*%
X21000000Y-10025000D03*
%TO.P,C27,2*%
%TO.N,GND*%
X21000000Y-8475000D03*
%TD*%
D43*
%TO.P,C39,1*%
%TO.N,/IC1_U3SSTX_P*%
X21500000Y-20430000D03*
%TO.P,C39,2*%
%TO.N,/P1_U3SSTX_P*%
X21500000Y-21070000D03*
%TD*%
%TO.P,C37,1*%
%TO.N,/IC1_U3SSRX_P*%
X23750000Y-22930000D03*
%TO.P,C37,2*%
%TO.N,/P1_U3SSRX_P*%
X23750000Y-23570000D03*
%TD*%
D50*
%TO.P,J6,1*%
%TO.N,/J6_DA_P*%
X-8500000Y-11420000D03*
D51*
%TO.P,J6,2*%
%TO.N,/J6_DA_N*%
X-10280000Y-12440000D03*
%TO.P,J6,3*%
%TO.N,/J6_DB_P*%
X-8500000Y-13460000D03*
%TO.P,J6,4*%
%TO.N,/J6_DC_P*%
X-10280000Y-14480000D03*
%TO.P,J6,5*%
%TO.N,/J6_DC_N*%
X-8500000Y-15500000D03*
%TO.P,J6,6*%
%TO.N,/J6_DB_N*%
X-10280000Y-16520000D03*
%TO.P,J6,7*%
%TO.N,/J6_DD_P*%
X-8500000Y-17540000D03*
%TO.P,J6,8*%
%TO.N,/J6_DD_N*%
X-10280000Y-18560000D03*
D30*
%TO.P,J6,9*%
%TO.N,/J1_LED_GN_A*%
X-5230000Y-7980000D03*
%TO.P,J6,10*%
%TO.N,/IC1_LED0_SPICSB*%
X-5230000Y-10520000D03*
%TO.P,J6,11*%
%TO.N,/J1_LED_YL_A*%
X-5230000Y-19460000D03*
%TO.P,J6,12*%
%TO.N,/IC1_LED1_SPISCK*%
X-5230000Y-22000000D03*
D52*
%TO.P,J6,SH*%
%TO.N,/J1_SH_C*%
X-13180000Y-6990000D03*
X-13180000Y-22990000D03*
%TD*%
D49*
%TO.P,R11,1*%
%TO.N,/A1_U2DN*%
X40083363Y-23833363D03*
%TO.P,R11,2*%
%TO.N,/IC1_U2DN*%
X38916637Y-22666637D03*
%TD*%
D18*
%TO.P,C31,1*%
%TO.N,+1V0*%
X19025000Y-13250000D03*
%TO.P,C31,2*%
%TO.N,GND*%
X17475000Y-13250000D03*
%TD*%
D48*
%TO.P,C5,1*%
%TO.N,/POE_VP*%
X49525000Y-15000000D03*
%TO.P,C5,2*%
%TO.N,GND*%
X52475000Y-15000000D03*
%TD*%
D30*
%TO.P,J2,1,Pin_1*%
%TO.N,/RPI_VBUS*%
X53800000Y-23700000D03*
%TD*%
D25*
%TO.P,R7,1*%
%TO.N,/IC1_RST*%
X17750000Y-3675000D03*
%TO.P,R7,2*%
%TO.N,+3V3*%
X17750000Y-5325000D03*
%TD*%
D43*
%TO.P,C38,1*%
%TO.N,/IC1_U3SSRX_N*%
X23000000Y-22930000D03*
%TO.P,C38,2*%
%TO.N,/P1_U3SSRX_N*%
X23000000Y-23570000D03*
%TD*%
D53*
%TO.P,C23,1*%
%TO.N,/POE_VP*%
X34750000Y-15250000D03*
D54*
%TO.P,C23,2*%
%TO.N,GND*%
X34750000Y-20250000D03*
%TD*%
D55*
%TO.P,P1,SH1,SHIELD*%
%TO.N,/P1_SH*%
X63750000Y-9775000D03*
X63750000Y-20225000D03*
%TD*%
D53*
%TO.P,C24,1*%
%TO.N,/POE_VP*%
X37250000Y-15250000D03*
D54*
%TO.P,C24,2*%
%TO.N,GND*%
X37250000Y-20250000D03*
%TD*%
D14*
%TO.P,C7,1*%
%TO.N,/RPI_VBUS*%
X31225000Y-14500000D03*
%TO.P,C7,2*%
%TO.N,GND*%
X32775000Y-14500000D03*
%TD*%
%TO.P,C1,1*%
%TO.N,+3V3*%
X28225000Y-14500000D03*
%TO.P,C1,2*%
%TO.N,GND*%
X29775000Y-14500000D03*
%TD*%
D56*
%TO.P,L3,1,1*%
%TO.N,+1V0*%
X29000000Y-10425000D03*
%TO.P,L3,2,2*%
%TO.N,/IC1_REGOUT*%
X29000000Y-12575000D03*
%TD*%
D57*
%TO.N,+3V3*%
X28750000Y-14660572D03*
%TO.N,GND*%
X37500000Y-29250000D03*
X37500000Y-28250000D03*
X59500000Y-8500000D03*
X59500000Y-21500000D03*
%TO.N,/RPI_VBUS*%
X46500000Y-24500000D03*
%TO.N,+3V3*%
X44000000Y-24750000D03*
%TO.N,GND*%
X42750000Y-19500000D03*
X41750000Y-18500000D03*
%TO.N,+3V3*%
X38750000Y-20000000D03*
%TO.N,GND*%
X50750000Y-27250000D03*
X29250000Y-14000000D03*
%TO.N,/IC1_EEDI_ENSWREG*%
X27256408Y-14843135D03*
%TO.N,/IC1_EED0_LED2*%
X29397302Y-15415190D03*
%TO.N,+1V0*%
X18250000Y-17000000D03*
X32000000Y-11750000D03*
X30529338Y-11992748D03*
X22150636Y-20212963D03*
X21902795Y-9033977D03*
X27250000Y-20250000D03*
X18250000Y-12500000D03*
X25574290Y-9068443D03*
%TO.N,/J1_SH_C*%
X-500000Y-20500000D03*
X2250000Y-12000000D03*
X-500000Y-17500000D03*
X7512000Y-7750000D03*
X-1500000Y-11500000D03*
X7512000Y-22250000D03*
X-1750000Y-15000000D03*
X2250000Y-14000000D03*
%TO.N,GND*%
X19250000Y-25750000D03*
X26500000Y-22000000D03*
X10500000Y-22250000D03*
X40250000Y-2250000D03*
X23750000Y-2750000D03*
X21250002Y-26750000D03*
X27750000Y-2750000D03*
X30000000Y-22000000D03*
X14000000Y-2750000D03*
X47000000Y-22250000D03*
X14750000Y-26750000D03*
X51230243Y-16252288D03*
X40250000Y-8250000D03*
X22000000Y-24750000D03*
X47000000Y-1500000D03*
X60250000Y-10600000D03*
X14750000Y-24750000D03*
X40250000Y-5250000D03*
X52250000Y-13500000D03*
X57000000Y-8750000D03*
X39500000Y-8250000D03*
X22500000Y-22000000D03*
X51221621Y-15496307D03*
X32500000Y-17000000D03*
X51250000Y-18000000D03*
X15750000Y-1500000D03*
X46250000Y-11250000D03*
X10500000Y-7750000D03*
X53500000Y-15750000D03*
X19750000Y-22000000D03*
X14000000Y-26750000D03*
X16000000Y-26000000D03*
X19000000Y-7500000D03*
X41000000Y-5250000D03*
X15500000Y-750000D03*
X20500000Y-26750000D03*
X19000000Y-22500000D03*
X52000000Y-9750000D03*
X28250000Y-7500000D03*
X14750000Y-750000D03*
X15500000Y-26750000D03*
X19750000Y-26750000D03*
X15500000Y-7250000D03*
X46250000Y-1500000D03*
X16750000Y-17000000D03*
X26750000Y-7500000D03*
X47750000Y-11250000D03*
X14750000Y-2750000D03*
X16750000Y-12500000D03*
X20750000Y-7500000D03*
X30750000Y-18500000D03*
X14000000Y-750000D03*
X28250000Y-22000000D03*
X56500000Y-1750000D03*
X59250000Y-11250000D03*
X59250000Y-18650000D03*
X33500000Y-13500000D03*
X39500000Y-2250000D03*
X21750000Y-2750000D03*
X45500000Y-1500000D03*
X48750000Y-22250000D03*
X23000000Y-25750000D03*
X36250000Y-1000000D03*
X39500000Y-5250000D03*
X25000000Y-7500000D03*
X61000000Y-20000000D03*
X19500000Y-29000000D03*
X32000000Y-13750000D03*
X41000000Y-2250000D03*
X45500000Y-11250000D03*
X19500000Y-28250000D03*
X33500000Y-10250000D03*
X60250000Y-19250000D03*
X58650000Y-14600000D03*
X22500000Y-7500000D03*
X47000000Y-11250000D03*
X18250000Y-24750000D03*
X52750000Y-10250000D03*
X19500000Y-27500000D03*
X57000000Y-10750000D03*
X30000000Y-504800D03*
X51500000Y-13500000D03*
X27331000Y-17000000D03*
X25750000Y-2750000D03*
X31750000Y-22000000D03*
X19750000Y-2750000D03*
X18500000Y-23250000D03*
X14000000Y-24750000D03*
%TO.N,/P1_U3SSRX_P*%
X23278388Y-25028388D03*
%TO.N,/P1_U3SSRX_N*%
X22721612Y-24471612D03*
%TO.N,/P1_U3SSTX_P*%
X19528388Y-25028388D03*
%TO.N,/P1_U3SSTX_N*%
X18971612Y-24471612D03*
%TO.N,Net-(D4-K)*%
X-6750000Y-24750000D03*
X16250000Y-25000000D03*
%TO.N,/IC1_EED0_LED2*%
X-7250000Y-24000000D03*
X34250000Y-9250000D03*
%TO.N,/IC1_LED1_SPISCK*%
X32282500Y-8282500D03*
X32250000Y-5500000D03*
%TO.N,/IC1_LED0_SPICSB*%
X26500000Y-11000000D03*
%TO.N,/IC1_EEDI_ENSWREG*%
X33500000Y-8500000D03*
X33500000Y-5500000D03*
%TO.N,+5V*%
X50250000Y-1500000D03*
X54170770Y-14610723D03*
X48750000Y-1500000D03*
X54500000Y-20000000D03*
X51750000Y-1500000D03*
X56500000Y-20000000D03*
X60300000Y-13700000D03*
X54500000Y-18500000D03*
X52500000Y-1500000D03*
X53500000Y-22000000D03*
X54500000Y-19250000D03*
X57250000Y-19250000D03*
X58000000Y-18500000D03*
X56500000Y-19250000D03*
X53250000Y-1500000D03*
X51000000Y-1500000D03*
X56500000Y-18500000D03*
X49500000Y-1500000D03*
X53750000Y-2000000D03*
X57250000Y-18500000D03*
X48250000Y-2000000D03*
%TO.N,+3V3*%
X29000000Y-20250000D03*
X35250000Y-12000000D03*
X30750000Y-1000000D03*
X18500000Y-19750000D03*
X18250000Y-10000000D03*
X35250000Y-9250000D03*
X27370627Y-7957242D03*
X30750000Y-15500000D03*
X19997492Y-9416874D03*
%TO.N,/U2_L1*%
X43999986Y-13750000D03*
X42500000Y-13750000D03*
X44250000Y-12250000D03*
X41000000Y-13750000D03*
X44250000Y-13000000D03*
X41750000Y-13750000D03*
%TO.N,/U2_L2*%
X41750000Y-8750000D03*
X48750000Y-9750000D03*
X44000044Y-8750000D03*
X42500000Y-8750000D03*
X47750000Y-9749998D03*
X44250000Y-9500000D03*
X44250000Y-10250000D03*
X48250000Y-10500000D03*
X41000000Y-8750000D03*
%TO.N,/J1_LED_GN_A*%
X29750000Y-7500000D03*
%TO.N,/J1_LED_YL_A*%
X15250000Y-22500000D03*
%TO.N,/P1_U2DP*%
X42028388Y-19778388D03*
%TO.N,/P1_U2DN*%
X41471612Y-19221612D03*
%TO.N,/J6_DB_P*%
X2945654Y-12600900D03*
%TO.N,/J6_DB_N*%
X2945654Y-13439100D03*
%TD*%
D58*
%TO.N,/IC1_EED0_LED2*%
X27679626Y-15241600D02*
X29223712Y-15241600D01*
X26187500Y-15350000D02*
X26872207Y-15350000D01*
%TO.N,+3V3*%
X26187500Y-15750000D02*
X26841155Y-15750000D01*
X27507078Y-15845200D02*
X27805878Y-15546400D01*
%TO.N,/IC1_EED0_LED2*%
X29223712Y-15241600D02*
X29397302Y-15415190D01*
X27062607Y-15540400D02*
X27380826Y-15540400D01*
X26872207Y-15350000D02*
X27062607Y-15540400D01*
X27380826Y-15540400D02*
X27679626Y-15241600D01*
%TO.N,+3V3*%
X28694122Y-15546400D02*
X29372722Y-16225000D01*
X27805878Y-15546400D02*
X28694122Y-15546400D01*
X26936355Y-15845200D02*
X27507078Y-15845200D01*
X29372722Y-16225000D02*
X30000000Y-16225000D01*
X26841155Y-15750000D02*
X26936355Y-15845200D01*
X28225000Y-14500000D02*
X28589428Y-14500000D01*
X28589428Y-14500000D02*
X28750000Y-14660572D01*
%TO.N,GND*%
X37500000Y-28250000D02*
X37500000Y-29250000D01*
X21250000Y-28250000D02*
X37500000Y-28250000D01*
%TO.N,+3V3*%
X33000000Y-20250000D02*
X34228600Y-19021400D01*
X34228600Y-19021400D02*
X37771400Y-19021400D01*
X29000000Y-20250000D02*
X33000000Y-20250000D01*
X37771400Y-19021400D02*
X38750000Y-20000000D01*
%TO.N,GND*%
X50675000Y-28250000D02*
X50675000Y-27325000D01*
X50675000Y-27325000D02*
X50750000Y-27250000D01*
%TO.N,Net-(D10-K)*%
X53962500Y-28250000D02*
X52325000Y-28250000D01*
%TO.N,/RPI_VBUS*%
X55537500Y-28250000D02*
X55537500Y-24787500D01*
X55537500Y-24787500D02*
X55500000Y-24750000D01*
X27418256Y-13428600D02*
X30153600Y-13428600D01*
X26696856Y-14150000D02*
X27418256Y-13428600D01*
X26187500Y-14150000D02*
X26696856Y-14150000D01*
%TO.N,GND*%
X29775000Y-14500000D02*
X29750000Y-14500000D01*
%TO.N,/RPI_VBUS*%
X30153600Y-13428600D02*
X31225000Y-14500000D01*
%TO.N,GND*%
X29750000Y-14500000D02*
X29250000Y-14000000D01*
%TO.N,/IC1_REGOUT*%
X27415804Y-13000000D02*
X28000000Y-13000000D01*
%TO.N,+3V3*%
X27537151Y-14262151D02*
X27775000Y-14500000D01*
%TO.N,/IC1_REGOUT*%
X28212500Y-12787500D02*
X28787500Y-12787500D01*
%TO.N,+3V3*%
X26727908Y-14550000D02*
X27015757Y-14262151D01*
X27775000Y-14500000D02*
X28225000Y-14500000D01*
%TO.N,/IC1_REGOUT*%
X28000000Y-13000000D02*
X28212500Y-12787500D01*
%TO.N,+3V3*%
X26187500Y-14550000D02*
X26727908Y-14550000D01*
%TO.N,/IC1_REGOUT*%
X28787500Y-12787500D02*
X29000000Y-12575000D01*
%TO.N,+3V3*%
X27015757Y-14262151D02*
X27537151Y-14262151D01*
%TO.N,/IC1_REGOUT*%
X26665804Y-13750000D02*
X27415804Y-13000000D01*
X26187500Y-13750000D02*
X26665804Y-13750000D01*
%TO.N,/IC1_EEDI_ENSWREG*%
X26800000Y-14950000D02*
X26906865Y-14843135D01*
X26906865Y-14843135D02*
X27256408Y-14843135D01*
%TO.N,/IC1_CKXTAL1*%
X28000000Y-5275000D02*
X26225000Y-5275000D01*
X25600000Y-5900000D02*
X25500000Y-6000000D01*
X25500000Y-6000000D02*
X23950000Y-7550000D01*
X23950000Y-7550000D02*
X23950000Y-12312500D01*
X25600000Y-4500000D02*
X25600000Y-5900000D01*
%TO.N,/IC1_CKXTAL2*%
X21900000Y-5900000D02*
X22000000Y-6000000D01*
X21900000Y-4500000D02*
X21900000Y-5900000D01*
X22000000Y-6000000D02*
X23550000Y-7550000D01*
X23550000Y-7550000D02*
X23550000Y-12312500D01*
X19500000Y-5275000D02*
X21275000Y-5275000D01*
%TO.N,Net-(Q2-C2)*%
X50891100Y-19021400D02*
X53382820Y-19021400D01*
X47403600Y-19021400D02*
X46750000Y-19675000D01*
X54187500Y-21437500D02*
X54550000Y-21437500D01*
X53750000Y-19388580D02*
X53750000Y-21000000D01*
X53750000Y-21000000D02*
X54187500Y-21437500D01*
X50362500Y-19550000D02*
X50362500Y-19033900D01*
X50350000Y-19021400D02*
X47403600Y-19021400D01*
X53382820Y-19021400D02*
X53555710Y-19194290D01*
X50891100Y-19021400D02*
X50350000Y-19021400D01*
X50362500Y-19033900D02*
X50350000Y-19021400D01*
X53555710Y-19194290D02*
X53750000Y-19388580D01*
%TO.N,Net-(Q2-B)*%
X48500000Y-19675000D02*
X49325000Y-20500000D01*
X49325000Y-20500000D02*
X50362500Y-20500000D01*
X50362500Y-20500000D02*
X50362500Y-21450000D01*
%TO.N,+1V0*%
X22750000Y-19613599D02*
X22150636Y-20212963D01*
X22750000Y-19475000D02*
X22775000Y-19475000D01*
X24750000Y-10025000D02*
X24750000Y-9892733D01*
X26500000Y-19500000D02*
X27250000Y-20250000D01*
X21312500Y-15750000D02*
X19525000Y-15750000D01*
X19025000Y-13250000D02*
X19000000Y-13250000D01*
D59*
X31225000Y-11000000D02*
X31225000Y-11297086D01*
D58*
X22750000Y-19475000D02*
X22750000Y-19613599D01*
D59*
X30529338Y-12054338D02*
X31225000Y-12750000D01*
X31225000Y-11000000D02*
X31250000Y-11000000D01*
D58*
X24750000Y-10025000D02*
X24750000Y-10000000D01*
X22750000Y-9881182D02*
X21902795Y-9033977D01*
X19000000Y-16250000D02*
X18250000Y-17000000D01*
X19525000Y-15750000D02*
X19025000Y-16250000D01*
X22750000Y-10025000D02*
X22750000Y-9881182D01*
X19000000Y-13250000D02*
X18250000Y-12500000D01*
D59*
X29000000Y-10425000D02*
X30650000Y-10425000D01*
X30529338Y-11992748D02*
X30529338Y-12054338D01*
D58*
X24350000Y-12312500D02*
X24350000Y-10425000D01*
X23150000Y-19075000D02*
X22750000Y-19475000D01*
X23150000Y-17187500D02*
X23150000Y-19075000D01*
X25150000Y-17187500D02*
X25150000Y-18125000D01*
X23150000Y-10425000D02*
X22750000Y-10025000D01*
X26500000Y-19475000D02*
X26500000Y-19500000D01*
D59*
X32000000Y-11750000D02*
X32000000Y-11975000D01*
D58*
X19025000Y-16250000D02*
X19000000Y-16250000D01*
X25150000Y-18125000D02*
X26500000Y-19475000D01*
X24350000Y-10425000D02*
X24750000Y-10025000D01*
D59*
X30650000Y-10425000D02*
X31225000Y-11000000D01*
X31250000Y-11000000D02*
X32000000Y-11750000D01*
D58*
X22750000Y-10025000D02*
X22750000Y-9859728D01*
D59*
X31225000Y-11297086D02*
X30529338Y-11992748D01*
D58*
X23150000Y-12312500D02*
X23150000Y-10425000D01*
X24750000Y-9892733D02*
X25574290Y-9068443D01*
X19525000Y-13750000D02*
X19025000Y-13250000D01*
X21312500Y-13750000D02*
X19525000Y-13750000D01*
D59*
X32000000Y-11975000D02*
X31225000Y-12750000D01*
D58*
%TO.N,/J1_SH_C*%
X8750000Y-22250000D02*
X7512000Y-22250000D01*
X8975000Y-7525000D02*
X8750000Y-7750000D01*
X-525000Y-11500000D02*
X-1500000Y-11500000D01*
X8750000Y-7750000D02*
X7512000Y-7750000D01*
X475000Y-17500000D02*
X-500000Y-17500000D01*
X8975000Y-6500000D02*
X8975000Y-7525000D01*
X8975000Y-22475000D02*
X8750000Y-22250000D01*
X-525000Y-14750000D02*
X-1500000Y-14750000D01*
X-1500000Y-14750000D02*
X-1750000Y-15000000D01*
X475000Y-20500000D02*
X-500000Y-20500000D01*
X8975000Y-23500000D02*
X8975000Y-22475000D01*
D59*
%TO.N,GND*%
X56275000Y-11475000D02*
X57000000Y-10750000D01*
X40275000Y-3750000D02*
X40275000Y-3475000D01*
D58*
X19250000Y-7750000D02*
X19000000Y-7500000D01*
X30025000Y-17775000D02*
X30750000Y-18500000D01*
X45500000Y-2500000D02*
X45775000Y-2775000D01*
X51225000Y-12650000D02*
X51225000Y-13225000D01*
D59*
X46250000Y-12300000D02*
X46250000Y-11250000D01*
D58*
X45500000Y-2500000D02*
X45500000Y-1500000D01*
D59*
X40275000Y-7225000D02*
X39500000Y-8000000D01*
D60*
X28000000Y-3725000D02*
X28000000Y-3000000D01*
D58*
X19500000Y-28250000D02*
X19500000Y-27500000D01*
D59*
X56325000Y-9750000D02*
X56325000Y-9425000D01*
D58*
X46750000Y-21325000D02*
X46750000Y-22000000D01*
D59*
X52475000Y-17500000D02*
X52475000Y-17525000D01*
D58*
X51225000Y-13225000D02*
X51500000Y-13500000D01*
X28175000Y-7575000D02*
X28250000Y-7500000D01*
D59*
X52475000Y-15000000D02*
X52475000Y-15475000D01*
D58*
X10525000Y-23500000D02*
X10525000Y-22275000D01*
X17775000Y-21275000D02*
X19000000Y-22500000D01*
D59*
X52475000Y-16975000D02*
X51752288Y-16252288D01*
D58*
X15500000Y-26750000D02*
X14750000Y-26750000D01*
X19500000Y-28250000D02*
X19500000Y-29000000D01*
X24750000Y-8475000D02*
X24750000Y-7750000D01*
D59*
X40275000Y-5275000D02*
X40250000Y-5250000D01*
X40275000Y-6750000D02*
X40275000Y-6525000D01*
D58*
X14750000Y-26750000D02*
X14000000Y-26750000D01*
X17825000Y-22500000D02*
X17825000Y-22575000D01*
X52500000Y-10500000D02*
X52750000Y-10250000D01*
X35500000Y-1000000D02*
X35405000Y-1095000D01*
D59*
X40275000Y-6750000D02*
X40275000Y-7225000D01*
X46250000Y-11250000D02*
X47000000Y-11250000D01*
X52003693Y-15496307D02*
X51221621Y-15496307D01*
D58*
X31750000Y-17775000D02*
X31750000Y-17750000D01*
D59*
X40275000Y-2275000D02*
X40250000Y-2250000D01*
D58*
X51650000Y-10500000D02*
X52500000Y-10500000D01*
D59*
X39500000Y-4750000D02*
X39500000Y-5250000D01*
D58*
X19500000Y-21025000D02*
X19500000Y-21750000D01*
X51650000Y-10500000D02*
X51650000Y-10100000D01*
X30000000Y-21025000D02*
X30000000Y-22000000D01*
X18250000Y-24750000D02*
X17000000Y-26000000D01*
D59*
X52475000Y-15000000D02*
X52475000Y-13725000D01*
X52475000Y-15000000D02*
X52475000Y-15025000D01*
D58*
X46750000Y-22000000D02*
X47000000Y-22250000D01*
D59*
X47000000Y-11250000D02*
X47750000Y-11250000D01*
X40275000Y-3975000D02*
X39500000Y-4750000D01*
X40275000Y-3475000D02*
X41000000Y-2750000D01*
X40275000Y-3525000D02*
X39500000Y-2750000D01*
X41000000Y-5750000D02*
X41000000Y-5250000D01*
X40275000Y-5225000D02*
X40250000Y-5250000D01*
D58*
X32775000Y-11000000D02*
X32775000Y-10975000D01*
X48500000Y-22000000D02*
X48750000Y-22250000D01*
X32775000Y-12775000D02*
X33500000Y-13500000D01*
D59*
X40275000Y-6475000D02*
X41000000Y-5750000D01*
D60*
X19500000Y-3725000D02*
X19500000Y-3000000D01*
D58*
X14696400Y-24803600D02*
X14750000Y-24750000D01*
X46250000Y-2775000D02*
X46250000Y-1500000D01*
X10525000Y-7725000D02*
X10500000Y-7750000D01*
X19250000Y-8475000D02*
X19250000Y-7750000D01*
D59*
X52750000Y-15750000D02*
X52475000Y-15475000D01*
D58*
X15525000Y-7225000D02*
X15500000Y-7250000D01*
X22750000Y-21750000D02*
X22500000Y-22000000D01*
X25450000Y-13350000D02*
X25300000Y-13200000D01*
X26500000Y-7750000D02*
X26750000Y-7500000D01*
X30000000Y-17775000D02*
X30025000Y-17775000D01*
X31750000Y-17750000D02*
X32500000Y-17000000D01*
D59*
X40275000Y-3750000D02*
X40275000Y-2275000D01*
D58*
X14696400Y-25730000D02*
X14696400Y-26696400D01*
D60*
X19500000Y-3000000D02*
X19750000Y-2750000D01*
D58*
X17475000Y-16250000D02*
X17475000Y-16275000D01*
D59*
X40275000Y-4025000D02*
X41000000Y-4750000D01*
X40275000Y-8225000D02*
X40250000Y-8250000D01*
X40275000Y-3750000D02*
X40275000Y-3525000D01*
X40275000Y-3750000D02*
X40275000Y-5225000D01*
D58*
X28175000Y-8500000D02*
X28175000Y-7575000D01*
D59*
X40275000Y-6525000D02*
X39500000Y-5750000D01*
X56325000Y-9425000D02*
X57000000Y-8750000D01*
D58*
X10525000Y-6500000D02*
X10525000Y-7725000D01*
X46250000Y-2775000D02*
X45775000Y-2775000D01*
D59*
X52000000Y-15500000D02*
X52475000Y-15025000D01*
D58*
X17775000Y-20750000D02*
X17775000Y-21275000D01*
X28250000Y-17775000D02*
X28106000Y-17775000D01*
X20500000Y-26750000D02*
X21250002Y-26750000D01*
X26500000Y-8475000D02*
X26500000Y-7750000D01*
X17825000Y-22575000D02*
X18500000Y-23250000D01*
X51230243Y-15504929D02*
X51221621Y-15496307D01*
D59*
X40275000Y-3750000D02*
X40275000Y-3975000D01*
D58*
X28250000Y-21025000D02*
X28250000Y-22000000D01*
X48500000Y-21325000D02*
X48500000Y-22000000D01*
X14000000Y-24750000D02*
X14750000Y-24750000D01*
X17475000Y-13225000D02*
X16750000Y-12500000D01*
X21250000Y-28250000D02*
X19500000Y-28250000D01*
X14750000Y-24750000D02*
X16000000Y-26000000D01*
X17475000Y-13250000D02*
X17475000Y-13225000D01*
X31750000Y-21025000D02*
X31750000Y-22000000D01*
X35500000Y-1000000D02*
X36250000Y-1000000D01*
X46250000Y-2775000D02*
X46725000Y-2775000D01*
X19500000Y-21750000D02*
X19750000Y-22000000D01*
D59*
X52475000Y-13725000D02*
X52250000Y-13500000D01*
X52475000Y-15025000D02*
X52003693Y-15496307D01*
X46250000Y-11250000D02*
X45500000Y-11250000D01*
D58*
X51650000Y-10100000D02*
X52000000Y-9750000D01*
X19750000Y-26750000D02*
X20500000Y-26750000D01*
X14696400Y-803600D02*
X14750000Y-750000D01*
D59*
X40275000Y-6750000D02*
X40275000Y-8225000D01*
D58*
X47000000Y-2500000D02*
X46725000Y-2775000D01*
X35405000Y-1775000D02*
X35405000Y-1095000D01*
D59*
X51752288Y-16252288D02*
X51230243Y-16252288D01*
D58*
X21000000Y-8475000D02*
X21000000Y-7750000D01*
X22750000Y-8475000D02*
X22750000Y-7750000D01*
X56500000Y-2675000D02*
X56500000Y-1750000D01*
X16500000Y-7225000D02*
X15525000Y-7225000D01*
D59*
X39500000Y-5750000D02*
X39500000Y-5250000D01*
X52750000Y-15750000D02*
X53500000Y-15750000D01*
X40275000Y-3750000D02*
X40275000Y-4025000D01*
D58*
X24750000Y-7750000D02*
X25000000Y-7500000D01*
X17000000Y-26000000D02*
X16000000Y-26000000D01*
D59*
X39500000Y-8000000D02*
X39500000Y-8250000D01*
D58*
X32775000Y-10975000D02*
X33500000Y-10250000D01*
X14696400Y-26696400D02*
X14750000Y-26750000D01*
X19500000Y-27000000D02*
X19750000Y-26750000D01*
X32775000Y-12750000D02*
X32775000Y-12775000D01*
D59*
X52475000Y-17500000D02*
X52475000Y-16975000D01*
D58*
X32775000Y-14500000D02*
X32750000Y-14500000D01*
X14696400Y-25730000D02*
X14696400Y-24803600D01*
D59*
X41000000Y-4750000D02*
X41000000Y-5250000D01*
X40275000Y-6750000D02*
X40275000Y-5275000D01*
D58*
X28106000Y-17775000D02*
X27331000Y-17000000D01*
D59*
X56275000Y-11750000D02*
X56275000Y-11475000D01*
X40275000Y-6750000D02*
X40275000Y-6475000D01*
X41000000Y-2750000D02*
X41000000Y-2250000D01*
D58*
X32750000Y-14500000D02*
X32000000Y-13750000D01*
X22750000Y-21025000D02*
X22750000Y-21750000D01*
X22750000Y-7750000D02*
X22500000Y-7500000D01*
X17475000Y-16275000D02*
X16750000Y-17000000D01*
D59*
X52000000Y-18000000D02*
X52475000Y-17525000D01*
D60*
X19750000Y-2750000D02*
X27750000Y-2750000D01*
D58*
X50725000Y-9850000D02*
X50725000Y-10149999D01*
D60*
X28000000Y-3000000D02*
X27750000Y-2750000D01*
D58*
X50725000Y-10149999D02*
X51075001Y-10500000D01*
D59*
X39500000Y-2750000D02*
X39500000Y-2250000D01*
D58*
X19500000Y-27500000D02*
X19500000Y-27000000D01*
X21000000Y-7750000D02*
X20750000Y-7500000D01*
X26187500Y-13350000D02*
X25450000Y-13350000D01*
X26500000Y-21025000D02*
X26500000Y-22000000D01*
D59*
X52000000Y-18000000D02*
X51250000Y-18000000D01*
D58*
X51075001Y-10500000D02*
X51650000Y-10500000D01*
X14696400Y-1730000D02*
X14696400Y-803600D01*
X18250000Y-24750000D02*
X19250000Y-25750000D01*
X47000000Y-2500000D02*
X47000000Y-1500000D01*
X10525000Y-22275000D02*
X10500000Y-22250000D01*
%TO.N,/IC1_DVDD10_UPS*%
X26187500Y-16150000D02*
X28175000Y-16150000D01*
X29025000Y-17000000D02*
X30975000Y-17000000D01*
X28175000Y-16150000D02*
X28250000Y-16225000D01*
X30975000Y-17000000D02*
X31750000Y-16225000D01*
X28250000Y-16225000D02*
X29025000Y-17000000D01*
D61*
%TO.N,/IC1_U3SSRX_P*%
X23914465Y-17841786D02*
X23914465Y-21568125D01*
X23914465Y-21568125D02*
X23539465Y-21943125D01*
X23539465Y-21943125D02*
X23539465Y-22374464D01*
X23950000Y-17806251D02*
X23914465Y-17841786D01*
X23750000Y-22584999D02*
X23750000Y-22930000D01*
X23950000Y-17187500D02*
X23950000Y-17806251D01*
X23539465Y-22374464D02*
X23750000Y-22584999D01*
%TO.N,/P1_U3SSRX_P*%
X23750000Y-23915001D02*
X23539465Y-24125536D01*
X23278388Y-24704201D02*
X23278388Y-25028388D01*
X23750000Y-23570000D02*
X23750000Y-23915001D01*
X23539465Y-24125536D02*
X23539465Y-24443124D01*
X23539465Y-24443124D02*
X23278388Y-24704201D01*
D58*
%TO.N,/RPI_VBUS*%
X28978600Y-18453600D02*
X27703600Y-18453600D01*
X30000000Y-19475000D02*
X28978600Y-18453600D01*
X26187500Y-16937500D02*
X26187500Y-16550000D01*
X31750000Y-19475000D02*
X30000000Y-19475000D01*
X31225000Y-14500000D02*
X31225000Y-14525000D01*
X27703600Y-18453600D02*
X26187500Y-16937500D01*
D61*
%TO.N,/IC1_U3SSRX_N*%
X23585535Y-21431875D02*
X23210535Y-21806875D01*
X23210535Y-21806875D02*
X23210535Y-22374464D01*
X23550000Y-17187500D02*
X23550000Y-17806251D01*
X23000000Y-22584999D02*
X23000000Y-22930000D01*
X23585535Y-17841786D02*
X23585535Y-21431875D01*
X23550000Y-17806251D02*
X23585535Y-17841786D01*
X23210535Y-22374464D02*
X23000000Y-22584999D01*
%TO.N,/P1_U3SSRX_N*%
X23000000Y-23570000D02*
X23000000Y-23915001D01*
X23210535Y-24125536D02*
X23210535Y-24306876D01*
X23210535Y-24306876D02*
X23045799Y-24471612D01*
X23000000Y-23915001D02*
X23210535Y-24125536D01*
X23045799Y-24471612D02*
X22721612Y-24471612D01*
%TO.N,/P1_U3SSTX_P*%
X19528388Y-24704201D02*
X19528388Y-25028388D01*
X21500000Y-21415001D02*
X21289465Y-21625536D01*
X21289465Y-22943124D02*
X19528388Y-24704201D01*
X21500000Y-21070000D02*
X21500000Y-21415001D01*
X21289465Y-21625536D02*
X21289465Y-22943124D01*
%TO.N,/IC1_U3SSTX_P*%
X21500000Y-20084999D02*
X21500000Y-20430000D01*
X22714465Y-18268125D02*
X21289465Y-19693125D01*
X22714465Y-17841786D02*
X22714465Y-18268125D01*
X21289465Y-19693125D02*
X21289465Y-19874464D01*
X22750000Y-17187500D02*
X22750000Y-17806251D01*
X21289465Y-19874464D02*
X21500000Y-20084999D01*
X22750000Y-17806251D02*
X22714465Y-17841786D01*
%TO.N,/P1_U3SSTX_N*%
X20960535Y-22806876D02*
X19295799Y-24471612D01*
X20750000Y-21415001D02*
X20960535Y-21625536D01*
X20750000Y-21070000D02*
X20750000Y-21415001D01*
X19295799Y-24471612D02*
X18971612Y-24471612D01*
X20960535Y-21625536D02*
X20960535Y-22806876D01*
%TO.N,/IC1_U3SSTX_N*%
X22350000Y-17187500D02*
X22350000Y-17806251D01*
X20750000Y-20084999D02*
X20750000Y-20430000D01*
X20960535Y-19874464D02*
X20750000Y-20084999D01*
X22385535Y-18131875D02*
X20960535Y-19556875D01*
X22350000Y-17806251D02*
X22385535Y-17841786D01*
X22385535Y-17841786D02*
X22385535Y-18131875D01*
X20960535Y-19556875D02*
X20960535Y-19874464D01*
D58*
%TO.N,Net-(D4-K)*%
X15675000Y-24250000D02*
X15675000Y-24425000D01*
X-6750000Y-24750000D02*
X-7453600Y-25453600D01*
X-7453600Y-25453600D02*
X-8833900Y-25453600D01*
X-8833900Y-25453600D02*
X-9537500Y-24750000D01*
X15675000Y-24425000D02*
X16250000Y-25000000D01*
%TO.N,/IC1_EED0_LED2*%
X-7962500Y-24712500D02*
X-7250000Y-24000000D01*
X35405000Y-8095000D02*
X35125000Y-8375000D01*
X-7962500Y-24750000D02*
X-7962500Y-24712500D01*
X34250000Y-9250000D02*
X35125000Y-8375000D01*
X35405000Y-8095000D02*
X35405000Y-6725000D01*
D61*
%TO.N,/IC1_U2DP*%
X24750000Y-17187500D02*
X24750000Y-17806251D01*
X39577507Y-22333363D02*
X41416637Y-22333363D01*
X35181875Y-23585535D02*
X36931875Y-21835535D01*
X25164465Y-19431875D02*
X25164465Y-22681875D01*
X36931875Y-21835535D02*
X38651398Y-21835535D01*
X24714465Y-17841786D02*
X24714465Y-18981875D01*
X38671329Y-21815604D02*
X39059748Y-21815604D01*
X26068125Y-23585535D02*
X35181875Y-23585535D01*
X24714465Y-18981875D02*
X25164465Y-19431875D01*
X25164465Y-22681875D02*
X26068125Y-23585535D01*
X24750000Y-17806251D02*
X24714465Y-17841786D01*
X38651398Y-21835535D02*
X38671329Y-21815604D01*
X39059748Y-21815604D02*
X39577507Y-22333363D01*
D58*
%TO.N,/IC1_LED1_SPISCK*%
X30993599Y-9571400D02*
X27944830Y-9571400D01*
X32865000Y-6115000D02*
X32250000Y-5500000D01*
X27671400Y-12078600D02*
X26800000Y-12950000D01*
X32865000Y-6725000D02*
X32865000Y-7699999D01*
X32282500Y-8282500D02*
X30993599Y-9571400D01*
X32865000Y-7699999D02*
X32407500Y-8157500D01*
X32407500Y-8157500D02*
X32282500Y-8282500D01*
X32865000Y-6725000D02*
X32865000Y-6115000D01*
X27944830Y-9571400D02*
X27671400Y-9844830D01*
X27671400Y-9844830D02*
X27671400Y-12078600D01*
X26800000Y-12950000D02*
X26187500Y-12950000D01*
%TO.N,/IC1_LED0_SPICSB*%
X25150000Y-11850000D02*
X25150000Y-12312500D01*
X26000000Y-11000000D02*
X25150000Y-11850000D01*
X26000000Y-11000000D02*
X26500000Y-11000000D01*
%TO.N,/IC1_EECS*%
X27881578Y-9203600D02*
X27366600Y-9718578D01*
X26500000Y-11750000D02*
X25937500Y-12312500D01*
X25937500Y-12312500D02*
X25550000Y-12312500D01*
X27366600Y-9718578D02*
X27366600Y-11633400D01*
X31595000Y-7905000D02*
X30296400Y-9203600D01*
X31595000Y-6725000D02*
X31595000Y-7905000D01*
X30296400Y-9203600D02*
X27881578Y-9203600D01*
X27250000Y-11750000D02*
X26500000Y-11750000D01*
X27366600Y-11633400D02*
X27250000Y-11750000D01*
%TO.N,/IC1_EEDI_ENSWREG*%
X33500000Y-8500000D02*
X34135000Y-7865000D01*
X34135000Y-6135000D02*
X33500000Y-5500000D01*
X26187500Y-14950000D02*
X26800000Y-14950000D01*
X34135000Y-6725000D02*
X34135000Y-6135000D01*
X34500000Y-10925000D02*
X34500000Y-10428341D01*
X33500000Y-9428341D02*
X33500000Y-8500000D01*
X34500000Y-10428341D02*
X33500000Y-9428341D01*
X34135000Y-7865000D02*
X34135000Y-6725000D01*
%TO.N,+5V*%
X55250000Y-20000000D02*
X55500000Y-19750000D01*
X55750000Y-20000000D02*
X56500000Y-20000000D01*
X54500000Y-1500000D02*
X53500000Y-1500000D01*
X55500000Y-19562500D02*
X55500000Y-19750000D01*
X51750000Y-1500000D02*
X52500000Y-1500000D01*
X50250000Y-1500000D02*
X49500000Y-1500000D01*
X52637500Y-21450000D02*
X52950000Y-21450000D01*
X54750000Y-2712500D02*
X54750000Y-1750000D01*
X55250000Y-20000000D02*
X54500000Y-20000000D01*
X51000000Y-2750000D02*
X51000000Y-1500000D01*
X51000000Y-1500000D02*
X51750000Y-1500000D01*
X55750000Y-20000000D02*
X55500000Y-19750000D01*
X52500000Y-1500000D02*
X53250000Y-1500000D01*
X54750000Y-1750000D02*
X54500000Y-1500000D01*
X52950000Y-21450000D02*
X53500000Y-22000000D01*
X49500000Y-1500000D02*
X48750000Y-1500000D01*
X51000000Y-1500000D02*
X50250000Y-1500000D01*
%TO.N,+3V3*%
X25550000Y-17800000D02*
X26250000Y-18500000D01*
X21950000Y-12312500D02*
X21562500Y-12312500D01*
X24750000Y-11775000D02*
X26500000Y-10025000D01*
X34675000Y-12575000D02*
X35250000Y-12000000D01*
X21750000Y-18000000D02*
X20975000Y-18000000D01*
X18775000Y-19475000D02*
X18500000Y-19750000D01*
X19250000Y-10025000D02*
X18275000Y-10025000D01*
X22350000Y-11375000D02*
X22237500Y-11262500D01*
X19500000Y-19475000D02*
X18775000Y-19475000D01*
X27370627Y-9029373D02*
X27370627Y-7957242D01*
X17750000Y-5325000D02*
X17750000Y-9500000D01*
X21762500Y-11262500D02*
X22237500Y-11262500D01*
X28250000Y-19500000D02*
X29000000Y-20250000D01*
X31500000Y-1000000D02*
X31595000Y-1095000D01*
X30000000Y-16225000D02*
X30025000Y-16225000D01*
X21000000Y-10500000D02*
X21762500Y-11262500D01*
X34500000Y-12575000D02*
X34675000Y-12575000D01*
X21000000Y-10000000D02*
X20580618Y-10000000D01*
X19250000Y-10025000D02*
X19275000Y-10025000D01*
X28250000Y-19475000D02*
X27275000Y-18500000D01*
X24750000Y-12312500D02*
X24750000Y-11775000D01*
X31595000Y-1775000D02*
X31595000Y-1095000D01*
X21000000Y-10025000D02*
X21000000Y-10000000D01*
X19275000Y-10025000D02*
X21562500Y-12312500D01*
X21950000Y-17800000D02*
X21750000Y-18000000D01*
X26250000Y-18500000D02*
X26750000Y-18500000D01*
X17750000Y-9500000D02*
X18250000Y-10000000D01*
X28250000Y-19475000D02*
X28250000Y-19500000D01*
X20580618Y-10000000D02*
X19997492Y-9416874D01*
X31500000Y-1000000D02*
X30750000Y-1000000D01*
X21000000Y-10000000D02*
X21000000Y-10500000D01*
X25550000Y-17187500D02*
X25550000Y-17800000D01*
X26500000Y-9900000D02*
X27370627Y-9029373D01*
X26500000Y-10025000D02*
X26500000Y-9900000D01*
X30025000Y-16225000D02*
X30750000Y-15500000D01*
X27275000Y-18500000D02*
X26750000Y-18500000D01*
X20975000Y-18000000D02*
X19500000Y-19475000D01*
X22350000Y-12312500D02*
X22350000Y-11375000D01*
X18275000Y-10025000D02*
X18250000Y-10000000D01*
X21950000Y-17187500D02*
X21950000Y-17800000D01*
D62*
%TO.N,/POE_VP*%
X14698940Y-28270000D02*
X17230000Y-28270000D01*
D58*
X50300000Y-12850000D02*
X50300000Y-13250000D01*
X53700000Y-17550000D02*
X53700000Y-18300000D01*
X49975000Y-12650000D02*
X50100000Y-12650000D01*
X50320600Y-13062244D02*
X50487756Y-13229400D01*
D62*
X12980000Y-4270000D02*
X14698940Y-4270000D01*
D58*
X49975000Y-12650000D02*
X50050000Y-12650000D01*
X49250000Y-13250000D02*
X49850000Y-12650000D01*
X56325000Y-15750000D02*
X54825000Y-17250000D01*
X50320600Y-13000000D02*
X50320600Y-13062244D01*
X49635000Y-18615000D02*
X49600000Y-18650000D01*
X53385000Y-18615000D02*
X49635000Y-18615000D01*
D62*
X17230000Y-28270000D02*
X17250000Y-28250000D01*
X13020000Y-28270000D02*
X12250000Y-27500000D01*
X12250000Y-5000000D02*
X12980000Y-4270000D01*
D58*
X49850000Y-12650000D02*
X49975000Y-12650000D01*
X54000000Y-17250000D02*
X53700000Y-17550000D01*
X49975000Y-12650000D02*
X49975000Y-12716644D01*
X50100000Y-12650000D02*
X50300000Y-12850000D01*
X54825000Y-17250000D02*
X54000000Y-17250000D01*
D62*
X12250000Y-27500000D02*
X12250000Y-5000000D01*
D58*
X53700000Y-18300000D02*
X53385000Y-18615000D01*
D62*
X14698940Y-28270000D02*
X13020000Y-28270000D01*
D59*
%TO.N,/U2_VAUX*%
X53250000Y-11000000D02*
X54000000Y-11750000D01*
X51650000Y-11000000D02*
X53250000Y-11000000D01*
X54000000Y-11750000D02*
X54725000Y-11750000D01*
%TO.N,/U2_FB*%
X51225000Y-9525000D02*
X52000000Y-8750000D01*
X54675000Y-9750000D02*
X56325000Y-8100000D01*
X56325000Y-8100000D02*
X56325000Y-7750000D01*
X51225000Y-9850000D02*
X51225000Y-9525000D01*
X53675000Y-8750000D02*
X54675000Y-9750000D01*
X52000000Y-8750000D02*
X53675000Y-8750000D01*
%TO.N,/U2_PG*%
X51650000Y-11500000D02*
X52750000Y-11500000D01*
X52750000Y-11500000D02*
X54675000Y-13425000D01*
X54675000Y-13425000D02*
X54675000Y-13750000D01*
D58*
%TO.N,/U2_EN*%
X50725000Y-12650000D02*
X50725000Y-12350001D01*
D59*
X53538970Y-14872424D02*
X54416546Y-15750000D01*
X53538970Y-13888970D02*
X53538970Y-14872424D01*
X54416546Y-15750000D02*
X54675000Y-15750000D01*
D58*
X51075001Y-12000000D02*
X51650000Y-12000000D01*
D59*
X51650000Y-12000000D02*
X53538970Y-13888970D01*
D58*
X50725000Y-12350001D02*
X51075001Y-12000000D01*
D59*
%TO.N,/U2_L1*%
X41750000Y-13750000D02*
X41000000Y-13750000D01*
X41750000Y-13750000D02*
X42500000Y-13750000D01*
X42500000Y-13750000D02*
X43999986Y-13750000D01*
X44250000Y-13000000D02*
X44250000Y-12250000D01*
X44250000Y-13000000D02*
X43999986Y-13250014D01*
X41750000Y-12750000D02*
X41750000Y-13750000D01*
X43999986Y-13250014D02*
X43999986Y-13750000D01*
%TO.N,/U2_L2*%
X44250000Y-8999956D02*
X44000044Y-8750000D01*
X41750000Y-8750000D02*
X42500000Y-8750000D01*
X44250000Y-9500000D02*
X44250000Y-8999956D01*
X41750000Y-8750000D02*
X41000000Y-8750000D01*
D58*
X48250000Y-10249998D02*
X47750000Y-9749998D01*
D59*
X44250000Y-9500000D02*
X44250000Y-10250000D01*
D58*
X48250000Y-10500000D02*
X48250000Y-10250000D01*
X48500000Y-10750000D02*
X48250000Y-10500000D01*
X48250000Y-10500000D02*
X48250000Y-10249998D01*
X48250000Y-10250000D02*
X48750000Y-9750000D01*
D59*
X41750000Y-9750000D02*
X41750000Y-8750000D01*
X42500000Y-8750000D02*
X44000044Y-8750000D01*
D58*
X49725000Y-10750000D02*
X48500000Y-10750000D01*
D59*
%TO.N,/U2_VOUT*%
X57500000Y-6750000D02*
X55000000Y-6750000D01*
D58*
X49975000Y-9850000D02*
X50500000Y-9325000D01*
X50500000Y-9325000D02*
X50500000Y-9000000D01*
X49975000Y-9850000D02*
X49500000Y-9375000D01*
X49500000Y-9375000D02*
X49500000Y-9250000D01*
D59*
X56325000Y-13750000D02*
X58000000Y-12075000D01*
X58000000Y-7250000D02*
X57500000Y-6750000D01*
X58000000Y-12075000D02*
X58000000Y-7250000D01*
D58*
%TO.N,Net-(D5-K)*%
X54750000Y-4287500D02*
X56462500Y-4287500D01*
X56462500Y-4287500D02*
X56500000Y-4325000D01*
%TO.N,/IC1_RST*%
X21444122Y-9346400D02*
X20748678Y-9346400D01*
X20000000Y-7500000D02*
X18500000Y-6000000D01*
X18500000Y-4425000D02*
X17750000Y-3675000D01*
X20000000Y-8597722D02*
X20000000Y-7500000D01*
X18500000Y-6000000D02*
X18500000Y-4425000D01*
X22750000Y-12312500D02*
X22750000Y-11147722D01*
X21703600Y-9605878D02*
X21444122Y-9346400D01*
X21703600Y-10101322D02*
X21703600Y-9605878D01*
X20748678Y-9346400D02*
X20000000Y-8597722D01*
X22750000Y-11147722D02*
X21703600Y-10101322D01*
%TO.N,/J1_LED_GN_A*%
X29825000Y-7575000D02*
X29750000Y-7500000D01*
X29825000Y-8500000D02*
X29825000Y-7575000D01*
%TO.N,/J1_LED_YL_A*%
X16175000Y-22500000D02*
X15250000Y-22500000D01*
%TO.N,/TR1_CT*%
X12920600Y-11500000D02*
X12920600Y-14500000D01*
X12925600Y-14505000D02*
X12920600Y-14500000D01*
X14750000Y-20750000D02*
X16225000Y-20750000D01*
X12920600Y-14500000D02*
X12920600Y-17500000D01*
X14200000Y-17475000D02*
X12945600Y-17475000D01*
X12945600Y-17475000D02*
X12920600Y-17500000D01*
X12955600Y-11535000D02*
X12920600Y-11500000D01*
X12920600Y-20165599D02*
X13200001Y-20445000D01*
X14200000Y-14505000D02*
X12925600Y-14505000D01*
X12920600Y-17500000D02*
X12920600Y-20165599D01*
X12920600Y-11500000D02*
X12920600Y-9079400D01*
X14200000Y-20445000D02*
X14445000Y-20445000D01*
X13200001Y-20445000D02*
X14200000Y-20445000D01*
X12920600Y-9079400D02*
X13225000Y-8775000D01*
X14200000Y-11535000D02*
X12955600Y-11535000D01*
X13225000Y-8775000D02*
X16500000Y-8775000D01*
X14445000Y-20445000D02*
X14750000Y-20750000D01*
D62*
%TO.N,/J6_DA_C*%
X6000000Y-8500000D02*
X6000000Y-6733222D01*
X8463222Y-4270000D02*
X8803600Y-4270000D01*
X4800000Y-11535000D02*
X6215000Y-11535000D01*
D58*
X2000000Y-11250000D02*
X2500000Y-11250000D01*
X2500000Y-11250000D02*
X2785000Y-11535000D01*
D62*
X6500000Y-11250000D02*
X6500000Y-9000000D01*
D58*
X1025000Y-11500000D02*
X1750000Y-11500000D01*
D62*
X6000000Y-6733222D02*
X8463222Y-4270000D01*
D58*
X1750000Y-11500000D02*
X2000000Y-11250000D01*
D62*
X6500000Y-9000000D02*
X6000000Y-8500000D01*
X6215000Y-11535000D02*
X6500000Y-11250000D01*
D58*
X2785000Y-11535000D02*
X4800000Y-11535000D01*
D62*
%TO.N,/J6_DB_C*%
X8801060Y-1730000D02*
X9860240Y-2789180D01*
D58*
X3000000Y-14500000D02*
X3500000Y-14500000D01*
D62*
X6750000Y-7000000D02*
X6750000Y-8244211D01*
D58*
X2750000Y-14750000D02*
X3000000Y-14500000D01*
D62*
X7211200Y-13543800D02*
X6250000Y-14505000D01*
X9500000Y-5250000D02*
X8500000Y-5250000D01*
X6250000Y-14505000D02*
X4800000Y-14505000D01*
D58*
X3505000Y-14505000D02*
X4800000Y-14505000D01*
D62*
X8500000Y-5250000D02*
X6750000Y-7000000D01*
X9860240Y-2789180D02*
X9860240Y-4889760D01*
X9860240Y-4889760D02*
X9500000Y-5250000D01*
X6750000Y-8244211D02*
X7211200Y-8705411D01*
X7211200Y-8705411D02*
X7211200Y-13543800D01*
D58*
X3500000Y-14500000D02*
X3505000Y-14505000D01*
X1025000Y-14750000D02*
X2750000Y-14750000D01*
D62*
%TO.N,/J6_DC_C*%
X6225000Y-17475000D02*
X4800000Y-17475000D01*
X6750000Y-22721012D02*
X6750000Y-18000000D01*
X8801060Y-25730000D02*
X8801060Y-24772072D01*
D58*
X4775000Y-17500000D02*
X4800000Y-17475000D01*
X2025000Y-17500000D02*
X4775000Y-17500000D01*
D62*
X6750000Y-18000000D02*
X6225000Y-17475000D01*
X8801060Y-24772072D02*
X6750000Y-22721012D01*
%TO.N,/J6_DD_C*%
X8604210Y-28270000D02*
X7696160Y-27361950D01*
X7696160Y-27361950D02*
X7696160Y-24946160D01*
X7696160Y-24946160D02*
X4800000Y-22050000D01*
X8803600Y-28270000D02*
X8604210Y-28270000D01*
X4800000Y-22050000D02*
X4800000Y-20445000D01*
D58*
X4745000Y-20500000D02*
X4800000Y-20445000D01*
X2025000Y-20500000D02*
X4745000Y-20500000D01*
D61*
%TO.N,/IC1_U2DN*%
X36976363Y-22256223D02*
X37061218Y-22171371D01*
X38515150Y-22164465D02*
X38746263Y-22395578D01*
X24385535Y-17841786D02*
X24385535Y-19118125D01*
X37051166Y-23179554D02*
X37136018Y-23094701D01*
X37061218Y-22171371D02*
X37068125Y-22164465D01*
X25931875Y-23914465D02*
X35318125Y-23914465D01*
X37136018Y-22755289D02*
X36976363Y-22595634D01*
X37068125Y-22164465D02*
X38515150Y-22164465D01*
X36202606Y-24028052D02*
X36287458Y-23943199D01*
X36552101Y-23019900D02*
X36711755Y-23179554D01*
X35318125Y-23914465D02*
X35364161Y-23868429D01*
X24835535Y-22818125D02*
X25931875Y-23914465D01*
X24835535Y-19568125D02*
X24835535Y-22818125D01*
X35703572Y-23868429D02*
X35863195Y-24028052D01*
X38916637Y-22565952D02*
X38916637Y-22583363D01*
X36127834Y-23104752D02*
X36212689Y-23019900D01*
X24350000Y-17187500D02*
X24350000Y-17806251D01*
X38746263Y-22395578D02*
X38916637Y-22565952D01*
X36287458Y-23603787D02*
X36127834Y-23444163D01*
X24350000Y-17806251D02*
X24385535Y-17841786D01*
X24385535Y-19118125D02*
X24835535Y-19568125D01*
X36212689Y-23019900D02*
X36212690Y-23019900D01*
X36976363Y-22595634D02*
G75*
G02*
X36976334Y-22256195I169737J169734D01*
G01*
X36212690Y-23019900D02*
G75*
G02*
X36552101Y-23019899I169706J-169707D01*
G01*
X36127834Y-23444163D02*
G75*
G02*
X36127876Y-23104795I169666J169663D01*
G01*
X36711755Y-23179554D02*
G75*
G03*
X37051166Y-23179555I169706J169707D01*
G01*
X37136018Y-23094701D02*
G75*
G03*
X37136013Y-22755294I-169718J169701D01*
G01*
X36287458Y-23943199D02*
G75*
G03*
X36287451Y-23603794I-169658J169699D01*
G01*
X35863195Y-24028052D02*
G75*
G03*
X36202606Y-24028053I169706J169707D01*
G01*
X35364161Y-23868429D02*
G75*
G02*
X35703572Y-23868428I169706J-169707D01*
G01*
%TO.N,/P1_U2DP*%
X42583363Y-21166637D02*
X41622828Y-20206102D01*
X41622828Y-20206102D02*
X41622828Y-19859761D01*
X41622828Y-19859761D02*
X41704201Y-19778388D01*
X41704201Y-19778388D02*
X42028388Y-19778388D01*
%TO.N,/A1_U2DN*%
X41000000Y-23750000D02*
X41210535Y-23960535D01*
X41210535Y-27189465D02*
X40300000Y-28100000D01*
X41210535Y-23960535D02*
X41210535Y-27189465D01*
X40500000Y-23750000D02*
X41000000Y-23750000D01*
X40416637Y-23833363D02*
X40500000Y-23750000D01*
X40083363Y-23833363D02*
X40416637Y-23833363D01*
%TO.N,/P1_U2DN*%
X40083363Y-21416637D02*
X41293898Y-20206102D01*
X41293898Y-19723513D02*
X41471612Y-19545799D01*
X41293898Y-20206102D02*
X41293898Y-19723513D01*
X41471612Y-19545799D02*
X41471612Y-19221612D01*
D63*
%TO.N,/IC1_MDI2_N*%
X20672565Y-15328816D02*
X17174070Y-15328816D01*
X15126184Y-16168816D02*
X14810000Y-16485000D01*
X21312500Y-15350000D02*
X20693749Y-15350000D01*
X15379307Y-16170539D02*
X15377584Y-16168816D01*
X20693749Y-15350000D02*
X20672565Y-15328816D01*
X16332347Y-16170539D02*
X15379307Y-16170539D01*
X14810000Y-16485000D02*
X14200000Y-16485000D01*
X17174070Y-15328816D02*
X16332347Y-16170539D01*
X15377584Y-16168816D02*
X15126184Y-16168816D01*
%TO.N,/IC1_MDI2_P*%
X14810000Y-15495000D02*
X15126184Y-15811184D01*
X20672565Y-14971184D02*
X17025930Y-14971184D01*
X15516166Y-15812907D02*
X15514443Y-15811184D01*
X17025930Y-14971184D02*
X16184207Y-15812907D01*
X15514443Y-15811184D02*
X15126184Y-15811184D01*
X21312500Y-14950000D02*
X20693749Y-14950000D01*
X14200000Y-15495000D02*
X14810000Y-15495000D01*
X16184207Y-15812907D02*
X15516166Y-15812907D01*
X20693749Y-14950000D02*
X20672565Y-14971184D01*
%TO.N,/IC1_MDI0_N*%
X14810000Y-10545000D02*
X14200000Y-10545000D01*
X17425930Y-11678816D02*
X15975930Y-10228816D01*
X21312500Y-13350000D02*
X21025000Y-13350000D01*
X20575930Y-13328816D02*
X18925930Y-11678816D01*
X21025000Y-13350000D02*
X21003816Y-13328816D01*
X15975930Y-10228816D02*
X15126184Y-10228816D01*
X18925930Y-11678816D02*
X17425930Y-11678816D01*
X15126184Y-10228816D02*
X14810000Y-10545000D01*
X21003816Y-13328816D02*
X20575930Y-13328816D01*
%TO.N,/IC1_MDI1_P*%
X15126184Y-12841184D02*
X14810000Y-12525000D01*
X14810000Y-12525000D02*
X14200000Y-12525000D01*
X20672565Y-14171184D02*
X17174070Y-14171184D01*
X15844070Y-12841184D02*
X15126184Y-12841184D01*
X21312500Y-14150000D02*
X20693749Y-14150000D01*
X20693749Y-14150000D02*
X20672565Y-14171184D01*
X17174070Y-14171184D02*
X15844070Y-12841184D01*
%TO.N,/IC1_MDI3_N*%
X14810000Y-19455000D02*
X14200000Y-19455000D01*
X21312500Y-16550000D02*
X21025000Y-16550000D01*
X18114070Y-19138816D02*
X15126184Y-19138816D01*
X21025000Y-16550000D02*
X21003816Y-16528816D01*
X20724070Y-16528816D02*
X18114070Y-19138816D01*
X21003816Y-16528816D02*
X20724070Y-16528816D01*
X15126184Y-19138816D02*
X14810000Y-19455000D01*
%TO.N,/IC1_MDI3_P*%
X21003816Y-16171184D02*
X20575930Y-16171184D01*
X20575930Y-16171184D02*
X17965930Y-18781184D01*
X15126184Y-18781184D02*
X14810000Y-18465000D01*
X17965930Y-18781184D02*
X15126184Y-18781184D01*
X21025000Y-16150000D02*
X21003816Y-16171184D01*
X14810000Y-18465000D02*
X14200000Y-18465000D01*
X21312500Y-16150000D02*
X21025000Y-16150000D01*
%TO.N,/IC1_MDI1_N*%
X17025930Y-14528816D02*
X15695930Y-13198816D01*
X21312500Y-14550000D02*
X20693749Y-14550000D01*
X14810000Y-13515000D02*
X14200000Y-13515000D01*
X20672565Y-14528816D02*
X17025930Y-14528816D01*
X15126184Y-13198816D02*
X14810000Y-13515000D01*
X20693749Y-14550000D02*
X20672565Y-14528816D01*
X15695930Y-13198816D02*
X15126184Y-13198816D01*
%TO.N,/IC1_MDI0_P*%
X21003816Y-12971184D02*
X20724070Y-12971184D01*
X15126184Y-9871184D02*
X14810000Y-9555000D01*
X19074070Y-11321184D02*
X17574070Y-11321184D01*
X21312500Y-12950000D02*
X21025000Y-12950000D01*
X21025000Y-12950000D02*
X21003816Y-12971184D01*
X20724070Y-12971184D02*
X19074070Y-11321184D01*
X16124070Y-9871184D02*
X15126184Y-9871184D01*
X14810000Y-9555000D02*
X14200000Y-9555000D01*
X17574070Y-11321184D02*
X16124070Y-9871184D01*
%TO.N,/J6_DB_P*%
X4800000Y-12525000D02*
X4483817Y-12841183D01*
X3185937Y-12841183D02*
X2945654Y-12600900D01*
X4483817Y-12841183D02*
X3185937Y-12841183D01*
%TO.N,/J6_DA_N*%
X3299999Y-10545000D02*
X4800000Y-10545000D01*
X-1975930Y-10228816D02*
X2983815Y-10228816D01*
X2983815Y-10228816D02*
X3299999Y-10545000D01*
X-4187114Y-12440000D02*
X-1975930Y-10228816D01*
X-10280000Y-12440000D02*
X-4187114Y-12440000D01*
%TO.N,/J6_DD_N*%
X2983815Y-19138816D02*
X3299999Y-19455000D01*
X-6175930Y-17428816D02*
X-4324070Y-17428816D01*
X-2614070Y-19138816D02*
X2983815Y-19138816D01*
X-4324070Y-17428816D02*
X-2614070Y-19138816D01*
X-10280000Y-18560000D02*
X-7307114Y-18560000D01*
X3299999Y-19455000D02*
X4800000Y-19455000D01*
X-7307114Y-18560000D02*
X-6175930Y-17428816D01*
%TO.N,/J6_DC_N*%
X-6198855Y-14837633D02*
X-5500745Y-14837633D01*
X3299999Y-16485000D02*
X4800000Y-16485000D01*
X-7158855Y-15077633D02*
X-7158855Y-15556543D01*
X-7837633Y-14837633D02*
X-7398855Y-14837633D01*
X-8500000Y-15500000D02*
X-7837633Y-14837633D01*
X-6918855Y-15796543D02*
X-6798855Y-15796543D01*
X-6318855Y-14837633D02*
X-6198855Y-14837633D01*
X-5500745Y-14837633D02*
X-4415253Y-14837633D01*
X-3084070Y-16168816D02*
X2983815Y-16168816D01*
X-4415253Y-14837633D02*
X-3084070Y-16168816D01*
X2983815Y-16168816D02*
X3299999Y-16485000D01*
X-6558855Y-15556543D02*
X-6558855Y-15077633D01*
X-6558855Y-15077633D02*
G75*
G02*
X-6318855Y-14837645I239955J33D01*
G01*
X-7158855Y-15556543D02*
G75*
G03*
X-6918855Y-15796455I239955J43D01*
G01*
X-6798855Y-15796543D02*
G75*
G03*
X-6558857Y-15556543I-45J240043D01*
G01*
X-7398855Y-14837633D02*
G75*
G02*
X-7158933Y-15077633I-45J-239967D01*
G01*
%TO.N,/J6_DC_P*%
X-2935930Y-15811184D02*
X2983815Y-15811184D01*
X-10280000Y-14480000D02*
X-4267114Y-14480000D01*
X-4267114Y-14480000D02*
X-2935930Y-15811184D01*
X2983815Y-15811184D02*
X3299999Y-15495000D01*
X3299999Y-15495000D02*
X4800000Y-15495000D01*
%TO.N,/J6_DD_P*%
X-4175930Y-17071184D02*
X-6324070Y-17071184D01*
X4800000Y-18465000D02*
X3299999Y-18465000D01*
X-7426318Y-17156876D02*
X-7087747Y-17495447D01*
X-2465930Y-18781184D02*
X-4175930Y-17071184D01*
X2983815Y-18781184D02*
X-2465930Y-18781184D01*
X-7087747Y-17834858D02*
X-7172599Y-17919712D01*
X3299999Y-18465000D02*
X2983815Y-18781184D01*
X-7172599Y-17919712D02*
X-7455253Y-18202367D01*
X-7341465Y-16732612D02*
X-7426318Y-16817464D01*
X-7837633Y-18202367D02*
X-8500000Y-17540000D01*
X-7455253Y-18202367D02*
X-7837633Y-18202367D01*
X-6663482Y-17071184D02*
X-7002054Y-16732612D01*
X-6324070Y-17071184D02*
G75*
G02*
X-6663482Y-17071184I-169706J169704D01*
G01*
X-7087747Y-17495447D02*
G75*
G02*
X-7087699Y-17834905I-169753J-169753D01*
G01*
X-7426318Y-16817464D02*
G75*
G03*
X-7426348Y-17156906I169718J-169736D01*
G01*
X-7002054Y-16732612D02*
G75*
G03*
X-7341466Y-16732611I-169706J-169703D01*
G01*
%TO.N,/J6_DB_N*%
X4483817Y-13198817D02*
X3185937Y-13198817D01*
X3185937Y-13198817D02*
X2945654Y-13439100D01*
X4800000Y-13515000D02*
X4483817Y-13198817D01*
%TO.N,/J6_DA_P*%
X-7837633Y-12082367D02*
X-7412157Y-12082367D01*
X-7172157Y-11842367D02*
X-7172157Y-11360039D01*
X3299999Y-9555000D02*
X4800000Y-9555000D01*
X-6332157Y-12082367D02*
X-6212157Y-12082367D01*
X-5023473Y-12082367D02*
X-4335253Y-12082367D01*
X-6212157Y-12082367D02*
X-5023473Y-12082367D01*
X-2124070Y-9871184D02*
X2983815Y-9871184D01*
X2983815Y-9871184D02*
X3299999Y-9555000D01*
X-4335253Y-12082367D02*
X-2124070Y-9871184D01*
X-6572157Y-11360039D02*
X-6572157Y-11842367D01*
X-8500000Y-11420000D02*
X-7837633Y-12082367D01*
X-6932157Y-11120039D02*
X-6812157Y-11120039D01*
X-6572157Y-11842367D02*
G75*
G03*
X-6332157Y-12082357I239957J-33D01*
G01*
X-7412157Y-12082367D02*
G75*
G03*
X-7172233Y-11842367I-43J239967D01*
G01*
X-6812157Y-11120039D02*
G75*
G02*
X-6572239Y-11360039I-43J-239961D01*
G01*
X-7172157Y-11360039D02*
G75*
G02*
X-6932157Y-11120043I239957J39D01*
G01*
D61*
%TO.N,/A1_U2DP*%
X41539465Y-27189465D02*
X41539465Y-23960535D01*
X42450000Y-28100000D02*
X41539465Y-27189465D01*
X41916637Y-23583363D02*
X42583363Y-23583363D01*
X41539465Y-23960535D02*
X41916637Y-23583363D01*
%TD*%
%TA.AperFunction,Conductor*%
%TO.N,/RPI_VBUS*%
G36*
X32145238Y-14267593D02*
G01*
X32170958Y-14312142D01*
X32172100Y-14325200D01*
X32172100Y-14785858D01*
X32172101Y-14785863D01*
X32182801Y-14859317D01*
X32182802Y-14859319D01*
X32238195Y-14972627D01*
X32327372Y-15061804D01*
X32327373Y-15061804D01*
X32327375Y-15061806D01*
X32440681Y-15117198D01*
X32514137Y-15127900D01*
X33006617Y-15127899D01*
X33054955Y-15145492D01*
X33062513Y-15152793D01*
X33150008Y-15250009D01*
X33510772Y-15650858D01*
X33526996Y-15668884D01*
X33546255Y-15716582D01*
X33546300Y-15719190D01*
X33546300Y-16270064D01*
X33558119Y-16329479D01*
X33558120Y-16329483D01*
X33603139Y-16396860D01*
X33670516Y-16441879D01*
X33670517Y-16441879D01*
X33670520Y-16441881D01*
X33729936Y-16453700D01*
X34199839Y-16453700D01*
X34248177Y-16471293D01*
X34255731Y-16478591D01*
X34281100Y-16506778D01*
X34300125Y-16527917D01*
X34317746Y-16562400D01*
X34319889Y-16572359D01*
X34319889Y-16572360D01*
X34341627Y-16618973D01*
X34341629Y-16618977D01*
X34341632Y-16618981D01*
X34383196Y-16678341D01*
X34383201Y-16678347D01*
X34439608Y-16734754D01*
X34510633Y-16805779D01*
X34580424Y-16875570D01*
X34586920Y-16881790D01*
X34586937Y-16881806D01*
X34586950Y-16881818D01*
X34591786Y-16886251D01*
X34661433Y-16928522D01*
X34709771Y-16946115D01*
X34781148Y-16958700D01*
X43382406Y-16958700D01*
X43430744Y-16976293D01*
X43435580Y-16980726D01*
X44520098Y-18065244D01*
X45330401Y-18875548D01*
X45336920Y-18881790D01*
X45336937Y-18881806D01*
X45336950Y-18881818D01*
X45341786Y-18886251D01*
X45411433Y-18928522D01*
X45459771Y-18946115D01*
X45531148Y-18958700D01*
X46960755Y-18958700D01*
X47009093Y-18976293D01*
X47034813Y-19020842D01*
X47025880Y-19071500D01*
X47013929Y-19087074D01*
X47000929Y-19100074D01*
X46954309Y-19121814D01*
X46947755Y-19122100D01*
X46441497Y-19122100D01*
X46372911Y-19132094D01*
X46267099Y-19183822D01*
X46183822Y-19267099D01*
X46132094Y-19372911D01*
X46122100Y-19441497D01*
X46122100Y-19908502D01*
X46132094Y-19977088D01*
X46183822Y-20082900D01*
X46267099Y-20166177D01*
X46267100Y-20166177D01*
X46267102Y-20166179D01*
X46372912Y-20217906D01*
X46423180Y-20225230D01*
X46441497Y-20227899D01*
X46441502Y-20227899D01*
X46441506Y-20227900D01*
X46441508Y-20227900D01*
X47058492Y-20227900D01*
X47058494Y-20227900D01*
X47058498Y-20227899D01*
X47058502Y-20227899D01*
X47071020Y-20226075D01*
X47127088Y-20217906D01*
X47232898Y-20166179D01*
X47316179Y-20082898D01*
X47367906Y-19977088D01*
X47376479Y-19918245D01*
X47377899Y-19908502D01*
X47377900Y-19908492D01*
X47377900Y-19441507D01*
X47377899Y-19441497D01*
X47374386Y-19417387D01*
X47384826Y-19367018D01*
X47395621Y-19353374D01*
X47476472Y-19272525D01*
X47523093Y-19250786D01*
X47529646Y-19250500D01*
X47821469Y-19250500D01*
X47869807Y-19268093D01*
X47895527Y-19312642D01*
X47889028Y-19358727D01*
X47882094Y-19372909D01*
X47882094Y-19372911D01*
X47872100Y-19441497D01*
X47872100Y-19908502D01*
X47882094Y-19977088D01*
X47933822Y-20082900D01*
X48017099Y-20166177D01*
X48017100Y-20166177D01*
X48017102Y-20166179D01*
X48122912Y-20217906D01*
X48173180Y-20225230D01*
X48191497Y-20227899D01*
X48191502Y-20227899D01*
X48191506Y-20227900D01*
X48697755Y-20227900D01*
X48746093Y-20245493D01*
X48750929Y-20249926D01*
X49195223Y-20694221D01*
X49195224Y-20694221D01*
X49195225Y-20694222D01*
X49254766Y-20718884D01*
X49279429Y-20729100D01*
X49279430Y-20729100D01*
X49370570Y-20729100D01*
X49504813Y-20729100D01*
X49553151Y-20746693D01*
X49573604Y-20773923D01*
X49587227Y-20804774D01*
X49595780Y-20824145D01*
X49595782Y-20824148D01*
X49675851Y-20904217D01*
X49675857Y-20904221D01*
X49680356Y-20906208D01*
X49717468Y-20941828D01*
X49723002Y-20992969D01*
X49694368Y-21035702D01*
X49680356Y-21043792D01*
X49675857Y-21045778D01*
X49675851Y-21045782D01*
X49595782Y-21125851D01*
X49595780Y-21125854D01*
X49550037Y-21229451D01*
X49547710Y-21249510D01*
X49547100Y-21254774D01*
X49547100Y-21645226D01*
X49547716Y-21650532D01*
X49550037Y-21670548D01*
X49595780Y-21774145D01*
X49595782Y-21774148D01*
X49675851Y-21854217D01*
X49675854Y-21854219D01*
X49675855Y-21854220D01*
X49779450Y-21899962D01*
X49804774Y-21902900D01*
X49804776Y-21902900D01*
X50920224Y-21902900D01*
X50920226Y-21902900D01*
X50945550Y-21899962D01*
X51049145Y-21854220D01*
X51129220Y-21774145D01*
X51174962Y-21670550D01*
X51177900Y-21645226D01*
X51177900Y-21254774D01*
X51174962Y-21229450D01*
X51129220Y-21125855D01*
X51129219Y-21125854D01*
X51129217Y-21125851D01*
X51049148Y-21045782D01*
X51049144Y-21045779D01*
X51044645Y-21043793D01*
X51007532Y-21008175D01*
X51001997Y-20957034D01*
X51030629Y-20914299D01*
X51044645Y-20906207D01*
X51047145Y-20905103D01*
X51049145Y-20904220D01*
X51129220Y-20824145D01*
X51174962Y-20720550D01*
X51177900Y-20695226D01*
X51177900Y-20304774D01*
X51174962Y-20279450D01*
X51129220Y-20175855D01*
X51129219Y-20175854D01*
X51129217Y-20175851D01*
X51049148Y-20095782D01*
X51049144Y-20095779D01*
X51044645Y-20093793D01*
X51007532Y-20058175D01*
X51001997Y-20007034D01*
X51030629Y-19964299D01*
X51044645Y-19956207D01*
X51045270Y-19955931D01*
X51049145Y-19954220D01*
X51129220Y-19874145D01*
X51174962Y-19770550D01*
X51177900Y-19745226D01*
X51177900Y-19354774D01*
X51175532Y-19334365D01*
X51187438Y-19284323D01*
X51228725Y-19253641D01*
X51250231Y-19250500D01*
X51750277Y-19250500D01*
X51798615Y-19268093D01*
X51824335Y-19312642D01*
X51824976Y-19334364D01*
X51822600Y-19354848D01*
X51822600Y-19423000D01*
X52562300Y-19423000D01*
X52610638Y-19440593D01*
X52636358Y-19485142D01*
X52637500Y-19498200D01*
X52637500Y-19601800D01*
X52619907Y-19650138D01*
X52575358Y-19675858D01*
X52562300Y-19677000D01*
X51822600Y-19677000D01*
X51822600Y-19745150D01*
X51825532Y-19770432D01*
X51871199Y-19873857D01*
X51871201Y-19873860D01*
X51951139Y-19953798D01*
X51951142Y-19953800D01*
X51955970Y-19955932D01*
X51993084Y-19991550D01*
X51998621Y-20042691D01*
X51969989Y-20085426D01*
X51955980Y-20093516D01*
X51950857Y-20095778D01*
X51950851Y-20095782D01*
X51870782Y-20175851D01*
X51870780Y-20175854D01*
X51825037Y-20279451D01*
X51822100Y-20304776D01*
X51822100Y-20695223D01*
X51825037Y-20720548D01*
X51870780Y-20824145D01*
X51870782Y-20824148D01*
X51950851Y-20904217D01*
X51950857Y-20904221D01*
X51955356Y-20906208D01*
X51992468Y-20941828D01*
X51998002Y-20992969D01*
X51969368Y-21035702D01*
X51955356Y-21043792D01*
X51950857Y-21045778D01*
X51950851Y-21045782D01*
X51870782Y-21125851D01*
X51870780Y-21125854D01*
X51825037Y-21229451D01*
X51822710Y-21249510D01*
X51822100Y-21254774D01*
X51822100Y-21645226D01*
X51822716Y-21650532D01*
X51825037Y-21670548D01*
X51870780Y-21774145D01*
X51870782Y-21774148D01*
X51950851Y-21854217D01*
X51950854Y-21854219D01*
X51950855Y-21854220D01*
X52054450Y-21899962D01*
X52079774Y-21902900D01*
X52964768Y-21902900D01*
X53013106Y-21920493D01*
X53038826Y-21965042D01*
X53039203Y-21988800D01*
X53037593Y-22000000D01*
X53056324Y-22130275D01*
X53056324Y-22130276D01*
X53056325Y-22130278D01*
X53056325Y-22130280D01*
X53110995Y-22249990D01*
X53110998Y-22249996D01*
X53178069Y-22327400D01*
X53197191Y-22349467D01*
X53307908Y-22420620D01*
X53353770Y-22434086D01*
X53434193Y-22457700D01*
X53434196Y-22457700D01*
X53565804Y-22457700D01*
X53565807Y-22457700D01*
X53692091Y-22420620D01*
X53735178Y-22392930D01*
X53802808Y-22349467D01*
X53802808Y-22349466D01*
X53802812Y-22349464D01*
X53889002Y-22249996D01*
X53943676Y-22130275D01*
X53950037Y-22086031D01*
X53974330Y-22040692D01*
X54022085Y-22021574D01*
X54070956Y-22037624D01*
X54098077Y-22081334D01*
X54099169Y-22088067D01*
X54100038Y-22095550D01*
X54145653Y-22198857D01*
X54145780Y-22199145D01*
X54145782Y-22199148D01*
X54225851Y-22279217D01*
X54225854Y-22279219D01*
X54225855Y-22279220D01*
X54329450Y-22324962D01*
X54354774Y-22327900D01*
X54354776Y-22327900D01*
X54745224Y-22327900D01*
X54745226Y-22327900D01*
X54770550Y-22324962D01*
X54874145Y-22279220D01*
X54954220Y-22199145D01*
X54999962Y-22095550D01*
X55002900Y-22070226D01*
X55002900Y-22070150D01*
X55997600Y-22070150D01*
X56000532Y-22095432D01*
X56046199Y-22198857D01*
X56046201Y-22198860D01*
X56126139Y-22278798D01*
X56126142Y-22278800D01*
X56229567Y-22324467D01*
X56254850Y-22327400D01*
X56323000Y-22327400D01*
X56577000Y-22327400D01*
X56645150Y-22327400D01*
X56670432Y-22324467D01*
X56773857Y-22278800D01*
X56773860Y-22278798D01*
X56853798Y-22198860D01*
X56853800Y-22198857D01*
X56899467Y-22095432D01*
X56902400Y-22070150D01*
X56902400Y-21564500D01*
X56577000Y-21564500D01*
X56577000Y-22327400D01*
X56323000Y-22327400D01*
X56323000Y-21564500D01*
X55997600Y-21564500D01*
X55997600Y-22070150D01*
X55002900Y-22070150D01*
X55002900Y-20804774D01*
X54999962Y-20779450D01*
X54954220Y-20675855D01*
X54954219Y-20675854D01*
X54954217Y-20675851D01*
X54874148Y-20595782D01*
X54874145Y-20595780D01*
X54770548Y-20550037D01*
X54749765Y-20547626D01*
X54745226Y-20547100D01*
X54745225Y-20547100D01*
X54743069Y-20546850D01*
X54743205Y-20545675D01*
X54699473Y-20526826D01*
X54676373Y-20480864D01*
X54688221Y-20430807D01*
X54710405Y-20408850D01*
X54780235Y-20363972D01*
X54830407Y-20352641D01*
X54874062Y-20374062D01*
X55000000Y-20500000D01*
X56040793Y-20500000D01*
X56089131Y-20517593D01*
X56114851Y-20562142D01*
X56105918Y-20612800D01*
X56093967Y-20628374D01*
X56046201Y-20676139D01*
X56046199Y-20676142D01*
X56000532Y-20779567D01*
X55997600Y-20804849D01*
X55997600Y-21310500D01*
X56902400Y-21310500D01*
X56902400Y-20804849D01*
X56899467Y-20779567D01*
X56853800Y-20676142D01*
X56853798Y-20676139D01*
X56806033Y-20628374D01*
X56784293Y-20581754D01*
X56797607Y-20532067D01*
X56839744Y-20502562D01*
X56859207Y-20500000D01*
X56968852Y-20500000D01*
X57017190Y-20517593D01*
X57022026Y-20522026D01*
X57227974Y-20727974D01*
X57249714Y-20774594D01*
X57250000Y-20781148D01*
X57250000Y-24718852D01*
X57232407Y-24767190D01*
X57227974Y-24772026D01*
X57022026Y-24977974D01*
X56975406Y-24999714D01*
X56968852Y-25000000D01*
X45781148Y-25000000D01*
X45732810Y-24982407D01*
X45727974Y-24977974D01*
X44450000Y-23700000D01*
X52792750Y-23700000D01*
X52812103Y-23896503D01*
X52869419Y-24085451D01*
X52869424Y-24085463D01*
X52962499Y-24259593D01*
X52962507Y-24259605D01*
X53006807Y-24313585D01*
X53006808Y-24313585D01*
X53441439Y-23878954D01*
X53479920Y-23945606D01*
X53554394Y-24020080D01*
X53621043Y-24058560D01*
X53186413Y-24493190D01*
X53240400Y-24537496D01*
X53240406Y-24537500D01*
X53414536Y-24630575D01*
X53414548Y-24630580D01*
X53603497Y-24687896D01*
X53603496Y-24687896D01*
X53800000Y-24707249D01*
X53996503Y-24687896D01*
X54185451Y-24630580D01*
X54185463Y-24630575D01*
X54359593Y-24537500D01*
X54359599Y-24537496D01*
X54413585Y-24493190D01*
X53978955Y-24058560D01*
X54045606Y-24020080D01*
X54120080Y-23945606D01*
X54158560Y-23878955D01*
X54593190Y-24313585D01*
X54637496Y-24259599D01*
X54637500Y-24259593D01*
X54730575Y-24085463D01*
X54730580Y-24085451D01*
X54787896Y-23896503D01*
X54807249Y-23700000D01*
X54787896Y-23503496D01*
X54730580Y-23314548D01*
X54730575Y-23314536D01*
X54637500Y-23140406D01*
X54637496Y-23140400D01*
X54593190Y-23086413D01*
X54158560Y-23521043D01*
X54120080Y-23454394D01*
X54045606Y-23379920D01*
X53978955Y-23341439D01*
X54413585Y-22906808D01*
X54413585Y-22906807D01*
X54359605Y-22862507D01*
X54359593Y-22862499D01*
X54185463Y-22769424D01*
X54185451Y-22769419D01*
X53996502Y-22712103D01*
X53996503Y-22712103D01*
X53800000Y-22692750D01*
X53603496Y-22712103D01*
X53414548Y-22769419D01*
X53414536Y-22769424D01*
X53240411Y-22862496D01*
X53240401Y-22862503D01*
X53186413Y-22906808D01*
X53621044Y-23341439D01*
X53554394Y-23379920D01*
X53479920Y-23454394D01*
X53441439Y-23521044D01*
X53006808Y-23086413D01*
X52962503Y-23140401D01*
X52962496Y-23140411D01*
X52869424Y-23314536D01*
X52869419Y-23314548D01*
X52812103Y-23503496D01*
X52792750Y-23700000D01*
X44450000Y-23700000D01*
X43522026Y-22772026D01*
X43500286Y-22725406D01*
X43500000Y-22718852D01*
X43500000Y-21091497D01*
X46122100Y-21091497D01*
X46122100Y-21558502D01*
X46132094Y-21627088D01*
X46183822Y-21732900D01*
X46267099Y-21816177D01*
X46267100Y-21816177D01*
X46267102Y-21816179D01*
X46372912Y-21867906D01*
X46423180Y-21875230D01*
X46441497Y-21877899D01*
X46441502Y-21877899D01*
X46441506Y-21877900D01*
X46445700Y-21877900D01*
X46494038Y-21895493D01*
X46519758Y-21940042D01*
X46520900Y-21953100D01*
X46520900Y-22045571D01*
X46528534Y-22064000D01*
X46547215Y-22109102D01*
X46552174Y-22148580D01*
X46537593Y-22249998D01*
X46537593Y-22250000D01*
X46556324Y-22380275D01*
X46556324Y-22380276D01*
X46556325Y-22380278D01*
X46556325Y-22380280D01*
X46605342Y-22487612D01*
X46610998Y-22499996D01*
X46664385Y-22561608D01*
X46697191Y-22599467D01*
X46807908Y-22670620D01*
X46897742Y-22696997D01*
X46934193Y-22707700D01*
X46934196Y-22707700D01*
X47065804Y-22707700D01*
X47065807Y-22707700D01*
X47192091Y-22670620D01*
X47243854Y-22637354D01*
X47302808Y-22599467D01*
X47302808Y-22599466D01*
X47302812Y-22599464D01*
X47389002Y-22499996D01*
X47443676Y-22380275D01*
X47462407Y-22250000D01*
X47443676Y-22119725D01*
X47443674Y-22119720D01*
X47443674Y-22119719D01*
X47404141Y-22033156D01*
X47389002Y-22000004D01*
X47302812Y-21900536D01*
X47287398Y-21890630D01*
X47256247Y-21849697D01*
X47258695Y-21798315D01*
X47274879Y-21774197D01*
X47316179Y-21732898D01*
X47367906Y-21627088D01*
X47377025Y-21564500D01*
X47377899Y-21558502D01*
X47377900Y-21558492D01*
X47377900Y-21091507D01*
X47377899Y-21091497D01*
X47872100Y-21091497D01*
X47872100Y-21558502D01*
X47882094Y-21627088D01*
X47933822Y-21732900D01*
X48017099Y-21816177D01*
X48017100Y-21816177D01*
X48017102Y-21816179D01*
X48122912Y-21867906D01*
X48173180Y-21875230D01*
X48191497Y-21877899D01*
X48191502Y-21877899D01*
X48191506Y-21877900D01*
X48195700Y-21877900D01*
X48244038Y-21895493D01*
X48269758Y-21940042D01*
X48270900Y-21953100D01*
X48270900Y-22045571D01*
X48278534Y-22064000D01*
X48297215Y-22109102D01*
X48302174Y-22148580D01*
X48287593Y-22249998D01*
X48287593Y-22250000D01*
X48306324Y-22380275D01*
X48306324Y-22380276D01*
X48306325Y-22380278D01*
X48306325Y-22380280D01*
X48355342Y-22487612D01*
X48360998Y-22499996D01*
X48414385Y-22561608D01*
X48447191Y-22599467D01*
X48557908Y-22670620D01*
X48647742Y-22696997D01*
X48684193Y-22707700D01*
X48684196Y-22707700D01*
X48815804Y-22707700D01*
X48815807Y-22707700D01*
X48942091Y-22670620D01*
X48993854Y-22637354D01*
X49052808Y-22599467D01*
X49052808Y-22599466D01*
X49052812Y-22599464D01*
X49139002Y-22499996D01*
X49193676Y-22380275D01*
X49212407Y-22250000D01*
X49193676Y-22119725D01*
X49193674Y-22119720D01*
X49193674Y-22119719D01*
X49154141Y-22033156D01*
X49139002Y-22000004D01*
X49052812Y-21900536D01*
X49037398Y-21890630D01*
X49006247Y-21849697D01*
X49008695Y-21798315D01*
X49024879Y-21774197D01*
X49066179Y-21732898D01*
X49117906Y-21627088D01*
X49127025Y-21564500D01*
X49127899Y-21558502D01*
X49127900Y-21558492D01*
X49127900Y-21091507D01*
X49127899Y-21091497D01*
X49125230Y-21073180D01*
X49117906Y-21022912D01*
X49066179Y-20917102D01*
X49066177Y-20917100D01*
X49066177Y-20917099D01*
X48982900Y-20833822D01*
X48963105Y-20824145D01*
X48877088Y-20782094D01*
X48808502Y-20772100D01*
X48808494Y-20772100D01*
X48191506Y-20772100D01*
X48191497Y-20772100D01*
X48122911Y-20782094D01*
X48017099Y-20833822D01*
X47933822Y-20917099D01*
X47882094Y-21022911D01*
X47872100Y-21091497D01*
X47377899Y-21091497D01*
X47375230Y-21073180D01*
X47367906Y-21022912D01*
X47316179Y-20917102D01*
X47316177Y-20917100D01*
X47316177Y-20917099D01*
X47232900Y-20833822D01*
X47213105Y-20824145D01*
X47127088Y-20782094D01*
X47058502Y-20772100D01*
X47058494Y-20772100D01*
X46441506Y-20772100D01*
X46441497Y-20772100D01*
X46372911Y-20782094D01*
X46267099Y-20833822D01*
X46183822Y-20917099D01*
X46132094Y-21022911D01*
X46122100Y-21091497D01*
X43500000Y-21091497D01*
X43500000Y-19500000D01*
X42000000Y-18000000D01*
X41250000Y-18000000D01*
X40772026Y-18477974D01*
X40725406Y-18499714D01*
X40718852Y-18500000D01*
X34000000Y-18500000D01*
X32772026Y-19727974D01*
X32725406Y-19749714D01*
X32718852Y-19750000D01*
X32452600Y-19750000D01*
X32404262Y-19732407D01*
X32378542Y-19687858D01*
X32377400Y-19674800D01*
X32377400Y-19602000D01*
X31825200Y-19602000D01*
X31776862Y-19584407D01*
X31751142Y-19539858D01*
X31750000Y-19526800D01*
X31750000Y-19475000D01*
X31698200Y-19475000D01*
X31649862Y-19457407D01*
X31624142Y-19412858D01*
X31623000Y-19399800D01*
X31623000Y-19348000D01*
X31877000Y-19348000D01*
X32377399Y-19348000D01*
X32377399Y-19214189D01*
X32377398Y-19214184D01*
X32366712Y-19140826D01*
X32366711Y-19140824D01*
X32311391Y-19027667D01*
X32222332Y-18938608D01*
X32109174Y-18883287D01*
X32035825Y-18872600D01*
X31877000Y-18872600D01*
X31877000Y-19348000D01*
X31623000Y-19348000D01*
X31623000Y-18872600D01*
X31575200Y-18872600D01*
X31526862Y-18855007D01*
X31501142Y-18810458D01*
X31500000Y-18797400D01*
X31500000Y-18453099D01*
X31517593Y-18404761D01*
X31562142Y-18379041D01*
X31575190Y-18377899D01*
X32035862Y-18377899D01*
X32109319Y-18367198D01*
X32222625Y-18311806D01*
X32311806Y-18222625D01*
X32367198Y-18109319D01*
X32371560Y-18079380D01*
X32377899Y-18035873D01*
X32377899Y-18035869D01*
X32377900Y-18035863D01*
X32377899Y-17532899D01*
X32395492Y-17484562D01*
X32440041Y-17458842D01*
X32453099Y-17457700D01*
X32565804Y-17457700D01*
X32565807Y-17457700D01*
X32692091Y-17420620D01*
X32802808Y-17349467D01*
X32802808Y-17349466D01*
X32802812Y-17349464D01*
X32889002Y-17249996D01*
X32943676Y-17130275D01*
X32962407Y-17000000D01*
X32943676Y-16869725D01*
X32943674Y-16869720D01*
X32943674Y-16869719D01*
X32889004Y-16750009D01*
X32889002Y-16750004D01*
X32802812Y-16650536D01*
X32802810Y-16650535D01*
X32802808Y-16650532D01*
X32692091Y-16579379D01*
X32565809Y-16542300D01*
X32565807Y-16542300D01*
X32453100Y-16542300D01*
X32404762Y-16524707D01*
X32379042Y-16480158D01*
X32377900Y-16467100D01*
X32377899Y-15964141D01*
X32377899Y-15964138D01*
X32367198Y-15890681D01*
X32311806Y-15777375D01*
X32311804Y-15777373D01*
X32311804Y-15777372D01*
X32222627Y-15688195D01*
X32193918Y-15674160D01*
X32109319Y-15632802D01*
X32109318Y-15632801D01*
X32035867Y-15622100D01*
X31464141Y-15622100D01*
X31464136Y-15622101D01*
X31390682Y-15632801D01*
X31390677Y-15632803D01*
X31306079Y-15674160D01*
X31254926Y-15679584D01*
X31212254Y-15650858D01*
X31198030Y-15601424D01*
X31198615Y-15595917D01*
X31212407Y-15500000D01*
X31193676Y-15369725D01*
X31193674Y-15369720D01*
X31193674Y-15369719D01*
X31139004Y-15250009D01*
X31139002Y-15250004D01*
X31108897Y-15215261D01*
X31090539Y-15167211D01*
X31098000Y-15145654D01*
X31098000Y-15127399D01*
X31352000Y-15127399D01*
X31485811Y-15127399D01*
X31485815Y-15127398D01*
X31559173Y-15116712D01*
X31559175Y-15116711D01*
X31672332Y-15061391D01*
X31761391Y-14972332D01*
X31816712Y-14859174D01*
X31827399Y-14785825D01*
X31827400Y-14785813D01*
X31827400Y-14627000D01*
X31352000Y-14627000D01*
X31352000Y-15127399D01*
X31098000Y-15127399D01*
X31098000Y-14575200D01*
X31115593Y-14526862D01*
X31160142Y-14501142D01*
X31173200Y-14500000D01*
X31225000Y-14500000D01*
X31225000Y-14448200D01*
X31242593Y-14399862D01*
X31287142Y-14374142D01*
X31300200Y-14373000D01*
X31827399Y-14373000D01*
X31827399Y-14325200D01*
X31844992Y-14276862D01*
X31889541Y-14251142D01*
X31902599Y-14250000D01*
X32096900Y-14250000D01*
X32145238Y-14267593D01*
G37*
%TD.AperFunction*%
%TD*%
%TA.AperFunction,Conductor*%
%TO.N,/U2_VOUT*%
G36*
X44017190Y-2017593D02*
G01*
X44022026Y-2022026D01*
X44477974Y-2477974D01*
X44499714Y-2524594D01*
X44500000Y-2531148D01*
X44500000Y-3500000D01*
X45250000Y-4250000D01*
X47218852Y-4250000D01*
X47267190Y-4267593D01*
X47272026Y-4272026D01*
X49000000Y-6000000D01*
X54968852Y-6000000D01*
X55017190Y-6017593D01*
X55022026Y-6022026D01*
X55227974Y-6227974D01*
X55249714Y-6274594D01*
X55250000Y-6281148D01*
X55250000Y-7170082D01*
X55232407Y-7218420D01*
X55187858Y-7244140D01*
X55137200Y-7235207D01*
X55121626Y-7223256D01*
X55082605Y-7184235D01*
X54976942Y-7132580D01*
X54976943Y-7132580D01*
X54908454Y-7122600D01*
X54802000Y-7122600D01*
X54802000Y-7674800D01*
X54784407Y-7723138D01*
X54739858Y-7748858D01*
X54726800Y-7750000D01*
X54675000Y-7750000D01*
X54675000Y-7801800D01*
X54657407Y-7850138D01*
X54612858Y-7875858D01*
X54599800Y-7877000D01*
X54122600Y-7877000D01*
X54122600Y-8058454D01*
X54132580Y-8126942D01*
X54184235Y-8232605D01*
X54267394Y-8315764D01*
X54352236Y-8357241D01*
X54387935Y-8394277D01*
X54391476Y-8445594D01*
X54361202Y-8487182D01*
X54319208Y-8500000D01*
X53821937Y-8500000D01*
X53787690Y-8490823D01*
X53787592Y-8491061D01*
X53785790Y-8490315D01*
X53784339Y-8489926D01*
X53783039Y-8489176D01*
X53783038Y-8489175D01*
X53783037Y-8489175D01*
X53711850Y-8470100D01*
X52036851Y-8470100D01*
X51963150Y-8470100D01*
X51891963Y-8489175D01*
X51891962Y-8489175D01*
X51891960Y-8489176D01*
X51890661Y-8489926D01*
X51889209Y-8490315D01*
X51887408Y-8491061D01*
X51887309Y-8490823D01*
X51853063Y-8500000D01*
X51499998Y-8500000D01*
X50622088Y-9377910D01*
X50583581Y-9398492D01*
X50557582Y-9403662D01*
X50506741Y-9395834D01*
X50501136Y-9392432D01*
X50448795Y-9357458D01*
X50448790Y-9357456D01*
X50399237Y-9347600D01*
X50102000Y-9347600D01*
X50102000Y-9774800D01*
X50084407Y-9823138D01*
X50039858Y-9848858D01*
X50026800Y-9850000D01*
X49923200Y-9850000D01*
X49874862Y-9832407D01*
X49849142Y-9787858D01*
X49848000Y-9774800D01*
X49848000Y-9347600D01*
X49550763Y-9347600D01*
X49501209Y-9357456D01*
X49501207Y-9357457D01*
X49445009Y-9395009D01*
X49407457Y-9451207D01*
X49407456Y-9451209D01*
X49396879Y-9504388D01*
X49395862Y-9504185D01*
X49375371Y-9546892D01*
X49328514Y-9568116D01*
X49278977Y-9554254D01*
X49269613Y-9546308D01*
X48633699Y-8910394D01*
X48628730Y-8905636D01*
X48628723Y-8905629D01*
X48623887Y-8901196D01*
X48623885Y-8901194D01*
X48571191Y-8869214D01*
X48522856Y-8851622D01*
X48468856Y-8842100D01*
X48468852Y-8842100D01*
X47150507Y-8842100D01*
X47102169Y-8824507D01*
X47076449Y-8779958D01*
X47083504Y-8732759D01*
X47112475Y-8675901D01*
X47112475Y-8675900D01*
X47127399Y-8581671D01*
X47127400Y-8581664D01*
X47127400Y-8427000D01*
X45372600Y-8427000D01*
X45372600Y-8581671D01*
X45387524Y-8675900D01*
X45387524Y-8675901D01*
X45416496Y-8732759D01*
X45422766Y-8783816D01*
X45394750Y-8826957D01*
X45349493Y-8842100D01*
X45346552Y-8842100D01*
X45298214Y-8824507D01*
X45293378Y-8820074D01*
X44633699Y-8160394D01*
X44628730Y-8155636D01*
X44628723Y-8155629D01*
X44623887Y-8151196D01*
X44623885Y-8151194D01*
X44571191Y-8119214D01*
X44522856Y-8101622D01*
X44468856Y-8092100D01*
X44468852Y-8092100D01*
X42623248Y-8092100D01*
X42574910Y-8074507D01*
X42570074Y-8070074D01*
X42518328Y-8018328D01*
X45372600Y-8018328D01*
X45372600Y-8173000D01*
X46123000Y-8173000D01*
X46377000Y-8173000D01*
X47127400Y-8173000D01*
X47127400Y-8018336D01*
X47127399Y-8018328D01*
X47112475Y-7924100D01*
X47054605Y-7810525D01*
X46964474Y-7720394D01*
X46937541Y-7706671D01*
X48722600Y-7706671D01*
X48737524Y-7800899D01*
X48795394Y-7914474D01*
X48885525Y-8004605D01*
X48999101Y-8062475D01*
X48999099Y-8062475D01*
X49093328Y-8077399D01*
X49093336Y-8077400D01*
X50873000Y-8077400D01*
X51127000Y-8077400D01*
X52906664Y-8077400D01*
X52906671Y-8077399D01*
X53000899Y-8062475D01*
X53114474Y-8004605D01*
X53204605Y-7914474D01*
X53262475Y-7800899D01*
X53277399Y-7706671D01*
X53277400Y-7706664D01*
X53277400Y-7441545D01*
X54122600Y-7441545D01*
X54122600Y-7623000D01*
X54548000Y-7623000D01*
X54548000Y-7122600D01*
X54441545Y-7122600D01*
X54373057Y-7132580D01*
X54267394Y-7184235D01*
X54184235Y-7267394D01*
X54132580Y-7373057D01*
X54122600Y-7441545D01*
X53277400Y-7441545D01*
X53277400Y-7377000D01*
X51127000Y-7377000D01*
X51127000Y-8077400D01*
X50873000Y-8077400D01*
X50873000Y-7377000D01*
X48722600Y-7377000D01*
X48722600Y-7706671D01*
X46937541Y-7706671D01*
X46850898Y-7662524D01*
X46850900Y-7662524D01*
X46756671Y-7647600D01*
X46377000Y-7647600D01*
X46377000Y-8173000D01*
X46123000Y-8173000D01*
X46123000Y-7647600D01*
X45743328Y-7647600D01*
X45649100Y-7662524D01*
X45535525Y-7720394D01*
X45445394Y-7810525D01*
X45387524Y-7924100D01*
X45372600Y-8018328D01*
X42518328Y-8018328D01*
X42022026Y-7522026D01*
X42000286Y-7475406D01*
X42000000Y-7468852D01*
X42000000Y-7431671D01*
X42497600Y-7431671D01*
X42512524Y-7525899D01*
X42570394Y-7639474D01*
X42660525Y-7729605D01*
X42774101Y-7787475D01*
X42774099Y-7787475D01*
X42868328Y-7802399D01*
X42868336Y-7802400D01*
X43098000Y-7802400D01*
X43352000Y-7802400D01*
X43581664Y-7802400D01*
X43581671Y-7802399D01*
X43675899Y-7787475D01*
X43789474Y-7729605D01*
X43879605Y-7639474D01*
X43937475Y-7525899D01*
X43952399Y-7431671D01*
X43952400Y-7431664D01*
X43952400Y-6877000D01*
X43352000Y-6877000D01*
X43352000Y-7802400D01*
X43098000Y-7802400D01*
X43098000Y-6877000D01*
X42497600Y-6877000D01*
X42497600Y-7431671D01*
X42000000Y-7431671D01*
X42000000Y-6793328D01*
X48722600Y-6793328D01*
X48722600Y-7123000D01*
X50873000Y-7123000D01*
X51127000Y-7123000D01*
X53277400Y-7123000D01*
X53277400Y-6793336D01*
X53277399Y-6793328D01*
X53262475Y-6699100D01*
X53204605Y-6585525D01*
X53114474Y-6495394D01*
X53000898Y-6437524D01*
X53000900Y-6437524D01*
X52906671Y-6422600D01*
X51127000Y-6422600D01*
X51127000Y-7123000D01*
X50873000Y-7123000D01*
X50873000Y-6422600D01*
X49093328Y-6422600D01*
X48999100Y-6437524D01*
X48885525Y-6495394D01*
X48795394Y-6585525D01*
X48737524Y-6699100D01*
X48722600Y-6793328D01*
X42000000Y-6793328D01*
X42000000Y-6068328D01*
X42497600Y-6068328D01*
X42497600Y-6623000D01*
X43098000Y-6623000D01*
X43352000Y-6623000D01*
X43952400Y-6623000D01*
X43952400Y-6081671D01*
X45197600Y-6081671D01*
X45212524Y-6175899D01*
X45270394Y-6289474D01*
X45360525Y-6379605D01*
X45474101Y-6437475D01*
X45474099Y-6437475D01*
X45568328Y-6452399D01*
X45568336Y-6452400D01*
X46123000Y-6452400D01*
X46377000Y-6452400D01*
X46931664Y-6452400D01*
X46931671Y-6452399D01*
X47025899Y-6437475D01*
X47139474Y-6379605D01*
X47229605Y-6289474D01*
X47287475Y-6175899D01*
X47302399Y-6081671D01*
X47302400Y-6081664D01*
X47302400Y-5852000D01*
X46377000Y-5852000D01*
X46377000Y-6452400D01*
X46123000Y-6452400D01*
X46123000Y-5852000D01*
X45197600Y-5852000D01*
X45197600Y-6081671D01*
X43952400Y-6081671D01*
X43952400Y-6068336D01*
X43952399Y-6068328D01*
X43937475Y-5974100D01*
X43879605Y-5860525D01*
X43789474Y-5770394D01*
X43675898Y-5712524D01*
X43675900Y-5712524D01*
X43581671Y-5697600D01*
X43352000Y-5697600D01*
X43352000Y-6623000D01*
X43098000Y-6623000D01*
X43098000Y-5697600D01*
X42868328Y-5697600D01*
X42774100Y-5712524D01*
X42660525Y-5770394D01*
X42570394Y-5860525D01*
X42512524Y-5974100D01*
X42497600Y-6068328D01*
X42000000Y-6068328D01*
X42000000Y-5368328D01*
X45197600Y-5368328D01*
X45197600Y-5598000D01*
X46123000Y-5598000D01*
X46377000Y-5598000D01*
X47302400Y-5598000D01*
X47302400Y-5368336D01*
X47302399Y-5368328D01*
X47287475Y-5274100D01*
X47229605Y-5160525D01*
X47139474Y-5070394D01*
X47025898Y-5012524D01*
X47025900Y-5012524D01*
X46931671Y-4997600D01*
X46377000Y-4997600D01*
X46377000Y-5598000D01*
X46123000Y-5598000D01*
X46123000Y-4997600D01*
X45568328Y-4997600D01*
X45474100Y-5012524D01*
X45360525Y-5070394D01*
X45270394Y-5160525D01*
X45212524Y-5274100D01*
X45197600Y-5368328D01*
X42000000Y-5368328D01*
X42000000Y-4431671D01*
X42497600Y-4431671D01*
X42512524Y-4525899D01*
X42570394Y-4639474D01*
X42660525Y-4729605D01*
X42774101Y-4787475D01*
X42774099Y-4787475D01*
X42868328Y-4802399D01*
X42868336Y-4802400D01*
X43098000Y-4802400D01*
X43352000Y-4802400D01*
X43581664Y-4802400D01*
X43581671Y-4802399D01*
X43675899Y-4787475D01*
X43789474Y-4729605D01*
X43879605Y-4639474D01*
X43937475Y-4525899D01*
X43952399Y-4431671D01*
X43952400Y-4431664D01*
X43952400Y-3877000D01*
X43352000Y-3877000D01*
X43352000Y-4802400D01*
X43098000Y-4802400D01*
X43098000Y-3877000D01*
X42497600Y-3877000D01*
X42497600Y-4431671D01*
X42000000Y-4431671D01*
X42000000Y-3068328D01*
X42497600Y-3068328D01*
X42497600Y-3623000D01*
X43098000Y-3623000D01*
X43352000Y-3623000D01*
X43952400Y-3623000D01*
X43952400Y-3068336D01*
X43952399Y-3068328D01*
X43937475Y-2974100D01*
X43879605Y-2860525D01*
X43789474Y-2770394D01*
X43675898Y-2712524D01*
X43675900Y-2712524D01*
X43581671Y-2697600D01*
X43352000Y-2697600D01*
X43352000Y-3623000D01*
X43098000Y-3623000D01*
X43098000Y-2697600D01*
X42868328Y-2697600D01*
X42774100Y-2712524D01*
X42660525Y-2770394D01*
X42570394Y-2860525D01*
X42512524Y-2974100D01*
X42497600Y-3068328D01*
X42000000Y-3068328D01*
X42000000Y-2281148D01*
X42017593Y-2232810D01*
X42022026Y-2227974D01*
X42227974Y-2022026D01*
X42274594Y-2000286D01*
X42281148Y-2000000D01*
X43968852Y-2000000D01*
X44017190Y-2017593D01*
G37*
%TD.AperFunction*%
%TD*%
%TA.AperFunction,Conductor*%
%TO.N,/POE_VP*%
G36*
X29267190Y-267593D02*
G01*
X29272026Y-272026D01*
X29465460Y-465460D01*
X29486720Y-507931D01*
X29507080Y-649531D01*
X29507082Y-649539D01*
X29567822Y-782540D01*
X29567823Y-782541D01*
X29567824Y-782543D01*
X29630839Y-855266D01*
X29663579Y-893050D01*
X29663581Y-893051D01*
X29786588Y-972104D01*
X29881594Y-1000000D01*
X29926889Y-1013300D01*
X29926892Y-1013300D01*
X29982152Y-1013300D01*
X30030490Y-1030893D01*
X30035326Y-1035326D01*
X31069274Y-2069274D01*
X31091014Y-2115894D01*
X31091300Y-2122448D01*
X31091300Y-2633566D01*
X31091301Y-2633578D01*
X31101316Y-2702317D01*
X31101317Y-2702320D01*
X31126662Y-2754164D01*
X31153161Y-2808369D01*
X31153162Y-2808370D01*
X31153163Y-2808372D01*
X31236627Y-2891836D01*
X31236628Y-2891836D01*
X31236631Y-2891839D01*
X31342681Y-2943683D01*
X31411431Y-2953700D01*
X31778568Y-2953699D01*
X31778571Y-2953698D01*
X31778578Y-2953698D01*
X31820548Y-2947583D01*
X31847319Y-2943683D01*
X31953369Y-2891839D01*
X32036839Y-2808369D01*
X32044756Y-2792173D01*
X32081791Y-2756474D01*
X32112316Y-2750000D01*
X32347684Y-2750000D01*
X32396022Y-2767593D01*
X32415244Y-2792174D01*
X32423161Y-2808370D01*
X32506627Y-2891836D01*
X32506628Y-2891836D01*
X32506631Y-2891839D01*
X32612681Y-2943683D01*
X32681431Y-2953700D01*
X33048568Y-2953699D01*
X33048571Y-2953698D01*
X33048578Y-2953698D01*
X33090548Y-2947583D01*
X33117319Y-2943683D01*
X33223369Y-2891839D01*
X33306839Y-2808369D01*
X33314756Y-2792173D01*
X33351791Y-2756474D01*
X33382316Y-2750000D01*
X33617684Y-2750000D01*
X33666022Y-2767593D01*
X33685244Y-2792174D01*
X33693161Y-2808370D01*
X33776627Y-2891836D01*
X33776628Y-2891836D01*
X33776631Y-2891839D01*
X33882681Y-2943683D01*
X33951431Y-2953700D01*
X34318568Y-2953699D01*
X34318571Y-2953698D01*
X34318578Y-2953698D01*
X34360548Y-2947583D01*
X34387319Y-2943683D01*
X34493369Y-2891839D01*
X34576839Y-2808369D01*
X34584756Y-2792173D01*
X34621791Y-2756474D01*
X34652316Y-2750000D01*
X34887684Y-2750000D01*
X34936022Y-2767593D01*
X34955244Y-2792174D01*
X34963161Y-2808370D01*
X35046627Y-2891836D01*
X35046628Y-2891836D01*
X35046631Y-2891839D01*
X35152681Y-2943683D01*
X35221431Y-2953700D01*
X35588568Y-2953699D01*
X35588571Y-2953698D01*
X35588578Y-2953698D01*
X35630548Y-2947583D01*
X35657319Y-2943683D01*
X35763369Y-2891839D01*
X35846839Y-2808369D01*
X35854756Y-2792173D01*
X35891791Y-2756474D01*
X35922316Y-2750000D01*
X38718852Y-2750000D01*
X38767190Y-2767593D01*
X38772026Y-2772026D01*
X39227974Y-3227974D01*
X39249714Y-3274594D01*
X39250000Y-3281148D01*
X39250000Y-4502357D01*
X39236565Y-4541940D01*
X39237839Y-4542676D01*
X39235374Y-4546944D01*
X39235374Y-4546945D01*
X39223627Y-4567290D01*
X39191836Y-4622353D01*
X39191835Y-4622355D01*
X39169300Y-4706463D01*
X39169300Y-4827098D01*
X39151707Y-4875436D01*
X39150933Y-4876343D01*
X39067822Y-4972259D01*
X39007082Y-5105260D01*
X39007082Y-5105262D01*
X39007081Y-5105264D01*
X39007081Y-5105266D01*
X38986271Y-5250000D01*
X39007081Y-5394734D01*
X39007081Y-5394735D01*
X39007082Y-5394737D01*
X39007082Y-5394739D01*
X39067822Y-5527740D01*
X39067823Y-5527741D01*
X39067824Y-5527743D01*
X39150933Y-5623655D01*
X39169291Y-5671705D01*
X39169300Y-5672899D01*
X39169300Y-5793538D01*
X39191836Y-5877646D01*
X39235373Y-5953054D01*
X39237839Y-5957324D01*
X39236562Y-5958061D01*
X39250000Y-5997642D01*
X39250000Y-7752357D01*
X39236563Y-7791946D01*
X39237836Y-7792681D01*
X39227358Y-7810826D01*
X39202894Y-7836482D01*
X39163580Y-7861748D01*
X39163579Y-7861749D01*
X39067822Y-7972259D01*
X39007082Y-8105260D01*
X39007082Y-8105262D01*
X39007081Y-8105264D01*
X39007081Y-8105266D01*
X38986271Y-8250000D01*
X39007081Y-8394734D01*
X39007081Y-8394735D01*
X39007082Y-8394737D01*
X39007082Y-8394739D01*
X39067822Y-8527740D01*
X39067823Y-8527741D01*
X39067824Y-8527743D01*
X39150132Y-8622731D01*
X39163581Y-8638252D01*
X39173668Y-8644734D01*
X39215456Y-8671589D01*
X39246608Y-8712521D01*
X39250000Y-8734851D01*
X39250000Y-13750000D01*
X40000000Y-14500000D01*
X40000000Y-14750000D01*
X38402400Y-14750000D01*
X38402400Y-14234987D01*
X38393558Y-14190537D01*
X38393557Y-14190535D01*
X38359873Y-14140126D01*
X38309464Y-14106442D01*
X38309462Y-14106441D01*
X38265013Y-14097600D01*
X37377000Y-14097600D01*
X37377000Y-14750000D01*
X37123000Y-14750000D01*
X37123000Y-14097600D01*
X36234987Y-14097600D01*
X36190537Y-14106441D01*
X36190535Y-14106442D01*
X36140126Y-14140126D01*
X36106442Y-14190535D01*
X36106441Y-14190537D01*
X36097600Y-14234987D01*
X36097600Y-14750000D01*
X36000000Y-14750000D01*
X36000000Y-5750000D01*
X35750000Y-5500000D01*
X34078890Y-5500000D01*
X34030552Y-5482407D01*
X34004832Y-5437858D01*
X34004455Y-5435502D01*
X33998594Y-5394739D01*
X33992919Y-5355266D01*
X33992917Y-5355261D01*
X33992917Y-5355260D01*
X33932177Y-5222259D01*
X33932176Y-5222258D01*
X33932176Y-5222257D01*
X33836421Y-5111750D01*
X33836420Y-5111749D01*
X33836418Y-5111748D01*
X33713411Y-5032695D01*
X33573113Y-4991500D01*
X33573111Y-4991500D01*
X33426889Y-4991500D01*
X33426886Y-4991500D01*
X33286588Y-5032695D01*
X33163581Y-5111748D01*
X33163579Y-5111749D01*
X33067822Y-5222259D01*
X33007082Y-5355260D01*
X33007082Y-5355262D01*
X33007081Y-5355264D01*
X33007081Y-5355266D01*
X33001406Y-5394737D01*
X32995545Y-5435502D01*
X32971251Y-5480844D01*
X32923496Y-5499962D01*
X32921110Y-5500000D01*
X32828890Y-5500000D01*
X32780552Y-5482407D01*
X32754832Y-5437858D01*
X32754455Y-5435502D01*
X32748594Y-5394739D01*
X32742919Y-5355266D01*
X32742917Y-5355261D01*
X32742917Y-5355260D01*
X32682177Y-5222259D01*
X32682176Y-5222258D01*
X32682176Y-5222257D01*
X32586421Y-5111750D01*
X32586420Y-5111749D01*
X32586418Y-5111748D01*
X32463411Y-5032695D01*
X32323113Y-4991500D01*
X32323111Y-4991500D01*
X32176889Y-4991500D01*
X32176886Y-4991500D01*
X32036588Y-5032695D01*
X31913581Y-5111748D01*
X31913579Y-5111749D01*
X31817822Y-5222259D01*
X31757082Y-5355260D01*
X31757082Y-5355262D01*
X31757081Y-5355264D01*
X31757081Y-5355266D01*
X31751406Y-5394737D01*
X31745545Y-5435502D01*
X31721251Y-5480844D01*
X31673496Y-5499962D01*
X31671110Y-5500000D01*
X30531148Y-5500000D01*
X30482810Y-5482407D01*
X30477974Y-5477974D01*
X28700726Y-3700726D01*
X28678986Y-3654106D01*
X28678700Y-3647552D01*
X28678700Y-3448358D01*
X28678699Y-3448355D01*
X28678489Y-3446115D01*
X28675984Y-3419400D01*
X28633301Y-3297419D01*
X28556560Y-3193440D01*
X28556558Y-3193438D01*
X28556557Y-3193437D01*
X28534244Y-3176969D01*
X28505799Y-3134109D01*
X28503700Y-3116464D01*
X28503700Y-2933689D01*
X28503700Y-2933687D01*
X28469373Y-2805579D01*
X28412149Y-2706463D01*
X28403060Y-2690720D01*
X28168356Y-2456017D01*
X28164703Y-2452093D01*
X28086421Y-2361750D01*
X28086416Y-2361747D01*
X27963411Y-2282695D01*
X27823113Y-2241500D01*
X27823111Y-2241500D01*
X27676889Y-2241500D01*
X27676888Y-2241500D01*
X27670914Y-2243254D01*
X27649729Y-2246300D01*
X25850271Y-2246300D01*
X25829086Y-2243254D01*
X25823112Y-2241500D01*
X25823111Y-2241500D01*
X25676889Y-2241500D01*
X25676888Y-2241500D01*
X25670914Y-2243254D01*
X25649729Y-2246300D01*
X23850271Y-2246300D01*
X23829086Y-2243254D01*
X23823112Y-2241500D01*
X23823111Y-2241500D01*
X23676889Y-2241500D01*
X23676888Y-2241500D01*
X23670914Y-2243254D01*
X23649729Y-2246300D01*
X21850271Y-2246300D01*
X21829086Y-2243254D01*
X21823112Y-2241500D01*
X21823111Y-2241500D01*
X21676889Y-2241500D01*
X21676888Y-2241500D01*
X21670914Y-2243254D01*
X21649729Y-2246300D01*
X19850271Y-2246300D01*
X19829086Y-2243254D01*
X19823112Y-2241500D01*
X19823111Y-2241500D01*
X19676889Y-2241500D01*
X19676886Y-2241500D01*
X19536588Y-2282695D01*
X19413581Y-2361747D01*
X19413579Y-2361749D01*
X19335295Y-2452093D01*
X19331638Y-2456021D01*
X19190721Y-2596940D01*
X19190720Y-2596940D01*
X19096943Y-2690716D01*
X19096939Y-2690722D01*
X19030627Y-2805577D01*
X19013463Y-2869633D01*
X18996300Y-2933687D01*
X18996300Y-2933689D01*
X18996300Y-3116464D01*
X18978707Y-3164802D01*
X18965756Y-3176969D01*
X18943440Y-3193439D01*
X18924240Y-3219455D01*
X18881380Y-3247900D01*
X18863734Y-3250000D01*
X18402067Y-3250000D01*
X18353729Y-3232407D01*
X18348893Y-3227975D01*
X18314355Y-3193437D01*
X18265247Y-3144329D01*
X18151305Y-3086273D01*
X18151307Y-3086273D01*
X18056772Y-3071300D01*
X18056770Y-3071300D01*
X17443230Y-3071300D01*
X17443227Y-3071300D01*
X17348693Y-3086273D01*
X17234752Y-3144329D01*
X17144329Y-3234752D01*
X17086273Y-3348693D01*
X17071300Y-3443227D01*
X17071300Y-3906772D01*
X17086272Y-4001302D01*
X17086275Y-4001310D01*
X17116292Y-4060223D01*
X17122560Y-4111279D01*
X17102462Y-4147536D01*
X16022026Y-5227974D01*
X15975406Y-5249714D01*
X15968852Y-5250000D01*
X13781148Y-5250000D01*
X13732810Y-5232407D01*
X13727974Y-5227974D01*
X13522026Y-5022026D01*
X13500286Y-4975406D01*
X13500000Y-4968852D01*
X13500000Y-4685062D01*
X13947100Y-4685062D01*
X13955941Y-4729512D01*
X13955942Y-4729514D01*
X13989626Y-4779923D01*
X14040035Y-4813607D01*
X14040037Y-4813608D01*
X14084487Y-4822450D01*
X14571940Y-4822450D01*
X14825940Y-4822450D01*
X15313393Y-4822450D01*
X15357842Y-4813608D01*
X15357844Y-4813607D01*
X15408253Y-4779923D01*
X15441937Y-4729514D01*
X15441938Y-4729512D01*
X15450780Y-4685062D01*
X15450780Y-4397000D01*
X14825940Y-4397000D01*
X14825940Y-4822450D01*
X14571940Y-4822450D01*
X14571940Y-4397000D01*
X13947100Y-4397000D01*
X13947100Y-4685062D01*
X13500000Y-4685062D01*
X13500000Y-3854937D01*
X13947100Y-3854937D01*
X13947100Y-4143000D01*
X14571940Y-4143000D01*
X14825940Y-4143000D01*
X15450780Y-4143000D01*
X15450780Y-3854937D01*
X15441938Y-3810487D01*
X15441937Y-3810485D01*
X15408253Y-3760076D01*
X15357844Y-3726392D01*
X15357842Y-3726391D01*
X15313393Y-3717550D01*
X14825940Y-3717550D01*
X14825940Y-4143000D01*
X14571940Y-4143000D01*
X14571940Y-3717550D01*
X14084487Y-3717550D01*
X14040037Y-3726391D01*
X14040035Y-3726392D01*
X13989626Y-3760076D01*
X13955942Y-3810485D01*
X13955941Y-3810487D01*
X13947100Y-3854937D01*
X13500000Y-3854937D01*
X13500000Y-3531148D01*
X13517593Y-3482810D01*
X13522014Y-3477985D01*
X13563720Y-3436279D01*
X13610337Y-3414541D01*
X13655909Y-3425169D01*
X13661433Y-3428522D01*
X13709771Y-3446115D01*
X13781148Y-3458700D01*
X14968858Y-3458700D01*
X14970260Y-3458669D01*
X14977950Y-3458502D01*
X14984504Y-3458216D01*
X15063609Y-3438859D01*
X15110229Y-3417119D01*
X15169599Y-3375547D01*
X16375547Y-2169599D01*
X16381818Y-2163050D01*
X16386251Y-2158214D01*
X16428522Y-2088567D01*
X16446115Y-2040229D01*
X16458700Y-1968852D01*
X16458700Y-572448D01*
X16476293Y-524110D01*
X16480726Y-519274D01*
X16727974Y-272026D01*
X16774594Y-250286D01*
X16781148Y-250000D01*
X29218852Y-250000D01*
X29267190Y-267593D01*
G37*
%TD.AperFunction*%
%TD*%
%TA.AperFunction,Conductor*%
%TO.N,/POE_VP*%
G36*
X50102000Y-13152400D02*
G01*
X50399237Y-13152400D01*
X50448790Y-13142543D01*
X50455635Y-13139708D01*
X50456588Y-13142009D01*
X50495505Y-13132481D01*
X50516844Y-13140245D01*
X50517492Y-13138684D01*
X50524330Y-13141516D01*
X50524332Y-13141518D01*
X50585573Y-13153700D01*
X50622551Y-13153699D01*
X50670887Y-13171291D01*
X50675725Y-13175725D01*
X50727974Y-13227974D01*
X50749714Y-13274594D01*
X50750000Y-13281148D01*
X50750000Y-15288576D01*
X50743205Y-15319814D01*
X50728702Y-15351571D01*
X50707892Y-15496307D01*
X50716619Y-15557007D01*
X50728702Y-15641041D01*
X50743204Y-15672797D01*
X50750000Y-15704035D01*
X50750000Y-16063437D01*
X50743205Y-16094675D01*
X50737324Y-16107551D01*
X50716514Y-16252288D01*
X50737324Y-16397023D01*
X50743204Y-16409897D01*
X50750000Y-16441136D01*
X50750000Y-17718852D01*
X50732407Y-17767190D01*
X50727974Y-17772026D01*
X50380774Y-18119226D01*
X50334154Y-18140966D01*
X50284467Y-18127652D01*
X50254962Y-18085515D01*
X50252400Y-18066052D01*
X50252400Y-17527000D01*
X49652000Y-17527000D01*
X49652000Y-18452400D01*
X49866052Y-18452400D01*
X49914390Y-18469993D01*
X49940110Y-18514542D01*
X49931177Y-18565200D01*
X49919226Y-18580774D01*
X49780526Y-18719474D01*
X49733906Y-18741214D01*
X49727352Y-18741500D01*
X47440450Y-18741500D01*
X47366750Y-18741500D01*
X47353433Y-18745068D01*
X47344589Y-18747438D01*
X47325127Y-18750000D01*
X45531148Y-18750000D01*
X45482810Y-18732407D01*
X45477974Y-18727974D01*
X44831671Y-18081671D01*
X48797600Y-18081671D01*
X48812524Y-18175899D01*
X48870394Y-18289474D01*
X48960525Y-18379605D01*
X49074101Y-18437475D01*
X49074099Y-18437475D01*
X49168328Y-18452399D01*
X49168336Y-18452400D01*
X49398000Y-18452400D01*
X49398000Y-17527000D01*
X48797600Y-17527000D01*
X48797600Y-18081671D01*
X44831671Y-18081671D01*
X43500000Y-16750000D01*
X34781148Y-16750000D01*
X34732810Y-16732407D01*
X34727974Y-16727974D01*
X34718328Y-16718328D01*
X48797600Y-16718328D01*
X48797600Y-17273000D01*
X49398000Y-17273000D01*
X49652000Y-17273000D01*
X50252400Y-17273000D01*
X50252400Y-16718336D01*
X50252399Y-16718328D01*
X50237475Y-16624100D01*
X50179605Y-16510525D01*
X50089474Y-16420394D01*
X49975898Y-16362524D01*
X49975900Y-16362524D01*
X49881671Y-16347600D01*
X49652000Y-16347600D01*
X49652000Y-17273000D01*
X49398000Y-17273000D01*
X49398000Y-16347600D01*
X49168328Y-16347600D01*
X49074100Y-16362524D01*
X48960525Y-16420394D01*
X48870394Y-16510525D01*
X48812524Y-16624100D01*
X48797600Y-16718328D01*
X34718328Y-16718328D01*
X34530774Y-16530774D01*
X34509034Y-16484154D01*
X34522348Y-16434467D01*
X34564485Y-16404962D01*
X34583948Y-16402400D01*
X34623000Y-16402400D01*
X34623000Y-15733608D01*
X34684174Y-15750000D01*
X34815826Y-15750000D01*
X34877000Y-15733608D01*
X34877000Y-16402400D01*
X35765013Y-16402400D01*
X35809462Y-16393558D01*
X35809464Y-16393557D01*
X35859873Y-16359873D01*
X35893557Y-16309464D01*
X35893558Y-16309462D01*
X35902400Y-16265012D01*
X35902400Y-15377000D01*
X35233608Y-15377000D01*
X35250000Y-15315826D01*
X35250000Y-15184174D01*
X35233608Y-15123000D01*
X35902400Y-15123000D01*
X35902400Y-14234987D01*
X35893558Y-14190537D01*
X35893557Y-14190535D01*
X35859873Y-14140126D01*
X35809464Y-14106442D01*
X35809462Y-14106441D01*
X35765013Y-14097600D01*
X34877000Y-14097600D01*
X34877000Y-14766391D01*
X34815826Y-14750000D01*
X34684174Y-14750000D01*
X34623000Y-14766391D01*
X34623000Y-14097600D01*
X33833948Y-14097600D01*
X33785610Y-14080007D01*
X33759890Y-14035458D01*
X33768823Y-13984800D01*
X33780774Y-13969226D01*
X34227974Y-13522026D01*
X34274594Y-13500286D01*
X34281148Y-13500000D01*
X35500000Y-13500000D01*
X36000000Y-13000000D01*
X36000000Y-14750000D01*
X36097600Y-14750000D01*
X36097600Y-15123000D01*
X36766392Y-15123000D01*
X36750000Y-15184174D01*
X36750000Y-15315826D01*
X36766392Y-15377000D01*
X36097600Y-15377000D01*
X36097600Y-16265012D01*
X36106441Y-16309462D01*
X36106442Y-16309464D01*
X36140126Y-16359873D01*
X36190535Y-16393557D01*
X36190537Y-16393558D01*
X36234987Y-16402400D01*
X37123000Y-16402400D01*
X37123000Y-15733608D01*
X37184174Y-15750000D01*
X37315826Y-15750000D01*
X37377000Y-15733608D01*
X37377000Y-16402400D01*
X38265013Y-16402400D01*
X38309462Y-16393558D01*
X38309464Y-16393557D01*
X38359873Y-16359873D01*
X38393557Y-16309464D01*
X38393558Y-16309462D01*
X38402400Y-16265012D01*
X38402400Y-15681671D01*
X48797600Y-15681671D01*
X48812524Y-15775899D01*
X48870394Y-15889474D01*
X48960525Y-15979605D01*
X49074101Y-16037475D01*
X49074099Y-16037475D01*
X49168328Y-16052399D01*
X49168336Y-16052400D01*
X49398000Y-16052400D01*
X49652000Y-16052400D01*
X49881664Y-16052400D01*
X49881671Y-16052399D01*
X49975899Y-16037475D01*
X50089474Y-15979605D01*
X50179605Y-15889474D01*
X50237475Y-15775899D01*
X50252399Y-15681671D01*
X50252400Y-15681664D01*
X50252400Y-15127000D01*
X49652000Y-15127000D01*
X49652000Y-16052400D01*
X49398000Y-16052400D01*
X49398000Y-15127000D01*
X48797600Y-15127000D01*
X48797600Y-15681671D01*
X38402400Y-15681671D01*
X38402400Y-15377000D01*
X37733608Y-15377000D01*
X37750000Y-15315826D01*
X37750000Y-15184174D01*
X37733608Y-15123000D01*
X38402400Y-15123000D01*
X38402400Y-14750000D01*
X40000000Y-14750000D01*
X40000000Y-14500000D01*
X44500000Y-14500000D01*
X44518329Y-14481671D01*
X45372600Y-14481671D01*
X45387524Y-14575899D01*
X45445394Y-14689474D01*
X45535525Y-14779605D01*
X45649101Y-14837475D01*
X45649099Y-14837475D01*
X45743328Y-14852399D01*
X45743336Y-14852400D01*
X46123000Y-14852400D01*
X46377000Y-14852400D01*
X46756664Y-14852400D01*
X46756671Y-14852399D01*
X46850899Y-14837475D01*
X46964474Y-14779605D01*
X47054605Y-14689474D01*
X47112475Y-14575899D01*
X47127399Y-14481671D01*
X47127400Y-14481664D01*
X47127400Y-14327000D01*
X46377000Y-14327000D01*
X46377000Y-14852400D01*
X46123000Y-14852400D01*
X46123000Y-14327000D01*
X45372600Y-14327000D01*
X45372600Y-14481671D01*
X44518329Y-14481671D01*
X44681672Y-14318328D01*
X48797600Y-14318328D01*
X48797600Y-14873000D01*
X49398000Y-14873000D01*
X49652000Y-14873000D01*
X50252400Y-14873000D01*
X50252400Y-14318336D01*
X50252399Y-14318328D01*
X50237475Y-14224100D01*
X50179605Y-14110525D01*
X50089474Y-14020394D01*
X49975898Y-13962524D01*
X49975900Y-13962524D01*
X49881671Y-13947600D01*
X49652000Y-13947600D01*
X49652000Y-14873000D01*
X49398000Y-14873000D01*
X49398000Y-13947600D01*
X49168328Y-13947600D01*
X49074100Y-13962524D01*
X48960525Y-14020394D01*
X48870394Y-14110525D01*
X48812524Y-14224100D01*
X48797600Y-14318328D01*
X44681672Y-14318328D01*
X45227974Y-13772026D01*
X45274594Y-13750286D01*
X45281148Y-13750000D01*
X45311213Y-13750000D01*
X45359551Y-13767593D01*
X45385271Y-13812142D01*
X45385487Y-13836963D01*
X45372600Y-13918325D01*
X45372600Y-14073000D01*
X47127400Y-14073000D01*
X47127400Y-13918336D01*
X47127399Y-13918325D01*
X47114513Y-13836963D01*
X47124328Y-13786469D01*
X47164305Y-13754097D01*
X47188787Y-13750000D01*
X48500000Y-13750000D01*
X49273757Y-12976242D01*
X49320376Y-12954503D01*
X49370063Y-12967817D01*
X49399568Y-13009954D01*
X49400685Y-13014746D01*
X49407456Y-13048790D01*
X49407457Y-13048792D01*
X49445009Y-13104990D01*
X49501207Y-13142542D01*
X49501209Y-13142543D01*
X49550763Y-13152400D01*
X49848000Y-13152400D01*
X49848000Y-12750000D01*
X50102000Y-12750000D01*
X50102000Y-13152400D01*
G37*
%TD.AperFunction*%
%TD*%
%TA.AperFunction,Conductor*%
%TO.N,GND*%
G36*
X45345738Y-10017593D02*
G01*
X45371458Y-10062142D01*
X45372389Y-10072790D01*
X45372599Y-10073000D01*
X47127401Y-10073000D01*
X47128658Y-10071742D01*
X47144993Y-10026862D01*
X47189542Y-10001142D01*
X47202600Y-10000000D01*
X47218852Y-10000000D01*
X47267190Y-10017593D01*
X47272026Y-10022026D01*
X47477974Y-10227974D01*
X47499714Y-10274594D01*
X47500000Y-10281148D01*
X47500000Y-10500000D01*
X48000000Y-11000000D01*
X48772400Y-11000000D01*
X48820738Y-11017593D01*
X48846458Y-11062142D01*
X48847600Y-11075200D01*
X48847600Y-11123000D01*
X49250000Y-11123000D01*
X49250000Y-11377000D01*
X48847600Y-11377000D01*
X48847600Y-11424800D01*
X48830007Y-11473138D01*
X48785458Y-11498858D01*
X48772400Y-11500000D01*
X48000000Y-11500000D01*
X47500000Y-11999999D01*
X47500000Y-12218852D01*
X47482407Y-12267190D01*
X47477974Y-12272026D01*
X47272026Y-12477974D01*
X47225406Y-12499714D01*
X47218852Y-12500000D01*
X47202600Y-12500000D01*
X47154262Y-12482407D01*
X47128542Y-12437858D01*
X47127610Y-12427209D01*
X47127401Y-12427000D01*
X45372599Y-12427000D01*
X45371341Y-12428257D01*
X45355007Y-12473138D01*
X45310458Y-12498858D01*
X45297400Y-12500000D01*
X45281148Y-12500000D01*
X45232810Y-12482407D01*
X45227974Y-12477974D01*
X45022026Y-12272026D01*
X45000286Y-12225406D01*
X45000000Y-12218852D01*
X45000000Y-12018328D01*
X45372600Y-12018328D01*
X45372600Y-12173000D01*
X46123000Y-12173000D01*
X46377000Y-12173000D01*
X47127400Y-12173000D01*
X47127400Y-12018336D01*
X47127399Y-12018328D01*
X47112475Y-11924100D01*
X47054605Y-11810525D01*
X46964474Y-11720394D01*
X46850898Y-11662524D01*
X46850900Y-11662524D01*
X46756671Y-11647600D01*
X46377000Y-11647600D01*
X46377000Y-12173000D01*
X46123000Y-12173000D01*
X46123000Y-11647600D01*
X45743328Y-11647600D01*
X45649100Y-11662524D01*
X45535525Y-11720394D01*
X45445394Y-11810525D01*
X45387524Y-11924100D01*
X45372600Y-12018328D01*
X45000000Y-12018328D01*
X45000000Y-10481671D01*
X45372600Y-10481671D01*
X45387524Y-10575899D01*
X45445394Y-10689474D01*
X45535525Y-10779605D01*
X45649101Y-10837475D01*
X45649099Y-10837475D01*
X45743328Y-10852399D01*
X45743336Y-10852400D01*
X46123000Y-10852400D01*
X46377000Y-10852400D01*
X46756664Y-10852400D01*
X46756671Y-10852399D01*
X46850899Y-10837475D01*
X46964474Y-10779605D01*
X47054605Y-10689474D01*
X47112475Y-10575899D01*
X47127399Y-10481671D01*
X47127400Y-10481664D01*
X47127400Y-10327000D01*
X46377000Y-10327000D01*
X46377000Y-10852400D01*
X46123000Y-10852400D01*
X46123000Y-10327000D01*
X45372600Y-10327000D01*
X45372600Y-10481671D01*
X45000000Y-10481671D01*
X45000000Y-10281148D01*
X45017593Y-10232810D01*
X45022026Y-10227974D01*
X45227974Y-10022026D01*
X45274594Y-10000286D01*
X45281148Y-10000000D01*
X45297400Y-10000000D01*
X45345738Y-10017593D01*
G37*
%TD.AperFunction*%
%TD*%
%TA.AperFunction,Conductor*%
%TO.N,GND*%
G36*
X16017190Y-267593D02*
G01*
X16022026Y-272026D01*
X16227974Y-477974D01*
X16249714Y-524594D01*
X16250000Y-531148D01*
X16250000Y-1968852D01*
X16232407Y-2017190D01*
X16227974Y-2022026D01*
X15022026Y-3227974D01*
X14975406Y-3249714D01*
X14968852Y-3250000D01*
X13781148Y-3250000D01*
X13732810Y-3232407D01*
X13727974Y-3227974D01*
X13522026Y-3022026D01*
X13500286Y-2975406D01*
X13500000Y-2968852D01*
X13500000Y-2145062D01*
X13944560Y-2145062D01*
X13953401Y-2189512D01*
X13953402Y-2189514D01*
X13987086Y-2239923D01*
X14037495Y-2273607D01*
X14037497Y-2273608D01*
X14081947Y-2282450D01*
X14569400Y-2282450D01*
X14823400Y-2282450D01*
X15310853Y-2282450D01*
X15355302Y-2273608D01*
X15355304Y-2273607D01*
X15405713Y-2239923D01*
X15439397Y-2189514D01*
X15439398Y-2189512D01*
X15448240Y-2145062D01*
X15448240Y-1857000D01*
X14823400Y-1857000D01*
X14823400Y-2282450D01*
X14569400Y-2282450D01*
X14569400Y-1857000D01*
X13944560Y-1857000D01*
X13944560Y-2145062D01*
X13500000Y-2145062D01*
X13500000Y-1314937D01*
X13944560Y-1314937D01*
X13944560Y-1603000D01*
X14569400Y-1603000D01*
X14823400Y-1603000D01*
X15448240Y-1603000D01*
X15448240Y-1314937D01*
X15439398Y-1270487D01*
X15439397Y-1270485D01*
X15405713Y-1220076D01*
X15355304Y-1186392D01*
X15355302Y-1186391D01*
X15310853Y-1177550D01*
X14823400Y-1177550D01*
X14823400Y-1603000D01*
X14569400Y-1603000D01*
X14569400Y-1177550D01*
X14081947Y-1177550D01*
X14037497Y-1186391D01*
X14037495Y-1186392D01*
X13987086Y-1220076D01*
X13953402Y-1270485D01*
X13953401Y-1270487D01*
X13944560Y-1314937D01*
X13500000Y-1314937D01*
X13500000Y-531148D01*
X13517593Y-482810D01*
X13522026Y-477974D01*
X13727974Y-272026D01*
X13774594Y-250286D01*
X13781148Y-250000D01*
X15968852Y-250000D01*
X16017190Y-267593D01*
G37*
%TD.AperFunction*%
%TD*%
%TA.AperFunction,Conductor*%
%TO.N,+5V*%
G36*
X58267190Y-17517593D02*
G01*
X58272026Y-17522026D01*
X58477974Y-17727974D01*
X58499714Y-17774594D01*
X58500000Y-17781148D01*
X58500000Y-18218852D01*
X58482407Y-18267190D01*
X58477974Y-18272026D01*
X56772026Y-19977974D01*
X56725406Y-19999714D01*
X56718852Y-20000000D01*
X56027600Y-20000000D01*
X55979262Y-19982407D01*
X55953542Y-19937858D01*
X55952400Y-19924800D01*
X55952400Y-19689500D01*
X55047600Y-19689500D01*
X55047600Y-19924800D01*
X55030007Y-19973138D01*
X54985458Y-19998858D01*
X54972400Y-20000000D01*
X54281148Y-20000000D01*
X54232810Y-19982407D01*
X54227974Y-19977974D01*
X54022026Y-19772026D01*
X54000286Y-19725406D01*
X54000000Y-19718852D01*
X54000000Y-18929849D01*
X55047600Y-18929849D01*
X55047600Y-19435500D01*
X55373000Y-19435500D01*
X55627000Y-19435500D01*
X55952400Y-19435500D01*
X55952400Y-18929849D01*
X55949467Y-18904567D01*
X55903800Y-18801142D01*
X55903798Y-18801139D01*
X55823860Y-18721201D01*
X55823857Y-18721199D01*
X55720432Y-18675532D01*
X55695150Y-18672600D01*
X55627000Y-18672600D01*
X55627000Y-19435500D01*
X55373000Y-19435500D01*
X55373000Y-18672600D01*
X55304850Y-18672600D01*
X55279567Y-18675532D01*
X55176142Y-18721199D01*
X55176139Y-18721201D01*
X55096201Y-18801139D01*
X55096199Y-18801142D01*
X55050532Y-18904567D01*
X55047600Y-18929849D01*
X54000000Y-18929849D01*
X54000000Y-17781148D01*
X54017593Y-17732810D01*
X54022026Y-17727974D01*
X54198074Y-17551926D01*
X54244694Y-17530186D01*
X54251248Y-17529900D01*
X54861848Y-17529900D01*
X54861850Y-17529900D01*
X54933037Y-17510825D01*
X54933749Y-17510413D01*
X54934339Y-17510074D01*
X54935790Y-17509684D01*
X54937592Y-17508939D01*
X54937690Y-17509176D01*
X54971937Y-17500000D01*
X58218852Y-17500000D01*
X58267190Y-17517593D01*
G37*
%TD.AperFunction*%
%TD*%
%TA.AperFunction,Conductor*%
%TO.N,GND*%
G36*
X15095238Y-24267593D02*
G01*
X15120958Y-24312142D01*
X15122100Y-24325200D01*
X15122100Y-24558502D01*
X15132094Y-24627088D01*
X15183822Y-24732900D01*
X15267099Y-24816177D01*
X15267100Y-24816177D01*
X15267102Y-24816179D01*
X15372912Y-24867906D01*
X15423180Y-24875230D01*
X15441497Y-24877899D01*
X15441502Y-24877899D01*
X15441506Y-24877900D01*
X15718363Y-24877900D01*
X15766701Y-24895493D01*
X15792421Y-24940042D01*
X15792797Y-24963798D01*
X15787593Y-25000000D01*
X15806324Y-25130275D01*
X15806324Y-25130276D01*
X15806325Y-25130278D01*
X15806325Y-25130280D01*
X15831951Y-25186392D01*
X15860998Y-25249996D01*
X15885596Y-25278384D01*
X15947191Y-25349467D01*
X16057908Y-25420620D01*
X16147742Y-25446997D01*
X16184193Y-25457700D01*
X16184196Y-25457700D01*
X16315804Y-25457700D01*
X16315807Y-25457700D01*
X16442091Y-25420620D01*
X16552808Y-25349467D01*
X16552808Y-25349466D01*
X16552812Y-25349464D01*
X16639002Y-25249996D01*
X16693676Y-25130275D01*
X16703932Y-25058940D01*
X16728225Y-25013601D01*
X16749593Y-25000167D01*
X16749995Y-25000000D01*
X16750000Y-25000000D01*
X16890741Y-24859258D01*
X16937358Y-24837520D01*
X16976941Y-24844875D01*
X17023057Y-24867419D01*
X17091545Y-24877399D01*
X17091556Y-24877400D01*
X17198000Y-24877400D01*
X17198000Y-24552000D01*
X17446099Y-24303900D01*
X17450858Y-24312142D01*
X17452000Y-24325200D01*
X17452000Y-24877400D01*
X17558444Y-24877400D01*
X17558454Y-24877399D01*
X17626942Y-24867419D01*
X17732605Y-24815764D01*
X17815764Y-24732605D01*
X17867419Y-24626942D01*
X17877399Y-24558454D01*
X17877400Y-24558444D01*
X17877400Y-24325200D01*
X17894993Y-24276862D01*
X17939542Y-24251142D01*
X17952600Y-24250000D01*
X17968852Y-24250000D01*
X18017190Y-24267593D01*
X18022026Y-24272026D01*
X20000000Y-26250000D01*
X21968852Y-26250000D01*
X22017190Y-26267593D01*
X22022026Y-26272026D01*
X23500000Y-27750000D01*
X37718852Y-27750000D01*
X37767190Y-27767593D01*
X37772026Y-27772026D01*
X37977974Y-27977974D01*
X37999714Y-28024594D01*
X38000000Y-28031148D01*
X38000000Y-29468852D01*
X37982407Y-29517190D01*
X37977974Y-29522026D01*
X37772026Y-29727974D01*
X37725406Y-29749714D01*
X37718852Y-29750000D01*
X19281148Y-29750000D01*
X19232810Y-29732407D01*
X19227974Y-29727974D01*
X19022026Y-29522026D01*
X19000286Y-29475406D01*
X19000000Y-29468852D01*
X19000000Y-28931671D01*
X19847600Y-28931671D01*
X19862524Y-29025899D01*
X19920394Y-29139474D01*
X20010525Y-29229605D01*
X20124101Y-29287475D01*
X20124099Y-29287475D01*
X20218328Y-29302399D01*
X20218336Y-29302400D01*
X21123000Y-29302400D01*
X21377000Y-29302400D01*
X22281664Y-29302400D01*
X22281671Y-29302399D01*
X22375899Y-29287475D01*
X22489474Y-29229605D01*
X22579605Y-29139474D01*
X22637475Y-29025899D01*
X22652399Y-28931671D01*
X22652400Y-28931664D01*
X22652400Y-28377000D01*
X21377000Y-28377000D01*
X21377000Y-29302400D01*
X21123000Y-29302400D01*
X21123000Y-28377000D01*
X19847600Y-28377000D01*
X19847600Y-28931671D01*
X19000000Y-28931671D01*
X19000000Y-27568328D01*
X19847600Y-27568328D01*
X19847600Y-28123000D01*
X21123000Y-28123000D01*
X21377000Y-28123000D01*
X22652400Y-28123000D01*
X22652400Y-27568336D01*
X22652399Y-27568328D01*
X22637475Y-27474100D01*
X22579605Y-27360525D01*
X22489474Y-27270394D01*
X22375898Y-27212524D01*
X22375900Y-27212524D01*
X22281671Y-27197600D01*
X21377000Y-27197600D01*
X21377000Y-28123000D01*
X21123000Y-28123000D01*
X21123000Y-27197600D01*
X20218328Y-27197600D01*
X20124100Y-27212524D01*
X20010525Y-27270394D01*
X19920394Y-27360525D01*
X19862524Y-27474100D01*
X19847600Y-27568328D01*
X19000000Y-27568328D01*
X19000000Y-27500000D01*
X18750000Y-27250000D01*
X18564548Y-27250000D01*
X18519894Y-27235306D01*
X18464395Y-27194346D01*
X18464392Y-27194345D01*
X18464391Y-27194344D01*
X18464392Y-27194344D01*
X18366291Y-27160018D01*
X18335301Y-27149174D01*
X18335296Y-27149173D01*
X18335294Y-27149173D01*
X18304661Y-27146300D01*
X16195347Y-27146300D01*
X16164698Y-27149173D01*
X16035608Y-27194344D01*
X16035605Y-27194345D01*
X16035605Y-27194346D01*
X15980105Y-27235306D01*
X15935452Y-27250000D01*
X14031148Y-27250000D01*
X13982810Y-27232407D01*
X13977974Y-27227974D01*
X13522026Y-26772026D01*
X13500286Y-26725406D01*
X13500000Y-26718852D01*
X13500000Y-26145062D01*
X13944560Y-26145062D01*
X13953401Y-26189512D01*
X13953402Y-26189514D01*
X13987086Y-26239923D01*
X14037495Y-26273607D01*
X14037497Y-26273608D01*
X14081947Y-26282450D01*
X14569400Y-26282450D01*
X14823400Y-26282450D01*
X15310853Y-26282450D01*
X15355302Y-26273608D01*
X15355304Y-26273607D01*
X15405713Y-26239923D01*
X15439397Y-26189514D01*
X15439398Y-26189512D01*
X15448240Y-26145062D01*
X15448240Y-25857000D01*
X14823400Y-25857000D01*
X14823400Y-26282450D01*
X14569400Y-26282450D01*
X14569400Y-25857000D01*
X13944560Y-25857000D01*
X13944560Y-26145062D01*
X13500000Y-26145062D01*
X13500000Y-25314937D01*
X13944560Y-25314937D01*
X13944560Y-25603000D01*
X14569400Y-25603000D01*
X14823400Y-25603000D01*
X15448240Y-25603000D01*
X15448240Y-25314937D01*
X15439398Y-25270487D01*
X15439397Y-25270485D01*
X15405713Y-25220076D01*
X15355304Y-25186392D01*
X15355302Y-25186391D01*
X15310853Y-25177550D01*
X14823400Y-25177550D01*
X14823400Y-25603000D01*
X14569400Y-25603000D01*
X14569400Y-25177550D01*
X14081947Y-25177550D01*
X14037497Y-25186391D01*
X14037495Y-25186392D01*
X13987086Y-25220076D01*
X13953402Y-25270485D01*
X13953401Y-25270487D01*
X13944560Y-25314937D01*
X13500000Y-25314937D01*
X13500000Y-24531148D01*
X13517593Y-24482810D01*
X13522026Y-24477974D01*
X13727974Y-24272026D01*
X13774594Y-24250286D01*
X13781148Y-24250000D01*
X15046900Y-24250000D01*
X15095238Y-24267593D01*
G37*
%TD.AperFunction*%
%TD*%
%TA.AperFunction,Conductor*%
%TO.N,+5V*%
G36*
X53517190Y-1017593D02*
G01*
X53522026Y-1022026D01*
X53977974Y-1477974D01*
X53999714Y-1524594D01*
X54000000Y-1531148D01*
X54000000Y-3468852D01*
X53982407Y-3517190D01*
X53977974Y-3522026D01*
X53522026Y-3977974D01*
X53475406Y-3999714D01*
X53468852Y-4000000D01*
X48531148Y-4000000D01*
X48482810Y-3982407D01*
X48477974Y-3977974D01*
X48022026Y-3522026D01*
X48000286Y-3475406D01*
X48000000Y-3468852D01*
X48000000Y-3206671D01*
X48722600Y-3206671D01*
X48737524Y-3300899D01*
X48795394Y-3414474D01*
X48885525Y-3504605D01*
X48999101Y-3562475D01*
X48999099Y-3562475D01*
X49093328Y-3577399D01*
X49093336Y-3577400D01*
X50873000Y-3577400D01*
X51127000Y-3577400D01*
X52906664Y-3577400D01*
X52906671Y-3577399D01*
X53000899Y-3562475D01*
X53114474Y-3504605D01*
X53204605Y-3414474D01*
X53262475Y-3300899D01*
X53277399Y-3206671D01*
X53277400Y-3206664D01*
X53277400Y-2877000D01*
X51127000Y-2877000D01*
X51127000Y-3577400D01*
X50873000Y-3577400D01*
X50873000Y-2877000D01*
X48722600Y-2877000D01*
X48722600Y-3206671D01*
X48000000Y-3206671D01*
X48000000Y-2293328D01*
X48722600Y-2293328D01*
X48722600Y-2623000D01*
X50873000Y-2623000D01*
X51127000Y-2623000D01*
X53277400Y-2623000D01*
X53277400Y-2293336D01*
X53277399Y-2293328D01*
X53262475Y-2199100D01*
X53204605Y-2085525D01*
X53114474Y-1995394D01*
X53000898Y-1937524D01*
X53000900Y-1937524D01*
X52906671Y-1922600D01*
X51127000Y-1922600D01*
X51127000Y-2623000D01*
X50873000Y-2623000D01*
X50873000Y-1922600D01*
X49093328Y-1922600D01*
X48999100Y-1937524D01*
X48885525Y-1995394D01*
X48795394Y-2085525D01*
X48737524Y-2199100D01*
X48722600Y-2293328D01*
X48000000Y-2293328D01*
X48000000Y-1531148D01*
X48017593Y-1482810D01*
X48022026Y-1477974D01*
X48477974Y-1022026D01*
X48524594Y-1000286D01*
X48531148Y-1000000D01*
X53468852Y-1000000D01*
X53517190Y-1017593D01*
G37*
%TD.AperFunction*%
%TD*%
%TA.AperFunction,Conductor*%
%TO.N,/U2_L1*%
G36*
X49250000Y-11877000D02*
G01*
X48847600Y-11877000D01*
X48847600Y-11932122D01*
X48856949Y-11979125D01*
X48856950Y-11979128D01*
X48892566Y-12032433D01*
X48945871Y-12068049D01*
X48945874Y-12068050D01*
X48992877Y-12077400D01*
X49174800Y-12077400D01*
X49223138Y-12094993D01*
X49248858Y-12139542D01*
X49250000Y-12152600D01*
X49250000Y-12709137D01*
X49232407Y-12757475D01*
X49206581Y-12777291D01*
X49185559Y-12787093D01*
X49185558Y-12787094D01*
X49126189Y-12828664D01*
X49126182Y-12828670D01*
X49016897Y-12937956D01*
X48476878Y-13477974D01*
X48430260Y-13499714D01*
X48423706Y-13500000D01*
X46822198Y-13500000D01*
X46814890Y-13499212D01*
X46814854Y-13499601D01*
X46779660Y-13496300D01*
X45720347Y-13496300D01*
X45685143Y-13499601D01*
X45685106Y-13499211D01*
X45677800Y-13500000D01*
X45250000Y-13500000D01*
X45200388Y-13549610D01*
X45178997Y-13564588D01*
X45139774Y-13582879D01*
X45139766Y-13582884D01*
X45080406Y-13624448D01*
X45080393Y-13624459D01*
X44476880Y-14227974D01*
X44430260Y-14249714D01*
X44423706Y-14250000D01*
X40076294Y-14250000D01*
X40027956Y-14232407D01*
X40023120Y-14227974D01*
X39522026Y-13726880D01*
X39500286Y-13680260D01*
X39500000Y-13673706D01*
X39500000Y-13315012D01*
X39747600Y-13315012D01*
X39756441Y-13359462D01*
X39756442Y-13359464D01*
X39790126Y-13409873D01*
X39840535Y-13443557D01*
X39840537Y-13443558D01*
X39884987Y-13452400D01*
X41623000Y-13452400D01*
X41877000Y-13452400D01*
X43615013Y-13452400D01*
X43659462Y-13443558D01*
X43659464Y-13443557D01*
X43709873Y-13409873D01*
X43743557Y-13359464D01*
X43743558Y-13359462D01*
X43752400Y-13315012D01*
X43752400Y-12877000D01*
X41877000Y-12877000D01*
X41877000Y-13452400D01*
X41623000Y-13452400D01*
X41623000Y-12877000D01*
X39747600Y-12877000D01*
X39747600Y-13315012D01*
X39500000Y-13315012D01*
X39500000Y-12184987D01*
X39747600Y-12184987D01*
X39747600Y-12623000D01*
X41623000Y-12623000D01*
X41877000Y-12623000D01*
X43752400Y-12623000D01*
X43752400Y-12184987D01*
X43743558Y-12140537D01*
X43743557Y-12140535D01*
X43709873Y-12090126D01*
X43659464Y-12056442D01*
X43659462Y-12056441D01*
X43615013Y-12047600D01*
X41877000Y-12047600D01*
X41877000Y-12623000D01*
X41623000Y-12623000D01*
X41623000Y-12047600D01*
X39884987Y-12047600D01*
X39840537Y-12056441D01*
X39840535Y-12056442D01*
X39790126Y-12090126D01*
X39756442Y-12140535D01*
X39756441Y-12140537D01*
X39747600Y-12184987D01*
X39500000Y-12184987D01*
X39500000Y-12031148D01*
X39517593Y-11982810D01*
X39522026Y-11977974D01*
X39727974Y-11772026D01*
X39774594Y-11750286D01*
X39781148Y-11750000D01*
X44766900Y-11750000D01*
X44815238Y-11767593D01*
X44840958Y-11812142D01*
X44842100Y-11825200D01*
X44842100Y-12218854D01*
X44842250Y-12225752D01*
X44842535Y-12232282D01*
X44842537Y-12232294D01*
X44857179Y-12292134D01*
X44857180Y-12292137D01*
X44857181Y-12292139D01*
X44878921Y-12338759D01*
X44878922Y-12338760D01*
X44878924Y-12338764D01*
X44910369Y-12383672D01*
X44910380Y-12383685D01*
X45116300Y-12589605D01*
X45116315Y-12589619D01*
X45116322Y-12589626D01*
X45121277Y-12594371D01*
X45125575Y-12598311D01*
X45126114Y-12598805D01*
X45146827Y-12611375D01*
X45178807Y-12630785D01*
X45227145Y-12648378D01*
X45281143Y-12657899D01*
X45281144Y-12657900D01*
X45281148Y-12657900D01*
X45297390Y-12657900D01*
X45297400Y-12657900D01*
X45311157Y-12657300D01*
X45324126Y-12656165D01*
X45373811Y-12669478D01*
X45397682Y-12696938D01*
X45428528Y-12757475D01*
X45444984Y-12789771D01*
X45535229Y-12880016D01*
X45648943Y-12937956D01*
X45648945Y-12937957D01*
X45743292Y-12952900D01*
X45743296Y-12952900D01*
X46756704Y-12952900D01*
X46756708Y-12952900D01*
X46851055Y-12937957D01*
X46964771Y-12880016D01*
X47055016Y-12789771D01*
X47103573Y-12694471D01*
X47141193Y-12659391D01*
X47183635Y-12654556D01*
X47192760Y-12656165D01*
X47202598Y-12657900D01*
X47202600Y-12657900D01*
X47218855Y-12657900D01*
X47219484Y-12657886D01*
X47225736Y-12657750D01*
X47232290Y-12657464D01*
X47292139Y-12642819D01*
X47338759Y-12621079D01*
X47383678Y-12589626D01*
X47589626Y-12383678D01*
X47594371Y-12378723D01*
X47598804Y-12373887D01*
X47630785Y-12321193D01*
X47648378Y-12272855D01*
X47657899Y-12218856D01*
X47657900Y-12218856D01*
X47657900Y-12096551D01*
X47675493Y-12048213D01*
X47679914Y-12043388D01*
X48043379Y-11679924D01*
X48089998Y-11658186D01*
X48096552Y-11657900D01*
X48772390Y-11657900D01*
X48772400Y-11657900D01*
X48786157Y-11657300D01*
X48799215Y-11656158D01*
X48864407Y-11635604D01*
X48868788Y-11633074D01*
X48906387Y-11623000D01*
X49250000Y-11623000D01*
X49250000Y-11877000D01*
G37*
%TD.AperFunction*%
%TD*%
%TA.AperFunction,Conductor*%
%TO.N,/U2_L2*%
G36*
X44517190Y-8267593D02*
G01*
X44522026Y-8272026D01*
X45250000Y-9000000D01*
X46750000Y-9000000D01*
X48250000Y-9000000D01*
X48468852Y-9000000D01*
X48517190Y-9017593D01*
X48522026Y-9022026D01*
X49227974Y-9727974D01*
X49249714Y-9774594D01*
X49250000Y-9781148D01*
X49250000Y-10347400D01*
X49232407Y-10395738D01*
X49187858Y-10421458D01*
X49174800Y-10422600D01*
X48992877Y-10422600D01*
X48945874Y-10431949D01*
X48945871Y-10431950D01*
X48892566Y-10467566D01*
X48856950Y-10520871D01*
X48856949Y-10520874D01*
X48847600Y-10567877D01*
X48847600Y-10623000D01*
X49250000Y-10623000D01*
X49250000Y-10877000D01*
X48908097Y-10877000D01*
X48879682Y-10870048D01*
X48879372Y-10870901D01*
X48874742Y-10869215D01*
X48874741Y-10869215D01*
X48855782Y-10862314D01*
X48826402Y-10851621D01*
X48772404Y-10842100D01*
X48772400Y-10842100D01*
X48096552Y-10842100D01*
X48048214Y-10824507D01*
X48043378Y-10820074D01*
X47679926Y-10456622D01*
X47658186Y-10410002D01*
X47657900Y-10403448D01*
X47657900Y-10281145D01*
X47657885Y-10280496D01*
X47657750Y-10274264D01*
X47657464Y-10267710D01*
X47642819Y-10207861D01*
X47621079Y-10161241D01*
X47589626Y-10116322D01*
X47589624Y-10116320D01*
X47589619Y-10116314D01*
X47383699Y-9910394D01*
X47378730Y-9905636D01*
X47378723Y-9905629D01*
X47373887Y-9901196D01*
X47373885Y-9901194D01*
X47321191Y-9869214D01*
X47272856Y-9851622D01*
X47218856Y-9842100D01*
X47218852Y-9842100D01*
X47202600Y-9842100D01*
X47188843Y-9842700D01*
X47188839Y-9842700D01*
X47188824Y-9842701D01*
X47175868Y-9843834D01*
X47126182Y-9830517D01*
X47102316Y-9803061D01*
X47055016Y-9710229D01*
X46964771Y-9619984D01*
X46851055Y-9562043D01*
X46851057Y-9562043D01*
X46756710Y-9547100D01*
X46756708Y-9547100D01*
X45743292Y-9547100D01*
X45743289Y-9547100D01*
X45648943Y-9562043D01*
X45535228Y-9619984D01*
X45444984Y-9710228D01*
X45396428Y-9805526D01*
X45358807Y-9840608D01*
X45316367Y-9845444D01*
X45297401Y-9842100D01*
X45297400Y-9842100D01*
X45281148Y-9842100D01*
X45281145Y-9842100D01*
X45274247Y-9842250D01*
X45267717Y-9842535D01*
X45267711Y-9842535D01*
X45267710Y-9842536D01*
X45267707Y-9842536D01*
X45267705Y-9842537D01*
X45207865Y-9857179D01*
X45182057Y-9869214D01*
X45165361Y-9877000D01*
X45161239Y-9878922D01*
X45161235Y-9878924D01*
X45116327Y-9910369D01*
X45116314Y-9910380D01*
X44910394Y-10116300D01*
X44905636Y-10121269D01*
X44901194Y-10126114D01*
X44869214Y-10178808D01*
X44851622Y-10227142D01*
X44851622Y-10227144D01*
X44842100Y-10281143D01*
X44842100Y-10674800D01*
X44824507Y-10723138D01*
X44779958Y-10748858D01*
X44766900Y-10750000D01*
X39781148Y-10750000D01*
X39732810Y-10732407D01*
X39727974Y-10727974D01*
X39522026Y-10522026D01*
X39500286Y-10475406D01*
X39500000Y-10468852D01*
X39500000Y-10315012D01*
X39747600Y-10315012D01*
X39756441Y-10359462D01*
X39756442Y-10359464D01*
X39790126Y-10409873D01*
X39840535Y-10443557D01*
X39840537Y-10443558D01*
X39884987Y-10452400D01*
X41623000Y-10452400D01*
X41877000Y-10452400D01*
X43615013Y-10452400D01*
X43659462Y-10443558D01*
X43659464Y-10443557D01*
X43709873Y-10409873D01*
X43743557Y-10359464D01*
X43743558Y-10359462D01*
X43752400Y-10315012D01*
X43752400Y-9877000D01*
X41877000Y-9877000D01*
X41877000Y-10452400D01*
X41623000Y-10452400D01*
X41623000Y-9877000D01*
X39747600Y-9877000D01*
X39747600Y-10315012D01*
X39500000Y-10315012D01*
X39500000Y-9184987D01*
X39747600Y-9184987D01*
X39747600Y-9623000D01*
X41623000Y-9623000D01*
X41877000Y-9623000D01*
X43752400Y-9623000D01*
X43752400Y-9184987D01*
X43743558Y-9140537D01*
X43743557Y-9140535D01*
X43709873Y-9090126D01*
X43659464Y-9056442D01*
X43659462Y-9056441D01*
X43615013Y-9047600D01*
X41877000Y-9047600D01*
X41877000Y-9623000D01*
X41623000Y-9623000D01*
X41623000Y-9047600D01*
X39884987Y-9047600D01*
X39840537Y-9056441D01*
X39840535Y-9056442D01*
X39790126Y-9090126D01*
X39756442Y-9140535D01*
X39756441Y-9140537D01*
X39747600Y-9184987D01*
X39500000Y-9184987D01*
X39500000Y-8782322D01*
X39517593Y-8733984D01*
X39562142Y-8708264D01*
X39564505Y-8707886D01*
X39565792Y-8707700D01*
X39565807Y-8707700D01*
X39692091Y-8670620D01*
X39802808Y-8599467D01*
X39802808Y-8599466D01*
X39802812Y-8599464D01*
X39818169Y-8581740D01*
X39863117Y-8556732D01*
X39913628Y-8566466D01*
X39931828Y-8581738D01*
X39947188Y-8599464D01*
X39947191Y-8599467D01*
X40057908Y-8670620D01*
X40147742Y-8696997D01*
X40184193Y-8707700D01*
X40184196Y-8707700D01*
X40315804Y-8707700D01*
X40315807Y-8707700D01*
X40442091Y-8670620D01*
X40552808Y-8599467D01*
X40552808Y-8599466D01*
X40552812Y-8599464D01*
X40639002Y-8499996D01*
X40693676Y-8380275D01*
X40703133Y-8314496D01*
X40727427Y-8269156D01*
X40775182Y-8250038D01*
X40777568Y-8250000D01*
X44468852Y-8250000D01*
X44517190Y-8267593D01*
G37*
%TD.AperFunction*%
%TD*%
M02*
