%TF.GenerationSoftware,KiCad,Pcbnew,8.0.7*%
%TF.CreationDate,2024-12-30T22:20:21-08:00*%
%TF.ProjectId,pizero-papoe,70697a65-726f-42d7-9061-706f652e6b69,0.1*%
%TF.SameCoordinates,PX652f520PY4a19ba0*%
%TF.FileFunction,Legend,Bot*%
%TF.FilePolarity,Positive*%
%FSLAX46Y46*%
G04 Gerber Fmt 4.6, Leading zero omitted, Abs format (unit mm)*
G04 Created by KiCad (PCBNEW 8.0.7) date 2024-12-30 22:20:21*
%MOMM*%
%LPD*%
G01*
G04 APERTURE LIST*
%ADD10C,0.150000*%
%ADD11C,0.120000*%
%ADD12C,0.100000*%
G04 APERTURE END LIST*
D10*
G36*
X-14331207Y-8944029D02*
G01*
X-14310325Y-8964911D01*
X-14281355Y-9022850D01*
X-14247494Y-9158292D01*
X-14247494Y-9330297D01*
X-14281355Y-9465738D01*
X-14310325Y-9523677D01*
X-14331208Y-9544561D01*
X-14380676Y-9569295D01*
X-14421456Y-9569295D01*
X-14470925Y-9544561D01*
X-14491808Y-9523677D01*
X-14520778Y-9465738D01*
X-14554637Y-9330299D01*
X-14554637Y-9158290D01*
X-14520778Y-9022851D01*
X-14491808Y-8964911D01*
X-14470926Y-8944029D01*
X-14421456Y-8919295D01*
X-14380676Y-8919295D01*
X-14331207Y-8944029D01*
G37*
G36*
X-13485590Y-9569295D02*
G01*
X-13588896Y-9569295D01*
X-13674838Y-9540648D01*
X-13729903Y-9485582D01*
X-13758873Y-9427642D01*
X-13792733Y-9292202D01*
X-13792733Y-9196387D01*
X-13758873Y-9060946D01*
X-13729903Y-9003006D01*
X-13674839Y-8947942D01*
X-13588896Y-8919295D01*
X-13485590Y-8919295D01*
X-13485590Y-9569295D01*
G37*
G36*
X-11875272Y-9808184D02*
G01*
X-14793526Y-9808184D01*
X-14793526Y-9149057D01*
X-14704637Y-9149057D01*
X-14704637Y-9339533D01*
X-14704386Y-9342086D01*
X-14704548Y-9343178D01*
X-14703740Y-9348650D01*
X-14703196Y-9354165D01*
X-14702773Y-9355186D01*
X-14702398Y-9357723D01*
X-14664303Y-9510104D01*
X-14663918Y-9511183D01*
X-14663879Y-9511723D01*
X-14661552Y-9517804D01*
X-14659356Y-9523950D01*
X-14659034Y-9524385D01*
X-14658624Y-9525455D01*
X-14620529Y-9601645D01*
X-14616566Y-9607941D01*
X-14615808Y-9609771D01*
X-14614119Y-9611829D01*
X-14612697Y-9614088D01*
X-14611199Y-9615387D01*
X-14606481Y-9621136D01*
X-14568386Y-9659232D01*
X-14562635Y-9663952D01*
X-14561336Y-9665450D01*
X-14559081Y-9666869D01*
X-14557021Y-9668560D01*
X-14555191Y-9669318D01*
X-14548893Y-9673282D01*
X-14472702Y-9711377D01*
X-14458970Y-9716632D01*
X-14456283Y-9716822D01*
X-14453793Y-9717854D01*
X-14439161Y-9719295D01*
X-14362971Y-9719295D01*
X-14348339Y-9717854D01*
X-14345850Y-9716822D01*
X-14343162Y-9716632D01*
X-14329430Y-9711377D01*
X-14253239Y-9673282D01*
X-14246940Y-9669317D01*
X-14245112Y-9668560D01*
X-14243056Y-9666872D01*
X-14240796Y-9665450D01*
X-14239496Y-9663950D01*
X-14233746Y-9659232D01*
X-14195651Y-9621136D01*
X-14190934Y-9615387D01*
X-14189435Y-9614088D01*
X-14188014Y-9611829D01*
X-14186324Y-9609771D01*
X-14185567Y-9607941D01*
X-14181603Y-9601645D01*
X-14143508Y-9525455D01*
X-14143099Y-9524385D01*
X-14142776Y-9523950D01*
X-14140578Y-9517798D01*
X-14138253Y-9511723D01*
X-14138215Y-9511184D01*
X-14137829Y-9510105D01*
X-14099733Y-9357723D01*
X-14099358Y-9355186D01*
X-14098935Y-9354165D01*
X-14098393Y-9348652D01*
X-14097583Y-9343179D01*
X-14097746Y-9342086D01*
X-14097494Y-9339533D01*
X-14097494Y-9187152D01*
X-13942733Y-9187152D01*
X-13942733Y-9301438D01*
X-13942482Y-9303991D01*
X-13942644Y-9305084D01*
X-13941835Y-9310558D01*
X-13941292Y-9316070D01*
X-13940870Y-9317090D01*
X-13940494Y-9319629D01*
X-13902398Y-9472010D01*
X-13902013Y-9473089D01*
X-13901974Y-9473628D01*
X-13899650Y-9479703D01*
X-13897451Y-9485855D01*
X-13897129Y-9486290D01*
X-13896719Y-9487360D01*
X-13858624Y-9563550D01*
X-13854661Y-9569846D01*
X-13853903Y-9571676D01*
X-13852214Y-9573734D01*
X-13850792Y-9575993D01*
X-13849294Y-9577292D01*
X-13844575Y-9583042D01*
X-13768385Y-9659233D01*
X-13757020Y-9668560D01*
X-13754530Y-9669591D01*
X-13752494Y-9671357D01*
X-13739069Y-9677351D01*
X-13624783Y-9715446D01*
X-13617530Y-9717095D01*
X-13615698Y-9717854D01*
X-13613044Y-9718115D01*
X-13610446Y-9718706D01*
X-13608472Y-9718565D01*
X-13601066Y-9719295D01*
X-13410590Y-9719295D01*
X-13395958Y-9717854D01*
X-13368922Y-9706655D01*
X-13348230Y-9685963D01*
X-13337031Y-9658927D01*
X-13335590Y-9644295D01*
X-13335590Y-8844295D01*
X-13337031Y-8829663D01*
X-13141291Y-8829663D01*
X-13141291Y-8858927D01*
X-13130092Y-8885963D01*
X-13109400Y-8906655D01*
X-13082364Y-8917854D01*
X-13067732Y-8919295D01*
X-12761780Y-8919295D01*
X-12761780Y-9150247D01*
X-12953446Y-9150247D01*
X-12968078Y-9151688D01*
X-12995114Y-9162887D01*
X-13015806Y-9183579D01*
X-13027005Y-9210615D01*
X-13027005Y-9239879D01*
X-13015806Y-9266915D01*
X-12995114Y-9287607D01*
X-12968078Y-9298806D01*
X-12953446Y-9300247D01*
X-12761780Y-9300247D01*
X-12761780Y-9569295D01*
X-13067732Y-9569295D01*
X-13082364Y-9570736D01*
X-13109400Y-9581935D01*
X-13130092Y-9602627D01*
X-13141291Y-9629663D01*
X-13141291Y-9658927D01*
X-13130092Y-9685963D01*
X-13109400Y-9706655D01*
X-13082364Y-9717854D01*
X-13067732Y-9719295D01*
X-12686780Y-9719295D01*
X-12672148Y-9717854D01*
X-12645112Y-9706655D01*
X-12624420Y-9685963D01*
X-12613221Y-9658927D01*
X-12611780Y-9644295D01*
X-12611780Y-9629663D01*
X-12493672Y-9629663D01*
X-12493672Y-9658927D01*
X-12482473Y-9685963D01*
X-12461781Y-9706655D01*
X-12434745Y-9717854D01*
X-12420113Y-9719295D01*
X-12039161Y-9719295D01*
X-12024529Y-9717854D01*
X-11997493Y-9706655D01*
X-11976801Y-9685963D01*
X-11965602Y-9658927D01*
X-11964161Y-9644295D01*
X-11964161Y-8844295D01*
X-11965602Y-8829663D01*
X-11976801Y-8802627D01*
X-11997493Y-8781935D01*
X-12024529Y-8770736D01*
X-12053793Y-8770736D01*
X-12080829Y-8781935D01*
X-12101521Y-8802627D01*
X-12112720Y-8829663D01*
X-12114161Y-8844295D01*
X-12114161Y-9569295D01*
X-12420113Y-9569295D01*
X-12434745Y-9570736D01*
X-12461781Y-9581935D01*
X-12482473Y-9602627D01*
X-12493672Y-9629663D01*
X-12611780Y-9629663D01*
X-12611780Y-8844295D01*
X-12613221Y-8829663D01*
X-12624420Y-8802627D01*
X-12645112Y-8781935D01*
X-12672148Y-8770736D01*
X-12686780Y-8769295D01*
X-13067732Y-8769295D01*
X-13082364Y-8770736D01*
X-13109400Y-8781935D01*
X-13130092Y-8802627D01*
X-13141291Y-8829663D01*
X-13337031Y-8829663D01*
X-13348230Y-8802627D01*
X-13368922Y-8781935D01*
X-13395958Y-8770736D01*
X-13410590Y-8769295D01*
X-13601066Y-8769295D01*
X-13608472Y-8770024D01*
X-13610446Y-8769884D01*
X-13613044Y-8770474D01*
X-13615698Y-8770736D01*
X-13617530Y-8771494D01*
X-13624783Y-8773144D01*
X-13739069Y-8811239D01*
X-13752494Y-8817233D01*
X-13754528Y-8818996D01*
X-13757020Y-8820029D01*
X-13768385Y-8829357D01*
X-13844575Y-8905547D01*
X-13849294Y-8911296D01*
X-13850792Y-8912596D01*
X-13852214Y-8914855D01*
X-13853902Y-8916912D01*
X-13854660Y-8918739D01*
X-13858624Y-8925039D01*
X-13896719Y-9001230D01*
X-13897129Y-9002299D01*
X-13897451Y-9002735D01*
X-13899650Y-9008886D01*
X-13901974Y-9014962D01*
X-13902013Y-9015500D01*
X-13902398Y-9016580D01*
X-13940494Y-9168961D01*
X-13940870Y-9171499D01*
X-13941292Y-9172520D01*
X-13941835Y-9178031D01*
X-13942644Y-9183506D01*
X-13942482Y-9184598D01*
X-13942733Y-9187152D01*
X-14097494Y-9187152D01*
X-14097494Y-9149057D01*
X-14097746Y-9146503D01*
X-14097583Y-9145411D01*
X-14098393Y-9139937D01*
X-14098935Y-9134425D01*
X-14099358Y-9133403D01*
X-14099733Y-9130867D01*
X-14137829Y-8978485D01*
X-14138215Y-8977405D01*
X-14138253Y-8976867D01*
X-14140578Y-8970791D01*
X-14142776Y-8964640D01*
X-14143099Y-8964204D01*
X-14143508Y-8963135D01*
X-14181603Y-8886944D01*
X-14185568Y-8880644D01*
X-14186325Y-8878817D01*
X-14188014Y-8876760D01*
X-14189435Y-8874501D01*
X-14190934Y-8873201D01*
X-14195652Y-8867452D01*
X-14233747Y-8829357D01*
X-14239497Y-8824638D01*
X-14240796Y-8823140D01*
X-14243056Y-8821718D01*
X-14245112Y-8820030D01*
X-14246940Y-8819272D01*
X-14253239Y-8815308D01*
X-14329430Y-8777213D01*
X-14343162Y-8771958D01*
X-14345850Y-8771767D01*
X-14348339Y-8770736D01*
X-14362971Y-8769295D01*
X-14439161Y-8769295D01*
X-14453793Y-8770736D01*
X-14456283Y-8771767D01*
X-14458970Y-8771958D01*
X-14472702Y-8777213D01*
X-14548893Y-8815308D01*
X-14555193Y-8819272D01*
X-14557020Y-8820030D01*
X-14559077Y-8821718D01*
X-14561336Y-8823140D01*
X-14562636Y-8824638D01*
X-14568385Y-8829357D01*
X-14606480Y-8867452D01*
X-14611199Y-8873201D01*
X-14612697Y-8874501D01*
X-14614119Y-8876760D01*
X-14615807Y-8878817D01*
X-14616565Y-8880644D01*
X-14620529Y-8886944D01*
X-14658624Y-8963135D01*
X-14659034Y-8964204D01*
X-14659356Y-8964640D01*
X-14661552Y-8970785D01*
X-14663879Y-8976867D01*
X-14663918Y-8977406D01*
X-14664303Y-8978486D01*
X-14702398Y-9130867D01*
X-14702773Y-9133403D01*
X-14703196Y-9134425D01*
X-14703740Y-9139939D01*
X-14704548Y-9145412D01*
X-14704386Y-9146503D01*
X-14704637Y-9149057D01*
X-14793526Y-9149057D01*
X-14793526Y-8680406D01*
X-11875272Y-8680406D01*
X-11875272Y-9808184D01*
G37*
G36*
X-13485590Y-21319295D02*
G01*
X-13588896Y-21319295D01*
X-13674838Y-21290648D01*
X-13729903Y-21235582D01*
X-13758873Y-21177642D01*
X-13792733Y-21042202D01*
X-13792733Y-20946387D01*
X-13758873Y-20810946D01*
X-13729903Y-20753006D01*
X-13674839Y-20697942D01*
X-13588896Y-20669295D01*
X-13485590Y-20669295D01*
X-13485590Y-21319295D01*
G37*
G36*
X-11875272Y-21558184D02*
G01*
X-14792085Y-21558184D01*
X-14792085Y-21379663D01*
X-14703196Y-21379663D01*
X-14703196Y-21408927D01*
X-14691997Y-21435963D01*
X-14671305Y-21456655D01*
X-14644269Y-21467854D01*
X-14629637Y-21469295D01*
X-14172494Y-21469295D01*
X-14157862Y-21467854D01*
X-14130826Y-21456655D01*
X-14110134Y-21435963D01*
X-14098935Y-21408927D01*
X-14098935Y-21379663D01*
X-14110134Y-21352627D01*
X-14130826Y-21331935D01*
X-14157862Y-21320736D01*
X-14172494Y-21319295D01*
X-14326066Y-21319295D01*
X-14326066Y-20937152D01*
X-13942733Y-20937152D01*
X-13942733Y-21051438D01*
X-13942482Y-21053991D01*
X-13942644Y-21055084D01*
X-13941835Y-21060558D01*
X-13941292Y-21066070D01*
X-13940870Y-21067090D01*
X-13940494Y-21069629D01*
X-13902398Y-21222010D01*
X-13902013Y-21223089D01*
X-13901974Y-21223628D01*
X-13899650Y-21229703D01*
X-13897451Y-21235855D01*
X-13897129Y-21236290D01*
X-13896719Y-21237360D01*
X-13858624Y-21313550D01*
X-13854661Y-21319846D01*
X-13853903Y-21321676D01*
X-13852214Y-21323734D01*
X-13850792Y-21325993D01*
X-13849294Y-21327292D01*
X-13844575Y-21333042D01*
X-13768385Y-21409233D01*
X-13757020Y-21418560D01*
X-13754530Y-21419591D01*
X-13752494Y-21421357D01*
X-13739069Y-21427351D01*
X-13624783Y-21465446D01*
X-13617530Y-21467095D01*
X-13615698Y-21467854D01*
X-13613044Y-21468115D01*
X-13610446Y-21468706D01*
X-13608472Y-21468565D01*
X-13601066Y-21469295D01*
X-13410590Y-21469295D01*
X-13395958Y-21467854D01*
X-13368922Y-21456655D01*
X-13348230Y-21435963D01*
X-13337031Y-21408927D01*
X-13335590Y-21394295D01*
X-13335590Y-20594295D01*
X-13337031Y-20579663D01*
X-13141291Y-20579663D01*
X-13141291Y-20608927D01*
X-13130092Y-20635963D01*
X-13109400Y-20656655D01*
X-13082364Y-20667854D01*
X-13067732Y-20669295D01*
X-12761780Y-20669295D01*
X-12761780Y-20900247D01*
X-12953446Y-20900247D01*
X-12968078Y-20901688D01*
X-12995114Y-20912887D01*
X-13015806Y-20933579D01*
X-13027005Y-20960615D01*
X-13027005Y-20989879D01*
X-13015806Y-21016915D01*
X-12995114Y-21037607D01*
X-12968078Y-21048806D01*
X-12953446Y-21050247D01*
X-12761780Y-21050247D01*
X-12761780Y-21319295D01*
X-13067732Y-21319295D01*
X-13082364Y-21320736D01*
X-13109400Y-21331935D01*
X-13130092Y-21352627D01*
X-13141291Y-21379663D01*
X-13141291Y-21408927D01*
X-13130092Y-21435963D01*
X-13109400Y-21456655D01*
X-13082364Y-21467854D01*
X-13067732Y-21469295D01*
X-12686780Y-21469295D01*
X-12672148Y-21467854D01*
X-12645112Y-21456655D01*
X-12624420Y-21435963D01*
X-12613221Y-21408927D01*
X-12611780Y-21394295D01*
X-12611780Y-21379663D01*
X-12493672Y-21379663D01*
X-12493672Y-21408927D01*
X-12482473Y-21435963D01*
X-12461781Y-21456655D01*
X-12434745Y-21467854D01*
X-12420113Y-21469295D01*
X-12039161Y-21469295D01*
X-12024529Y-21467854D01*
X-11997493Y-21456655D01*
X-11976801Y-21435963D01*
X-11965602Y-21408927D01*
X-11964161Y-21394295D01*
X-11964161Y-20594295D01*
X-11965602Y-20579663D01*
X-11976801Y-20552627D01*
X-11997493Y-20531935D01*
X-12024529Y-20520736D01*
X-12053793Y-20520736D01*
X-12080829Y-20531935D01*
X-12101521Y-20552627D01*
X-12112720Y-20579663D01*
X-12114161Y-20594295D01*
X-12114161Y-21319295D01*
X-12420113Y-21319295D01*
X-12434745Y-21320736D01*
X-12461781Y-21331935D01*
X-12482473Y-21352627D01*
X-12493672Y-21379663D01*
X-12611780Y-21379663D01*
X-12611780Y-20594295D01*
X-12613221Y-20579663D01*
X-12624420Y-20552627D01*
X-12645112Y-20531935D01*
X-12672148Y-20520736D01*
X-12686780Y-20519295D01*
X-13067732Y-20519295D01*
X-13082364Y-20520736D01*
X-13109400Y-20531935D01*
X-13130092Y-20552627D01*
X-13141291Y-20579663D01*
X-13337031Y-20579663D01*
X-13348230Y-20552627D01*
X-13368922Y-20531935D01*
X-13395958Y-20520736D01*
X-13410590Y-20519295D01*
X-13601066Y-20519295D01*
X-13608472Y-20520024D01*
X-13610446Y-20519884D01*
X-13613044Y-20520474D01*
X-13615698Y-20520736D01*
X-13617530Y-20521494D01*
X-13624783Y-20523144D01*
X-13739069Y-20561239D01*
X-13752494Y-20567233D01*
X-13754528Y-20568996D01*
X-13757020Y-20570029D01*
X-13768385Y-20579357D01*
X-13844575Y-20655547D01*
X-13849294Y-20661296D01*
X-13850792Y-20662596D01*
X-13852214Y-20664855D01*
X-13853902Y-20666912D01*
X-13854660Y-20668739D01*
X-13858624Y-20675039D01*
X-13896719Y-20751230D01*
X-13897129Y-20752299D01*
X-13897451Y-20752735D01*
X-13899650Y-20758886D01*
X-13901974Y-20764962D01*
X-13902013Y-20765500D01*
X-13902398Y-20766580D01*
X-13940494Y-20918961D01*
X-13940870Y-20921499D01*
X-13941292Y-20922520D01*
X-13941835Y-20928031D01*
X-13942644Y-20933506D01*
X-13942482Y-20934598D01*
X-13942733Y-20937152D01*
X-14326066Y-20937152D01*
X-14326066Y-20813455D01*
X-14301718Y-20837804D01*
X-14295969Y-20842522D01*
X-14294669Y-20844021D01*
X-14292410Y-20845442D01*
X-14290353Y-20847131D01*
X-14288526Y-20847888D01*
X-14282226Y-20851853D01*
X-14206035Y-20889948D01*
X-14192303Y-20895203D01*
X-14163113Y-20897277D01*
X-14135352Y-20888023D01*
X-14113244Y-20868850D01*
X-14100157Y-20842675D01*
X-14098083Y-20813485D01*
X-14107337Y-20785724D01*
X-14126510Y-20763616D01*
X-14138953Y-20755784D01*
X-14204258Y-20723131D01*
X-14266590Y-20660800D01*
X-14338662Y-20552692D01*
X-14338697Y-20552649D01*
X-14338706Y-20552627D01*
X-14338758Y-20552575D01*
X-14347978Y-20541317D01*
X-14354148Y-20537185D01*
X-14359398Y-20531935D01*
X-14366188Y-20529122D01*
X-14372293Y-20525034D01*
X-14379574Y-20523577D01*
X-14386434Y-20520736D01*
X-14393783Y-20520736D01*
X-14400988Y-20519295D01*
X-14408272Y-20520736D01*
X-14415698Y-20520736D01*
X-14422487Y-20523547D01*
X-14429695Y-20524974D01*
X-14435874Y-20529093D01*
X-14442734Y-20531935D01*
X-14447930Y-20537130D01*
X-14454044Y-20541207D01*
X-14458176Y-20547376D01*
X-14463426Y-20552627D01*
X-14466239Y-20559416D01*
X-14470327Y-20565522D01*
X-14471784Y-20572802D01*
X-14474625Y-20579663D01*
X-14476051Y-20594141D01*
X-14476066Y-20594217D01*
X-14476061Y-20594242D01*
X-14476066Y-20594295D01*
X-14476066Y-21319295D01*
X-14629637Y-21319295D01*
X-14644269Y-21320736D01*
X-14671305Y-21331935D01*
X-14691997Y-21352627D01*
X-14703196Y-21379663D01*
X-14792085Y-21379663D01*
X-14792085Y-20430406D01*
X-11875272Y-20430406D01*
X-11875272Y-21558184D01*
G37*
X-289161Y-4324340D02*
X-289161Y-3524340D01*
X-289161Y-3524340D02*
X-593923Y-3524340D01*
X-593923Y-3524340D02*
X-670113Y-3562435D01*
X-670113Y-3562435D02*
X-708208Y-3600530D01*
X-708208Y-3600530D02*
X-746304Y-3676721D01*
X-746304Y-3676721D02*
X-746304Y-3791006D01*
X-746304Y-3791006D02*
X-708208Y-3867197D01*
X-708208Y-3867197D02*
X-670113Y-3905292D01*
X-670113Y-3905292D02*
X-593923Y-3943387D01*
X-593923Y-3943387D02*
X-289161Y-3943387D01*
X-1089161Y-4324340D02*
X-1089161Y-3791006D01*
X-1089161Y-3524340D02*
X-1051065Y-3562435D01*
X-1051065Y-3562435D02*
X-1089161Y-3600530D01*
X-1089161Y-3600530D02*
X-1127256Y-3562435D01*
X-1127256Y-3562435D02*
X-1089161Y-3524340D01*
X-1089161Y-3524340D02*
X-1089161Y-3600530D01*
X-1393922Y-3524340D02*
X-1927256Y-3524340D01*
X-1927256Y-3524340D02*
X-1393922Y-4324340D01*
X-1393922Y-4324340D02*
X-1927256Y-4324340D01*
X-2536780Y-4286245D02*
X-2460589Y-4324340D01*
X-2460589Y-4324340D02*
X-2308208Y-4324340D01*
X-2308208Y-4324340D02*
X-2232018Y-4286245D01*
X-2232018Y-4286245D02*
X-2193922Y-4210054D01*
X-2193922Y-4210054D02*
X-2193922Y-3905292D01*
X-2193922Y-3905292D02*
X-2232018Y-3829102D01*
X-2232018Y-3829102D02*
X-2308208Y-3791006D01*
X-2308208Y-3791006D02*
X-2460589Y-3791006D01*
X-2460589Y-3791006D02*
X-2536780Y-3829102D01*
X-2536780Y-3829102D02*
X-2574875Y-3905292D01*
X-2574875Y-3905292D02*
X-2574875Y-3981483D01*
X-2574875Y-3981483D02*
X-2193922Y-4057673D01*
X-2917732Y-4324340D02*
X-2917732Y-3791006D01*
X-2917732Y-3943387D02*
X-2955827Y-3867197D01*
X-2955827Y-3867197D02*
X-2993922Y-3829102D01*
X-2993922Y-3829102D02*
X-3070113Y-3791006D01*
X-3070113Y-3791006D02*
X-3146303Y-3791006D01*
X-3527255Y-4324340D02*
X-3451065Y-4286245D01*
X-3451065Y-4286245D02*
X-3412970Y-4248149D01*
X-3412970Y-4248149D02*
X-3374874Y-4171959D01*
X-3374874Y-4171959D02*
X-3374874Y-3943387D01*
X-3374874Y-3943387D02*
X-3412970Y-3867197D01*
X-3412970Y-3867197D02*
X-3451065Y-3829102D01*
X-3451065Y-3829102D02*
X-3527255Y-3791006D01*
X-3527255Y-3791006D02*
X-3641541Y-3791006D01*
X-3641541Y-3791006D02*
X-3717732Y-3829102D01*
X-3717732Y-3829102D02*
X-3755827Y-3867197D01*
X-3755827Y-3867197D02*
X-3793922Y-3943387D01*
X-3793922Y-3943387D02*
X-3793922Y-4171959D01*
X-3793922Y-4171959D02*
X-3755827Y-4248149D01*
X-3755827Y-4248149D02*
X-3717732Y-4286245D01*
X-3717732Y-4286245D02*
X-3641541Y-4324340D01*
X-3641541Y-4324340D02*
X-3527255Y-4324340D01*
X-4746304Y-4324340D02*
X-4746304Y-3524340D01*
X-4746304Y-3524340D02*
X-5051066Y-3524340D01*
X-5051066Y-3524340D02*
X-5127256Y-3562435D01*
X-5127256Y-3562435D02*
X-5165351Y-3600530D01*
X-5165351Y-3600530D02*
X-5203447Y-3676721D01*
X-5203447Y-3676721D02*
X-5203447Y-3791006D01*
X-5203447Y-3791006D02*
X-5165351Y-3867197D01*
X-5165351Y-3867197D02*
X-5127256Y-3905292D01*
X-5127256Y-3905292D02*
X-5051066Y-3943387D01*
X-5051066Y-3943387D02*
X-4746304Y-3943387D01*
X-5889161Y-4324340D02*
X-5889161Y-3905292D01*
X-5889161Y-3905292D02*
X-5851066Y-3829102D01*
X-5851066Y-3829102D02*
X-5774875Y-3791006D01*
X-5774875Y-3791006D02*
X-5622494Y-3791006D01*
X-5622494Y-3791006D02*
X-5546304Y-3829102D01*
X-5889161Y-4286245D02*
X-5812970Y-4324340D01*
X-5812970Y-4324340D02*
X-5622494Y-4324340D01*
X-5622494Y-4324340D02*
X-5546304Y-4286245D01*
X-5546304Y-4286245D02*
X-5508208Y-4210054D01*
X-5508208Y-4210054D02*
X-5508208Y-4133864D01*
X-5508208Y-4133864D02*
X-5546304Y-4057673D01*
X-5546304Y-4057673D02*
X-5622494Y-4019578D01*
X-5622494Y-4019578D02*
X-5812970Y-4019578D01*
X-5812970Y-4019578D02*
X-5889161Y-3981483D01*
X-6270114Y-4324340D02*
X-6270114Y-3524340D01*
X-6270114Y-3524340D02*
X-6574876Y-3524340D01*
X-6574876Y-3524340D02*
X-6651066Y-3562435D01*
X-6651066Y-3562435D02*
X-6689161Y-3600530D01*
X-6689161Y-3600530D02*
X-6727257Y-3676721D01*
X-6727257Y-3676721D02*
X-6727257Y-3791006D01*
X-6727257Y-3791006D02*
X-6689161Y-3867197D01*
X-6689161Y-3867197D02*
X-6651066Y-3905292D01*
X-6651066Y-3905292D02*
X-6574876Y-3943387D01*
X-6574876Y-3943387D02*
X-6270114Y-3943387D01*
X-7184399Y-4324340D02*
X-7108209Y-4286245D01*
X-7108209Y-4286245D02*
X-7070114Y-4248149D01*
X-7070114Y-4248149D02*
X-7032018Y-4171959D01*
X-7032018Y-4171959D02*
X-7032018Y-3943387D01*
X-7032018Y-3943387D02*
X-7070114Y-3867197D01*
X-7070114Y-3867197D02*
X-7108209Y-3829102D01*
X-7108209Y-3829102D02*
X-7184399Y-3791006D01*
X-7184399Y-3791006D02*
X-7298685Y-3791006D01*
X-7298685Y-3791006D02*
X-7374876Y-3829102D01*
X-7374876Y-3829102D02*
X-7412971Y-3867197D01*
X-7412971Y-3867197D02*
X-7451066Y-3943387D01*
X-7451066Y-3943387D02*
X-7451066Y-4171959D01*
X-7451066Y-4171959D02*
X-7412971Y-4248149D01*
X-7412971Y-4248149D02*
X-7374876Y-4286245D01*
X-7374876Y-4286245D02*
X-7298685Y-4324340D01*
X-7298685Y-4324340D02*
X-7184399Y-4324340D01*
X-7793924Y-3905292D02*
X-8060590Y-3905292D01*
X-8174876Y-4324340D02*
X-7793924Y-4324340D01*
X-7793924Y-4324340D02*
X-7793924Y-3524340D01*
X-7793924Y-3524340D02*
X-8174876Y-3524340D01*
X-746304Y-5536104D02*
X-708208Y-5574200D01*
X-708208Y-5574200D02*
X-593923Y-5612295D01*
X-593923Y-5612295D02*
X-517732Y-5612295D01*
X-517732Y-5612295D02*
X-403446Y-5574200D01*
X-403446Y-5574200D02*
X-327256Y-5498009D01*
X-327256Y-5498009D02*
X-289161Y-5421819D01*
X-289161Y-5421819D02*
X-251065Y-5269438D01*
X-251065Y-5269438D02*
X-251065Y-5155152D01*
X-251065Y-5155152D02*
X-289161Y-5002771D01*
X-289161Y-5002771D02*
X-327256Y-4926580D01*
X-327256Y-4926580D02*
X-403446Y-4850390D01*
X-403446Y-4850390D02*
X-517732Y-4812295D01*
X-517732Y-4812295D02*
X-593923Y-4812295D01*
X-593923Y-4812295D02*
X-708208Y-4850390D01*
X-708208Y-4850390D02*
X-746304Y-4888485D01*
X-1089161Y-5193247D02*
X-1355827Y-5193247D01*
X-1470113Y-5612295D02*
X-1089161Y-5612295D01*
X-1089161Y-5612295D02*
X-1089161Y-4812295D01*
X-1089161Y-4812295D02*
X-1470113Y-4812295D01*
X-2270114Y-5612295D02*
X-2003447Y-5231342D01*
X-1812971Y-5612295D02*
X-1812971Y-4812295D01*
X-1812971Y-4812295D02*
X-2117733Y-4812295D01*
X-2117733Y-4812295D02*
X-2193923Y-4850390D01*
X-2193923Y-4850390D02*
X-2232018Y-4888485D01*
X-2232018Y-4888485D02*
X-2270114Y-4964676D01*
X-2270114Y-4964676D02*
X-2270114Y-5078961D01*
X-2270114Y-5078961D02*
X-2232018Y-5155152D01*
X-2232018Y-5155152D02*
X-2193923Y-5193247D01*
X-2193923Y-5193247D02*
X-2117733Y-5231342D01*
X-2117733Y-5231342D02*
X-1812971Y-5231342D01*
X-2612971Y-5612295D02*
X-2612971Y-4812295D01*
X-2612971Y-4812295D02*
X-3070114Y-5612295D01*
X-3070114Y-5612295D02*
X-3070114Y-4812295D01*
X-4212971Y-4812295D02*
X-4365352Y-4812295D01*
X-4365352Y-4812295D02*
X-4441542Y-4850390D01*
X-4441542Y-4850390D02*
X-4517733Y-4926580D01*
X-4517733Y-4926580D02*
X-4555828Y-5078961D01*
X-4555828Y-5078961D02*
X-4555828Y-5345628D01*
X-4555828Y-5345628D02*
X-4517733Y-5498009D01*
X-4517733Y-5498009D02*
X-4441542Y-5574200D01*
X-4441542Y-5574200D02*
X-4365352Y-5612295D01*
X-4365352Y-5612295D02*
X-4212971Y-5612295D01*
X-4212971Y-5612295D02*
X-4136780Y-5574200D01*
X-4136780Y-5574200D02*
X-4060590Y-5498009D01*
X-4060590Y-5498009D02*
X-4022494Y-5345628D01*
X-4022494Y-5345628D02*
X-4022494Y-5078961D01*
X-4022494Y-5078961D02*
X-4060590Y-4926580D01*
X-4060590Y-4926580D02*
X-4136780Y-4850390D01*
X-4136780Y-4850390D02*
X-4212971Y-4812295D01*
X-4898685Y-5612295D02*
X-4898685Y-4812295D01*
X-4898685Y-5193247D02*
X-5355828Y-5193247D01*
X-5355828Y-5612295D02*
X-5355828Y-4812295D01*
X-6117732Y-5612295D02*
X-5736780Y-5612295D01*
X-5736780Y-5612295D02*
X-5736780Y-4812295D01*
X-6879637Y-4812295D02*
X-7146304Y-5612295D01*
X-7146304Y-5612295D02*
X-7412970Y-4812295D01*
X-8098684Y-5612295D02*
X-7641541Y-5612295D01*
X-7870113Y-5612295D02*
X-7870113Y-4812295D01*
X-7870113Y-4812295D02*
X-7793922Y-4926580D01*
X-7793922Y-4926580D02*
X-7717732Y-5002771D01*
X-7717732Y-5002771D02*
X-7641541Y-5040866D01*
X-8441542Y-5536104D02*
X-8479637Y-5574200D01*
X-8479637Y-5574200D02*
X-8441542Y-5612295D01*
X-8441542Y-5612295D02*
X-8403446Y-5574200D01*
X-8403446Y-5574200D02*
X-8441542Y-5536104D01*
X-8441542Y-5536104D02*
X-8441542Y-5612295D01*
X-8784398Y-4888485D02*
X-8822494Y-4850390D01*
X-8822494Y-4850390D02*
X-8898684Y-4812295D01*
X-8898684Y-4812295D02*
X-9089160Y-4812295D01*
X-9089160Y-4812295D02*
X-9165351Y-4850390D01*
X-9165351Y-4850390D02*
X-9203446Y-4888485D01*
X-9203446Y-4888485D02*
X-9241541Y-4964676D01*
X-9241541Y-4964676D02*
X-9241541Y-5040866D01*
X-9241541Y-5040866D02*
X-9203446Y-5155152D01*
X-9203446Y-5155152D02*
X-8746303Y-5612295D01*
X-8746303Y-5612295D02*
X-9241541Y-5612295D01*
X-289161Y-6900250D02*
X-289161Y-6366916D01*
X-289161Y-6100250D02*
X-251065Y-6138345D01*
X-251065Y-6138345D02*
X-289161Y-6176440D01*
X-289161Y-6176440D02*
X-327256Y-6138345D01*
X-327256Y-6138345D02*
X-289161Y-6100250D01*
X-289161Y-6100250D02*
X-289161Y-6176440D01*
X-670113Y-6900250D02*
X-670113Y-6100250D01*
X-1012970Y-6900250D02*
X-1012970Y-6481202D01*
X-1012970Y-6481202D02*
X-974875Y-6405012D01*
X-974875Y-6405012D02*
X-898684Y-6366916D01*
X-898684Y-6366916D02*
X-784398Y-6366916D01*
X-784398Y-6366916D02*
X-708208Y-6405012D01*
X-708208Y-6405012D02*
X-670113Y-6443107D01*
X-1736780Y-6900250D02*
X-1736780Y-6481202D01*
X-1736780Y-6481202D02*
X-1698685Y-6405012D01*
X-1698685Y-6405012D02*
X-1622494Y-6366916D01*
X-1622494Y-6366916D02*
X-1470113Y-6366916D01*
X-1470113Y-6366916D02*
X-1393923Y-6405012D01*
X-1736780Y-6862155D02*
X-1660589Y-6900250D01*
X-1660589Y-6900250D02*
X-1470113Y-6900250D01*
X-1470113Y-6900250D02*
X-1393923Y-6862155D01*
X-1393923Y-6862155D02*
X-1355827Y-6785964D01*
X-1355827Y-6785964D02*
X-1355827Y-6709774D01*
X-1355827Y-6709774D02*
X-1393923Y-6633583D01*
X-1393923Y-6633583D02*
X-1470113Y-6595488D01*
X-1470113Y-6595488D02*
X-1660589Y-6595488D01*
X-1660589Y-6595488D02*
X-1736780Y-6557393D01*
X-2117733Y-6900250D02*
X-2117733Y-6366916D01*
X-2117733Y-6519297D02*
X-2155828Y-6443107D01*
X-2155828Y-6443107D02*
X-2193923Y-6405012D01*
X-2193923Y-6405012D02*
X-2270114Y-6366916D01*
X-2270114Y-6366916D02*
X-2346304Y-6366916D01*
X-2498685Y-6366916D02*
X-2803447Y-6366916D01*
X-2612971Y-6100250D02*
X-2612971Y-6785964D01*
X-2612971Y-6785964D02*
X-2651066Y-6862155D01*
X-2651066Y-6862155D02*
X-2727256Y-6900250D01*
X-2727256Y-6900250D02*
X-2803447Y-6900250D01*
X-2993923Y-6366916D02*
X-3146304Y-6900250D01*
X-3146304Y-6900250D02*
X-3298685Y-6519297D01*
X-3298685Y-6519297D02*
X-3451066Y-6900250D01*
X-3451066Y-6900250D02*
X-3603447Y-6366916D01*
X-3908209Y-6900250D02*
X-3908209Y-6366916D01*
X-3908209Y-6100250D02*
X-3870113Y-6138345D01*
X-3870113Y-6138345D02*
X-3908209Y-6176440D01*
X-3908209Y-6176440D02*
X-3946304Y-6138345D01*
X-3946304Y-6138345D02*
X-3908209Y-6100250D01*
X-3908209Y-6100250D02*
X-3908209Y-6176440D01*
X-4632018Y-6366916D02*
X-4632018Y-7014535D01*
X-4632018Y-7014535D02*
X-4593923Y-7090726D01*
X-4593923Y-7090726D02*
X-4555827Y-7128821D01*
X-4555827Y-7128821D02*
X-4479637Y-7166916D01*
X-4479637Y-7166916D02*
X-4365351Y-7166916D01*
X-4365351Y-7166916D02*
X-4289161Y-7128821D01*
X-4632018Y-6862155D02*
X-4555827Y-6900250D01*
X-4555827Y-6900250D02*
X-4403446Y-6900250D01*
X-4403446Y-6900250D02*
X-4327256Y-6862155D01*
X-4327256Y-6862155D02*
X-4289161Y-6824059D01*
X-4289161Y-6824059D02*
X-4251065Y-6747869D01*
X-4251065Y-6747869D02*
X-4251065Y-6519297D01*
X-4251065Y-6519297D02*
X-4289161Y-6443107D01*
X-4289161Y-6443107D02*
X-4327256Y-6405012D01*
X-4327256Y-6405012D02*
X-4403446Y-6366916D01*
X-4403446Y-6366916D02*
X-4555827Y-6366916D01*
X-4555827Y-6366916D02*
X-4632018Y-6405012D01*
X-5660590Y-6100250D02*
X-5584399Y-6252631D01*
X-5965351Y-6176440D02*
X-6003447Y-6138345D01*
X-6003447Y-6138345D02*
X-6079637Y-6100250D01*
X-6079637Y-6100250D02*
X-6270113Y-6100250D01*
X-6270113Y-6100250D02*
X-6346304Y-6138345D01*
X-6346304Y-6138345D02*
X-6384399Y-6176440D01*
X-6384399Y-6176440D02*
X-6422494Y-6252631D01*
X-6422494Y-6252631D02*
X-6422494Y-6328821D01*
X-6422494Y-6328821D02*
X-6384399Y-6443107D01*
X-6384399Y-6443107D02*
X-5927256Y-6900250D01*
X-5927256Y-6900250D02*
X-6422494Y-6900250D01*
X-7108209Y-6366916D02*
X-7108209Y-6900250D01*
X-6917733Y-6062155D02*
X-6727256Y-6633583D01*
X-6727256Y-6633583D02*
X-7222495Y-6633583D01*
X-8593924Y-6900250D02*
X-8327257Y-6519297D01*
X-8136781Y-6900250D02*
X-8136781Y-6100250D01*
X-8136781Y-6100250D02*
X-8441543Y-6100250D01*
X-8441543Y-6100250D02*
X-8517733Y-6138345D01*
X-8517733Y-6138345D02*
X-8555828Y-6176440D01*
X-8555828Y-6176440D02*
X-8593924Y-6252631D01*
X-8593924Y-6252631D02*
X-8593924Y-6366916D01*
X-8593924Y-6366916D02*
X-8555828Y-6443107D01*
X-8555828Y-6443107D02*
X-8517733Y-6481202D01*
X-8517733Y-6481202D02*
X-8441543Y-6519297D01*
X-8441543Y-6519297D02*
X-8136781Y-6519297D01*
X-9355828Y-6900250D02*
X-8898685Y-6900250D01*
X-9127257Y-6900250D02*
X-9127257Y-6100250D01*
X-9127257Y-6100250D02*
X-9051066Y-6214535D01*
X-9051066Y-6214535D02*
X-8974876Y-6290726D01*
X-8974876Y-6290726D02*
X-8898685Y-6328821D01*
X61764285Y-23036104D02*
X61802381Y-23074200D01*
X61802381Y-23074200D02*
X61916666Y-23112295D01*
X61916666Y-23112295D02*
X61992857Y-23112295D01*
X61992857Y-23112295D02*
X62107143Y-23074200D01*
X62107143Y-23074200D02*
X62183333Y-22998009D01*
X62183333Y-22998009D02*
X62221428Y-22921819D01*
X62221428Y-22921819D02*
X62259524Y-22769438D01*
X62259524Y-22769438D02*
X62259524Y-22655152D01*
X62259524Y-22655152D02*
X62221428Y-22502771D01*
X62221428Y-22502771D02*
X62183333Y-22426580D01*
X62183333Y-22426580D02*
X62107143Y-22350390D01*
X62107143Y-22350390D02*
X61992857Y-22312295D01*
X61992857Y-22312295D02*
X61916666Y-22312295D01*
X61916666Y-22312295D02*
X61802381Y-22350390D01*
X61802381Y-22350390D02*
X61764285Y-22388485D01*
X61002381Y-23112295D02*
X61459524Y-23112295D01*
X61230952Y-23112295D02*
X61230952Y-22312295D01*
X61230952Y-22312295D02*
X61307143Y-22426580D01*
X61307143Y-22426580D02*
X61383333Y-22502771D01*
X61383333Y-22502771D02*
X61459524Y-22540866D01*
X60621428Y-23112295D02*
X60469047Y-23112295D01*
X60469047Y-23112295D02*
X60392857Y-23074200D01*
X60392857Y-23074200D02*
X60354761Y-23036104D01*
X60354761Y-23036104D02*
X60278571Y-22921819D01*
X60278571Y-22921819D02*
X60240476Y-22769438D01*
X60240476Y-22769438D02*
X60240476Y-22464676D01*
X60240476Y-22464676D02*
X60278571Y-22388485D01*
X60278571Y-22388485D02*
X60316666Y-22350390D01*
X60316666Y-22350390D02*
X60392857Y-22312295D01*
X60392857Y-22312295D02*
X60545238Y-22312295D01*
X60545238Y-22312295D02*
X60621428Y-22350390D01*
X60621428Y-22350390D02*
X60659523Y-22388485D01*
X60659523Y-22388485D02*
X60697619Y-22464676D01*
X60697619Y-22464676D02*
X60697619Y-22655152D01*
X60697619Y-22655152D02*
X60659523Y-22731342D01*
X60659523Y-22731342D02*
X60621428Y-22769438D01*
X60621428Y-22769438D02*
X60545238Y-22807533D01*
X60545238Y-22807533D02*
X60392857Y-22807533D01*
X60392857Y-22807533D02*
X60316666Y-22769438D01*
X60316666Y-22769438D02*
X60278571Y-22731342D01*
X60278571Y-22731342D02*
X60240476Y-22655152D01*
X43541792Y-25600390D02*
X43617982Y-25562295D01*
X43617982Y-25562295D02*
X43732268Y-25562295D01*
X43732268Y-25562295D02*
X43846554Y-25600390D01*
X43846554Y-25600390D02*
X43922744Y-25676580D01*
X43922744Y-25676580D02*
X43960839Y-25752771D01*
X43960839Y-25752771D02*
X43998935Y-25905152D01*
X43998935Y-25905152D02*
X43998935Y-26019438D01*
X43998935Y-26019438D02*
X43960839Y-26171819D01*
X43960839Y-26171819D02*
X43922744Y-26248009D01*
X43922744Y-26248009D02*
X43846554Y-26324200D01*
X43846554Y-26324200D02*
X43732268Y-26362295D01*
X43732268Y-26362295D02*
X43656077Y-26362295D01*
X43656077Y-26362295D02*
X43541792Y-26324200D01*
X43541792Y-26324200D02*
X43503696Y-26286104D01*
X43503696Y-26286104D02*
X43503696Y-26019438D01*
X43503696Y-26019438D02*
X43656077Y-26019438D01*
X43160839Y-26362295D02*
X43160839Y-25562295D01*
X43160839Y-25562295D02*
X42703696Y-26362295D01*
X42703696Y-26362295D02*
X42703696Y-25562295D01*
X42322744Y-26362295D02*
X42322744Y-25562295D01*
X42322744Y-25562295D02*
X42132268Y-25562295D01*
X42132268Y-25562295D02*
X42017982Y-25600390D01*
X42017982Y-25600390D02*
X41941792Y-25676580D01*
X41941792Y-25676580D02*
X41903697Y-25752771D01*
X41903697Y-25752771D02*
X41865601Y-25905152D01*
X41865601Y-25905152D02*
X41865601Y-26019438D01*
X41865601Y-26019438D02*
X41903697Y-26171819D01*
X41903697Y-26171819D02*
X41941792Y-26248009D01*
X41941792Y-26248009D02*
X42017982Y-26324200D01*
X42017982Y-26324200D02*
X42132268Y-26362295D01*
X42132268Y-26362295D02*
X42322744Y-26362295D01*
X61764285Y-7536104D02*
X61802381Y-7574200D01*
X61802381Y-7574200D02*
X61916666Y-7612295D01*
X61916666Y-7612295D02*
X61992857Y-7612295D01*
X61992857Y-7612295D02*
X62107143Y-7574200D01*
X62107143Y-7574200D02*
X62183333Y-7498009D01*
X62183333Y-7498009D02*
X62221428Y-7421819D01*
X62221428Y-7421819D02*
X62259524Y-7269438D01*
X62259524Y-7269438D02*
X62259524Y-7155152D01*
X62259524Y-7155152D02*
X62221428Y-7002771D01*
X62221428Y-7002771D02*
X62183333Y-6926580D01*
X62183333Y-6926580D02*
X62107143Y-6850390D01*
X62107143Y-6850390D02*
X61992857Y-6812295D01*
X61992857Y-6812295D02*
X61916666Y-6812295D01*
X61916666Y-6812295D02*
X61802381Y-6850390D01*
X61802381Y-6850390D02*
X61764285Y-6888485D01*
X61459524Y-6888485D02*
X61421428Y-6850390D01*
X61421428Y-6850390D02*
X61345238Y-6812295D01*
X61345238Y-6812295D02*
X61154762Y-6812295D01*
X61154762Y-6812295D02*
X61078571Y-6850390D01*
X61078571Y-6850390D02*
X61040476Y-6888485D01*
X61040476Y-6888485D02*
X61002381Y-6964676D01*
X61002381Y-6964676D02*
X61002381Y-7040866D01*
X61002381Y-7040866D02*
X61040476Y-7155152D01*
X61040476Y-7155152D02*
X61497619Y-7612295D01*
X61497619Y-7612295D02*
X61002381Y-7612295D01*
X60697619Y-6888485D02*
X60659523Y-6850390D01*
X60659523Y-6850390D02*
X60583333Y-6812295D01*
X60583333Y-6812295D02*
X60392857Y-6812295D01*
X60392857Y-6812295D02*
X60316666Y-6850390D01*
X60316666Y-6850390D02*
X60278571Y-6888485D01*
X60278571Y-6888485D02*
X60240476Y-6964676D01*
X60240476Y-6964676D02*
X60240476Y-7040866D01*
X60240476Y-7040866D02*
X60278571Y-7155152D01*
X60278571Y-7155152D02*
X60735714Y-7612295D01*
X60735714Y-7612295D02*
X60240476Y-7612295D01*
X43932625Y-23062295D02*
X43665958Y-23862295D01*
X43665958Y-23862295D02*
X43399292Y-23062295D01*
X42865959Y-23443247D02*
X42751673Y-23481342D01*
X42751673Y-23481342D02*
X42713578Y-23519438D01*
X42713578Y-23519438D02*
X42675482Y-23595628D01*
X42675482Y-23595628D02*
X42675482Y-23709914D01*
X42675482Y-23709914D02*
X42713578Y-23786104D01*
X42713578Y-23786104D02*
X42751673Y-23824200D01*
X42751673Y-23824200D02*
X42827863Y-23862295D01*
X42827863Y-23862295D02*
X43132625Y-23862295D01*
X43132625Y-23862295D02*
X43132625Y-23062295D01*
X43132625Y-23062295D02*
X42865959Y-23062295D01*
X42865959Y-23062295D02*
X42789768Y-23100390D01*
X42789768Y-23100390D02*
X42751673Y-23138485D01*
X42751673Y-23138485D02*
X42713578Y-23214676D01*
X42713578Y-23214676D02*
X42713578Y-23290866D01*
X42713578Y-23290866D02*
X42751673Y-23367057D01*
X42751673Y-23367057D02*
X42789768Y-23405152D01*
X42789768Y-23405152D02*
X42865959Y-23443247D01*
X42865959Y-23443247D02*
X43132625Y-23443247D01*
X42332625Y-23062295D02*
X42332625Y-23709914D01*
X42332625Y-23709914D02*
X42294530Y-23786104D01*
X42294530Y-23786104D02*
X42256435Y-23824200D01*
X42256435Y-23824200D02*
X42180244Y-23862295D01*
X42180244Y-23862295D02*
X42027863Y-23862295D01*
X42027863Y-23862295D02*
X41951673Y-23824200D01*
X41951673Y-23824200D02*
X41913578Y-23786104D01*
X41913578Y-23786104D02*
X41875482Y-23709914D01*
X41875482Y-23709914D02*
X41875482Y-23062295D01*
X41532626Y-23824200D02*
X41418340Y-23862295D01*
X41418340Y-23862295D02*
X41227864Y-23862295D01*
X41227864Y-23862295D02*
X41151673Y-23824200D01*
X41151673Y-23824200D02*
X41113578Y-23786104D01*
X41113578Y-23786104D02*
X41075483Y-23709914D01*
X41075483Y-23709914D02*
X41075483Y-23633723D01*
X41075483Y-23633723D02*
X41113578Y-23557533D01*
X41113578Y-23557533D02*
X41151673Y-23519438D01*
X41151673Y-23519438D02*
X41227864Y-23481342D01*
X41227864Y-23481342D02*
X41380245Y-23443247D01*
X41380245Y-23443247D02*
X41456435Y-23405152D01*
X41456435Y-23405152D02*
X41494530Y-23367057D01*
X41494530Y-23367057D02*
X41532626Y-23290866D01*
X41532626Y-23290866D02*
X41532626Y-23214676D01*
X41532626Y-23214676D02*
X41494530Y-23138485D01*
X41494530Y-23138485D02*
X41456435Y-23100390D01*
X41456435Y-23100390D02*
X41380245Y-23062295D01*
X41380245Y-23062295D02*
X41189768Y-23062295D01*
X41189768Y-23062295D02*
X41075483Y-23100390D01*
X44037030Y-28062295D02*
X43541792Y-28062295D01*
X43541792Y-28062295D02*
X43808458Y-28367057D01*
X43808458Y-28367057D02*
X43694173Y-28367057D01*
X43694173Y-28367057D02*
X43617982Y-28405152D01*
X43617982Y-28405152D02*
X43579887Y-28443247D01*
X43579887Y-28443247D02*
X43541792Y-28519438D01*
X43541792Y-28519438D02*
X43541792Y-28709914D01*
X43541792Y-28709914D02*
X43579887Y-28786104D01*
X43579887Y-28786104D02*
X43617982Y-28824200D01*
X43617982Y-28824200D02*
X43694173Y-28862295D01*
X43694173Y-28862295D02*
X43922744Y-28862295D01*
X43922744Y-28862295D02*
X43998935Y-28824200D01*
X43998935Y-28824200D02*
X44037030Y-28786104D01*
X43313220Y-28062295D02*
X43046553Y-28862295D01*
X43046553Y-28862295D02*
X42779887Y-28062295D01*
X42589411Y-28062295D02*
X42094173Y-28062295D01*
X42094173Y-28062295D02*
X42360839Y-28367057D01*
X42360839Y-28367057D02*
X42246554Y-28367057D01*
X42246554Y-28367057D02*
X42170363Y-28405152D01*
X42170363Y-28405152D02*
X42132268Y-28443247D01*
X42132268Y-28443247D02*
X42094173Y-28519438D01*
X42094173Y-28519438D02*
X42094173Y-28709914D01*
X42094173Y-28709914D02*
X42132268Y-28786104D01*
X42132268Y-28786104D02*
X42170363Y-28824200D01*
X42170363Y-28824200D02*
X42246554Y-28862295D01*
X42246554Y-28862295D02*
X42475125Y-28862295D01*
X42475125Y-28862295D02*
X42551316Y-28824200D01*
X42551316Y-28824200D02*
X42589411Y-28786104D01*
X60612295Y-19409524D02*
X59812295Y-19409524D01*
X59812295Y-19409524D02*
X59812295Y-19600000D01*
X59812295Y-19600000D02*
X59850390Y-19714286D01*
X59850390Y-19714286D02*
X59926580Y-19790476D01*
X59926580Y-19790476D02*
X60002771Y-19828571D01*
X60002771Y-19828571D02*
X60155152Y-19866667D01*
X60155152Y-19866667D02*
X60269438Y-19866667D01*
X60269438Y-19866667D02*
X60421819Y-19828571D01*
X60421819Y-19828571D02*
X60498009Y-19790476D01*
X60498009Y-19790476D02*
X60574200Y-19714286D01*
X60574200Y-19714286D02*
X60612295Y-19600000D01*
X60612295Y-19600000D02*
X60612295Y-19409524D01*
X59812295Y-20552381D02*
X59812295Y-20400000D01*
X59812295Y-20400000D02*
X59850390Y-20323809D01*
X59850390Y-20323809D02*
X59888485Y-20285714D01*
X59888485Y-20285714D02*
X60002771Y-20209524D01*
X60002771Y-20209524D02*
X60155152Y-20171428D01*
X60155152Y-20171428D02*
X60459914Y-20171428D01*
X60459914Y-20171428D02*
X60536104Y-20209524D01*
X60536104Y-20209524D02*
X60574200Y-20247619D01*
X60574200Y-20247619D02*
X60612295Y-20323809D01*
X60612295Y-20323809D02*
X60612295Y-20476190D01*
X60612295Y-20476190D02*
X60574200Y-20552381D01*
X60574200Y-20552381D02*
X60536104Y-20590476D01*
X60536104Y-20590476D02*
X60459914Y-20628571D01*
X60459914Y-20628571D02*
X60269438Y-20628571D01*
X60269438Y-20628571D02*
X60193247Y-20590476D01*
X60193247Y-20590476D02*
X60155152Y-20552381D01*
X60155152Y-20552381D02*
X60117057Y-20476190D01*
X60117057Y-20476190D02*
X60117057Y-20323809D01*
X60117057Y-20323809D02*
X60155152Y-20247619D01*
X60155152Y-20247619D02*
X60193247Y-20209524D01*
X60193247Y-20209524D02*
X60269438Y-20171428D01*
X34109523Y-6872295D02*
X34109523Y-7519914D01*
X34109523Y-7519914D02*
X34071428Y-7596104D01*
X34071428Y-7596104D02*
X34033333Y-7634200D01*
X34033333Y-7634200D02*
X33957142Y-7672295D01*
X33957142Y-7672295D02*
X33804761Y-7672295D01*
X33804761Y-7672295D02*
X33728571Y-7634200D01*
X33728571Y-7634200D02*
X33690476Y-7596104D01*
X33690476Y-7596104D02*
X33652380Y-7519914D01*
X33652380Y-7519914D02*
X33652380Y-6872295D01*
X33347619Y-6872295D02*
X32852381Y-6872295D01*
X32852381Y-6872295D02*
X33119047Y-7177057D01*
X33119047Y-7177057D02*
X33004762Y-7177057D01*
X33004762Y-7177057D02*
X32928571Y-7215152D01*
X32928571Y-7215152D02*
X32890476Y-7253247D01*
X32890476Y-7253247D02*
X32852381Y-7329438D01*
X32852381Y-7329438D02*
X32852381Y-7519914D01*
X32852381Y-7519914D02*
X32890476Y-7596104D01*
X32890476Y-7596104D02*
X32928571Y-7634200D01*
X32928571Y-7634200D02*
X33004762Y-7672295D01*
X33004762Y-7672295D02*
X33233333Y-7672295D01*
X33233333Y-7672295D02*
X33309524Y-7634200D01*
X33309524Y-7634200D02*
X33347619Y-7596104D01*
X59612295Y-18909524D02*
X58812295Y-18909524D01*
X58812295Y-18909524D02*
X58812295Y-19100000D01*
X58812295Y-19100000D02*
X58850390Y-19214286D01*
X58850390Y-19214286D02*
X58926580Y-19290476D01*
X58926580Y-19290476D02*
X59002771Y-19328571D01*
X59002771Y-19328571D02*
X59155152Y-19366667D01*
X59155152Y-19366667D02*
X59269438Y-19366667D01*
X59269438Y-19366667D02*
X59421819Y-19328571D01*
X59421819Y-19328571D02*
X59498009Y-19290476D01*
X59498009Y-19290476D02*
X59574200Y-19214286D01*
X59574200Y-19214286D02*
X59612295Y-19100000D01*
X59612295Y-19100000D02*
X59612295Y-18909524D01*
X58812295Y-19633333D02*
X58812295Y-20166667D01*
X58812295Y-20166667D02*
X59612295Y-19823809D01*
X60612295Y-9159524D02*
X59812295Y-9159524D01*
X59812295Y-9159524D02*
X59812295Y-9350000D01*
X59812295Y-9350000D02*
X59850390Y-9464286D01*
X59850390Y-9464286D02*
X59926580Y-9540476D01*
X59926580Y-9540476D02*
X60002771Y-9578571D01*
X60002771Y-9578571D02*
X60155152Y-9616667D01*
X60155152Y-9616667D02*
X60269438Y-9616667D01*
X60269438Y-9616667D02*
X60421819Y-9578571D01*
X60421819Y-9578571D02*
X60498009Y-9540476D01*
X60498009Y-9540476D02*
X60574200Y-9464286D01*
X60574200Y-9464286D02*
X60612295Y-9350000D01*
X60612295Y-9350000D02*
X60612295Y-9159524D01*
X60612295Y-9997619D02*
X60612295Y-10150000D01*
X60612295Y-10150000D02*
X60574200Y-10226190D01*
X60574200Y-10226190D02*
X60536104Y-10264286D01*
X60536104Y-10264286D02*
X60421819Y-10340476D01*
X60421819Y-10340476D02*
X60269438Y-10378571D01*
X60269438Y-10378571D02*
X59964676Y-10378571D01*
X59964676Y-10378571D02*
X59888485Y-10340476D01*
X59888485Y-10340476D02*
X59850390Y-10302381D01*
X59850390Y-10302381D02*
X59812295Y-10226190D01*
X59812295Y-10226190D02*
X59812295Y-10073809D01*
X59812295Y-10073809D02*
X59850390Y-9997619D01*
X59850390Y-9997619D02*
X59888485Y-9959524D01*
X59888485Y-9959524D02*
X59964676Y-9921428D01*
X59964676Y-9921428D02*
X60155152Y-9921428D01*
X60155152Y-9921428D02*
X60231342Y-9959524D01*
X60231342Y-9959524D02*
X60269438Y-9997619D01*
X60269438Y-9997619D02*
X60307533Y-10073809D01*
X60307533Y-10073809D02*
X60307533Y-10226190D01*
X60307533Y-10226190D02*
X60269438Y-10302381D01*
X60269438Y-10302381D02*
X60231342Y-10340476D01*
X60231342Y-10340476D02*
X60155152Y-10378571D01*
X31764285Y-23286104D02*
X31802381Y-23324200D01*
X31802381Y-23324200D02*
X31916666Y-23362295D01*
X31916666Y-23362295D02*
X31992857Y-23362295D01*
X31992857Y-23362295D02*
X32107143Y-23324200D01*
X32107143Y-23324200D02*
X32183333Y-23248009D01*
X32183333Y-23248009D02*
X32221428Y-23171819D01*
X32221428Y-23171819D02*
X32259524Y-23019438D01*
X32259524Y-23019438D02*
X32259524Y-22905152D01*
X32259524Y-22905152D02*
X32221428Y-22752771D01*
X32221428Y-22752771D02*
X32183333Y-22676580D01*
X32183333Y-22676580D02*
X32107143Y-22600390D01*
X32107143Y-22600390D02*
X31992857Y-22562295D01*
X31992857Y-22562295D02*
X31916666Y-22562295D01*
X31916666Y-22562295D02*
X31802381Y-22600390D01*
X31802381Y-22600390D02*
X31764285Y-22638485D01*
X31459524Y-22638485D02*
X31421428Y-22600390D01*
X31421428Y-22600390D02*
X31345238Y-22562295D01*
X31345238Y-22562295D02*
X31154762Y-22562295D01*
X31154762Y-22562295D02*
X31078571Y-22600390D01*
X31078571Y-22600390D02*
X31040476Y-22638485D01*
X31040476Y-22638485D02*
X31002381Y-22714676D01*
X31002381Y-22714676D02*
X31002381Y-22790866D01*
X31002381Y-22790866D02*
X31040476Y-22905152D01*
X31040476Y-22905152D02*
X31497619Y-23362295D01*
X31497619Y-23362295D02*
X31002381Y-23362295D01*
X30735714Y-22562295D02*
X30240476Y-22562295D01*
X30240476Y-22562295D02*
X30507142Y-22867057D01*
X30507142Y-22867057D02*
X30392857Y-22867057D01*
X30392857Y-22867057D02*
X30316666Y-22905152D01*
X30316666Y-22905152D02*
X30278571Y-22943247D01*
X30278571Y-22943247D02*
X30240476Y-23019438D01*
X30240476Y-23019438D02*
X30240476Y-23209914D01*
X30240476Y-23209914D02*
X30278571Y-23286104D01*
X30278571Y-23286104D02*
X30316666Y-23324200D01*
X30316666Y-23324200D02*
X30392857Y-23362295D01*
X30392857Y-23362295D02*
X30621428Y-23362295D01*
X30621428Y-23362295D02*
X30697619Y-23324200D01*
X30697619Y-23324200D02*
X30735714Y-23286104D01*
X60612295Y-14409524D02*
X59812295Y-14409524D01*
X59812295Y-14409524D02*
X59812295Y-14714286D01*
X59812295Y-14714286D02*
X59850390Y-14790476D01*
X59850390Y-14790476D02*
X59888485Y-14828571D01*
X59888485Y-14828571D02*
X59964676Y-14866667D01*
X59964676Y-14866667D02*
X60078961Y-14866667D01*
X60078961Y-14866667D02*
X60155152Y-14828571D01*
X60155152Y-14828571D02*
X60193247Y-14790476D01*
X60193247Y-14790476D02*
X60231342Y-14714286D01*
X60231342Y-14714286D02*
X60231342Y-14409524D01*
X60612295Y-15628571D02*
X60612295Y-15171428D01*
X60612295Y-15400000D02*
X59812295Y-15400000D01*
X59812295Y-15400000D02*
X59926580Y-15323809D01*
X59926580Y-15323809D02*
X60002771Y-15247619D01*
X60002771Y-15247619D02*
X60040866Y-15171428D01*
X59612295Y-9909524D02*
X58812295Y-9909524D01*
X58812295Y-9909524D02*
X58812295Y-10100000D01*
X58812295Y-10100000D02*
X58850390Y-10214286D01*
X58850390Y-10214286D02*
X58926580Y-10290476D01*
X58926580Y-10290476D02*
X59002771Y-10328571D01*
X59002771Y-10328571D02*
X59155152Y-10366667D01*
X59155152Y-10366667D02*
X59269438Y-10366667D01*
X59269438Y-10366667D02*
X59421819Y-10328571D01*
X59421819Y-10328571D02*
X59498009Y-10290476D01*
X59498009Y-10290476D02*
X59574200Y-10214286D01*
X59574200Y-10214286D02*
X59612295Y-10100000D01*
X59612295Y-10100000D02*
X59612295Y-9909524D01*
X59155152Y-10823809D02*
X59117057Y-10747619D01*
X59117057Y-10747619D02*
X59078961Y-10709524D01*
X59078961Y-10709524D02*
X59002771Y-10671428D01*
X59002771Y-10671428D02*
X58964676Y-10671428D01*
X58964676Y-10671428D02*
X58888485Y-10709524D01*
X58888485Y-10709524D02*
X58850390Y-10747619D01*
X58850390Y-10747619D02*
X58812295Y-10823809D01*
X58812295Y-10823809D02*
X58812295Y-10976190D01*
X58812295Y-10976190D02*
X58850390Y-11052381D01*
X58850390Y-11052381D02*
X58888485Y-11090476D01*
X58888485Y-11090476D02*
X58964676Y-11128571D01*
X58964676Y-11128571D02*
X59002771Y-11128571D01*
X59002771Y-11128571D02*
X59078961Y-11090476D01*
X59078961Y-11090476D02*
X59117057Y-11052381D01*
X59117057Y-11052381D02*
X59155152Y-10976190D01*
X59155152Y-10976190D02*
X59155152Y-10823809D01*
X59155152Y-10823809D02*
X59193247Y-10747619D01*
X59193247Y-10747619D02*
X59231342Y-10709524D01*
X59231342Y-10709524D02*
X59307533Y-10671428D01*
X59307533Y-10671428D02*
X59459914Y-10671428D01*
X59459914Y-10671428D02*
X59536104Y-10709524D01*
X59536104Y-10709524D02*
X59574200Y-10747619D01*
X59574200Y-10747619D02*
X59612295Y-10823809D01*
X59612295Y-10823809D02*
X59612295Y-10976190D01*
X59612295Y-10976190D02*
X59574200Y-11052381D01*
X59574200Y-11052381D02*
X59536104Y-11090476D01*
X59536104Y-11090476D02*
X59459914Y-11128571D01*
X59459914Y-11128571D02*
X59307533Y-11128571D01*
X59307533Y-11128571D02*
X59231342Y-11090476D01*
X59231342Y-11090476D02*
X59193247Y-11052381D01*
X59193247Y-11052381D02*
X59155152Y-10976190D01*
X58109523Y-11312295D02*
X58109523Y-11959914D01*
X58109523Y-11959914D02*
X58071428Y-12036104D01*
X58071428Y-12036104D02*
X58033333Y-12074200D01*
X58033333Y-12074200D02*
X57957142Y-12112295D01*
X57957142Y-12112295D02*
X57804761Y-12112295D01*
X57804761Y-12112295D02*
X57728571Y-12074200D01*
X57728571Y-12074200D02*
X57690476Y-12036104D01*
X57690476Y-12036104D02*
X57652380Y-11959914D01*
X57652380Y-11959914D02*
X57652380Y-11312295D01*
X56928571Y-11578961D02*
X56928571Y-12112295D01*
X57119047Y-11274200D02*
X57309524Y-11845628D01*
X57309524Y-11845628D02*
X56814285Y-11845628D01*
X49133332Y-16112295D02*
X49399999Y-15731342D01*
X49590475Y-16112295D02*
X49590475Y-15312295D01*
X49590475Y-15312295D02*
X49285713Y-15312295D01*
X49285713Y-15312295D02*
X49209523Y-15350390D01*
X49209523Y-15350390D02*
X49171428Y-15388485D01*
X49171428Y-15388485D02*
X49133332Y-15464676D01*
X49133332Y-15464676D02*
X49133332Y-15578961D01*
X49133332Y-15578961D02*
X49171428Y-15655152D01*
X49171428Y-15655152D02*
X49209523Y-15693247D01*
X49209523Y-15693247D02*
X49285713Y-15731342D01*
X49285713Y-15731342D02*
X49590475Y-15731342D01*
X48447618Y-15312295D02*
X48599999Y-15312295D01*
X48599999Y-15312295D02*
X48676190Y-15350390D01*
X48676190Y-15350390D02*
X48714285Y-15388485D01*
X48714285Y-15388485D02*
X48790475Y-15502771D01*
X48790475Y-15502771D02*
X48828571Y-15655152D01*
X48828571Y-15655152D02*
X48828571Y-15959914D01*
X48828571Y-15959914D02*
X48790475Y-16036104D01*
X48790475Y-16036104D02*
X48752380Y-16074200D01*
X48752380Y-16074200D02*
X48676190Y-16112295D01*
X48676190Y-16112295D02*
X48523809Y-16112295D01*
X48523809Y-16112295D02*
X48447618Y-16074200D01*
X48447618Y-16074200D02*
X48409523Y-16036104D01*
X48409523Y-16036104D02*
X48371428Y-15959914D01*
X48371428Y-15959914D02*
X48371428Y-15769438D01*
X48371428Y-15769438D02*
X48409523Y-15693247D01*
X48409523Y-15693247D02*
X48447618Y-15655152D01*
X48447618Y-15655152D02*
X48523809Y-15617057D01*
X48523809Y-15617057D02*
X48676190Y-15617057D01*
X48676190Y-15617057D02*
X48752380Y-15655152D01*
X48752380Y-15655152D02*
X48790475Y-15693247D01*
X48790475Y-15693247D02*
X48828571Y-15769438D01*
X40264285Y-23286104D02*
X40302381Y-23324200D01*
X40302381Y-23324200D02*
X40416666Y-23362295D01*
X40416666Y-23362295D02*
X40492857Y-23362295D01*
X40492857Y-23362295D02*
X40607143Y-23324200D01*
X40607143Y-23324200D02*
X40683333Y-23248009D01*
X40683333Y-23248009D02*
X40721428Y-23171819D01*
X40721428Y-23171819D02*
X40759524Y-23019438D01*
X40759524Y-23019438D02*
X40759524Y-22905152D01*
X40759524Y-22905152D02*
X40721428Y-22752771D01*
X40721428Y-22752771D02*
X40683333Y-22676580D01*
X40683333Y-22676580D02*
X40607143Y-22600390D01*
X40607143Y-22600390D02*
X40492857Y-22562295D01*
X40492857Y-22562295D02*
X40416666Y-22562295D01*
X40416666Y-22562295D02*
X40302381Y-22600390D01*
X40302381Y-22600390D02*
X40264285Y-22638485D01*
X39959524Y-22638485D02*
X39921428Y-22600390D01*
X39921428Y-22600390D02*
X39845238Y-22562295D01*
X39845238Y-22562295D02*
X39654762Y-22562295D01*
X39654762Y-22562295D02*
X39578571Y-22600390D01*
X39578571Y-22600390D02*
X39540476Y-22638485D01*
X39540476Y-22638485D02*
X39502381Y-22714676D01*
X39502381Y-22714676D02*
X39502381Y-22790866D01*
X39502381Y-22790866D02*
X39540476Y-22905152D01*
X39540476Y-22905152D02*
X39997619Y-23362295D01*
X39997619Y-23362295D02*
X39502381Y-23362295D01*
X38816666Y-22828961D02*
X38816666Y-23362295D01*
X39007142Y-22524200D02*
X39197619Y-23095628D01*
X39197619Y-23095628D02*
X38702380Y-23095628D01*
D11*
%TO.C,C19*%
X61109420Y-20990000D02*
X61390580Y-20990000D01*
X61109420Y-22010000D02*
X61390580Y-22010000D01*
%TO.C,TP2*%
X46450000Y-26000000D02*
G75*
G02*
X44550000Y-26000000I-950000J0D01*
G01*
X44550000Y-26000000D02*
G75*
G02*
X46450000Y-26000000I950000J0D01*
G01*
%TO.C,C22*%
X61109420Y-7990000D02*
X61390580Y-7990000D01*
X61109420Y-9010000D02*
X61390580Y-9010000D01*
%TO.C,TP1*%
X46450000Y-23500000D02*
G75*
G02*
X44550000Y-23500000I-950000J0D01*
G01*
X44550000Y-23500000D02*
G75*
G02*
X46450000Y-23500000I950000J0D01*
G01*
%TO.C,TP3*%
X46450000Y-28500000D02*
G75*
G02*
X44550000Y-28500000I-950000J0D01*
G01*
X44550000Y-28500000D02*
G75*
G02*
X46450000Y-28500000I950000J0D01*
G01*
D12*
%TO.C,D6*%
X60300000Y-16910000D02*
G75*
G02*
X60200000Y-16910000I-50000J0D01*
G01*
X60200000Y-16910000D02*
G75*
G02*
X60300000Y-16910000I50000J0D01*
G01*
D11*
%TO.C,U3*%
X30750000Y-1025000D02*
X33500000Y-1025000D01*
X30750000Y-1285000D02*
X30750000Y-1025000D01*
X30750000Y-6215000D02*
X30750000Y-6475000D01*
X30750000Y-6475000D02*
X33500000Y-6475000D01*
X36250000Y-1025000D02*
X33500000Y-1025000D01*
X36250000Y-1285000D02*
X36250000Y-1025000D01*
X36250000Y-6215000D02*
X36250000Y-6475000D01*
X36250000Y-6475000D02*
X33500000Y-6475000D01*
X30220000Y-6545000D02*
X29740000Y-6545000D01*
X29980000Y-6215000D01*
X30220000Y-6545000D01*
G36*
X30220000Y-6545000D02*
G01*
X29740000Y-6545000D01*
X29980000Y-6215000D01*
X30220000Y-6545000D01*
G37*
D12*
%TO.C,D7*%
X59300000Y-16310000D02*
G75*
G02*
X59200000Y-16310000I-50000J0D01*
G01*
X59200000Y-16310000D02*
G75*
G02*
X59300000Y-16310000I50000J0D01*
G01*
%TO.C,D9*%
X60300000Y-12940000D02*
G75*
G02*
X60200000Y-12940000I-50000J0D01*
G01*
X60200000Y-12940000D02*
G75*
G02*
X60300000Y-12940000I50000J0D01*
G01*
D11*
%TO.C,C23*%
X31875000Y-13270354D02*
X31875000Y-12270354D01*
X32375000Y-12770354D02*
X31375000Y-12770354D01*
X33509000Y-19031000D02*
X29832000Y-19031000D01*
X33509000Y-19071000D02*
X29843000Y-19071000D01*
X33509000Y-19111000D02*
X29853000Y-19111000D01*
X33509000Y-19151000D02*
X29865000Y-19151000D01*
X33509000Y-19191000D02*
X29876000Y-19191000D01*
X33509000Y-19231000D02*
X29888000Y-19231000D01*
X33509000Y-19271000D02*
X29900000Y-19271000D01*
X33509000Y-19311000D02*
X29913000Y-19311000D01*
X33509000Y-19351000D02*
X29926000Y-19351000D01*
X33509000Y-19391000D02*
X29939000Y-19391000D01*
X33509000Y-19431000D02*
X29953000Y-19431000D01*
X33509000Y-19471000D02*
X29967000Y-19471000D01*
X33509000Y-19511000D02*
X29982000Y-19511000D01*
X33509000Y-19551000D02*
X29996000Y-19551000D01*
X33509000Y-19591000D02*
X30012000Y-19591000D01*
X33509000Y-19631000D02*
X30027000Y-19631000D01*
X33509000Y-19671000D02*
X30043000Y-19671000D01*
X33509000Y-19711000D02*
X30060000Y-19711000D01*
X33509000Y-19751000D02*
X30076000Y-19751000D01*
X33509000Y-19791000D02*
X30093000Y-19791000D01*
X33509000Y-19831000D02*
X30111000Y-19831000D01*
X33509000Y-19871000D02*
X30129000Y-19871000D01*
X33509000Y-19911000D02*
X30147000Y-19911000D01*
X33509000Y-19951000D02*
X30166000Y-19951000D01*
X33509000Y-19991000D02*
X30186000Y-19991000D01*
X33509000Y-20031000D02*
X30205000Y-20031000D01*
X33509000Y-20071000D02*
X30225000Y-20071000D01*
X33509000Y-20111000D02*
X30246000Y-20111000D01*
X33509000Y-20151000D02*
X30267000Y-20151000D01*
X33509000Y-20191000D02*
X30288000Y-20191000D01*
X33509000Y-20231000D02*
X30310000Y-20231000D01*
X33509000Y-20271000D02*
X30333000Y-20271000D01*
X33509000Y-20311000D02*
X30355000Y-20311000D01*
X33509000Y-20351000D02*
X30379000Y-20351000D01*
X33509000Y-20391000D02*
X30403000Y-20391000D01*
X33509000Y-20431000D02*
X30427000Y-20431000D01*
X33509000Y-20471000D02*
X30452000Y-20471000D01*
X33509000Y-20511000D02*
X30477000Y-20511000D01*
X33509000Y-20551000D02*
X30503000Y-20551000D01*
X33509000Y-20591000D02*
X30529000Y-20591000D01*
X33509000Y-20631000D02*
X30556000Y-20631000D01*
X33509000Y-20671000D02*
X30584000Y-20671000D01*
X33509000Y-20711000D02*
X30612000Y-20711000D01*
X33509000Y-20751000D02*
X30640000Y-20751000D01*
X33509000Y-20791000D02*
X30670000Y-20791000D01*
X33509000Y-20831000D02*
X30700000Y-20831000D01*
X33509000Y-20871000D02*
X30730000Y-20871000D01*
X33509000Y-20911000D02*
X30761000Y-20911000D01*
X33509000Y-20951000D02*
X30793000Y-20951000D01*
X33509000Y-20991000D02*
X30825000Y-20991000D01*
X33509000Y-21031000D02*
X30858000Y-21031000D01*
X33509000Y-21071000D02*
X30892000Y-21071000D01*
X33509000Y-21111000D02*
X30926000Y-21111000D01*
X33509000Y-21151000D02*
X30961000Y-21151000D01*
X33509000Y-21191000D02*
X30997000Y-21191000D01*
X33509000Y-21231000D02*
X31034000Y-21231000D01*
X33509000Y-21271000D02*
X31071000Y-21271000D01*
X33509000Y-21311000D02*
X31110000Y-21311000D01*
X33509000Y-21351000D02*
X31149000Y-21351000D01*
X33509000Y-21391000D02*
X31189000Y-21391000D01*
X33509000Y-21431000D02*
X31230000Y-21431000D01*
X33509000Y-21471000D02*
X31272000Y-21471000D01*
X35349000Y-22831000D02*
X34151000Y-22831000D01*
X35612000Y-22791000D02*
X33888000Y-22791000D01*
X35812000Y-22751000D02*
X33688000Y-22751000D01*
X35980000Y-22711000D02*
X33520000Y-22711000D01*
X36128000Y-22671000D02*
X33372000Y-22671000D01*
X36260000Y-22631000D02*
X33240000Y-22631000D01*
X36380000Y-22591000D02*
X33120000Y-22591000D01*
X36492000Y-22551000D02*
X33008000Y-22551000D01*
X36596000Y-22511000D02*
X32904000Y-22511000D01*
X36694000Y-22471000D02*
X32806000Y-22471000D01*
X36787000Y-22431000D02*
X32713000Y-22431000D01*
X36875000Y-22391000D02*
X32625000Y-22391000D01*
X36959000Y-22351000D02*
X32541000Y-22351000D01*
X37039000Y-22311000D02*
X32461000Y-22311000D01*
X37115000Y-22271000D02*
X32385000Y-22271000D01*
X37189000Y-22231000D02*
X32311000Y-22231000D01*
X37260000Y-22191000D02*
X32240000Y-22191000D01*
X37329000Y-22151000D02*
X32171000Y-22151000D01*
X37395000Y-22111000D02*
X32105000Y-22111000D01*
X37459000Y-22071000D02*
X32041000Y-22071000D01*
X37520000Y-22031000D02*
X31980000Y-22031000D01*
X37580000Y-21991000D02*
X31920000Y-21991000D01*
X37639000Y-21951000D02*
X31861000Y-21951000D01*
X37695000Y-21911000D02*
X31805000Y-21911000D01*
X37750000Y-21871000D02*
X31750000Y-21871000D01*
X37804000Y-21831000D02*
X31696000Y-21831000D01*
X37856000Y-21791000D02*
X31644000Y-21791000D01*
X37906000Y-21751000D02*
X31594000Y-21751000D01*
X37956000Y-21711000D02*
X31544000Y-21711000D01*
X38004000Y-21671000D02*
X31496000Y-21671000D01*
X38051000Y-21631000D02*
X31449000Y-21631000D01*
X38097000Y-21591000D02*
X31403000Y-21591000D01*
X38142000Y-21551000D02*
X31358000Y-21551000D01*
X38186000Y-21511000D02*
X31314000Y-21511000D01*
X38228000Y-21471000D02*
X35991000Y-21471000D01*
X38270000Y-21431000D02*
X35991000Y-21431000D01*
X38311000Y-21391000D02*
X35991000Y-21391000D01*
X38351000Y-21351000D02*
X35991000Y-21351000D01*
X38390000Y-21311000D02*
X35991000Y-21311000D01*
X38429000Y-21271000D02*
X35991000Y-21271000D01*
X38466000Y-21231000D02*
X35991000Y-21231000D01*
X38503000Y-21191000D02*
X35991000Y-21191000D01*
X38539000Y-21151000D02*
X35991000Y-21151000D01*
X38574000Y-21111000D02*
X35991000Y-21111000D01*
X38608000Y-21071000D02*
X35991000Y-21071000D01*
X38642000Y-21031000D02*
X35991000Y-21031000D01*
X38675000Y-20991000D02*
X35991000Y-20991000D01*
X38707000Y-20951000D02*
X35991000Y-20951000D01*
X38739000Y-20911000D02*
X35991000Y-20911000D01*
X38770000Y-20871000D02*
X35991000Y-20871000D01*
X38800000Y-20831000D02*
X35991000Y-20831000D01*
X38830000Y-20791000D02*
X35991000Y-20791000D01*
X38860000Y-20751000D02*
X35991000Y-20751000D01*
X38888000Y-20711000D02*
X35991000Y-20711000D01*
X38916000Y-20671000D02*
X35991000Y-20671000D01*
X38944000Y-20631000D02*
X35991000Y-20631000D01*
X38971000Y-20591000D02*
X35991000Y-20591000D01*
X38997000Y-20551000D02*
X35991000Y-20551000D01*
X39023000Y-20511000D02*
X35991000Y-20511000D01*
X39048000Y-20471000D02*
X35991000Y-20471000D01*
X39073000Y-20431000D02*
X35991000Y-20431000D01*
X39097000Y-20391000D02*
X35991000Y-20391000D01*
X39121000Y-20351000D02*
X35991000Y-20351000D01*
X39145000Y-20311000D02*
X35991000Y-20311000D01*
X39167000Y-20271000D02*
X35991000Y-20271000D01*
X39190000Y-20231000D02*
X35991000Y-20231000D01*
X39212000Y-20191000D02*
X35991000Y-20191000D01*
X39233000Y-20151000D02*
X35991000Y-20151000D01*
X39254000Y-20111000D02*
X35991000Y-20111000D01*
X39275000Y-20071000D02*
X35991000Y-20071000D01*
X39295000Y-20031000D02*
X35991000Y-20031000D01*
X39314000Y-19991000D02*
X35991000Y-19991000D01*
X39334000Y-19951000D02*
X35991000Y-19951000D01*
X39353000Y-19911000D02*
X35991000Y-19911000D01*
X39371000Y-19871000D02*
X35991000Y-19871000D01*
X39389000Y-19831000D02*
X35991000Y-19831000D01*
X39407000Y-19791000D02*
X35991000Y-19791000D01*
X39424000Y-19751000D02*
X35991000Y-19751000D01*
X39440000Y-19711000D02*
X35991000Y-19711000D01*
X39457000Y-19671000D02*
X35991000Y-19671000D01*
X39473000Y-19631000D02*
X35991000Y-19631000D01*
X39488000Y-19591000D02*
X35991000Y-19591000D01*
X39504000Y-19551000D02*
X35991000Y-19551000D01*
X39518000Y-19511000D02*
X35991000Y-19511000D01*
X39533000Y-19471000D02*
X35991000Y-19471000D01*
X39547000Y-19431000D02*
X35991000Y-19431000D01*
X39561000Y-19391000D02*
X35991000Y-19391000D01*
X39574000Y-19351000D02*
X35991000Y-19351000D01*
X39587000Y-19311000D02*
X35991000Y-19311000D01*
X39600000Y-19271000D02*
X35991000Y-19271000D01*
X39612000Y-19231000D02*
X35991000Y-19231000D01*
X39624000Y-19191000D02*
X35991000Y-19191000D01*
X39635000Y-19151000D02*
X35991000Y-19151000D01*
X39647000Y-19111000D02*
X35991000Y-19111000D01*
X39657000Y-19071000D02*
X35991000Y-19071000D01*
X39668000Y-19031000D02*
X35991000Y-19031000D01*
X39678000Y-18991000D02*
X29822000Y-18991000D01*
X39688000Y-18951000D02*
X29812000Y-18951000D01*
X39697000Y-18911000D02*
X29803000Y-18911000D01*
X39706000Y-18871000D02*
X29794000Y-18871000D01*
X39715000Y-18831000D02*
X29785000Y-18831000D01*
X39724000Y-18791000D02*
X29776000Y-18791000D01*
X39732000Y-18751000D02*
X29768000Y-18751000D01*
X39740000Y-18711000D02*
X29760000Y-18711000D01*
X39747000Y-18671000D02*
X29753000Y-18671000D01*
X39754000Y-18631000D02*
X29746000Y-18631000D01*
X39761000Y-18591000D02*
X29739000Y-18591000D01*
X39768000Y-18551000D02*
X29732000Y-18551000D01*
X39774000Y-18511000D02*
X29726000Y-18511000D01*
X39780000Y-18471000D02*
X29720000Y-18471000D01*
X39785000Y-18430000D02*
X29715000Y-18430000D01*
X39790000Y-18390000D02*
X29710000Y-18390000D01*
X39795000Y-18350000D02*
X29705000Y-18350000D01*
X39800000Y-18310000D02*
X29700000Y-18310000D01*
X39804000Y-18270000D02*
X29696000Y-18270000D01*
X39808000Y-18230000D02*
X29692000Y-18230000D01*
X39812000Y-18190000D02*
X29688000Y-18190000D01*
X39815000Y-18150000D02*
X29685000Y-18150000D01*
X39818000Y-18110000D02*
X29682000Y-18110000D01*
X39820000Y-18070000D02*
X29680000Y-18070000D01*
X39823000Y-18030000D02*
X29677000Y-18030000D01*
X39825000Y-17990000D02*
X29675000Y-17990000D01*
X39827000Y-17950000D02*
X29673000Y-17950000D01*
X39828000Y-17910000D02*
X29672000Y-17910000D01*
X39829000Y-17870000D02*
X29671000Y-17870000D01*
X39830000Y-17750000D02*
X29670000Y-17750000D01*
X39830000Y-17790000D02*
X29670000Y-17790000D01*
X39830000Y-17830000D02*
X29670000Y-17830000D01*
X39870000Y-17750000D02*
G75*
G02*
X29630000Y-17750000I-5120000J0D01*
G01*
X29630000Y-17750000D02*
G75*
G02*
X39870000Y-17750000I5120000J0D01*
G01*
%TO.C,P1*%
X61000000Y-9750000D02*
X61000000Y-11250000D01*
X61000000Y-18750000D02*
X61000000Y-20250000D01*
X61000000Y-20250000D02*
X62500000Y-20250000D01*
X62500000Y-9750000D02*
X61000000Y-9750000D01*
X61000000Y-18250000D02*
X60750000Y-18500000D01*
X60750000Y-18000000D01*
X61000000Y-18250000D01*
G36*
X61000000Y-18250000D02*
G01*
X60750000Y-18500000D01*
X60750000Y-18000000D01*
X61000000Y-18250000D01*
G37*
D12*
%TO.C,D8*%
X59300000Y-13590000D02*
G75*
G02*
X59200000Y-13590000I-50000J0D01*
G01*
X59200000Y-13590000D02*
G75*
G02*
X59300000Y-13590000I50000J0D01*
G01*
D11*
%TO.C,U4*%
X55650000Y-13040000D02*
X56450000Y-13040000D01*
X55650000Y-16160000D02*
X56450000Y-16160000D01*
X57250000Y-13040000D02*
X56450000Y-13040000D01*
X57250000Y-16160000D02*
X56450000Y-16160000D01*
X57750000Y-13090000D02*
X57510000Y-12760000D01*
X57990000Y-12760000D01*
X57750000Y-13090000D01*
G36*
X57750000Y-13090000D02*
G01*
X57510000Y-12760000D01*
X57990000Y-12760000D01*
X57750000Y-13090000D01*
G37*
%TO.C,R6*%
X51012742Y-15327500D02*
X51487258Y-15327500D01*
X51012742Y-16372500D02*
X51487258Y-16372500D01*
%TO.C,C24*%
X34375000Y-13270354D02*
X34375000Y-12270354D01*
X34875000Y-12770354D02*
X33875000Y-12770354D01*
X36009000Y-19031000D02*
X32332000Y-19031000D01*
X36009000Y-19071000D02*
X32343000Y-19071000D01*
X36009000Y-19111000D02*
X32353000Y-19111000D01*
X36009000Y-19151000D02*
X32365000Y-19151000D01*
X36009000Y-19191000D02*
X32376000Y-19191000D01*
X36009000Y-19231000D02*
X32388000Y-19231000D01*
X36009000Y-19271000D02*
X32400000Y-19271000D01*
X36009000Y-19311000D02*
X32413000Y-19311000D01*
X36009000Y-19351000D02*
X32426000Y-19351000D01*
X36009000Y-19391000D02*
X32439000Y-19391000D01*
X36009000Y-19431000D02*
X32453000Y-19431000D01*
X36009000Y-19471000D02*
X32467000Y-19471000D01*
X36009000Y-19511000D02*
X32482000Y-19511000D01*
X36009000Y-19551000D02*
X32496000Y-19551000D01*
X36009000Y-19591000D02*
X32512000Y-19591000D01*
X36009000Y-19631000D02*
X32527000Y-19631000D01*
X36009000Y-19671000D02*
X32543000Y-19671000D01*
X36009000Y-19711000D02*
X32560000Y-19711000D01*
X36009000Y-19751000D02*
X32576000Y-19751000D01*
X36009000Y-19791000D02*
X32593000Y-19791000D01*
X36009000Y-19831000D02*
X32611000Y-19831000D01*
X36009000Y-19871000D02*
X32629000Y-19871000D01*
X36009000Y-19911000D02*
X32647000Y-19911000D01*
X36009000Y-19951000D02*
X32666000Y-19951000D01*
X36009000Y-19991000D02*
X32686000Y-19991000D01*
X36009000Y-20031000D02*
X32705000Y-20031000D01*
X36009000Y-20071000D02*
X32725000Y-20071000D01*
X36009000Y-20111000D02*
X32746000Y-20111000D01*
X36009000Y-20151000D02*
X32767000Y-20151000D01*
X36009000Y-20191000D02*
X32788000Y-20191000D01*
X36009000Y-20231000D02*
X32810000Y-20231000D01*
X36009000Y-20271000D02*
X32833000Y-20271000D01*
X36009000Y-20311000D02*
X32855000Y-20311000D01*
X36009000Y-20351000D02*
X32879000Y-20351000D01*
X36009000Y-20391000D02*
X32903000Y-20391000D01*
X36009000Y-20431000D02*
X32927000Y-20431000D01*
X36009000Y-20471000D02*
X32952000Y-20471000D01*
X36009000Y-20511000D02*
X32977000Y-20511000D01*
X36009000Y-20551000D02*
X33003000Y-20551000D01*
X36009000Y-20591000D02*
X33029000Y-20591000D01*
X36009000Y-20631000D02*
X33056000Y-20631000D01*
X36009000Y-20671000D02*
X33084000Y-20671000D01*
X36009000Y-20711000D02*
X33112000Y-20711000D01*
X36009000Y-20751000D02*
X33140000Y-20751000D01*
X36009000Y-20791000D02*
X33170000Y-20791000D01*
X36009000Y-20831000D02*
X33200000Y-20831000D01*
X36009000Y-20871000D02*
X33230000Y-20871000D01*
X36009000Y-20911000D02*
X33261000Y-20911000D01*
X36009000Y-20951000D02*
X33293000Y-20951000D01*
X36009000Y-20991000D02*
X33325000Y-20991000D01*
X36009000Y-21031000D02*
X33358000Y-21031000D01*
X36009000Y-21071000D02*
X33392000Y-21071000D01*
X36009000Y-21111000D02*
X33426000Y-21111000D01*
X36009000Y-21151000D02*
X33461000Y-21151000D01*
X36009000Y-21191000D02*
X33497000Y-21191000D01*
X36009000Y-21231000D02*
X33534000Y-21231000D01*
X36009000Y-21271000D02*
X33571000Y-21271000D01*
X36009000Y-21311000D02*
X33610000Y-21311000D01*
X36009000Y-21351000D02*
X33649000Y-21351000D01*
X36009000Y-21391000D02*
X33689000Y-21391000D01*
X36009000Y-21431000D02*
X33730000Y-21431000D01*
X36009000Y-21471000D02*
X33772000Y-21471000D01*
X37849000Y-22831000D02*
X36651000Y-22831000D01*
X38112000Y-22791000D02*
X36388000Y-22791000D01*
X38312000Y-22751000D02*
X36188000Y-22751000D01*
X38480000Y-22711000D02*
X36020000Y-22711000D01*
X38628000Y-22671000D02*
X35872000Y-22671000D01*
X38760000Y-22631000D02*
X35740000Y-22631000D01*
X38880000Y-22591000D02*
X35620000Y-22591000D01*
X38992000Y-22551000D02*
X35508000Y-22551000D01*
X39096000Y-22511000D02*
X35404000Y-22511000D01*
X39194000Y-22471000D02*
X35306000Y-22471000D01*
X39287000Y-22431000D02*
X35213000Y-22431000D01*
X39375000Y-22391000D02*
X35125000Y-22391000D01*
X39459000Y-22351000D02*
X35041000Y-22351000D01*
X39539000Y-22311000D02*
X34961000Y-22311000D01*
X39615000Y-22271000D02*
X34885000Y-22271000D01*
X39689000Y-22231000D02*
X34811000Y-22231000D01*
X39760000Y-22191000D02*
X34740000Y-22191000D01*
X39829000Y-22151000D02*
X34671000Y-22151000D01*
X39895000Y-22111000D02*
X34605000Y-22111000D01*
X39959000Y-22071000D02*
X34541000Y-22071000D01*
X40020000Y-22031000D02*
X34480000Y-22031000D01*
X40080000Y-21991000D02*
X34420000Y-21991000D01*
X40139000Y-21951000D02*
X34361000Y-21951000D01*
X40195000Y-21911000D02*
X34305000Y-21911000D01*
X40250000Y-21871000D02*
X34250000Y-21871000D01*
X40304000Y-21831000D02*
X34196000Y-21831000D01*
X40356000Y-21791000D02*
X34144000Y-21791000D01*
X40406000Y-21751000D02*
X34094000Y-21751000D01*
X40456000Y-21711000D02*
X34044000Y-21711000D01*
X40504000Y-21671000D02*
X33996000Y-21671000D01*
X40551000Y-21631000D02*
X33949000Y-21631000D01*
X40597000Y-21591000D02*
X33903000Y-21591000D01*
X40642000Y-21551000D02*
X33858000Y-21551000D01*
X40686000Y-21511000D02*
X33814000Y-21511000D01*
X40728000Y-21471000D02*
X38491000Y-21471000D01*
X40770000Y-21431000D02*
X38491000Y-21431000D01*
X40811000Y-21391000D02*
X38491000Y-21391000D01*
X40851000Y-21351000D02*
X38491000Y-21351000D01*
X40890000Y-21311000D02*
X38491000Y-21311000D01*
X40929000Y-21271000D02*
X38491000Y-21271000D01*
X40966000Y-21231000D02*
X38491000Y-21231000D01*
X41003000Y-21191000D02*
X38491000Y-21191000D01*
X41039000Y-21151000D02*
X38491000Y-21151000D01*
X41074000Y-21111000D02*
X38491000Y-21111000D01*
X41108000Y-21071000D02*
X38491000Y-21071000D01*
X41142000Y-21031000D02*
X38491000Y-21031000D01*
X41175000Y-20991000D02*
X38491000Y-20991000D01*
X41207000Y-20951000D02*
X38491000Y-20951000D01*
X41239000Y-20911000D02*
X38491000Y-20911000D01*
X41270000Y-20871000D02*
X38491000Y-20871000D01*
X41300000Y-20831000D02*
X38491000Y-20831000D01*
X41330000Y-20791000D02*
X38491000Y-20791000D01*
X41360000Y-20751000D02*
X38491000Y-20751000D01*
X41388000Y-20711000D02*
X38491000Y-20711000D01*
X41416000Y-20671000D02*
X38491000Y-20671000D01*
X41444000Y-20631000D02*
X38491000Y-20631000D01*
X41471000Y-20591000D02*
X38491000Y-20591000D01*
X41497000Y-20551000D02*
X38491000Y-20551000D01*
X41523000Y-20511000D02*
X38491000Y-20511000D01*
X41548000Y-20471000D02*
X38491000Y-20471000D01*
X41573000Y-20431000D02*
X38491000Y-20431000D01*
X41597000Y-20391000D02*
X38491000Y-20391000D01*
X41621000Y-20351000D02*
X38491000Y-20351000D01*
X41645000Y-20311000D02*
X38491000Y-20311000D01*
X41667000Y-20271000D02*
X38491000Y-20271000D01*
X41690000Y-20231000D02*
X38491000Y-20231000D01*
X41712000Y-20191000D02*
X38491000Y-20191000D01*
X41733000Y-20151000D02*
X38491000Y-20151000D01*
X41754000Y-20111000D02*
X38491000Y-20111000D01*
X41775000Y-20071000D02*
X38491000Y-20071000D01*
X41795000Y-20031000D02*
X38491000Y-20031000D01*
X41814000Y-19991000D02*
X38491000Y-19991000D01*
X41834000Y-19951000D02*
X38491000Y-19951000D01*
X41853000Y-19911000D02*
X38491000Y-19911000D01*
X41871000Y-19871000D02*
X38491000Y-19871000D01*
X41889000Y-19831000D02*
X38491000Y-19831000D01*
X41907000Y-19791000D02*
X38491000Y-19791000D01*
X41924000Y-19751000D02*
X38491000Y-19751000D01*
X41940000Y-19711000D02*
X38491000Y-19711000D01*
X41957000Y-19671000D02*
X38491000Y-19671000D01*
X41973000Y-19631000D02*
X38491000Y-19631000D01*
X41988000Y-19591000D02*
X38491000Y-19591000D01*
X42004000Y-19551000D02*
X38491000Y-19551000D01*
X42018000Y-19511000D02*
X38491000Y-19511000D01*
X42033000Y-19471000D02*
X38491000Y-19471000D01*
X42047000Y-19431000D02*
X38491000Y-19431000D01*
X42061000Y-19391000D02*
X38491000Y-19391000D01*
X42074000Y-19351000D02*
X38491000Y-19351000D01*
X42087000Y-19311000D02*
X38491000Y-19311000D01*
X42100000Y-19271000D02*
X38491000Y-19271000D01*
X42112000Y-19231000D02*
X38491000Y-19231000D01*
X42124000Y-19191000D02*
X38491000Y-19191000D01*
X42135000Y-19151000D02*
X38491000Y-19151000D01*
X42147000Y-19111000D02*
X38491000Y-19111000D01*
X42157000Y-19071000D02*
X38491000Y-19071000D01*
X42168000Y-19031000D02*
X38491000Y-19031000D01*
X42178000Y-18991000D02*
X32322000Y-18991000D01*
X42188000Y-18951000D02*
X32312000Y-18951000D01*
X42197000Y-18911000D02*
X32303000Y-18911000D01*
X42206000Y-18871000D02*
X32294000Y-18871000D01*
X42215000Y-18831000D02*
X32285000Y-18831000D01*
X42224000Y-18791000D02*
X32276000Y-18791000D01*
X42232000Y-18751000D02*
X32268000Y-18751000D01*
X42240000Y-18711000D02*
X32260000Y-18711000D01*
X42247000Y-18671000D02*
X32253000Y-18671000D01*
X42254000Y-18631000D02*
X32246000Y-18631000D01*
X42261000Y-18591000D02*
X32239000Y-18591000D01*
X42268000Y-18551000D02*
X32232000Y-18551000D01*
X42274000Y-18511000D02*
X32226000Y-18511000D01*
X42280000Y-18471000D02*
X32220000Y-18471000D01*
X42285000Y-18430000D02*
X32215000Y-18430000D01*
X42290000Y-18390000D02*
X32210000Y-18390000D01*
X42295000Y-18350000D02*
X32205000Y-18350000D01*
X42300000Y-18310000D02*
X32200000Y-18310000D01*
X42304000Y-18270000D02*
X32196000Y-18270000D01*
X42308000Y-18230000D02*
X32192000Y-18230000D01*
X42312000Y-18190000D02*
X32188000Y-18190000D01*
X42315000Y-18150000D02*
X32185000Y-18150000D01*
X42318000Y-18110000D02*
X32182000Y-18110000D01*
X42320000Y-18070000D02*
X32180000Y-18070000D01*
X42323000Y-18030000D02*
X32177000Y-18030000D01*
X42325000Y-17990000D02*
X32175000Y-17990000D01*
X42327000Y-17950000D02*
X32173000Y-17950000D01*
X42328000Y-17910000D02*
X32172000Y-17910000D01*
X42329000Y-17870000D02*
X32171000Y-17870000D01*
X42330000Y-17750000D02*
X32170000Y-17750000D01*
X42330000Y-17790000D02*
X32170000Y-17790000D01*
X42330000Y-17830000D02*
X32170000Y-17830000D01*
X42370000Y-17750000D02*
G75*
G02*
X32130000Y-17750000I-5120000J0D01*
G01*
X32130000Y-17750000D02*
G75*
G02*
X42370000Y-17750000I5120000J0D01*
G01*
%TD*%
M02*
