%TF.GenerationSoftware,KiCad,Pcbnew,7.0.2-0*%
%TF.CreationDate,2024-12-01T01:29:24-08:00*%
%TF.ProjectId,pizero-papoe,70697a65-726f-42d7-9061-706f652e6b69,0.1*%
%TF.SameCoordinates,PX652f520PY4a19ba0*%
%TF.FileFunction,Soldermask,Bot*%
%TF.FilePolarity,Negative*%
%FSLAX46Y46*%
G04 Gerber Fmt 4.6, Leading zero omitted, Abs format (unit mm)*
G04 Created by KiCad (PCBNEW 7.0.2-0) date 2024-12-01 01:29:24*
%MOMM*%
%LPD*%
G01*
G04 APERTURE LIST*
G04 APERTURE END LIST*
G36*
X3841604Y-23468184D02*
G01*
X4178911Y-23525495D01*
X4507681Y-23620212D01*
X4823779Y-23751144D01*
X5123230Y-23916644D01*
X5402267Y-24114632D01*
X5657383Y-24342617D01*
X5885368Y-24597733D01*
X6083356Y-24876770D01*
X6248856Y-25176221D01*
X6379788Y-25492319D01*
X6474505Y-25821089D01*
X6531816Y-26158396D01*
X6551000Y-26500000D01*
X6531816Y-26841604D01*
X6474505Y-27178911D01*
X6379788Y-27507681D01*
X6248856Y-27823779D01*
X6083356Y-28123230D01*
X5885368Y-28402267D01*
X5657383Y-28657383D01*
X5402267Y-28885368D01*
X5123230Y-29083356D01*
X4823779Y-29248856D01*
X4507681Y-29379788D01*
X4178911Y-29474505D01*
X3841604Y-29531816D01*
X3500000Y-29551000D01*
X3158396Y-29531816D01*
X2821089Y-29474505D01*
X2492319Y-29379788D01*
X2176221Y-29248856D01*
X1876770Y-29083356D01*
X1597733Y-28885368D01*
X1342617Y-28657383D01*
X1114632Y-28402267D01*
X916644Y-28123230D01*
X751144Y-27823779D01*
X620212Y-27507681D01*
X525495Y-27178911D01*
X468184Y-26841604D01*
X449000Y-26500000D01*
X468184Y-26158396D01*
X525495Y-25821089D01*
X620212Y-25492319D01*
X751144Y-25176221D01*
X916644Y-24876770D01*
X1114632Y-24597733D01*
X1342617Y-24342617D01*
X1597733Y-24114632D01*
X1876770Y-23916644D01*
X2176221Y-23751144D01*
X2492319Y-23620212D01*
X2821089Y-23525495D01*
X3158396Y-23468184D01*
X3500000Y-23449000D01*
X3841604Y-23468184D01*
G37*
G36*
X61841604Y-22968184D02*
G01*
X62178911Y-23025495D01*
X62507681Y-23120212D01*
X62823779Y-23251144D01*
X63123230Y-23416644D01*
X63402267Y-23614632D01*
X63657383Y-23842617D01*
X63885368Y-24097733D01*
X64083356Y-24376770D01*
X64248856Y-24676221D01*
X64379788Y-24992319D01*
X64474505Y-25321089D01*
X64531816Y-25658396D01*
X64551000Y-26000000D01*
X64531816Y-26341604D01*
X64474505Y-26678911D01*
X64379788Y-27007681D01*
X64248856Y-27323779D01*
X64083356Y-27623230D01*
X63885368Y-27902267D01*
X63657383Y-28157383D01*
X63402267Y-28385368D01*
X63123230Y-28583356D01*
X62823779Y-28748856D01*
X62507681Y-28879788D01*
X62178911Y-28974505D01*
X61841604Y-29031816D01*
X61500000Y-29051000D01*
X61158396Y-29031816D01*
X60821089Y-28974505D01*
X60492319Y-28879788D01*
X60176221Y-28748856D01*
X59876770Y-28583356D01*
X59597733Y-28385368D01*
X59342617Y-28157383D01*
X59114632Y-27902267D01*
X58916644Y-27623230D01*
X58751144Y-27323779D01*
X58620212Y-27007681D01*
X58525495Y-26678911D01*
X58468184Y-26341604D01*
X58449000Y-26000000D01*
X58468184Y-25658396D01*
X58525495Y-25321089D01*
X58620212Y-24992319D01*
X58751144Y-24676221D01*
X58916644Y-24376770D01*
X59114632Y-24097733D01*
X59342617Y-23842617D01*
X59597733Y-23614632D01*
X59876770Y-23416644D01*
X60176221Y-23251144D01*
X60492319Y-23120212D01*
X60821089Y-23025495D01*
X61158396Y-22968184D01*
X61500000Y-22949000D01*
X61841604Y-22968184D01*
G37*
G36*
X67612620Y-21229000D02*
G01*
X67689303Y-21247901D01*
X67766544Y-21288440D01*
X67829163Y-21321305D01*
X67829164Y-21321306D01*
X67829166Y-21321307D01*
X67947397Y-21426051D01*
X68037126Y-21556045D01*
X68093138Y-21703736D01*
X68112177Y-21860540D01*
X68093138Y-22017344D01*
X68037126Y-22165035D01*
X67947397Y-22295029D01*
X67829166Y-22399773D01*
X67689303Y-22473179D01*
X67561258Y-22504739D01*
X67535939Y-22510980D01*
X67535938Y-22510980D01*
X67377982Y-22510980D01*
X67377981Y-22510980D01*
X67347654Y-22503505D01*
X67224617Y-22473179D01*
X67084754Y-22399773D01*
X66966523Y-22295029D01*
X66966522Y-22295028D01*
X66966521Y-22295027D01*
X66876793Y-22165033D01*
X66820781Y-22017343D01*
X66801742Y-21860539D01*
X66820781Y-21703736D01*
X66876793Y-21556046D01*
X66966521Y-21426052D01*
X67084756Y-21321305D01*
X67224617Y-21247901D01*
X67377981Y-21210100D01*
X67535939Y-21210100D01*
X67612620Y-21229000D01*
G37*
G36*
X73393601Y-21834567D02*
G01*
X73613437Y-21893471D01*
X73819701Y-21989654D01*
X74006135Y-22120196D01*
X74167063Y-22281124D01*
X74167064Y-22281126D01*
X74297604Y-22467556D01*
X74393788Y-22673822D01*
X74452692Y-22893657D01*
X74472528Y-23120380D01*
X74452692Y-23347103D01*
X74393788Y-23566938D01*
X74297604Y-23773204D01*
X74167064Y-23959634D01*
X74006134Y-24120564D01*
X73819704Y-24251104D01*
X73613438Y-24347288D01*
X73393603Y-24406192D01*
X73166880Y-24426028D01*
X72940157Y-24406192D01*
X72720322Y-24347288D01*
X72514056Y-24251104D01*
X72420841Y-24185833D01*
X72327624Y-24120563D01*
X72166696Y-23959635D01*
X72036154Y-23773201D01*
X71939971Y-23566937D01*
X71881067Y-23347101D01*
X71861231Y-23120380D01*
X71881067Y-22893658D01*
X71939971Y-22673822D01*
X72036154Y-22467558D01*
X72166696Y-22281124D01*
X72327624Y-22120196D01*
X72514058Y-21989654D01*
X72720322Y-21893471D01*
X72940158Y-21834567D01*
X73166879Y-21814731D01*
X73393601Y-21834567D01*
G37*
G36*
X67612620Y-18937920D02*
G01*
X67689303Y-18956821D01*
X67766544Y-18997360D01*
X67829163Y-19030225D01*
X67829164Y-19030226D01*
X67829166Y-19030227D01*
X67947397Y-19134971D01*
X68037126Y-19264965D01*
X68093138Y-19412656D01*
X68112177Y-19569460D01*
X68093138Y-19726264D01*
X68037126Y-19873955D01*
X67947397Y-20003949D01*
X67829166Y-20108693D01*
X67689303Y-20182099D01*
X67561258Y-20213659D01*
X67535939Y-20219900D01*
X67535938Y-20219900D01*
X67377982Y-20219900D01*
X67377981Y-20219900D01*
X67347654Y-20212425D01*
X67224617Y-20182099D01*
X67084754Y-20108693D01*
X66966523Y-20003949D01*
X66966522Y-20003948D01*
X66966521Y-20003947D01*
X66876793Y-19873953D01*
X66820781Y-19726263D01*
X66801742Y-19569459D01*
X66820781Y-19412656D01*
X66876793Y-19264966D01*
X66966521Y-19134972D01*
X67084756Y-19030225D01*
X67224617Y-18956821D01*
X67377981Y-18919020D01*
X67535939Y-18919020D01*
X67612620Y-18937920D01*
G37*
G36*
X72431000Y-17919380D02*
G01*
X72507683Y-17938281D01*
X72571828Y-17971947D01*
X72647543Y-18011685D01*
X72647544Y-18011686D01*
X72647546Y-18011687D01*
X72765777Y-18116431D01*
X72855506Y-18246425D01*
X72911518Y-18394116D01*
X72930557Y-18550920D01*
X72911518Y-18707724D01*
X72855506Y-18855415D01*
X72765777Y-18985409D01*
X72647546Y-19090153D01*
X72507683Y-19163559D01*
X72379638Y-19195119D01*
X72354319Y-19201360D01*
X72354318Y-19201360D01*
X72196362Y-19201360D01*
X72196361Y-19201360D01*
X72166034Y-19193885D01*
X72042997Y-19163559D01*
X71903134Y-19090153D01*
X71784903Y-18985409D01*
X71784902Y-18985408D01*
X71784901Y-18985407D01*
X71695173Y-18855413D01*
X71639161Y-18707723D01*
X71620122Y-18550919D01*
X71639161Y-18394116D01*
X71695173Y-18246426D01*
X71784901Y-18116432D01*
X71903136Y-18011685D01*
X72042997Y-17938281D01*
X72196361Y-17900480D01*
X72354319Y-17900480D01*
X72431000Y-17919380D01*
G37*
G36*
X72431000Y-15889920D02*
G01*
X72507683Y-15908821D01*
X72571828Y-15942487D01*
X72647543Y-15982225D01*
X72647544Y-15982226D01*
X72647546Y-15982227D01*
X72765777Y-16086971D01*
X72855506Y-16216965D01*
X72911518Y-16364656D01*
X72930557Y-16521460D01*
X72911518Y-16678264D01*
X72855506Y-16825955D01*
X72765777Y-16955949D01*
X72647546Y-17060693D01*
X72507683Y-17134099D01*
X72379638Y-17165659D01*
X72354319Y-17171900D01*
X72354318Y-17171900D01*
X72196362Y-17171900D01*
X72196361Y-17171900D01*
X72166034Y-17164425D01*
X72042997Y-17134099D01*
X71903134Y-17060693D01*
X71784903Y-16955949D01*
X71784902Y-16955948D01*
X71784901Y-16955947D01*
X71695173Y-16825953D01*
X71639161Y-16678263D01*
X71620122Y-16521459D01*
X71639161Y-16364656D01*
X71695173Y-16216966D01*
X71784901Y-16086972D01*
X71903136Y-15982225D01*
X72042997Y-15908821D01*
X72196361Y-15871020D01*
X72354319Y-15871020D01*
X72431000Y-15889920D01*
G37*
G36*
X74211540Y-16905920D02*
G01*
X74288223Y-16924821D01*
X74347528Y-16955947D01*
X74428083Y-16998225D01*
X74428084Y-16998226D01*
X74428086Y-16998227D01*
X74546317Y-17102971D01*
X74636046Y-17232965D01*
X74692058Y-17380656D01*
X74711097Y-17537460D01*
X74692058Y-17694264D01*
X74636046Y-17841955D01*
X74546317Y-17971949D01*
X74428086Y-18076693D01*
X74288223Y-18150099D01*
X74160178Y-18181659D01*
X74134859Y-18187900D01*
X74134858Y-18187900D01*
X73976902Y-18187900D01*
X73976901Y-18187900D01*
X73946574Y-18180425D01*
X73823537Y-18150099D01*
X73683674Y-18076693D01*
X73565443Y-17971949D01*
X73565442Y-17971948D01*
X73565441Y-17971947D01*
X73475713Y-17841953D01*
X73419701Y-17694263D01*
X73400662Y-17537459D01*
X73419701Y-17380656D01*
X73475713Y-17232966D01*
X73565441Y-17102972D01*
X73683676Y-16998225D01*
X73823537Y-16924821D01*
X73976901Y-16887020D01*
X74134859Y-16887020D01*
X74211540Y-16905920D01*
G37*
G36*
X72431000Y-13860460D02*
G01*
X72507683Y-13879361D01*
X72571828Y-13913027D01*
X72647543Y-13952765D01*
X72647544Y-13952766D01*
X72647546Y-13952767D01*
X72765777Y-14057511D01*
X72855506Y-14187505D01*
X72911518Y-14335196D01*
X72930557Y-14492000D01*
X72911518Y-14648804D01*
X72855506Y-14796495D01*
X72765777Y-14926489D01*
X72647546Y-15031233D01*
X72507683Y-15104639D01*
X72379638Y-15136199D01*
X72354319Y-15142440D01*
X72354318Y-15142440D01*
X72196362Y-15142440D01*
X72196361Y-15142440D01*
X72166034Y-15134965D01*
X72042997Y-15104639D01*
X71903134Y-15031233D01*
X71784903Y-14926489D01*
X71784902Y-14926488D01*
X71784901Y-14926487D01*
X71695173Y-14796493D01*
X71639161Y-14648803D01*
X71620122Y-14492000D01*
X71639161Y-14335196D01*
X71695173Y-14187506D01*
X71784901Y-14057512D01*
X71903136Y-13952765D01*
X72042997Y-13879361D01*
X72196361Y-13841560D01*
X72354319Y-13841560D01*
X72431000Y-13860460D01*
G37*
G36*
X74211540Y-14876460D02*
G01*
X74288223Y-14895361D01*
X74347528Y-14926487D01*
X74428083Y-14968765D01*
X74428084Y-14968766D01*
X74428086Y-14968767D01*
X74546317Y-15073511D01*
X74636046Y-15203505D01*
X74692058Y-15351196D01*
X74711097Y-15508000D01*
X74692058Y-15664804D01*
X74636046Y-15812495D01*
X74546317Y-15942489D01*
X74428086Y-16047233D01*
X74288223Y-16120639D01*
X74160178Y-16152199D01*
X74134859Y-16158440D01*
X74134858Y-16158440D01*
X73976902Y-16158440D01*
X73976901Y-16158440D01*
X73946574Y-16150965D01*
X73823537Y-16120639D01*
X73683674Y-16047233D01*
X73565443Y-15942489D01*
X73565442Y-15942488D01*
X73565441Y-15942487D01*
X73475713Y-15812493D01*
X73419701Y-15664803D01*
X73400662Y-15507999D01*
X73419701Y-15351196D01*
X73475713Y-15203506D01*
X73565441Y-15073512D01*
X73683676Y-14968765D01*
X73823537Y-14895361D01*
X73976901Y-14857560D01*
X74134859Y-14857560D01*
X74211540Y-14876460D01*
G37*
G36*
X39682203Y-11475879D02*
G01*
X39701091Y-11484218D01*
X39722935Y-11488564D01*
X39746321Y-11504189D01*
X39769307Y-11514339D01*
X39785004Y-11530036D01*
X39805961Y-11544039D01*
X39819963Y-11564995D01*
X39835660Y-11580692D01*
X39845808Y-11603676D01*
X39861436Y-11627065D01*
X39865780Y-11648908D01*
X39874119Y-11667793D01*
X39875999Y-11684002D01*
X39875999Y-11700281D01*
X39875999Y-11700282D01*
X39876000Y-12299719D01*
X39875999Y-12299724D01*
X39875999Y-12316004D01*
X39874120Y-12332203D01*
X39865781Y-12351086D01*
X39861436Y-12372935D01*
X39845807Y-12396325D01*
X39835660Y-12419307D01*
X39819965Y-12435001D01*
X39805961Y-12455961D01*
X39785001Y-12469965D01*
X39769307Y-12485660D01*
X39746325Y-12495807D01*
X39722935Y-12511436D01*
X39701089Y-12515781D01*
X39682206Y-12524119D01*
X39665997Y-12525999D01*
X39649718Y-12525999D01*
X39200281Y-12526000D01*
X39200276Y-12525999D01*
X39183995Y-12525999D01*
X39167796Y-12524120D01*
X39148911Y-12515781D01*
X39127065Y-12511436D01*
X39103676Y-12495808D01*
X39080692Y-12485660D01*
X39064995Y-12469963D01*
X39044039Y-12455961D01*
X39030036Y-12435004D01*
X39014339Y-12419307D01*
X39004189Y-12396320D01*
X38988564Y-12372935D01*
X38984219Y-12351093D01*
X38975880Y-12332206D01*
X38974000Y-12315997D01*
X38974000Y-11683995D01*
X38975879Y-11667796D01*
X38984219Y-11648907D01*
X38988564Y-11627065D01*
X39004188Y-11603680D01*
X39014339Y-11580692D01*
X39030038Y-11564992D01*
X39044039Y-11544039D01*
X39064992Y-11530038D01*
X39080692Y-11514339D01*
X39103681Y-11504188D01*
X39127065Y-11488564D01*
X39148904Y-11484220D01*
X39167793Y-11475880D01*
X39184002Y-11474000D01*
X39666004Y-11474000D01*
X39682203Y-11475879D01*
G37*
G36*
X41332203Y-11475879D02*
G01*
X41351091Y-11484218D01*
X41372935Y-11488564D01*
X41396321Y-11504189D01*
X41419307Y-11514339D01*
X41435004Y-11530036D01*
X41455961Y-11544039D01*
X41469963Y-11564995D01*
X41485660Y-11580692D01*
X41495808Y-11603676D01*
X41511436Y-11627065D01*
X41515780Y-11648908D01*
X41524119Y-11667793D01*
X41525999Y-11684002D01*
X41525999Y-11700281D01*
X41525999Y-11700282D01*
X41526000Y-12299719D01*
X41525999Y-12299724D01*
X41525999Y-12316004D01*
X41524120Y-12332203D01*
X41515781Y-12351086D01*
X41511436Y-12372935D01*
X41495807Y-12396325D01*
X41485660Y-12419307D01*
X41469965Y-12435001D01*
X41455961Y-12455961D01*
X41435001Y-12469965D01*
X41419307Y-12485660D01*
X41396325Y-12495807D01*
X41372935Y-12511436D01*
X41351089Y-12515781D01*
X41332206Y-12524119D01*
X41315997Y-12525999D01*
X41299718Y-12525999D01*
X40850281Y-12526000D01*
X40850276Y-12525999D01*
X40833995Y-12525999D01*
X40817796Y-12524120D01*
X40798911Y-12515781D01*
X40777065Y-12511436D01*
X40753676Y-12495808D01*
X40730692Y-12485660D01*
X40714995Y-12469963D01*
X40694039Y-12455961D01*
X40680036Y-12435004D01*
X40664339Y-12419307D01*
X40654189Y-12396320D01*
X40638564Y-12372935D01*
X40634219Y-12351093D01*
X40625880Y-12332206D01*
X40624000Y-12315997D01*
X40624000Y-11683995D01*
X40625879Y-11667796D01*
X40634219Y-11648907D01*
X40638564Y-11627065D01*
X40654188Y-11603680D01*
X40664339Y-11580692D01*
X40680038Y-11564992D01*
X40694039Y-11544039D01*
X40714992Y-11530038D01*
X40730692Y-11514339D01*
X40753681Y-11504188D01*
X40777065Y-11488564D01*
X40798904Y-11484220D01*
X40817793Y-11475880D01*
X40834002Y-11474000D01*
X41316004Y-11474000D01*
X41332203Y-11475879D01*
G37*
G36*
X43583916Y-11732759D02*
G01*
X43633865Y-11766134D01*
X43667240Y-11816083D01*
X43676000Y-11860123D01*
X43676000Y-12089876D01*
X43667240Y-12133916D01*
X43633865Y-12183865D01*
X43583916Y-12217240D01*
X43539876Y-12226000D01*
X42235129Y-12226000D01*
X42235124Y-12226000D01*
X42191083Y-12217240D01*
X42141134Y-12183865D01*
X42107759Y-12133916D01*
X42099000Y-12089876D01*
X42099000Y-11860123D01*
X42107759Y-11816083D01*
X42141134Y-11766134D01*
X42191083Y-11732759D01*
X42235124Y-11724000D01*
X43539876Y-11724000D01*
X43583916Y-11732759D01*
G37*
G36*
X49308916Y-11732759D02*
G01*
X49358865Y-11766134D01*
X49392240Y-11816083D01*
X49401000Y-11860123D01*
X49401000Y-12089876D01*
X49392240Y-12133916D01*
X49358865Y-12183865D01*
X49308916Y-12217240D01*
X49264876Y-12226000D01*
X47960129Y-12226000D01*
X47960124Y-12226000D01*
X47916083Y-12217240D01*
X47866134Y-12183865D01*
X47832759Y-12133916D01*
X47824000Y-12089876D01*
X47824000Y-11860123D01*
X47832759Y-11816083D01*
X47866134Y-11766134D01*
X47916083Y-11732759D01*
X47960124Y-11724000D01*
X49264876Y-11724000D01*
X49308916Y-11732759D01*
G37*
G36*
X72370478Y-11816083D02*
G01*
X72507683Y-11849901D01*
X72571828Y-11883567D01*
X72647543Y-11923305D01*
X72647544Y-11923306D01*
X72647546Y-11923307D01*
X72765777Y-12028051D01*
X72855506Y-12158045D01*
X72911518Y-12305736D01*
X72930557Y-12462540D01*
X72911518Y-12619344D01*
X72855506Y-12767035D01*
X72765777Y-12897029D01*
X72647546Y-13001773D01*
X72507683Y-13075179D01*
X72379638Y-13106739D01*
X72354319Y-13112980D01*
X72354318Y-13112980D01*
X72196362Y-13112980D01*
X72196361Y-13112980D01*
X72166034Y-13105505D01*
X72042997Y-13075179D01*
X71903134Y-13001773D01*
X71784903Y-12897029D01*
X71784902Y-12897028D01*
X71784901Y-12897027D01*
X71695173Y-12767033D01*
X71639161Y-12619343D01*
X71620122Y-12462540D01*
X71639161Y-12305736D01*
X71695173Y-12158046D01*
X71784901Y-12028052D01*
X71903136Y-11923305D01*
X72042997Y-11849901D01*
X72196361Y-11812100D01*
X72354319Y-11812100D01*
X72370478Y-11816083D01*
G37*
G36*
X74211540Y-12847000D02*
G01*
X74288223Y-12865901D01*
X74347528Y-12897027D01*
X74428083Y-12939305D01*
X74428084Y-12939306D01*
X74428086Y-12939307D01*
X74546317Y-13044051D01*
X74636046Y-13174045D01*
X74692058Y-13321736D01*
X74711097Y-13478540D01*
X74692058Y-13635344D01*
X74636046Y-13783035D01*
X74546317Y-13913029D01*
X74428086Y-14017773D01*
X74288223Y-14091179D01*
X74160178Y-14122739D01*
X74134859Y-14128980D01*
X74134858Y-14128980D01*
X73976902Y-14128980D01*
X73976901Y-14128980D01*
X73946574Y-14121505D01*
X73823537Y-14091179D01*
X73683674Y-14017773D01*
X73565443Y-13913029D01*
X73565442Y-13913028D01*
X73565441Y-13913027D01*
X73475713Y-13783033D01*
X73419701Y-13635343D01*
X73400662Y-13478539D01*
X73419701Y-13321736D01*
X73475713Y-13174046D01*
X73565441Y-13044052D01*
X73683676Y-12939305D01*
X73823537Y-12865901D01*
X73976901Y-12828100D01*
X74134859Y-12828100D01*
X74211540Y-12847000D01*
G37*
G36*
X39682203Y-9475879D02*
G01*
X39701091Y-9484218D01*
X39722935Y-9488564D01*
X39746321Y-9504189D01*
X39769307Y-9514339D01*
X39785004Y-9530036D01*
X39805961Y-9544039D01*
X39819963Y-9564995D01*
X39835660Y-9580692D01*
X39845808Y-9603676D01*
X39861436Y-9627065D01*
X39865780Y-9648908D01*
X39874119Y-9667793D01*
X39875999Y-9684002D01*
X39875999Y-9700281D01*
X39875999Y-9700282D01*
X39876000Y-10299719D01*
X39875999Y-10299724D01*
X39875999Y-10316004D01*
X39874120Y-10332203D01*
X39865781Y-10351086D01*
X39861436Y-10372935D01*
X39845807Y-10396325D01*
X39835660Y-10419307D01*
X39819965Y-10435001D01*
X39805961Y-10455961D01*
X39785001Y-10469965D01*
X39769307Y-10485660D01*
X39746325Y-10495807D01*
X39722935Y-10511436D01*
X39701089Y-10515781D01*
X39682206Y-10524119D01*
X39665997Y-10525999D01*
X39649718Y-10525999D01*
X39200281Y-10526000D01*
X39200276Y-10525999D01*
X39183995Y-10525999D01*
X39167796Y-10524120D01*
X39148911Y-10515781D01*
X39127065Y-10511436D01*
X39103676Y-10495808D01*
X39080692Y-10485660D01*
X39064995Y-10469963D01*
X39044039Y-10455961D01*
X39030036Y-10435004D01*
X39014339Y-10419307D01*
X39004189Y-10396320D01*
X38988564Y-10372935D01*
X38984219Y-10351093D01*
X38975880Y-10332206D01*
X38974000Y-10315997D01*
X38974000Y-9683995D01*
X38975879Y-9667796D01*
X38984219Y-9648907D01*
X38988564Y-9627065D01*
X39004188Y-9603680D01*
X39014339Y-9580692D01*
X39030038Y-9564992D01*
X39044039Y-9544039D01*
X39064992Y-9530038D01*
X39080692Y-9514339D01*
X39103681Y-9504188D01*
X39127065Y-9488564D01*
X39148904Y-9484220D01*
X39167793Y-9475880D01*
X39184002Y-9474000D01*
X39666004Y-9474000D01*
X39682203Y-9475879D01*
G37*
G36*
X41332203Y-9475879D02*
G01*
X41351091Y-9484218D01*
X41372935Y-9488564D01*
X41396321Y-9504189D01*
X41419307Y-9514339D01*
X41435004Y-9530036D01*
X41455961Y-9544039D01*
X41469963Y-9564995D01*
X41485660Y-9580692D01*
X41495808Y-9603676D01*
X41511436Y-9627065D01*
X41515780Y-9648908D01*
X41524119Y-9667793D01*
X41525999Y-9684002D01*
X41525999Y-9700281D01*
X41525999Y-9700282D01*
X41526000Y-10299719D01*
X41525999Y-10299724D01*
X41525999Y-10316004D01*
X41524120Y-10332203D01*
X41515781Y-10351086D01*
X41511436Y-10372935D01*
X41495807Y-10396325D01*
X41485660Y-10419307D01*
X41469965Y-10435001D01*
X41455961Y-10455961D01*
X41435001Y-10469965D01*
X41419307Y-10485660D01*
X41396325Y-10495807D01*
X41372935Y-10511436D01*
X41351089Y-10515781D01*
X41332206Y-10524119D01*
X41315997Y-10525999D01*
X41299718Y-10525999D01*
X40850281Y-10526000D01*
X40850276Y-10525999D01*
X40833995Y-10525999D01*
X40817796Y-10524120D01*
X40798911Y-10515781D01*
X40777065Y-10511436D01*
X40753676Y-10495808D01*
X40730692Y-10485660D01*
X40714995Y-10469963D01*
X40694039Y-10455961D01*
X40680036Y-10435004D01*
X40664339Y-10419307D01*
X40654189Y-10396320D01*
X40638564Y-10372935D01*
X40634219Y-10351093D01*
X40625880Y-10332206D01*
X40624000Y-10315997D01*
X40624000Y-9683995D01*
X40625879Y-9667796D01*
X40634219Y-9648907D01*
X40638564Y-9627065D01*
X40654188Y-9603680D01*
X40664339Y-9580692D01*
X40680038Y-9564992D01*
X40694039Y-9544039D01*
X40714992Y-9530038D01*
X40730692Y-9514339D01*
X40753681Y-9504188D01*
X40777065Y-9488564D01*
X40798904Y-9484220D01*
X40817793Y-9475880D01*
X40834002Y-9474000D01*
X41316004Y-9474000D01*
X41332203Y-9475879D01*
G37*
G36*
X43583916Y-9782759D02*
G01*
X43633865Y-9816134D01*
X43667240Y-9866083D01*
X43676000Y-9910123D01*
X43676000Y-10139876D01*
X43667240Y-10183916D01*
X43633865Y-10233865D01*
X43583916Y-10267240D01*
X43539876Y-10276000D01*
X42235129Y-10276000D01*
X42235124Y-10276000D01*
X42191083Y-10267240D01*
X42141134Y-10233865D01*
X42107759Y-10183916D01*
X42099000Y-10139876D01*
X42099000Y-9910123D01*
X42107759Y-9866083D01*
X42141134Y-9816134D01*
X42191083Y-9782759D01*
X42235124Y-9774000D01*
X43539876Y-9774000D01*
X43583916Y-9782759D01*
G37*
G36*
X49308916Y-9782759D02*
G01*
X49358865Y-9816134D01*
X49392240Y-9866083D01*
X49401000Y-9910123D01*
X49401000Y-10139876D01*
X49392240Y-10183916D01*
X49358865Y-10233865D01*
X49308916Y-10267240D01*
X49264876Y-10276000D01*
X47960129Y-10276000D01*
X47960124Y-10276000D01*
X47916083Y-10267240D01*
X47866134Y-10233865D01*
X47832759Y-10183916D01*
X47824000Y-10139876D01*
X47824000Y-9910123D01*
X47832759Y-9866083D01*
X47866134Y-9816134D01*
X47916083Y-9782759D01*
X47960124Y-9774000D01*
X49264876Y-9774000D01*
X49308916Y-9782759D01*
G37*
G36*
X67612620Y-9799000D02*
G01*
X67689303Y-9817901D01*
X67766544Y-9858440D01*
X67829163Y-9891305D01*
X67829164Y-9891306D01*
X67829166Y-9891307D01*
X67947397Y-9996051D01*
X68037126Y-10126045D01*
X68093138Y-10273736D01*
X68112177Y-10430540D01*
X68093138Y-10587344D01*
X68037126Y-10735035D01*
X67947397Y-10865029D01*
X67829166Y-10969773D01*
X67689303Y-11043179D01*
X67564257Y-11074000D01*
X67535939Y-11080980D01*
X67535938Y-11080980D01*
X67377982Y-11080980D01*
X67377981Y-11080980D01*
X67347654Y-11073505D01*
X67224617Y-11043179D01*
X67084754Y-10969773D01*
X66966523Y-10865029D01*
X66966522Y-10865028D01*
X66966521Y-10865027D01*
X66876793Y-10735033D01*
X66820781Y-10587343D01*
X66801742Y-10430540D01*
X66820781Y-10273736D01*
X66876793Y-10126046D01*
X66966521Y-9996052D01*
X67084756Y-9891305D01*
X67224617Y-9817901D01*
X67377981Y-9780100D01*
X67535939Y-9780100D01*
X67612620Y-9799000D01*
G37*
G36*
X74211540Y-10817540D02*
G01*
X74288223Y-10836441D01*
X74365464Y-10876980D01*
X74428083Y-10909845D01*
X74428084Y-10909846D01*
X74428086Y-10909847D01*
X74546317Y-11014591D01*
X74636046Y-11144585D01*
X74692058Y-11292276D01*
X74711097Y-11449080D01*
X74692058Y-11605884D01*
X74636046Y-11753575D01*
X74546317Y-11883569D01*
X74428086Y-11988313D01*
X74288223Y-12061719D01*
X74173985Y-12089876D01*
X74134859Y-12099520D01*
X74134858Y-12099520D01*
X73976902Y-12099520D01*
X73976901Y-12099520D01*
X73937775Y-12089876D01*
X73823537Y-12061719D01*
X73683674Y-11988313D01*
X73565443Y-11883569D01*
X73565442Y-11883568D01*
X73565441Y-11883567D01*
X73475713Y-11753573D01*
X73419701Y-11605883D01*
X73400662Y-11449080D01*
X73419701Y-11292276D01*
X73475713Y-11144586D01*
X73565441Y-11014592D01*
X73683676Y-10909845D01*
X73823537Y-10836441D01*
X73976901Y-10798640D01*
X74134859Y-10798640D01*
X74211540Y-10817540D01*
G37*
G36*
X43583916Y-11082759D02*
G01*
X43633865Y-11116134D01*
X43667240Y-11166083D01*
X43676000Y-11210123D01*
X43676000Y-11439876D01*
X43667240Y-11483916D01*
X43633865Y-11533865D01*
X43583916Y-11567240D01*
X43539876Y-11576000D01*
X42235129Y-11576000D01*
X42235124Y-11576000D01*
X42191083Y-11567240D01*
X42141134Y-11533865D01*
X42107759Y-11483916D01*
X42099000Y-11439876D01*
X42099000Y-11210123D01*
X42107759Y-11166083D01*
X42141134Y-11116134D01*
X42191083Y-11082759D01*
X42235124Y-11074000D01*
X43539876Y-11074000D01*
X43583916Y-11082759D01*
G37*
G36*
X49308916Y-11082759D02*
G01*
X49358865Y-11116134D01*
X49392240Y-11166083D01*
X49401000Y-11210123D01*
X49401000Y-11439876D01*
X49392240Y-11483916D01*
X49358865Y-11533865D01*
X49308916Y-11567240D01*
X49264876Y-11576000D01*
X47960129Y-11576000D01*
X47960124Y-11576000D01*
X47916083Y-11567240D01*
X47866134Y-11533865D01*
X47832759Y-11483916D01*
X47824000Y-11439876D01*
X47824000Y-11210123D01*
X47832759Y-11166083D01*
X47866134Y-11116134D01*
X47916083Y-11082759D01*
X47960124Y-11074000D01*
X49264876Y-11074000D01*
X49308916Y-11082759D01*
G37*
G36*
X43583916Y-10432759D02*
G01*
X43633865Y-10466134D01*
X43667240Y-10516083D01*
X43676000Y-10560123D01*
X43676000Y-10789876D01*
X43667240Y-10833916D01*
X43633865Y-10883865D01*
X43583916Y-10917240D01*
X43539876Y-10926000D01*
X42235129Y-10926000D01*
X42235124Y-10926000D01*
X42191083Y-10917240D01*
X42141134Y-10883865D01*
X42107759Y-10833916D01*
X42099000Y-10789876D01*
X42099000Y-10560123D01*
X42107759Y-10516083D01*
X42141134Y-10466134D01*
X42191083Y-10432759D01*
X42235124Y-10424000D01*
X43539876Y-10424000D01*
X43583916Y-10432759D01*
G37*
G36*
X49308916Y-10432759D02*
G01*
X49358865Y-10466134D01*
X49392240Y-10516083D01*
X49401000Y-10560123D01*
X49401000Y-10789876D01*
X49392240Y-10833916D01*
X49358865Y-10883865D01*
X49308916Y-10917240D01*
X49264876Y-10926000D01*
X47960129Y-10926000D01*
X47960124Y-10926000D01*
X47916083Y-10917240D01*
X47866134Y-10883865D01*
X47832759Y-10833916D01*
X47824000Y-10789876D01*
X47824000Y-10560123D01*
X47832759Y-10516083D01*
X47866134Y-10466134D01*
X47916083Y-10432759D01*
X47960124Y-10424000D01*
X49264876Y-10424000D01*
X49308916Y-10432759D01*
G37*
G36*
X42797946Y-7450557D02*
G01*
X42893842Y-7463182D01*
X43017345Y-7514339D01*
X43027878Y-7518702D01*
X43067976Y-7549471D01*
X43142978Y-7607021D01*
X43202047Y-7684002D01*
X43231298Y-7722123D01*
X43286818Y-7856160D01*
X43305755Y-8000000D01*
X43286818Y-8143840D01*
X43231298Y-8277878D01*
X43142978Y-8392978D01*
X43027878Y-8481298D01*
X42893840Y-8536818D01*
X42750000Y-8555755D01*
X42606160Y-8536818D01*
X42606157Y-8536817D01*
X42544882Y-8511436D01*
X42472122Y-8481298D01*
X42380180Y-8410748D01*
X42357021Y-8392978D01*
X42297952Y-8315997D01*
X42268702Y-8277878D01*
X42268414Y-8277182D01*
X42213182Y-8143842D01*
X42194245Y-8000000D01*
X42213182Y-7856157D01*
X42268701Y-7722123D01*
X42357021Y-7607021D01*
X42472123Y-7518701D01*
X42606157Y-7463182D01*
X42749999Y-7444245D01*
X42750000Y-7444245D01*
X42797946Y-7450557D01*
G37*
G36*
X48797946Y-7450557D02*
G01*
X48893842Y-7463182D01*
X49017345Y-7514339D01*
X49027878Y-7518702D01*
X49067976Y-7549471D01*
X49142978Y-7607021D01*
X49202047Y-7684002D01*
X49231298Y-7722123D01*
X49286818Y-7856160D01*
X49305755Y-8000000D01*
X49286818Y-8143840D01*
X49231298Y-8277878D01*
X49142978Y-8392978D01*
X49027878Y-8481298D01*
X48893840Y-8536818D01*
X48750000Y-8555755D01*
X48606160Y-8536818D01*
X48606157Y-8536817D01*
X48544882Y-8511436D01*
X48472122Y-8481298D01*
X48380180Y-8410748D01*
X48357021Y-8392978D01*
X48297952Y-8315997D01*
X48268702Y-8277878D01*
X48268414Y-8277182D01*
X48213182Y-8143842D01*
X48194245Y-8000000D01*
X48213182Y-7856157D01*
X48268701Y-7722123D01*
X48357021Y-7607021D01*
X48472123Y-7518701D01*
X48606157Y-7463182D01*
X48749999Y-7444245D01*
X48750000Y-7444245D01*
X48797946Y-7450557D01*
G37*
G36*
X67612620Y-7507920D02*
G01*
X67689303Y-7526821D01*
X67766544Y-7567360D01*
X67829163Y-7600225D01*
X67829164Y-7600226D01*
X67829166Y-7600227D01*
X67923720Y-7683995D01*
X67947398Y-7704972D01*
X67959236Y-7722123D01*
X68037126Y-7834965D01*
X68037126Y-7834966D01*
X68093138Y-7982656D01*
X68108178Y-8106528D01*
X68112177Y-8139460D01*
X68093138Y-8296264D01*
X68037126Y-8443955D01*
X67947397Y-8573949D01*
X67829166Y-8678693D01*
X67689303Y-8752099D01*
X67561258Y-8783659D01*
X67535939Y-8789900D01*
X67535938Y-8789900D01*
X67377982Y-8789900D01*
X67377981Y-8789900D01*
X67347654Y-8782425D01*
X67224617Y-8752099D01*
X67084754Y-8678693D01*
X66966523Y-8573949D01*
X66966522Y-8573948D01*
X66966521Y-8573947D01*
X66876793Y-8443953D01*
X66820781Y-8296263D01*
X66801742Y-8139460D01*
X66820781Y-7982656D01*
X66876793Y-7834966D01*
X66966521Y-7704972D01*
X67084756Y-7600225D01*
X67224617Y-7526821D01*
X67377981Y-7489020D01*
X67535939Y-7489020D01*
X67612620Y-7507920D01*
G37*
G36*
X39682203Y-7475879D02*
G01*
X39701091Y-7484218D01*
X39722935Y-7488564D01*
X39746321Y-7504189D01*
X39769307Y-7514339D01*
X39785004Y-7530036D01*
X39805961Y-7544039D01*
X39819963Y-7564995D01*
X39835660Y-7580692D01*
X39845808Y-7603676D01*
X39861436Y-7627065D01*
X39865780Y-7648908D01*
X39874119Y-7667793D01*
X39875999Y-7684002D01*
X39875999Y-7700281D01*
X39875999Y-7700282D01*
X39876000Y-8299719D01*
X39875999Y-8299724D01*
X39875999Y-8316004D01*
X39874120Y-8332203D01*
X39865781Y-8351086D01*
X39861436Y-8372935D01*
X39845807Y-8396325D01*
X39835660Y-8419307D01*
X39819965Y-8435001D01*
X39805961Y-8455961D01*
X39785001Y-8469965D01*
X39769307Y-8485660D01*
X39746325Y-8495807D01*
X39722935Y-8511436D01*
X39701089Y-8515781D01*
X39682206Y-8524119D01*
X39665997Y-8525999D01*
X39649718Y-8525999D01*
X39200281Y-8526000D01*
X39200276Y-8525999D01*
X39183995Y-8525999D01*
X39167796Y-8524120D01*
X39148911Y-8515781D01*
X39127065Y-8511436D01*
X39103676Y-8495808D01*
X39080692Y-8485660D01*
X39064995Y-8469963D01*
X39044039Y-8455961D01*
X39030036Y-8435004D01*
X39014339Y-8419307D01*
X39004189Y-8396320D01*
X38988564Y-8372935D01*
X38984219Y-8351093D01*
X38975880Y-8332206D01*
X38974000Y-8315997D01*
X38974000Y-7683995D01*
X38975879Y-7667796D01*
X38984219Y-7648907D01*
X38988564Y-7627065D01*
X39004188Y-7603680D01*
X39014339Y-7580692D01*
X39030038Y-7564992D01*
X39044039Y-7544039D01*
X39064992Y-7530038D01*
X39080692Y-7514339D01*
X39103681Y-7504188D01*
X39127065Y-7488564D01*
X39148904Y-7484220D01*
X39167793Y-7475880D01*
X39184002Y-7474000D01*
X39666004Y-7474000D01*
X39682203Y-7475879D01*
G37*
G36*
X41332203Y-7475879D02*
G01*
X41351091Y-7484218D01*
X41372935Y-7488564D01*
X41396321Y-7504189D01*
X41419307Y-7514339D01*
X41435004Y-7530036D01*
X41455961Y-7544039D01*
X41469963Y-7564995D01*
X41485660Y-7580692D01*
X41495808Y-7603676D01*
X41511436Y-7627065D01*
X41515780Y-7648908D01*
X41524119Y-7667793D01*
X41525999Y-7684002D01*
X41525999Y-7700281D01*
X41525999Y-7700282D01*
X41526000Y-8299719D01*
X41525999Y-8299724D01*
X41525999Y-8316004D01*
X41524120Y-8332203D01*
X41515781Y-8351086D01*
X41511436Y-8372935D01*
X41495807Y-8396325D01*
X41485660Y-8419307D01*
X41469965Y-8435001D01*
X41455961Y-8455961D01*
X41435001Y-8469965D01*
X41419307Y-8485660D01*
X41396325Y-8495807D01*
X41372935Y-8511436D01*
X41351089Y-8515781D01*
X41332206Y-8524119D01*
X41315997Y-8525999D01*
X41299718Y-8525999D01*
X40850281Y-8526000D01*
X40850276Y-8525999D01*
X40833995Y-8525999D01*
X40817796Y-8524120D01*
X40798911Y-8515781D01*
X40777065Y-8511436D01*
X40753676Y-8495808D01*
X40730692Y-8485660D01*
X40714995Y-8469963D01*
X40694039Y-8455961D01*
X40680036Y-8435004D01*
X40664339Y-8419307D01*
X40654189Y-8396320D01*
X40638564Y-8372935D01*
X40634219Y-8351093D01*
X40625880Y-8332206D01*
X40624000Y-8315997D01*
X40624000Y-7683995D01*
X40625879Y-7667796D01*
X40634219Y-7648907D01*
X40638564Y-7627065D01*
X40654188Y-7603680D01*
X40664339Y-7580692D01*
X40680038Y-7564992D01*
X40694039Y-7544039D01*
X40714992Y-7530038D01*
X40730692Y-7514339D01*
X40753681Y-7504188D01*
X40777065Y-7488564D01*
X40798904Y-7484220D01*
X40817793Y-7475880D01*
X40834002Y-7474000D01*
X41316004Y-7474000D01*
X41332203Y-7475879D01*
G37*
G36*
X45271755Y-7478927D02*
G01*
X45286486Y-7485796D01*
X45307690Y-7490014D01*
X45335776Y-7508780D01*
X45360748Y-7520425D01*
X45375939Y-7535616D01*
X45398985Y-7551015D01*
X45414383Y-7574060D01*
X45429574Y-7589251D01*
X45441217Y-7614221D01*
X45459986Y-7642310D01*
X45464203Y-7663514D01*
X45471072Y-7678244D01*
X45476000Y-7715673D01*
X45476000Y-8284326D01*
X45471072Y-8321755D01*
X45464204Y-8336482D01*
X45459986Y-8357690D01*
X45441216Y-8385781D01*
X45429574Y-8410748D01*
X45414385Y-8425936D01*
X45398985Y-8448985D01*
X45375936Y-8464385D01*
X45360748Y-8479574D01*
X45335781Y-8491216D01*
X45307690Y-8509986D01*
X45286483Y-8514203D01*
X45271755Y-8521072D01*
X45234327Y-8526000D01*
X44722817Y-8526000D01*
X44715673Y-8526000D01*
X44678244Y-8521072D01*
X44663515Y-8514204D01*
X44642310Y-8509986D01*
X44614221Y-8491217D01*
X44589251Y-8479574D01*
X44574060Y-8464383D01*
X44551015Y-8448985D01*
X44535616Y-8425939D01*
X44520425Y-8410748D01*
X44508780Y-8385776D01*
X44490014Y-8357690D01*
X44485796Y-8336487D01*
X44478927Y-8321755D01*
X44474000Y-8284326D01*
X44474000Y-7715673D01*
X44478927Y-7678244D01*
X44485796Y-7663512D01*
X44490014Y-7642310D01*
X44508778Y-7614226D01*
X44520425Y-7589251D01*
X44535618Y-7574057D01*
X44551015Y-7551015D01*
X44574057Y-7535618D01*
X44589251Y-7520425D01*
X44614226Y-7508778D01*
X44642310Y-7490014D01*
X44663510Y-7485797D01*
X44678244Y-7478927D01*
X44715673Y-7474000D01*
X45234327Y-7474000D01*
X45271755Y-7478927D01*
G37*
G36*
X46821755Y-7478927D02*
G01*
X46836486Y-7485796D01*
X46857690Y-7490014D01*
X46885776Y-7508780D01*
X46910748Y-7520425D01*
X46925939Y-7535616D01*
X46948985Y-7551015D01*
X46964383Y-7574060D01*
X46979574Y-7589251D01*
X46991217Y-7614221D01*
X47009986Y-7642310D01*
X47014203Y-7663514D01*
X47021072Y-7678244D01*
X47026000Y-7715673D01*
X47026000Y-8284326D01*
X47021072Y-8321755D01*
X47014204Y-8336482D01*
X47009986Y-8357690D01*
X46991216Y-8385781D01*
X46979574Y-8410748D01*
X46964385Y-8425936D01*
X46948985Y-8448985D01*
X46925936Y-8464385D01*
X46910748Y-8479574D01*
X46885781Y-8491216D01*
X46857690Y-8509986D01*
X46836483Y-8514203D01*
X46821755Y-8521072D01*
X46784327Y-8526000D01*
X46272817Y-8526000D01*
X46265673Y-8526000D01*
X46228244Y-8521072D01*
X46213515Y-8514204D01*
X46192310Y-8509986D01*
X46164221Y-8491217D01*
X46139251Y-8479574D01*
X46124060Y-8464383D01*
X46101015Y-8448985D01*
X46085616Y-8425939D01*
X46070425Y-8410748D01*
X46058780Y-8385776D01*
X46040014Y-8357690D01*
X46035796Y-8336487D01*
X46028927Y-8321755D01*
X46024000Y-8284326D01*
X46024000Y-7715673D01*
X46028927Y-7678244D01*
X46035796Y-7663512D01*
X46040014Y-7642310D01*
X46058778Y-7614226D01*
X46070425Y-7589251D01*
X46085618Y-7574057D01*
X46101015Y-7551015D01*
X46124057Y-7535618D01*
X46139251Y-7520425D01*
X46164226Y-7508778D01*
X46192310Y-7490014D01*
X46213510Y-7485797D01*
X46228244Y-7478927D01*
X46265673Y-7474000D01*
X46784327Y-7474000D01*
X46821755Y-7478927D01*
G37*
G36*
X61841604Y-468184D02*
G01*
X62178911Y-525495D01*
X62507681Y-620212D01*
X62823779Y-751144D01*
X63123230Y-916644D01*
X63402267Y-1114632D01*
X63657383Y-1342617D01*
X63885368Y-1597733D01*
X64083356Y-1876770D01*
X64248856Y-2176221D01*
X64379788Y-2492319D01*
X64474505Y-2821089D01*
X64531816Y-3158396D01*
X64551000Y-3500000D01*
X64531816Y-3841604D01*
X64474505Y-4178911D01*
X64379788Y-4507681D01*
X64248856Y-4823779D01*
X64083356Y-5123230D01*
X63885368Y-5402267D01*
X63657383Y-5657383D01*
X63402267Y-5885368D01*
X63123230Y-6083356D01*
X62823779Y-6248856D01*
X62507681Y-6379788D01*
X62178911Y-6474505D01*
X61841604Y-6531816D01*
X61500000Y-6551000D01*
X61158396Y-6531816D01*
X60821089Y-6474505D01*
X60492319Y-6379788D01*
X60176221Y-6248856D01*
X59876770Y-6083356D01*
X59597733Y-5885368D01*
X59342617Y-5657383D01*
X59114632Y-5402267D01*
X58916644Y-5123230D01*
X58751144Y-4823779D01*
X58620212Y-4507681D01*
X58525495Y-4178911D01*
X58468184Y-3841604D01*
X58449000Y-3500000D01*
X58468184Y-3158396D01*
X58525495Y-2821089D01*
X58620212Y-2492319D01*
X58751144Y-2176221D01*
X58916644Y-1876770D01*
X59114632Y-1597733D01*
X59342617Y-1342617D01*
X59597733Y-1114632D01*
X59876770Y-916644D01*
X60176221Y-751144D01*
X60492319Y-620212D01*
X60821089Y-525495D01*
X61158396Y-468184D01*
X61500000Y-449000D01*
X61841604Y-468184D01*
G37*
G36*
X73393601Y-5593807D02*
G01*
X73613437Y-5652711D01*
X73819701Y-5748894D01*
X74006135Y-5879436D01*
X74167063Y-6040364D01*
X74167064Y-6040366D01*
X74297604Y-6226796D01*
X74393788Y-6433062D01*
X74452692Y-6652897D01*
X74472528Y-6879620D01*
X74452692Y-7106343D01*
X74393788Y-7326178D01*
X74297604Y-7532444D01*
X74167064Y-7718874D01*
X74006134Y-7879804D01*
X73819704Y-8010344D01*
X73613438Y-8106528D01*
X73393603Y-8165432D01*
X73166880Y-8185268D01*
X73166879Y-8185267D01*
X73166879Y-8185268D01*
X73053518Y-8175349D01*
X72940157Y-8165432D01*
X72720322Y-8106528D01*
X72514056Y-8010344D01*
X72420841Y-7945073D01*
X72327624Y-7879803D01*
X72166696Y-7718875D01*
X72036154Y-7532441D01*
X71939971Y-7326177D01*
X71881067Y-7106341D01*
X71861231Y-6879620D01*
X71881067Y-6652898D01*
X71939971Y-6433062D01*
X72036154Y-6226798D01*
X72166696Y-6040364D01*
X72327624Y-5879436D01*
X72514058Y-5748894D01*
X72720322Y-5652711D01*
X72940158Y-5593807D01*
X73166880Y-5573971D01*
X73393601Y-5593807D01*
G37*
G36*
X3841604Y-468184D02*
G01*
X4178911Y-525495D01*
X4507681Y-620212D01*
X4823779Y-751144D01*
X5123230Y-916644D01*
X5402267Y-1114632D01*
X5657383Y-1342617D01*
X5885368Y-1597733D01*
X6083356Y-1876770D01*
X6248856Y-2176221D01*
X6379788Y-2492319D01*
X6474505Y-2821089D01*
X6531816Y-3158396D01*
X6551000Y-3500000D01*
X6531816Y-3841604D01*
X6474505Y-4178911D01*
X6379788Y-4507681D01*
X6248856Y-4823779D01*
X6083356Y-5123230D01*
X5885368Y-5402267D01*
X5657383Y-5657383D01*
X5402267Y-5885368D01*
X5123230Y-6083356D01*
X4823779Y-6248856D01*
X4507681Y-6379788D01*
X4178911Y-6474505D01*
X3841604Y-6531816D01*
X3500000Y-6551000D01*
X3158396Y-6531816D01*
X2821089Y-6474505D01*
X2492319Y-6379788D01*
X2176221Y-6248856D01*
X1876770Y-6083356D01*
X1597733Y-5885368D01*
X1342617Y-5657383D01*
X1114632Y-5402267D01*
X916644Y-5123230D01*
X751144Y-4823779D01*
X620212Y-4507681D01*
X525495Y-4178911D01*
X468184Y-3841604D01*
X449000Y-3500000D01*
X468184Y-3158396D01*
X525495Y-2821089D01*
X620212Y-2492319D01*
X751144Y-2176221D01*
X916644Y-1876770D01*
X1114632Y-1597733D01*
X1342617Y-1342617D01*
X1597733Y-1114632D01*
X1876770Y-916644D01*
X2176221Y-751144D01*
X2492319Y-620212D01*
X2821089Y-525495D01*
X3158396Y-468184D01*
X3500000Y-449000D01*
X3841604Y-468184D01*
G37*
G36*
X8410817Y-3973599D02*
G01*
X8453705Y-3973599D01*
X8502086Y-3983882D01*
X8548239Y-3989083D01*
X8581799Y-4000826D01*
X8617455Y-4008405D01*
X8668838Y-4031282D01*
X8717541Y-4048324D01*
X8742891Y-4064252D01*
X8770397Y-4076499D01*
X8821683Y-4113761D01*
X8869415Y-4143753D01*
X8886557Y-4160895D01*
X8905830Y-4174898D01*
X8953477Y-4227815D01*
X8996247Y-4270585D01*
X9006084Y-4286240D01*
X9017851Y-4299309D01*
X9058106Y-4369032D01*
X9091676Y-4422459D01*
X9095867Y-4434437D01*
X9101554Y-4444287D01*
X9130683Y-4533935D01*
X9150917Y-4591761D01*
X9151684Y-4598568D01*
X9153289Y-4603508D01*
X9167845Y-4742007D01*
X9171000Y-4770000D01*
X9167843Y-4798017D01*
X9153289Y-4936491D01*
X9151684Y-4941429D01*
X9150917Y-4948239D01*
X9130678Y-5006077D01*
X9101554Y-5095712D01*
X9095868Y-5105559D01*
X9091676Y-5117541D01*
X9058098Y-5170978D01*
X9017851Y-5240690D01*
X9006086Y-5253756D01*
X8996247Y-5269415D01*
X8953468Y-5312193D01*
X8905830Y-5365101D01*
X8886561Y-5379100D01*
X8869415Y-5396247D01*
X8821673Y-5426245D01*
X8770397Y-5463500D01*
X8742896Y-5475743D01*
X8717541Y-5491676D01*
X8668828Y-5508721D01*
X8617455Y-5531594D01*
X8581804Y-5539171D01*
X8548239Y-5550917D01*
X8502083Y-5556117D01*
X8453705Y-5566401D01*
X8410817Y-5566401D01*
X8370000Y-5571000D01*
X8329183Y-5566401D01*
X8286295Y-5566401D01*
X8237915Y-5556117D01*
X8191761Y-5550917D01*
X8158196Y-5539172D01*
X8122544Y-5531594D01*
X8071167Y-5508719D01*
X8022459Y-5491676D01*
X7997105Y-5475745D01*
X7969602Y-5463500D01*
X7918319Y-5426240D01*
X7870585Y-5396247D01*
X7853441Y-5379103D01*
X7834169Y-5365101D01*
X7786521Y-5312183D01*
X7743753Y-5269415D01*
X7733916Y-5253759D01*
X7722148Y-5240690D01*
X7681888Y-5170958D01*
X7648324Y-5117541D01*
X7644133Y-5105564D01*
X7638445Y-5095712D01*
X7609307Y-5006037D01*
X7589083Y-4948239D01*
X7588316Y-4941434D01*
X7586710Y-4936491D01*
X7572141Y-4797885D01*
X7569000Y-4770000D01*
X7572139Y-4742139D01*
X7586710Y-4603508D01*
X7588316Y-4598563D01*
X7589083Y-4591761D01*
X7609302Y-4533975D01*
X7638445Y-4444287D01*
X7644134Y-4434433D01*
X7648324Y-4422459D01*
X7681881Y-4369052D01*
X7722148Y-4299309D01*
X7733918Y-4286236D01*
X7743753Y-4270585D01*
X7786512Y-4227825D01*
X7834169Y-4174898D01*
X7853444Y-4160893D01*
X7870585Y-4143753D01*
X7918314Y-4113762D01*
X7969603Y-4076499D01*
X7997109Y-4064252D01*
X8022459Y-4048324D01*
X8071158Y-4031283D01*
X8122544Y-4008405D01*
X8158202Y-4000825D01*
X8191761Y-3989083D01*
X8237912Y-3983882D01*
X8286295Y-3973599D01*
X8329183Y-3973599D01*
X8370000Y-3969000D01*
X8410817Y-3973599D01*
G37*
G36*
X10950817Y-3973599D02*
G01*
X10993705Y-3973599D01*
X11042086Y-3983882D01*
X11088239Y-3989083D01*
X11121799Y-4000826D01*
X11157455Y-4008405D01*
X11208838Y-4031282D01*
X11257541Y-4048324D01*
X11282891Y-4064252D01*
X11310397Y-4076499D01*
X11361683Y-4113761D01*
X11409415Y-4143753D01*
X11426557Y-4160895D01*
X11445830Y-4174898D01*
X11493477Y-4227815D01*
X11536247Y-4270585D01*
X11546084Y-4286240D01*
X11557851Y-4299309D01*
X11598106Y-4369032D01*
X11631676Y-4422459D01*
X11635867Y-4434437D01*
X11641554Y-4444287D01*
X11670683Y-4533935D01*
X11690917Y-4591761D01*
X11691684Y-4598568D01*
X11693289Y-4603508D01*
X11707845Y-4742007D01*
X11711000Y-4770000D01*
X11707843Y-4798017D01*
X11693289Y-4936491D01*
X11691684Y-4941429D01*
X11690917Y-4948239D01*
X11670678Y-5006077D01*
X11641554Y-5095712D01*
X11635868Y-5105559D01*
X11631676Y-5117541D01*
X11598098Y-5170978D01*
X11557851Y-5240690D01*
X11546086Y-5253756D01*
X11536247Y-5269415D01*
X11493468Y-5312193D01*
X11445830Y-5365101D01*
X11426561Y-5379100D01*
X11409415Y-5396247D01*
X11361673Y-5426245D01*
X11310397Y-5463500D01*
X11282896Y-5475743D01*
X11257541Y-5491676D01*
X11208828Y-5508721D01*
X11157455Y-5531594D01*
X11121804Y-5539171D01*
X11088239Y-5550917D01*
X11042083Y-5556117D01*
X10993705Y-5566401D01*
X10950817Y-5566401D01*
X10910000Y-5571000D01*
X10869183Y-5566401D01*
X10826295Y-5566401D01*
X10777915Y-5556117D01*
X10731761Y-5550917D01*
X10698196Y-5539172D01*
X10662544Y-5531594D01*
X10611167Y-5508719D01*
X10562459Y-5491676D01*
X10537105Y-5475745D01*
X10509602Y-5463500D01*
X10458319Y-5426240D01*
X10410585Y-5396247D01*
X10393441Y-5379103D01*
X10374169Y-5365101D01*
X10326521Y-5312183D01*
X10283753Y-5269415D01*
X10273916Y-5253759D01*
X10262148Y-5240690D01*
X10221888Y-5170958D01*
X10188324Y-5117541D01*
X10184133Y-5105564D01*
X10178445Y-5095712D01*
X10149307Y-5006037D01*
X10129083Y-4948239D01*
X10128316Y-4941434D01*
X10126710Y-4936491D01*
X10112141Y-4797885D01*
X10109000Y-4770000D01*
X10112139Y-4742139D01*
X10126710Y-4603508D01*
X10128316Y-4598563D01*
X10129083Y-4591761D01*
X10149302Y-4533975D01*
X10178445Y-4444287D01*
X10184134Y-4434433D01*
X10188324Y-4422459D01*
X10221881Y-4369052D01*
X10262148Y-4299309D01*
X10273918Y-4286236D01*
X10283753Y-4270585D01*
X10326512Y-4227825D01*
X10374169Y-4174898D01*
X10393444Y-4160893D01*
X10410585Y-4143753D01*
X10458314Y-4113762D01*
X10509603Y-4076499D01*
X10537109Y-4064252D01*
X10562459Y-4048324D01*
X10611158Y-4031283D01*
X10662544Y-4008405D01*
X10698202Y-4000825D01*
X10731761Y-3989083D01*
X10777912Y-3983882D01*
X10826295Y-3973599D01*
X10869183Y-3973599D01*
X10910000Y-3969000D01*
X10950817Y-3973599D01*
G37*
G36*
X13490817Y-3973599D02*
G01*
X13533705Y-3973599D01*
X13582086Y-3983882D01*
X13628239Y-3989083D01*
X13661799Y-4000826D01*
X13697455Y-4008405D01*
X13748838Y-4031282D01*
X13797541Y-4048324D01*
X13822891Y-4064252D01*
X13850397Y-4076499D01*
X13901683Y-4113761D01*
X13949415Y-4143753D01*
X13966557Y-4160895D01*
X13985830Y-4174898D01*
X14033477Y-4227815D01*
X14076247Y-4270585D01*
X14086084Y-4286240D01*
X14097851Y-4299309D01*
X14138106Y-4369032D01*
X14171676Y-4422459D01*
X14175867Y-4434437D01*
X14181554Y-4444287D01*
X14210683Y-4533935D01*
X14230917Y-4591761D01*
X14231684Y-4598568D01*
X14233289Y-4603508D01*
X14247845Y-4742007D01*
X14251000Y-4770000D01*
X14247843Y-4798017D01*
X14233289Y-4936491D01*
X14231684Y-4941429D01*
X14230917Y-4948239D01*
X14210678Y-5006077D01*
X14181554Y-5095712D01*
X14175868Y-5105559D01*
X14171676Y-5117541D01*
X14138098Y-5170978D01*
X14097851Y-5240690D01*
X14086086Y-5253756D01*
X14076247Y-5269415D01*
X14033468Y-5312193D01*
X13985830Y-5365101D01*
X13966561Y-5379100D01*
X13949415Y-5396247D01*
X13901673Y-5426245D01*
X13850397Y-5463500D01*
X13822896Y-5475743D01*
X13797541Y-5491676D01*
X13748828Y-5508721D01*
X13697455Y-5531594D01*
X13661804Y-5539171D01*
X13628239Y-5550917D01*
X13582083Y-5556117D01*
X13533705Y-5566401D01*
X13490817Y-5566401D01*
X13450000Y-5571000D01*
X13409183Y-5566401D01*
X13366295Y-5566401D01*
X13317915Y-5556117D01*
X13271761Y-5550917D01*
X13238196Y-5539172D01*
X13202544Y-5531594D01*
X13151167Y-5508719D01*
X13102459Y-5491676D01*
X13077105Y-5475745D01*
X13049602Y-5463500D01*
X12998319Y-5426240D01*
X12950585Y-5396247D01*
X12933441Y-5379103D01*
X12914169Y-5365101D01*
X12866521Y-5312183D01*
X12823753Y-5269415D01*
X12813916Y-5253759D01*
X12802148Y-5240690D01*
X12761888Y-5170958D01*
X12728324Y-5117541D01*
X12724133Y-5105564D01*
X12718445Y-5095712D01*
X12689307Y-5006037D01*
X12669083Y-4948239D01*
X12668316Y-4941434D01*
X12666710Y-4936491D01*
X12652141Y-4797885D01*
X12649000Y-4770000D01*
X12652139Y-4742139D01*
X12666710Y-4603508D01*
X12668316Y-4598563D01*
X12669083Y-4591761D01*
X12689302Y-4533975D01*
X12718445Y-4444287D01*
X12724134Y-4434433D01*
X12728324Y-4422459D01*
X12761881Y-4369052D01*
X12802148Y-4299309D01*
X12813918Y-4286236D01*
X12823753Y-4270585D01*
X12866512Y-4227825D01*
X12914169Y-4174898D01*
X12933444Y-4160893D01*
X12950585Y-4143753D01*
X12998314Y-4113762D01*
X13049603Y-4076499D01*
X13077109Y-4064252D01*
X13102459Y-4048324D01*
X13151158Y-4031283D01*
X13202544Y-4008405D01*
X13238202Y-4000825D01*
X13271761Y-3989083D01*
X13317912Y-3983882D01*
X13366295Y-3973599D01*
X13409183Y-3973599D01*
X13450000Y-3969000D01*
X13490817Y-3973599D01*
G37*
G36*
X16030817Y-3973599D02*
G01*
X16073705Y-3973599D01*
X16122086Y-3983882D01*
X16168239Y-3989083D01*
X16201799Y-4000826D01*
X16237455Y-4008405D01*
X16288838Y-4031282D01*
X16337541Y-4048324D01*
X16362891Y-4064252D01*
X16390397Y-4076499D01*
X16441683Y-4113761D01*
X16489415Y-4143753D01*
X16506557Y-4160895D01*
X16525830Y-4174898D01*
X16573477Y-4227815D01*
X16616247Y-4270585D01*
X16626084Y-4286240D01*
X16637851Y-4299309D01*
X16678106Y-4369032D01*
X16711676Y-4422459D01*
X16715867Y-4434437D01*
X16721554Y-4444287D01*
X16750683Y-4533935D01*
X16770917Y-4591761D01*
X16771684Y-4598568D01*
X16773289Y-4603508D01*
X16787845Y-4742007D01*
X16791000Y-4770000D01*
X16787843Y-4798017D01*
X16773289Y-4936491D01*
X16771684Y-4941429D01*
X16770917Y-4948239D01*
X16750678Y-5006077D01*
X16721554Y-5095712D01*
X16715868Y-5105559D01*
X16711676Y-5117541D01*
X16678098Y-5170978D01*
X16637851Y-5240690D01*
X16626086Y-5253756D01*
X16616247Y-5269415D01*
X16573468Y-5312193D01*
X16525830Y-5365101D01*
X16506561Y-5379100D01*
X16489415Y-5396247D01*
X16441673Y-5426245D01*
X16390397Y-5463500D01*
X16362896Y-5475743D01*
X16337541Y-5491676D01*
X16288828Y-5508721D01*
X16237455Y-5531594D01*
X16201804Y-5539171D01*
X16168239Y-5550917D01*
X16122083Y-5556117D01*
X16073705Y-5566401D01*
X16030817Y-5566401D01*
X15990000Y-5571000D01*
X15949183Y-5566401D01*
X15906295Y-5566401D01*
X15857915Y-5556117D01*
X15811761Y-5550917D01*
X15778196Y-5539172D01*
X15742544Y-5531594D01*
X15691167Y-5508719D01*
X15642459Y-5491676D01*
X15617105Y-5475745D01*
X15589602Y-5463500D01*
X15538319Y-5426240D01*
X15490585Y-5396247D01*
X15473441Y-5379103D01*
X15454169Y-5365101D01*
X15406521Y-5312183D01*
X15363753Y-5269415D01*
X15353916Y-5253759D01*
X15342148Y-5240690D01*
X15301888Y-5170958D01*
X15268324Y-5117541D01*
X15264133Y-5105564D01*
X15258445Y-5095712D01*
X15229307Y-5006037D01*
X15209083Y-4948239D01*
X15208316Y-4941434D01*
X15206710Y-4936491D01*
X15192141Y-4797885D01*
X15189000Y-4770000D01*
X15192139Y-4742139D01*
X15206710Y-4603508D01*
X15208316Y-4598563D01*
X15209083Y-4591761D01*
X15229302Y-4533975D01*
X15258445Y-4444287D01*
X15264134Y-4434433D01*
X15268324Y-4422459D01*
X15301881Y-4369052D01*
X15342148Y-4299309D01*
X15353918Y-4286236D01*
X15363753Y-4270585D01*
X15406512Y-4227825D01*
X15454169Y-4174898D01*
X15473444Y-4160893D01*
X15490585Y-4143753D01*
X15538314Y-4113762D01*
X15589603Y-4076499D01*
X15617109Y-4064252D01*
X15642459Y-4048324D01*
X15691158Y-4031283D01*
X15742544Y-4008405D01*
X15778202Y-4000825D01*
X15811761Y-3989083D01*
X15857912Y-3983882D01*
X15906295Y-3973599D01*
X15949183Y-3973599D01*
X15990000Y-3969000D01*
X16030817Y-3973599D01*
G37*
G36*
X18570817Y-3973599D02*
G01*
X18613705Y-3973599D01*
X18662086Y-3983882D01*
X18708239Y-3989083D01*
X18741799Y-4000826D01*
X18777455Y-4008405D01*
X18828838Y-4031282D01*
X18877541Y-4048324D01*
X18902891Y-4064252D01*
X18930397Y-4076499D01*
X18981683Y-4113761D01*
X19029415Y-4143753D01*
X19046557Y-4160895D01*
X19065830Y-4174898D01*
X19113477Y-4227815D01*
X19156247Y-4270585D01*
X19166084Y-4286240D01*
X19177851Y-4299309D01*
X19218106Y-4369032D01*
X19251676Y-4422459D01*
X19255867Y-4434437D01*
X19261554Y-4444287D01*
X19290683Y-4533935D01*
X19310917Y-4591761D01*
X19311684Y-4598568D01*
X19313289Y-4603508D01*
X19327845Y-4742007D01*
X19331000Y-4770000D01*
X19327843Y-4798017D01*
X19313289Y-4936491D01*
X19311684Y-4941429D01*
X19310917Y-4948239D01*
X19290678Y-5006077D01*
X19261554Y-5095712D01*
X19255868Y-5105559D01*
X19251676Y-5117541D01*
X19218098Y-5170978D01*
X19177851Y-5240690D01*
X19166086Y-5253756D01*
X19156247Y-5269415D01*
X19113468Y-5312193D01*
X19065830Y-5365101D01*
X19046561Y-5379100D01*
X19029415Y-5396247D01*
X18981673Y-5426245D01*
X18930397Y-5463500D01*
X18902896Y-5475743D01*
X18877541Y-5491676D01*
X18828828Y-5508721D01*
X18777455Y-5531594D01*
X18741804Y-5539171D01*
X18708239Y-5550917D01*
X18662083Y-5556117D01*
X18613705Y-5566401D01*
X18570817Y-5566401D01*
X18530000Y-5571000D01*
X18489183Y-5566401D01*
X18446295Y-5566401D01*
X18397915Y-5556117D01*
X18351761Y-5550917D01*
X18318196Y-5539172D01*
X18282544Y-5531594D01*
X18231167Y-5508719D01*
X18182459Y-5491676D01*
X18157105Y-5475745D01*
X18129602Y-5463500D01*
X18078319Y-5426240D01*
X18030585Y-5396247D01*
X18013441Y-5379103D01*
X17994169Y-5365101D01*
X17946521Y-5312183D01*
X17903753Y-5269415D01*
X17893916Y-5253759D01*
X17882148Y-5240690D01*
X17841888Y-5170958D01*
X17808324Y-5117541D01*
X17804133Y-5105564D01*
X17798445Y-5095712D01*
X17769307Y-5006037D01*
X17749083Y-4948239D01*
X17748316Y-4941434D01*
X17746710Y-4936491D01*
X17732141Y-4797885D01*
X17729000Y-4770000D01*
X17732139Y-4742139D01*
X17746710Y-4603508D01*
X17748316Y-4598563D01*
X17749083Y-4591761D01*
X17769302Y-4533975D01*
X17798445Y-4444287D01*
X17804134Y-4434433D01*
X17808324Y-4422459D01*
X17841881Y-4369052D01*
X17882148Y-4299309D01*
X17893918Y-4286236D01*
X17903753Y-4270585D01*
X17946512Y-4227825D01*
X17994169Y-4174898D01*
X18013444Y-4160893D01*
X18030585Y-4143753D01*
X18078314Y-4113762D01*
X18129603Y-4076499D01*
X18157109Y-4064252D01*
X18182459Y-4048324D01*
X18231158Y-4031283D01*
X18282544Y-4008405D01*
X18318202Y-4000825D01*
X18351761Y-3989083D01*
X18397912Y-3983882D01*
X18446295Y-3973599D01*
X18489183Y-3973599D01*
X18530000Y-3969000D01*
X18570817Y-3973599D01*
G37*
G36*
X21110817Y-3973599D02*
G01*
X21153705Y-3973599D01*
X21202086Y-3983882D01*
X21248239Y-3989083D01*
X21281799Y-4000826D01*
X21317455Y-4008405D01*
X21368838Y-4031282D01*
X21417541Y-4048324D01*
X21442891Y-4064252D01*
X21470397Y-4076499D01*
X21521683Y-4113761D01*
X21569415Y-4143753D01*
X21586557Y-4160895D01*
X21605830Y-4174898D01*
X21653477Y-4227815D01*
X21696247Y-4270585D01*
X21706084Y-4286240D01*
X21717851Y-4299309D01*
X21758106Y-4369032D01*
X21791676Y-4422459D01*
X21795867Y-4434437D01*
X21801554Y-4444287D01*
X21830683Y-4533935D01*
X21850917Y-4591761D01*
X21851684Y-4598568D01*
X21853289Y-4603508D01*
X21867845Y-4742007D01*
X21871000Y-4770000D01*
X21867843Y-4798017D01*
X21853289Y-4936491D01*
X21851684Y-4941429D01*
X21850917Y-4948239D01*
X21830678Y-5006077D01*
X21801554Y-5095712D01*
X21795868Y-5105559D01*
X21791676Y-5117541D01*
X21758098Y-5170978D01*
X21717851Y-5240690D01*
X21706086Y-5253756D01*
X21696247Y-5269415D01*
X21653468Y-5312193D01*
X21605830Y-5365101D01*
X21586561Y-5379100D01*
X21569415Y-5396247D01*
X21521673Y-5426245D01*
X21470397Y-5463500D01*
X21442896Y-5475743D01*
X21417541Y-5491676D01*
X21368828Y-5508721D01*
X21317455Y-5531594D01*
X21281804Y-5539171D01*
X21248239Y-5550917D01*
X21202083Y-5556117D01*
X21153705Y-5566401D01*
X21110817Y-5566401D01*
X21070000Y-5571000D01*
X21029183Y-5566401D01*
X20986295Y-5566401D01*
X20937915Y-5556117D01*
X20891761Y-5550917D01*
X20858196Y-5539172D01*
X20822544Y-5531594D01*
X20771167Y-5508719D01*
X20722459Y-5491676D01*
X20697105Y-5475745D01*
X20669602Y-5463500D01*
X20618319Y-5426240D01*
X20570585Y-5396247D01*
X20553441Y-5379103D01*
X20534169Y-5365101D01*
X20486521Y-5312183D01*
X20443753Y-5269415D01*
X20433916Y-5253759D01*
X20422148Y-5240690D01*
X20381888Y-5170958D01*
X20348324Y-5117541D01*
X20344133Y-5105564D01*
X20338445Y-5095712D01*
X20309307Y-5006037D01*
X20289083Y-4948239D01*
X20288316Y-4941434D01*
X20286710Y-4936491D01*
X20272141Y-4797885D01*
X20269000Y-4770000D01*
X20272139Y-4742139D01*
X20286710Y-4603508D01*
X20288316Y-4598563D01*
X20289083Y-4591761D01*
X20309302Y-4533975D01*
X20338445Y-4444287D01*
X20344134Y-4434433D01*
X20348324Y-4422459D01*
X20381881Y-4369052D01*
X20422148Y-4299309D01*
X20433918Y-4286236D01*
X20443753Y-4270585D01*
X20486512Y-4227825D01*
X20534169Y-4174898D01*
X20553444Y-4160893D01*
X20570585Y-4143753D01*
X20618314Y-4113762D01*
X20669603Y-4076499D01*
X20697109Y-4064252D01*
X20722459Y-4048324D01*
X20771158Y-4031283D01*
X20822544Y-4008405D01*
X20858202Y-4000825D01*
X20891761Y-3989083D01*
X20937912Y-3983882D01*
X20986295Y-3973599D01*
X21029183Y-3973599D01*
X21070000Y-3969000D01*
X21110817Y-3973599D01*
G37*
G36*
X23650817Y-3973599D02*
G01*
X23693705Y-3973599D01*
X23742086Y-3983882D01*
X23788239Y-3989083D01*
X23821799Y-4000826D01*
X23857455Y-4008405D01*
X23908838Y-4031282D01*
X23957541Y-4048324D01*
X23982891Y-4064252D01*
X24010397Y-4076499D01*
X24061683Y-4113761D01*
X24109415Y-4143753D01*
X24126557Y-4160895D01*
X24145830Y-4174898D01*
X24193477Y-4227815D01*
X24236247Y-4270585D01*
X24246084Y-4286240D01*
X24257851Y-4299309D01*
X24298106Y-4369032D01*
X24331676Y-4422459D01*
X24335867Y-4434437D01*
X24341554Y-4444287D01*
X24370683Y-4533935D01*
X24390917Y-4591761D01*
X24391684Y-4598568D01*
X24393289Y-4603508D01*
X24407845Y-4742007D01*
X24411000Y-4770000D01*
X24407843Y-4798017D01*
X24393289Y-4936491D01*
X24391684Y-4941429D01*
X24390917Y-4948239D01*
X24370678Y-5006077D01*
X24341554Y-5095712D01*
X24335868Y-5105559D01*
X24331676Y-5117541D01*
X24298098Y-5170978D01*
X24257851Y-5240690D01*
X24246086Y-5253756D01*
X24236247Y-5269415D01*
X24193468Y-5312193D01*
X24145830Y-5365101D01*
X24126561Y-5379100D01*
X24109415Y-5396247D01*
X24061673Y-5426245D01*
X24010397Y-5463500D01*
X23982896Y-5475743D01*
X23957541Y-5491676D01*
X23908828Y-5508721D01*
X23857455Y-5531594D01*
X23821804Y-5539171D01*
X23788239Y-5550917D01*
X23742083Y-5556117D01*
X23693705Y-5566401D01*
X23650817Y-5566401D01*
X23610000Y-5571000D01*
X23569183Y-5566401D01*
X23526295Y-5566401D01*
X23477915Y-5556117D01*
X23431761Y-5550917D01*
X23398196Y-5539172D01*
X23362544Y-5531594D01*
X23311167Y-5508719D01*
X23262459Y-5491676D01*
X23237105Y-5475745D01*
X23209602Y-5463500D01*
X23158319Y-5426240D01*
X23110585Y-5396247D01*
X23093441Y-5379103D01*
X23074169Y-5365101D01*
X23026521Y-5312183D01*
X22983753Y-5269415D01*
X22973916Y-5253759D01*
X22962148Y-5240690D01*
X22921888Y-5170958D01*
X22888324Y-5117541D01*
X22884133Y-5105564D01*
X22878445Y-5095712D01*
X22849307Y-5006037D01*
X22829083Y-4948239D01*
X22828316Y-4941434D01*
X22826710Y-4936491D01*
X22812141Y-4797885D01*
X22809000Y-4770000D01*
X22812139Y-4742139D01*
X22826710Y-4603508D01*
X22828316Y-4598563D01*
X22829083Y-4591761D01*
X22849302Y-4533975D01*
X22878445Y-4444287D01*
X22884134Y-4434433D01*
X22888324Y-4422459D01*
X22921881Y-4369052D01*
X22962148Y-4299309D01*
X22973918Y-4286236D01*
X22983753Y-4270585D01*
X23026512Y-4227825D01*
X23074169Y-4174898D01*
X23093444Y-4160893D01*
X23110585Y-4143753D01*
X23158314Y-4113762D01*
X23209603Y-4076499D01*
X23237109Y-4064252D01*
X23262459Y-4048324D01*
X23311158Y-4031283D01*
X23362544Y-4008405D01*
X23398202Y-4000825D01*
X23431761Y-3989083D01*
X23477912Y-3983882D01*
X23526295Y-3973599D01*
X23569183Y-3973599D01*
X23610000Y-3969000D01*
X23650817Y-3973599D01*
G37*
G36*
X26190817Y-3973599D02*
G01*
X26233705Y-3973599D01*
X26282086Y-3983882D01*
X26328239Y-3989083D01*
X26361799Y-4000826D01*
X26397455Y-4008405D01*
X26448838Y-4031282D01*
X26497541Y-4048324D01*
X26522891Y-4064252D01*
X26550397Y-4076499D01*
X26601683Y-4113761D01*
X26649415Y-4143753D01*
X26666557Y-4160895D01*
X26685830Y-4174898D01*
X26733477Y-4227815D01*
X26776247Y-4270585D01*
X26786084Y-4286240D01*
X26797851Y-4299309D01*
X26838106Y-4369032D01*
X26871676Y-4422459D01*
X26875867Y-4434437D01*
X26881554Y-4444287D01*
X26910683Y-4533935D01*
X26930917Y-4591761D01*
X26931684Y-4598568D01*
X26933289Y-4603508D01*
X26947845Y-4742007D01*
X26951000Y-4770000D01*
X26947843Y-4798017D01*
X26933289Y-4936491D01*
X26931684Y-4941429D01*
X26930917Y-4948239D01*
X26910678Y-5006077D01*
X26881554Y-5095712D01*
X26875868Y-5105559D01*
X26871676Y-5117541D01*
X26838098Y-5170978D01*
X26797851Y-5240690D01*
X26786086Y-5253756D01*
X26776247Y-5269415D01*
X26733468Y-5312193D01*
X26685830Y-5365101D01*
X26666561Y-5379100D01*
X26649415Y-5396247D01*
X26601673Y-5426245D01*
X26550397Y-5463500D01*
X26522896Y-5475743D01*
X26497541Y-5491676D01*
X26448828Y-5508721D01*
X26397455Y-5531594D01*
X26361804Y-5539171D01*
X26328239Y-5550917D01*
X26282083Y-5556117D01*
X26233705Y-5566401D01*
X26190817Y-5566401D01*
X26150000Y-5571000D01*
X26109183Y-5566401D01*
X26066295Y-5566401D01*
X26017915Y-5556117D01*
X25971761Y-5550917D01*
X25938196Y-5539172D01*
X25902544Y-5531594D01*
X25851167Y-5508719D01*
X25802459Y-5491676D01*
X25777105Y-5475745D01*
X25749602Y-5463500D01*
X25698319Y-5426240D01*
X25650585Y-5396247D01*
X25633441Y-5379103D01*
X25614169Y-5365101D01*
X25566521Y-5312183D01*
X25523753Y-5269415D01*
X25513916Y-5253759D01*
X25502148Y-5240690D01*
X25461888Y-5170958D01*
X25428324Y-5117541D01*
X25424133Y-5105564D01*
X25418445Y-5095712D01*
X25389307Y-5006037D01*
X25369083Y-4948239D01*
X25368316Y-4941434D01*
X25366710Y-4936491D01*
X25352141Y-4797885D01*
X25349000Y-4770000D01*
X25352139Y-4742139D01*
X25366710Y-4603508D01*
X25368316Y-4598563D01*
X25369083Y-4591761D01*
X25389302Y-4533975D01*
X25418445Y-4444287D01*
X25424134Y-4434433D01*
X25428324Y-4422459D01*
X25461881Y-4369052D01*
X25502148Y-4299309D01*
X25513918Y-4286236D01*
X25523753Y-4270585D01*
X25566512Y-4227825D01*
X25614169Y-4174898D01*
X25633444Y-4160893D01*
X25650585Y-4143753D01*
X25698314Y-4113762D01*
X25749603Y-4076499D01*
X25777109Y-4064252D01*
X25802459Y-4048324D01*
X25851158Y-4031283D01*
X25902544Y-4008405D01*
X25938202Y-4000825D01*
X25971761Y-3989083D01*
X26017912Y-3983882D01*
X26066295Y-3973599D01*
X26109183Y-3973599D01*
X26150000Y-3969000D01*
X26190817Y-3973599D01*
G37*
G36*
X28730817Y-3973599D02*
G01*
X28773705Y-3973599D01*
X28822086Y-3983882D01*
X28868239Y-3989083D01*
X28901799Y-4000826D01*
X28937455Y-4008405D01*
X28988838Y-4031282D01*
X29037541Y-4048324D01*
X29062891Y-4064252D01*
X29090397Y-4076499D01*
X29141683Y-4113761D01*
X29189415Y-4143753D01*
X29206557Y-4160895D01*
X29225830Y-4174898D01*
X29273477Y-4227815D01*
X29316247Y-4270585D01*
X29326084Y-4286240D01*
X29337851Y-4299309D01*
X29378106Y-4369032D01*
X29411676Y-4422459D01*
X29415867Y-4434437D01*
X29421554Y-4444287D01*
X29450683Y-4533935D01*
X29470917Y-4591761D01*
X29471684Y-4598568D01*
X29473289Y-4603508D01*
X29487845Y-4742007D01*
X29491000Y-4770000D01*
X29487843Y-4798017D01*
X29473289Y-4936491D01*
X29471684Y-4941429D01*
X29470917Y-4948239D01*
X29450678Y-5006077D01*
X29421554Y-5095712D01*
X29415868Y-5105559D01*
X29411676Y-5117541D01*
X29378098Y-5170978D01*
X29337851Y-5240690D01*
X29326086Y-5253756D01*
X29316247Y-5269415D01*
X29273468Y-5312193D01*
X29225830Y-5365101D01*
X29206561Y-5379100D01*
X29189415Y-5396247D01*
X29141673Y-5426245D01*
X29090397Y-5463500D01*
X29062896Y-5475743D01*
X29037541Y-5491676D01*
X28988828Y-5508721D01*
X28937455Y-5531594D01*
X28901804Y-5539171D01*
X28868239Y-5550917D01*
X28822083Y-5556117D01*
X28773705Y-5566401D01*
X28730817Y-5566401D01*
X28690000Y-5571000D01*
X28649183Y-5566401D01*
X28606295Y-5566401D01*
X28557915Y-5556117D01*
X28511761Y-5550917D01*
X28478196Y-5539172D01*
X28442544Y-5531594D01*
X28391167Y-5508719D01*
X28342459Y-5491676D01*
X28317105Y-5475745D01*
X28289602Y-5463500D01*
X28238319Y-5426240D01*
X28190585Y-5396247D01*
X28173441Y-5379103D01*
X28154169Y-5365101D01*
X28106521Y-5312183D01*
X28063753Y-5269415D01*
X28053916Y-5253759D01*
X28042148Y-5240690D01*
X28001888Y-5170958D01*
X27968324Y-5117541D01*
X27964133Y-5105564D01*
X27958445Y-5095712D01*
X27929307Y-5006037D01*
X27909083Y-4948239D01*
X27908316Y-4941434D01*
X27906710Y-4936491D01*
X27892141Y-4797885D01*
X27889000Y-4770000D01*
X27892139Y-4742139D01*
X27906710Y-4603508D01*
X27908316Y-4598563D01*
X27909083Y-4591761D01*
X27929302Y-4533975D01*
X27958445Y-4444287D01*
X27964134Y-4434433D01*
X27968324Y-4422459D01*
X28001881Y-4369052D01*
X28042148Y-4299309D01*
X28053918Y-4286236D01*
X28063753Y-4270585D01*
X28106512Y-4227825D01*
X28154169Y-4174898D01*
X28173444Y-4160893D01*
X28190585Y-4143753D01*
X28238314Y-4113762D01*
X28289603Y-4076499D01*
X28317109Y-4064252D01*
X28342459Y-4048324D01*
X28391158Y-4031283D01*
X28442544Y-4008405D01*
X28478202Y-4000825D01*
X28511761Y-3989083D01*
X28557912Y-3983882D01*
X28606295Y-3973599D01*
X28649183Y-3973599D01*
X28690000Y-3969000D01*
X28730817Y-3973599D01*
G37*
G36*
X31270817Y-3973599D02*
G01*
X31313705Y-3973599D01*
X31362086Y-3983882D01*
X31408239Y-3989083D01*
X31441799Y-4000826D01*
X31477455Y-4008405D01*
X31528838Y-4031282D01*
X31577541Y-4048324D01*
X31602891Y-4064252D01*
X31630397Y-4076499D01*
X31681683Y-4113761D01*
X31729415Y-4143753D01*
X31746557Y-4160895D01*
X31765830Y-4174898D01*
X31813477Y-4227815D01*
X31856247Y-4270585D01*
X31866084Y-4286240D01*
X31877851Y-4299309D01*
X31918106Y-4369032D01*
X31951676Y-4422459D01*
X31955867Y-4434437D01*
X31961554Y-4444287D01*
X31990683Y-4533935D01*
X32010917Y-4591761D01*
X32011684Y-4598568D01*
X32013289Y-4603508D01*
X32027845Y-4742007D01*
X32031000Y-4770000D01*
X32027843Y-4798017D01*
X32013289Y-4936491D01*
X32011684Y-4941429D01*
X32010917Y-4948239D01*
X31990678Y-5006077D01*
X31961554Y-5095712D01*
X31955868Y-5105559D01*
X31951676Y-5117541D01*
X31918098Y-5170978D01*
X31877851Y-5240690D01*
X31866086Y-5253756D01*
X31856247Y-5269415D01*
X31813468Y-5312193D01*
X31765830Y-5365101D01*
X31746561Y-5379100D01*
X31729415Y-5396247D01*
X31681673Y-5426245D01*
X31630397Y-5463500D01*
X31602896Y-5475743D01*
X31577541Y-5491676D01*
X31528828Y-5508721D01*
X31477455Y-5531594D01*
X31441804Y-5539171D01*
X31408239Y-5550917D01*
X31362083Y-5556117D01*
X31313705Y-5566401D01*
X31270817Y-5566401D01*
X31230000Y-5571000D01*
X31189183Y-5566401D01*
X31146295Y-5566401D01*
X31097915Y-5556117D01*
X31051761Y-5550917D01*
X31018196Y-5539172D01*
X30982544Y-5531594D01*
X30931167Y-5508719D01*
X30882459Y-5491676D01*
X30857105Y-5475745D01*
X30829602Y-5463500D01*
X30778319Y-5426240D01*
X30730585Y-5396247D01*
X30713441Y-5379103D01*
X30694169Y-5365101D01*
X30646521Y-5312183D01*
X30603753Y-5269415D01*
X30593916Y-5253759D01*
X30582148Y-5240690D01*
X30541888Y-5170958D01*
X30508324Y-5117541D01*
X30504133Y-5105564D01*
X30498445Y-5095712D01*
X30469307Y-5006037D01*
X30449083Y-4948239D01*
X30448316Y-4941434D01*
X30446710Y-4936491D01*
X30432141Y-4797885D01*
X30429000Y-4770000D01*
X30432139Y-4742139D01*
X30446710Y-4603508D01*
X30448316Y-4598563D01*
X30449083Y-4591761D01*
X30469302Y-4533975D01*
X30498445Y-4444287D01*
X30504134Y-4434433D01*
X30508324Y-4422459D01*
X30541881Y-4369052D01*
X30582148Y-4299309D01*
X30593918Y-4286236D01*
X30603753Y-4270585D01*
X30646512Y-4227825D01*
X30694169Y-4174898D01*
X30713444Y-4160893D01*
X30730585Y-4143753D01*
X30778314Y-4113762D01*
X30829603Y-4076499D01*
X30857109Y-4064252D01*
X30882459Y-4048324D01*
X30931158Y-4031283D01*
X30982544Y-4008405D01*
X31018202Y-4000825D01*
X31051761Y-3989083D01*
X31097912Y-3983882D01*
X31146295Y-3973599D01*
X31189183Y-3973599D01*
X31230000Y-3969000D01*
X31270817Y-3973599D01*
G37*
G36*
X33810817Y-3973599D02*
G01*
X33853705Y-3973599D01*
X33902086Y-3983882D01*
X33948239Y-3989083D01*
X33981799Y-4000826D01*
X34017455Y-4008405D01*
X34068838Y-4031282D01*
X34117541Y-4048324D01*
X34142891Y-4064252D01*
X34170397Y-4076499D01*
X34221683Y-4113761D01*
X34269415Y-4143753D01*
X34286557Y-4160895D01*
X34305830Y-4174898D01*
X34353477Y-4227815D01*
X34396247Y-4270585D01*
X34406084Y-4286240D01*
X34417851Y-4299309D01*
X34458106Y-4369032D01*
X34491676Y-4422459D01*
X34495867Y-4434437D01*
X34501554Y-4444287D01*
X34530683Y-4533935D01*
X34550917Y-4591761D01*
X34551684Y-4598568D01*
X34553289Y-4603508D01*
X34567845Y-4742007D01*
X34571000Y-4770000D01*
X34567843Y-4798017D01*
X34553289Y-4936491D01*
X34551684Y-4941429D01*
X34550917Y-4948239D01*
X34530678Y-5006077D01*
X34501554Y-5095712D01*
X34495868Y-5105559D01*
X34491676Y-5117541D01*
X34458098Y-5170978D01*
X34417851Y-5240690D01*
X34406086Y-5253756D01*
X34396247Y-5269415D01*
X34353468Y-5312193D01*
X34305830Y-5365101D01*
X34286561Y-5379100D01*
X34269415Y-5396247D01*
X34221673Y-5426245D01*
X34170397Y-5463500D01*
X34142896Y-5475743D01*
X34117541Y-5491676D01*
X34068828Y-5508721D01*
X34017455Y-5531594D01*
X33981804Y-5539171D01*
X33948239Y-5550917D01*
X33902083Y-5556117D01*
X33853705Y-5566401D01*
X33810817Y-5566401D01*
X33770000Y-5571000D01*
X33729183Y-5566401D01*
X33686295Y-5566401D01*
X33637915Y-5556117D01*
X33591761Y-5550917D01*
X33558196Y-5539172D01*
X33522544Y-5531594D01*
X33471167Y-5508719D01*
X33422459Y-5491676D01*
X33397105Y-5475745D01*
X33369602Y-5463500D01*
X33318319Y-5426240D01*
X33270585Y-5396247D01*
X33253441Y-5379103D01*
X33234169Y-5365101D01*
X33186521Y-5312183D01*
X33143753Y-5269415D01*
X33133916Y-5253759D01*
X33122148Y-5240690D01*
X33081888Y-5170958D01*
X33048324Y-5117541D01*
X33044133Y-5105564D01*
X33038445Y-5095712D01*
X33009307Y-5006037D01*
X32989083Y-4948239D01*
X32988316Y-4941434D01*
X32986710Y-4936491D01*
X32972141Y-4797885D01*
X32969000Y-4770000D01*
X32972139Y-4742139D01*
X32986710Y-4603508D01*
X32988316Y-4598563D01*
X32989083Y-4591761D01*
X33009302Y-4533975D01*
X33038445Y-4444287D01*
X33044134Y-4434433D01*
X33048324Y-4422459D01*
X33081881Y-4369052D01*
X33122148Y-4299309D01*
X33133918Y-4286236D01*
X33143753Y-4270585D01*
X33186512Y-4227825D01*
X33234169Y-4174898D01*
X33253444Y-4160893D01*
X33270585Y-4143753D01*
X33318314Y-4113762D01*
X33369603Y-4076499D01*
X33397109Y-4064252D01*
X33422459Y-4048324D01*
X33471158Y-4031283D01*
X33522544Y-4008405D01*
X33558202Y-4000825D01*
X33591761Y-3989083D01*
X33637912Y-3983882D01*
X33686295Y-3973599D01*
X33729183Y-3973599D01*
X33770000Y-3969000D01*
X33810817Y-3973599D01*
G37*
G36*
X36350817Y-3973599D02*
G01*
X36393705Y-3973599D01*
X36442086Y-3983882D01*
X36488239Y-3989083D01*
X36521799Y-4000826D01*
X36557455Y-4008405D01*
X36608838Y-4031282D01*
X36657541Y-4048324D01*
X36682891Y-4064252D01*
X36710397Y-4076499D01*
X36761683Y-4113761D01*
X36809415Y-4143753D01*
X36826557Y-4160895D01*
X36845830Y-4174898D01*
X36893477Y-4227815D01*
X36936247Y-4270585D01*
X36946084Y-4286240D01*
X36957851Y-4299309D01*
X36998106Y-4369032D01*
X37031676Y-4422459D01*
X37035867Y-4434437D01*
X37041554Y-4444287D01*
X37070683Y-4533935D01*
X37090917Y-4591761D01*
X37091684Y-4598568D01*
X37093289Y-4603508D01*
X37107845Y-4742007D01*
X37111000Y-4770000D01*
X37107843Y-4798017D01*
X37093289Y-4936491D01*
X37091684Y-4941429D01*
X37090917Y-4948239D01*
X37070678Y-5006077D01*
X37041554Y-5095712D01*
X37035868Y-5105559D01*
X37031676Y-5117541D01*
X36998098Y-5170978D01*
X36957851Y-5240690D01*
X36946086Y-5253756D01*
X36936247Y-5269415D01*
X36893468Y-5312193D01*
X36845830Y-5365101D01*
X36826561Y-5379100D01*
X36809415Y-5396247D01*
X36761673Y-5426245D01*
X36710397Y-5463500D01*
X36682896Y-5475743D01*
X36657541Y-5491676D01*
X36608828Y-5508721D01*
X36557455Y-5531594D01*
X36521804Y-5539171D01*
X36488239Y-5550917D01*
X36442083Y-5556117D01*
X36393705Y-5566401D01*
X36350817Y-5566401D01*
X36310000Y-5571000D01*
X36269183Y-5566401D01*
X36226295Y-5566401D01*
X36177915Y-5556117D01*
X36131761Y-5550917D01*
X36098196Y-5539172D01*
X36062544Y-5531594D01*
X36011167Y-5508719D01*
X35962459Y-5491676D01*
X35937105Y-5475745D01*
X35909602Y-5463500D01*
X35858319Y-5426240D01*
X35810585Y-5396247D01*
X35793441Y-5379103D01*
X35774169Y-5365101D01*
X35726521Y-5312183D01*
X35683753Y-5269415D01*
X35673916Y-5253759D01*
X35662148Y-5240690D01*
X35621888Y-5170958D01*
X35588324Y-5117541D01*
X35584133Y-5105564D01*
X35578445Y-5095712D01*
X35549307Y-5006037D01*
X35529083Y-4948239D01*
X35528316Y-4941434D01*
X35526710Y-4936491D01*
X35512141Y-4797885D01*
X35509000Y-4770000D01*
X35512139Y-4742139D01*
X35526710Y-4603508D01*
X35528316Y-4598563D01*
X35529083Y-4591761D01*
X35549302Y-4533975D01*
X35578445Y-4444287D01*
X35584134Y-4434433D01*
X35588324Y-4422459D01*
X35621881Y-4369052D01*
X35662148Y-4299309D01*
X35673918Y-4286236D01*
X35683753Y-4270585D01*
X35726512Y-4227825D01*
X35774169Y-4174898D01*
X35793444Y-4160893D01*
X35810585Y-4143753D01*
X35858314Y-4113762D01*
X35909603Y-4076499D01*
X35937109Y-4064252D01*
X35962459Y-4048324D01*
X36011158Y-4031283D01*
X36062544Y-4008405D01*
X36098202Y-4000825D01*
X36131761Y-3989083D01*
X36177912Y-3983882D01*
X36226295Y-3973599D01*
X36269183Y-3973599D01*
X36310000Y-3969000D01*
X36350817Y-3973599D01*
G37*
G36*
X38890817Y-3973599D02*
G01*
X38933705Y-3973599D01*
X38982086Y-3983882D01*
X39028239Y-3989083D01*
X39061799Y-4000826D01*
X39097455Y-4008405D01*
X39148838Y-4031282D01*
X39197541Y-4048324D01*
X39222891Y-4064252D01*
X39250397Y-4076499D01*
X39301683Y-4113761D01*
X39349415Y-4143753D01*
X39366557Y-4160895D01*
X39385830Y-4174898D01*
X39433477Y-4227815D01*
X39476247Y-4270585D01*
X39486084Y-4286240D01*
X39497851Y-4299309D01*
X39538106Y-4369032D01*
X39571676Y-4422459D01*
X39575867Y-4434437D01*
X39581554Y-4444287D01*
X39610683Y-4533935D01*
X39630917Y-4591761D01*
X39631684Y-4598568D01*
X39633289Y-4603508D01*
X39647845Y-4742007D01*
X39651000Y-4770000D01*
X39647843Y-4798017D01*
X39633289Y-4936491D01*
X39631684Y-4941429D01*
X39630917Y-4948239D01*
X39610678Y-5006077D01*
X39581554Y-5095712D01*
X39575868Y-5105559D01*
X39571676Y-5117541D01*
X39538098Y-5170978D01*
X39497851Y-5240690D01*
X39486086Y-5253756D01*
X39476247Y-5269415D01*
X39433468Y-5312193D01*
X39385830Y-5365101D01*
X39366561Y-5379100D01*
X39349415Y-5396247D01*
X39301673Y-5426245D01*
X39250397Y-5463500D01*
X39222896Y-5475743D01*
X39197541Y-5491676D01*
X39148828Y-5508721D01*
X39097455Y-5531594D01*
X39061804Y-5539171D01*
X39028239Y-5550917D01*
X38982083Y-5556117D01*
X38933705Y-5566401D01*
X38890817Y-5566401D01*
X38850000Y-5571000D01*
X38809183Y-5566401D01*
X38766295Y-5566401D01*
X38717915Y-5556117D01*
X38671761Y-5550917D01*
X38638196Y-5539172D01*
X38602544Y-5531594D01*
X38551167Y-5508719D01*
X38502459Y-5491676D01*
X38477105Y-5475745D01*
X38449602Y-5463500D01*
X38398319Y-5426240D01*
X38350585Y-5396247D01*
X38333441Y-5379103D01*
X38314169Y-5365101D01*
X38266521Y-5312183D01*
X38223753Y-5269415D01*
X38213916Y-5253759D01*
X38202148Y-5240690D01*
X38161888Y-5170958D01*
X38128324Y-5117541D01*
X38124133Y-5105564D01*
X38118445Y-5095712D01*
X38089307Y-5006037D01*
X38069083Y-4948239D01*
X38068316Y-4941434D01*
X38066710Y-4936491D01*
X38052141Y-4797885D01*
X38049000Y-4770000D01*
X38052139Y-4742139D01*
X38066710Y-4603508D01*
X38068316Y-4598563D01*
X38069083Y-4591761D01*
X38089302Y-4533975D01*
X38118445Y-4444287D01*
X38124134Y-4434433D01*
X38128324Y-4422459D01*
X38161881Y-4369052D01*
X38202148Y-4299309D01*
X38213918Y-4286236D01*
X38223753Y-4270585D01*
X38266512Y-4227825D01*
X38314169Y-4174898D01*
X38333444Y-4160893D01*
X38350585Y-4143753D01*
X38398314Y-4113762D01*
X38449603Y-4076499D01*
X38477109Y-4064252D01*
X38502459Y-4048324D01*
X38551158Y-4031283D01*
X38602544Y-4008405D01*
X38638202Y-4000825D01*
X38671761Y-3989083D01*
X38717912Y-3983882D01*
X38766295Y-3973599D01*
X38809183Y-3973599D01*
X38850000Y-3969000D01*
X38890817Y-3973599D01*
G37*
G36*
X41430817Y-3973599D02*
G01*
X41473705Y-3973599D01*
X41522086Y-3983882D01*
X41568239Y-3989083D01*
X41601799Y-4000826D01*
X41637455Y-4008405D01*
X41688838Y-4031282D01*
X41737541Y-4048324D01*
X41762891Y-4064252D01*
X41790397Y-4076499D01*
X41841683Y-4113761D01*
X41889415Y-4143753D01*
X41906557Y-4160895D01*
X41925830Y-4174898D01*
X41973477Y-4227815D01*
X42016247Y-4270585D01*
X42026084Y-4286240D01*
X42037851Y-4299309D01*
X42078106Y-4369032D01*
X42111676Y-4422459D01*
X42115867Y-4434437D01*
X42121554Y-4444287D01*
X42150683Y-4533935D01*
X42170917Y-4591761D01*
X42171684Y-4598568D01*
X42173289Y-4603508D01*
X42187845Y-4742007D01*
X42191000Y-4770000D01*
X42187843Y-4798017D01*
X42173289Y-4936491D01*
X42171684Y-4941429D01*
X42170917Y-4948239D01*
X42150678Y-5006077D01*
X42121554Y-5095712D01*
X42115868Y-5105559D01*
X42111676Y-5117541D01*
X42078098Y-5170978D01*
X42037851Y-5240690D01*
X42026086Y-5253756D01*
X42016247Y-5269415D01*
X41973468Y-5312193D01*
X41925830Y-5365101D01*
X41906561Y-5379100D01*
X41889415Y-5396247D01*
X41841673Y-5426245D01*
X41790397Y-5463500D01*
X41762896Y-5475743D01*
X41737541Y-5491676D01*
X41688828Y-5508721D01*
X41637455Y-5531594D01*
X41601804Y-5539171D01*
X41568239Y-5550917D01*
X41522083Y-5556117D01*
X41473705Y-5566401D01*
X41430817Y-5566401D01*
X41390000Y-5571000D01*
X41349183Y-5566401D01*
X41306295Y-5566401D01*
X41257915Y-5556117D01*
X41211761Y-5550917D01*
X41178196Y-5539172D01*
X41142544Y-5531594D01*
X41091167Y-5508719D01*
X41042459Y-5491676D01*
X41017105Y-5475745D01*
X40989602Y-5463500D01*
X40938319Y-5426240D01*
X40890585Y-5396247D01*
X40873441Y-5379103D01*
X40854169Y-5365101D01*
X40806521Y-5312183D01*
X40763753Y-5269415D01*
X40753916Y-5253759D01*
X40742148Y-5240690D01*
X40701888Y-5170958D01*
X40668324Y-5117541D01*
X40664133Y-5105564D01*
X40658445Y-5095712D01*
X40629307Y-5006037D01*
X40609083Y-4948239D01*
X40608316Y-4941434D01*
X40606710Y-4936491D01*
X40592141Y-4797885D01*
X40589000Y-4770000D01*
X40592139Y-4742139D01*
X40606710Y-4603508D01*
X40608316Y-4598563D01*
X40609083Y-4591761D01*
X40629302Y-4533975D01*
X40658445Y-4444287D01*
X40664134Y-4434433D01*
X40668324Y-4422459D01*
X40701881Y-4369052D01*
X40742148Y-4299309D01*
X40753918Y-4286236D01*
X40763753Y-4270585D01*
X40806512Y-4227825D01*
X40854169Y-4174898D01*
X40873444Y-4160893D01*
X40890585Y-4143753D01*
X40938314Y-4113762D01*
X40989603Y-4076499D01*
X41017109Y-4064252D01*
X41042459Y-4048324D01*
X41091158Y-4031283D01*
X41142544Y-4008405D01*
X41178202Y-4000825D01*
X41211761Y-3989083D01*
X41257912Y-3983882D01*
X41306295Y-3973599D01*
X41349183Y-3973599D01*
X41390000Y-3969000D01*
X41430817Y-3973599D01*
G37*
G36*
X43970817Y-3973599D02*
G01*
X44013705Y-3973599D01*
X44062086Y-3983882D01*
X44108239Y-3989083D01*
X44141799Y-4000826D01*
X44177455Y-4008405D01*
X44228838Y-4031282D01*
X44277541Y-4048324D01*
X44302891Y-4064252D01*
X44330397Y-4076499D01*
X44381683Y-4113761D01*
X44429415Y-4143753D01*
X44446557Y-4160895D01*
X44465830Y-4174898D01*
X44513477Y-4227815D01*
X44556247Y-4270585D01*
X44566084Y-4286240D01*
X44577851Y-4299309D01*
X44618106Y-4369032D01*
X44651676Y-4422459D01*
X44655867Y-4434437D01*
X44661554Y-4444287D01*
X44690683Y-4533935D01*
X44710917Y-4591761D01*
X44711684Y-4598568D01*
X44713289Y-4603508D01*
X44727845Y-4742007D01*
X44731000Y-4770000D01*
X44727843Y-4798017D01*
X44713289Y-4936491D01*
X44711684Y-4941429D01*
X44710917Y-4948239D01*
X44690678Y-5006077D01*
X44661554Y-5095712D01*
X44655868Y-5105559D01*
X44651676Y-5117541D01*
X44618098Y-5170978D01*
X44577851Y-5240690D01*
X44566086Y-5253756D01*
X44556247Y-5269415D01*
X44513468Y-5312193D01*
X44465830Y-5365101D01*
X44446561Y-5379100D01*
X44429415Y-5396247D01*
X44381673Y-5426245D01*
X44330397Y-5463500D01*
X44302896Y-5475743D01*
X44277541Y-5491676D01*
X44228828Y-5508721D01*
X44177455Y-5531594D01*
X44141804Y-5539171D01*
X44108239Y-5550917D01*
X44062083Y-5556117D01*
X44013705Y-5566401D01*
X43970817Y-5566401D01*
X43930000Y-5571000D01*
X43889183Y-5566401D01*
X43846295Y-5566401D01*
X43797915Y-5556117D01*
X43751761Y-5550917D01*
X43718196Y-5539172D01*
X43682544Y-5531594D01*
X43631167Y-5508719D01*
X43582459Y-5491676D01*
X43557105Y-5475745D01*
X43529602Y-5463500D01*
X43478319Y-5426240D01*
X43430585Y-5396247D01*
X43413441Y-5379103D01*
X43394169Y-5365101D01*
X43346521Y-5312183D01*
X43303753Y-5269415D01*
X43293916Y-5253759D01*
X43282148Y-5240690D01*
X43241888Y-5170958D01*
X43208324Y-5117541D01*
X43204133Y-5105564D01*
X43198445Y-5095712D01*
X43169307Y-5006037D01*
X43149083Y-4948239D01*
X43148316Y-4941434D01*
X43146710Y-4936491D01*
X43132141Y-4797885D01*
X43129000Y-4770000D01*
X43132139Y-4742139D01*
X43146710Y-4603508D01*
X43148316Y-4598563D01*
X43149083Y-4591761D01*
X43169302Y-4533975D01*
X43198445Y-4444287D01*
X43204134Y-4434433D01*
X43208324Y-4422459D01*
X43241881Y-4369052D01*
X43282148Y-4299309D01*
X43293918Y-4286236D01*
X43303753Y-4270585D01*
X43346512Y-4227825D01*
X43394169Y-4174898D01*
X43413444Y-4160893D01*
X43430585Y-4143753D01*
X43478314Y-4113762D01*
X43529603Y-4076499D01*
X43557109Y-4064252D01*
X43582459Y-4048324D01*
X43631158Y-4031283D01*
X43682544Y-4008405D01*
X43718202Y-4000825D01*
X43751761Y-3989083D01*
X43797912Y-3983882D01*
X43846295Y-3973599D01*
X43889183Y-3973599D01*
X43930000Y-3969000D01*
X43970817Y-3973599D01*
G37*
G36*
X46510817Y-3973599D02*
G01*
X46553705Y-3973599D01*
X46602086Y-3983882D01*
X46648239Y-3989083D01*
X46681799Y-4000826D01*
X46717455Y-4008405D01*
X46768838Y-4031282D01*
X46817541Y-4048324D01*
X46842891Y-4064252D01*
X46870397Y-4076499D01*
X46921683Y-4113761D01*
X46969415Y-4143753D01*
X46986557Y-4160895D01*
X47005830Y-4174898D01*
X47053477Y-4227815D01*
X47096247Y-4270585D01*
X47106084Y-4286240D01*
X47117851Y-4299309D01*
X47158106Y-4369032D01*
X47191676Y-4422459D01*
X47195867Y-4434437D01*
X47201554Y-4444287D01*
X47230683Y-4533935D01*
X47250917Y-4591761D01*
X47251684Y-4598568D01*
X47253289Y-4603508D01*
X47267844Y-4741996D01*
X47271000Y-4770000D01*
X47267844Y-4798006D01*
X47253289Y-4936491D01*
X47251684Y-4941429D01*
X47250917Y-4948239D01*
X47230678Y-5006077D01*
X47201554Y-5095712D01*
X47195868Y-5105559D01*
X47191676Y-5117541D01*
X47158098Y-5170978D01*
X47117851Y-5240690D01*
X47106086Y-5253756D01*
X47096247Y-5269415D01*
X47053468Y-5312193D01*
X47005830Y-5365101D01*
X46986561Y-5379100D01*
X46969415Y-5396247D01*
X46921673Y-5426245D01*
X46870397Y-5463500D01*
X46842896Y-5475743D01*
X46817541Y-5491676D01*
X46768828Y-5508721D01*
X46717455Y-5531594D01*
X46681804Y-5539171D01*
X46648239Y-5550917D01*
X46602083Y-5556117D01*
X46553705Y-5566401D01*
X46510817Y-5566401D01*
X46470000Y-5571000D01*
X46429183Y-5566401D01*
X46386295Y-5566401D01*
X46337915Y-5556117D01*
X46291761Y-5550917D01*
X46258196Y-5539172D01*
X46222544Y-5531594D01*
X46171167Y-5508719D01*
X46122459Y-5491676D01*
X46097105Y-5475745D01*
X46069602Y-5463500D01*
X46018319Y-5426240D01*
X45970585Y-5396247D01*
X45953441Y-5379103D01*
X45934169Y-5365101D01*
X45886521Y-5312183D01*
X45843753Y-5269415D01*
X45833916Y-5253759D01*
X45822148Y-5240690D01*
X45781888Y-5170958D01*
X45748324Y-5117541D01*
X45744133Y-5105564D01*
X45738445Y-5095712D01*
X45709307Y-5006037D01*
X45689083Y-4948239D01*
X45688316Y-4941434D01*
X45686710Y-4936491D01*
X45672141Y-4797885D01*
X45669000Y-4770000D01*
X45672139Y-4742139D01*
X45686710Y-4603508D01*
X45688316Y-4598563D01*
X45689083Y-4591761D01*
X45709302Y-4533975D01*
X45738445Y-4444287D01*
X45744134Y-4434433D01*
X45748324Y-4422459D01*
X45781881Y-4369052D01*
X45822148Y-4299309D01*
X45833918Y-4286236D01*
X45843753Y-4270585D01*
X45886512Y-4227825D01*
X45934169Y-4174898D01*
X45953444Y-4160893D01*
X45970585Y-4143753D01*
X46018314Y-4113762D01*
X46069603Y-4076499D01*
X46097109Y-4064252D01*
X46122459Y-4048324D01*
X46171158Y-4031283D01*
X46222544Y-4008405D01*
X46258202Y-4000825D01*
X46291761Y-3989083D01*
X46337912Y-3983882D01*
X46386295Y-3973599D01*
X46429183Y-3973599D01*
X46470000Y-3969000D01*
X46510817Y-3973599D01*
G37*
G36*
X49050817Y-3973599D02*
G01*
X49093705Y-3973599D01*
X49142086Y-3983882D01*
X49188239Y-3989083D01*
X49221799Y-4000826D01*
X49257455Y-4008405D01*
X49308838Y-4031282D01*
X49357541Y-4048324D01*
X49382891Y-4064252D01*
X49410397Y-4076499D01*
X49461683Y-4113761D01*
X49509415Y-4143753D01*
X49526557Y-4160895D01*
X49545830Y-4174898D01*
X49593477Y-4227815D01*
X49636247Y-4270585D01*
X49646084Y-4286240D01*
X49657851Y-4299309D01*
X49698106Y-4369032D01*
X49731676Y-4422459D01*
X49735867Y-4434437D01*
X49741554Y-4444287D01*
X49770683Y-4533935D01*
X49790917Y-4591761D01*
X49791684Y-4598568D01*
X49793289Y-4603508D01*
X49807844Y-4741996D01*
X49811000Y-4770000D01*
X49807844Y-4798006D01*
X49793289Y-4936491D01*
X49791684Y-4941429D01*
X49790917Y-4948239D01*
X49770678Y-5006077D01*
X49741554Y-5095712D01*
X49735868Y-5105559D01*
X49731676Y-5117541D01*
X49698098Y-5170978D01*
X49657851Y-5240690D01*
X49646086Y-5253756D01*
X49636247Y-5269415D01*
X49593468Y-5312193D01*
X49545830Y-5365101D01*
X49526561Y-5379100D01*
X49509415Y-5396247D01*
X49461673Y-5426245D01*
X49410397Y-5463500D01*
X49382896Y-5475743D01*
X49357541Y-5491676D01*
X49308828Y-5508721D01*
X49257455Y-5531594D01*
X49221804Y-5539171D01*
X49188239Y-5550917D01*
X49142083Y-5556117D01*
X49093705Y-5566401D01*
X49050817Y-5566401D01*
X49010000Y-5571000D01*
X48969183Y-5566401D01*
X48926295Y-5566401D01*
X48877915Y-5556117D01*
X48831761Y-5550917D01*
X48798196Y-5539172D01*
X48762544Y-5531594D01*
X48711167Y-5508719D01*
X48662459Y-5491676D01*
X48637105Y-5475745D01*
X48609602Y-5463500D01*
X48558319Y-5426240D01*
X48510585Y-5396247D01*
X48493441Y-5379103D01*
X48474169Y-5365101D01*
X48426521Y-5312183D01*
X48383753Y-5269415D01*
X48373916Y-5253759D01*
X48362148Y-5240690D01*
X48321888Y-5170958D01*
X48288324Y-5117541D01*
X48284133Y-5105564D01*
X48278445Y-5095712D01*
X48249307Y-5006037D01*
X48229083Y-4948239D01*
X48228316Y-4941434D01*
X48226710Y-4936491D01*
X48212141Y-4797885D01*
X48209000Y-4770000D01*
X48212139Y-4742139D01*
X48226710Y-4603508D01*
X48228316Y-4598563D01*
X48229083Y-4591761D01*
X48249302Y-4533975D01*
X48278445Y-4444287D01*
X48284134Y-4434433D01*
X48288324Y-4422459D01*
X48321881Y-4369052D01*
X48362148Y-4299309D01*
X48373918Y-4286236D01*
X48383753Y-4270585D01*
X48426512Y-4227825D01*
X48474169Y-4174898D01*
X48493444Y-4160893D01*
X48510585Y-4143753D01*
X48558314Y-4113762D01*
X48609603Y-4076499D01*
X48637109Y-4064252D01*
X48662459Y-4048324D01*
X48711158Y-4031283D01*
X48762544Y-4008405D01*
X48798202Y-4000825D01*
X48831761Y-3989083D01*
X48877912Y-3983882D01*
X48926295Y-3973599D01*
X48969183Y-3973599D01*
X49010000Y-3969000D01*
X49050817Y-3973599D01*
G37*
G36*
X51590817Y-3973599D02*
G01*
X51633705Y-3973599D01*
X51682086Y-3983882D01*
X51728239Y-3989083D01*
X51761799Y-4000826D01*
X51797455Y-4008405D01*
X51848838Y-4031282D01*
X51897541Y-4048324D01*
X51922891Y-4064252D01*
X51950397Y-4076499D01*
X52001683Y-4113761D01*
X52049415Y-4143753D01*
X52066557Y-4160895D01*
X52085830Y-4174898D01*
X52133477Y-4227815D01*
X52176247Y-4270585D01*
X52186084Y-4286240D01*
X52197851Y-4299309D01*
X52238106Y-4369032D01*
X52271676Y-4422459D01*
X52275867Y-4434437D01*
X52281554Y-4444287D01*
X52310683Y-4533935D01*
X52330917Y-4591761D01*
X52331684Y-4598568D01*
X52333289Y-4603508D01*
X52347845Y-4742007D01*
X52351000Y-4770000D01*
X52347843Y-4798017D01*
X52333289Y-4936491D01*
X52331684Y-4941429D01*
X52330917Y-4948239D01*
X52310678Y-5006077D01*
X52281554Y-5095712D01*
X52275868Y-5105559D01*
X52271676Y-5117541D01*
X52238098Y-5170978D01*
X52197851Y-5240690D01*
X52186086Y-5253756D01*
X52176247Y-5269415D01*
X52133468Y-5312193D01*
X52085830Y-5365101D01*
X52066561Y-5379100D01*
X52049415Y-5396247D01*
X52001673Y-5426245D01*
X51950397Y-5463500D01*
X51922896Y-5475743D01*
X51897541Y-5491676D01*
X51848828Y-5508721D01*
X51797455Y-5531594D01*
X51761804Y-5539171D01*
X51728239Y-5550917D01*
X51682083Y-5556117D01*
X51633705Y-5566401D01*
X51590817Y-5566401D01*
X51550000Y-5571000D01*
X51509183Y-5566401D01*
X51466295Y-5566401D01*
X51417915Y-5556117D01*
X51371761Y-5550917D01*
X51338196Y-5539172D01*
X51302544Y-5531594D01*
X51251167Y-5508719D01*
X51202459Y-5491676D01*
X51177105Y-5475745D01*
X51149602Y-5463500D01*
X51098319Y-5426240D01*
X51050585Y-5396247D01*
X51033441Y-5379103D01*
X51014169Y-5365101D01*
X50966521Y-5312183D01*
X50923753Y-5269415D01*
X50913916Y-5253759D01*
X50902148Y-5240690D01*
X50861888Y-5170958D01*
X50828324Y-5117541D01*
X50824133Y-5105564D01*
X50818445Y-5095712D01*
X50789307Y-5006037D01*
X50769083Y-4948239D01*
X50768316Y-4941434D01*
X50766710Y-4936491D01*
X50752140Y-4797874D01*
X50749000Y-4770000D01*
X50752140Y-4742128D01*
X50766710Y-4603508D01*
X50768316Y-4598563D01*
X50769083Y-4591761D01*
X50789302Y-4533975D01*
X50818445Y-4444287D01*
X50824134Y-4434433D01*
X50828324Y-4422459D01*
X50861881Y-4369052D01*
X50902148Y-4299309D01*
X50913918Y-4286236D01*
X50923753Y-4270585D01*
X50966512Y-4227825D01*
X51014169Y-4174898D01*
X51033444Y-4160893D01*
X51050585Y-4143753D01*
X51098314Y-4113762D01*
X51149603Y-4076499D01*
X51177109Y-4064252D01*
X51202459Y-4048324D01*
X51251158Y-4031283D01*
X51302544Y-4008405D01*
X51338202Y-4000825D01*
X51371761Y-3989083D01*
X51417912Y-3983882D01*
X51466295Y-3973599D01*
X51509183Y-3973599D01*
X51550000Y-3969000D01*
X51590817Y-3973599D01*
G37*
G36*
X54130817Y-3973599D02*
G01*
X54173705Y-3973599D01*
X54222086Y-3983882D01*
X54268239Y-3989083D01*
X54301799Y-4000826D01*
X54337455Y-4008405D01*
X54388838Y-4031282D01*
X54437541Y-4048324D01*
X54462891Y-4064252D01*
X54490397Y-4076499D01*
X54541683Y-4113761D01*
X54589415Y-4143753D01*
X54606557Y-4160895D01*
X54625830Y-4174898D01*
X54673477Y-4227815D01*
X54716247Y-4270585D01*
X54726084Y-4286240D01*
X54737851Y-4299309D01*
X54778106Y-4369032D01*
X54811676Y-4422459D01*
X54815867Y-4434437D01*
X54821554Y-4444287D01*
X54850683Y-4533935D01*
X54870917Y-4591761D01*
X54871684Y-4598568D01*
X54873289Y-4603508D01*
X54887845Y-4742007D01*
X54891000Y-4770000D01*
X54887843Y-4798017D01*
X54873289Y-4936491D01*
X54871684Y-4941429D01*
X54870917Y-4948239D01*
X54850678Y-5006077D01*
X54821554Y-5095712D01*
X54815868Y-5105559D01*
X54811676Y-5117541D01*
X54778098Y-5170978D01*
X54737851Y-5240690D01*
X54726086Y-5253756D01*
X54716247Y-5269415D01*
X54673468Y-5312193D01*
X54625830Y-5365101D01*
X54606561Y-5379100D01*
X54589415Y-5396247D01*
X54541673Y-5426245D01*
X54490397Y-5463500D01*
X54462896Y-5475743D01*
X54437541Y-5491676D01*
X54388828Y-5508721D01*
X54337455Y-5531594D01*
X54301804Y-5539171D01*
X54268239Y-5550917D01*
X54222083Y-5556117D01*
X54173705Y-5566401D01*
X54130817Y-5566401D01*
X54090000Y-5571000D01*
X54049183Y-5566401D01*
X54006295Y-5566401D01*
X53957915Y-5556117D01*
X53911761Y-5550917D01*
X53878196Y-5539172D01*
X53842544Y-5531594D01*
X53791167Y-5508719D01*
X53742459Y-5491676D01*
X53717105Y-5475745D01*
X53689602Y-5463500D01*
X53638319Y-5426240D01*
X53590585Y-5396247D01*
X53573441Y-5379103D01*
X53554169Y-5365101D01*
X53506521Y-5312183D01*
X53463753Y-5269415D01*
X53453916Y-5253759D01*
X53442148Y-5240690D01*
X53401888Y-5170958D01*
X53368324Y-5117541D01*
X53364133Y-5105564D01*
X53358445Y-5095712D01*
X53329307Y-5006037D01*
X53309083Y-4948239D01*
X53308316Y-4941434D01*
X53306710Y-4936491D01*
X53292140Y-4797874D01*
X53289000Y-4770000D01*
X53292140Y-4742128D01*
X53306710Y-4603508D01*
X53308316Y-4598563D01*
X53309083Y-4591761D01*
X53329302Y-4533975D01*
X53358445Y-4444287D01*
X53364134Y-4434433D01*
X53368324Y-4422459D01*
X53401881Y-4369052D01*
X53442148Y-4299309D01*
X53453918Y-4286236D01*
X53463753Y-4270585D01*
X53506512Y-4227825D01*
X53554169Y-4174898D01*
X53573444Y-4160893D01*
X53590585Y-4143753D01*
X53638314Y-4113762D01*
X53689603Y-4076499D01*
X53717109Y-4064252D01*
X53742459Y-4048324D01*
X53791158Y-4031283D01*
X53842544Y-4008405D01*
X53878202Y-4000825D01*
X53911761Y-3989083D01*
X53957912Y-3983882D01*
X54006295Y-3973599D01*
X54049183Y-3973599D01*
X54090000Y-3969000D01*
X54130817Y-3973599D01*
G37*
G36*
X56670817Y-3973599D02*
G01*
X56713705Y-3973599D01*
X56762086Y-3983882D01*
X56808239Y-3989083D01*
X56841799Y-4000826D01*
X56877455Y-4008405D01*
X56928838Y-4031282D01*
X56977541Y-4048324D01*
X57002891Y-4064252D01*
X57030397Y-4076499D01*
X57081683Y-4113761D01*
X57129415Y-4143753D01*
X57146557Y-4160895D01*
X57165830Y-4174898D01*
X57213477Y-4227815D01*
X57256247Y-4270585D01*
X57266084Y-4286240D01*
X57277851Y-4299309D01*
X57318106Y-4369032D01*
X57351676Y-4422459D01*
X57355867Y-4434437D01*
X57361554Y-4444287D01*
X57390683Y-4533935D01*
X57410917Y-4591761D01*
X57411684Y-4598568D01*
X57413289Y-4603508D01*
X57427845Y-4742007D01*
X57431000Y-4770000D01*
X57427843Y-4798017D01*
X57413289Y-4936491D01*
X57411684Y-4941429D01*
X57410917Y-4948239D01*
X57390678Y-5006077D01*
X57361554Y-5095712D01*
X57355868Y-5105559D01*
X57351676Y-5117541D01*
X57318098Y-5170978D01*
X57277851Y-5240690D01*
X57266086Y-5253756D01*
X57256247Y-5269415D01*
X57213468Y-5312193D01*
X57165830Y-5365101D01*
X57146561Y-5379100D01*
X57129415Y-5396247D01*
X57081673Y-5426245D01*
X57030397Y-5463500D01*
X57002896Y-5475743D01*
X56977541Y-5491676D01*
X56928828Y-5508721D01*
X56877455Y-5531594D01*
X56841804Y-5539171D01*
X56808239Y-5550917D01*
X56762083Y-5556117D01*
X56713705Y-5566401D01*
X56670817Y-5566401D01*
X56630000Y-5571000D01*
X56589183Y-5566401D01*
X56546295Y-5566401D01*
X56497915Y-5556117D01*
X56451761Y-5550917D01*
X56418196Y-5539172D01*
X56382544Y-5531594D01*
X56331167Y-5508719D01*
X56282459Y-5491676D01*
X56257105Y-5475745D01*
X56229602Y-5463500D01*
X56178319Y-5426240D01*
X56130585Y-5396247D01*
X56113441Y-5379103D01*
X56094169Y-5365101D01*
X56046521Y-5312183D01*
X56003753Y-5269415D01*
X55993916Y-5253759D01*
X55982148Y-5240690D01*
X55941888Y-5170958D01*
X55908324Y-5117541D01*
X55904133Y-5105564D01*
X55898445Y-5095712D01*
X55869307Y-5006037D01*
X55849083Y-4948239D01*
X55848316Y-4941434D01*
X55846710Y-4936491D01*
X55832141Y-4797885D01*
X55829000Y-4770000D01*
X55832139Y-4742139D01*
X55846710Y-4603508D01*
X55848316Y-4598563D01*
X55849083Y-4591761D01*
X55869302Y-4533975D01*
X55898445Y-4444287D01*
X55904134Y-4434433D01*
X55908324Y-4422459D01*
X55941881Y-4369052D01*
X55982148Y-4299309D01*
X55993918Y-4286236D01*
X56003753Y-4270585D01*
X56046512Y-4227825D01*
X56094169Y-4174898D01*
X56113444Y-4160893D01*
X56130585Y-4143753D01*
X56178314Y-4113762D01*
X56229603Y-4076499D01*
X56257109Y-4064252D01*
X56282459Y-4048324D01*
X56331158Y-4031283D01*
X56382544Y-4008405D01*
X56418202Y-4000825D01*
X56451761Y-3989083D01*
X56497912Y-3983882D01*
X56546295Y-3973599D01*
X56589183Y-3973599D01*
X56630000Y-3969000D01*
X56670817Y-3973599D01*
G37*
G36*
X8410817Y-1433599D02*
G01*
X8453705Y-1433599D01*
X8502086Y-1443882D01*
X8548239Y-1449083D01*
X8581799Y-1460826D01*
X8617455Y-1468405D01*
X8668838Y-1491282D01*
X8717541Y-1508324D01*
X8742891Y-1524252D01*
X8770397Y-1536499D01*
X8821683Y-1573761D01*
X8869415Y-1603753D01*
X8886557Y-1620895D01*
X8905830Y-1634898D01*
X8953477Y-1687815D01*
X8996247Y-1730585D01*
X9006084Y-1746240D01*
X9017851Y-1759309D01*
X9058106Y-1829032D01*
X9091676Y-1882459D01*
X9095867Y-1894437D01*
X9101554Y-1904287D01*
X9130683Y-1993935D01*
X9150917Y-2051761D01*
X9151684Y-2058568D01*
X9153289Y-2063508D01*
X9167844Y-2201996D01*
X9171000Y-2230000D01*
X9167844Y-2258006D01*
X9153289Y-2396491D01*
X9151684Y-2401429D01*
X9150917Y-2408239D01*
X9130678Y-2466077D01*
X9101554Y-2555712D01*
X9095868Y-2565559D01*
X9091676Y-2577541D01*
X9058098Y-2630978D01*
X9017851Y-2700690D01*
X9006086Y-2713756D01*
X8996247Y-2729415D01*
X8953468Y-2772193D01*
X8905830Y-2825101D01*
X8886561Y-2839100D01*
X8869415Y-2856247D01*
X8821673Y-2886245D01*
X8770397Y-2923500D01*
X8742896Y-2935743D01*
X8717541Y-2951676D01*
X8668828Y-2968721D01*
X8617455Y-2991594D01*
X8581804Y-2999171D01*
X8548239Y-3010917D01*
X8502083Y-3016117D01*
X8453705Y-3026401D01*
X8410817Y-3026401D01*
X8370000Y-3031000D01*
X8329183Y-3026401D01*
X8286295Y-3026401D01*
X8237915Y-3016117D01*
X8191761Y-3010917D01*
X8158196Y-2999172D01*
X8122544Y-2991594D01*
X8071167Y-2968719D01*
X8022459Y-2951676D01*
X7997105Y-2935745D01*
X7969602Y-2923500D01*
X7918319Y-2886240D01*
X7870585Y-2856247D01*
X7853441Y-2839103D01*
X7834169Y-2825101D01*
X7786521Y-2772183D01*
X7743753Y-2729415D01*
X7733916Y-2713759D01*
X7722148Y-2700690D01*
X7681888Y-2630958D01*
X7648324Y-2577541D01*
X7644133Y-2565564D01*
X7638445Y-2555712D01*
X7609307Y-2466037D01*
X7589083Y-2408239D01*
X7588316Y-2401434D01*
X7586710Y-2396491D01*
X7572140Y-2257874D01*
X7569000Y-2230000D01*
X7572140Y-2202128D01*
X7586710Y-2063508D01*
X7588316Y-2058563D01*
X7589083Y-2051761D01*
X7609302Y-1993975D01*
X7638445Y-1904287D01*
X7644134Y-1894433D01*
X7648324Y-1882459D01*
X7681881Y-1829052D01*
X7722148Y-1759309D01*
X7733918Y-1746236D01*
X7743753Y-1730585D01*
X7786512Y-1687825D01*
X7834169Y-1634898D01*
X7853444Y-1620893D01*
X7870585Y-1603753D01*
X7918314Y-1573762D01*
X7969603Y-1536499D01*
X7997109Y-1524252D01*
X8022459Y-1508324D01*
X8071158Y-1491283D01*
X8122544Y-1468405D01*
X8158202Y-1460825D01*
X8191761Y-1449083D01*
X8237912Y-1443882D01*
X8286295Y-1433599D01*
X8329183Y-1433599D01*
X8370000Y-1429000D01*
X8410817Y-1433599D01*
G37*
G36*
X10950817Y-1433599D02*
G01*
X10993705Y-1433599D01*
X11042086Y-1443882D01*
X11088239Y-1449083D01*
X11121799Y-1460826D01*
X11157455Y-1468405D01*
X11208838Y-1491282D01*
X11257541Y-1508324D01*
X11282891Y-1524252D01*
X11310397Y-1536499D01*
X11361683Y-1573761D01*
X11409415Y-1603753D01*
X11426557Y-1620895D01*
X11445830Y-1634898D01*
X11493477Y-1687815D01*
X11536247Y-1730585D01*
X11546084Y-1746240D01*
X11557851Y-1759309D01*
X11598106Y-1829032D01*
X11631676Y-1882459D01*
X11635867Y-1894437D01*
X11641554Y-1904287D01*
X11670683Y-1993935D01*
X11690917Y-2051761D01*
X11691684Y-2058568D01*
X11693289Y-2063508D01*
X11707844Y-2201996D01*
X11711000Y-2230000D01*
X11707844Y-2258006D01*
X11693289Y-2396491D01*
X11691684Y-2401429D01*
X11690917Y-2408239D01*
X11670678Y-2466077D01*
X11641554Y-2555712D01*
X11635868Y-2565559D01*
X11631676Y-2577541D01*
X11598098Y-2630978D01*
X11557851Y-2700690D01*
X11546086Y-2713756D01*
X11536247Y-2729415D01*
X11493468Y-2772193D01*
X11445830Y-2825101D01*
X11426561Y-2839100D01*
X11409415Y-2856247D01*
X11361673Y-2886245D01*
X11310397Y-2923500D01*
X11282896Y-2935743D01*
X11257541Y-2951676D01*
X11208828Y-2968721D01*
X11157455Y-2991594D01*
X11121804Y-2999171D01*
X11088239Y-3010917D01*
X11042083Y-3016117D01*
X10993705Y-3026401D01*
X10950817Y-3026401D01*
X10910000Y-3031000D01*
X10869183Y-3026401D01*
X10826295Y-3026401D01*
X10777915Y-3016117D01*
X10731761Y-3010917D01*
X10698196Y-2999172D01*
X10662544Y-2991594D01*
X10611167Y-2968719D01*
X10562459Y-2951676D01*
X10537105Y-2935745D01*
X10509602Y-2923500D01*
X10458319Y-2886240D01*
X10410585Y-2856247D01*
X10393441Y-2839103D01*
X10374169Y-2825101D01*
X10326521Y-2772183D01*
X10283753Y-2729415D01*
X10273916Y-2713759D01*
X10262148Y-2700690D01*
X10221888Y-2630958D01*
X10188324Y-2577541D01*
X10184133Y-2565564D01*
X10178445Y-2555712D01*
X10149307Y-2466037D01*
X10129083Y-2408239D01*
X10128316Y-2401434D01*
X10126710Y-2396491D01*
X10112140Y-2257874D01*
X10109000Y-2230000D01*
X10112140Y-2202128D01*
X10126710Y-2063508D01*
X10128316Y-2058563D01*
X10129083Y-2051761D01*
X10149302Y-1993975D01*
X10178445Y-1904287D01*
X10184134Y-1894433D01*
X10188324Y-1882459D01*
X10221881Y-1829052D01*
X10262148Y-1759309D01*
X10273918Y-1746236D01*
X10283753Y-1730585D01*
X10326512Y-1687825D01*
X10374169Y-1634898D01*
X10393444Y-1620893D01*
X10410585Y-1603753D01*
X10458314Y-1573762D01*
X10509603Y-1536499D01*
X10537109Y-1524252D01*
X10562459Y-1508324D01*
X10611158Y-1491283D01*
X10662544Y-1468405D01*
X10698202Y-1460825D01*
X10731761Y-1449083D01*
X10777912Y-1443882D01*
X10826295Y-1433599D01*
X10869183Y-1433599D01*
X10910000Y-1429000D01*
X10950817Y-1433599D01*
G37*
G36*
X13490817Y-1433599D02*
G01*
X13533705Y-1433599D01*
X13582086Y-1443882D01*
X13628239Y-1449083D01*
X13661799Y-1460826D01*
X13697455Y-1468405D01*
X13748838Y-1491282D01*
X13797541Y-1508324D01*
X13822891Y-1524252D01*
X13850397Y-1536499D01*
X13901683Y-1573761D01*
X13949415Y-1603753D01*
X13966557Y-1620895D01*
X13985830Y-1634898D01*
X14033477Y-1687815D01*
X14076247Y-1730585D01*
X14086084Y-1746240D01*
X14097851Y-1759309D01*
X14138106Y-1829032D01*
X14171676Y-1882459D01*
X14175867Y-1894437D01*
X14181554Y-1904287D01*
X14210683Y-1993935D01*
X14230917Y-2051761D01*
X14231684Y-2058568D01*
X14233289Y-2063508D01*
X14247844Y-2201996D01*
X14251000Y-2230000D01*
X14247844Y-2258006D01*
X14233289Y-2396491D01*
X14231684Y-2401429D01*
X14230917Y-2408239D01*
X14210678Y-2466077D01*
X14181554Y-2555712D01*
X14175868Y-2565559D01*
X14171676Y-2577541D01*
X14138098Y-2630978D01*
X14097851Y-2700690D01*
X14086086Y-2713756D01*
X14076247Y-2729415D01*
X14033468Y-2772193D01*
X13985830Y-2825101D01*
X13966561Y-2839100D01*
X13949415Y-2856247D01*
X13901673Y-2886245D01*
X13850397Y-2923500D01*
X13822896Y-2935743D01*
X13797541Y-2951676D01*
X13748828Y-2968721D01*
X13697455Y-2991594D01*
X13661804Y-2999171D01*
X13628239Y-3010917D01*
X13582083Y-3016117D01*
X13533705Y-3026401D01*
X13490817Y-3026401D01*
X13450000Y-3031000D01*
X13409183Y-3026401D01*
X13366295Y-3026401D01*
X13317915Y-3016117D01*
X13271761Y-3010917D01*
X13238196Y-2999172D01*
X13202544Y-2991594D01*
X13151167Y-2968719D01*
X13102459Y-2951676D01*
X13077105Y-2935745D01*
X13049602Y-2923500D01*
X12998319Y-2886240D01*
X12950585Y-2856247D01*
X12933441Y-2839103D01*
X12914169Y-2825101D01*
X12866521Y-2772183D01*
X12823753Y-2729415D01*
X12813916Y-2713759D01*
X12802148Y-2700690D01*
X12761888Y-2630958D01*
X12728324Y-2577541D01*
X12724133Y-2565564D01*
X12718445Y-2555712D01*
X12689307Y-2466037D01*
X12669083Y-2408239D01*
X12668316Y-2401434D01*
X12666710Y-2396491D01*
X12652140Y-2257874D01*
X12649000Y-2230000D01*
X12652140Y-2202128D01*
X12666710Y-2063508D01*
X12668316Y-2058563D01*
X12669083Y-2051761D01*
X12689302Y-1993975D01*
X12718445Y-1904287D01*
X12724134Y-1894433D01*
X12728324Y-1882459D01*
X12761881Y-1829052D01*
X12802148Y-1759309D01*
X12813918Y-1746236D01*
X12823753Y-1730585D01*
X12866512Y-1687825D01*
X12914169Y-1634898D01*
X12933444Y-1620893D01*
X12950585Y-1603753D01*
X12998314Y-1573762D01*
X13049603Y-1536499D01*
X13077109Y-1524252D01*
X13102459Y-1508324D01*
X13151158Y-1491283D01*
X13202544Y-1468405D01*
X13238202Y-1460825D01*
X13271761Y-1449083D01*
X13317912Y-1443882D01*
X13366295Y-1433599D01*
X13409183Y-1433599D01*
X13450000Y-1429000D01*
X13490817Y-1433599D01*
G37*
G36*
X16030817Y-1433599D02*
G01*
X16073705Y-1433599D01*
X16122086Y-1443882D01*
X16168239Y-1449083D01*
X16201799Y-1460826D01*
X16237455Y-1468405D01*
X16288838Y-1491282D01*
X16337541Y-1508324D01*
X16362891Y-1524252D01*
X16390397Y-1536499D01*
X16441683Y-1573761D01*
X16489415Y-1603753D01*
X16506557Y-1620895D01*
X16525830Y-1634898D01*
X16573477Y-1687815D01*
X16616247Y-1730585D01*
X16626084Y-1746240D01*
X16637851Y-1759309D01*
X16678106Y-1829032D01*
X16711676Y-1882459D01*
X16715867Y-1894437D01*
X16721554Y-1904287D01*
X16750683Y-1993935D01*
X16770917Y-2051761D01*
X16771684Y-2058568D01*
X16773289Y-2063508D01*
X16787844Y-2201996D01*
X16791000Y-2230000D01*
X16787844Y-2258006D01*
X16773289Y-2396491D01*
X16771684Y-2401429D01*
X16770917Y-2408239D01*
X16750678Y-2466077D01*
X16721554Y-2555712D01*
X16715868Y-2565559D01*
X16711676Y-2577541D01*
X16678098Y-2630978D01*
X16637851Y-2700690D01*
X16626086Y-2713756D01*
X16616247Y-2729415D01*
X16573468Y-2772193D01*
X16525830Y-2825101D01*
X16506561Y-2839100D01*
X16489415Y-2856247D01*
X16441673Y-2886245D01*
X16390397Y-2923500D01*
X16362896Y-2935743D01*
X16337541Y-2951676D01*
X16288828Y-2968721D01*
X16237455Y-2991594D01*
X16201804Y-2999171D01*
X16168239Y-3010917D01*
X16122083Y-3016117D01*
X16073705Y-3026401D01*
X16030817Y-3026401D01*
X15990000Y-3031000D01*
X15949183Y-3026401D01*
X15906295Y-3026401D01*
X15857915Y-3016117D01*
X15811761Y-3010917D01*
X15778196Y-2999172D01*
X15742544Y-2991594D01*
X15691167Y-2968719D01*
X15642459Y-2951676D01*
X15617105Y-2935745D01*
X15589602Y-2923500D01*
X15538319Y-2886240D01*
X15490585Y-2856247D01*
X15473441Y-2839103D01*
X15454169Y-2825101D01*
X15406521Y-2772183D01*
X15363753Y-2729415D01*
X15353916Y-2713759D01*
X15342148Y-2700690D01*
X15301888Y-2630958D01*
X15268324Y-2577541D01*
X15264133Y-2565564D01*
X15258445Y-2555712D01*
X15229307Y-2466037D01*
X15209083Y-2408239D01*
X15208316Y-2401434D01*
X15206710Y-2396491D01*
X15192140Y-2257874D01*
X15189000Y-2230000D01*
X15192140Y-2202128D01*
X15206710Y-2063508D01*
X15208316Y-2058563D01*
X15209083Y-2051761D01*
X15229302Y-1993975D01*
X15258445Y-1904287D01*
X15264134Y-1894433D01*
X15268324Y-1882459D01*
X15301881Y-1829052D01*
X15342148Y-1759309D01*
X15353918Y-1746236D01*
X15363753Y-1730585D01*
X15406512Y-1687825D01*
X15454169Y-1634898D01*
X15473444Y-1620893D01*
X15490585Y-1603753D01*
X15538314Y-1573762D01*
X15589603Y-1536499D01*
X15617109Y-1524252D01*
X15642459Y-1508324D01*
X15691158Y-1491283D01*
X15742544Y-1468405D01*
X15778202Y-1460825D01*
X15811761Y-1449083D01*
X15857912Y-1443882D01*
X15906295Y-1433599D01*
X15949183Y-1433599D01*
X15990000Y-1429000D01*
X16030817Y-1433599D01*
G37*
G36*
X18570817Y-1433599D02*
G01*
X18613705Y-1433599D01*
X18662086Y-1443882D01*
X18708239Y-1449083D01*
X18741799Y-1460826D01*
X18777455Y-1468405D01*
X18828838Y-1491282D01*
X18877541Y-1508324D01*
X18902891Y-1524252D01*
X18930397Y-1536499D01*
X18981683Y-1573761D01*
X19029415Y-1603753D01*
X19046557Y-1620895D01*
X19065830Y-1634898D01*
X19113477Y-1687815D01*
X19156247Y-1730585D01*
X19166084Y-1746240D01*
X19177851Y-1759309D01*
X19218106Y-1829032D01*
X19251676Y-1882459D01*
X19255867Y-1894437D01*
X19261554Y-1904287D01*
X19290683Y-1993935D01*
X19310917Y-2051761D01*
X19311684Y-2058568D01*
X19313289Y-2063508D01*
X19327844Y-2201996D01*
X19331000Y-2230000D01*
X19327844Y-2258006D01*
X19313289Y-2396491D01*
X19311684Y-2401429D01*
X19310917Y-2408239D01*
X19290678Y-2466077D01*
X19261554Y-2555712D01*
X19255868Y-2565559D01*
X19251676Y-2577541D01*
X19218098Y-2630978D01*
X19177851Y-2700690D01*
X19166086Y-2713756D01*
X19156247Y-2729415D01*
X19113468Y-2772193D01*
X19065830Y-2825101D01*
X19046561Y-2839100D01*
X19029415Y-2856247D01*
X18981673Y-2886245D01*
X18930397Y-2923500D01*
X18902896Y-2935743D01*
X18877541Y-2951676D01*
X18828828Y-2968721D01*
X18777455Y-2991594D01*
X18741804Y-2999171D01*
X18708239Y-3010917D01*
X18662083Y-3016117D01*
X18613705Y-3026401D01*
X18570817Y-3026401D01*
X18530000Y-3031000D01*
X18489183Y-3026401D01*
X18446295Y-3026401D01*
X18397915Y-3016117D01*
X18351761Y-3010917D01*
X18318196Y-2999172D01*
X18282544Y-2991594D01*
X18231167Y-2968719D01*
X18182459Y-2951676D01*
X18157105Y-2935745D01*
X18129602Y-2923500D01*
X18078319Y-2886240D01*
X18030585Y-2856247D01*
X18013441Y-2839103D01*
X17994169Y-2825101D01*
X17946521Y-2772183D01*
X17903753Y-2729415D01*
X17893916Y-2713759D01*
X17882148Y-2700690D01*
X17841888Y-2630958D01*
X17808324Y-2577541D01*
X17804133Y-2565564D01*
X17798445Y-2555712D01*
X17769307Y-2466037D01*
X17749083Y-2408239D01*
X17748316Y-2401434D01*
X17746710Y-2396491D01*
X17732140Y-2257874D01*
X17729000Y-2230000D01*
X17732140Y-2202128D01*
X17746710Y-2063508D01*
X17748316Y-2058563D01*
X17749083Y-2051761D01*
X17769302Y-1993975D01*
X17798445Y-1904287D01*
X17804134Y-1894433D01*
X17808324Y-1882459D01*
X17841881Y-1829052D01*
X17882148Y-1759309D01*
X17893918Y-1746236D01*
X17903753Y-1730585D01*
X17946512Y-1687825D01*
X17994169Y-1634898D01*
X18013444Y-1620893D01*
X18030585Y-1603753D01*
X18078314Y-1573762D01*
X18129603Y-1536499D01*
X18157109Y-1524252D01*
X18182459Y-1508324D01*
X18231158Y-1491283D01*
X18282544Y-1468405D01*
X18318202Y-1460825D01*
X18351761Y-1449083D01*
X18397912Y-1443882D01*
X18446295Y-1433599D01*
X18489183Y-1433599D01*
X18530000Y-1429000D01*
X18570817Y-1433599D01*
G37*
G36*
X21110817Y-1433599D02*
G01*
X21153705Y-1433599D01*
X21202086Y-1443882D01*
X21248239Y-1449083D01*
X21281799Y-1460826D01*
X21317455Y-1468405D01*
X21368838Y-1491282D01*
X21417541Y-1508324D01*
X21442891Y-1524252D01*
X21470397Y-1536499D01*
X21521683Y-1573761D01*
X21569415Y-1603753D01*
X21586557Y-1620895D01*
X21605830Y-1634898D01*
X21653477Y-1687815D01*
X21696247Y-1730585D01*
X21706084Y-1746240D01*
X21717851Y-1759309D01*
X21758106Y-1829032D01*
X21791676Y-1882459D01*
X21795867Y-1894437D01*
X21801554Y-1904287D01*
X21830683Y-1993935D01*
X21850917Y-2051761D01*
X21851684Y-2058568D01*
X21853289Y-2063508D01*
X21867844Y-2201996D01*
X21871000Y-2230000D01*
X21867844Y-2258006D01*
X21853289Y-2396491D01*
X21851684Y-2401429D01*
X21850917Y-2408239D01*
X21830678Y-2466077D01*
X21801554Y-2555712D01*
X21795868Y-2565559D01*
X21791676Y-2577541D01*
X21758098Y-2630978D01*
X21717851Y-2700690D01*
X21706086Y-2713756D01*
X21696247Y-2729415D01*
X21653468Y-2772193D01*
X21605830Y-2825101D01*
X21586561Y-2839100D01*
X21569415Y-2856247D01*
X21521673Y-2886245D01*
X21470397Y-2923500D01*
X21442896Y-2935743D01*
X21417541Y-2951676D01*
X21368828Y-2968721D01*
X21317455Y-2991594D01*
X21281804Y-2999171D01*
X21248239Y-3010917D01*
X21202083Y-3016117D01*
X21153705Y-3026401D01*
X21110817Y-3026401D01*
X21070000Y-3031000D01*
X21029183Y-3026401D01*
X20986295Y-3026401D01*
X20937915Y-3016117D01*
X20891761Y-3010917D01*
X20858196Y-2999172D01*
X20822544Y-2991594D01*
X20771167Y-2968719D01*
X20722459Y-2951676D01*
X20697105Y-2935745D01*
X20669602Y-2923500D01*
X20618319Y-2886240D01*
X20570585Y-2856247D01*
X20553441Y-2839103D01*
X20534169Y-2825101D01*
X20486521Y-2772183D01*
X20443753Y-2729415D01*
X20433916Y-2713759D01*
X20422148Y-2700690D01*
X20381888Y-2630958D01*
X20348324Y-2577541D01*
X20344133Y-2565564D01*
X20338445Y-2555712D01*
X20309307Y-2466037D01*
X20289083Y-2408239D01*
X20288316Y-2401434D01*
X20286710Y-2396491D01*
X20272140Y-2257874D01*
X20269000Y-2230000D01*
X20272140Y-2202128D01*
X20286710Y-2063508D01*
X20288316Y-2058563D01*
X20289083Y-2051761D01*
X20309302Y-1993975D01*
X20338445Y-1904287D01*
X20344134Y-1894433D01*
X20348324Y-1882459D01*
X20381881Y-1829052D01*
X20422148Y-1759309D01*
X20433918Y-1746236D01*
X20443753Y-1730585D01*
X20486512Y-1687825D01*
X20534169Y-1634898D01*
X20553444Y-1620893D01*
X20570585Y-1603753D01*
X20618314Y-1573762D01*
X20669603Y-1536499D01*
X20697109Y-1524252D01*
X20722459Y-1508324D01*
X20771158Y-1491283D01*
X20822544Y-1468405D01*
X20858202Y-1460825D01*
X20891761Y-1449083D01*
X20937912Y-1443882D01*
X20986295Y-1433599D01*
X21029183Y-1433599D01*
X21070000Y-1429000D01*
X21110817Y-1433599D01*
G37*
G36*
X23650817Y-1433599D02*
G01*
X23693705Y-1433599D01*
X23742086Y-1443882D01*
X23788239Y-1449083D01*
X23821799Y-1460826D01*
X23857455Y-1468405D01*
X23908838Y-1491282D01*
X23957541Y-1508324D01*
X23982891Y-1524252D01*
X24010397Y-1536499D01*
X24061683Y-1573761D01*
X24109415Y-1603753D01*
X24126557Y-1620895D01*
X24145830Y-1634898D01*
X24193477Y-1687815D01*
X24236247Y-1730585D01*
X24246084Y-1746240D01*
X24257851Y-1759309D01*
X24298106Y-1829032D01*
X24331676Y-1882459D01*
X24335867Y-1894437D01*
X24341554Y-1904287D01*
X24370683Y-1993935D01*
X24390917Y-2051761D01*
X24391684Y-2058568D01*
X24393289Y-2063508D01*
X24407844Y-2201996D01*
X24411000Y-2230000D01*
X24407844Y-2258006D01*
X24393289Y-2396491D01*
X24391684Y-2401429D01*
X24390917Y-2408239D01*
X24370678Y-2466077D01*
X24341554Y-2555712D01*
X24335868Y-2565559D01*
X24331676Y-2577541D01*
X24298098Y-2630978D01*
X24257851Y-2700690D01*
X24246086Y-2713756D01*
X24236247Y-2729415D01*
X24193468Y-2772193D01*
X24145830Y-2825101D01*
X24126561Y-2839100D01*
X24109415Y-2856247D01*
X24061673Y-2886245D01*
X24010397Y-2923500D01*
X23982896Y-2935743D01*
X23957541Y-2951676D01*
X23908828Y-2968721D01*
X23857455Y-2991594D01*
X23821804Y-2999171D01*
X23788239Y-3010917D01*
X23742083Y-3016117D01*
X23693705Y-3026401D01*
X23650817Y-3026401D01*
X23610000Y-3031000D01*
X23569183Y-3026401D01*
X23526295Y-3026401D01*
X23477915Y-3016117D01*
X23431761Y-3010917D01*
X23398196Y-2999172D01*
X23362544Y-2991594D01*
X23311167Y-2968719D01*
X23262459Y-2951676D01*
X23237105Y-2935745D01*
X23209602Y-2923500D01*
X23158319Y-2886240D01*
X23110585Y-2856247D01*
X23093441Y-2839103D01*
X23074169Y-2825101D01*
X23026521Y-2772183D01*
X22983753Y-2729415D01*
X22973916Y-2713759D01*
X22962148Y-2700690D01*
X22921888Y-2630958D01*
X22888324Y-2577541D01*
X22884133Y-2565564D01*
X22878445Y-2555712D01*
X22849307Y-2466037D01*
X22829083Y-2408239D01*
X22828316Y-2401434D01*
X22826710Y-2396491D01*
X22812140Y-2257874D01*
X22809000Y-2230000D01*
X22812140Y-2202128D01*
X22826710Y-2063508D01*
X22828316Y-2058563D01*
X22829083Y-2051761D01*
X22849302Y-1993975D01*
X22878445Y-1904287D01*
X22884134Y-1894433D01*
X22888324Y-1882459D01*
X22921881Y-1829052D01*
X22962148Y-1759309D01*
X22973918Y-1746236D01*
X22983753Y-1730585D01*
X23026512Y-1687825D01*
X23074169Y-1634898D01*
X23093444Y-1620893D01*
X23110585Y-1603753D01*
X23158314Y-1573762D01*
X23209603Y-1536499D01*
X23237109Y-1524252D01*
X23262459Y-1508324D01*
X23311158Y-1491283D01*
X23362544Y-1468405D01*
X23398202Y-1460825D01*
X23431761Y-1449083D01*
X23477912Y-1443882D01*
X23526295Y-1433599D01*
X23569183Y-1433599D01*
X23610000Y-1429000D01*
X23650817Y-1433599D01*
G37*
G36*
X26190817Y-1433599D02*
G01*
X26233705Y-1433599D01*
X26282086Y-1443882D01*
X26328239Y-1449083D01*
X26361799Y-1460826D01*
X26397455Y-1468405D01*
X26448838Y-1491282D01*
X26497541Y-1508324D01*
X26522891Y-1524252D01*
X26550397Y-1536499D01*
X26601683Y-1573761D01*
X26649415Y-1603753D01*
X26666557Y-1620895D01*
X26685830Y-1634898D01*
X26733477Y-1687815D01*
X26776247Y-1730585D01*
X26786084Y-1746240D01*
X26797851Y-1759309D01*
X26838106Y-1829032D01*
X26871676Y-1882459D01*
X26875867Y-1894437D01*
X26881554Y-1904287D01*
X26910683Y-1993935D01*
X26930917Y-2051761D01*
X26931684Y-2058568D01*
X26933289Y-2063508D01*
X26947844Y-2201996D01*
X26951000Y-2230000D01*
X26947844Y-2258006D01*
X26933289Y-2396491D01*
X26931684Y-2401429D01*
X26930917Y-2408239D01*
X26910678Y-2466077D01*
X26881554Y-2555712D01*
X26875868Y-2565559D01*
X26871676Y-2577541D01*
X26838098Y-2630978D01*
X26797851Y-2700690D01*
X26786086Y-2713756D01*
X26776247Y-2729415D01*
X26733468Y-2772193D01*
X26685830Y-2825101D01*
X26666561Y-2839100D01*
X26649415Y-2856247D01*
X26601673Y-2886245D01*
X26550397Y-2923500D01*
X26522896Y-2935743D01*
X26497541Y-2951676D01*
X26448828Y-2968721D01*
X26397455Y-2991594D01*
X26361804Y-2999171D01*
X26328239Y-3010917D01*
X26282083Y-3016117D01*
X26233705Y-3026401D01*
X26190817Y-3026401D01*
X26150000Y-3031000D01*
X26109183Y-3026401D01*
X26066295Y-3026401D01*
X26017915Y-3016117D01*
X25971761Y-3010917D01*
X25938196Y-2999172D01*
X25902544Y-2991594D01*
X25851167Y-2968719D01*
X25802459Y-2951676D01*
X25777105Y-2935745D01*
X25749602Y-2923500D01*
X25698319Y-2886240D01*
X25650585Y-2856247D01*
X25633441Y-2839103D01*
X25614169Y-2825101D01*
X25566521Y-2772183D01*
X25523753Y-2729415D01*
X25513916Y-2713759D01*
X25502148Y-2700690D01*
X25461888Y-2630958D01*
X25428324Y-2577541D01*
X25424133Y-2565564D01*
X25418445Y-2555712D01*
X25389307Y-2466037D01*
X25369083Y-2408239D01*
X25368316Y-2401434D01*
X25366710Y-2396491D01*
X25352140Y-2257874D01*
X25349000Y-2230000D01*
X25352140Y-2202128D01*
X25366710Y-2063508D01*
X25368316Y-2058563D01*
X25369083Y-2051761D01*
X25389302Y-1993975D01*
X25418445Y-1904287D01*
X25424134Y-1894433D01*
X25428324Y-1882459D01*
X25461881Y-1829052D01*
X25502148Y-1759309D01*
X25513918Y-1746236D01*
X25523753Y-1730585D01*
X25566512Y-1687825D01*
X25614169Y-1634898D01*
X25633444Y-1620893D01*
X25650585Y-1603753D01*
X25698314Y-1573762D01*
X25749603Y-1536499D01*
X25777109Y-1524252D01*
X25802459Y-1508324D01*
X25851158Y-1491283D01*
X25902544Y-1468405D01*
X25938202Y-1460825D01*
X25971761Y-1449083D01*
X26017912Y-1443882D01*
X26066295Y-1433599D01*
X26109183Y-1433599D01*
X26150000Y-1429000D01*
X26190817Y-1433599D01*
G37*
G36*
X28730817Y-1433599D02*
G01*
X28773705Y-1433599D01*
X28822086Y-1443882D01*
X28868239Y-1449083D01*
X28901799Y-1460826D01*
X28937455Y-1468405D01*
X28988838Y-1491282D01*
X29037541Y-1508324D01*
X29062891Y-1524252D01*
X29090397Y-1536499D01*
X29141683Y-1573761D01*
X29189415Y-1603753D01*
X29206557Y-1620895D01*
X29225830Y-1634898D01*
X29273477Y-1687815D01*
X29316247Y-1730585D01*
X29326084Y-1746240D01*
X29337851Y-1759309D01*
X29378106Y-1829032D01*
X29411676Y-1882459D01*
X29415867Y-1894437D01*
X29421554Y-1904287D01*
X29450683Y-1993935D01*
X29470917Y-2051761D01*
X29471684Y-2058568D01*
X29473289Y-2063508D01*
X29487844Y-2201996D01*
X29491000Y-2230000D01*
X29487844Y-2258006D01*
X29473289Y-2396491D01*
X29471684Y-2401429D01*
X29470917Y-2408239D01*
X29450678Y-2466077D01*
X29421554Y-2555712D01*
X29415868Y-2565559D01*
X29411676Y-2577541D01*
X29378098Y-2630978D01*
X29337851Y-2700690D01*
X29326086Y-2713756D01*
X29316247Y-2729415D01*
X29273468Y-2772193D01*
X29225830Y-2825101D01*
X29206561Y-2839100D01*
X29189415Y-2856247D01*
X29141673Y-2886245D01*
X29090397Y-2923500D01*
X29062896Y-2935743D01*
X29037541Y-2951676D01*
X28988828Y-2968721D01*
X28937455Y-2991594D01*
X28901804Y-2999171D01*
X28868239Y-3010917D01*
X28822083Y-3016117D01*
X28773705Y-3026401D01*
X28730817Y-3026401D01*
X28690000Y-3031000D01*
X28649183Y-3026401D01*
X28606295Y-3026401D01*
X28557915Y-3016117D01*
X28511761Y-3010917D01*
X28478196Y-2999172D01*
X28442544Y-2991594D01*
X28391167Y-2968719D01*
X28342459Y-2951676D01*
X28317105Y-2935745D01*
X28289602Y-2923500D01*
X28238319Y-2886240D01*
X28190585Y-2856247D01*
X28173441Y-2839103D01*
X28154169Y-2825101D01*
X28106521Y-2772183D01*
X28063753Y-2729415D01*
X28053916Y-2713759D01*
X28042148Y-2700690D01*
X28001888Y-2630958D01*
X27968324Y-2577541D01*
X27964133Y-2565564D01*
X27958445Y-2555712D01*
X27929307Y-2466037D01*
X27909083Y-2408239D01*
X27908316Y-2401434D01*
X27906710Y-2396491D01*
X27892140Y-2257874D01*
X27889000Y-2230000D01*
X27892140Y-2202128D01*
X27906710Y-2063508D01*
X27908316Y-2058563D01*
X27909083Y-2051761D01*
X27929302Y-1993975D01*
X27958445Y-1904287D01*
X27964134Y-1894433D01*
X27968324Y-1882459D01*
X28001881Y-1829052D01*
X28042148Y-1759309D01*
X28053918Y-1746236D01*
X28063753Y-1730585D01*
X28106512Y-1687825D01*
X28154169Y-1634898D01*
X28173444Y-1620893D01*
X28190585Y-1603753D01*
X28238314Y-1573762D01*
X28289603Y-1536499D01*
X28317109Y-1524252D01*
X28342459Y-1508324D01*
X28391158Y-1491283D01*
X28442544Y-1468405D01*
X28478202Y-1460825D01*
X28511761Y-1449083D01*
X28557912Y-1443882D01*
X28606295Y-1433599D01*
X28649183Y-1433599D01*
X28690000Y-1429000D01*
X28730817Y-1433599D01*
G37*
G36*
X31270817Y-1433599D02*
G01*
X31313705Y-1433599D01*
X31362086Y-1443882D01*
X31408239Y-1449083D01*
X31441799Y-1460826D01*
X31477455Y-1468405D01*
X31528838Y-1491282D01*
X31577541Y-1508324D01*
X31602891Y-1524252D01*
X31630397Y-1536499D01*
X31681683Y-1573761D01*
X31729415Y-1603753D01*
X31746557Y-1620895D01*
X31765830Y-1634898D01*
X31813477Y-1687815D01*
X31856247Y-1730585D01*
X31866084Y-1746240D01*
X31877851Y-1759309D01*
X31918106Y-1829032D01*
X31951676Y-1882459D01*
X31955867Y-1894437D01*
X31961554Y-1904287D01*
X31990683Y-1993935D01*
X32010917Y-2051761D01*
X32011684Y-2058568D01*
X32013289Y-2063508D01*
X32027844Y-2201996D01*
X32031000Y-2230000D01*
X32027844Y-2258006D01*
X32013289Y-2396491D01*
X32011684Y-2401429D01*
X32010917Y-2408239D01*
X31990678Y-2466077D01*
X31961554Y-2555712D01*
X31955868Y-2565559D01*
X31951676Y-2577541D01*
X31918098Y-2630978D01*
X31877851Y-2700690D01*
X31866086Y-2713756D01*
X31856247Y-2729415D01*
X31813468Y-2772193D01*
X31765830Y-2825101D01*
X31746561Y-2839100D01*
X31729415Y-2856247D01*
X31681673Y-2886245D01*
X31630397Y-2923500D01*
X31602896Y-2935743D01*
X31577541Y-2951676D01*
X31528828Y-2968721D01*
X31477455Y-2991594D01*
X31441804Y-2999171D01*
X31408239Y-3010917D01*
X31362083Y-3016117D01*
X31313705Y-3026401D01*
X31270817Y-3026401D01*
X31230000Y-3031000D01*
X31189183Y-3026401D01*
X31146295Y-3026401D01*
X31097915Y-3016117D01*
X31051761Y-3010917D01*
X31018196Y-2999172D01*
X30982544Y-2991594D01*
X30931167Y-2968719D01*
X30882459Y-2951676D01*
X30857105Y-2935745D01*
X30829602Y-2923500D01*
X30778319Y-2886240D01*
X30730585Y-2856247D01*
X30713441Y-2839103D01*
X30694169Y-2825101D01*
X30646521Y-2772183D01*
X30603753Y-2729415D01*
X30593916Y-2713759D01*
X30582148Y-2700690D01*
X30541888Y-2630958D01*
X30508324Y-2577541D01*
X30504133Y-2565564D01*
X30498445Y-2555712D01*
X30469307Y-2466037D01*
X30449083Y-2408239D01*
X30448316Y-2401434D01*
X30446710Y-2396491D01*
X30432140Y-2257874D01*
X30429000Y-2230000D01*
X30432140Y-2202128D01*
X30446710Y-2063508D01*
X30448316Y-2058563D01*
X30449083Y-2051761D01*
X30469302Y-1993975D01*
X30498445Y-1904287D01*
X30504134Y-1894433D01*
X30508324Y-1882459D01*
X30541881Y-1829052D01*
X30582148Y-1759309D01*
X30593918Y-1746236D01*
X30603753Y-1730585D01*
X30646512Y-1687825D01*
X30694169Y-1634898D01*
X30713444Y-1620893D01*
X30730585Y-1603753D01*
X30778314Y-1573762D01*
X30829603Y-1536499D01*
X30857109Y-1524252D01*
X30882459Y-1508324D01*
X30931158Y-1491283D01*
X30982544Y-1468405D01*
X31018202Y-1460825D01*
X31051761Y-1449083D01*
X31097912Y-1443882D01*
X31146295Y-1433599D01*
X31189183Y-1433599D01*
X31230000Y-1429000D01*
X31270817Y-1433599D01*
G37*
G36*
X33810817Y-1433599D02*
G01*
X33853705Y-1433599D01*
X33902086Y-1443882D01*
X33948239Y-1449083D01*
X33981799Y-1460826D01*
X34017455Y-1468405D01*
X34068838Y-1491282D01*
X34117541Y-1508324D01*
X34142891Y-1524252D01*
X34170397Y-1536499D01*
X34221683Y-1573761D01*
X34269415Y-1603753D01*
X34286557Y-1620895D01*
X34305830Y-1634898D01*
X34353477Y-1687815D01*
X34396247Y-1730585D01*
X34406084Y-1746240D01*
X34417851Y-1759309D01*
X34458106Y-1829032D01*
X34491676Y-1882459D01*
X34495867Y-1894437D01*
X34501554Y-1904287D01*
X34530683Y-1993935D01*
X34550917Y-2051761D01*
X34551684Y-2058568D01*
X34553289Y-2063508D01*
X34567844Y-2201996D01*
X34571000Y-2230000D01*
X34567844Y-2258006D01*
X34553289Y-2396491D01*
X34551684Y-2401429D01*
X34550917Y-2408239D01*
X34530678Y-2466077D01*
X34501554Y-2555712D01*
X34495868Y-2565559D01*
X34491676Y-2577541D01*
X34458098Y-2630978D01*
X34417851Y-2700690D01*
X34406086Y-2713756D01*
X34396247Y-2729415D01*
X34353468Y-2772193D01*
X34305830Y-2825101D01*
X34286561Y-2839100D01*
X34269415Y-2856247D01*
X34221673Y-2886245D01*
X34170397Y-2923500D01*
X34142896Y-2935743D01*
X34117541Y-2951676D01*
X34068828Y-2968721D01*
X34017455Y-2991594D01*
X33981804Y-2999171D01*
X33948239Y-3010917D01*
X33902083Y-3016117D01*
X33853705Y-3026401D01*
X33810817Y-3026401D01*
X33770000Y-3031000D01*
X33729183Y-3026401D01*
X33686295Y-3026401D01*
X33637915Y-3016117D01*
X33591761Y-3010917D01*
X33558196Y-2999172D01*
X33522544Y-2991594D01*
X33471167Y-2968719D01*
X33422459Y-2951676D01*
X33397105Y-2935745D01*
X33369602Y-2923500D01*
X33318319Y-2886240D01*
X33270585Y-2856247D01*
X33253441Y-2839103D01*
X33234169Y-2825101D01*
X33186521Y-2772183D01*
X33143753Y-2729415D01*
X33133916Y-2713759D01*
X33122148Y-2700690D01*
X33081888Y-2630958D01*
X33048324Y-2577541D01*
X33044133Y-2565564D01*
X33038445Y-2555712D01*
X33009307Y-2466037D01*
X32989083Y-2408239D01*
X32988316Y-2401434D01*
X32986710Y-2396491D01*
X32972140Y-2257874D01*
X32969000Y-2230000D01*
X32972140Y-2202128D01*
X32986710Y-2063508D01*
X32988316Y-2058563D01*
X32989083Y-2051761D01*
X33009302Y-1993975D01*
X33038445Y-1904287D01*
X33044134Y-1894433D01*
X33048324Y-1882459D01*
X33081881Y-1829052D01*
X33122148Y-1759309D01*
X33133918Y-1746236D01*
X33143753Y-1730585D01*
X33186512Y-1687825D01*
X33234169Y-1634898D01*
X33253444Y-1620893D01*
X33270585Y-1603753D01*
X33318314Y-1573762D01*
X33369603Y-1536499D01*
X33397109Y-1524252D01*
X33422459Y-1508324D01*
X33471158Y-1491283D01*
X33522544Y-1468405D01*
X33558202Y-1460825D01*
X33591761Y-1449083D01*
X33637912Y-1443882D01*
X33686295Y-1433599D01*
X33729183Y-1433599D01*
X33770000Y-1429000D01*
X33810817Y-1433599D01*
G37*
G36*
X36350817Y-1433599D02*
G01*
X36393705Y-1433599D01*
X36442086Y-1443882D01*
X36488239Y-1449083D01*
X36521799Y-1460826D01*
X36557455Y-1468405D01*
X36608838Y-1491282D01*
X36657541Y-1508324D01*
X36682891Y-1524252D01*
X36710397Y-1536499D01*
X36761683Y-1573761D01*
X36809415Y-1603753D01*
X36826557Y-1620895D01*
X36845830Y-1634898D01*
X36893477Y-1687815D01*
X36936247Y-1730585D01*
X36946084Y-1746240D01*
X36957851Y-1759309D01*
X36998106Y-1829032D01*
X37031676Y-1882459D01*
X37035867Y-1894437D01*
X37041554Y-1904287D01*
X37070683Y-1993935D01*
X37090917Y-2051761D01*
X37091684Y-2058568D01*
X37093289Y-2063508D01*
X37107844Y-2201996D01*
X37111000Y-2230000D01*
X37107844Y-2258006D01*
X37093289Y-2396491D01*
X37091684Y-2401429D01*
X37090917Y-2408239D01*
X37070678Y-2466077D01*
X37041554Y-2555712D01*
X37035868Y-2565559D01*
X37031676Y-2577541D01*
X36998098Y-2630978D01*
X36957851Y-2700690D01*
X36946086Y-2713756D01*
X36936247Y-2729415D01*
X36893468Y-2772193D01*
X36845830Y-2825101D01*
X36826561Y-2839100D01*
X36809415Y-2856247D01*
X36761673Y-2886245D01*
X36710397Y-2923500D01*
X36682896Y-2935743D01*
X36657541Y-2951676D01*
X36608828Y-2968721D01*
X36557455Y-2991594D01*
X36521804Y-2999171D01*
X36488239Y-3010917D01*
X36442083Y-3016117D01*
X36393705Y-3026401D01*
X36350817Y-3026401D01*
X36310000Y-3031000D01*
X36269183Y-3026401D01*
X36226295Y-3026401D01*
X36177915Y-3016117D01*
X36131761Y-3010917D01*
X36098196Y-2999172D01*
X36062544Y-2991594D01*
X36011167Y-2968719D01*
X35962459Y-2951676D01*
X35937105Y-2935745D01*
X35909602Y-2923500D01*
X35858319Y-2886240D01*
X35810585Y-2856247D01*
X35793441Y-2839103D01*
X35774169Y-2825101D01*
X35726521Y-2772183D01*
X35683753Y-2729415D01*
X35673916Y-2713759D01*
X35662148Y-2700690D01*
X35621888Y-2630958D01*
X35588324Y-2577541D01*
X35584133Y-2565564D01*
X35578445Y-2555712D01*
X35549307Y-2466037D01*
X35529083Y-2408239D01*
X35528316Y-2401434D01*
X35526710Y-2396491D01*
X35512140Y-2257874D01*
X35509000Y-2230000D01*
X35512140Y-2202128D01*
X35526710Y-2063508D01*
X35528316Y-2058563D01*
X35529083Y-2051761D01*
X35549302Y-1993975D01*
X35578445Y-1904287D01*
X35584134Y-1894433D01*
X35588324Y-1882459D01*
X35621881Y-1829052D01*
X35662148Y-1759309D01*
X35673918Y-1746236D01*
X35683753Y-1730585D01*
X35726512Y-1687825D01*
X35774169Y-1634898D01*
X35793444Y-1620893D01*
X35810585Y-1603753D01*
X35858314Y-1573762D01*
X35909603Y-1536499D01*
X35937109Y-1524252D01*
X35962459Y-1508324D01*
X36011158Y-1491283D01*
X36062544Y-1468405D01*
X36098202Y-1460825D01*
X36131761Y-1449083D01*
X36177912Y-1443882D01*
X36226295Y-1433599D01*
X36269183Y-1433599D01*
X36310000Y-1429000D01*
X36350817Y-1433599D01*
G37*
G36*
X38890817Y-1433599D02*
G01*
X38933705Y-1433599D01*
X38982086Y-1443882D01*
X39028239Y-1449083D01*
X39061799Y-1460826D01*
X39097455Y-1468405D01*
X39148838Y-1491282D01*
X39197541Y-1508324D01*
X39222891Y-1524252D01*
X39250397Y-1536499D01*
X39301683Y-1573761D01*
X39349415Y-1603753D01*
X39366557Y-1620895D01*
X39385830Y-1634898D01*
X39433477Y-1687815D01*
X39476247Y-1730585D01*
X39486084Y-1746240D01*
X39497851Y-1759309D01*
X39538106Y-1829032D01*
X39571676Y-1882459D01*
X39575867Y-1894437D01*
X39581554Y-1904287D01*
X39610683Y-1993935D01*
X39630917Y-2051761D01*
X39631684Y-2058568D01*
X39633289Y-2063508D01*
X39647844Y-2201996D01*
X39651000Y-2230000D01*
X39647844Y-2258006D01*
X39633289Y-2396491D01*
X39631684Y-2401429D01*
X39630917Y-2408239D01*
X39610678Y-2466077D01*
X39581554Y-2555712D01*
X39575868Y-2565559D01*
X39571676Y-2577541D01*
X39538098Y-2630978D01*
X39497851Y-2700690D01*
X39486086Y-2713756D01*
X39476247Y-2729415D01*
X39433468Y-2772193D01*
X39385830Y-2825101D01*
X39366561Y-2839100D01*
X39349415Y-2856247D01*
X39301673Y-2886245D01*
X39250397Y-2923500D01*
X39222896Y-2935743D01*
X39197541Y-2951676D01*
X39148828Y-2968721D01*
X39097455Y-2991594D01*
X39061804Y-2999171D01*
X39028239Y-3010917D01*
X38982083Y-3016117D01*
X38933705Y-3026401D01*
X38890817Y-3026401D01*
X38850000Y-3031000D01*
X38809183Y-3026401D01*
X38766295Y-3026401D01*
X38717915Y-3016117D01*
X38671761Y-3010917D01*
X38638196Y-2999172D01*
X38602544Y-2991594D01*
X38551167Y-2968719D01*
X38502459Y-2951676D01*
X38477105Y-2935745D01*
X38449602Y-2923500D01*
X38398319Y-2886240D01*
X38350585Y-2856247D01*
X38333441Y-2839103D01*
X38314169Y-2825101D01*
X38266521Y-2772183D01*
X38223753Y-2729415D01*
X38213916Y-2713759D01*
X38202148Y-2700690D01*
X38161888Y-2630958D01*
X38128324Y-2577541D01*
X38124133Y-2565564D01*
X38118445Y-2555712D01*
X38089307Y-2466037D01*
X38069083Y-2408239D01*
X38068316Y-2401434D01*
X38066710Y-2396491D01*
X38052141Y-2257885D01*
X38049000Y-2230000D01*
X38052139Y-2202139D01*
X38066710Y-2063508D01*
X38068316Y-2058563D01*
X38069083Y-2051761D01*
X38089302Y-1993975D01*
X38118445Y-1904287D01*
X38124134Y-1894433D01*
X38128324Y-1882459D01*
X38161881Y-1829052D01*
X38202148Y-1759309D01*
X38213918Y-1746236D01*
X38223753Y-1730585D01*
X38266512Y-1687825D01*
X38314169Y-1634898D01*
X38333444Y-1620893D01*
X38350585Y-1603753D01*
X38398314Y-1573762D01*
X38449603Y-1536499D01*
X38477109Y-1524252D01*
X38502459Y-1508324D01*
X38551158Y-1491283D01*
X38602544Y-1468405D01*
X38638202Y-1460825D01*
X38671761Y-1449083D01*
X38717912Y-1443882D01*
X38766295Y-1433599D01*
X38809183Y-1433599D01*
X38850000Y-1429000D01*
X38890817Y-1433599D01*
G37*
G36*
X41430817Y-1433599D02*
G01*
X41473705Y-1433599D01*
X41522086Y-1443882D01*
X41568239Y-1449083D01*
X41601799Y-1460826D01*
X41637455Y-1468405D01*
X41688838Y-1491282D01*
X41737541Y-1508324D01*
X41762891Y-1524252D01*
X41790397Y-1536499D01*
X41841683Y-1573761D01*
X41889415Y-1603753D01*
X41906557Y-1620895D01*
X41925830Y-1634898D01*
X41973477Y-1687815D01*
X42016247Y-1730585D01*
X42026084Y-1746240D01*
X42037851Y-1759309D01*
X42078106Y-1829032D01*
X42111676Y-1882459D01*
X42115867Y-1894437D01*
X42121554Y-1904287D01*
X42150683Y-1993935D01*
X42170917Y-2051761D01*
X42171684Y-2058568D01*
X42173289Y-2063508D01*
X42187844Y-2201996D01*
X42191000Y-2230000D01*
X42187844Y-2258006D01*
X42173289Y-2396491D01*
X42171684Y-2401429D01*
X42170917Y-2408239D01*
X42150678Y-2466077D01*
X42121554Y-2555712D01*
X42115868Y-2565559D01*
X42111676Y-2577541D01*
X42078098Y-2630978D01*
X42037851Y-2700690D01*
X42026086Y-2713756D01*
X42016247Y-2729415D01*
X41973468Y-2772193D01*
X41925830Y-2825101D01*
X41906561Y-2839100D01*
X41889415Y-2856247D01*
X41841673Y-2886245D01*
X41790397Y-2923500D01*
X41762896Y-2935743D01*
X41737541Y-2951676D01*
X41688828Y-2968721D01*
X41637455Y-2991594D01*
X41601804Y-2999171D01*
X41568239Y-3010917D01*
X41522083Y-3016117D01*
X41473705Y-3026401D01*
X41430817Y-3026401D01*
X41390000Y-3031000D01*
X41349183Y-3026401D01*
X41306295Y-3026401D01*
X41257915Y-3016117D01*
X41211761Y-3010917D01*
X41178196Y-2999172D01*
X41142544Y-2991594D01*
X41091167Y-2968719D01*
X41042459Y-2951676D01*
X41017105Y-2935745D01*
X40989602Y-2923500D01*
X40938319Y-2886240D01*
X40890585Y-2856247D01*
X40873441Y-2839103D01*
X40854169Y-2825101D01*
X40806521Y-2772183D01*
X40763753Y-2729415D01*
X40753916Y-2713759D01*
X40742148Y-2700690D01*
X40701888Y-2630958D01*
X40668324Y-2577541D01*
X40664133Y-2565564D01*
X40658445Y-2555712D01*
X40629307Y-2466037D01*
X40609083Y-2408239D01*
X40608316Y-2401434D01*
X40606710Y-2396491D01*
X40592140Y-2257874D01*
X40589000Y-2230000D01*
X40592140Y-2202128D01*
X40606710Y-2063508D01*
X40608316Y-2058563D01*
X40609083Y-2051761D01*
X40629302Y-1993975D01*
X40658445Y-1904287D01*
X40664134Y-1894433D01*
X40668324Y-1882459D01*
X40701881Y-1829052D01*
X40742148Y-1759309D01*
X40753918Y-1746236D01*
X40763753Y-1730585D01*
X40806512Y-1687825D01*
X40854169Y-1634898D01*
X40873444Y-1620893D01*
X40890585Y-1603753D01*
X40938314Y-1573762D01*
X40989603Y-1536499D01*
X41017109Y-1524252D01*
X41042459Y-1508324D01*
X41091158Y-1491283D01*
X41142544Y-1468405D01*
X41178202Y-1460825D01*
X41211761Y-1449083D01*
X41257912Y-1443882D01*
X41306295Y-1433599D01*
X41349183Y-1433599D01*
X41390000Y-1429000D01*
X41430817Y-1433599D01*
G37*
G36*
X43970817Y-1433599D02*
G01*
X44013705Y-1433599D01*
X44062086Y-1443882D01*
X44108239Y-1449083D01*
X44141799Y-1460826D01*
X44177455Y-1468405D01*
X44228838Y-1491282D01*
X44277541Y-1508324D01*
X44302891Y-1524252D01*
X44330397Y-1536499D01*
X44381683Y-1573761D01*
X44429415Y-1603753D01*
X44446557Y-1620895D01*
X44465830Y-1634898D01*
X44513477Y-1687815D01*
X44556247Y-1730585D01*
X44566084Y-1746240D01*
X44577851Y-1759309D01*
X44618106Y-1829032D01*
X44651676Y-1882459D01*
X44655867Y-1894437D01*
X44661554Y-1904287D01*
X44690683Y-1993935D01*
X44710917Y-2051761D01*
X44711684Y-2058568D01*
X44713289Y-2063508D01*
X44727844Y-2201996D01*
X44731000Y-2230000D01*
X44727844Y-2258006D01*
X44713289Y-2396491D01*
X44711684Y-2401429D01*
X44710917Y-2408239D01*
X44690678Y-2466077D01*
X44661554Y-2555712D01*
X44655868Y-2565559D01*
X44651676Y-2577541D01*
X44618098Y-2630978D01*
X44577851Y-2700690D01*
X44566086Y-2713756D01*
X44556247Y-2729415D01*
X44513468Y-2772193D01*
X44465830Y-2825101D01*
X44446561Y-2839100D01*
X44429415Y-2856247D01*
X44381673Y-2886245D01*
X44330397Y-2923500D01*
X44302896Y-2935743D01*
X44277541Y-2951676D01*
X44228828Y-2968721D01*
X44177455Y-2991594D01*
X44141804Y-2999171D01*
X44108239Y-3010917D01*
X44062083Y-3016117D01*
X44013705Y-3026401D01*
X43970817Y-3026401D01*
X43930000Y-3031000D01*
X43889183Y-3026401D01*
X43846295Y-3026401D01*
X43797915Y-3016117D01*
X43751761Y-3010917D01*
X43718196Y-2999172D01*
X43682544Y-2991594D01*
X43631167Y-2968719D01*
X43582459Y-2951676D01*
X43557105Y-2935745D01*
X43529602Y-2923500D01*
X43478319Y-2886240D01*
X43430585Y-2856247D01*
X43413441Y-2839103D01*
X43394169Y-2825101D01*
X43346521Y-2772183D01*
X43303753Y-2729415D01*
X43293916Y-2713759D01*
X43282148Y-2700690D01*
X43241888Y-2630958D01*
X43208324Y-2577541D01*
X43204133Y-2565564D01*
X43198445Y-2555712D01*
X43169307Y-2466037D01*
X43149083Y-2408239D01*
X43148316Y-2401434D01*
X43146710Y-2396491D01*
X43132140Y-2257874D01*
X43129000Y-2230000D01*
X43132140Y-2202128D01*
X43146710Y-2063508D01*
X43148316Y-2058563D01*
X43149083Y-2051761D01*
X43169302Y-1993975D01*
X43198445Y-1904287D01*
X43204134Y-1894433D01*
X43208324Y-1882459D01*
X43241881Y-1829052D01*
X43282148Y-1759309D01*
X43293918Y-1746236D01*
X43303753Y-1730585D01*
X43346512Y-1687825D01*
X43394169Y-1634898D01*
X43413444Y-1620893D01*
X43430585Y-1603753D01*
X43478314Y-1573762D01*
X43529603Y-1536499D01*
X43557109Y-1524252D01*
X43582459Y-1508324D01*
X43631158Y-1491283D01*
X43682544Y-1468405D01*
X43718202Y-1460825D01*
X43751761Y-1449083D01*
X43797912Y-1443882D01*
X43846295Y-1433599D01*
X43889183Y-1433599D01*
X43930000Y-1429000D01*
X43970817Y-1433599D01*
G37*
G36*
X46510817Y-1433599D02*
G01*
X46553705Y-1433599D01*
X46602086Y-1443882D01*
X46648239Y-1449083D01*
X46681799Y-1460826D01*
X46717455Y-1468405D01*
X46768838Y-1491282D01*
X46817541Y-1508324D01*
X46842891Y-1524252D01*
X46870397Y-1536499D01*
X46921683Y-1573761D01*
X46969415Y-1603753D01*
X46986557Y-1620895D01*
X47005830Y-1634898D01*
X47053477Y-1687815D01*
X47096247Y-1730585D01*
X47106084Y-1746240D01*
X47117851Y-1759309D01*
X47158106Y-1829032D01*
X47191676Y-1882459D01*
X47195867Y-1894437D01*
X47201554Y-1904287D01*
X47230683Y-1993935D01*
X47250917Y-2051761D01*
X47251684Y-2058568D01*
X47253289Y-2063508D01*
X47267844Y-2201996D01*
X47271000Y-2230000D01*
X47267844Y-2258006D01*
X47253289Y-2396491D01*
X47251684Y-2401429D01*
X47250917Y-2408239D01*
X47230678Y-2466077D01*
X47201554Y-2555712D01*
X47195868Y-2565559D01*
X47191676Y-2577541D01*
X47158098Y-2630978D01*
X47117851Y-2700690D01*
X47106086Y-2713756D01*
X47096247Y-2729415D01*
X47053468Y-2772193D01*
X47005830Y-2825101D01*
X46986561Y-2839100D01*
X46969415Y-2856247D01*
X46921673Y-2886245D01*
X46870397Y-2923500D01*
X46842896Y-2935743D01*
X46817541Y-2951676D01*
X46768828Y-2968721D01*
X46717455Y-2991594D01*
X46681804Y-2999171D01*
X46648239Y-3010917D01*
X46602083Y-3016117D01*
X46553705Y-3026401D01*
X46510817Y-3026401D01*
X46470000Y-3031000D01*
X46429183Y-3026401D01*
X46386295Y-3026401D01*
X46337915Y-3016117D01*
X46291761Y-3010917D01*
X46258196Y-2999172D01*
X46222544Y-2991594D01*
X46171167Y-2968719D01*
X46122459Y-2951676D01*
X46097105Y-2935745D01*
X46069602Y-2923500D01*
X46018319Y-2886240D01*
X45970585Y-2856247D01*
X45953441Y-2839103D01*
X45934169Y-2825101D01*
X45886521Y-2772183D01*
X45843753Y-2729415D01*
X45833916Y-2713759D01*
X45822148Y-2700690D01*
X45781888Y-2630958D01*
X45748324Y-2577541D01*
X45744133Y-2565564D01*
X45738445Y-2555712D01*
X45709307Y-2466037D01*
X45689083Y-2408239D01*
X45688316Y-2401434D01*
X45686710Y-2396491D01*
X45672140Y-2257874D01*
X45669000Y-2230000D01*
X45672140Y-2202128D01*
X45686710Y-2063508D01*
X45688316Y-2058563D01*
X45689083Y-2051761D01*
X45709302Y-1993975D01*
X45738445Y-1904287D01*
X45744134Y-1894433D01*
X45748324Y-1882459D01*
X45781881Y-1829052D01*
X45822148Y-1759309D01*
X45833918Y-1746236D01*
X45843753Y-1730585D01*
X45886512Y-1687825D01*
X45934169Y-1634898D01*
X45953444Y-1620893D01*
X45970585Y-1603753D01*
X46018314Y-1573762D01*
X46069603Y-1536499D01*
X46097109Y-1524252D01*
X46122459Y-1508324D01*
X46171158Y-1491283D01*
X46222544Y-1468405D01*
X46258202Y-1460825D01*
X46291761Y-1449083D01*
X46337912Y-1443882D01*
X46386295Y-1433599D01*
X46429183Y-1433599D01*
X46470000Y-1429000D01*
X46510817Y-1433599D01*
G37*
G36*
X49050817Y-1433599D02*
G01*
X49093705Y-1433599D01*
X49142086Y-1443882D01*
X49188239Y-1449083D01*
X49221799Y-1460826D01*
X49257455Y-1468405D01*
X49308838Y-1491282D01*
X49357541Y-1508324D01*
X49382891Y-1524252D01*
X49410397Y-1536499D01*
X49461683Y-1573761D01*
X49509415Y-1603753D01*
X49526557Y-1620895D01*
X49545830Y-1634898D01*
X49593477Y-1687815D01*
X49636247Y-1730585D01*
X49646084Y-1746240D01*
X49657851Y-1759309D01*
X49698106Y-1829032D01*
X49731676Y-1882459D01*
X49735867Y-1894437D01*
X49741554Y-1904287D01*
X49770683Y-1993935D01*
X49790917Y-2051761D01*
X49791684Y-2058568D01*
X49793289Y-2063508D01*
X49807844Y-2201996D01*
X49811000Y-2230000D01*
X49807844Y-2258006D01*
X49793289Y-2396491D01*
X49791684Y-2401429D01*
X49790917Y-2408239D01*
X49770678Y-2466077D01*
X49741554Y-2555712D01*
X49735868Y-2565559D01*
X49731676Y-2577541D01*
X49698098Y-2630978D01*
X49657851Y-2700690D01*
X49646086Y-2713756D01*
X49636247Y-2729415D01*
X49593468Y-2772193D01*
X49545830Y-2825101D01*
X49526561Y-2839100D01*
X49509415Y-2856247D01*
X49461673Y-2886245D01*
X49410397Y-2923500D01*
X49382896Y-2935743D01*
X49357541Y-2951676D01*
X49308828Y-2968721D01*
X49257455Y-2991594D01*
X49221804Y-2999171D01*
X49188239Y-3010917D01*
X49142083Y-3016117D01*
X49093705Y-3026401D01*
X49050817Y-3026401D01*
X49010000Y-3031000D01*
X48969183Y-3026401D01*
X48926295Y-3026401D01*
X48877915Y-3016117D01*
X48831761Y-3010917D01*
X48798196Y-2999172D01*
X48762544Y-2991594D01*
X48711167Y-2968719D01*
X48662459Y-2951676D01*
X48637105Y-2935745D01*
X48609602Y-2923500D01*
X48558319Y-2886240D01*
X48510585Y-2856247D01*
X48493441Y-2839103D01*
X48474169Y-2825101D01*
X48426521Y-2772183D01*
X48383753Y-2729415D01*
X48373916Y-2713759D01*
X48362148Y-2700690D01*
X48321888Y-2630958D01*
X48288324Y-2577541D01*
X48284133Y-2565564D01*
X48278445Y-2555712D01*
X48249307Y-2466037D01*
X48229083Y-2408239D01*
X48228316Y-2401434D01*
X48226710Y-2396491D01*
X48212140Y-2257874D01*
X48209000Y-2230000D01*
X48212140Y-2202128D01*
X48226710Y-2063508D01*
X48228316Y-2058563D01*
X48229083Y-2051761D01*
X48249302Y-1993975D01*
X48278445Y-1904287D01*
X48284134Y-1894433D01*
X48288324Y-1882459D01*
X48321881Y-1829052D01*
X48362148Y-1759309D01*
X48373918Y-1746236D01*
X48383753Y-1730585D01*
X48426512Y-1687825D01*
X48474169Y-1634898D01*
X48493444Y-1620893D01*
X48510585Y-1603753D01*
X48558314Y-1573762D01*
X48609603Y-1536499D01*
X48637109Y-1524252D01*
X48662459Y-1508324D01*
X48711158Y-1491283D01*
X48762544Y-1468405D01*
X48798202Y-1460825D01*
X48831761Y-1449083D01*
X48877912Y-1443882D01*
X48926295Y-1433599D01*
X48969183Y-1433599D01*
X49010000Y-1429000D01*
X49050817Y-1433599D01*
G37*
G36*
X51590817Y-1433599D02*
G01*
X51633705Y-1433599D01*
X51682086Y-1443882D01*
X51728239Y-1449083D01*
X51761799Y-1460826D01*
X51797455Y-1468405D01*
X51848838Y-1491282D01*
X51897541Y-1508324D01*
X51922891Y-1524252D01*
X51950397Y-1536499D01*
X52001683Y-1573761D01*
X52049415Y-1603753D01*
X52066557Y-1620895D01*
X52085830Y-1634898D01*
X52133477Y-1687815D01*
X52176247Y-1730585D01*
X52186084Y-1746240D01*
X52197851Y-1759309D01*
X52238106Y-1829032D01*
X52271676Y-1882459D01*
X52275867Y-1894437D01*
X52281554Y-1904287D01*
X52310683Y-1993935D01*
X52330917Y-2051761D01*
X52331684Y-2058568D01*
X52333289Y-2063508D01*
X52347845Y-2202007D01*
X52351000Y-2230000D01*
X52347843Y-2258017D01*
X52333289Y-2396491D01*
X52331684Y-2401429D01*
X52330917Y-2408239D01*
X52310678Y-2466077D01*
X52281554Y-2555712D01*
X52275868Y-2565559D01*
X52271676Y-2577541D01*
X52238098Y-2630978D01*
X52197851Y-2700690D01*
X52186086Y-2713756D01*
X52176247Y-2729415D01*
X52133468Y-2772193D01*
X52085830Y-2825101D01*
X52066561Y-2839100D01*
X52049415Y-2856247D01*
X52001673Y-2886245D01*
X51950397Y-2923500D01*
X51922896Y-2935743D01*
X51897541Y-2951676D01*
X51848828Y-2968721D01*
X51797455Y-2991594D01*
X51761804Y-2999171D01*
X51728239Y-3010917D01*
X51682083Y-3016117D01*
X51633705Y-3026401D01*
X51590817Y-3026401D01*
X51550000Y-3031000D01*
X51509183Y-3026401D01*
X51466295Y-3026401D01*
X51417915Y-3016117D01*
X51371761Y-3010917D01*
X51338196Y-2999172D01*
X51302544Y-2991594D01*
X51251167Y-2968719D01*
X51202459Y-2951676D01*
X51177105Y-2935745D01*
X51149602Y-2923500D01*
X51098319Y-2886240D01*
X51050585Y-2856247D01*
X51033441Y-2839103D01*
X51014169Y-2825101D01*
X50966521Y-2772183D01*
X50923753Y-2729415D01*
X50913916Y-2713759D01*
X50902148Y-2700690D01*
X50861888Y-2630958D01*
X50828324Y-2577541D01*
X50824133Y-2565564D01*
X50818445Y-2555712D01*
X50789307Y-2466037D01*
X50769083Y-2408239D01*
X50768316Y-2401434D01*
X50766710Y-2396491D01*
X50752140Y-2257874D01*
X50749000Y-2230000D01*
X50752140Y-2202128D01*
X50766710Y-2063508D01*
X50768316Y-2058563D01*
X50769083Y-2051761D01*
X50789302Y-1993975D01*
X50818445Y-1904287D01*
X50824134Y-1894433D01*
X50828324Y-1882459D01*
X50861881Y-1829052D01*
X50902148Y-1759309D01*
X50913918Y-1746236D01*
X50923753Y-1730585D01*
X50966512Y-1687825D01*
X51014169Y-1634898D01*
X51033444Y-1620893D01*
X51050585Y-1603753D01*
X51098314Y-1573762D01*
X51149603Y-1536499D01*
X51177109Y-1524252D01*
X51202459Y-1508324D01*
X51251158Y-1491283D01*
X51302544Y-1468405D01*
X51338202Y-1460825D01*
X51371761Y-1449083D01*
X51417912Y-1443882D01*
X51466295Y-1433599D01*
X51509183Y-1433599D01*
X51550000Y-1429000D01*
X51590817Y-1433599D01*
G37*
G36*
X54130817Y-1433599D02*
G01*
X54173705Y-1433599D01*
X54222086Y-1443882D01*
X54268239Y-1449083D01*
X54301799Y-1460826D01*
X54337455Y-1468405D01*
X54388838Y-1491282D01*
X54437541Y-1508324D01*
X54462891Y-1524252D01*
X54490397Y-1536499D01*
X54541683Y-1573761D01*
X54589415Y-1603753D01*
X54606557Y-1620895D01*
X54625830Y-1634898D01*
X54673477Y-1687815D01*
X54716247Y-1730585D01*
X54726084Y-1746240D01*
X54737851Y-1759309D01*
X54778106Y-1829032D01*
X54811676Y-1882459D01*
X54815867Y-1894437D01*
X54821554Y-1904287D01*
X54850683Y-1993935D01*
X54870917Y-2051761D01*
X54871684Y-2058568D01*
X54873289Y-2063508D01*
X54887845Y-2202007D01*
X54891000Y-2230000D01*
X54887843Y-2258017D01*
X54873289Y-2396491D01*
X54871684Y-2401429D01*
X54870917Y-2408239D01*
X54850678Y-2466077D01*
X54821554Y-2555712D01*
X54815868Y-2565559D01*
X54811676Y-2577541D01*
X54778098Y-2630978D01*
X54737851Y-2700690D01*
X54726086Y-2713756D01*
X54716247Y-2729415D01*
X54673468Y-2772193D01*
X54625830Y-2825101D01*
X54606561Y-2839100D01*
X54589415Y-2856247D01*
X54541673Y-2886245D01*
X54490397Y-2923500D01*
X54462896Y-2935743D01*
X54437541Y-2951676D01*
X54388828Y-2968721D01*
X54337455Y-2991594D01*
X54301804Y-2999171D01*
X54268239Y-3010917D01*
X54222083Y-3016117D01*
X54173705Y-3026401D01*
X54130817Y-3026401D01*
X54090000Y-3031000D01*
X54049183Y-3026401D01*
X54006295Y-3026401D01*
X53957915Y-3016117D01*
X53911761Y-3010917D01*
X53878196Y-2999172D01*
X53842544Y-2991594D01*
X53791167Y-2968719D01*
X53742459Y-2951676D01*
X53717105Y-2935745D01*
X53689602Y-2923500D01*
X53638319Y-2886240D01*
X53590585Y-2856247D01*
X53573441Y-2839103D01*
X53554169Y-2825101D01*
X53506521Y-2772183D01*
X53463753Y-2729415D01*
X53453916Y-2713759D01*
X53442148Y-2700690D01*
X53401888Y-2630958D01*
X53368324Y-2577541D01*
X53364133Y-2565564D01*
X53358445Y-2555712D01*
X53329307Y-2466037D01*
X53309083Y-2408239D01*
X53308316Y-2401434D01*
X53306710Y-2396491D01*
X53292140Y-2257874D01*
X53289000Y-2230000D01*
X53292140Y-2202128D01*
X53306710Y-2063508D01*
X53308316Y-2058563D01*
X53309083Y-2051761D01*
X53329302Y-1993975D01*
X53358445Y-1904287D01*
X53364134Y-1894433D01*
X53368324Y-1882459D01*
X53401881Y-1829052D01*
X53442148Y-1759309D01*
X53453918Y-1746236D01*
X53463753Y-1730585D01*
X53506512Y-1687825D01*
X53554169Y-1634898D01*
X53573444Y-1620893D01*
X53590585Y-1603753D01*
X53638314Y-1573762D01*
X53689603Y-1536499D01*
X53717109Y-1524252D01*
X53742459Y-1508324D01*
X53791158Y-1491283D01*
X53842544Y-1468405D01*
X53878202Y-1460825D01*
X53911761Y-1449083D01*
X53957912Y-1443882D01*
X54006295Y-1433599D01*
X54049183Y-1433599D01*
X54090000Y-1429000D01*
X54130817Y-1433599D01*
G37*
G36*
X56670817Y-1433599D02*
G01*
X56713705Y-1433599D01*
X56762086Y-1443882D01*
X56808239Y-1449083D01*
X56841799Y-1460826D01*
X56877455Y-1468405D01*
X56928838Y-1491282D01*
X56977541Y-1508324D01*
X57002891Y-1524252D01*
X57030397Y-1536499D01*
X57081683Y-1573761D01*
X57129415Y-1603753D01*
X57146557Y-1620895D01*
X57165830Y-1634898D01*
X57213477Y-1687815D01*
X57256247Y-1730585D01*
X57266084Y-1746240D01*
X57277851Y-1759309D01*
X57318106Y-1829032D01*
X57351676Y-1882459D01*
X57355867Y-1894437D01*
X57361554Y-1904287D01*
X57390683Y-1993935D01*
X57410917Y-2051761D01*
X57411684Y-2058568D01*
X57413289Y-2063508D01*
X57427845Y-2202007D01*
X57431000Y-2230000D01*
X57427843Y-2258017D01*
X57413289Y-2396491D01*
X57411684Y-2401429D01*
X57410917Y-2408239D01*
X57390678Y-2466077D01*
X57361554Y-2555712D01*
X57355868Y-2565559D01*
X57351676Y-2577541D01*
X57318098Y-2630978D01*
X57277851Y-2700690D01*
X57266086Y-2713756D01*
X57256247Y-2729415D01*
X57213468Y-2772193D01*
X57165830Y-2825101D01*
X57146561Y-2839100D01*
X57129415Y-2856247D01*
X57081673Y-2886245D01*
X57030397Y-2923500D01*
X57002896Y-2935743D01*
X56977541Y-2951676D01*
X56928828Y-2968721D01*
X56877455Y-2991594D01*
X56841804Y-2999171D01*
X56808239Y-3010917D01*
X56762083Y-3016117D01*
X56713705Y-3026401D01*
X56670817Y-3026401D01*
X56630000Y-3031000D01*
X56589183Y-3026401D01*
X56546295Y-3026401D01*
X56497915Y-3016117D01*
X56451761Y-3010917D01*
X56418196Y-2999172D01*
X56382544Y-2991594D01*
X56331167Y-2968719D01*
X56282459Y-2951676D01*
X56257105Y-2935745D01*
X56229602Y-2923500D01*
X56178319Y-2886240D01*
X56130585Y-2856247D01*
X56113441Y-2839103D01*
X56094169Y-2825101D01*
X56046521Y-2772183D01*
X56003753Y-2729415D01*
X55993916Y-2713759D01*
X55982148Y-2700690D01*
X55941888Y-2630958D01*
X55908324Y-2577541D01*
X55904133Y-2565564D01*
X55898445Y-2555712D01*
X55869307Y-2466037D01*
X55849083Y-2408239D01*
X55848316Y-2401434D01*
X55846710Y-2396491D01*
X55832141Y-2257885D01*
X55829000Y-2230000D01*
X55832139Y-2202139D01*
X55846710Y-2063508D01*
X55848316Y-2058563D01*
X55849083Y-2051761D01*
X55869302Y-1993975D01*
X55898445Y-1904287D01*
X55904134Y-1894433D01*
X55908324Y-1882459D01*
X55941881Y-1829052D01*
X55982148Y-1759309D01*
X55993918Y-1746236D01*
X56003753Y-1730585D01*
X56046512Y-1687825D01*
X56094169Y-1634898D01*
X56113444Y-1620893D01*
X56130585Y-1603753D01*
X56178314Y-1573762D01*
X56229603Y-1536499D01*
X56257109Y-1524252D01*
X56282459Y-1508324D01*
X56331158Y-1491283D01*
X56382544Y-1468405D01*
X56418202Y-1460825D01*
X56451761Y-1449083D01*
X56497912Y-1443882D01*
X56546295Y-1433599D01*
X56589183Y-1433599D01*
X56630000Y-1429000D01*
X56670817Y-1433599D01*
G37*
M02*
