%TF.GenerationSoftware,KiCad,Pcbnew,7.0.2-0*%
%TF.CreationDate,2024-12-01T01:29:24-08:00*%
%TF.ProjectId,pizero-papoe,70697a65-726f-42d7-9061-706f652e6b69,0.1*%
%TF.SameCoordinates,PX652f520PY4a19ba0*%
%TF.FileFunction,Legend,Bot*%
%TF.FilePolarity,Positive*%
%FSLAX46Y46*%
G04 Gerber Fmt 4.6, Leading zero omitted, Abs format (unit mm)*
G04 Created by KiCad (PCBNEW 7.0.2-0) date 2024-12-01 01:29:24*
%MOMM*%
%LPD*%
G01*
G04 APERTURE LIST*
%ADD10C,0.150000*%
%ADD11C,0.120000*%
G04 APERTURE END LIST*
D10*
%TO.C,W2*%
X43654761Y-8910619D02*
X43416666Y-9910619D01*
X43416666Y-9910619D02*
X43226190Y-9196333D01*
X43226190Y-9196333D02*
X43035714Y-9910619D01*
X43035714Y-9910619D02*
X42797619Y-8910619D01*
X42464285Y-9005857D02*
X42416666Y-8958238D01*
X42416666Y-8958238D02*
X42321428Y-8910619D01*
X42321428Y-8910619D02*
X42083333Y-8910619D01*
X42083333Y-8910619D02*
X41988095Y-8958238D01*
X41988095Y-8958238D02*
X41940476Y-9005857D01*
X41940476Y-9005857D02*
X41892857Y-9101095D01*
X41892857Y-9101095D02*
X41892857Y-9196333D01*
X41892857Y-9196333D02*
X41940476Y-9339190D01*
X41940476Y-9339190D02*
X42511904Y-9910619D01*
X42511904Y-9910619D02*
X41892857Y-9910619D01*
%TO.C,W1*%
X49654761Y-8910619D02*
X49416666Y-9910619D01*
X49416666Y-9910619D02*
X49226190Y-9196333D01*
X49226190Y-9196333D02*
X49035714Y-9910619D01*
X49035714Y-9910619D02*
X48797619Y-8910619D01*
X47892857Y-9910619D02*
X48464285Y-9910619D01*
X48178571Y-9910619D02*
X48178571Y-8910619D01*
X48178571Y-8910619D02*
X48273809Y-9053476D01*
X48273809Y-9053476D02*
X48369047Y-9148714D01*
X48369047Y-9148714D02*
X48464285Y-9196333D01*
%TO.C,U3*%
X46511904Y-8012619D02*
X46511904Y-8822142D01*
X46511904Y-8822142D02*
X46464285Y-8917380D01*
X46464285Y-8917380D02*
X46416666Y-8965000D01*
X46416666Y-8965000D02*
X46321428Y-9012619D01*
X46321428Y-9012619D02*
X46130952Y-9012619D01*
X46130952Y-9012619D02*
X46035714Y-8965000D01*
X46035714Y-8965000D02*
X45988095Y-8917380D01*
X45988095Y-8917380D02*
X45940476Y-8822142D01*
X45940476Y-8822142D02*
X45940476Y-8012619D01*
X45559523Y-8012619D02*
X44940476Y-8012619D01*
X44940476Y-8012619D02*
X45273809Y-8393571D01*
X45273809Y-8393571D02*
X45130952Y-8393571D01*
X45130952Y-8393571D02*
X45035714Y-8441190D01*
X45035714Y-8441190D02*
X44988095Y-8488809D01*
X44988095Y-8488809D02*
X44940476Y-8584047D01*
X44940476Y-8584047D02*
X44940476Y-8822142D01*
X44940476Y-8822142D02*
X44988095Y-8917380D01*
X44988095Y-8917380D02*
X45035714Y-8965000D01*
X45035714Y-8965000D02*
X45130952Y-9012619D01*
X45130952Y-9012619D02*
X45416666Y-9012619D01*
X45416666Y-9012619D02*
X45511904Y-8965000D01*
X45511904Y-8965000D02*
X45559523Y-8917380D01*
%TO.C,R23*%
X40892857Y-11892619D02*
X41226190Y-11416428D01*
X41464285Y-11892619D02*
X41464285Y-10892619D01*
X41464285Y-10892619D02*
X41083333Y-10892619D01*
X41083333Y-10892619D02*
X40988095Y-10940238D01*
X40988095Y-10940238D02*
X40940476Y-10987857D01*
X40940476Y-10987857D02*
X40892857Y-11083095D01*
X40892857Y-11083095D02*
X40892857Y-11225952D01*
X40892857Y-11225952D02*
X40940476Y-11321190D01*
X40940476Y-11321190D02*
X40988095Y-11368809D01*
X40988095Y-11368809D02*
X41083333Y-11416428D01*
X41083333Y-11416428D02*
X41464285Y-11416428D01*
X40511904Y-10987857D02*
X40464285Y-10940238D01*
X40464285Y-10940238D02*
X40369047Y-10892619D01*
X40369047Y-10892619D02*
X40130952Y-10892619D01*
X40130952Y-10892619D02*
X40035714Y-10940238D01*
X40035714Y-10940238D02*
X39988095Y-10987857D01*
X39988095Y-10987857D02*
X39940476Y-11083095D01*
X39940476Y-11083095D02*
X39940476Y-11178333D01*
X39940476Y-11178333D02*
X39988095Y-11321190D01*
X39988095Y-11321190D02*
X40559523Y-11892619D01*
X40559523Y-11892619D02*
X39940476Y-11892619D01*
X39607142Y-10892619D02*
X38988095Y-10892619D01*
X38988095Y-10892619D02*
X39321428Y-11273571D01*
X39321428Y-11273571D02*
X39178571Y-11273571D01*
X39178571Y-11273571D02*
X39083333Y-11321190D01*
X39083333Y-11321190D02*
X39035714Y-11368809D01*
X39035714Y-11368809D02*
X38988095Y-11464047D01*
X38988095Y-11464047D02*
X38988095Y-11702142D01*
X38988095Y-11702142D02*
X39035714Y-11797380D01*
X39035714Y-11797380D02*
X39083333Y-11845000D01*
X39083333Y-11845000D02*
X39178571Y-11892619D01*
X39178571Y-11892619D02*
X39464285Y-11892619D01*
X39464285Y-11892619D02*
X39559523Y-11845000D01*
X39559523Y-11845000D02*
X39607142Y-11797380D01*
%TO.C,R20*%
X40892857Y-13892619D02*
X41226190Y-13416428D01*
X41464285Y-13892619D02*
X41464285Y-12892619D01*
X41464285Y-12892619D02*
X41083333Y-12892619D01*
X41083333Y-12892619D02*
X40988095Y-12940238D01*
X40988095Y-12940238D02*
X40940476Y-12987857D01*
X40940476Y-12987857D02*
X40892857Y-13083095D01*
X40892857Y-13083095D02*
X40892857Y-13225952D01*
X40892857Y-13225952D02*
X40940476Y-13321190D01*
X40940476Y-13321190D02*
X40988095Y-13368809D01*
X40988095Y-13368809D02*
X41083333Y-13416428D01*
X41083333Y-13416428D02*
X41464285Y-13416428D01*
X40511904Y-12987857D02*
X40464285Y-12940238D01*
X40464285Y-12940238D02*
X40369047Y-12892619D01*
X40369047Y-12892619D02*
X40130952Y-12892619D01*
X40130952Y-12892619D02*
X40035714Y-12940238D01*
X40035714Y-12940238D02*
X39988095Y-12987857D01*
X39988095Y-12987857D02*
X39940476Y-13083095D01*
X39940476Y-13083095D02*
X39940476Y-13178333D01*
X39940476Y-13178333D02*
X39988095Y-13321190D01*
X39988095Y-13321190D02*
X40559523Y-13892619D01*
X40559523Y-13892619D02*
X39940476Y-13892619D01*
X39321428Y-12892619D02*
X39226190Y-12892619D01*
X39226190Y-12892619D02*
X39130952Y-12940238D01*
X39130952Y-12940238D02*
X39083333Y-12987857D01*
X39083333Y-12987857D02*
X39035714Y-13083095D01*
X39035714Y-13083095D02*
X38988095Y-13273571D01*
X38988095Y-13273571D02*
X38988095Y-13511666D01*
X38988095Y-13511666D02*
X39035714Y-13702142D01*
X39035714Y-13702142D02*
X39083333Y-13797380D01*
X39083333Y-13797380D02*
X39130952Y-13845000D01*
X39130952Y-13845000D02*
X39226190Y-13892619D01*
X39226190Y-13892619D02*
X39321428Y-13892619D01*
X39321428Y-13892619D02*
X39416666Y-13845000D01*
X39416666Y-13845000D02*
X39464285Y-13797380D01*
X39464285Y-13797380D02*
X39511904Y-13702142D01*
X39511904Y-13702142D02*
X39559523Y-13511666D01*
X39559523Y-13511666D02*
X39559523Y-13273571D01*
X39559523Y-13273571D02*
X39511904Y-13083095D01*
X39511904Y-13083095D02*
X39464285Y-12987857D01*
X39464285Y-12987857D02*
X39416666Y-12940238D01*
X39416666Y-12940238D02*
X39321428Y-12892619D01*
%TO.C,R18*%
X40892857Y-9892619D02*
X41226190Y-9416428D01*
X41464285Y-9892619D02*
X41464285Y-8892619D01*
X41464285Y-8892619D02*
X41083333Y-8892619D01*
X41083333Y-8892619D02*
X40988095Y-8940238D01*
X40988095Y-8940238D02*
X40940476Y-8987857D01*
X40940476Y-8987857D02*
X40892857Y-9083095D01*
X40892857Y-9083095D02*
X40892857Y-9225952D01*
X40892857Y-9225952D02*
X40940476Y-9321190D01*
X40940476Y-9321190D02*
X40988095Y-9368809D01*
X40988095Y-9368809D02*
X41083333Y-9416428D01*
X41083333Y-9416428D02*
X41464285Y-9416428D01*
X39940476Y-9892619D02*
X40511904Y-9892619D01*
X40226190Y-9892619D02*
X40226190Y-8892619D01*
X40226190Y-8892619D02*
X40321428Y-9035476D01*
X40321428Y-9035476D02*
X40416666Y-9130714D01*
X40416666Y-9130714D02*
X40511904Y-9178333D01*
X39369047Y-9321190D02*
X39464285Y-9273571D01*
X39464285Y-9273571D02*
X39511904Y-9225952D01*
X39511904Y-9225952D02*
X39559523Y-9130714D01*
X39559523Y-9130714D02*
X39559523Y-9083095D01*
X39559523Y-9083095D02*
X39511904Y-8987857D01*
X39511904Y-8987857D02*
X39464285Y-8940238D01*
X39464285Y-8940238D02*
X39369047Y-8892619D01*
X39369047Y-8892619D02*
X39178571Y-8892619D01*
X39178571Y-8892619D02*
X39083333Y-8940238D01*
X39083333Y-8940238D02*
X39035714Y-8987857D01*
X39035714Y-8987857D02*
X38988095Y-9083095D01*
X38988095Y-9083095D02*
X38988095Y-9130714D01*
X38988095Y-9130714D02*
X39035714Y-9225952D01*
X39035714Y-9225952D02*
X39083333Y-9273571D01*
X39083333Y-9273571D02*
X39178571Y-9321190D01*
X39178571Y-9321190D02*
X39369047Y-9321190D01*
X39369047Y-9321190D02*
X39464285Y-9368809D01*
X39464285Y-9368809D02*
X39511904Y-9416428D01*
X39511904Y-9416428D02*
X39559523Y-9511666D01*
X39559523Y-9511666D02*
X39559523Y-9702142D01*
X39559523Y-9702142D02*
X39511904Y-9797380D01*
X39511904Y-9797380D02*
X39464285Y-9845000D01*
X39464285Y-9845000D02*
X39369047Y-9892619D01*
X39369047Y-9892619D02*
X39178571Y-9892619D01*
X39178571Y-9892619D02*
X39083333Y-9845000D01*
X39083333Y-9845000D02*
X39035714Y-9797380D01*
X39035714Y-9797380D02*
X38988095Y-9702142D01*
X38988095Y-9702142D02*
X38988095Y-9511666D01*
X38988095Y-9511666D02*
X39035714Y-9416428D01*
X39035714Y-9416428D02*
X39083333Y-9368809D01*
X39083333Y-9368809D02*
X39178571Y-9321190D01*
%TO.C,C17*%
X46392857Y-9797380D02*
X46440476Y-9845000D01*
X46440476Y-9845000D02*
X46583333Y-9892619D01*
X46583333Y-9892619D02*
X46678571Y-9892619D01*
X46678571Y-9892619D02*
X46821428Y-9845000D01*
X46821428Y-9845000D02*
X46916666Y-9749761D01*
X46916666Y-9749761D02*
X46964285Y-9654523D01*
X46964285Y-9654523D02*
X47011904Y-9464047D01*
X47011904Y-9464047D02*
X47011904Y-9321190D01*
X47011904Y-9321190D02*
X46964285Y-9130714D01*
X46964285Y-9130714D02*
X46916666Y-9035476D01*
X46916666Y-9035476D02*
X46821428Y-8940238D01*
X46821428Y-8940238D02*
X46678571Y-8892619D01*
X46678571Y-8892619D02*
X46583333Y-8892619D01*
X46583333Y-8892619D02*
X46440476Y-8940238D01*
X46440476Y-8940238D02*
X46392857Y-8987857D01*
X45440476Y-9892619D02*
X46011904Y-9892619D01*
X45726190Y-9892619D02*
X45726190Y-8892619D01*
X45726190Y-8892619D02*
X45821428Y-9035476D01*
X45821428Y-9035476D02*
X45916666Y-9130714D01*
X45916666Y-9130714D02*
X46011904Y-9178333D01*
X45107142Y-8892619D02*
X44440476Y-8892619D01*
X44440476Y-8892619D02*
X44869047Y-9892619D01*
D11*
%TO.C,W2*%
X43450000Y-8000000D02*
G75*
G03*
X43450000Y-8000000I-700000J0D01*
G01*
%TO.C,W1*%
X49450000Y-8000000D02*
G75*
G03*
X49450000Y-8000000I-700000J0D01*
G01*
%TO.C,U3*%
X45750000Y-12610000D02*
X47950000Y-12610000D01*
X45750000Y-12610000D02*
X43550000Y-12610000D01*
X45750000Y-9390000D02*
X43550000Y-9390000D01*
X45750000Y-9390000D02*
X49350000Y-9390000D01*
%TO.C,R23*%
X40012742Y-9477500D02*
X40487258Y-9477500D01*
X40012742Y-10522500D02*
X40487258Y-10522500D01*
%TO.C,R20*%
X40012742Y-11477500D02*
X40487258Y-11477500D01*
X40012742Y-12522500D02*
X40487258Y-12522500D01*
%TO.C,R18*%
X40012742Y-7477500D02*
X40487258Y-7477500D01*
X40012742Y-8522500D02*
X40487258Y-8522500D01*
%TO.C,C17*%
X45609420Y-7490000D02*
X45890580Y-7490000D01*
X45609420Y-8510000D02*
X45890580Y-8510000D01*
%TD*%
M02*
