%TF.GenerationSoftware,KiCad,Pcbnew,7.0.2-0*%
%TF.CreationDate,2024-12-01T01:29:24-08:00*%
%TF.ProjectId,pizero-papoe,70697a65-726f-42d7-9061-706f652e6b69,0.1*%
%TF.SameCoordinates,PX652f520PY4a19ba0*%
%TF.FileFunction,Copper,L2,Bot*%
%TF.FilePolarity,Positive*%
%FSLAX46Y46*%
G04 Gerber Fmt 4.6, Leading zero omitted, Abs format (unit mm)*
G04 Created by KiCad (PCBNEW 7.0.2-0) date 2024-12-01 01:29:24*
%MOMM*%
%LPD*%
G01*
G04 APERTURE LIST*
G04 Aperture macros list*
%AMRoundRect*
0 Rectangle with rounded corners*
0 $1 Rounding radius*
0 $2 $3 $4 $5 $6 $7 $8 $9 X,Y pos of 4 corners*
0 Add a 4 corners polygon primitive as box body*
4,1,4,$2,$3,$4,$5,$6,$7,$8,$9,$2,$3,0*
0 Add four circle primitives for the rounded corners*
1,1,$1+$1,$2,$3*
1,1,$1+$1,$4,$5*
1,1,$1+$1,$6,$7*
1,1,$1+$1,$8,$9*
0 Add four rect primitives between the rounded corners*
20,1,$1+$1,$2,$3,$4,$5,0*
20,1,$1+$1,$4,$5,$6,$7,0*
20,1,$1+$1,$6,$7,$8,$9,0*
20,1,$1+$1,$8,$9,$2,$3,0*%
G04 Aperture macros list end*
%ADD10C,0.203200*%
%TA.AperFunction,NonConductor*%
%ADD11C,0.203200*%
%TD*%
%TA.AperFunction,SMDPad,CuDef*%
%ADD12C,1.000000*%
%TD*%
%TA.AperFunction,SMDPad,CuDef*%
%ADD13RoundRect,0.100000X0.637500X0.100000X-0.637500X0.100000X-0.637500X-0.100000X0.637500X-0.100000X0*%
%TD*%
%TA.AperFunction,SMDPad,CuDef*%
%ADD14RoundRect,0.200000X-0.200000X-0.275000X0.200000X-0.275000X0.200000X0.275000X-0.200000X0.275000X0*%
%TD*%
%TA.AperFunction,ComponentPad*%
%ADD15C,2.499360*%
%TD*%
%TA.AperFunction,ComponentPad*%
%ADD16C,1.198880*%
%TD*%
%TA.AperFunction,SMDPad,CuDef*%
%ADD17RoundRect,0.225000X-0.225000X-0.250000X0.225000X-0.250000X0.225000X0.250000X-0.225000X0.250000X0*%
%TD*%
%TA.AperFunction,ComponentPad*%
%ADD18C,6.000000*%
%TD*%
%TA.AperFunction,ComponentPad*%
%ADD19C,1.500000*%
%TD*%
%TA.AperFunction,ViaPad*%
%ADD20C,0.609600*%
%TD*%
%TA.AperFunction,Conductor*%
%ADD21C,0.254000*%
%TD*%
%TA.AperFunction,Conductor*%
%ADD22C,0.558800*%
%TD*%
%TA.AperFunction,Conductor*%
%ADD23C,0.304800*%
%TD*%
G04 APERTURE END LIST*
D10*
D11*
X14704727Y-22889285D02*
X14299965Y-22605951D01*
X14704727Y-22403570D02*
X13854727Y-22403570D01*
X13854727Y-22403570D02*
X13854727Y-22727380D01*
X13854727Y-22727380D02*
X13895203Y-22808332D01*
X13895203Y-22808332D02*
X13935679Y-22848809D01*
X13935679Y-22848809D02*
X14016631Y-22889285D01*
X14016631Y-22889285D02*
X14138060Y-22889285D01*
X14138060Y-22889285D02*
X14219012Y-22848809D01*
X14219012Y-22848809D02*
X14259489Y-22808332D01*
X14259489Y-22808332D02*
X14299965Y-22727380D01*
X14299965Y-22727380D02*
X14299965Y-22403570D01*
X14704727Y-23253570D02*
X13854727Y-23253570D01*
X13854727Y-23253570D02*
X13854727Y-23577380D01*
X13854727Y-23577380D02*
X13895203Y-23658332D01*
X13895203Y-23658332D02*
X13935679Y-23698809D01*
X13935679Y-23698809D02*
X14016631Y-23739285D01*
X14016631Y-23739285D02*
X14138060Y-23739285D01*
X14138060Y-23739285D02*
X14219012Y-23698809D01*
X14219012Y-23698809D02*
X14259489Y-23658332D01*
X14259489Y-23658332D02*
X14299965Y-23577380D01*
X14299965Y-23577380D02*
X14299965Y-23253570D01*
X14704727Y-24103570D02*
X14138060Y-24103570D01*
X13854727Y-24103570D02*
X13895203Y-24063094D01*
X13895203Y-24063094D02*
X13935679Y-24103570D01*
X13935679Y-24103570D02*
X13895203Y-24144047D01*
X13895203Y-24144047D02*
X13854727Y-24103570D01*
X13854727Y-24103570D02*
X13935679Y-24103570D01*
X13854727Y-25317856D02*
X13854727Y-25398809D01*
X13854727Y-25398809D02*
X13895203Y-25479761D01*
X13895203Y-25479761D02*
X13935679Y-25520237D01*
X13935679Y-25520237D02*
X14016631Y-25560713D01*
X14016631Y-25560713D02*
X14178536Y-25601190D01*
X14178536Y-25601190D02*
X14380917Y-25601190D01*
X14380917Y-25601190D02*
X14542822Y-25560713D01*
X14542822Y-25560713D02*
X14623774Y-25520237D01*
X14623774Y-25520237D02*
X14664251Y-25479761D01*
X14664251Y-25479761D02*
X14704727Y-25398809D01*
X14704727Y-25398809D02*
X14704727Y-25317856D01*
X14704727Y-25317856D02*
X14664251Y-25236904D01*
X14664251Y-25236904D02*
X14623774Y-25196428D01*
X14623774Y-25196428D02*
X14542822Y-25155951D01*
X14542822Y-25155951D02*
X14380917Y-25115475D01*
X14380917Y-25115475D02*
X14178536Y-25115475D01*
X14178536Y-25115475D02*
X14016631Y-25155951D01*
X14016631Y-25155951D02*
X13935679Y-25196428D01*
X13935679Y-25196428D02*
X13895203Y-25236904D01*
X13895203Y-25236904D02*
X13854727Y-25317856D01*
X14704727Y-26613094D02*
X13854727Y-26613094D01*
X13854727Y-26613094D02*
X13854727Y-26936904D01*
X13854727Y-26936904D02*
X13895203Y-27017856D01*
X13895203Y-27017856D02*
X13935679Y-27058333D01*
X13935679Y-27058333D02*
X14016631Y-27098809D01*
X14016631Y-27098809D02*
X14138060Y-27098809D01*
X14138060Y-27098809D02*
X14219012Y-27058333D01*
X14219012Y-27058333D02*
X14259489Y-27017856D01*
X14259489Y-27017856D02*
X14299965Y-26936904D01*
X14299965Y-26936904D02*
X14299965Y-26613094D01*
X14704727Y-27584523D02*
X14664251Y-27503571D01*
X14664251Y-27503571D02*
X14623774Y-27463094D01*
X14623774Y-27463094D02*
X14542822Y-27422618D01*
X14542822Y-27422618D02*
X14299965Y-27422618D01*
X14299965Y-27422618D02*
X14219012Y-27463094D01*
X14219012Y-27463094D02*
X14178536Y-27503571D01*
X14178536Y-27503571D02*
X14138060Y-27584523D01*
X14138060Y-27584523D02*
X14138060Y-27705952D01*
X14138060Y-27705952D02*
X14178536Y-27786904D01*
X14178536Y-27786904D02*
X14219012Y-27827380D01*
X14219012Y-27827380D02*
X14299965Y-27867856D01*
X14299965Y-27867856D02*
X14542822Y-27867856D01*
X14542822Y-27867856D02*
X14623774Y-27827380D01*
X14623774Y-27827380D02*
X14664251Y-27786904D01*
X14664251Y-27786904D02*
X14704727Y-27705952D01*
X14704727Y-27705952D02*
X14704727Y-27584523D01*
X14259489Y-28232142D02*
X14259489Y-28515476D01*
X14704727Y-28636904D02*
X14704727Y-28232142D01*
X14704727Y-28232142D02*
X13854727Y-28232142D01*
X13854727Y-28232142D02*
X13854727Y-28636904D01*
X16081727Y-21857142D02*
X15515060Y-21857142D01*
X15231727Y-21857142D02*
X15272203Y-21816666D01*
X15272203Y-21816666D02*
X15312679Y-21857142D01*
X15312679Y-21857142D02*
X15272203Y-21897619D01*
X15272203Y-21897619D02*
X15231727Y-21857142D01*
X15231727Y-21857142D02*
X15312679Y-21857142D01*
X16081727Y-22261904D02*
X15231727Y-22261904D01*
X16081727Y-22626190D02*
X15636489Y-22626190D01*
X15636489Y-22626190D02*
X15555536Y-22585714D01*
X15555536Y-22585714D02*
X15515060Y-22504762D01*
X15515060Y-22504762D02*
X15515060Y-22383333D01*
X15515060Y-22383333D02*
X15555536Y-22302381D01*
X15555536Y-22302381D02*
X15596012Y-22261904D01*
X16081727Y-23395238D02*
X15636489Y-23395238D01*
X15636489Y-23395238D02*
X15555536Y-23354762D01*
X15555536Y-23354762D02*
X15515060Y-23273810D01*
X15515060Y-23273810D02*
X15515060Y-23111905D01*
X15515060Y-23111905D02*
X15555536Y-23030952D01*
X16041251Y-23395238D02*
X16081727Y-23314286D01*
X16081727Y-23314286D02*
X16081727Y-23111905D01*
X16081727Y-23111905D02*
X16041251Y-23030952D01*
X16041251Y-23030952D02*
X15960298Y-22990476D01*
X15960298Y-22990476D02*
X15879346Y-22990476D01*
X15879346Y-22990476D02*
X15798393Y-23030952D01*
X15798393Y-23030952D02*
X15757917Y-23111905D01*
X15757917Y-23111905D02*
X15757917Y-23314286D01*
X15757917Y-23314286D02*
X15717441Y-23395238D01*
X16081727Y-23800000D02*
X15515060Y-23800000D01*
X15676965Y-23800000D02*
X15596012Y-23840477D01*
X15596012Y-23840477D02*
X15555536Y-23880953D01*
X15555536Y-23880953D02*
X15515060Y-23961905D01*
X15515060Y-23961905D02*
X15515060Y-24042858D01*
X15515060Y-24204762D02*
X15515060Y-24528571D01*
X15231727Y-24326190D02*
X15960298Y-24326190D01*
X15960298Y-24326190D02*
X16041251Y-24366667D01*
X16041251Y-24366667D02*
X16081727Y-24447619D01*
X16081727Y-24447619D02*
X16081727Y-24528571D01*
X15515060Y-24730952D02*
X16081727Y-24892857D01*
X16081727Y-24892857D02*
X15676965Y-25054762D01*
X15676965Y-25054762D02*
X16081727Y-25216666D01*
X16081727Y-25216666D02*
X15515060Y-25378571D01*
X16081727Y-25702380D02*
X15515060Y-25702380D01*
X15231727Y-25702380D02*
X15272203Y-25661904D01*
X15272203Y-25661904D02*
X15312679Y-25702380D01*
X15312679Y-25702380D02*
X15272203Y-25742857D01*
X15272203Y-25742857D02*
X15231727Y-25702380D01*
X15231727Y-25702380D02*
X15312679Y-25702380D01*
X15515060Y-26471428D02*
X16203155Y-26471428D01*
X16203155Y-26471428D02*
X16284108Y-26430952D01*
X16284108Y-26430952D02*
X16324584Y-26390476D01*
X16324584Y-26390476D02*
X16365060Y-26309523D01*
X16365060Y-26309523D02*
X16365060Y-26188095D01*
X16365060Y-26188095D02*
X16324584Y-26107142D01*
X16041251Y-26471428D02*
X16081727Y-26390476D01*
X16081727Y-26390476D02*
X16081727Y-26228571D01*
X16081727Y-26228571D02*
X16041251Y-26147619D01*
X16041251Y-26147619D02*
X16000774Y-26107142D01*
X16000774Y-26107142D02*
X15919822Y-26066666D01*
X15919822Y-26066666D02*
X15676965Y-26066666D01*
X15676965Y-26066666D02*
X15596012Y-26107142D01*
X15596012Y-26107142D02*
X15555536Y-26147619D01*
X15555536Y-26147619D02*
X15515060Y-26228571D01*
X15515060Y-26228571D02*
X15515060Y-26390476D01*
X15515060Y-26390476D02*
X15555536Y-26471428D01*
X15231727Y-27564286D02*
X15393631Y-27483333D01*
X16081727Y-28373810D02*
X16081727Y-27888095D01*
X16081727Y-28130952D02*
X15231727Y-28130952D01*
X15231727Y-28130952D02*
X15353155Y-28050000D01*
X15353155Y-28050000D02*
X15434108Y-27969048D01*
X15434108Y-27969048D02*
X15474584Y-27888095D01*
X15231727Y-29102381D02*
X15231727Y-28940476D01*
X15231727Y-28940476D02*
X15272203Y-28859524D01*
X15272203Y-28859524D02*
X15312679Y-28819048D01*
X15312679Y-28819048D02*
X15434108Y-28738095D01*
X15434108Y-28738095D02*
X15596012Y-28697619D01*
X15596012Y-28697619D02*
X15919822Y-28697619D01*
X15919822Y-28697619D02*
X16000774Y-28738095D01*
X16000774Y-28738095D02*
X16041251Y-28778572D01*
X16041251Y-28778572D02*
X16081727Y-28859524D01*
X16081727Y-28859524D02*
X16081727Y-29021429D01*
X16081727Y-29021429D02*
X16041251Y-29102381D01*
X16041251Y-29102381D02*
X16000774Y-29142857D01*
X16000774Y-29142857D02*
X15919822Y-29183334D01*
X15919822Y-29183334D02*
X15717441Y-29183334D01*
X15717441Y-29183334D02*
X15636489Y-29142857D01*
X15636489Y-29142857D02*
X15596012Y-29102381D01*
X15596012Y-29102381D02*
X15555536Y-29021429D01*
X15555536Y-29021429D02*
X15555536Y-28859524D01*
X15555536Y-28859524D02*
X15596012Y-28778572D01*
X15596012Y-28778572D02*
X15636489Y-28738095D01*
X15636489Y-28738095D02*
X15717441Y-28697619D01*
D10*
D11*
X17643227Y-23739286D02*
X17238465Y-23455952D01*
X17643227Y-23253571D02*
X16793227Y-23253571D01*
X16793227Y-23253571D02*
X16793227Y-23577381D01*
X16793227Y-23577381D02*
X16833703Y-23658333D01*
X16833703Y-23658333D02*
X16874179Y-23698810D01*
X16874179Y-23698810D02*
X16955131Y-23739286D01*
X16955131Y-23739286D02*
X17076560Y-23739286D01*
X17076560Y-23739286D02*
X17157512Y-23698810D01*
X17157512Y-23698810D02*
X17197989Y-23658333D01*
X17197989Y-23658333D02*
X17238465Y-23577381D01*
X17238465Y-23577381D02*
X17238465Y-23253571D01*
X17602751Y-24427381D02*
X17643227Y-24346429D01*
X17643227Y-24346429D02*
X17643227Y-24184524D01*
X17643227Y-24184524D02*
X17602751Y-24103571D01*
X17602751Y-24103571D02*
X17521798Y-24063095D01*
X17521798Y-24063095D02*
X17197989Y-24063095D01*
X17197989Y-24063095D02*
X17117036Y-24103571D01*
X17117036Y-24103571D02*
X17076560Y-24184524D01*
X17076560Y-24184524D02*
X17076560Y-24346429D01*
X17076560Y-24346429D02*
X17117036Y-24427381D01*
X17117036Y-24427381D02*
X17197989Y-24467857D01*
X17197989Y-24467857D02*
X17278941Y-24467857D01*
X17278941Y-24467857D02*
X17359893Y-24063095D01*
X17076560Y-24751190D02*
X17643227Y-24953571D01*
X17643227Y-24953571D02*
X17076560Y-25155952D01*
X17643227Y-26572619D02*
X17643227Y-26086904D01*
X17643227Y-26329761D02*
X16793227Y-26329761D01*
X16793227Y-26329761D02*
X16914655Y-26248809D01*
X16914655Y-26248809D02*
X16995608Y-26167857D01*
X16995608Y-26167857D02*
X17036084Y-26086904D01*
X17562274Y-26936904D02*
X17602751Y-26977381D01*
X17602751Y-26977381D02*
X17643227Y-26936904D01*
X17643227Y-26936904D02*
X17602751Y-26896428D01*
X17602751Y-26896428D02*
X17562274Y-26936904D01*
X17562274Y-26936904D02*
X17643227Y-26936904D01*
X16793227Y-27503571D02*
X16793227Y-27584524D01*
X16793227Y-27584524D02*
X16833703Y-27665476D01*
X16833703Y-27665476D02*
X16874179Y-27705952D01*
X16874179Y-27705952D02*
X16955131Y-27746428D01*
X16955131Y-27746428D02*
X17117036Y-27786905D01*
X17117036Y-27786905D02*
X17319417Y-27786905D01*
X17319417Y-27786905D02*
X17481322Y-27746428D01*
X17481322Y-27746428D02*
X17562274Y-27705952D01*
X17562274Y-27705952D02*
X17602751Y-27665476D01*
X17602751Y-27665476D02*
X17643227Y-27584524D01*
X17643227Y-27584524D02*
X17643227Y-27503571D01*
X17643227Y-27503571D02*
X17602751Y-27422619D01*
X17602751Y-27422619D02*
X17562274Y-27382143D01*
X17562274Y-27382143D02*
X17481322Y-27341666D01*
X17481322Y-27341666D02*
X17319417Y-27301190D01*
X17319417Y-27301190D02*
X17117036Y-27301190D01*
X17117036Y-27301190D02*
X16955131Y-27341666D01*
X16955131Y-27341666D02*
X16874179Y-27382143D01*
X16874179Y-27382143D02*
X16833703Y-27422619D01*
X16833703Y-27422619D02*
X16793227Y-27503571D01*
D12*
%TO.P,W2,1,1*%
%TO.N,Net-(U3-WP)*%
X42750000Y-8000000D03*
%TD*%
%TO.P,W1,1,1*%
%TO.N,GND*%
X48750000Y-8000000D03*
%TD*%
D13*
%TO.P,U3,1,A0*%
%TO.N,GND*%
X48612500Y-10025000D03*
%TO.P,U3,2,A1*%
X48612500Y-10675000D03*
%TO.P,U3,3,A2*%
X48612500Y-11325000D03*
%TO.P,U3,4,GND*%
X48612500Y-11975000D03*
%TO.P,U3,5,SDA*%
%TO.N,/GPIO0_ID_SD*%
X42887500Y-11975000D03*
%TO.P,U3,6,SCL*%
%TO.N,/GPIO1_ID_SC*%
X42887500Y-11325000D03*
%TO.P,U3,7,WP*%
%TO.N,Net-(U3-WP)*%
X42887500Y-10675000D03*
%TO.P,U3,8,VCC*%
%TO.N,+3V3*%
X42887500Y-10025000D03*
%TD*%
D14*
%TO.P,R23,1*%
%TO.N,+3V3*%
X39425000Y-10000000D03*
%TO.P,R23,2*%
%TO.N,/GPIO1_ID_SC*%
X41075000Y-10000000D03*
%TD*%
%TO.P,R20,1*%
%TO.N,+3V3*%
X39425000Y-12000000D03*
%TO.P,R20,2*%
%TO.N,/GPIO0_ID_SD*%
X41075000Y-12000000D03*
%TD*%
%TO.P,R18,1*%
%TO.N,+3V3*%
X39425000Y-8000000D03*
%TO.P,R18,2*%
%TO.N,Net-(U3-WP)*%
X41075000Y-8000000D03*
%TD*%
D15*
%TO.P,J1,*%
%TO.N,*%
X73166880Y-23120380D03*
X73166880Y-6879620D03*
D16*
%TO.P,J1,1*%
%TO.N,/TPOUT_T+*%
X74055880Y-11449080D03*
%TO.P,J1,2*%
%TO.N,/TPOUT_T-*%
X72275340Y-12462540D03*
%TO.P,J1,3*%
%TO.N,/TPIN_T+*%
X74055880Y-13478540D03*
%TO.P,J1,4*%
%TO.N,/TPIN_T-*%
X72275340Y-14492000D03*
%TO.P,J1,5*%
%TO.N,/SPARE_PAIR_1*%
X74055880Y-15508000D03*
%TO.P,J1,6*%
X72275340Y-16521460D03*
%TO.P,J1,7*%
%TO.N,/SPARE_PAIR_2*%
X74055880Y-17537460D03*
%TO.P,J1,8*%
X72275340Y-18550920D03*
%TO.P,J1,9,LED1-*%
%TO.N,/LEDA_K*%
X67456960Y-8139460D03*
%TO.P,J1,10,LED1+*%
%TO.N,/LEDA_A*%
X67456960Y-10430540D03*
%TO.P,J1,11,LED2-*%
%TO.N,/LEDB_K*%
X67456960Y-19569460D03*
%TO.P,J1,12,LED2+*%
%TO.N,/LEDB_A*%
X67456960Y-21860540D03*
%TD*%
D17*
%TO.P,C17,1*%
%TO.N,+3V3*%
X44975000Y-8000000D03*
%TO.P,C17,2*%
%TO.N,GND*%
X46525000Y-8000000D03*
%TD*%
D18*
%TO.P,H1,1*%
%TO.N,unconnected-(H1-Pad1)*%
X3500000Y-26500000D03*
%TD*%
%TO.P,H2,1*%
%TO.N,unconnected-(H2-Pad1)*%
X3500000Y-3500000D03*
%TD*%
%TO.P,H3,1*%
%TO.N,unconnected-(H3-Pad1)*%
X61500000Y-26000000D03*
%TD*%
%TO.P,H4,1*%
%TO.N,unconnected-(H4-Pad1)*%
X61500000Y-3500000D03*
%TD*%
D19*
%TO.P,P2,1,P1*%
%TO.N,/RPI_3V3_1*%
X8370000Y-4770000D03*
%TO.P,P2,2,P2*%
%TO.N,/RPI_VBUS*%
X8370000Y-2230000D03*
%TO.P,P2,3,P3*%
%TO.N,/GPIO1_SDA1*%
X10910000Y-4770000D03*
%TO.P,P2,5,P5*%
%TO.N,/GPIO3_SCL1*%
X13450000Y-4770000D03*
%TO.P,P2,7,P7*%
%TO.N,/GPIO4*%
X15990000Y-4770000D03*
%TO.P,P2,9,P9*%
%TO.N,GND*%
X18530000Y-4770000D03*
%TO.P,P2,11,P11*%
%TO.N,/GPIO17*%
X21070000Y-4770000D03*
%TO.P,P2,13,P13*%
%TO.N,/GPIO27*%
X23610000Y-4770000D03*
%TO.P,P2,15,P15*%
%TO.N,/GPIO22*%
X26150000Y-4770000D03*
%TO.P,P2,17,P17*%
%TO.N,/RPI_3V3_2*%
X28690000Y-4770000D03*
%TO.P,P2,19,P19*%
%TO.N,/GPIO10_MOSI*%
X31230000Y-4770000D03*
%TO.P,P2,21,P21*%
%TO.N,/GPIO9_MISO*%
X33770000Y-4770000D03*
%TO.P,P2,23,P23*%
%TO.N,/GPIO11_SCLK*%
X36310000Y-4770000D03*
%TO.P,P2,25,P25*%
%TO.N,GND*%
X38850000Y-4770000D03*
%TO.P,P2,4,P4*%
%TO.N,/RPI_VBUS*%
X10910000Y-2230000D03*
%TO.P,P2,6,P6*%
%TO.N,GND*%
X13450000Y-2230000D03*
%TO.P,P2,8,P8*%
%TO.N,/GPIO14_TXD0*%
X15990000Y-2230000D03*
%TO.P,P2,10,P10*%
%TO.N,/GPIO15_RXD0*%
X18530000Y-2230000D03*
%TO.P,P2,12,P12*%
%TO.N,/GPIO18*%
X21070000Y-2230000D03*
%TO.P,P2,14,P14*%
%TO.N,GND*%
X23610000Y-2230000D03*
%TO.P,P2,16,P16*%
%TO.N,/GPIO23*%
X26150000Y-2230000D03*
%TO.P,P2,18,P18*%
%TO.N,/GPIO24*%
X28690000Y-2230000D03*
%TO.P,P2,20,P20*%
%TO.N,GND*%
X31230000Y-2230000D03*
%TO.P,P2,22,P22*%
%TO.N,/GPIO25*%
X33770000Y-2230000D03*
%TO.P,P2,24,P24*%
%TO.N,/GPIO8_CE0#*%
X36310000Y-2230000D03*
%TO.P,P2,26,P26*%
%TO.N,/GPIO7_CE1#*%
X38850000Y-2230000D03*
%TO.P,P2,27,P27*%
%TO.N,/GPIO0_ID_SD*%
X41390000Y-4770000D03*
%TO.P,P2,29,P29*%
%TO.N,/GPIO5*%
X43930000Y-4770000D03*
%TO.P,P2,31,P31*%
%TO.N,/GPIO6*%
X46470000Y-4770000D03*
%TO.P,P2,33,P33*%
%TO.N,/GPIO13*%
X49010000Y-4770000D03*
%TO.P,P2,35,P35*%
%TO.N,/GPIO19*%
X51550000Y-4770000D03*
%TO.P,P2,37,P37*%
%TO.N,/GPIO26*%
X54090000Y-4770000D03*
%TO.P,P2,39,P39*%
%TO.N,GND*%
X56630000Y-4770000D03*
%TO.P,P2,40,P40*%
%TO.N,/GPIO21_SCLK*%
X56630000Y-2230000D03*
%TO.P,P2,38,P38*%
%TO.N,/GPIO20_MOSI*%
X54090000Y-2230000D03*
%TO.P,P2,36,P36*%
%TO.N,/GPIO16_CE2#*%
X51550000Y-2230000D03*
%TO.P,P2,34,P34*%
%TO.N,GND*%
X49010000Y-2230000D03*
%TO.P,P2,32,P32*%
%TO.N,/GPIO12*%
X46470000Y-2230000D03*
%TO.P,P2,30,P30*%
%TO.N,GND*%
X43930000Y-2230000D03*
%TO.P,P2,28,P28*%
%TO.N,/GPIO1_ID_SC*%
X41390000Y-2230000D03*
%TD*%
D20*
%TO.N,GND*%
X13000000Y-9500000D03*
%TO.N,+5V*%
X6250000Y-15750000D03*
X3250000Y-15750000D03*
%TO.N,GND*%
X44295859Y-8871593D03*
X42250000Y-9250000D03*
X30500000Y-10614990D03*
X35114990Y-14216625D03*
X35114990Y-13150963D03*
X35114990Y-15280474D03*
X35114990Y-16338394D03*
X38385010Y-13150963D03*
X38385010Y-14216625D03*
X38385010Y-15250000D03*
X38385010Y-16338394D03*
X32500000Y-17500000D03*
X20500000Y-11500000D03*
X27000000Y-16750000D03*
X25250000Y-7500000D03*
X22750000Y-7500000D03*
X30500000Y-8750000D03*
X28500000Y-8750000D03*
X25750000Y-10750000D03*
X30500000Y-12750000D03*
X28500000Y-14250000D03*
X9500000Y-15000000D03*
X11000000Y-15000000D03*
X15750000Y-11500000D03*
X9250000Y-11500000D03*
X10000000Y-21000000D03*
X6750000Y-21000000D03*
X10000000Y-18500000D03*
X6750000Y-18500000D03*
X45750000Y-11000000D03*
X33000000Y-15500000D03*
X46000000Y-14000000D03*
X43000000Y-14000000D03*
X39500000Y-17500000D03*
%TO.N,*%
X44750000Y-23750000D03*
X16750000Y-15000000D03*
X15500000Y-15000000D03*
X14000000Y-15000000D03*
X29250000Y-22250000D03*
X35250000Y-22250000D03*
X32250000Y-22250000D03*
X40000000Y-24250000D03*
X33250000Y-27750000D03*
X35000000Y-27750000D03*
X40000000Y-28750000D03*
X40000000Y-27750000D03*
X42750000Y-28750000D03*
X51750000Y-29500000D03*
X49000000Y-29500000D03*
%TO.N,+3V3*%
X38000000Y-7250201D03*
X45000000Y-7250201D03*
X46500000Y-16500000D03*
X40750000Y-14750000D03*
%TO.N,*%
X41250000Y-28750000D03*
X28500000Y-28750000D03*
%TO.N,/RPI_VBUS*%
X17250000Y-7000000D03*
%TO.N,/GPIO9_MISO*%
X34750000Y-18750000D03*
%TO.N,/GPIO10_MOSI*%
X35794479Y-18780732D03*
%TO.N,/GPIO11_SCLK*%
X36750000Y-18750000D03*
%TO.N,/GPIO8_CE0#*%
X37750000Y-18750000D03*
%TO.N,/GPIO25*%
X34000000Y-17500000D03*
X32500000Y-6500000D03*
%TO.N,/GPIO0_ID_SD*%
X45500000Y-6250000D03*
%TO.N,*%
X22000000Y-9500000D03*
X16750000Y-8250000D03*
%TO.N,/POE_VPORTN*%
X54750000Y-21500000D03*
X54000000Y-28500000D03*
X57000000Y-28500000D03*
X37250000Y-25750000D03*
X47500000Y-24500000D03*
X42739058Y-24989422D03*
X60000000Y-20250000D03*
X58000000Y-20250000D03*
X65000000Y-10000000D03*
X65000000Y-8500000D03*
X59000000Y-21000000D03*
X66000000Y-9250000D03*
%TO.N,*%
X46750000Y-25500000D03*
X47500000Y-22250000D03*
%TO.N,/LEDB_K*%
X31750000Y-18750000D03*
X33000000Y-12250000D03*
%TO.N,/LEDA_K*%
X30750000Y-18750000D03*
X32976504Y-13265566D03*
%TO.N,/TPIN_T+*%
X54500000Y-15568200D03*
%TO.N,/TPOUT_T+*%
X54500000Y-9318200D03*
%TO.N,/TPOUT_T-*%
X54500000Y-10181800D03*
%TO.N,/TPIN_T-*%
X54500000Y-16431800D03*
%TO.N,*%
X44000000Y-22250000D03*
X40000000Y-25250000D03*
%TD*%
D21*
%TO.N,+3V3*%
X40750000Y-13450000D02*
X40750000Y-14750000D01*
X39500000Y-12000000D02*
X39500000Y-12200000D01*
X39500000Y-12200000D02*
X40750000Y-13450000D01*
X39500000Y-8000000D02*
X38749799Y-8000000D01*
X38749799Y-8000000D02*
X38000000Y-7250201D01*
X46500000Y-16500000D02*
X42500000Y-16500000D01*
X42500000Y-16500000D02*
X40750000Y-14750000D01*
X45000000Y-8000000D02*
X45000000Y-7250201D01*
X44225000Y-10025000D02*
X45000000Y-9250000D01*
X45000000Y-9250000D02*
X45000000Y-8000000D01*
X42800000Y-10025000D02*
X44225000Y-10025000D01*
X39500000Y-10000000D02*
X39500000Y-8000000D01*
X39500000Y-12000000D02*
X39500000Y-10000000D01*
%TO.N,*%
X29250000Y-29500000D02*
X40500000Y-29500000D01*
X40500000Y-29500000D02*
X41250000Y-28750000D01*
X28500000Y-28750000D02*
X29250000Y-29500000D01*
D22*
%TO.N,/RPI_VBUS*%
X17250000Y-4250000D02*
X17250000Y-7000000D01*
X16500000Y-3500000D02*
X17250000Y-4250000D01*
X12180000Y-3500000D02*
X16500000Y-3500000D01*
X10910000Y-2230000D02*
X12180000Y-3500000D01*
D21*
%TO.N,/GPIO9_MISO*%
X34750000Y-18750000D02*
X36250000Y-17250000D01*
X36250000Y-17250000D02*
X36250000Y-12250000D01*
X36250000Y-12250000D02*
X34500000Y-10500000D01*
X34500000Y-10500000D02*
X34500000Y-5750000D01*
X34500000Y-5750000D02*
X33770000Y-5020000D01*
X33770000Y-5020000D02*
X33770000Y-4770000D01*
%TO.N,/GPIO10_MOSI*%
X35794479Y-18780732D02*
X36099278Y-18475933D01*
X36099278Y-18475933D02*
X36099278Y-18150722D01*
X36099278Y-18150722D02*
X36750000Y-17500000D01*
X36750000Y-17500000D02*
X36750000Y-12000000D01*
X36750000Y-12000000D02*
X35000000Y-10250000D01*
X35000000Y-10250000D02*
X35000000Y-4250000D01*
X35000000Y-4250000D02*
X34250000Y-3500000D01*
X34250000Y-3500000D02*
X32500000Y-3500000D01*
X32500000Y-3500000D02*
X31230000Y-4770000D01*
%TO.N,/GPIO11_SCLK*%
X36750000Y-18750000D02*
X36750000Y-18318948D01*
X36750000Y-18318948D02*
X37250000Y-17818948D01*
X37250000Y-17818948D02*
X37250000Y-11750000D01*
X37250000Y-11750000D02*
X35500000Y-10000000D01*
X35500000Y-10000000D02*
X35500000Y-5580000D01*
X35500000Y-5580000D02*
X36310000Y-4770000D01*
%TO.N,/GPIO8_CE0#*%
X37750000Y-18750000D02*
X37750000Y-11500000D01*
X37750000Y-11500000D02*
X36000000Y-9750000D01*
X36000000Y-9750000D02*
X36000000Y-6750000D01*
X36000000Y-6750000D02*
X37500000Y-5250000D01*
X37500000Y-5250000D02*
X37500000Y-3420000D01*
X37500000Y-3420000D02*
X36310000Y-2230000D01*
%TO.N,/GPIO25*%
X34000000Y-17500000D02*
X34304799Y-17804799D01*
X34304799Y-17804799D02*
X34945201Y-17804799D01*
X34000000Y-10750000D02*
X34000000Y-8500000D01*
X34945201Y-17804799D02*
X35750000Y-17000000D01*
X35750000Y-17000000D02*
X35750000Y-12500000D01*
X35750000Y-12500000D02*
X34000000Y-10750000D01*
X34000000Y-8500000D02*
X32500000Y-7000000D01*
X32500000Y-7000000D02*
X32500000Y-6500000D01*
%TO.N,/GPIO0_ID_SD*%
X45750000Y-6750000D02*
X45750000Y-6500000D01*
X45750000Y-6500000D02*
X45500000Y-6250000D01*
X45750000Y-6750000D02*
X45750000Y-10004000D01*
X42800000Y-11975000D02*
X43779000Y-11975000D01*
X43779000Y-11975000D02*
X45750000Y-10004000D01*
X42800000Y-11975000D02*
X41025000Y-11975000D01*
X41025000Y-11975000D02*
X41000000Y-12000000D01*
%TO.N,/GPIO1_ID_SC*%
X41000000Y-10000000D02*
X41000000Y-9800000D01*
X41000000Y-9800000D02*
X40419799Y-9219799D01*
X40419799Y-9219799D02*
X40419799Y-5669799D01*
X40419799Y-5669799D02*
X40250000Y-5500000D01*
X40250000Y-5500000D02*
X40250000Y-3370000D01*
X40250000Y-3370000D02*
X41390000Y-2230000D01*
X42800000Y-11325000D02*
X41621000Y-11325000D01*
X41621000Y-11325000D02*
X41000000Y-10704000D01*
X41000000Y-10704000D02*
X41000000Y-10000000D01*
%TO.N,*%
X18000000Y-9500000D02*
X16750000Y-8250000D01*
X22000000Y-9500000D02*
X18000000Y-9500000D01*
X41580201Y-10434201D02*
X41580201Y-9330201D01*
X41580201Y-9330201D02*
X41000000Y-8750000D01*
X41000000Y-8750000D02*
X41000000Y-8000000D01*
X41821000Y-10675000D02*
X41580201Y-10434201D01*
X42800000Y-10675000D02*
X41821000Y-10675000D01*
X42750000Y-8000000D02*
X41000000Y-8000000D01*
X46250000Y-23931052D02*
X46250000Y-25000000D01*
X46250000Y-25000000D02*
X46750000Y-25500000D01*
X47500000Y-22250000D02*
X47500000Y-22681052D01*
X47500000Y-22681052D02*
X46250000Y-23931052D01*
%TO.N,/LEDB_K*%
X33750000Y-13500000D02*
X31750000Y-15500000D01*
X31750000Y-15500000D02*
X31750000Y-18750000D01*
X33750000Y-13000000D02*
X33750000Y-13500000D01*
X33304799Y-12554799D02*
X33750000Y-13000000D01*
X33000000Y-12250000D02*
X33304799Y-12554799D01*
%TO.N,/LEDA_K*%
X32976504Y-13273496D02*
X30750000Y-15500000D01*
X30750000Y-15500000D02*
X30750000Y-18750000D01*
X32976504Y-13265566D02*
X32976504Y-13273496D01*
D22*
%TO.N,/TPIN_T+*%
X54500000Y-15568200D02*
X54525401Y-15593601D01*
X54525401Y-15593601D02*
X69331663Y-15593601D01*
D23*
X71612194Y-13478540D02*
X72938486Y-13478540D01*
D22*
X71446724Y-13478540D02*
X69331663Y-15593601D01*
X74055880Y-13478540D02*
X72938486Y-13478540D01*
X72938486Y-13478540D02*
X72937216Y-13477270D01*
X71612194Y-13478540D02*
X71446724Y-13478540D01*
%TO.N,/TPOUT_T+*%
X54500000Y-9318200D02*
X54525401Y-9343601D01*
X54525401Y-9343601D02*
X59918337Y-9343601D01*
X63418336Y-12843600D02*
X59918337Y-9343601D01*
X68331664Y-12843600D02*
X63418336Y-12843600D01*
X69726184Y-11449080D02*
X68331664Y-12843600D01*
X72819105Y-11329699D02*
X71731575Y-11329699D01*
X74055880Y-11449080D02*
X72938486Y-11449080D01*
X72938486Y-11449080D02*
X72819105Y-11329699D01*
X71731575Y-11329699D02*
X71612194Y-11449080D01*
X71612194Y-11449080D02*
X69726184Y-11449080D01*
%TO.N,/TPOUT_T-*%
X54500000Y-10181800D02*
X54525401Y-10156399D01*
X54525401Y-10156399D02*
X59581663Y-10156399D01*
X63081664Y-13656400D02*
X59581663Y-10156399D01*
X68668336Y-13656400D02*
X63081664Y-13656400D01*
X70062857Y-12261879D02*
X68668336Y-13656400D01*
X72275340Y-12462540D02*
X72074679Y-12261879D01*
X72074679Y-12261879D02*
X70062857Y-12261879D01*
%TO.N,/TPIN_T-*%
X54500000Y-16431800D02*
X54525401Y-16406399D01*
X54525401Y-16406399D02*
X69668337Y-16406399D01*
X71783397Y-14291339D02*
X69668337Y-16406399D01*
X72275340Y-14492000D02*
X72074679Y-14291339D01*
X72074679Y-14291339D02*
X71783397Y-14291339D01*
D21*
%TO.N,*%
X44000000Y-22250000D02*
X44000000Y-22500000D01*
X44000000Y-22500000D02*
X43500000Y-23000000D01*
X40000000Y-25250000D02*
X41250000Y-24000000D01*
X41250000Y-24000000D02*
X42500000Y-24000000D01*
X42500000Y-24000000D02*
X43500000Y-23000000D01*
%TD*%
%TA.AperFunction,Conductor*%
%TO.N,/POE_VPORTN*%
G36*
X65122325Y-104310D02*
G01*
X65134213Y-106632D01*
X65401692Y-172392D01*
X65407496Y-173968D01*
X65420124Y-177727D01*
X65420124Y-177726D01*
X65453296Y-187600D01*
X65453375Y-187622D01*
X67315699Y-741885D01*
X79625628Y-4405554D01*
X79625629Y-4405555D01*
X79638138Y-4409278D01*
X79644493Y-4411355D01*
X79931554Y-4513761D01*
X79943958Y-4518949D01*
X80215394Y-4649887D01*
X80227179Y-4656369D01*
X80483113Y-4815494D01*
X80494140Y-4823195D01*
X80717550Y-4997679D01*
X80731653Y-5008693D01*
X80741796Y-5017525D01*
X80958192Y-5227291D01*
X80967334Y-5237153D01*
X81160135Y-5468785D01*
X81168171Y-5479561D01*
X81335186Y-5730430D01*
X81342031Y-5742007D01*
X81481348Y-6009235D01*
X81486920Y-6021476D01*
X81596962Y-6302038D01*
X81601198Y-6314803D01*
X81680708Y-6605495D01*
X81683559Y-6618639D01*
X81731631Y-6916157D01*
X81733064Y-6929530D01*
X81749320Y-7233653D01*
X81749500Y-7240378D01*
X81749500Y-22759452D01*
X81749320Y-22766177D01*
X81733055Y-23070468D01*
X81731622Y-23083841D01*
X81683550Y-23381358D01*
X81680699Y-23394503D01*
X81601188Y-23685197D01*
X81596952Y-23697961D01*
X81486913Y-23978517D01*
X81481341Y-23990758D01*
X81342023Y-24257988D01*
X81335178Y-24269565D01*
X81168164Y-24520433D01*
X81160123Y-24531216D01*
X80967329Y-24762839D01*
X80958186Y-24772702D01*
X80741791Y-24982467D01*
X80731648Y-24991299D01*
X80494134Y-25176797D01*
X80483107Y-25184498D01*
X80227178Y-25343620D01*
X80215394Y-25350102D01*
X79943953Y-25481043D01*
X79931544Y-25486232D01*
X79644352Y-25588685D01*
X79637967Y-25590772D01*
X79626941Y-25594054D01*
X79625629Y-25594445D01*
X65493283Y-29800500D01*
X65437715Y-29817038D01*
X65437706Y-29817039D01*
X65407308Y-29826087D01*
X65401446Y-29827679D01*
X65134231Y-29893375D01*
X65122311Y-29895703D01*
X64853025Y-29934928D01*
X64840937Y-29936097D01*
X64566294Y-29949353D01*
X64560220Y-29949500D01*
X62400490Y-29949500D01*
X62332369Y-29929498D01*
X62285876Y-29875842D01*
X62275772Y-29805568D01*
X62305266Y-29740988D01*
X62364992Y-29702604D01*
X62375126Y-29700079D01*
X62386172Y-29697809D01*
X62453829Y-29683905D01*
X62821630Y-29568507D01*
X63175869Y-29416491D01*
X63512911Y-29229417D01*
X63829298Y-29009205D01*
X64121784Y-28758115D01*
X64387366Y-28478722D01*
X64623320Y-28173895D01*
X64827225Y-27846760D01*
X64996987Y-27500675D01*
X65130866Y-27139192D01*
X65227488Y-26766018D01*
X65285860Y-26384984D01*
X65305384Y-26000000D01*
X65285860Y-25615016D01*
X65227488Y-25233982D01*
X65130866Y-24860808D01*
X64996987Y-24499325D01*
X64827225Y-24153240D01*
X64623320Y-23826105D01*
X64387366Y-23521278D01*
X64121784Y-23241885D01*
X64119369Y-23239812D01*
X64119364Y-23239807D01*
X63831712Y-22992867D01*
X63831707Y-22992863D01*
X63829298Y-22990795D01*
X63826694Y-22988982D01*
X63826683Y-22988974D01*
X63515536Y-22772410D01*
X63515535Y-22772409D01*
X63512911Y-22770583D01*
X63510125Y-22769036D01*
X63510116Y-22769031D01*
X63178652Y-22585053D01*
X63178641Y-22585047D01*
X63175869Y-22583509D01*
X63172956Y-22582259D01*
X63172944Y-22582253D01*
X62981274Y-22500001D01*
X66000000Y-22500001D01*
X66749998Y-23249999D01*
X66750000Y-23250000D01*
X68250000Y-23250000D01*
X68379621Y-23120379D01*
X71658049Y-23120379D01*
X71676625Y-23356413D01*
X71731896Y-23586635D01*
X71804309Y-23761453D01*
X71822502Y-23805375D01*
X71946210Y-24007249D01*
X71946211Y-24007251D01*
X71946213Y-24007253D01*
X72099974Y-24187285D01*
X72277927Y-24339270D01*
X72280011Y-24341050D01*
X72481885Y-24464758D01*
X72700626Y-24555364D01*
X72930847Y-24610635D01*
X73166880Y-24629211D01*
X73402913Y-24610635D01*
X73633134Y-24555364D01*
X73851875Y-24464758D01*
X74053749Y-24341050D01*
X74233785Y-24187285D01*
X74387550Y-24007249D01*
X74511258Y-23805375D01*
X74601864Y-23586634D01*
X74657135Y-23356413D01*
X74675711Y-23120380D01*
X74657135Y-22884347D01*
X74601864Y-22654126D01*
X74511258Y-22435385D01*
X74387550Y-22233511D01*
X74387546Y-22233506D01*
X74233785Y-22053474D01*
X74053753Y-21899713D01*
X74053751Y-21899711D01*
X74053749Y-21899710D01*
X73851875Y-21776002D01*
X73816751Y-21761453D01*
X73633135Y-21685396D01*
X73402913Y-21630125D01*
X73166880Y-21611549D01*
X72930846Y-21630125D01*
X72700624Y-21685396D01*
X72481886Y-21776001D01*
X72280006Y-21899713D01*
X72099974Y-22053474D01*
X71946213Y-22233506D01*
X71822501Y-22435386D01*
X71731896Y-22654124D01*
X71676625Y-22884346D01*
X71658049Y-23120379D01*
X68379621Y-23120379D01*
X69000000Y-22500000D01*
X69000000Y-21408543D01*
X74716016Y-21408543D01*
X74746052Y-21681517D01*
X74766950Y-21761453D01*
X74815515Y-21947216D01*
X74856095Y-22042710D01*
X74922923Y-22199971D01*
X75065985Y-22434385D01*
X75189043Y-22582253D01*
X75241657Y-22645475D01*
X75446190Y-22828738D01*
X75653075Y-22965612D01*
X75675232Y-22980271D01*
X75923880Y-23096832D01*
X75923881Y-23096832D01*
X75923887Y-23096835D01*
X76186868Y-23175954D01*
X76186871Y-23175954D01*
X76186873Y-23175955D01*
X76458565Y-23215940D01*
X76458567Y-23215940D01*
X76662141Y-23215940D01*
X76664442Y-23215940D01*
X76869773Y-23200912D01*
X77137828Y-23141200D01*
X77394333Y-23043095D01*
X77394332Y-23043094D01*
X77633822Y-22908687D01*
X77718021Y-22843669D01*
X77851185Y-22740844D01*
X78041796Y-22543140D01*
X78201589Y-22319790D01*
X78327160Y-22075554D01*
X78415831Y-21815638D01*
X78465713Y-21545580D01*
X78475743Y-21271138D01*
X78445707Y-20998160D01*
X78376245Y-20732464D01*
X78268838Y-20479713D01*
X78268836Y-20479708D01*
X78125774Y-20245294D01*
X77950102Y-20034204D01*
X77745573Y-19850945D01*
X77745574Y-19850945D01*
X77745570Y-19850942D01*
X77516533Y-19699412D01*
X77516527Y-19699408D01*
X77267879Y-19582847D01*
X77267874Y-19582845D01*
X77267873Y-19582845D01*
X77120406Y-19538479D01*
X77004886Y-19503724D01*
X76733195Y-19463740D01*
X76733193Y-19463740D01*
X76527318Y-19463740D01*
X76525048Y-19463906D01*
X76525024Y-19463907D01*
X76321983Y-19478768D01*
X76053933Y-19538479D01*
X75797426Y-19636584D01*
X75557937Y-19770992D01*
X75340579Y-19938832D01*
X75149962Y-20136542D01*
X74990170Y-20359891D01*
X74864598Y-20604129D01*
X74775929Y-20864040D01*
X74726047Y-21134098D01*
X74716016Y-21408543D01*
X69000000Y-21408543D01*
X69000000Y-19000000D01*
X68999999Y-18999998D01*
X68550921Y-18550920D01*
X71416696Y-18550920D01*
X71435459Y-18729443D01*
X71490929Y-18900162D01*
X71580680Y-19055616D01*
X71664671Y-19148897D01*
X71700795Y-19189017D01*
X71846018Y-19294528D01*
X72010004Y-19367539D01*
X72185587Y-19404860D01*
X72185589Y-19404860D01*
X72365091Y-19404860D01*
X72365093Y-19404860D01*
X72540676Y-19367539D01*
X72704662Y-19294528D01*
X72849885Y-19189017D01*
X72969998Y-19055618D01*
X73059750Y-18900162D01*
X73115221Y-18729442D01*
X73133984Y-18550920D01*
X73115221Y-18372398D01*
X73059750Y-18201678D01*
X73059750Y-18201677D01*
X72969999Y-18046223D01*
X72849884Y-17912822D01*
X72704663Y-17807313D01*
X72704662Y-17807312D01*
X72540676Y-17734301D01*
X72365093Y-17696980D01*
X72185587Y-17696980D01*
X72010004Y-17734301D01*
X71902729Y-17782063D01*
X71846016Y-17807313D01*
X71700795Y-17912822D01*
X71580680Y-18046223D01*
X71490929Y-18201677D01*
X71435459Y-18372396D01*
X71416696Y-18550920D01*
X68550921Y-18550920D01*
X68250001Y-18250000D01*
X68250000Y-18250000D01*
X66750000Y-18250000D01*
X66749998Y-18250000D01*
X66000000Y-18999998D01*
X66000000Y-22500001D01*
X62981274Y-22500001D01*
X62824553Y-22432747D01*
X62824546Y-22432744D01*
X62821630Y-22431493D01*
X62657834Y-22380102D01*
X62456861Y-22317046D01*
X62456855Y-22317044D01*
X62453829Y-22316095D01*
X62450724Y-22315457D01*
X62450713Y-22315454D01*
X62079365Y-22239140D01*
X62079364Y-22239139D01*
X62076241Y-22238498D01*
X62073077Y-22238176D01*
X62073069Y-22238175D01*
X61695919Y-22199823D01*
X61695913Y-22199822D01*
X61692740Y-22199500D01*
X61307260Y-22199500D01*
X61304087Y-22199822D01*
X61304080Y-22199823D01*
X60926930Y-22238175D01*
X60926919Y-22238176D01*
X60923759Y-22238498D01*
X60920638Y-22239139D01*
X60920634Y-22239140D01*
X60549286Y-22315454D01*
X60549270Y-22315458D01*
X60546171Y-22316095D01*
X60543149Y-22317043D01*
X60543138Y-22317046D01*
X60291472Y-22396007D01*
X60178370Y-22431493D01*
X60175459Y-22432742D01*
X60175446Y-22432747D01*
X59827055Y-22582253D01*
X59827035Y-22582262D01*
X59824131Y-22583509D01*
X59821366Y-22585043D01*
X59821347Y-22585053D01*
X59489883Y-22769031D01*
X59489865Y-22769041D01*
X59487089Y-22770583D01*
X59484473Y-22772403D01*
X59484463Y-22772410D01*
X59173316Y-22988974D01*
X59173295Y-22988989D01*
X59170702Y-22990795D01*
X59168301Y-22992855D01*
X59168287Y-22992867D01*
X58880635Y-23239807D01*
X58880620Y-23239821D01*
X58878216Y-23241885D01*
X58876030Y-23244184D01*
X58876017Y-23244197D01*
X58614830Y-23518967D01*
X58614822Y-23518975D01*
X58612634Y-23521278D01*
X58610689Y-23523790D01*
X58610681Y-23523800D01*
X58378630Y-23823585D01*
X58378624Y-23823593D01*
X58376680Y-23826105D01*
X58375002Y-23828795D01*
X58374995Y-23828807D01*
X58174464Y-24150529D01*
X58174457Y-24150540D01*
X58172775Y-24153240D01*
X58171367Y-24156110D01*
X58171365Y-24156114D01*
X58041585Y-24420690D01*
X58003013Y-24499325D01*
X58001908Y-24502306D01*
X58001903Y-24502320D01*
X57870239Y-24857821D01*
X57870231Y-24857843D01*
X57869134Y-24860808D01*
X57868337Y-24863882D01*
X57868335Y-24863892D01*
X57773309Y-25230900D01*
X57773305Y-25230918D01*
X57772512Y-25233982D01*
X57772031Y-25237115D01*
X57772029Y-25237130D01*
X57714624Y-25611853D01*
X57714622Y-25611863D01*
X57714140Y-25615016D01*
X57713978Y-25618195D01*
X57713977Y-25618213D01*
X57704042Y-25814125D01*
X57694616Y-26000000D01*
X57694778Y-26003194D01*
X57713977Y-26381786D01*
X57713978Y-26381802D01*
X57714140Y-26384984D01*
X57714623Y-26388138D01*
X57714624Y-26388146D01*
X57772029Y-26762869D01*
X57772031Y-26762880D01*
X57772512Y-26766018D01*
X57773306Y-26769085D01*
X57773309Y-26769099D01*
X57833094Y-27000000D01*
X57869134Y-27139192D01*
X57870234Y-27142162D01*
X57870239Y-27142178D01*
X57947617Y-27351103D01*
X58003013Y-27500675D01*
X58172775Y-27846760D01*
X58174462Y-27849467D01*
X58174464Y-27849470D01*
X58361098Y-28148897D01*
X58376680Y-28173895D01*
X58612634Y-28478722D01*
X58878216Y-28758115D01*
X58880631Y-28760188D01*
X58880635Y-28760192D01*
X59077750Y-28929409D01*
X59170702Y-29009205D01*
X59173308Y-29011019D01*
X59173316Y-29011025D01*
X59302735Y-29101103D01*
X59487089Y-29229417D01*
X59489880Y-29230966D01*
X59489883Y-29230968D01*
X59803521Y-29405052D01*
X59824131Y-29416491D01*
X60178370Y-29568507D01*
X60546171Y-29683905D01*
X60613828Y-29697809D01*
X60624874Y-29700079D01*
X60687574Y-29733385D01*
X60722314Y-29795301D01*
X60718065Y-29866170D01*
X60676175Y-29923492D01*
X60609945Y-29949067D01*
X60599510Y-29949500D01*
X53501690Y-29949500D01*
X53433569Y-29929498D01*
X53412599Y-29912599D01*
X53286903Y-29786903D01*
X53252879Y-29724592D01*
X53250000Y-29697809D01*
X53250000Y-27250000D01*
X53249999Y-27249998D01*
X53000001Y-27000000D01*
X53000000Y-27000000D01*
X37302190Y-27000000D01*
X37234069Y-26979998D01*
X37213099Y-26963099D01*
X37036903Y-26786903D01*
X37002879Y-26724592D01*
X37000000Y-26697809D01*
X37000000Y-25802190D01*
X37020002Y-25734069D01*
X37036905Y-25713095D01*
X37213095Y-25536905D01*
X37275407Y-25502879D01*
X37302190Y-25500000D01*
X39424714Y-25500000D01*
X39492835Y-25520002D01*
X39524676Y-25549296D01*
X39601103Y-25648897D01*
X39646439Y-25683685D01*
X39717937Y-25738547D01*
X39853993Y-25794904D01*
X40000000Y-25814126D01*
X40146007Y-25794904D01*
X40282063Y-25738547D01*
X40398897Y-25648897D01*
X40488547Y-25532063D01*
X40544904Y-25396007D01*
X40562273Y-25264069D01*
X40590995Y-25199143D01*
X40598087Y-25191433D01*
X41140625Y-24648897D01*
X41252619Y-24536904D01*
X41314931Y-24502879D01*
X41341714Y-24500000D01*
X45742500Y-24500000D01*
X45810621Y-24520002D01*
X45857114Y-24573658D01*
X45868500Y-24626000D01*
X45868500Y-24947366D01*
X45865818Y-24973223D01*
X45863554Y-24984016D01*
X45867532Y-25015921D01*
X45868500Y-25031507D01*
X45868500Y-25031613D01*
X45871975Y-25052443D01*
X45872725Y-25057589D01*
X45880294Y-25118302D01*
X45880372Y-25118546D01*
X45909492Y-25172356D01*
X45911875Y-25176985D01*
X45938737Y-25231932D01*
X45938896Y-25232146D01*
X45944780Y-25237562D01*
X45983930Y-25273602D01*
X45987663Y-25277185D01*
X46151899Y-25441421D01*
X46185925Y-25503733D01*
X46187726Y-25514070D01*
X46205095Y-25646004D01*
X46261454Y-25782065D01*
X46351102Y-25898897D01*
X46467934Y-25988545D01*
X46467937Y-25988547D01*
X46603993Y-26044904D01*
X46750000Y-26064126D01*
X46896007Y-26044904D01*
X47032063Y-25988547D01*
X47148897Y-25898897D01*
X47238547Y-25782063D01*
X47294904Y-25646007D01*
X47314126Y-25500000D01*
X47294904Y-25353993D01*
X47238547Y-25217937D01*
X47218200Y-25191420D01*
X47148897Y-25101102D01*
X47032065Y-25011454D01*
X47032063Y-25011453D01*
X46896007Y-24955096D01*
X46896006Y-24955095D01*
X46896004Y-24955095D01*
X46764071Y-24937726D01*
X46699144Y-24909004D01*
X46691422Y-24901899D01*
X46668405Y-24878882D01*
X46634379Y-24816570D01*
X46631500Y-24789787D01*
X46631500Y-24420690D01*
X46651502Y-24352569D01*
X46668405Y-24331595D01*
X50463095Y-20536905D01*
X50525407Y-20502879D01*
X50552190Y-20500000D01*
X52750000Y-20500000D01*
X53250000Y-20000000D01*
X53250000Y-17537459D01*
X73197236Y-17537459D01*
X73215999Y-17715983D01*
X73271469Y-17886702D01*
X73361220Y-18042156D01*
X73364881Y-18046222D01*
X73481335Y-18175557D01*
X73626558Y-18281068D01*
X73790544Y-18354079D01*
X73966127Y-18391400D01*
X73966129Y-18391400D01*
X74145631Y-18391400D01*
X74145633Y-18391400D01*
X74321216Y-18354079D01*
X74485202Y-18281068D01*
X74630425Y-18175557D01*
X74750538Y-18042158D01*
X74840290Y-17886702D01*
X74895761Y-17715982D01*
X74914524Y-17537460D01*
X74895761Y-17358938D01*
X74865260Y-17265066D01*
X74840290Y-17188217D01*
X74750539Y-17032763D01*
X74669259Y-16942493D01*
X74630425Y-16899363D01*
X74610920Y-16885192D01*
X74485203Y-16793853D01*
X74485202Y-16793852D01*
X74321216Y-16720841D01*
X74145633Y-16683520D01*
X73966127Y-16683520D01*
X73790544Y-16720841D01*
X73721427Y-16751614D01*
X73626556Y-16793853D01*
X73481335Y-16899362D01*
X73361220Y-17032763D01*
X73271469Y-17188217D01*
X73215999Y-17358936D01*
X73197236Y-17537459D01*
X53250000Y-17537459D01*
X53250000Y-16431800D01*
X53935874Y-16431800D01*
X53955095Y-16577805D01*
X54011454Y-16713865D01*
X54101102Y-16830697D01*
X54217934Y-16920345D01*
X54217937Y-16920347D01*
X54353993Y-16976704D01*
X54500000Y-16995926D01*
X54646007Y-16976704D01*
X54710741Y-16949889D01*
X54758959Y-16940299D01*
X69657051Y-16940299D01*
X69661352Y-16940372D01*
X69723449Y-16942493D01*
X69761875Y-16933128D01*
X69774545Y-16930721D01*
X69802021Y-16926944D01*
X69813736Y-16925334D01*
X69829243Y-16918597D01*
X69849612Y-16911748D01*
X69866043Y-16907745D01*
X69900547Y-16888343D01*
X69912052Y-16882629D01*
X69948351Y-16866863D01*
X69961470Y-16856188D01*
X69979228Y-16844102D01*
X69993972Y-16835813D01*
X70021946Y-16807837D01*
X70031494Y-16799219D01*
X70062199Y-16774241D01*
X70071958Y-16760413D01*
X70085792Y-16743991D01*
X70308323Y-16521460D01*
X71416696Y-16521460D01*
X71435459Y-16699983D01*
X71490929Y-16870702D01*
X71580680Y-17026156D01*
X71639946Y-17091977D01*
X71700795Y-17159557D01*
X71846018Y-17265068D01*
X72010004Y-17338079D01*
X72185587Y-17375400D01*
X72185589Y-17375400D01*
X72365091Y-17375400D01*
X72365093Y-17375400D01*
X72540676Y-17338079D01*
X72704662Y-17265068D01*
X72849885Y-17159557D01*
X72969998Y-17026158D01*
X73059750Y-16870702D01*
X73115221Y-16699982D01*
X73133984Y-16521460D01*
X73115221Y-16342938D01*
X73074605Y-16217937D01*
X73059750Y-16172217D01*
X72969999Y-16016763D01*
X72849884Y-15883362D01*
X72704663Y-15777853D01*
X72704662Y-15777852D01*
X72540676Y-15704841D01*
X72365093Y-15667520D01*
X72185587Y-15667520D01*
X72010004Y-15704841D01*
X71846016Y-15777853D01*
X71700795Y-15883362D01*
X71580680Y-16016763D01*
X71490929Y-16172217D01*
X71435459Y-16342936D01*
X71416696Y-16521460D01*
X70308323Y-16521460D01*
X71321783Y-15508000D01*
X73197236Y-15508000D01*
X73215999Y-15686523D01*
X73271469Y-15857242D01*
X73361220Y-16012696D01*
X73400509Y-16056331D01*
X73481335Y-16146097D01*
X73626558Y-16251608D01*
X73790544Y-16324619D01*
X73966127Y-16361940D01*
X73966129Y-16361940D01*
X74145631Y-16361940D01*
X74145633Y-16361940D01*
X74321216Y-16324619D01*
X74485202Y-16251608D01*
X74630425Y-16146097D01*
X74750538Y-16012698D01*
X74840290Y-15857242D01*
X74895761Y-15686522D01*
X74914524Y-15508000D01*
X74895761Y-15329478D01*
X74855551Y-15205725D01*
X74840290Y-15158757D01*
X74750539Y-15003303D01*
X74630424Y-14869902D01*
X74557813Y-14817147D01*
X74485202Y-14764392D01*
X74321216Y-14691381D01*
X74145633Y-14654060D01*
X73966127Y-14654060D01*
X73790544Y-14691381D01*
X73659726Y-14749625D01*
X73626556Y-14764393D01*
X73481335Y-14869902D01*
X73361220Y-15003303D01*
X73271469Y-15158757D01*
X73215999Y-15329476D01*
X73197236Y-15508000D01*
X71321783Y-15508000D01*
X71624060Y-15205723D01*
X71686370Y-15171699D01*
X71757185Y-15176764D01*
X71787212Y-15192883D01*
X71846018Y-15235608D01*
X72010004Y-15308619D01*
X72185587Y-15345940D01*
X72185589Y-15345940D01*
X72365091Y-15345940D01*
X72365093Y-15345940D01*
X72540676Y-15308619D01*
X72704662Y-15235608D01*
X72849885Y-15130097D01*
X72969998Y-14996698D01*
X73059750Y-14841242D01*
X73115221Y-14670522D01*
X73133984Y-14492000D01*
X73115221Y-14313478D01*
X73070997Y-14177375D01*
X73068970Y-14106409D01*
X73105633Y-14045611D01*
X73169345Y-14014285D01*
X73190831Y-14012440D01*
X73331417Y-14012440D01*
X73399538Y-14032442D01*
X73425053Y-14054130D01*
X73481333Y-14116635D01*
X73481335Y-14116637D01*
X73626558Y-14222148D01*
X73790544Y-14295159D01*
X73966127Y-14332480D01*
X73966129Y-14332480D01*
X74145631Y-14332480D01*
X74145633Y-14332480D01*
X74321216Y-14295159D01*
X74485202Y-14222148D01*
X74630425Y-14116637D01*
X74750538Y-13983238D01*
X74840290Y-13827782D01*
X74895761Y-13657062D01*
X74914524Y-13478540D01*
X74895761Y-13300018D01*
X74855029Y-13174658D01*
X74840290Y-13129297D01*
X74750539Y-12973843D01*
X74630424Y-12840442D01*
X74485203Y-12734933D01*
X74485202Y-12734932D01*
X74321216Y-12661921D01*
X74145633Y-12624600D01*
X73966127Y-12624600D01*
X73790544Y-12661920D01*
X73790544Y-12661921D01*
X73626556Y-12734933D01*
X73481333Y-12840444D01*
X73425053Y-12902950D01*
X73364607Y-12940190D01*
X73331417Y-12944640D01*
X73190006Y-12944640D01*
X73121885Y-12924638D01*
X73075392Y-12870982D01*
X73065288Y-12800708D01*
X73070173Y-12779704D01*
X73102124Y-12681369D01*
X73115221Y-12641062D01*
X73133984Y-12462540D01*
X73115221Y-12284018D01*
X73070997Y-12147915D01*
X73068970Y-12076949D01*
X73105633Y-12016151D01*
X73169345Y-11984825D01*
X73190831Y-11982980D01*
X73331417Y-11982980D01*
X73399538Y-12002982D01*
X73425053Y-12024670D01*
X73481333Y-12087175D01*
X73481335Y-12087177D01*
X73626558Y-12192688D01*
X73790544Y-12265699D01*
X73966127Y-12303020D01*
X73966129Y-12303020D01*
X74145631Y-12303020D01*
X74145633Y-12303020D01*
X74321216Y-12265699D01*
X74485202Y-12192688D01*
X74630425Y-12087177D01*
X74750538Y-11953778D01*
X74840290Y-11798322D01*
X74895761Y-11627602D01*
X74914524Y-11449080D01*
X74895761Y-11270558D01*
X74866988Y-11182006D01*
X74840290Y-11099837D01*
X74750539Y-10944383D01*
X74630424Y-10810982D01*
X74540881Y-10745925D01*
X74485202Y-10705472D01*
X74321216Y-10632461D01*
X74145633Y-10595140D01*
X73966127Y-10595140D01*
X73790544Y-10632461D01*
X73639096Y-10699890D01*
X73626556Y-10705473D01*
X73481333Y-10810984D01*
X73425053Y-10873490D01*
X73364607Y-10910730D01*
X73331417Y-10915180D01*
X73200315Y-10915180D01*
X73134845Y-10896835D01*
X73125413Y-10891099D01*
X73114750Y-10883842D01*
X73083233Y-10859942D01*
X73067500Y-10853738D01*
X73048259Y-10844181D01*
X73044217Y-10841723D01*
X73033811Y-10835395D01*
X72995723Y-10824723D01*
X72983497Y-10820612D01*
X72946701Y-10806101D01*
X72929874Y-10804371D01*
X72908776Y-10800361D01*
X72892491Y-10795799D01*
X72892488Y-10795799D01*
X72852938Y-10795799D01*
X72840053Y-10795138D01*
X72800706Y-10791093D01*
X72784036Y-10793967D01*
X72762629Y-10795799D01*
X71742861Y-10795799D01*
X71738560Y-10795726D01*
X71676460Y-10793604D01*
X71638030Y-10802969D01*
X71625361Y-10805377D01*
X71586177Y-10810763D01*
X71570665Y-10817501D01*
X71550306Y-10824347D01*
X71533867Y-10828353D01*
X71499389Y-10847739D01*
X71487838Y-10853477D01*
X71451558Y-10869236D01*
X71438442Y-10879907D01*
X71420690Y-10891990D01*
X71408218Y-10899004D01*
X71346455Y-10915180D01*
X69737470Y-10915180D01*
X69733169Y-10915107D01*
X69671069Y-10912985D01*
X69632639Y-10922350D01*
X69619970Y-10924758D01*
X69580786Y-10930144D01*
X69565274Y-10936882D01*
X69544915Y-10943728D01*
X69528476Y-10947734D01*
X69493998Y-10967120D01*
X69482447Y-10972858D01*
X69446167Y-10988617D01*
X69433051Y-10999288D01*
X69415294Y-11011374D01*
X69400548Y-11019665D01*
X69372581Y-11047632D01*
X69363008Y-11056271D01*
X69332323Y-11081236D01*
X69322566Y-11095058D01*
X69308725Y-11111488D01*
X68147418Y-12272796D01*
X68085108Y-12306820D01*
X68058325Y-12309700D01*
X63691675Y-12309700D01*
X63623554Y-12289698D01*
X63602580Y-12272795D01*
X62329786Y-11000001D01*
X66000000Y-11000001D01*
X66749998Y-11749999D01*
X66750000Y-11750000D01*
X68250000Y-11750000D01*
X69000000Y-11000000D01*
X69000000Y-8728863D01*
X74716016Y-8728863D01*
X74746052Y-9001837D01*
X74755019Y-9036137D01*
X74815515Y-9267536D01*
X74821128Y-9280744D01*
X74922923Y-9520291D01*
X75065985Y-9754705D01*
X75186680Y-9899734D01*
X75241657Y-9965795D01*
X75446190Y-10149058D01*
X75657047Y-10288560D01*
X75675232Y-10300591D01*
X75923880Y-10417152D01*
X75923881Y-10417152D01*
X75923887Y-10417155D01*
X76186868Y-10496274D01*
X76186871Y-10496274D01*
X76186873Y-10496275D01*
X76458565Y-10536260D01*
X76458567Y-10536260D01*
X76662141Y-10536260D01*
X76664442Y-10536260D01*
X76869773Y-10521232D01*
X77137828Y-10461520D01*
X77394333Y-10363415D01*
X77454321Y-10329748D01*
X77633822Y-10229007D01*
X77724942Y-10158646D01*
X77851185Y-10061164D01*
X78041796Y-9863460D01*
X78201589Y-9640110D01*
X78327160Y-9395874D01*
X78415831Y-9135958D01*
X78465713Y-8865900D01*
X78475743Y-8591458D01*
X78445707Y-8318480D01*
X78376245Y-8052784D01*
X78268838Y-7800033D01*
X78268836Y-7800028D01*
X78125774Y-7565614D01*
X77950102Y-7354524D01*
X77815202Y-7233653D01*
X77745570Y-7171262D01*
X77516533Y-7019732D01*
X77516527Y-7019728D01*
X77267879Y-6903167D01*
X77267874Y-6903165D01*
X77267873Y-6903165D01*
X77017965Y-6827979D01*
X77004886Y-6824044D01*
X76733195Y-6784060D01*
X76733193Y-6784060D01*
X76527318Y-6784060D01*
X76525048Y-6784226D01*
X76525024Y-6784227D01*
X76321983Y-6799088D01*
X76053933Y-6858799D01*
X75797426Y-6956904D01*
X75557937Y-7091312D01*
X75340579Y-7259152D01*
X75340575Y-7259155D01*
X75340575Y-7259156D01*
X75283234Y-7318631D01*
X75149962Y-7456862D01*
X74990170Y-7680211D01*
X74864598Y-7924449D01*
X74775929Y-8184360D01*
X74726047Y-8454418D01*
X74716016Y-8728863D01*
X69000000Y-8728863D01*
X69000000Y-7499999D01*
X68379621Y-6879620D01*
X71658049Y-6879620D01*
X71660951Y-6916491D01*
X71676625Y-7115653D01*
X71731896Y-7345875D01*
X71822501Y-7564613D01*
X71822502Y-7564615D01*
X71946210Y-7766489D01*
X71946211Y-7766491D01*
X71946213Y-7766493D01*
X72099974Y-7946525D01*
X72280006Y-8100286D01*
X72280011Y-8100290D01*
X72481885Y-8223998D01*
X72700626Y-8314604D01*
X72930847Y-8369875D01*
X73166880Y-8388451D01*
X73402913Y-8369875D01*
X73633134Y-8314604D01*
X73851875Y-8223998D01*
X74053749Y-8100290D01*
X74233785Y-7946525D01*
X74387550Y-7766489D01*
X74511258Y-7564615D01*
X74601864Y-7345874D01*
X74657135Y-7115653D01*
X74675711Y-6879620D01*
X74657135Y-6643587D01*
X74601864Y-6413366D01*
X74511258Y-6194625D01*
X74387550Y-5992751D01*
X74375568Y-5978722D01*
X74233785Y-5812714D01*
X74053753Y-5658953D01*
X74053751Y-5658951D01*
X74053749Y-5658950D01*
X73851875Y-5535242D01*
X73823979Y-5523687D01*
X73633135Y-5444636D01*
X73402913Y-5389365D01*
X73166880Y-5370789D01*
X72930846Y-5389365D01*
X72700624Y-5444636D01*
X72481886Y-5535241D01*
X72280006Y-5658953D01*
X72099974Y-5812714D01*
X71946213Y-5992746D01*
X71822501Y-6194626D01*
X71731896Y-6413364D01*
X71676625Y-6643586D01*
X71659688Y-6858800D01*
X71658049Y-6879620D01*
X68379621Y-6879620D01*
X68250001Y-6750000D01*
X68250000Y-6750000D01*
X66750000Y-6750000D01*
X66749998Y-6750000D01*
X66000000Y-7499998D01*
X66000000Y-11000001D01*
X62329786Y-11000001D01*
X60303843Y-8974058D01*
X60300853Y-8970965D01*
X60258443Y-8925555D01*
X60224646Y-8905002D01*
X60213982Y-8897744D01*
X60182465Y-8873844D01*
X60166732Y-8867640D01*
X60147491Y-8858083D01*
X60143449Y-8855625D01*
X60133043Y-8849297D01*
X60094955Y-8838625D01*
X60082729Y-8834514D01*
X60045933Y-8820003D01*
X60029106Y-8818273D01*
X60008008Y-8814263D01*
X59991723Y-8809701D01*
X59991720Y-8809701D01*
X59952170Y-8809701D01*
X59939285Y-8809040D01*
X59899938Y-8804995D01*
X59883268Y-8807869D01*
X59861861Y-8809701D01*
X54758959Y-8809701D01*
X54710741Y-8800110D01*
X54646007Y-8773296D01*
X54646005Y-8773295D01*
X54500000Y-8754074D01*
X54353994Y-8773295D01*
X54217934Y-8829654D01*
X54101102Y-8919302D01*
X54011454Y-9036134D01*
X53955095Y-9172194D01*
X53935874Y-9318200D01*
X53955095Y-9464205D01*
X54011454Y-9600265D01*
X54067492Y-9673295D01*
X54093093Y-9739515D01*
X54078829Y-9809064D01*
X54067493Y-9826702D01*
X54011454Y-9899734D01*
X53955095Y-10035794D01*
X53935874Y-10181800D01*
X53955095Y-10327805D01*
X53981196Y-10390818D01*
X54010482Y-10461520D01*
X54011454Y-10463865D01*
X54101102Y-10580697D01*
X54217934Y-10670345D01*
X54217937Y-10670347D01*
X54353993Y-10726704D01*
X54500000Y-10745926D01*
X54646007Y-10726704D01*
X54710741Y-10699889D01*
X54758959Y-10690299D01*
X59308324Y-10690299D01*
X59376445Y-10710301D01*
X59397419Y-10727204D01*
X62696156Y-14025941D01*
X62699146Y-14029034D01*
X62741558Y-14074446D01*
X62758564Y-14084787D01*
X62775355Y-14094999D01*
X62786019Y-14102257D01*
X62817534Y-14126155D01*
X62833259Y-14132356D01*
X62852507Y-14141916D01*
X62866957Y-14150704D01*
X62876071Y-14153257D01*
X62905051Y-14161376D01*
X62917254Y-14165479D01*
X62954067Y-14179997D01*
X62970894Y-14181726D01*
X62991994Y-14185737D01*
X63008280Y-14190300D01*
X63008281Y-14190300D01*
X63047831Y-14190300D01*
X63060716Y-14190961D01*
X63063445Y-14191241D01*
X63100063Y-14195006D01*
X63114638Y-14192493D01*
X63116733Y-14192132D01*
X63138140Y-14190300D01*
X68657050Y-14190300D01*
X68661351Y-14190373D01*
X68723448Y-14192494D01*
X68761874Y-14183129D01*
X68774544Y-14180722D01*
X68802020Y-14176945D01*
X68813735Y-14175335D01*
X68829242Y-14168598D01*
X68849611Y-14161749D01*
X68866042Y-14157746D01*
X68900546Y-14138344D01*
X68912051Y-14132630D01*
X68948350Y-14116864D01*
X68961469Y-14106189D01*
X68979227Y-14094103D01*
X68993971Y-14085814D01*
X69021945Y-14057838D01*
X69031493Y-14049220D01*
X69062198Y-14024242D01*
X69071957Y-14010414D01*
X69085791Y-13993992D01*
X70247099Y-12832684D01*
X70309412Y-12798658D01*
X70336195Y-12795779D01*
X71085420Y-12795779D01*
X71153541Y-12815781D01*
X71200034Y-12869437D01*
X71210138Y-12939711D01*
X71180644Y-13004291D01*
X71164935Y-13019519D01*
X71155350Y-13027317D01*
X71153588Y-13028751D01*
X71135834Y-13040834D01*
X71121088Y-13049125D01*
X71093121Y-13077092D01*
X71083548Y-13085731D01*
X71052863Y-13110696D01*
X71043106Y-13124518D01*
X71029265Y-13140948D01*
X69147417Y-15022797D01*
X69085107Y-15056821D01*
X69058324Y-15059701D01*
X54758959Y-15059701D01*
X54710741Y-15050110D01*
X54646007Y-15023296D01*
X54646005Y-15023295D01*
X54522135Y-15006988D01*
X54500000Y-15004074D01*
X54499999Y-15004074D01*
X54353994Y-15023295D01*
X54217934Y-15079654D01*
X54101102Y-15169302D01*
X54011454Y-15286134D01*
X53955095Y-15422194D01*
X53935874Y-15568200D01*
X53955095Y-15714205D01*
X54011454Y-15850265D01*
X54067492Y-15923295D01*
X54093093Y-15989515D01*
X54078829Y-16059064D01*
X54067493Y-16076702D01*
X54011454Y-16149734D01*
X53955095Y-16285794D01*
X53935874Y-16431800D01*
X53250000Y-16431800D01*
X53250000Y-8802190D01*
X53270002Y-8734069D01*
X53286905Y-8713095D01*
X54213095Y-7786905D01*
X54275407Y-7752879D01*
X54302190Y-7750000D01*
X57249999Y-7750000D01*
X57250000Y-7750000D01*
X58722295Y-6277704D01*
X58784602Y-6243683D01*
X58855417Y-6248747D01*
X58893455Y-6271197D01*
X59079897Y-6431252D01*
X59162997Y-6502591D01*
X59170702Y-6509205D01*
X59173308Y-6511019D01*
X59173316Y-6511025D01*
X59318380Y-6611992D01*
X59487089Y-6729417D01*
X59489880Y-6730966D01*
X59489883Y-6730968D01*
X59800125Y-6903167D01*
X59824131Y-6916491D01*
X59827051Y-6917744D01*
X59827055Y-6917746D01*
X59944483Y-6968138D01*
X60178370Y-7068507D01*
X60546171Y-7183905D01*
X60923759Y-7261502D01*
X61307260Y-7300500D01*
X61310460Y-7300500D01*
X61689540Y-7300500D01*
X61692740Y-7300500D01*
X62076241Y-7261502D01*
X62453829Y-7183905D01*
X62821630Y-7068507D01*
X63175869Y-6916491D01*
X63512911Y-6729417D01*
X63829298Y-6509205D01*
X64121784Y-6258115D01*
X64387366Y-5978722D01*
X64623320Y-5673895D01*
X64827225Y-5346760D01*
X64996987Y-5000675D01*
X65130866Y-4639192D01*
X65227488Y-4266018D01*
X65285860Y-3884984D01*
X65305384Y-3500000D01*
X65285860Y-3115016D01*
X65227488Y-2733982D01*
X65130866Y-2360808D01*
X64996987Y-1999325D01*
X64827225Y-1653240D01*
X64623320Y-1326105D01*
X64387366Y-1021278D01*
X64272858Y-900815D01*
X64240422Y-837660D01*
X64247280Y-766996D01*
X64275082Y-724916D01*
X64879806Y-120192D01*
X64942114Y-86169D01*
X64987056Y-84606D01*
X65122325Y-104310D01*
G37*
%TD.AperFunction*%
%TD*%
%TA.AperFunction,NonConductor*%
G36*
X52908441Y-27279502D02*
G01*
X52929414Y-27296403D01*
X52953593Y-27320581D01*
X52987619Y-27382892D01*
X52990499Y-27409678D01*
X52990499Y-29696131D01*
X52990499Y-29696168D01*
X52990500Y-29697809D01*
X52990588Y-29699452D01*
X52990589Y-29699488D01*
X52990631Y-29700261D01*
X52990612Y-29700339D01*
X52990635Y-29701187D01*
X52990602Y-29700380D01*
X52974299Y-29769354D01*
X52953907Y-29796092D01*
X52837405Y-29912595D01*
X52775093Y-29946620D01*
X52748309Y-29949500D01*
X52357765Y-29949500D01*
X52289644Y-29929498D01*
X52243151Y-29875842D01*
X52233047Y-29805568D01*
X52241356Y-29775281D01*
X52245954Y-29764180D01*
X52294904Y-29646007D01*
X52314126Y-29500000D01*
X52294904Y-29353993D01*
X52238547Y-29217937D01*
X52185571Y-29148897D01*
X52148897Y-29101102D01*
X52032065Y-29011454D01*
X51896005Y-28955095D01*
X51750000Y-28935874D01*
X51603994Y-28955095D01*
X51467934Y-29011454D01*
X51351102Y-29101102D01*
X51261454Y-29217934D01*
X51205095Y-29353994D01*
X51185874Y-29499999D01*
X51205095Y-29646005D01*
X51205096Y-29646007D01*
X51244767Y-29741781D01*
X51258644Y-29775281D01*
X51266233Y-29845871D01*
X51234454Y-29909358D01*
X51173396Y-29945586D01*
X51142235Y-29949500D01*
X49607765Y-29949500D01*
X49539644Y-29929498D01*
X49493151Y-29875842D01*
X49483047Y-29805568D01*
X49491356Y-29775281D01*
X49495954Y-29764180D01*
X49544904Y-29646007D01*
X49564126Y-29500000D01*
X49544904Y-29353993D01*
X49488547Y-29217937D01*
X49435571Y-29148897D01*
X49398897Y-29101102D01*
X49282065Y-29011454D01*
X49146005Y-28955095D01*
X49000000Y-28935874D01*
X48853994Y-28955095D01*
X48717934Y-29011454D01*
X48601102Y-29101102D01*
X48511454Y-29217934D01*
X48455095Y-29353994D01*
X48435874Y-29500000D01*
X48455095Y-29646005D01*
X48455096Y-29646007D01*
X48494767Y-29741781D01*
X48508644Y-29775281D01*
X48516233Y-29845871D01*
X48484454Y-29909358D01*
X48423396Y-29945586D01*
X48392235Y-29949500D01*
X40894211Y-29949500D01*
X40826090Y-29929498D01*
X40779597Y-29875842D01*
X40769493Y-29805568D01*
X40798987Y-29740988D01*
X40805101Y-29734419D01*
X41191423Y-29348097D01*
X41253732Y-29314075D01*
X41264054Y-29312275D01*
X41396007Y-29294904D01*
X41532063Y-29238547D01*
X41648897Y-29148897D01*
X41738547Y-29032063D01*
X41794904Y-28896007D01*
X41814126Y-28750000D01*
X41814126Y-28749999D01*
X42185874Y-28749999D01*
X42205095Y-28896005D01*
X42261454Y-29032065D01*
X42351102Y-29148897D01*
X42467934Y-29238545D01*
X42467937Y-29238547D01*
X42603993Y-29294904D01*
X42750000Y-29314126D01*
X42896007Y-29294904D01*
X43032063Y-29238547D01*
X43148897Y-29148897D01*
X43238547Y-29032063D01*
X43294904Y-28896007D01*
X43314126Y-28750000D01*
X43294904Y-28603993D01*
X43238547Y-28467937D01*
X43238545Y-28467934D01*
X43148897Y-28351102D01*
X43032065Y-28261454D01*
X42896005Y-28205095D01*
X42750000Y-28185874D01*
X42603994Y-28205095D01*
X42467934Y-28261454D01*
X42351102Y-28351102D01*
X42261454Y-28467934D01*
X42205095Y-28603994D01*
X42185874Y-28749999D01*
X41814126Y-28749999D01*
X41794904Y-28603993D01*
X41738547Y-28467937D01*
X41738545Y-28467934D01*
X41648897Y-28351102D01*
X41532065Y-28261454D01*
X41396005Y-28205095D01*
X41250000Y-28185874D01*
X41103994Y-28205095D01*
X40967934Y-28261454D01*
X40851102Y-28351102D01*
X40761452Y-28467936D01*
X40741407Y-28516328D01*
X40696858Y-28571608D01*
X40629494Y-28594028D01*
X40560703Y-28576469D01*
X40512326Y-28524506D01*
X40508590Y-28516325D01*
X40488547Y-28467935D01*
X40398895Y-28351101D01*
X40397406Y-28349958D01*
X40355541Y-28292619D01*
X40351322Y-28221747D01*
X40386089Y-28159846D01*
X40397407Y-28150040D01*
X40398897Y-28148897D01*
X40488547Y-28032063D01*
X40544904Y-27896007D01*
X40564126Y-27750000D01*
X40544904Y-27603993D01*
X40488547Y-27467937D01*
X40484148Y-27462204D01*
X40458548Y-27395983D01*
X40472813Y-27326434D01*
X40522414Y-27275639D01*
X40584111Y-27259500D01*
X52840320Y-27259500D01*
X52908441Y-27279502D01*
G37*
%TD.AperFunction*%
%TA.AperFunction,NonConductor*%
G36*
X14991300Y-14520002D02*
G01*
X15037793Y-14573658D01*
X15047897Y-14643932D01*
X15023141Y-14702705D01*
X15011453Y-14717936D01*
X14955095Y-14853994D01*
X14935874Y-15000000D01*
X14955095Y-15146005D01*
X15011454Y-15282065D01*
X15101102Y-15398897D01*
X15212681Y-15484514D01*
X15217937Y-15488547D01*
X15353993Y-15544904D01*
X15500000Y-15564126D01*
X15646007Y-15544904D01*
X15782063Y-15488547D01*
X15898897Y-15398897D01*
X15988547Y-15282063D01*
X16008591Y-15233672D01*
X16053139Y-15178392D01*
X16120503Y-15155971D01*
X16189294Y-15173529D01*
X16237672Y-15225491D01*
X16241409Y-15233673D01*
X16261453Y-15282064D01*
X16351102Y-15398897D01*
X16462681Y-15484514D01*
X16467937Y-15488547D01*
X16603993Y-15544904D01*
X16750000Y-15564126D01*
X16896007Y-15544904D01*
X17032063Y-15488547D01*
X17148897Y-15398897D01*
X17238547Y-15282063D01*
X17294904Y-15146007D01*
X17314126Y-15000000D01*
X17294904Y-14853993D01*
X17238547Y-14717937D01*
X17226858Y-14702704D01*
X17201258Y-14636484D01*
X17215522Y-14566936D01*
X17265123Y-14516139D01*
X17326821Y-14500000D01*
X18697810Y-14500000D01*
X18765931Y-14520002D01*
X18786905Y-14536905D01*
X19213095Y-14963095D01*
X19247121Y-15025407D01*
X19250000Y-15052190D01*
X19250000Y-16750001D01*
X20249998Y-17749999D01*
X20250000Y-17750000D01*
X25197810Y-17750000D01*
X25265931Y-17770002D01*
X25286905Y-17786905D01*
X28499998Y-20999999D01*
X28500000Y-21000000D01*
X46499999Y-21000000D01*
X46500000Y-21000000D01*
X46963096Y-20536903D01*
X47025407Y-20502880D01*
X47052190Y-20500000D01*
X49828822Y-20500000D01*
X49896943Y-20520002D01*
X49943436Y-20573658D01*
X49953540Y-20643932D01*
X49924046Y-20708512D01*
X49917917Y-20715095D01*
X48278244Y-22354767D01*
X48215932Y-22388793D01*
X48145116Y-22383728D01*
X48088281Y-22341181D01*
X48063470Y-22274661D01*
X48064190Y-22250488D01*
X48044904Y-22103994D01*
X48044904Y-22103993D01*
X47988547Y-21967937D01*
X47961707Y-21932958D01*
X47898897Y-21851102D01*
X47782065Y-21761454D01*
X47646005Y-21705095D01*
X47500000Y-21685874D01*
X47353994Y-21705095D01*
X47217934Y-21761454D01*
X47101102Y-21851102D01*
X47011454Y-21967934D01*
X46955095Y-22103994D01*
X46935874Y-22250000D01*
X46955095Y-22396005D01*
X46955096Y-22396007D01*
X47000765Y-22506261D01*
X47007942Y-22523586D01*
X47015531Y-22594176D01*
X46983752Y-22657663D01*
X46980629Y-22660899D01*
X46455654Y-23185874D01*
X46017455Y-23624073D01*
X45997280Y-23640457D01*
X45988042Y-23646492D01*
X45968288Y-23671872D01*
X45957972Y-23683556D01*
X45957890Y-23683638D01*
X45957887Y-23683641D01*
X45957886Y-23683643D01*
X45952971Y-23690527D01*
X45945612Y-23700833D01*
X45942503Y-23705002D01*
X45904936Y-23753268D01*
X45904803Y-23753527D01*
X45887349Y-23812151D01*
X45885762Y-23817107D01*
X45865899Y-23874966D01*
X45865864Y-23875210D01*
X45868392Y-23936324D01*
X45868500Y-23941532D01*
X45868500Y-24114500D01*
X45848498Y-24182621D01*
X45794842Y-24229114D01*
X45742500Y-24240500D01*
X45334111Y-24240500D01*
X45265990Y-24220498D01*
X45219497Y-24166842D01*
X45209393Y-24096568D01*
X45234148Y-24037796D01*
X45234516Y-24037315D01*
X45238547Y-24032063D01*
X45294904Y-23896007D01*
X45314126Y-23750000D01*
X45294904Y-23603993D01*
X45238547Y-23467937D01*
X45238545Y-23467934D01*
X45148897Y-23351102D01*
X45032065Y-23261454D01*
X44998148Y-23247405D01*
X44896007Y-23205096D01*
X44896005Y-23205095D01*
X44750000Y-23185874D01*
X44603994Y-23205095D01*
X44467934Y-23261454D01*
X44351102Y-23351102D01*
X44261454Y-23467934D01*
X44205095Y-23603994D01*
X44185874Y-23749999D01*
X44205095Y-23896005D01*
X44261453Y-24032063D01*
X44265852Y-24037796D01*
X44291452Y-24104017D01*
X44277187Y-24173566D01*
X44227586Y-24224361D01*
X44165889Y-24240500D01*
X43103212Y-24240500D01*
X43035091Y-24220498D01*
X42988598Y-24166842D01*
X42978494Y-24096568D01*
X43007988Y-24031988D01*
X43014100Y-24025421D01*
X43792114Y-23247409D01*
X43792115Y-23247406D01*
X43806570Y-23232952D01*
X43806571Y-23232949D01*
X44232548Y-22806973D01*
X44252723Y-22790591D01*
X44261956Y-22784560D01*
X44281713Y-22759174D01*
X44292038Y-22747484D01*
X44292114Y-22747409D01*
X44298441Y-22738547D01*
X44304394Y-22730209D01*
X44307506Y-22726035D01*
X44311138Y-22721368D01*
X44333864Y-22698797D01*
X44398897Y-22648897D01*
X44488547Y-22532063D01*
X44544904Y-22396007D01*
X44564126Y-22250000D01*
X44544904Y-22103993D01*
X44488547Y-21967937D01*
X44461707Y-21932958D01*
X44398897Y-21851102D01*
X44282065Y-21761454D01*
X44146005Y-21705095D01*
X44000000Y-21685874D01*
X43853994Y-21705095D01*
X43717934Y-21761454D01*
X43601102Y-21851102D01*
X43511454Y-21967934D01*
X43455095Y-22103994D01*
X43435874Y-22250000D01*
X43457261Y-22412454D01*
X43456735Y-22412523D01*
X43462501Y-22466152D01*
X43430722Y-22529639D01*
X43427599Y-22532876D01*
X43311582Y-22648895D01*
X43275254Y-22685223D01*
X42378880Y-23581596D01*
X42316570Y-23615620D01*
X42289787Y-23618500D01*
X41302633Y-23618500D01*
X41276775Y-23615818D01*
X41265982Y-23613554D01*
X41234078Y-23617532D01*
X41218492Y-23618500D01*
X41218386Y-23618500D01*
X41197562Y-23621974D01*
X41192416Y-23622724D01*
X41131701Y-23630293D01*
X41131449Y-23630374D01*
X41077661Y-23659482D01*
X41073034Y-23661864D01*
X41018070Y-23688735D01*
X41017849Y-23688900D01*
X40976407Y-23733917D01*
X40972803Y-23737673D01*
X40696280Y-24014196D01*
X40633968Y-24048222D01*
X40563153Y-24043157D01*
X40506317Y-24000610D01*
X40490775Y-23973317D01*
X40488545Y-23967933D01*
X40398897Y-23851102D01*
X40282065Y-23761454D01*
X40281408Y-23761182D01*
X40146007Y-23705096D01*
X40146005Y-23705095D01*
X40000000Y-23685874D01*
X39853994Y-23705095D01*
X39717934Y-23761454D01*
X39601102Y-23851102D01*
X39511454Y-23967934D01*
X39455095Y-24103994D01*
X39435874Y-24250000D01*
X39455095Y-24396005D01*
X39511454Y-24532065D01*
X39601103Y-24648897D01*
X39602592Y-24650040D01*
X39644458Y-24707379D01*
X39648677Y-24778250D01*
X39613911Y-24840152D01*
X39602592Y-24849960D01*
X39601103Y-24851102D01*
X39511454Y-24967934D01*
X39455095Y-25103994D01*
X39451547Y-25130947D01*
X39422824Y-25195874D01*
X39363559Y-25234965D01*
X39326625Y-25240500D01*
X37506543Y-25240500D01*
X37458325Y-25230909D01*
X37396006Y-25205095D01*
X37250000Y-25185874D01*
X37103994Y-25205095D01*
X36967934Y-25261454D01*
X36851102Y-25351102D01*
X36761454Y-25467934D01*
X36705095Y-25603994D01*
X36685874Y-25750000D01*
X36705095Y-25896006D01*
X36718273Y-25927819D01*
X36730908Y-25958322D01*
X36740500Y-26006539D01*
X36740500Y-26697809D01*
X36740588Y-26699465D01*
X36740589Y-26699475D01*
X36741895Y-26723863D01*
X36741897Y-26723897D01*
X36741986Y-26725544D01*
X36742166Y-26727224D01*
X36742167Y-26727229D01*
X36744865Y-26752327D01*
X36744867Y-26752333D01*
X36775119Y-26848952D01*
X36775120Y-26848955D01*
X36775121Y-26848956D01*
X36809145Y-26911267D01*
X36853409Y-26970397D01*
X37029605Y-27146593D01*
X37038463Y-27154550D01*
X37049008Y-27164023D01*
X37049023Y-27164036D01*
X37050269Y-27165155D01*
X37065988Y-27177822D01*
X37069945Y-27181378D01*
X37071240Y-27182055D01*
X37071241Y-27182056D01*
X37160960Y-27228987D01*
X37229081Y-27248989D01*
X37302190Y-27259500D01*
X39415889Y-27259500D01*
X39484010Y-27279502D01*
X39530503Y-27333158D01*
X39540607Y-27403432D01*
X39515852Y-27462204D01*
X39511453Y-27467936D01*
X39455095Y-27603994D01*
X39435874Y-27750000D01*
X39455095Y-27896005D01*
X39511454Y-28032065D01*
X39601103Y-28148897D01*
X39602592Y-28150040D01*
X39644458Y-28207379D01*
X39648677Y-28278250D01*
X39613911Y-28340152D01*
X39602592Y-28349960D01*
X39601103Y-28351102D01*
X39511454Y-28467934D01*
X39455095Y-28603994D01*
X39435874Y-28750000D01*
X39455095Y-28896006D01*
X39475092Y-28944282D01*
X39482681Y-29014872D01*
X39450902Y-29078359D01*
X39389844Y-29114586D01*
X39358683Y-29118500D01*
X29460212Y-29118500D01*
X29392091Y-29098498D01*
X29371117Y-29081595D01*
X29098101Y-28808579D01*
X29064075Y-28746267D01*
X29062274Y-28735930D01*
X29044904Y-28603995D01*
X29044904Y-28603994D01*
X29044904Y-28603993D01*
X28988547Y-28467937D01*
X28988545Y-28467934D01*
X28898897Y-28351102D01*
X28782065Y-28261454D01*
X28646005Y-28205095D01*
X28500000Y-28185874D01*
X28353994Y-28205095D01*
X28217934Y-28261454D01*
X28101102Y-28351102D01*
X28011454Y-28467934D01*
X27955095Y-28603994D01*
X27935874Y-28750000D01*
X27955095Y-28896005D01*
X28011454Y-29032065D01*
X28101102Y-29148897D01*
X28217934Y-29238545D01*
X28217937Y-29238547D01*
X28353993Y-29294904D01*
X28412281Y-29302577D01*
X28485930Y-29312274D01*
X28550857Y-29340996D01*
X28558579Y-29348101D01*
X28943015Y-29732537D01*
X28959388Y-29752694D01*
X28960609Y-29754562D01*
X28981137Y-29822526D01*
X28961662Y-29890799D01*
X28908368Y-29937706D01*
X28855141Y-29949500D01*
X19251690Y-29949500D01*
X19183569Y-29929498D01*
X19162595Y-29912595D01*
X19036905Y-29786905D01*
X19002879Y-29724593D01*
X19000000Y-29697810D01*
X19000000Y-27750000D01*
X32685874Y-27750000D01*
X32705095Y-27896005D01*
X32761454Y-28032065D01*
X32851102Y-28148897D01*
X32967934Y-28238545D01*
X32967937Y-28238547D01*
X33103993Y-28294904D01*
X33250000Y-28314126D01*
X33396007Y-28294904D01*
X33532063Y-28238547D01*
X33648897Y-28148897D01*
X33738547Y-28032063D01*
X33794904Y-27896007D01*
X33814126Y-27750000D01*
X34435874Y-27750000D01*
X34455095Y-27896005D01*
X34511454Y-28032065D01*
X34601102Y-28148897D01*
X34717934Y-28238545D01*
X34717937Y-28238547D01*
X34853993Y-28294904D01*
X35000000Y-28314126D01*
X35146007Y-28294904D01*
X35282063Y-28238547D01*
X35398897Y-28148897D01*
X35488547Y-28032063D01*
X35544904Y-27896007D01*
X35564126Y-27750000D01*
X35544904Y-27603993D01*
X35488547Y-27467937D01*
X35484148Y-27462204D01*
X35398897Y-27351102D01*
X35282065Y-27261454D01*
X35251972Y-27248989D01*
X35146007Y-27205096D01*
X35146005Y-27205095D01*
X35000000Y-27185874D01*
X34853994Y-27205095D01*
X34717934Y-27261454D01*
X34601102Y-27351102D01*
X34511454Y-27467934D01*
X34455095Y-27603994D01*
X34435874Y-27750000D01*
X33814126Y-27750000D01*
X33794904Y-27603993D01*
X33738547Y-27467937D01*
X33734148Y-27462204D01*
X33648897Y-27351102D01*
X33532065Y-27261454D01*
X33501972Y-27248989D01*
X33396007Y-27205096D01*
X33396005Y-27205095D01*
X33250000Y-27185874D01*
X33103994Y-27205095D01*
X32967934Y-27261454D01*
X32851102Y-27351102D01*
X32761454Y-27467934D01*
X32705095Y-27603994D01*
X32685874Y-27750000D01*
X19000000Y-27750000D01*
X19000000Y-23000000D01*
X18999999Y-22999998D01*
X18250001Y-22250000D01*
X28685874Y-22250000D01*
X28705095Y-22396005D01*
X28761454Y-22532065D01*
X28851102Y-22648897D01*
X28967934Y-22738545D01*
X28967937Y-22738547D01*
X29103993Y-22794904D01*
X29250000Y-22814126D01*
X29396007Y-22794904D01*
X29532063Y-22738547D01*
X29648897Y-22648897D01*
X29738547Y-22532063D01*
X29794904Y-22396007D01*
X29814126Y-22250000D01*
X31685874Y-22250000D01*
X31705095Y-22396005D01*
X31761454Y-22532065D01*
X31851102Y-22648897D01*
X31967934Y-22738545D01*
X31967937Y-22738547D01*
X32103993Y-22794904D01*
X32250000Y-22814126D01*
X32396007Y-22794904D01*
X32532063Y-22738547D01*
X32648897Y-22648897D01*
X32738547Y-22532063D01*
X32794904Y-22396007D01*
X32814126Y-22250000D01*
X34685874Y-22250000D01*
X34705095Y-22396005D01*
X34761454Y-22532065D01*
X34851102Y-22648897D01*
X34967934Y-22738545D01*
X34967937Y-22738547D01*
X35103993Y-22794904D01*
X35250000Y-22814126D01*
X35396007Y-22794904D01*
X35532063Y-22738547D01*
X35648897Y-22648897D01*
X35738547Y-22532063D01*
X35794904Y-22396007D01*
X35814126Y-22250000D01*
X35794904Y-22103993D01*
X35738547Y-21967937D01*
X35711707Y-21932958D01*
X35648897Y-21851102D01*
X35532065Y-21761454D01*
X35396005Y-21705095D01*
X35250000Y-21685874D01*
X35103994Y-21705095D01*
X34967934Y-21761454D01*
X34851102Y-21851102D01*
X34761454Y-21967934D01*
X34705095Y-22103994D01*
X34685874Y-22250000D01*
X32814126Y-22250000D01*
X32794904Y-22103993D01*
X32738547Y-21967937D01*
X32711707Y-21932958D01*
X32648897Y-21851102D01*
X32532065Y-21761454D01*
X32396005Y-21705095D01*
X32250000Y-21685874D01*
X32103994Y-21705095D01*
X31967934Y-21761454D01*
X31851102Y-21851102D01*
X31761454Y-21967934D01*
X31705095Y-22103994D01*
X31685874Y-22250000D01*
X29814126Y-22250000D01*
X29794904Y-22103993D01*
X29738547Y-21967937D01*
X29711707Y-21932958D01*
X29648897Y-21851102D01*
X29532065Y-21761454D01*
X29396005Y-21705095D01*
X29250000Y-21685874D01*
X29103994Y-21705095D01*
X28967934Y-21761454D01*
X28851102Y-21851102D01*
X28761454Y-21967934D01*
X28705095Y-22103994D01*
X28685874Y-22250000D01*
X18250001Y-22250000D01*
X13536905Y-17536904D01*
X13502879Y-17474592D01*
X13500000Y-17447809D01*
X13500000Y-16750000D01*
X13500000Y-15576817D01*
X13520001Y-15508700D01*
X13573657Y-15462207D01*
X13643931Y-15452103D01*
X13702702Y-15476858D01*
X13717933Y-15488545D01*
X13717936Y-15488546D01*
X13717937Y-15488547D01*
X13853993Y-15544904D01*
X14000000Y-15564126D01*
X14146007Y-15544904D01*
X14282063Y-15488547D01*
X14398897Y-15398897D01*
X14488547Y-15282063D01*
X14544904Y-15146007D01*
X14564126Y-15000000D01*
X14544904Y-14853993D01*
X14488547Y-14717937D01*
X14476858Y-14702704D01*
X14451258Y-14636484D01*
X14465522Y-14566936D01*
X14515123Y-14516139D01*
X14576821Y-14500000D01*
X14923179Y-14500000D01*
X14991300Y-14520002D01*
G37*
%TD.AperFunction*%
%TA.AperFunction,Conductor*%
%TO.N,GND*%
G36*
X58066431Y-70502D02*
G01*
X58087405Y-87405D01*
X58213095Y-213095D01*
X58247121Y-275407D01*
X58250000Y-302190D01*
X58250000Y-1493291D01*
X58230929Y-1559940D01*
X58174470Y-1650519D01*
X58174461Y-1650533D01*
X58172775Y-1653240D01*
X58171368Y-1656106D01*
X58171362Y-1656119D01*
X58069656Y-1863463D01*
X58003013Y-1999325D01*
X58001908Y-2002306D01*
X58001903Y-2002320D01*
X57870239Y-2357821D01*
X57870231Y-2357843D01*
X57869134Y-2360808D01*
X57868337Y-2363882D01*
X57868335Y-2363892D01*
X57773309Y-2730900D01*
X57773305Y-2730918D01*
X57772512Y-2733982D01*
X57772031Y-2737115D01*
X57772029Y-2737130D01*
X57714624Y-3111853D01*
X57714622Y-3111863D01*
X57714140Y-3115016D01*
X57713978Y-3118195D01*
X57713977Y-3118213D01*
X57697661Y-3439948D01*
X57694616Y-3500000D01*
X57694778Y-3503194D01*
X57713977Y-3881786D01*
X57713978Y-3881802D01*
X57714140Y-3884984D01*
X57714623Y-3888138D01*
X57714624Y-3888146D01*
X57772029Y-4262869D01*
X57772031Y-4262880D01*
X57772512Y-4266018D01*
X57773306Y-4269085D01*
X57773309Y-4269099D01*
X57856316Y-4589687D01*
X57869134Y-4639192D01*
X57870234Y-4642162D01*
X57870239Y-4642178D01*
X57986786Y-4956860D01*
X58003013Y-5000675D01*
X58004416Y-5003536D01*
X58004422Y-5003549D01*
X58126671Y-5252771D01*
X58138713Y-5322738D01*
X58111016Y-5388110D01*
X58102644Y-5397355D01*
X57772188Y-5727812D01*
X56786903Y-6713096D01*
X56724593Y-6747120D01*
X56697810Y-6750000D01*
X52999998Y-6750000D01*
X50750000Y-8999998D01*
X50750000Y-18697810D01*
X50729998Y-18765931D01*
X50713095Y-18786905D01*
X49786905Y-19713095D01*
X49724593Y-19747121D01*
X49697810Y-19750000D01*
X46500000Y-19750000D01*
X46036903Y-20213096D01*
X45974593Y-20247120D01*
X45947810Y-20250000D01*
X29052190Y-20250000D01*
X28984069Y-20229998D01*
X28963095Y-20213095D01*
X27499999Y-18749999D01*
X30236270Y-18749999D01*
X30257080Y-18894731D01*
X30317824Y-19027743D01*
X30413578Y-19138250D01*
X30536589Y-19217304D01*
X30676888Y-19258500D01*
X30676889Y-19258500D01*
X30823112Y-19258500D01*
X30893261Y-19237901D01*
X30963411Y-19217304D01*
X31086421Y-19138250D01*
X31154775Y-19059364D01*
X31214501Y-19020981D01*
X31285498Y-19020981D01*
X31345224Y-19059364D01*
X31345225Y-19059365D01*
X31413579Y-19138250D01*
X31536589Y-19217304D01*
X31676888Y-19258500D01*
X31676889Y-19258500D01*
X31823112Y-19258500D01*
X31893261Y-19237901D01*
X31963411Y-19217304D01*
X32086421Y-19138250D01*
X32182176Y-19027743D01*
X32242919Y-18894734D01*
X32263729Y-18750000D01*
X32242919Y-18605266D01*
X32182176Y-18472257D01*
X32170937Y-18459287D01*
X32111475Y-18390663D01*
X32081982Y-18326082D01*
X32080700Y-18308151D01*
X32080700Y-15689169D01*
X32100702Y-15621048D01*
X32117600Y-15600079D01*
X33969739Y-13747939D01*
X33977819Y-13740534D01*
X34007239Y-13715849D01*
X34026436Y-13682598D01*
X34032322Y-13673359D01*
X34054340Y-13641916D01*
X34054341Y-13641911D01*
X34054969Y-13641015D01*
X34065359Y-13615934D01*
X34065549Y-13614853D01*
X34065551Y-13614851D01*
X34072217Y-13577036D01*
X34074590Y-13566336D01*
X34084524Y-13529267D01*
X34081179Y-13491030D01*
X34080700Y-13480050D01*
X34080700Y-13019948D01*
X34081179Y-13008967D01*
X34084524Y-12970733D01*
X34074592Y-12933670D01*
X34072214Y-12922940D01*
X34065361Y-12884070D01*
X34054968Y-12858980D01*
X34032329Y-12826649D01*
X34026422Y-12817377D01*
X34007239Y-12784151D01*
X33977833Y-12759476D01*
X33969730Y-12752050D01*
X33551116Y-12333436D01*
X33517090Y-12271124D01*
X33515494Y-12262273D01*
X33502706Y-12173336D01*
X33492919Y-12105266D01*
X33432176Y-11972257D01*
X33419392Y-11957504D01*
X33336421Y-11861749D01*
X33213410Y-11782695D01*
X33073112Y-11741500D01*
X33073111Y-11741500D01*
X32926889Y-11741500D01*
X32926888Y-11741500D01*
X32786589Y-11782695D01*
X32663578Y-11861749D01*
X32567824Y-11972256D01*
X32507080Y-12105268D01*
X32486270Y-12250000D01*
X32507080Y-12394731D01*
X32507080Y-12394732D01*
X32507081Y-12394734D01*
X32539491Y-12465702D01*
X32567824Y-12527743D01*
X32663580Y-12638251D01*
X32672892Y-12644236D01*
X32719384Y-12697892D01*
X32729487Y-12768166D01*
X32699994Y-12832747D01*
X32672891Y-12856231D01*
X32640083Y-12877315D01*
X32544328Y-12987822D01*
X32483584Y-13120834D01*
X32460196Y-13283497D01*
X32455904Y-13282879D01*
X32450465Y-13320636D01*
X32424961Y-13357357D01*
X30530266Y-15252052D01*
X30522166Y-15259476D01*
X30500398Y-15277743D01*
X30492759Y-15284153D01*
X30473570Y-15317386D01*
X30467669Y-15326648D01*
X30445034Y-15358975D01*
X30434637Y-15384078D01*
X30427783Y-15422945D01*
X30425405Y-15433672D01*
X30415475Y-15470730D01*
X30418821Y-15508967D01*
X30419300Y-15519948D01*
X30419300Y-18308151D01*
X30399298Y-18376272D01*
X30388525Y-18390663D01*
X30317824Y-18472256D01*
X30257080Y-18605268D01*
X30236270Y-18749999D01*
X27499999Y-18749999D01*
X25500001Y-16750000D01*
X25500000Y-16750000D01*
X25000000Y-16750000D01*
X24500000Y-16750000D01*
X24000000Y-16750000D01*
X23500000Y-16750000D01*
X20552190Y-16750000D01*
X20484069Y-16729998D01*
X20463095Y-16713095D01*
X20286905Y-16536905D01*
X20252879Y-16474593D01*
X20250000Y-16447810D01*
X20250000Y-15000000D01*
X20249999Y-14999998D01*
X18750001Y-13500000D01*
X18750000Y-13500000D01*
X13250000Y-13500000D01*
X13249998Y-13500000D01*
X12500000Y-14249998D01*
X12500000Y-29697810D01*
X12479998Y-29765931D01*
X12463095Y-29786905D01*
X12337405Y-29912595D01*
X12275093Y-29946621D01*
X12248310Y-29949500D01*
X3703828Y-29949500D01*
X3635707Y-29929498D01*
X3589214Y-29875842D01*
X3579110Y-29805568D01*
X3608604Y-29740988D01*
X3668330Y-29702604D01*
X3696763Y-29697698D01*
X3699092Y-29697567D01*
X3859266Y-29688572D01*
X4214014Y-29628298D01*
X4559782Y-29528684D01*
X4892224Y-29390982D01*
X5207157Y-29216925D01*
X5500622Y-29008700D01*
X5768927Y-28768927D01*
X6008700Y-28500622D01*
X6216925Y-28207157D01*
X6390982Y-27892224D01*
X6528684Y-27559782D01*
X6628298Y-27214014D01*
X6688572Y-26859266D01*
X6708748Y-26500000D01*
X6688572Y-26140734D01*
X6628298Y-25785986D01*
X6528684Y-25440218D01*
X6390982Y-25107776D01*
X6313346Y-24967304D01*
X6218639Y-24795944D01*
X6218637Y-24795942D01*
X6216925Y-24792843D01*
X6209725Y-24782696D01*
X6010735Y-24502246D01*
X6010734Y-24502245D01*
X6008700Y-24499378D01*
X5768927Y-24231073D01*
X5681832Y-24153240D01*
X5503245Y-23993644D01*
X5503244Y-23993643D01*
X5500622Y-23991300D01*
X5497753Y-23989264D01*
X5210040Y-23785120D01*
X5210032Y-23785115D01*
X5207157Y-23783075D01*
X5204062Y-23781364D01*
X5204055Y-23781360D01*
X4895317Y-23610727D01*
X4895310Y-23610724D01*
X4892224Y-23609018D01*
X4823053Y-23580366D01*
X4563050Y-23472669D01*
X4563039Y-23472665D01*
X4559782Y-23471316D01*
X4465639Y-23444193D01*
X4217404Y-23372678D01*
X4217393Y-23372675D01*
X4214014Y-23371702D01*
X4210550Y-23371113D01*
X4210535Y-23371110D01*
X3862750Y-23312019D01*
X3862733Y-23312017D01*
X3859266Y-23311428D01*
X3855751Y-23311230D01*
X3855737Y-23311229D01*
X3503526Y-23291450D01*
X3500000Y-23291252D01*
X3496474Y-23291450D01*
X3144262Y-23311229D01*
X3144246Y-23311230D01*
X3140734Y-23311428D01*
X3137268Y-23312016D01*
X3137249Y-23312019D01*
X2789464Y-23371110D01*
X2789445Y-23371114D01*
X2785986Y-23371702D01*
X2782610Y-23372674D01*
X2782595Y-23372678D01*
X2443616Y-23470337D01*
X2440218Y-23471316D01*
X2436965Y-23472663D01*
X2436949Y-23472669D01*
X2111037Y-23607667D01*
X2111033Y-23607668D01*
X2107776Y-23609018D01*
X2104695Y-23610720D01*
X2104682Y-23610727D01*
X1795944Y-23781360D01*
X1795928Y-23781369D01*
X1792843Y-23783075D01*
X1789975Y-23785109D01*
X1789959Y-23785120D01*
X1502246Y-23989264D01*
X1502234Y-23989273D01*
X1499378Y-23991300D01*
X1496763Y-23993636D01*
X1496754Y-23993644D01*
X1233696Y-24228728D01*
X1233687Y-24228736D01*
X1231073Y-24231073D01*
X1228736Y-24233687D01*
X1228728Y-24233696D01*
X993644Y-24496754D01*
X993636Y-24496763D01*
X991300Y-24499378D01*
X989273Y-24502234D01*
X989264Y-24502246D01*
X785120Y-24789959D01*
X785109Y-24789975D01*
X783075Y-24792843D01*
X781369Y-24795928D01*
X781360Y-24795944D01*
X610727Y-25104682D01*
X610720Y-25104695D01*
X609018Y-25107776D01*
X607668Y-25111033D01*
X607667Y-25111037D01*
X472669Y-25436949D01*
X472663Y-25436965D01*
X471316Y-25440218D01*
X470337Y-25443615D01*
X470337Y-25443616D01*
X372678Y-25782595D01*
X372674Y-25782610D01*
X371702Y-25785986D01*
X371114Y-25789445D01*
X371110Y-25789464D01*
X312019Y-26137249D01*
X312016Y-26137268D01*
X311428Y-26140734D01*
X311230Y-26144246D01*
X311229Y-26144262D01*
X302302Y-26303237D01*
X278512Y-26370129D01*
X222333Y-26413540D01*
X151604Y-26419688D01*
X88778Y-26386620D01*
X53804Y-26324836D01*
X50500Y-26296172D01*
X50500Y-15750000D01*
X2736270Y-15750000D01*
X2757080Y-15894731D01*
X2757080Y-15894732D01*
X2757081Y-15894734D01*
X2805154Y-16000000D01*
X2817824Y-16027743D01*
X2913578Y-16138250D01*
X3036589Y-16217304D01*
X3176888Y-16258500D01*
X3176889Y-16258500D01*
X3323112Y-16258500D01*
X3434047Y-16225926D01*
X3463411Y-16217304D01*
X3586421Y-16138250D01*
X3682176Y-16027743D01*
X3742919Y-15894734D01*
X3763729Y-15750000D01*
X3763729Y-15749999D01*
X5736270Y-15749999D01*
X5757080Y-15894731D01*
X5757080Y-15894732D01*
X5757081Y-15894734D01*
X5805154Y-16000000D01*
X5817824Y-16027743D01*
X5913578Y-16138250D01*
X6036589Y-16217304D01*
X6176888Y-16258500D01*
X6176889Y-16258500D01*
X6323112Y-16258500D01*
X6434047Y-16225926D01*
X6463411Y-16217304D01*
X6586421Y-16138250D01*
X6682176Y-16027743D01*
X6742919Y-15894734D01*
X6763729Y-15750000D01*
X6742919Y-15605266D01*
X6682176Y-15472257D01*
X6648742Y-15433672D01*
X6586421Y-15361749D01*
X6463410Y-15282695D01*
X6323112Y-15241500D01*
X6323111Y-15241500D01*
X6176889Y-15241500D01*
X6176888Y-15241500D01*
X6036589Y-15282695D01*
X5913578Y-15361749D01*
X5817824Y-15472256D01*
X5757080Y-15605268D01*
X5736270Y-15749999D01*
X3763729Y-15749999D01*
X3742919Y-15605266D01*
X3682176Y-15472257D01*
X3648742Y-15433672D01*
X3586421Y-15361749D01*
X3463410Y-15282695D01*
X3323112Y-15241500D01*
X3323111Y-15241500D01*
X3176889Y-15241500D01*
X3176888Y-15241500D01*
X3036589Y-15282695D01*
X2913578Y-15361749D01*
X2817824Y-15472256D01*
X2757080Y-15605268D01*
X2736270Y-15750000D01*
X50500Y-15750000D01*
X50500Y-8250000D01*
X16236270Y-8250000D01*
X16257080Y-8394731D01*
X16257080Y-8394732D01*
X16257081Y-8394734D01*
X16291484Y-8470066D01*
X16317824Y-8527743D01*
X16413578Y-8638250D01*
X16536589Y-8717304D01*
X16676888Y-8758500D01*
X16676889Y-8758500D01*
X16738630Y-8758500D01*
X16806751Y-8778502D01*
X16827725Y-8795405D01*
X17752050Y-9719730D01*
X17759476Y-9727833D01*
X17784151Y-9757239D01*
X17817378Y-9776423D01*
X17826646Y-9782327D01*
X17858084Y-9804340D01*
X17858085Y-9804340D01*
X17858983Y-9804969D01*
X17884070Y-9815360D01*
X17885147Y-9815549D01*
X17885149Y-9815551D01*
X17922936Y-9822213D01*
X17933672Y-9824593D01*
X17970733Y-9834524D01*
X18008967Y-9831179D01*
X18019949Y-9830700D01*
X21556170Y-9830700D01*
X21624291Y-9850702D01*
X21651392Y-9874185D01*
X21663579Y-9888250D01*
X21786589Y-9967304D01*
X21856738Y-9987901D01*
X21926888Y-10008500D01*
X21926889Y-10008500D01*
X22073112Y-10008500D01*
X22143260Y-9987901D01*
X22213411Y-9967304D01*
X22336421Y-9888250D01*
X22432176Y-9777743D01*
X22492919Y-9644734D01*
X22513729Y-9500000D01*
X22492919Y-9355266D01*
X22432176Y-9222257D01*
X22402739Y-9188285D01*
X22336421Y-9111749D01*
X22213410Y-9032695D01*
X22073112Y-8991500D01*
X22073111Y-8991500D01*
X21926889Y-8991500D01*
X21926888Y-8991500D01*
X21786590Y-9032695D01*
X21742815Y-9060828D01*
X21663579Y-9111750D01*
X21651393Y-9125813D01*
X21591669Y-9164196D01*
X21556170Y-9169300D01*
X18189170Y-9169300D01*
X18121049Y-9149298D01*
X18100075Y-9132395D01*
X17301116Y-8333436D01*
X17267090Y-8271124D01*
X17265494Y-8262273D01*
X17242919Y-8105268D01*
X17242919Y-8105266D01*
X17182176Y-7972257D01*
X17117338Y-7897430D01*
X17086421Y-7861749D01*
X16963410Y-7782695D01*
X16823112Y-7741500D01*
X16823111Y-7741500D01*
X16676889Y-7741500D01*
X16676888Y-7741500D01*
X16536589Y-7782695D01*
X16413578Y-7861749D01*
X16317824Y-7972256D01*
X16257080Y-8105268D01*
X16236270Y-8250000D01*
X50500Y-8250000D01*
X50500Y-3703827D01*
X70502Y-3635706D01*
X124158Y-3589213D01*
X194432Y-3579109D01*
X259012Y-3608603D01*
X297396Y-3668329D01*
X302302Y-3696762D01*
X311229Y-3855737D01*
X311230Y-3855751D01*
X311428Y-3859266D01*
X312017Y-3862733D01*
X312019Y-3862750D01*
X371110Y-4210535D01*
X371113Y-4210550D01*
X371702Y-4214014D01*
X372675Y-4217393D01*
X372678Y-4217404D01*
X426225Y-4403269D01*
X471316Y-4559782D01*
X472665Y-4563039D01*
X472669Y-4563050D01*
X554445Y-4760474D01*
X609018Y-4892224D01*
X610724Y-4895310D01*
X610727Y-4895317D01*
X781360Y-5204055D01*
X781364Y-5204062D01*
X783075Y-5207157D01*
X785115Y-5210032D01*
X785120Y-5210040D01*
X986639Y-5494053D01*
X991300Y-5500622D01*
X993643Y-5503244D01*
X993644Y-5503245D01*
X1170989Y-5701693D01*
X1231073Y-5768927D01*
X1499378Y-6008700D01*
X1502245Y-6010734D01*
X1502246Y-6010735D01*
X1707566Y-6156418D01*
X1792843Y-6216925D01*
X1795942Y-6218637D01*
X1795944Y-6218639D01*
X1828305Y-6236524D01*
X2107776Y-6390982D01*
X2440218Y-6528684D01*
X2785986Y-6628298D01*
X2789462Y-6628888D01*
X2789464Y-6628889D01*
X3137249Y-6687980D01*
X3137251Y-6687980D01*
X3140734Y-6688572D01*
X3500000Y-6708748D01*
X3859266Y-6688572D01*
X4214014Y-6628298D01*
X4559782Y-6528684D01*
X4892224Y-6390982D01*
X5207157Y-6216925D01*
X5500622Y-6008700D01*
X5768927Y-5768927D01*
X6008700Y-5500622D01*
X6216925Y-5207157D01*
X6390982Y-4892224D01*
X6441609Y-4770000D01*
X7411684Y-4770000D01*
X7430098Y-4956953D01*
X7430098Y-4956955D01*
X7430099Y-4956958D01*
X7484632Y-5136731D01*
X7484633Y-5136733D01*
X7573191Y-5302414D01*
X7692368Y-5447631D01*
X7837585Y-5566808D01*
X7837589Y-5566810D01*
X8003269Y-5655368D01*
X8183042Y-5709901D01*
X8370000Y-5728315D01*
X8556958Y-5709901D01*
X8736731Y-5655368D01*
X8902411Y-5566810D01*
X8902412Y-5566808D01*
X8902414Y-5566808D01*
X9047631Y-5447631D01*
X9166808Y-5302414D01*
X9166810Y-5302411D01*
X9255368Y-5136731D01*
X9309901Y-4956958D01*
X9321121Y-4843039D01*
X9328315Y-4770006D01*
X9328314Y-4770003D01*
X9328315Y-4770000D01*
X9328018Y-4766989D01*
X9329253Y-4760474D01*
X9329532Y-4757650D01*
X9329784Y-4757674D01*
X9341244Y-4697239D01*
X9390081Y-4645708D01*
X9459026Y-4628761D01*
X9465037Y-4629174D01*
X9584354Y-4640230D01*
X9584360Y-4640230D01*
X9587271Y-4640500D01*
X9590184Y-4640500D01*
X9689816Y-4640500D01*
X9692729Y-4640500D01*
X9695640Y-4640230D01*
X9695645Y-4640230D01*
X9814962Y-4629174D01*
X9884637Y-4642805D01*
X9935883Y-4691941D01*
X9952428Y-4760983D01*
X9951981Y-4766984D01*
X9951684Y-4769997D01*
X9970098Y-4956953D01*
X9970098Y-4956955D01*
X9970099Y-4956958D01*
X10024632Y-5136731D01*
X10024633Y-5136733D01*
X10113191Y-5302414D01*
X10232368Y-5447631D01*
X10377585Y-5566808D01*
X10377589Y-5566810D01*
X10543269Y-5655368D01*
X10723042Y-5709901D01*
X10910000Y-5728315D01*
X11096958Y-5709901D01*
X11276731Y-5655368D01*
X11442411Y-5566810D01*
X11442412Y-5566808D01*
X11442414Y-5566808D01*
X11587631Y-5447631D01*
X11706808Y-5302414D01*
X11706810Y-5302411D01*
X11795368Y-5136731D01*
X11849901Y-4956958D01*
X11868315Y-4770000D01*
X11849901Y-4583042D01*
X11795368Y-4403269D01*
X11728003Y-4277238D01*
X11706808Y-4237585D01*
X11587631Y-4092368D01*
X11442414Y-3973191D01*
X11276733Y-3884633D01*
X11276732Y-3884632D01*
X11276731Y-3884632D01*
X11096958Y-3830099D01*
X11096955Y-3830098D01*
X11096953Y-3830098D01*
X10910002Y-3811684D01*
X10905885Y-3812090D01*
X10836132Y-3798859D01*
X10784605Y-3750018D01*
X10767664Y-3681072D01*
X10769684Y-3663542D01*
X10780500Y-3605684D01*
X10780500Y-3394314D01*
X10769684Y-3336456D01*
X10776827Y-3265820D01*
X10821026Y-3210259D01*
X10888247Y-3187414D01*
X10905886Y-3187909D01*
X10910000Y-3188315D01*
X10910002Y-3188314D01*
X10910004Y-3188315D01*
X11101135Y-3169490D01*
X11170888Y-3182718D01*
X11202580Y-3205787D01*
X11792089Y-3795295D01*
X11808991Y-3816269D01*
X11811143Y-3819617D01*
X11847017Y-3850702D01*
X11847208Y-3850867D01*
X11853779Y-3856985D01*
X11862830Y-3866036D01*
X11864925Y-3867604D01*
X11873065Y-3873698D01*
X11880067Y-3879341D01*
X11916127Y-3910587D01*
X11916130Y-3910588D01*
X11916131Y-3910589D01*
X11919745Y-3912239D01*
X11942913Y-3925986D01*
X11946094Y-3928367D01*
X11973929Y-3938749D01*
X11990792Y-3945039D01*
X11999096Y-3948478D01*
X12042495Y-3968298D01*
X12046426Y-3968863D01*
X12072534Y-3975527D01*
X12076252Y-3976914D01*
X12087238Y-3977699D01*
X12123827Y-3980315D01*
X12132761Y-3981275D01*
X12145446Y-3983100D01*
X12158249Y-3983100D01*
X12167235Y-3983420D01*
X12214818Y-3986824D01*
X12218004Y-3986131D01*
X12218704Y-3985979D01*
X12245484Y-3983100D01*
X12595639Y-3983100D01*
X12663760Y-4003102D01*
X12710253Y-4056758D01*
X12720357Y-4127032D01*
X12693038Y-4189034D01*
X12653189Y-4237589D01*
X12564633Y-4403266D01*
X12564632Y-4403268D01*
X12564632Y-4403269D01*
X12510100Y-4583041D01*
X12510098Y-4583046D01*
X12491684Y-4769999D01*
X12510098Y-4956953D01*
X12510098Y-4956955D01*
X12510099Y-4956958D01*
X12564632Y-5136731D01*
X12564633Y-5136733D01*
X12653191Y-5302414D01*
X12772368Y-5447631D01*
X12917585Y-5566808D01*
X12917589Y-5566810D01*
X13083269Y-5655368D01*
X13263042Y-5709901D01*
X13450000Y-5728315D01*
X13636958Y-5709901D01*
X13816731Y-5655368D01*
X13982411Y-5566810D01*
X13982412Y-5566808D01*
X13982414Y-5566808D01*
X14127631Y-5447631D01*
X14246808Y-5302414D01*
X14246810Y-5302411D01*
X14335368Y-5136731D01*
X14389901Y-4956958D01*
X14408315Y-4770000D01*
X14389901Y-4583042D01*
X14335368Y-4403269D01*
X14246810Y-4237589D01*
X14228638Y-4215446D01*
X14206962Y-4189034D01*
X14179208Y-4123687D01*
X14191190Y-4053708D01*
X14239102Y-4001316D01*
X14304361Y-3983100D01*
X15135639Y-3983100D01*
X15203760Y-4003102D01*
X15250253Y-4056758D01*
X15260357Y-4127032D01*
X15233038Y-4189034D01*
X15193189Y-4237589D01*
X15104633Y-4403266D01*
X15104632Y-4403268D01*
X15104632Y-4403269D01*
X15050100Y-4583041D01*
X15050098Y-4583046D01*
X15031684Y-4770000D01*
X15050098Y-4956953D01*
X15050098Y-4956955D01*
X15050099Y-4956958D01*
X15104632Y-5136731D01*
X15104633Y-5136733D01*
X15193191Y-5302414D01*
X15312368Y-5447631D01*
X15457585Y-5566808D01*
X15457589Y-5566810D01*
X15623269Y-5655368D01*
X15803042Y-5709901D01*
X15947002Y-5724080D01*
X15989999Y-5728315D01*
X15989999Y-5728314D01*
X15990000Y-5728315D01*
X16176958Y-5709901D01*
X16356731Y-5655368D01*
X16522411Y-5566810D01*
X16560966Y-5535168D01*
X16626312Y-5507414D01*
X16696291Y-5519395D01*
X16748683Y-5567307D01*
X16766900Y-5632567D01*
X16766900Y-6806356D01*
X16758679Y-6844149D01*
X16736270Y-7000000D01*
X16757080Y-7144731D01*
X16757080Y-7144732D01*
X16757081Y-7144734D01*
X16774970Y-7183905D01*
X16817824Y-7277743D01*
X16913578Y-7388250D01*
X17036589Y-7467304D01*
X17176888Y-7508500D01*
X17176889Y-7508500D01*
X17323112Y-7508500D01*
X17403996Y-7484750D01*
X17463411Y-7467304D01*
X17586421Y-7388250D01*
X17682176Y-7277743D01*
X17742919Y-7144734D01*
X17763729Y-7000000D01*
X17742919Y-6855266D01*
X17742918Y-6855264D01*
X17741320Y-6844149D01*
X17733100Y-6806356D01*
X17733100Y-5615507D01*
X17753102Y-5547386D01*
X17806758Y-5500893D01*
X17877032Y-5490789D01*
X17939034Y-5518108D01*
X17997868Y-5566392D01*
X18163462Y-5654903D01*
X18343139Y-5709408D01*
X18529999Y-5727812D01*
X18716860Y-5709408D01*
X18896537Y-5654903D01*
X19062132Y-5566392D01*
X19108239Y-5528552D01*
X18789600Y-5209912D01*
X18807470Y-5201752D01*
X18917869Y-5106090D01*
X18968155Y-5027842D01*
X19288552Y-5348238D01*
X19326392Y-5302132D01*
X19414903Y-5136537D01*
X19469408Y-4956860D01*
X19487812Y-4770000D01*
X20111684Y-4770000D01*
X20130098Y-4956953D01*
X20130098Y-4956955D01*
X20130099Y-4956958D01*
X20184632Y-5136731D01*
X20184633Y-5136733D01*
X20273191Y-5302414D01*
X20392368Y-5447631D01*
X20537585Y-5566808D01*
X20537589Y-5566810D01*
X20703269Y-5655368D01*
X20883042Y-5709901D01*
X21070000Y-5728315D01*
X21256958Y-5709901D01*
X21436731Y-5655368D01*
X21602411Y-5566810D01*
X21602412Y-5566808D01*
X21602414Y-5566808D01*
X21747631Y-5447631D01*
X21866808Y-5302414D01*
X21866810Y-5302411D01*
X21955368Y-5136731D01*
X22009901Y-4956958D01*
X22028315Y-4770000D01*
X22651684Y-4770000D01*
X22670098Y-4956953D01*
X22670098Y-4956955D01*
X22670099Y-4956958D01*
X22724632Y-5136731D01*
X22724633Y-5136733D01*
X22813191Y-5302414D01*
X22932368Y-5447631D01*
X23077585Y-5566808D01*
X23077589Y-5566810D01*
X23243269Y-5655368D01*
X23423042Y-5709901D01*
X23610000Y-5728315D01*
X23796958Y-5709901D01*
X23976731Y-5655368D01*
X24142411Y-5566810D01*
X24142412Y-5566808D01*
X24142414Y-5566808D01*
X24287631Y-5447631D01*
X24406808Y-5302414D01*
X24406810Y-5302411D01*
X24495368Y-5136731D01*
X24549901Y-4956958D01*
X24568315Y-4770000D01*
X25191684Y-4770000D01*
X25210098Y-4956953D01*
X25210098Y-4956955D01*
X25210099Y-4956958D01*
X25264632Y-5136731D01*
X25264633Y-5136733D01*
X25353191Y-5302414D01*
X25472368Y-5447631D01*
X25617585Y-5566808D01*
X25617589Y-5566810D01*
X25783269Y-5655368D01*
X25963042Y-5709901D01*
X26107002Y-5724080D01*
X26149999Y-5728315D01*
X26149999Y-5728314D01*
X26150000Y-5728315D01*
X26336958Y-5709901D01*
X26516731Y-5655368D01*
X26682411Y-5566810D01*
X26682412Y-5566808D01*
X26682414Y-5566808D01*
X26827631Y-5447631D01*
X26946808Y-5302414D01*
X26946810Y-5302411D01*
X27035368Y-5136731D01*
X27089901Y-4956958D01*
X27108315Y-4770000D01*
X27731684Y-4770000D01*
X27750098Y-4956953D01*
X27750098Y-4956955D01*
X27750099Y-4956958D01*
X27804632Y-5136731D01*
X27804633Y-5136733D01*
X27893191Y-5302414D01*
X28012368Y-5447631D01*
X28157585Y-5566808D01*
X28157589Y-5566810D01*
X28323269Y-5655368D01*
X28503042Y-5709901D01*
X28690000Y-5728315D01*
X28876958Y-5709901D01*
X29056731Y-5655368D01*
X29222411Y-5566810D01*
X29222412Y-5566808D01*
X29222414Y-5566808D01*
X29367631Y-5447631D01*
X29486808Y-5302414D01*
X29486810Y-5302411D01*
X29575368Y-5136731D01*
X29629901Y-4956958D01*
X29648315Y-4770000D01*
X30271684Y-4770000D01*
X30290098Y-4956953D01*
X30290098Y-4956955D01*
X30290099Y-4956958D01*
X30344632Y-5136731D01*
X30344633Y-5136733D01*
X30433191Y-5302414D01*
X30552368Y-5447631D01*
X30697585Y-5566808D01*
X30697589Y-5566810D01*
X30863269Y-5655368D01*
X31043042Y-5709901D01*
X31230000Y-5728315D01*
X31416958Y-5709901D01*
X31596731Y-5655368D01*
X31762411Y-5566810D01*
X31762412Y-5566808D01*
X31762414Y-5566808D01*
X31907631Y-5447631D01*
X32026808Y-5302414D01*
X32026810Y-5302411D01*
X32115368Y-5136731D01*
X32169901Y-4956958D01*
X32188315Y-4770000D01*
X32175783Y-4642758D01*
X32169901Y-4583041D01*
X32129300Y-4449197D01*
X32125429Y-4436439D01*
X32124796Y-4365447D01*
X32156907Y-4310771D01*
X32600075Y-3867604D01*
X32662388Y-3833579D01*
X32689171Y-3830700D01*
X33059066Y-3830700D01*
X33127187Y-3850702D01*
X33173680Y-3904358D01*
X33183784Y-3974632D01*
X33154290Y-4039212D01*
X33139000Y-4054099D01*
X33092366Y-4092370D01*
X32973191Y-4237585D01*
X32884633Y-4403266D01*
X32884632Y-4403268D01*
X32884632Y-4403269D01*
X32830100Y-4583041D01*
X32830098Y-4583046D01*
X32811684Y-4769999D01*
X32830098Y-4956953D01*
X32830098Y-4956955D01*
X32830099Y-4956958D01*
X32884632Y-5136731D01*
X32884633Y-5136733D01*
X32973191Y-5302414D01*
X33092368Y-5447631D01*
X33237585Y-5566808D01*
X33237589Y-5566810D01*
X33403269Y-5655368D01*
X33583042Y-5709901D01*
X33727002Y-5724080D01*
X33769999Y-5728315D01*
X33769999Y-5728314D01*
X33770000Y-5728315D01*
X33929754Y-5712580D01*
X33999505Y-5725808D01*
X34031194Y-5748874D01*
X34132397Y-5850077D01*
X34166420Y-5912385D01*
X34169300Y-5939169D01*
X34169300Y-7897430D01*
X34149298Y-7965551D01*
X34095642Y-8012044D01*
X34025368Y-8022148D01*
X33960788Y-7992654D01*
X33954205Y-7986525D01*
X32928428Y-6960748D01*
X32894402Y-6898436D01*
X32899467Y-6827621D01*
X32922301Y-6789138D01*
X32932176Y-6777743D01*
X32992919Y-6644734D01*
X33013729Y-6500000D01*
X32992919Y-6355266D01*
X32932176Y-6222257D01*
X32919392Y-6207503D01*
X32836421Y-6111749D01*
X32713410Y-6032695D01*
X32573112Y-5991500D01*
X32573111Y-5991500D01*
X32426889Y-5991500D01*
X32426888Y-5991500D01*
X32286589Y-6032695D01*
X32163578Y-6111749D01*
X32067824Y-6222256D01*
X32007080Y-6355268D01*
X31986270Y-6500000D01*
X32007080Y-6644731D01*
X32007080Y-6644732D01*
X32007081Y-6644734D01*
X32067824Y-6777743D01*
X32138524Y-6859336D01*
X32168017Y-6923915D01*
X32169300Y-6941847D01*
X32169300Y-6980050D01*
X32168821Y-6991031D01*
X32165475Y-7029269D01*
X32175406Y-7066331D01*
X32177785Y-7077059D01*
X32184639Y-7115930D01*
X32195033Y-7141022D01*
X32217672Y-7173353D01*
X32223572Y-7182613D01*
X32224318Y-7183905D01*
X32242761Y-7215849D01*
X32272165Y-7240522D01*
X32280268Y-7247948D01*
X33632395Y-8600075D01*
X33666421Y-8662387D01*
X33669300Y-8689170D01*
X33669300Y-10730050D01*
X33668821Y-10741031D01*
X33665475Y-10779269D01*
X33675406Y-10816331D01*
X33677785Y-10827059D01*
X33684639Y-10865930D01*
X33695033Y-10891022D01*
X33717672Y-10923353D01*
X33723572Y-10932613D01*
X33734732Y-10951942D01*
X33742761Y-10965849D01*
X33772165Y-10990522D01*
X33780268Y-10997948D01*
X35382396Y-12600076D01*
X35416420Y-12662386D01*
X35419300Y-12689169D01*
X35419300Y-16810828D01*
X35399298Y-16878949D01*
X35382396Y-16899923D01*
X34845126Y-17437194D01*
X34782813Y-17471219D01*
X34756030Y-17474099D01*
X34619184Y-17474099D01*
X34551063Y-17454097D01*
X34504570Y-17400441D01*
X34494467Y-17366031D01*
X34492919Y-17355268D01*
X34492919Y-17355266D01*
X34432176Y-17222257D01*
X34419392Y-17207503D01*
X34336421Y-17111749D01*
X34213410Y-17032695D01*
X34073112Y-16991500D01*
X34073111Y-16991500D01*
X33926889Y-16991500D01*
X33926888Y-16991500D01*
X33786589Y-17032695D01*
X33663578Y-17111749D01*
X33567824Y-17222256D01*
X33507080Y-17355268D01*
X33486270Y-17500000D01*
X33507080Y-17644731D01*
X33567824Y-17777743D01*
X33663578Y-17888250D01*
X33786589Y-17967304D01*
X33926888Y-18008500D01*
X33926889Y-18008500D01*
X33985271Y-18008500D01*
X34053392Y-18028502D01*
X34081791Y-18053507D01*
X34088949Y-18062038D01*
X34122177Y-18081222D01*
X34131445Y-18087126D01*
X34162883Y-18109139D01*
X34162884Y-18109139D01*
X34163782Y-18109768D01*
X34188869Y-18120159D01*
X34189946Y-18120348D01*
X34189948Y-18120350D01*
X34227735Y-18127012D01*
X34238471Y-18129392D01*
X34275532Y-18139323D01*
X34313766Y-18135978D01*
X34324748Y-18135499D01*
X34336515Y-18135499D01*
X34404636Y-18155501D01*
X34451129Y-18209157D01*
X34461233Y-18279431D01*
X34431739Y-18344011D01*
X34420542Y-18353713D01*
X34317824Y-18472256D01*
X34257080Y-18605268D01*
X34236270Y-18750000D01*
X34257080Y-18894731D01*
X34317824Y-19027743D01*
X34413578Y-19138250D01*
X34536589Y-19217304D01*
X34676888Y-19258500D01*
X34676889Y-19258500D01*
X34823112Y-19258500D01*
X34893261Y-19237901D01*
X34963411Y-19217304D01*
X35086421Y-19138250D01*
X35163702Y-19049063D01*
X35223425Y-19010681D01*
X35294421Y-19010681D01*
X35354148Y-19049064D01*
X35458057Y-19168981D01*
X35458058Y-19168982D01*
X35533248Y-19217304D01*
X35581068Y-19248036D01*
X35721367Y-19289232D01*
X35721368Y-19289232D01*
X35867591Y-19289232D01*
X35972253Y-19258500D01*
X36007890Y-19248036D01*
X36130900Y-19168982D01*
X36190329Y-19100396D01*
X36250055Y-19062013D01*
X36321052Y-19062013D01*
X36380778Y-19100396D01*
X36380778Y-19100397D01*
X36413576Y-19138248D01*
X36536589Y-19217304D01*
X36676888Y-19258500D01*
X36676889Y-19258500D01*
X36823112Y-19258500D01*
X36893261Y-19237901D01*
X36963411Y-19217304D01*
X37086421Y-19138250D01*
X37154775Y-19059364D01*
X37214501Y-19020981D01*
X37285498Y-19020981D01*
X37345224Y-19059364D01*
X37345225Y-19059365D01*
X37413579Y-19138250D01*
X37536589Y-19217304D01*
X37676888Y-19258500D01*
X37676889Y-19258500D01*
X37823112Y-19258500D01*
X37893261Y-19237901D01*
X37963411Y-19217304D01*
X38086421Y-19138250D01*
X38182176Y-19027743D01*
X38242919Y-18894734D01*
X38263729Y-18750000D01*
X38242919Y-18605266D01*
X38182176Y-18472257D01*
X38170937Y-18459287D01*
X38111475Y-18390663D01*
X38081982Y-18326082D01*
X38080700Y-18308151D01*
X38080700Y-11519948D01*
X38081179Y-11508967D01*
X38084524Y-11470733D01*
X38074593Y-11433672D01*
X38072213Y-11422936D01*
X38067585Y-11396686D01*
X38065551Y-11385149D01*
X38065549Y-11385147D01*
X38065360Y-11384070D01*
X38054967Y-11358981D01*
X38054340Y-11358086D01*
X38054340Y-11358084D01*
X38032327Y-11326645D01*
X38026424Y-11317379D01*
X38007239Y-11284151D01*
X37977840Y-11259482D01*
X37969737Y-11252056D01*
X36367605Y-9649924D01*
X36333579Y-9587612D01*
X36330700Y-9560829D01*
X36330700Y-6939169D01*
X36350702Y-6871048D01*
X36367600Y-6850079D01*
X37719740Y-5497938D01*
X37727819Y-5490534D01*
X37757239Y-5465849D01*
X37776429Y-5432609D01*
X37782322Y-5423359D01*
X37804340Y-5391917D01*
X37804340Y-5391916D01*
X37804972Y-5391014D01*
X37815358Y-5365938D01*
X37815549Y-5364854D01*
X37815551Y-5364851D01*
X37819598Y-5341892D01*
X37851121Y-5278282D01*
X37912034Y-5241810D01*
X37982994Y-5244059D01*
X38041475Y-5284316D01*
X38052071Y-5300259D01*
X38091447Y-5348239D01*
X38411844Y-5027842D01*
X38462131Y-5106090D01*
X38572530Y-5201752D01*
X38590398Y-5209912D01*
X38271759Y-5528551D01*
X38317867Y-5566392D01*
X38483462Y-5654903D01*
X38663139Y-5709408D01*
X38849999Y-5727812D01*
X39036860Y-5709408D01*
X39216537Y-5654903D01*
X39382132Y-5566392D01*
X39428239Y-5528552D01*
X39109600Y-5209912D01*
X39127470Y-5201752D01*
X39237869Y-5106090D01*
X39288155Y-5027842D01*
X39608552Y-5348238D01*
X39646390Y-5302133D01*
X39682177Y-5235181D01*
X39731929Y-5184532D01*
X39801166Y-5168822D01*
X39867905Y-5193037D01*
X39910958Y-5249491D01*
X39919300Y-5294576D01*
X39919300Y-5480050D01*
X39918821Y-5491031D01*
X39915475Y-5529269D01*
X39925406Y-5566331D01*
X39927785Y-5577059D01*
X39934639Y-5615930D01*
X39945033Y-5641022D01*
X39967672Y-5673353D01*
X39973572Y-5682613D01*
X39984588Y-5701693D01*
X39992761Y-5715849D01*
X40022159Y-5740517D01*
X40030260Y-5747941D01*
X40052192Y-5769872D01*
X40086219Y-5832183D01*
X40089099Y-5858969D01*
X40089099Y-7313990D01*
X40069097Y-7382111D01*
X40015441Y-7428604D01*
X39945167Y-7438708D01*
X39880587Y-7409214D01*
X39874004Y-7403085D01*
X39865248Y-7394329D01*
X39751306Y-7336273D01*
X39719793Y-7331281D01*
X39656770Y-7321300D01*
X39193230Y-7321300D01*
X39145962Y-7328786D01*
X39098693Y-7336273D01*
X38984751Y-7394329D01*
X38887375Y-7491706D01*
X38825063Y-7525732D01*
X38754248Y-7520667D01*
X38709185Y-7491706D01*
X38551116Y-7333637D01*
X38517090Y-7271325D01*
X38515494Y-7262474D01*
X38492919Y-7105469D01*
X38492919Y-7105467D01*
X38432176Y-6972458D01*
X38419300Y-6957598D01*
X38336421Y-6861950D01*
X38213410Y-6782896D01*
X38073112Y-6741701D01*
X38073111Y-6741701D01*
X37926889Y-6741701D01*
X37926888Y-6741701D01*
X37786589Y-6782896D01*
X37663578Y-6861950D01*
X37567824Y-6972457D01*
X37507080Y-7105469D01*
X37486270Y-7250200D01*
X37507080Y-7394932D01*
X37507080Y-7394933D01*
X37507081Y-7394935D01*
X37551275Y-7491706D01*
X37567824Y-7527944D01*
X37663578Y-7638451D01*
X37786589Y-7717505D01*
X37926888Y-7758701D01*
X37926889Y-7758701D01*
X37988630Y-7758701D01*
X38056751Y-7778703D01*
X38077725Y-7795606D01*
X38501849Y-8219730D01*
X38509275Y-8227833D01*
X38533950Y-8257239D01*
X38567177Y-8276423D01*
X38576445Y-8282327D01*
X38607883Y-8304340D01*
X38607884Y-8304340D01*
X38608782Y-8304969D01*
X38633869Y-8315360D01*
X38634946Y-8315549D01*
X38634948Y-8315551D01*
X38672735Y-8322213D01*
X38683471Y-8324593D01*
X38741993Y-8340275D01*
X38741886Y-8340672D01*
X38783692Y-8349072D01*
X38834687Y-8398469D01*
X38837342Y-8403404D01*
X38894330Y-8515249D01*
X38984751Y-8605670D01*
X38984753Y-8605671D01*
X39098695Y-8663727D01*
X39098696Y-8663727D01*
X39100502Y-8664647D01*
X39152118Y-8713394D01*
X39169300Y-8776914D01*
X39169300Y-9223084D01*
X39149298Y-9291205D01*
X39100503Y-9335351D01*
X38984750Y-9394330D01*
X38894329Y-9484751D01*
X38836273Y-9598693D01*
X38832626Y-9621720D01*
X38821300Y-9693230D01*
X38821300Y-10306770D01*
X38831236Y-10369502D01*
X38836273Y-10401306D01*
X38894329Y-10515248D01*
X38984751Y-10605670D01*
X38984753Y-10605671D01*
X39098695Y-10663727D01*
X39098696Y-10663727D01*
X39100502Y-10664647D01*
X39152118Y-10713394D01*
X39169300Y-10776914D01*
X39169300Y-11223084D01*
X39149298Y-11291205D01*
X39100503Y-11335351D01*
X38984750Y-11394330D01*
X38894329Y-11484751D01*
X38836273Y-11598693D01*
X38836272Y-11598695D01*
X38836273Y-11598695D01*
X38821300Y-11693230D01*
X38821300Y-12306770D01*
X38825524Y-12333436D01*
X38836273Y-12401306D01*
X38894329Y-12515248D01*
X38984751Y-12605670D01*
X39060442Y-12644236D01*
X39098695Y-12663727D01*
X39193230Y-12678700D01*
X39458830Y-12678700D01*
X39526951Y-12698702D01*
X39547925Y-12715605D01*
X40382395Y-13550075D01*
X40416421Y-13612387D01*
X40419300Y-13639170D01*
X40419300Y-14308151D01*
X40399298Y-14376272D01*
X40388525Y-14390663D01*
X40317824Y-14472256D01*
X40257080Y-14605268D01*
X40236270Y-14750000D01*
X40257080Y-14894731D01*
X40317824Y-15027743D01*
X40413578Y-15138250D01*
X40536589Y-15217304D01*
X40676888Y-15258500D01*
X40676889Y-15258500D01*
X40738630Y-15258500D01*
X40806751Y-15278502D01*
X40827724Y-15295404D01*
X41560062Y-16027743D01*
X42252056Y-16719737D01*
X42259482Y-16727840D01*
X42284151Y-16757239D01*
X42317379Y-16776424D01*
X42326645Y-16782327D01*
X42358084Y-16804340D01*
X42358086Y-16804340D01*
X42358981Y-16804967D01*
X42384070Y-16815360D01*
X42385147Y-16815549D01*
X42385149Y-16815551D01*
X42422936Y-16822213D01*
X42433672Y-16824593D01*
X42470733Y-16834524D01*
X42508967Y-16831179D01*
X42519949Y-16830700D01*
X46056170Y-16830700D01*
X46124291Y-16850702D01*
X46151392Y-16874185D01*
X46163579Y-16888250D01*
X46286589Y-16967304D01*
X46356738Y-16987901D01*
X46426888Y-17008500D01*
X46426889Y-17008500D01*
X46573112Y-17008500D01*
X46643260Y-16987901D01*
X46713411Y-16967304D01*
X46836421Y-16888250D01*
X46932176Y-16777743D01*
X46992919Y-16644734D01*
X47013729Y-16500000D01*
X46992919Y-16355266D01*
X46932176Y-16222257D01*
X46919392Y-16207503D01*
X46836421Y-16111749D01*
X46713410Y-16032695D01*
X46573112Y-15991500D01*
X46573111Y-15991500D01*
X46426889Y-15991500D01*
X46426888Y-15991500D01*
X46286590Y-16032695D01*
X46188687Y-16095614D01*
X46163579Y-16111750D01*
X46151393Y-16125813D01*
X46091669Y-16164196D01*
X46056170Y-16169300D01*
X42689171Y-16169300D01*
X42621050Y-16149298D01*
X42600076Y-16132395D01*
X41301116Y-14833436D01*
X41267091Y-14771124D01*
X41265494Y-14762273D01*
X41242919Y-14605268D01*
X41242919Y-14605266D01*
X41182176Y-14472257D01*
X41170937Y-14459287D01*
X41111475Y-14390663D01*
X41081982Y-14326082D01*
X41080700Y-14308151D01*
X41080700Y-13469948D01*
X41081179Y-13458967D01*
X41084524Y-13420733D01*
X41074593Y-13383672D01*
X41072213Y-13372936D01*
X41069466Y-13357357D01*
X41065551Y-13335149D01*
X41065549Y-13335147D01*
X41065360Y-13334070D01*
X41054969Y-13308983D01*
X41032328Y-13276648D01*
X41026423Y-13267378D01*
X41007239Y-13234151D01*
X40977833Y-13209476D01*
X40969730Y-13202050D01*
X40645903Y-12878223D01*
X40611877Y-12815911D01*
X40616942Y-12745096D01*
X40659489Y-12688260D01*
X40726009Y-12663449D01*
X40754704Y-12664678D01*
X40843230Y-12678700D01*
X40843233Y-12678700D01*
X41306768Y-12678700D01*
X41306770Y-12678700D01*
X41401305Y-12663727D01*
X41515247Y-12605671D01*
X41605671Y-12515247D01*
X41654592Y-12419232D01*
X41672787Y-12383524D01*
X41674995Y-12384649D01*
X41692451Y-12347832D01*
X41752721Y-12310308D01*
X41786484Y-12305700D01*
X41999012Y-12305700D01*
X42053291Y-12321637D01*
X42053848Y-12320378D01*
X42063469Y-12324626D01*
X42067133Y-12325702D01*
X42068620Y-12326900D01*
X42075394Y-12329891D01*
X42075395Y-12329892D01*
X42179263Y-12375754D01*
X42204655Y-12378700D01*
X43570344Y-12378699D01*
X43595737Y-12375754D01*
X43699605Y-12329892D01*
X43699605Y-12329891D01*
X43721152Y-12320378D01*
X43722623Y-12323710D01*
X43747818Y-12309947D01*
X43785602Y-12307541D01*
X43808267Y-12309524D01*
X43845336Y-12299590D01*
X43856036Y-12297217D01*
X43893851Y-12290551D01*
X43893853Y-12290549D01*
X43894934Y-12290359D01*
X43920015Y-12279969D01*
X43920911Y-12279341D01*
X43920916Y-12279340D01*
X43952359Y-12257322D01*
X43961598Y-12251436D01*
X43994849Y-12232239D01*
X44019534Y-12202819D01*
X44026939Y-12194739D01*
X44119178Y-12102500D01*
X47671800Y-12102500D01*
X47671800Y-12116636D01*
X47672219Y-12123891D01*
X47674739Y-12145616D01*
X47720529Y-12249319D01*
X47800680Y-12329470D01*
X47904383Y-12375260D01*
X47926108Y-12377780D01*
X47933363Y-12378200D01*
X48485000Y-12378200D01*
X48485000Y-12102500D01*
X48740000Y-12102500D01*
X48740000Y-12378200D01*
X49291637Y-12378200D01*
X49298891Y-12377780D01*
X49320616Y-12375260D01*
X49424319Y-12329470D01*
X49504470Y-12249319D01*
X49550260Y-12145616D01*
X49552780Y-12123891D01*
X49553200Y-12116636D01*
X49553200Y-12102500D01*
X48740000Y-12102500D01*
X48485000Y-12102500D01*
X47671800Y-12102500D01*
X44119178Y-12102500D01*
X44769178Y-11452500D01*
X47671800Y-11452500D01*
X47671800Y-11466636D01*
X47672219Y-11473891D01*
X47674739Y-11495618D01*
X47720434Y-11599106D01*
X47729652Y-11669502D01*
X47720434Y-11700894D01*
X47674739Y-11804381D01*
X47672219Y-11826108D01*
X47671800Y-11833363D01*
X47671800Y-11847500D01*
X48485000Y-11847500D01*
X48485000Y-11452500D01*
X48740000Y-11452500D01*
X48740000Y-11847500D01*
X49553200Y-11847500D01*
X49553200Y-11833363D01*
X49552780Y-11826108D01*
X49550260Y-11804383D01*
X49504565Y-11700895D01*
X49495347Y-11630499D01*
X49504565Y-11599105D01*
X49550260Y-11495616D01*
X49552780Y-11473891D01*
X49553200Y-11466636D01*
X49553200Y-11452500D01*
X48740000Y-11452500D01*
X48485000Y-11452500D01*
X47671800Y-11452500D01*
X44769178Y-11452500D01*
X45419178Y-10802500D01*
X47671800Y-10802500D01*
X47671800Y-10816636D01*
X47672219Y-10823891D01*
X47674739Y-10845618D01*
X47720434Y-10949105D01*
X47729652Y-11019500D01*
X47720434Y-11050893D01*
X47674739Y-11154381D01*
X47672219Y-11176108D01*
X47671800Y-11183363D01*
X47671800Y-11197500D01*
X48485000Y-11197500D01*
X48485000Y-10802500D01*
X48740000Y-10802500D01*
X48740000Y-11197500D01*
X49553200Y-11197500D01*
X49553200Y-11183363D01*
X49552780Y-11176108D01*
X49550260Y-11154383D01*
X49504565Y-11050895D01*
X49495347Y-10980499D01*
X49504565Y-10949105D01*
X49550260Y-10845616D01*
X49552780Y-10823891D01*
X49553200Y-10816636D01*
X49553200Y-10802500D01*
X48740000Y-10802500D01*
X48485000Y-10802500D01*
X47671800Y-10802500D01*
X45419178Y-10802500D01*
X45969739Y-10251939D01*
X45977819Y-10244534D01*
X46007239Y-10219849D01*
X46026436Y-10186598D01*
X46032322Y-10177359D01*
X46049730Y-10152500D01*
X47671800Y-10152500D01*
X47671800Y-10166636D01*
X47672219Y-10173891D01*
X47674739Y-10195618D01*
X47720434Y-10299106D01*
X47729652Y-10369502D01*
X47720434Y-10400894D01*
X47674739Y-10504381D01*
X47672219Y-10526108D01*
X47671800Y-10533363D01*
X47671800Y-10547500D01*
X48485000Y-10547500D01*
X48485000Y-10152500D01*
X48740000Y-10152500D01*
X48740000Y-10547500D01*
X49553200Y-10547500D01*
X49553200Y-10533363D01*
X49552780Y-10526108D01*
X49550260Y-10504383D01*
X49504565Y-10400895D01*
X49495347Y-10330499D01*
X49504565Y-10299105D01*
X49550260Y-10195616D01*
X49552780Y-10173891D01*
X49553200Y-10166636D01*
X49553200Y-10152500D01*
X48740000Y-10152500D01*
X48485000Y-10152500D01*
X47671800Y-10152500D01*
X46049730Y-10152500D01*
X46054340Y-10145916D01*
X46054341Y-10145911D01*
X46054969Y-10145015D01*
X46065359Y-10119934D01*
X46065549Y-10118853D01*
X46065551Y-10118851D01*
X46072217Y-10081036D01*
X46074590Y-10070336D01*
X46084524Y-10033267D01*
X46081179Y-9995030D01*
X46080700Y-9984050D01*
X46080700Y-9897500D01*
X47671800Y-9897500D01*
X48485000Y-9897500D01*
X48485000Y-9621800D01*
X48740000Y-9621800D01*
X48740000Y-9897500D01*
X49553200Y-9897500D01*
X49553200Y-9883363D01*
X49552780Y-9876108D01*
X49550260Y-9854383D01*
X49504470Y-9750680D01*
X49424319Y-9670529D01*
X49320616Y-9624739D01*
X49298891Y-9622219D01*
X49291637Y-9621800D01*
X48740000Y-9621800D01*
X48485000Y-9621800D01*
X47933363Y-9621800D01*
X47926108Y-9622219D01*
X47904383Y-9624739D01*
X47800680Y-9670529D01*
X47720529Y-9750680D01*
X47674739Y-9854383D01*
X47672219Y-9876108D01*
X47671800Y-9883363D01*
X47671800Y-9897500D01*
X46080700Y-9897500D01*
X46080700Y-9394329D01*
X46080700Y-8800837D01*
X46100701Y-8732720D01*
X46154357Y-8686227D01*
X46218464Y-8675391D01*
X46245481Y-8677924D01*
X46251369Y-8678199D01*
X46397500Y-8678199D01*
X46397500Y-8127500D01*
X46652500Y-8127500D01*
X46652500Y-8678199D01*
X46798647Y-8678199D01*
X46804513Y-8677924D01*
X46830507Y-8675488D01*
X46952343Y-8632856D01*
X47020102Y-8582847D01*
X48347463Y-8582847D01*
X48347604Y-8582973D01*
X48498807Y-8662331D01*
X48664618Y-8703200D01*
X48835382Y-8703200D01*
X49001189Y-8662332D01*
X49152397Y-8582972D01*
X49152535Y-8582848D01*
X49152535Y-8582846D01*
X48750001Y-8180312D01*
X48750000Y-8180312D01*
X48347463Y-8582847D01*
X47020102Y-8582847D01*
X47056203Y-8556203D01*
X47132856Y-8452343D01*
X47175487Y-8330509D01*
X47177926Y-8304502D01*
X47178200Y-8298651D01*
X47178200Y-8127500D01*
X46652500Y-8127500D01*
X46397500Y-8127500D01*
X46397500Y-8000000D01*
X48041635Y-8000000D01*
X48062218Y-8169522D01*
X48122773Y-8329193D01*
X48170847Y-8398839D01*
X48569686Y-8000001D01*
X48930312Y-8000001D01*
X49329151Y-8398840D01*
X49329152Y-8398839D01*
X49377226Y-8329195D01*
X49437781Y-8169522D01*
X49458364Y-8000000D01*
X49437781Y-7830477D01*
X49377226Y-7670806D01*
X49329152Y-7601158D01*
X48930312Y-7999999D01*
X48930312Y-8000001D01*
X48569686Y-8000001D01*
X48569688Y-7999999D01*
X48170847Y-7601158D01*
X48170847Y-7601159D01*
X48122773Y-7670806D01*
X48062218Y-7830477D01*
X48041635Y-8000000D01*
X46397500Y-8000000D01*
X46397500Y-7321800D01*
X46652500Y-7321800D01*
X46652500Y-7872500D01*
X47178199Y-7872500D01*
X47178199Y-7701352D01*
X47177924Y-7695486D01*
X47175488Y-7669492D01*
X47132856Y-7547656D01*
X47056203Y-7443796D01*
X47020101Y-7417151D01*
X48347462Y-7417151D01*
X48749999Y-7819688D01*
X48750000Y-7819688D01*
X49152536Y-7417151D01*
X49152535Y-7417150D01*
X49152397Y-7417027D01*
X49001192Y-7337668D01*
X48835382Y-7296800D01*
X48664618Y-7296800D01*
X48498807Y-7337668D01*
X48347603Y-7417026D01*
X48347462Y-7417151D01*
X47020101Y-7417151D01*
X46952343Y-7367143D01*
X46830509Y-7324512D01*
X46804502Y-7322073D01*
X46798651Y-7321800D01*
X46652500Y-7321800D01*
X46397500Y-7321800D01*
X46251352Y-7321800D01*
X46245481Y-7322075D01*
X46218455Y-7324608D01*
X46148765Y-7311049D01*
X46097469Y-7261965D01*
X46080700Y-7199158D01*
X46080700Y-6519939D01*
X46081179Y-6508959D01*
X46084523Y-6470731D01*
X46074593Y-6433673D01*
X46072213Y-6422937D01*
X46065361Y-6384070D01*
X46054968Y-6358980D01*
X46036356Y-6332400D01*
X46013667Y-6265126D01*
X46014258Y-6253677D01*
X45992919Y-6105268D01*
X45992919Y-6105266D01*
X45932176Y-5972257D01*
X45880297Y-5912385D01*
X45836421Y-5861749D01*
X45713410Y-5782695D01*
X45573112Y-5741500D01*
X45573111Y-5741500D01*
X45426889Y-5741500D01*
X45426888Y-5741500D01*
X45286589Y-5782695D01*
X45163578Y-5861749D01*
X45067824Y-5972256D01*
X45007080Y-6105268D01*
X44986270Y-6249999D01*
X45007080Y-6394731D01*
X45007080Y-6394732D01*
X45007081Y-6394734D01*
X45055154Y-6500000D01*
X45067824Y-6527743D01*
X45072543Y-6533189D01*
X45102036Y-6597770D01*
X45091931Y-6668044D01*
X45045438Y-6721700D01*
X44977318Y-6741701D01*
X44926888Y-6741701D01*
X44786589Y-6782896D01*
X44663578Y-6861950D01*
X44567824Y-6972457D01*
X44507080Y-7105469D01*
X44486270Y-7250198D01*
X44496558Y-7321751D01*
X44486453Y-7392025D01*
X44446668Y-7441056D01*
X44443442Y-7443436D01*
X44366697Y-7547420D01*
X44324016Y-7669396D01*
X44324016Y-7669400D01*
X44321300Y-7698364D01*
X44321300Y-8301636D01*
X44321574Y-8304565D01*
X44321575Y-8304572D01*
X44324016Y-8330603D01*
X44366697Y-8452579D01*
X44443439Y-8556560D01*
X44519266Y-8612523D01*
X44547419Y-8633301D01*
X44584914Y-8646421D01*
X44642606Y-8687798D01*
X44668769Y-8753797D01*
X44669300Y-8765350D01*
X44669300Y-9060828D01*
X44649298Y-9128949D01*
X44632396Y-9149923D01*
X44124925Y-9657395D01*
X44062612Y-9691420D01*
X44035829Y-9694300D01*
X43775988Y-9694300D01*
X43721708Y-9678362D01*
X43721152Y-9679622D01*
X43711530Y-9675373D01*
X43707867Y-9674298D01*
X43706379Y-9673099D01*
X43595738Y-9624246D01*
X43592644Y-9623887D01*
X43570345Y-9621300D01*
X43566698Y-9621300D01*
X42208292Y-9621300D01*
X42208274Y-9621300D01*
X42204656Y-9621301D01*
X42201046Y-9621719D01*
X42201040Y-9621720D01*
X42179262Y-9624245D01*
X42087795Y-9664632D01*
X42017399Y-9673850D01*
X41953195Y-9643545D01*
X41915567Y-9583340D01*
X41910901Y-9549368D01*
X41910901Y-9350149D01*
X41911380Y-9339168D01*
X41911799Y-9334374D01*
X41914725Y-9300934D01*
X41904794Y-9263873D01*
X41902414Y-9253137D01*
X41899314Y-9235556D01*
X41895752Y-9215350D01*
X41895750Y-9215348D01*
X41895561Y-9214271D01*
X41885170Y-9189184D01*
X41867673Y-9164196D01*
X41862528Y-9156847D01*
X41856624Y-9147579D01*
X41837440Y-9114352D01*
X41808034Y-9089677D01*
X41799931Y-9082251D01*
X41508394Y-8790714D01*
X41474368Y-8728402D01*
X41479433Y-8657587D01*
X41508394Y-8612523D01*
X41515244Y-8605672D01*
X41515247Y-8605671D01*
X41605671Y-8515247D01*
X41663727Y-8401305D01*
X41663727Y-8401304D01*
X41664648Y-8399497D01*
X41713396Y-8347882D01*
X41776915Y-8330700D01*
X42057078Y-8330700D01*
X42125199Y-8350702D01*
X42160774Y-8385124D01*
X42207334Y-8452579D01*
X42219405Y-8470066D01*
X42347317Y-8583387D01*
X42498632Y-8662803D01*
X42664555Y-8703700D01*
X42664557Y-8703700D01*
X42835443Y-8703700D01*
X42835445Y-8703700D01*
X43001368Y-8662803D01*
X43152683Y-8583387D01*
X43280595Y-8470066D01*
X43377671Y-8329427D01*
X43438270Y-8169643D01*
X43458868Y-8000000D01*
X43455499Y-7972257D01*
X43442082Y-7861750D01*
X43438270Y-7830357D01*
X43377671Y-7670573D01*
X43280595Y-7529934D01*
X43152683Y-7416613D01*
X43001368Y-7337197D01*
X42835445Y-7296300D01*
X42664555Y-7296300D01*
X42559983Y-7322075D01*
X42498631Y-7337197D01*
X42347316Y-7416613D01*
X42219404Y-7529934D01*
X42160774Y-7614876D01*
X42105616Y-7659576D01*
X42057078Y-7669300D01*
X41776915Y-7669300D01*
X41708794Y-7649298D01*
X41664648Y-7600503D01*
X41637601Y-7547420D01*
X41605671Y-7484753D01*
X41605670Y-7484752D01*
X41605669Y-7484750D01*
X41515248Y-7394329D01*
X41401306Y-7336273D01*
X41369793Y-7331282D01*
X41306770Y-7321300D01*
X40876499Y-7321300D01*
X40808378Y-7301298D01*
X40761885Y-7247642D01*
X40750499Y-7195300D01*
X40750499Y-5719787D01*
X40770501Y-5651666D01*
X40824157Y-5605173D01*
X40894431Y-5595069D01*
X40935892Y-5608664D01*
X41023269Y-5655368D01*
X41203042Y-5709901D01*
X41390000Y-5728315D01*
X41576958Y-5709901D01*
X41756731Y-5655368D01*
X41922411Y-5566810D01*
X41922412Y-5566808D01*
X41922414Y-5566808D01*
X42067631Y-5447631D01*
X42186808Y-5302414D01*
X42186810Y-5302411D01*
X42275368Y-5136731D01*
X42329901Y-4956958D01*
X42348315Y-4770000D01*
X42971684Y-4770000D01*
X42990098Y-4956953D01*
X42990098Y-4956955D01*
X42990099Y-4956958D01*
X43044632Y-5136731D01*
X43044633Y-5136733D01*
X43133191Y-5302414D01*
X43252368Y-5447631D01*
X43397585Y-5566808D01*
X43397589Y-5566810D01*
X43563269Y-5655368D01*
X43743042Y-5709901D01*
X43930000Y-5728315D01*
X44116958Y-5709901D01*
X44296731Y-5655368D01*
X44462411Y-5566810D01*
X44462412Y-5566808D01*
X44462414Y-5566808D01*
X44607631Y-5447631D01*
X44726808Y-5302414D01*
X44726810Y-5302411D01*
X44815368Y-5136731D01*
X44869901Y-4956958D01*
X44888315Y-4770000D01*
X45511684Y-4770000D01*
X45530098Y-4956953D01*
X45530098Y-4956955D01*
X45530099Y-4956958D01*
X45584632Y-5136731D01*
X45584633Y-5136733D01*
X45673191Y-5302414D01*
X45792368Y-5447631D01*
X45937585Y-5566808D01*
X45937589Y-5566810D01*
X46103269Y-5655368D01*
X46283042Y-5709901D01*
X46427002Y-5724080D01*
X46469999Y-5728315D01*
X46469999Y-5728314D01*
X46470000Y-5728315D01*
X46656958Y-5709901D01*
X46836731Y-5655368D01*
X47002411Y-5566810D01*
X47002412Y-5566808D01*
X47002414Y-5566808D01*
X47147631Y-5447631D01*
X47266808Y-5302414D01*
X47266810Y-5302411D01*
X47355368Y-5136731D01*
X47409901Y-4956958D01*
X47428315Y-4770000D01*
X48051684Y-4770000D01*
X48070098Y-4956953D01*
X48070098Y-4956955D01*
X48070099Y-4956958D01*
X48124632Y-5136731D01*
X48124633Y-5136733D01*
X48213191Y-5302414D01*
X48332368Y-5447631D01*
X48477585Y-5566808D01*
X48477589Y-5566810D01*
X48643269Y-5655368D01*
X48823042Y-5709901D01*
X49010000Y-5728315D01*
X49196958Y-5709901D01*
X49376731Y-5655368D01*
X49542411Y-5566810D01*
X49542412Y-5566808D01*
X49542414Y-5566808D01*
X49687631Y-5447631D01*
X49806808Y-5302414D01*
X49806810Y-5302411D01*
X49895368Y-5136731D01*
X49949901Y-4956958D01*
X49968315Y-4770000D01*
X50591684Y-4770000D01*
X50610098Y-4956953D01*
X50610098Y-4956955D01*
X50610099Y-4956958D01*
X50664632Y-5136731D01*
X50664633Y-5136733D01*
X50753191Y-5302414D01*
X50872368Y-5447631D01*
X51017585Y-5566808D01*
X51017589Y-5566810D01*
X51183269Y-5655368D01*
X51363042Y-5709901D01*
X51550000Y-5728315D01*
X51736958Y-5709901D01*
X51916731Y-5655368D01*
X52082411Y-5566810D01*
X52082412Y-5566808D01*
X52082414Y-5566808D01*
X52227631Y-5447631D01*
X52346808Y-5302414D01*
X52346810Y-5302411D01*
X52435368Y-5136731D01*
X52489901Y-4956958D01*
X52508315Y-4770000D01*
X52508315Y-4769999D01*
X53131684Y-4769999D01*
X53150098Y-4956953D01*
X53150098Y-4956955D01*
X53150099Y-4956958D01*
X53204632Y-5136731D01*
X53204633Y-5136733D01*
X53293191Y-5302414D01*
X53412368Y-5447631D01*
X53557585Y-5566808D01*
X53557589Y-5566810D01*
X53723269Y-5655368D01*
X53903042Y-5709901D01*
X54090000Y-5728315D01*
X54276958Y-5709901D01*
X54456731Y-5655368D01*
X54622411Y-5566810D01*
X54622412Y-5566808D01*
X54622414Y-5566808D01*
X54767631Y-5447631D01*
X54886808Y-5302414D01*
X54886810Y-5302411D01*
X54975368Y-5136731D01*
X55029901Y-4956958D01*
X55041121Y-4843039D01*
X55048315Y-4770006D01*
X55048314Y-4770003D01*
X55048315Y-4770000D01*
X55048018Y-4766989D01*
X55049253Y-4760474D01*
X55049532Y-4757650D01*
X55049784Y-4757674D01*
X55061244Y-4697239D01*
X55110081Y-4645708D01*
X55179026Y-4628761D01*
X55185037Y-4629174D01*
X55304354Y-4640230D01*
X55304360Y-4640230D01*
X55307271Y-4640500D01*
X55310184Y-4640500D01*
X55409816Y-4640500D01*
X55412729Y-4640500D01*
X55415640Y-4640230D01*
X55415645Y-4640230D01*
X55535469Y-4629127D01*
X55605144Y-4642758D01*
X55656390Y-4691894D01*
X55672935Y-4760936D01*
X55672489Y-4766932D01*
X55672187Y-4769998D01*
X55690591Y-4956860D01*
X55745096Y-5136536D01*
X55833607Y-5302130D01*
X55871447Y-5348238D01*
X56191844Y-5027842D01*
X56242131Y-5106090D01*
X56352530Y-5201752D01*
X56370398Y-5209912D01*
X56051759Y-5528551D01*
X56097867Y-5566392D01*
X56263462Y-5654903D01*
X56443139Y-5709408D01*
X56630000Y-5727812D01*
X56816860Y-5709408D01*
X56996537Y-5654903D01*
X57162132Y-5566392D01*
X57208239Y-5528552D01*
X56889600Y-5209912D01*
X56907470Y-5201752D01*
X57017869Y-5106090D01*
X57068155Y-5027842D01*
X57388552Y-5348238D01*
X57426392Y-5302132D01*
X57514903Y-5136537D01*
X57569408Y-4956860D01*
X57587812Y-4770000D01*
X57569408Y-4583139D01*
X57514903Y-4403462D01*
X57426392Y-4237867D01*
X57388551Y-4191759D01*
X57068154Y-4512155D01*
X57017869Y-4433910D01*
X56907470Y-4338248D01*
X56889599Y-4330086D01*
X57208238Y-4011447D01*
X57162130Y-3973607D01*
X56996536Y-3885096D01*
X56816860Y-3830591D01*
X56629998Y-3812187D01*
X56625786Y-3812602D01*
X56556033Y-3799370D01*
X56504508Y-3750527D01*
X56487568Y-3681581D01*
X56489586Y-3664063D01*
X56500500Y-3605683D01*
X56500500Y-3394317D01*
X56500500Y-3394314D01*
X56489684Y-3336456D01*
X56496827Y-3265820D01*
X56541026Y-3210259D01*
X56608247Y-3187414D01*
X56625886Y-3187909D01*
X56630000Y-3188315D01*
X56630002Y-3188314D01*
X56630004Y-3188315D01*
X56713092Y-3180131D01*
X56816958Y-3169901D01*
X56996731Y-3115368D01*
X57162411Y-3026810D01*
X57162412Y-3026808D01*
X57162414Y-3026808D01*
X57307631Y-2907631D01*
X57426808Y-2762414D01*
X57426810Y-2762411D01*
X57515368Y-2596731D01*
X57569901Y-2416958D01*
X57588315Y-2230000D01*
X57569901Y-2043042D01*
X57515368Y-1863269D01*
X57426810Y-1697589D01*
X57426808Y-1697585D01*
X57307631Y-1552368D01*
X57162414Y-1433191D01*
X56996733Y-1344633D01*
X56996732Y-1344632D01*
X56996731Y-1344632D01*
X56816958Y-1290099D01*
X56816955Y-1290098D01*
X56816953Y-1290098D01*
X56629999Y-1271684D01*
X56443046Y-1290098D01*
X56443043Y-1290098D01*
X56443042Y-1290099D01*
X56263269Y-1344632D01*
X56263266Y-1344633D01*
X56097585Y-1433191D01*
X55952368Y-1552368D01*
X55833191Y-1697585D01*
X55744633Y-1863266D01*
X55744632Y-1863268D01*
X55744632Y-1863269D01*
X55693255Y-2032640D01*
X55690098Y-2043046D01*
X55671684Y-2230000D01*
X55671981Y-2233014D01*
X55670746Y-2239524D01*
X55670468Y-2242350D01*
X55670215Y-2242325D01*
X55658752Y-2302767D01*
X55609911Y-2354295D01*
X55540966Y-2371238D01*
X55534963Y-2370826D01*
X55415626Y-2359768D01*
X55415616Y-2359767D01*
X55412729Y-2359500D01*
X55307271Y-2359500D01*
X55304384Y-2359767D01*
X55304373Y-2359768D01*
X55185036Y-2370826D01*
X55115361Y-2357194D01*
X55064115Y-2308057D01*
X55047571Y-2239015D01*
X55048015Y-2233044D01*
X55048315Y-2230000D01*
X55029901Y-2043042D01*
X54975368Y-1863269D01*
X54886810Y-1697589D01*
X54886808Y-1697585D01*
X54767631Y-1552368D01*
X54622414Y-1433191D01*
X54456733Y-1344633D01*
X54456732Y-1344632D01*
X54456731Y-1344632D01*
X54276958Y-1290099D01*
X54276955Y-1290098D01*
X54276953Y-1290098D01*
X54090000Y-1271684D01*
X53903046Y-1290098D01*
X53903043Y-1290098D01*
X53903042Y-1290099D01*
X53723269Y-1344632D01*
X53723266Y-1344633D01*
X53557585Y-1433191D01*
X53412368Y-1552368D01*
X53293191Y-1697585D01*
X53204633Y-1863266D01*
X53204632Y-1863268D01*
X53204632Y-1863269D01*
X53153255Y-2032640D01*
X53150098Y-2043046D01*
X53131684Y-2229999D01*
X53150098Y-2416953D01*
X53150098Y-2416955D01*
X53150099Y-2416958D01*
X53204632Y-2596731D01*
X53204633Y-2596733D01*
X53293191Y-2762414D01*
X53412368Y-2907631D01*
X53557585Y-3026808D01*
X53557589Y-3026810D01*
X53723269Y-3115368D01*
X53903042Y-3169901D01*
X53977825Y-3177266D01*
X54089994Y-3188315D01*
X54089996Y-3188314D01*
X54090000Y-3188315D01*
X54094107Y-3187910D01*
X54163859Y-3201136D01*
X54215390Y-3249974D01*
X54232336Y-3318918D01*
X54230316Y-3336455D01*
X54219500Y-3394317D01*
X54219500Y-3605682D01*
X54230316Y-3663544D01*
X54223171Y-3734180D01*
X54178972Y-3789741D01*
X54111751Y-3812585D01*
X54094113Y-3812089D01*
X54090002Y-3811684D01*
X53903046Y-3830098D01*
X53903043Y-3830098D01*
X53903042Y-3830099D01*
X53734771Y-3881143D01*
X53723266Y-3884633D01*
X53557585Y-3973191D01*
X53412368Y-4092368D01*
X53293191Y-4237585D01*
X53204633Y-4403266D01*
X53204632Y-4403268D01*
X53204632Y-4403269D01*
X53150100Y-4583041D01*
X53150098Y-4583046D01*
X53131684Y-4769999D01*
X52508315Y-4769999D01*
X52489901Y-4583042D01*
X52435368Y-4403269D01*
X52368003Y-4277238D01*
X52346808Y-4237585D01*
X52227631Y-4092368D01*
X52082414Y-3973191D01*
X51916733Y-3884633D01*
X51916732Y-3884632D01*
X51916731Y-3884632D01*
X51736958Y-3830099D01*
X51736955Y-3830098D01*
X51736953Y-3830098D01*
X51550000Y-3811684D01*
X51363046Y-3830098D01*
X51363043Y-3830098D01*
X51363042Y-3830099D01*
X51194771Y-3881143D01*
X51183266Y-3884633D01*
X51017585Y-3973191D01*
X50872368Y-4092368D01*
X50753191Y-4237585D01*
X50664633Y-4403266D01*
X50664632Y-4403268D01*
X50664632Y-4403269D01*
X50610100Y-4583041D01*
X50610098Y-4583046D01*
X50591684Y-4770000D01*
X49968315Y-4770000D01*
X49949901Y-4583042D01*
X49895368Y-4403269D01*
X49828003Y-4277238D01*
X49806808Y-4237585D01*
X49687631Y-4092368D01*
X49542414Y-3973191D01*
X49376733Y-3884633D01*
X49376732Y-3884632D01*
X49376731Y-3884632D01*
X49196958Y-3830099D01*
X49196955Y-3830098D01*
X49196953Y-3830098D01*
X49009999Y-3811684D01*
X48823046Y-3830098D01*
X48823043Y-3830098D01*
X48823042Y-3830099D01*
X48654771Y-3881143D01*
X48643266Y-3884633D01*
X48477585Y-3973191D01*
X48332368Y-4092368D01*
X48213191Y-4237585D01*
X48124633Y-4403266D01*
X48124632Y-4403268D01*
X48124632Y-4403269D01*
X48070100Y-4583041D01*
X48070098Y-4583046D01*
X48051684Y-4770000D01*
X47428315Y-4770000D01*
X47409901Y-4583042D01*
X47355368Y-4403269D01*
X47288003Y-4277238D01*
X47266808Y-4237585D01*
X47147631Y-4092368D01*
X47002414Y-3973191D01*
X46836733Y-3884633D01*
X46836732Y-3884632D01*
X46836731Y-3884632D01*
X46656958Y-3830099D01*
X46656955Y-3830098D01*
X46656953Y-3830098D01*
X46470000Y-3811684D01*
X46283046Y-3830098D01*
X46283043Y-3830098D01*
X46283042Y-3830099D01*
X46114771Y-3881143D01*
X46103266Y-3884633D01*
X45937585Y-3973191D01*
X45792368Y-4092368D01*
X45673191Y-4237585D01*
X45584633Y-4403266D01*
X45584632Y-4403268D01*
X45584632Y-4403269D01*
X45530100Y-4583041D01*
X45530098Y-4583046D01*
X45511684Y-4770000D01*
X44888315Y-4770000D01*
X44869901Y-4583042D01*
X44815368Y-4403269D01*
X44748003Y-4277238D01*
X44726808Y-4237585D01*
X44607631Y-4092368D01*
X44462414Y-3973191D01*
X44296733Y-3884633D01*
X44296732Y-3884632D01*
X44296731Y-3884632D01*
X44116958Y-3830099D01*
X44116955Y-3830098D01*
X44116953Y-3830098D01*
X43930000Y-3811684D01*
X43743046Y-3830098D01*
X43743043Y-3830098D01*
X43743042Y-3830099D01*
X43574771Y-3881143D01*
X43563266Y-3884633D01*
X43397585Y-3973191D01*
X43252368Y-4092368D01*
X43133191Y-4237585D01*
X43044633Y-4403266D01*
X43044632Y-4403268D01*
X43044632Y-4403269D01*
X42990100Y-4583041D01*
X42990098Y-4583046D01*
X42971684Y-4770000D01*
X42348315Y-4770000D01*
X42329901Y-4583042D01*
X42275368Y-4403269D01*
X42208003Y-4277238D01*
X42186808Y-4237585D01*
X42067631Y-4092368D01*
X41922414Y-3973191D01*
X41756733Y-3884633D01*
X41756732Y-3884632D01*
X41756731Y-3884632D01*
X41576958Y-3830099D01*
X41576955Y-3830098D01*
X41576953Y-3830098D01*
X41389999Y-3811684D01*
X41203046Y-3830098D01*
X41203043Y-3830098D01*
X41203042Y-3830099D01*
X41034771Y-3881143D01*
X41023266Y-3884633D01*
X40857589Y-3973189D01*
X40786633Y-4031421D01*
X40721285Y-4059174D01*
X40651307Y-4047192D01*
X40598916Y-3999279D01*
X40580700Y-3934021D01*
X40580700Y-3559170D01*
X40600702Y-3491049D01*
X40617600Y-3470079D01*
X40930771Y-3156907D01*
X40993082Y-3122884D01*
X41056439Y-3125429D01*
X41118521Y-3144262D01*
X41203041Y-3169901D01*
X41389999Y-3188315D01*
X41389999Y-3188314D01*
X41390000Y-3188315D01*
X41576958Y-3169901D01*
X41756731Y-3115368D01*
X41922411Y-3026810D01*
X41922412Y-3026808D01*
X41922414Y-3026808D01*
X42067631Y-2907631D01*
X42186808Y-2762414D01*
X42186810Y-2762411D01*
X42275368Y-2596731D01*
X42329901Y-2416958D01*
X42348315Y-2230000D01*
X42348315Y-2229999D01*
X42972187Y-2229999D01*
X42990591Y-2416860D01*
X43045096Y-2596536D01*
X43133607Y-2762130D01*
X43171447Y-2808238D01*
X43491843Y-2487841D01*
X43542131Y-2566090D01*
X43652530Y-2661752D01*
X43670398Y-2669912D01*
X43351759Y-2988551D01*
X43397867Y-3026392D01*
X43563462Y-3114903D01*
X43743139Y-3169408D01*
X43929999Y-3187812D01*
X44116860Y-3169408D01*
X44296537Y-3114903D01*
X44462132Y-3026392D01*
X44508238Y-2988552D01*
X44189600Y-2669912D01*
X44207470Y-2661752D01*
X44317869Y-2566090D01*
X44368155Y-2487842D01*
X44688552Y-2808238D01*
X44726392Y-2762132D01*
X44814903Y-2596537D01*
X44869408Y-2416860D01*
X44887812Y-2229999D01*
X45511684Y-2229999D01*
X45530098Y-2416953D01*
X45530098Y-2416955D01*
X45530099Y-2416958D01*
X45584632Y-2596731D01*
X45584633Y-2596733D01*
X45673191Y-2762414D01*
X45792368Y-2907631D01*
X45937585Y-3026808D01*
X45937589Y-3026810D01*
X46103269Y-3115368D01*
X46283042Y-3169901D01*
X46470000Y-3188315D01*
X46656958Y-3169901D01*
X46836731Y-3115368D01*
X47002411Y-3026810D01*
X47002412Y-3026808D01*
X47002414Y-3026808D01*
X47147631Y-2907631D01*
X47266808Y-2762414D01*
X47266810Y-2762411D01*
X47355368Y-2596731D01*
X47409901Y-2416958D01*
X47428315Y-2230000D01*
X47428315Y-2229999D01*
X48052187Y-2229999D01*
X48070591Y-2416860D01*
X48125096Y-2596536D01*
X48213607Y-2762130D01*
X48251447Y-2808238D01*
X48571843Y-2487841D01*
X48622131Y-2566090D01*
X48732530Y-2661752D01*
X48750398Y-2669912D01*
X48431759Y-2988551D01*
X48477867Y-3026392D01*
X48643462Y-3114903D01*
X48823139Y-3169408D01*
X49009999Y-3187812D01*
X49196860Y-3169408D01*
X49376537Y-3114903D01*
X49542132Y-3026392D01*
X49588238Y-2988552D01*
X49269600Y-2669912D01*
X49287470Y-2661752D01*
X49397869Y-2566090D01*
X49448155Y-2487842D01*
X49768552Y-2808238D01*
X49806392Y-2762132D01*
X49894903Y-2596537D01*
X49949408Y-2416860D01*
X49967812Y-2229999D01*
X50591684Y-2229999D01*
X50610098Y-2416953D01*
X50610098Y-2416955D01*
X50610099Y-2416958D01*
X50664632Y-2596731D01*
X50664633Y-2596733D01*
X50753191Y-2762414D01*
X50872368Y-2907631D01*
X51017585Y-3026808D01*
X51017589Y-3026810D01*
X51183269Y-3115368D01*
X51363042Y-3169901D01*
X51550000Y-3188315D01*
X51736958Y-3169901D01*
X51916731Y-3115368D01*
X52082411Y-3026810D01*
X52082412Y-3026808D01*
X52082414Y-3026808D01*
X52227631Y-2907631D01*
X52346808Y-2762414D01*
X52346810Y-2762411D01*
X52435368Y-2596731D01*
X52489901Y-2416958D01*
X52508315Y-2230000D01*
X52489901Y-2043042D01*
X52435368Y-1863269D01*
X52346810Y-1697589D01*
X52346808Y-1697585D01*
X52227631Y-1552368D01*
X52082414Y-1433191D01*
X51916733Y-1344633D01*
X51916732Y-1344632D01*
X51916731Y-1344632D01*
X51736958Y-1290099D01*
X51736955Y-1290098D01*
X51736953Y-1290098D01*
X51550000Y-1271684D01*
X51363046Y-1290098D01*
X51363043Y-1290098D01*
X51363042Y-1290099D01*
X51183269Y-1344632D01*
X51183266Y-1344633D01*
X51017585Y-1433191D01*
X50872368Y-1552368D01*
X50753191Y-1697585D01*
X50664633Y-1863266D01*
X50664632Y-1863268D01*
X50664632Y-1863269D01*
X50613255Y-2032640D01*
X50610098Y-2043046D01*
X50591684Y-2229999D01*
X49967812Y-2229999D01*
X49949408Y-2043139D01*
X49894903Y-1863462D01*
X49806392Y-1697867D01*
X49768551Y-1651759D01*
X49448154Y-1972155D01*
X49397869Y-1893910D01*
X49287470Y-1798248D01*
X49269599Y-1790086D01*
X49588238Y-1471447D01*
X49542130Y-1433607D01*
X49376536Y-1345096D01*
X49196860Y-1290591D01*
X49009999Y-1272187D01*
X48823139Y-1290591D01*
X48643463Y-1345096D01*
X48477869Y-1433607D01*
X48431760Y-1471447D01*
X48431760Y-1471448D01*
X48750399Y-1790087D01*
X48732530Y-1798248D01*
X48622131Y-1893910D01*
X48571845Y-1972156D01*
X48251448Y-1651759D01*
X48251447Y-1651760D01*
X48213607Y-1697869D01*
X48125096Y-1863463D01*
X48070591Y-2043139D01*
X48052187Y-2229999D01*
X47428315Y-2229999D01*
X47409901Y-2043042D01*
X47355368Y-1863269D01*
X47266810Y-1697589D01*
X47266808Y-1697585D01*
X47147631Y-1552368D01*
X47002414Y-1433191D01*
X46836733Y-1344633D01*
X46836732Y-1344632D01*
X46836731Y-1344632D01*
X46656958Y-1290099D01*
X46656955Y-1290098D01*
X46656953Y-1290098D01*
X46469999Y-1271684D01*
X46283046Y-1290098D01*
X46283043Y-1290098D01*
X46283042Y-1290099D01*
X46103269Y-1344632D01*
X46103266Y-1344633D01*
X45937585Y-1433191D01*
X45792368Y-1552368D01*
X45673191Y-1697585D01*
X45584633Y-1863266D01*
X45584632Y-1863268D01*
X45584632Y-1863269D01*
X45533255Y-2032640D01*
X45530098Y-2043046D01*
X45511684Y-2229999D01*
X44887812Y-2229999D01*
X44869408Y-2043139D01*
X44814903Y-1863462D01*
X44726392Y-1697867D01*
X44688551Y-1651759D01*
X44368154Y-1972155D01*
X44317869Y-1893910D01*
X44207470Y-1798248D01*
X44189599Y-1790086D01*
X44508238Y-1471447D01*
X44462130Y-1433607D01*
X44296536Y-1345096D01*
X44116860Y-1290591D01*
X43929999Y-1272187D01*
X43743139Y-1290591D01*
X43563463Y-1345096D01*
X43397869Y-1433607D01*
X43351760Y-1471447D01*
X43351760Y-1471448D01*
X43670399Y-1790087D01*
X43652530Y-1798248D01*
X43542131Y-1893910D01*
X43491845Y-1972156D01*
X43171448Y-1651760D01*
X43171447Y-1651760D01*
X43133607Y-1697869D01*
X43045096Y-1863463D01*
X42990591Y-2043139D01*
X42972187Y-2229999D01*
X42348315Y-2229999D01*
X42329901Y-2043042D01*
X42275368Y-1863269D01*
X42186810Y-1697589D01*
X42186808Y-1697585D01*
X42067631Y-1552368D01*
X41922414Y-1433191D01*
X41756733Y-1344633D01*
X41756732Y-1344632D01*
X41756731Y-1344632D01*
X41576958Y-1290099D01*
X41576955Y-1290098D01*
X41576953Y-1290098D01*
X41390000Y-1271684D01*
X41203046Y-1290098D01*
X41203043Y-1290098D01*
X41203042Y-1290099D01*
X41023269Y-1344632D01*
X41023266Y-1344633D01*
X40857585Y-1433191D01*
X40712368Y-1552368D01*
X40593191Y-1697585D01*
X40504633Y-1863266D01*
X40504632Y-1863268D01*
X40504632Y-1863269D01*
X40453255Y-2032640D01*
X40450098Y-2043046D01*
X40431684Y-2229999D01*
X40450098Y-2416955D01*
X40494569Y-2563559D01*
X40495202Y-2634553D01*
X40463089Y-2689229D01*
X40030266Y-3122052D01*
X40022166Y-3129476D01*
X39993335Y-3153670D01*
X39992759Y-3154153D01*
X39973570Y-3187386D01*
X39967669Y-3196648D01*
X39945034Y-3228975D01*
X39934637Y-3254078D01*
X39927783Y-3292945D01*
X39925405Y-3303672D01*
X39915475Y-3340730D01*
X39918821Y-3378967D01*
X39919300Y-3389948D01*
X39919300Y-4245423D01*
X39899298Y-4313544D01*
X39845642Y-4360037D01*
X39775368Y-4370141D01*
X39710788Y-4340647D01*
X39682178Y-4304819D01*
X39646392Y-4237867D01*
X39608551Y-4191759D01*
X39288154Y-4512155D01*
X39237869Y-4433910D01*
X39127470Y-4338248D01*
X39109599Y-4330086D01*
X39428238Y-4011447D01*
X39382130Y-3973607D01*
X39216536Y-3885096D01*
X39036860Y-3830591D01*
X38849999Y-3812187D01*
X38663139Y-3830591D01*
X38483463Y-3885096D01*
X38317869Y-3973607D01*
X38271760Y-4011447D01*
X38271759Y-4011447D01*
X38590399Y-4330087D01*
X38572530Y-4338248D01*
X38462131Y-4433910D01*
X38411844Y-4512157D01*
X38091447Y-4191760D01*
X38054100Y-4237269D01*
X37995423Y-4277238D01*
X37924452Y-4279139D01*
X37863719Y-4242369D01*
X37832507Y-4178601D01*
X37830700Y-4157336D01*
X37830700Y-3439948D01*
X37831179Y-3428967D01*
X37831991Y-3419688D01*
X37834524Y-3390733D01*
X37824593Y-3353672D01*
X37822213Y-3342936D01*
X37821824Y-3340730D01*
X37815551Y-3305149D01*
X37815549Y-3305147D01*
X37815360Y-3304070D01*
X37804969Y-3278983D01*
X37803141Y-3276373D01*
X37782327Y-3246646D01*
X37776423Y-3237378D01*
X37757239Y-3204151D01*
X37727833Y-3179476D01*
X37719730Y-3172050D01*
X37236910Y-2689230D01*
X37202884Y-2626918D01*
X37205429Y-2563560D01*
X37249901Y-2416958D01*
X37268315Y-2230000D01*
X37268315Y-2229999D01*
X37891684Y-2229999D01*
X37910098Y-2416953D01*
X37910098Y-2416955D01*
X37910099Y-2416958D01*
X37964632Y-2596731D01*
X37964633Y-2596733D01*
X38053191Y-2762414D01*
X38172368Y-2907631D01*
X38317585Y-3026808D01*
X38317589Y-3026810D01*
X38483269Y-3115368D01*
X38663042Y-3169901D01*
X38850000Y-3188315D01*
X39036958Y-3169901D01*
X39216731Y-3115368D01*
X39382411Y-3026810D01*
X39382412Y-3026808D01*
X39382414Y-3026808D01*
X39527631Y-2907631D01*
X39646808Y-2762414D01*
X39646810Y-2762411D01*
X39735368Y-2596731D01*
X39789901Y-2416958D01*
X39808315Y-2230000D01*
X39789901Y-2043042D01*
X39735368Y-1863269D01*
X39646810Y-1697589D01*
X39646808Y-1697585D01*
X39527631Y-1552368D01*
X39382414Y-1433191D01*
X39216733Y-1344633D01*
X39216732Y-1344632D01*
X39216731Y-1344632D01*
X39036958Y-1290099D01*
X39036955Y-1290098D01*
X39036953Y-1290098D01*
X38850000Y-1271684D01*
X38663046Y-1290098D01*
X38663043Y-1290098D01*
X38663042Y-1290099D01*
X38483269Y-1344632D01*
X38483266Y-1344633D01*
X38317585Y-1433191D01*
X38172368Y-1552368D01*
X38053191Y-1697585D01*
X37964633Y-1863266D01*
X37964632Y-1863268D01*
X37964632Y-1863269D01*
X37913255Y-2032640D01*
X37910098Y-2043046D01*
X37891684Y-2229999D01*
X37268315Y-2229999D01*
X37249901Y-2043042D01*
X37195368Y-1863269D01*
X37106810Y-1697589D01*
X37106808Y-1697585D01*
X36987631Y-1552368D01*
X36842414Y-1433191D01*
X36676733Y-1344633D01*
X36676732Y-1344632D01*
X36676731Y-1344632D01*
X36496958Y-1290099D01*
X36496955Y-1290098D01*
X36496953Y-1290098D01*
X36309999Y-1271684D01*
X36123046Y-1290098D01*
X36123043Y-1290098D01*
X36123042Y-1290099D01*
X35943269Y-1344632D01*
X35943266Y-1344633D01*
X35777585Y-1433191D01*
X35632368Y-1552368D01*
X35513191Y-1697585D01*
X35424633Y-1863266D01*
X35424632Y-1863268D01*
X35424632Y-1863269D01*
X35373255Y-2032640D01*
X35370098Y-2043046D01*
X35351684Y-2229999D01*
X35370098Y-2416953D01*
X35370098Y-2416955D01*
X35370099Y-2416958D01*
X35424632Y-2596731D01*
X35424633Y-2596733D01*
X35513191Y-2762414D01*
X35632368Y-2907631D01*
X35777585Y-3026808D01*
X35777589Y-3026810D01*
X35943269Y-3115368D01*
X36123042Y-3169901D01*
X36255194Y-3182917D01*
X36309999Y-3188315D01*
X36309999Y-3188314D01*
X36310000Y-3188315D01*
X36496958Y-3169901D01*
X36643560Y-3125429D01*
X36714553Y-3124797D01*
X36769230Y-3156910D01*
X37132395Y-3520075D01*
X37166421Y-3582387D01*
X37169300Y-3609170D01*
X37169300Y-3975055D01*
X37149298Y-4043176D01*
X37095642Y-4089669D01*
X37025368Y-4099773D01*
X36963367Y-4072455D01*
X36842410Y-3973189D01*
X36676733Y-3884633D01*
X36676732Y-3884632D01*
X36676731Y-3884632D01*
X36496958Y-3830099D01*
X36496955Y-3830098D01*
X36496953Y-3830098D01*
X36309999Y-3811684D01*
X36123046Y-3830098D01*
X36123043Y-3830098D01*
X36123042Y-3830099D01*
X35954771Y-3881143D01*
X35943266Y-3884633D01*
X35777585Y-3973191D01*
X35632370Y-4092366D01*
X35539260Y-4205821D01*
X35480583Y-4245790D01*
X35409612Y-4247690D01*
X35348879Y-4210919D01*
X35317775Y-4147764D01*
X35317509Y-4146253D01*
X35315551Y-4135149D01*
X35315549Y-4135147D01*
X35315360Y-4134070D01*
X35304969Y-4108983D01*
X35298520Y-4099773D01*
X35282327Y-4076646D01*
X35276423Y-4067378D01*
X35257239Y-4034151D01*
X35227833Y-4009476D01*
X35219730Y-4002050D01*
X34497948Y-3280268D01*
X34490522Y-3272165D01*
X34465849Y-3242761D01*
X34464782Y-3242145D01*
X34432610Y-3223570D01*
X34423353Y-3217672D01*
X34373718Y-3182917D01*
X34375316Y-3180634D01*
X34345654Y-3162553D01*
X34314636Y-3098691D01*
X34323068Y-3028197D01*
X34358959Y-2980402D01*
X34359455Y-2979995D01*
X34447631Y-2907631D01*
X34447632Y-2907629D01*
X34447634Y-2907628D01*
X34566808Y-2762414D01*
X34566810Y-2762411D01*
X34655368Y-2596731D01*
X34709901Y-2416958D01*
X34728315Y-2230000D01*
X34709901Y-2043042D01*
X34655368Y-1863269D01*
X34566810Y-1697589D01*
X34566808Y-1697585D01*
X34447631Y-1552368D01*
X34302414Y-1433191D01*
X34136733Y-1344633D01*
X34136732Y-1344632D01*
X34136731Y-1344632D01*
X33956958Y-1290099D01*
X33956955Y-1290098D01*
X33956953Y-1290098D01*
X33770000Y-1271684D01*
X33583046Y-1290098D01*
X33583043Y-1290098D01*
X33583042Y-1290099D01*
X33403269Y-1344632D01*
X33403266Y-1344633D01*
X33237585Y-1433191D01*
X33092368Y-1552368D01*
X32973191Y-1697585D01*
X32884633Y-1863266D01*
X32884632Y-1863268D01*
X32884632Y-1863269D01*
X32833255Y-2032640D01*
X32830098Y-2043046D01*
X32811684Y-2229999D01*
X32830098Y-2416953D01*
X32830098Y-2416955D01*
X32830099Y-2416958D01*
X32884632Y-2596731D01*
X32884633Y-2596733D01*
X32973191Y-2762414D01*
X33092366Y-2907629D01*
X33139000Y-2945901D01*
X33178968Y-3004578D01*
X33180869Y-3075549D01*
X33144098Y-3136281D01*
X33080330Y-3167493D01*
X33059066Y-3169300D01*
X32519949Y-3169300D01*
X32508968Y-3168821D01*
X32470730Y-3165475D01*
X32433672Y-3175405D01*
X32422945Y-3177783D01*
X32384078Y-3184637D01*
X32358975Y-3195034D01*
X32326648Y-3217669D01*
X32317386Y-3223570D01*
X32284153Y-3242759D01*
X32284151Y-3242760D01*
X32284151Y-3242761D01*
X32274655Y-3254078D01*
X32259476Y-3272166D01*
X32252052Y-3280266D01*
X31689229Y-3843089D01*
X31626917Y-3877115D01*
X31563559Y-3874569D01*
X31416955Y-3830098D01*
X31230000Y-3811684D01*
X31043046Y-3830098D01*
X31043043Y-3830098D01*
X31043042Y-3830099D01*
X30874771Y-3881143D01*
X30863266Y-3884633D01*
X30697585Y-3973191D01*
X30552368Y-4092368D01*
X30433191Y-4237585D01*
X30344633Y-4403266D01*
X30344632Y-4403268D01*
X30344632Y-4403269D01*
X30290100Y-4583041D01*
X30290098Y-4583046D01*
X30271684Y-4770000D01*
X29648315Y-4770000D01*
X29629901Y-4583042D01*
X29575368Y-4403269D01*
X29508003Y-4277238D01*
X29486808Y-4237585D01*
X29367631Y-4092368D01*
X29222414Y-3973191D01*
X29056733Y-3884633D01*
X29056732Y-3884632D01*
X29056731Y-3884632D01*
X28876958Y-3830099D01*
X28876955Y-3830098D01*
X28876953Y-3830098D01*
X28689999Y-3811684D01*
X28503046Y-3830098D01*
X28503043Y-3830098D01*
X28503042Y-3830099D01*
X28334771Y-3881143D01*
X28323266Y-3884633D01*
X28157585Y-3973191D01*
X28012368Y-4092368D01*
X27893191Y-4237585D01*
X27804633Y-4403266D01*
X27804632Y-4403268D01*
X27804632Y-4403269D01*
X27750100Y-4583041D01*
X27750098Y-4583046D01*
X27731684Y-4770000D01*
X27108315Y-4770000D01*
X27089901Y-4583042D01*
X27035368Y-4403269D01*
X26968003Y-4277238D01*
X26946808Y-4237585D01*
X26827631Y-4092368D01*
X26682414Y-3973191D01*
X26516733Y-3884633D01*
X26516732Y-3884632D01*
X26516731Y-3884632D01*
X26336958Y-3830099D01*
X26336955Y-3830098D01*
X26336953Y-3830098D01*
X26150000Y-3811684D01*
X25963046Y-3830098D01*
X25963043Y-3830098D01*
X25963042Y-3830099D01*
X25794771Y-3881143D01*
X25783266Y-3884633D01*
X25617585Y-3973191D01*
X25472368Y-4092368D01*
X25353191Y-4237585D01*
X25264633Y-4403266D01*
X25264632Y-4403268D01*
X25264632Y-4403269D01*
X25210100Y-4583041D01*
X25210098Y-4583046D01*
X25191684Y-4770000D01*
X24568315Y-4770000D01*
X24549901Y-4583042D01*
X24495368Y-4403269D01*
X24428003Y-4277238D01*
X24406808Y-4237585D01*
X24287631Y-4092368D01*
X24142414Y-3973191D01*
X23976733Y-3884633D01*
X23976732Y-3884632D01*
X23976731Y-3884632D01*
X23796958Y-3830099D01*
X23796955Y-3830098D01*
X23796953Y-3830098D01*
X23610000Y-3811684D01*
X23423046Y-3830098D01*
X23423043Y-3830098D01*
X23423042Y-3830099D01*
X23254771Y-3881143D01*
X23243266Y-3884633D01*
X23077585Y-3973191D01*
X22932368Y-4092368D01*
X22813191Y-4237585D01*
X22724633Y-4403266D01*
X22724632Y-4403268D01*
X22724632Y-4403269D01*
X22670100Y-4583041D01*
X22670098Y-4583046D01*
X22651684Y-4770000D01*
X22028315Y-4770000D01*
X22009901Y-4583042D01*
X21955368Y-4403269D01*
X21888003Y-4277238D01*
X21866808Y-4237585D01*
X21747631Y-4092368D01*
X21602414Y-3973191D01*
X21436733Y-3884633D01*
X21436732Y-3884632D01*
X21436731Y-3884632D01*
X21256958Y-3830099D01*
X21256955Y-3830098D01*
X21256953Y-3830098D01*
X21069999Y-3811684D01*
X20883046Y-3830098D01*
X20883043Y-3830098D01*
X20883042Y-3830099D01*
X20714771Y-3881143D01*
X20703266Y-3884633D01*
X20537585Y-3973191D01*
X20392368Y-4092368D01*
X20273191Y-4237585D01*
X20184633Y-4403266D01*
X20184632Y-4403268D01*
X20184632Y-4403269D01*
X20130100Y-4583041D01*
X20130098Y-4583046D01*
X20111684Y-4770000D01*
X19487812Y-4770000D01*
X19469408Y-4583139D01*
X19414903Y-4403462D01*
X19326392Y-4237867D01*
X19288551Y-4191759D01*
X18968154Y-4512155D01*
X18917869Y-4433910D01*
X18807470Y-4338248D01*
X18789599Y-4330086D01*
X19108238Y-4011447D01*
X19062130Y-3973607D01*
X18896536Y-3885096D01*
X18716860Y-3830591D01*
X18529999Y-3812187D01*
X18343139Y-3830591D01*
X18163463Y-3885096D01*
X17997869Y-3973607D01*
X17951759Y-4011447D01*
X18270399Y-4330087D01*
X18252530Y-4338248D01*
X18142131Y-4433910D01*
X18091845Y-4512156D01*
X17752338Y-4172649D01*
X17718312Y-4110337D01*
X17717180Y-4104067D01*
X17709542Y-4093323D01*
X17709106Y-4092369D01*
X17698478Y-4069096D01*
X17695039Y-4060792D01*
X17678367Y-4016094D01*
X17675981Y-4012906D01*
X17662241Y-3989748D01*
X17660589Y-3986131D01*
X17629356Y-3950086D01*
X17623713Y-3943083D01*
X17616040Y-3932834D01*
X17616039Y-3932833D01*
X17616037Y-3932830D01*
X17606978Y-3923771D01*
X17600860Y-3917199D01*
X17569618Y-3881143D01*
X17566269Y-3878991D01*
X17545296Y-3862089D01*
X16887911Y-3204704D01*
X16871008Y-3183729D01*
X16868858Y-3180384D01*
X16864756Y-3176830D01*
X16832796Y-3149136D01*
X16826226Y-3143019D01*
X16817170Y-3133963D01*
X16806907Y-3126281D01*
X16799912Y-3120643D01*
X16793824Y-3115368D01*
X16763869Y-3089411D01*
X16760247Y-3087756D01*
X16737094Y-3074019D01*
X16719407Y-3060780D01*
X16721474Y-3058018D01*
X16688539Y-3033361D01*
X16663731Y-2966840D01*
X16678825Y-2897467D01*
X16692003Y-2877932D01*
X16786810Y-2762411D01*
X16875368Y-2596731D01*
X16929901Y-2416958D01*
X16948315Y-2230000D01*
X16948315Y-2229999D01*
X17571684Y-2229999D01*
X17590098Y-2416953D01*
X17590098Y-2416955D01*
X17590099Y-2416958D01*
X17644632Y-2596731D01*
X17644633Y-2596733D01*
X17733191Y-2762414D01*
X17852368Y-2907631D01*
X17997585Y-3026808D01*
X17997589Y-3026810D01*
X18163269Y-3115368D01*
X18343042Y-3169901D01*
X18530000Y-3188315D01*
X18716958Y-3169901D01*
X18896731Y-3115368D01*
X19062411Y-3026810D01*
X19062412Y-3026808D01*
X19062414Y-3026808D01*
X19207631Y-2907631D01*
X19326808Y-2762414D01*
X19326810Y-2762411D01*
X19415368Y-2596731D01*
X19469901Y-2416958D01*
X19488315Y-2230000D01*
X19488315Y-2229999D01*
X20111684Y-2229999D01*
X20130098Y-2416953D01*
X20130098Y-2416955D01*
X20130099Y-2416958D01*
X20184632Y-2596731D01*
X20184633Y-2596733D01*
X20273191Y-2762414D01*
X20392368Y-2907631D01*
X20537585Y-3026808D01*
X20537589Y-3026810D01*
X20703269Y-3115368D01*
X20883042Y-3169901D01*
X21015194Y-3182917D01*
X21069999Y-3188315D01*
X21069999Y-3188314D01*
X21070000Y-3188315D01*
X21256958Y-3169901D01*
X21436731Y-3115368D01*
X21602411Y-3026810D01*
X21602412Y-3026808D01*
X21602414Y-3026808D01*
X21747631Y-2907631D01*
X21866808Y-2762414D01*
X21866810Y-2762411D01*
X21955368Y-2596731D01*
X22009901Y-2416958D01*
X22028315Y-2230000D01*
X22028315Y-2229999D01*
X22652187Y-2229999D01*
X22670591Y-2416860D01*
X22725096Y-2596536D01*
X22813607Y-2762130D01*
X22851447Y-2808238D01*
X23171843Y-2487841D01*
X23222131Y-2566090D01*
X23332530Y-2661752D01*
X23350398Y-2669912D01*
X23031759Y-2988551D01*
X23077867Y-3026392D01*
X23243462Y-3114903D01*
X23423139Y-3169408D01*
X23609999Y-3187812D01*
X23796860Y-3169408D01*
X23976537Y-3114903D01*
X24142132Y-3026392D01*
X24188239Y-2988552D01*
X23869600Y-2669912D01*
X23887470Y-2661752D01*
X23997869Y-2566090D01*
X24048155Y-2487842D01*
X24368552Y-2808238D01*
X24406392Y-2762132D01*
X24494903Y-2596537D01*
X24549408Y-2416860D01*
X24567812Y-2229999D01*
X25191684Y-2229999D01*
X25210098Y-2416953D01*
X25210098Y-2416955D01*
X25210099Y-2416958D01*
X25264632Y-2596731D01*
X25264633Y-2596733D01*
X25353191Y-2762414D01*
X25472368Y-2907631D01*
X25617585Y-3026808D01*
X25617589Y-3026810D01*
X25783269Y-3115368D01*
X25963042Y-3169901D01*
X26150000Y-3188315D01*
X26336958Y-3169901D01*
X26516731Y-3115368D01*
X26682411Y-3026810D01*
X26682412Y-3026808D01*
X26682414Y-3026808D01*
X26827631Y-2907631D01*
X26946808Y-2762414D01*
X26946810Y-2762411D01*
X27035368Y-2596731D01*
X27089901Y-2416958D01*
X27108315Y-2230000D01*
X27108315Y-2229999D01*
X27731684Y-2229999D01*
X27750098Y-2416953D01*
X27750098Y-2416955D01*
X27750099Y-2416958D01*
X27804632Y-2596731D01*
X27804633Y-2596733D01*
X27893191Y-2762414D01*
X28012368Y-2907631D01*
X28157585Y-3026808D01*
X28157589Y-3026810D01*
X28323269Y-3115368D01*
X28503042Y-3169901D01*
X28635194Y-3182917D01*
X28689999Y-3188315D01*
X28689999Y-3188314D01*
X28690000Y-3188315D01*
X28876958Y-3169901D01*
X29056731Y-3115368D01*
X29222411Y-3026810D01*
X29222412Y-3026808D01*
X29222414Y-3026808D01*
X29367631Y-2907631D01*
X29486808Y-2762414D01*
X29486810Y-2762411D01*
X29575368Y-2596731D01*
X29629901Y-2416958D01*
X29648315Y-2230000D01*
X29648315Y-2229999D01*
X30272187Y-2229999D01*
X30290591Y-2416860D01*
X30345096Y-2596536D01*
X30433607Y-2762130D01*
X30471447Y-2808238D01*
X30791843Y-2487841D01*
X30842131Y-2566090D01*
X30952530Y-2661752D01*
X30970398Y-2669912D01*
X30651759Y-2988551D01*
X30697867Y-3026392D01*
X30863462Y-3114903D01*
X31043139Y-3169408D01*
X31230000Y-3187812D01*
X31416860Y-3169408D01*
X31596537Y-3114903D01*
X31762132Y-3026392D01*
X31808239Y-2988552D01*
X31489600Y-2669912D01*
X31507470Y-2661752D01*
X31617869Y-2566090D01*
X31668155Y-2487842D01*
X31988552Y-2808238D01*
X32026392Y-2762132D01*
X32114903Y-2596537D01*
X32169408Y-2416860D01*
X32187812Y-2229999D01*
X32169408Y-2043139D01*
X32114903Y-1863462D01*
X32026392Y-1697867D01*
X31988551Y-1651759D01*
X31668154Y-1972155D01*
X31617869Y-1893910D01*
X31507470Y-1798248D01*
X31489599Y-1790086D01*
X31808238Y-1471447D01*
X31762130Y-1433607D01*
X31596536Y-1345096D01*
X31416860Y-1290591D01*
X31230000Y-1272187D01*
X31043139Y-1290591D01*
X30863463Y-1345096D01*
X30697869Y-1433607D01*
X30651760Y-1471447D01*
X30970399Y-1790087D01*
X30952530Y-1798248D01*
X30842131Y-1893910D01*
X30791845Y-1972156D01*
X30471448Y-1651760D01*
X30471447Y-1651760D01*
X30433607Y-1697869D01*
X30345096Y-1863463D01*
X30290591Y-2043139D01*
X30272187Y-2229999D01*
X29648315Y-2229999D01*
X29629901Y-2043042D01*
X29575368Y-1863269D01*
X29486810Y-1697589D01*
X29486808Y-1697585D01*
X29367631Y-1552368D01*
X29222414Y-1433191D01*
X29056733Y-1344633D01*
X29056732Y-1344632D01*
X29056731Y-1344632D01*
X28876958Y-1290099D01*
X28876955Y-1290098D01*
X28876953Y-1290098D01*
X28690000Y-1271684D01*
X28503046Y-1290098D01*
X28503043Y-1290098D01*
X28503042Y-1290099D01*
X28323269Y-1344632D01*
X28323266Y-1344633D01*
X28157585Y-1433191D01*
X28012368Y-1552368D01*
X27893191Y-1697585D01*
X27804633Y-1863266D01*
X27804632Y-1863268D01*
X27804632Y-1863269D01*
X27753255Y-2032640D01*
X27750098Y-2043046D01*
X27731684Y-2229999D01*
X27108315Y-2229999D01*
X27089901Y-2043042D01*
X27035368Y-1863269D01*
X26946810Y-1697589D01*
X26946808Y-1697585D01*
X26827631Y-1552368D01*
X26682414Y-1433191D01*
X26516733Y-1344633D01*
X26516732Y-1344632D01*
X26516731Y-1344632D01*
X26336958Y-1290099D01*
X26336955Y-1290098D01*
X26336953Y-1290098D01*
X26149999Y-1271684D01*
X25963046Y-1290098D01*
X25963043Y-1290098D01*
X25963042Y-1290099D01*
X25783269Y-1344632D01*
X25783266Y-1344633D01*
X25617585Y-1433191D01*
X25472368Y-1552368D01*
X25353191Y-1697585D01*
X25264633Y-1863266D01*
X25264632Y-1863268D01*
X25264632Y-1863269D01*
X25213255Y-2032640D01*
X25210098Y-2043046D01*
X25191684Y-2229999D01*
X24567812Y-2229999D01*
X24549408Y-2043139D01*
X24494903Y-1863462D01*
X24406392Y-1697867D01*
X24368551Y-1651759D01*
X24048154Y-1972155D01*
X23997869Y-1893910D01*
X23887470Y-1798248D01*
X23869599Y-1790086D01*
X24188239Y-1471447D01*
X24142130Y-1433607D01*
X23976536Y-1345096D01*
X23796860Y-1290591D01*
X23609999Y-1272187D01*
X23423139Y-1290591D01*
X23243463Y-1345096D01*
X23077869Y-1433607D01*
X23031760Y-1471447D01*
X23350399Y-1790087D01*
X23332530Y-1798248D01*
X23222131Y-1893910D01*
X23171844Y-1972156D01*
X22851448Y-1651760D01*
X22851447Y-1651760D01*
X22813607Y-1697869D01*
X22725096Y-1863463D01*
X22670591Y-2043139D01*
X22652187Y-2229999D01*
X22028315Y-2229999D01*
X22009901Y-2043042D01*
X21955368Y-1863269D01*
X21866810Y-1697589D01*
X21866808Y-1697585D01*
X21747631Y-1552368D01*
X21602414Y-1433191D01*
X21436733Y-1344633D01*
X21436732Y-1344632D01*
X21436731Y-1344632D01*
X21256958Y-1290099D01*
X21256955Y-1290098D01*
X21256953Y-1290098D01*
X21070000Y-1271684D01*
X20883046Y-1290098D01*
X20883043Y-1290098D01*
X20883042Y-1290099D01*
X20703269Y-1344632D01*
X20703266Y-1344633D01*
X20537585Y-1433191D01*
X20392368Y-1552368D01*
X20273191Y-1697585D01*
X20184633Y-1863266D01*
X20184632Y-1863268D01*
X20184632Y-1863269D01*
X20133255Y-2032640D01*
X20130098Y-2043046D01*
X20111684Y-2229999D01*
X19488315Y-2229999D01*
X19469901Y-2043042D01*
X19415368Y-1863269D01*
X19326810Y-1697589D01*
X19326808Y-1697585D01*
X19207631Y-1552368D01*
X19062414Y-1433191D01*
X18896733Y-1344633D01*
X18896732Y-1344632D01*
X18896731Y-1344632D01*
X18716958Y-1290099D01*
X18716955Y-1290098D01*
X18716953Y-1290098D01*
X18530000Y-1271684D01*
X18343046Y-1290098D01*
X18343043Y-1290098D01*
X18343042Y-1290099D01*
X18163269Y-1344632D01*
X18163266Y-1344633D01*
X17997585Y-1433191D01*
X17852368Y-1552368D01*
X17733191Y-1697585D01*
X17644633Y-1863266D01*
X17644632Y-1863268D01*
X17644632Y-1863269D01*
X17593255Y-2032640D01*
X17590098Y-2043046D01*
X17571684Y-2229999D01*
X16948315Y-2229999D01*
X16929901Y-2043042D01*
X16875368Y-1863269D01*
X16786810Y-1697589D01*
X16786808Y-1697585D01*
X16667631Y-1552368D01*
X16522414Y-1433191D01*
X16356733Y-1344633D01*
X16356732Y-1344632D01*
X16356731Y-1344632D01*
X16176958Y-1290099D01*
X16176955Y-1290098D01*
X16176953Y-1290098D01*
X15989999Y-1271684D01*
X15803046Y-1290098D01*
X15803043Y-1290098D01*
X15803042Y-1290099D01*
X15623269Y-1344632D01*
X15623266Y-1344633D01*
X15457585Y-1433191D01*
X15312368Y-1552368D01*
X15193191Y-1697585D01*
X15104633Y-1863266D01*
X15104632Y-1863268D01*
X15104632Y-1863269D01*
X15053255Y-2032640D01*
X15050098Y-2043046D01*
X15031684Y-2229999D01*
X15050098Y-2416953D01*
X15050098Y-2416955D01*
X15050099Y-2416958D01*
X15104632Y-2596731D01*
X15104633Y-2596733D01*
X15193189Y-2762410D01*
X15233038Y-2810966D01*
X15260792Y-2876313D01*
X15248810Y-2946292D01*
X15200898Y-2998684D01*
X15135639Y-3016900D01*
X14303714Y-3016900D01*
X14235593Y-2996898D01*
X14189100Y-2943242D01*
X14178996Y-2872968D01*
X14206315Y-2810966D01*
X14246392Y-2762132D01*
X14334903Y-2596537D01*
X14389408Y-2416860D01*
X14407812Y-2229999D01*
X14389408Y-2043139D01*
X14334903Y-1863462D01*
X14246392Y-1697867D01*
X14208551Y-1651759D01*
X13888154Y-1972155D01*
X13837869Y-1893910D01*
X13727470Y-1798248D01*
X13709599Y-1790086D01*
X14028239Y-1471447D01*
X13982130Y-1433607D01*
X13816536Y-1345096D01*
X13636860Y-1290591D01*
X13449999Y-1272187D01*
X13263139Y-1290591D01*
X13083463Y-1345096D01*
X12917869Y-1433607D01*
X12871760Y-1471447D01*
X13190399Y-1790087D01*
X13172530Y-1798248D01*
X13062131Y-1893910D01*
X13011844Y-1972157D01*
X12691447Y-1651760D01*
X12653607Y-1697869D01*
X12565096Y-1863463D01*
X12510591Y-2043139D01*
X12492187Y-2229999D01*
X12510591Y-2416860D01*
X12565096Y-2596537D01*
X12653607Y-2762132D01*
X12693685Y-2810966D01*
X12721439Y-2876313D01*
X12709457Y-2946292D01*
X12661545Y-2998684D01*
X12596286Y-3016900D01*
X12432297Y-3016900D01*
X12364176Y-2996898D01*
X12343201Y-2979995D01*
X11885787Y-2522580D01*
X11851762Y-2460268D01*
X11849490Y-2421135D01*
X11868315Y-2230000D01*
X11850555Y-2049687D01*
X11849901Y-2043042D01*
X11795368Y-1863269D01*
X11706810Y-1697589D01*
X11706808Y-1697585D01*
X11587631Y-1552368D01*
X11442414Y-1433191D01*
X11276733Y-1344633D01*
X11276732Y-1344632D01*
X11276731Y-1344632D01*
X11096958Y-1290099D01*
X11096955Y-1290098D01*
X11096953Y-1290098D01*
X10910000Y-1271684D01*
X10723046Y-1290098D01*
X10723043Y-1290098D01*
X10723042Y-1290099D01*
X10543269Y-1344632D01*
X10543266Y-1344633D01*
X10377585Y-1433191D01*
X10232368Y-1552368D01*
X10113191Y-1697585D01*
X10024633Y-1863266D01*
X10024632Y-1863268D01*
X10024632Y-1863269D01*
X9973255Y-2032640D01*
X9970098Y-2043046D01*
X9951684Y-2230000D01*
X9951981Y-2233014D01*
X9950746Y-2239524D01*
X9950468Y-2242350D01*
X9950215Y-2242325D01*
X9938752Y-2302767D01*
X9889911Y-2354295D01*
X9820966Y-2371238D01*
X9814963Y-2370826D01*
X9695626Y-2359768D01*
X9695616Y-2359767D01*
X9692729Y-2359500D01*
X9587271Y-2359500D01*
X9584384Y-2359767D01*
X9584373Y-2359768D01*
X9465036Y-2370826D01*
X9395361Y-2357194D01*
X9344115Y-2308057D01*
X9327571Y-2239015D01*
X9328015Y-2233044D01*
X9328315Y-2230000D01*
X9309901Y-2043042D01*
X9255368Y-1863269D01*
X9166810Y-1697589D01*
X9166808Y-1697585D01*
X9047631Y-1552368D01*
X8902414Y-1433191D01*
X8736733Y-1344633D01*
X8736732Y-1344632D01*
X8736731Y-1344632D01*
X8556958Y-1290099D01*
X8556955Y-1290098D01*
X8556953Y-1290098D01*
X8370000Y-1271684D01*
X8183046Y-1290098D01*
X8183043Y-1290098D01*
X8183042Y-1290099D01*
X8003269Y-1344632D01*
X8003266Y-1344633D01*
X7837585Y-1433191D01*
X7692368Y-1552368D01*
X7573191Y-1697585D01*
X7484633Y-1863266D01*
X7484632Y-1863268D01*
X7484632Y-1863269D01*
X7433255Y-2032640D01*
X7430098Y-2043046D01*
X7411684Y-2229999D01*
X7430098Y-2416953D01*
X7430098Y-2416955D01*
X7430099Y-2416958D01*
X7484632Y-2596731D01*
X7484633Y-2596733D01*
X7573191Y-2762414D01*
X7692368Y-2907631D01*
X7837585Y-3026808D01*
X7837589Y-3026810D01*
X8003269Y-3115368D01*
X8183042Y-3169901D01*
X8257825Y-3177266D01*
X8369994Y-3188315D01*
X8369996Y-3188314D01*
X8370000Y-3188315D01*
X8374107Y-3187910D01*
X8443859Y-3201136D01*
X8495390Y-3249974D01*
X8512336Y-3318918D01*
X8510316Y-3336455D01*
X8499500Y-3394317D01*
X8499500Y-3605682D01*
X8510316Y-3663544D01*
X8503171Y-3734180D01*
X8458972Y-3789741D01*
X8391751Y-3812585D01*
X8374113Y-3812089D01*
X8370002Y-3811684D01*
X8183046Y-3830098D01*
X8183043Y-3830098D01*
X8183042Y-3830099D01*
X8014771Y-3881143D01*
X8003266Y-3884633D01*
X7837585Y-3973191D01*
X7692368Y-4092368D01*
X7573191Y-4237585D01*
X7484633Y-4403266D01*
X7484632Y-4403268D01*
X7484632Y-4403269D01*
X7430100Y-4583041D01*
X7430098Y-4583046D01*
X7411684Y-4770000D01*
X6441609Y-4770000D01*
X6528684Y-4559782D01*
X6628298Y-4214014D01*
X6688572Y-3859266D01*
X6708748Y-3500000D01*
X6688572Y-3140734D01*
X6687815Y-3136281D01*
X6628889Y-2789464D01*
X6628888Y-2789462D01*
X6628298Y-2785986D01*
X6528684Y-2440218D01*
X6390982Y-2107776D01*
X6216925Y-1792843D01*
X6165424Y-1720260D01*
X6010735Y-1502246D01*
X6010734Y-1502245D01*
X6008700Y-1499378D01*
X5768927Y-1231073D01*
X5500622Y-991300D01*
X5497753Y-989264D01*
X5210040Y-785120D01*
X5210032Y-785115D01*
X5207157Y-783075D01*
X5204062Y-781364D01*
X5204055Y-781360D01*
X4895317Y-610727D01*
X4895310Y-610724D01*
X4892224Y-609018D01*
X4823053Y-580366D01*
X4563050Y-472669D01*
X4563039Y-472665D01*
X4559782Y-471316D01*
X4465639Y-444193D01*
X4217404Y-372678D01*
X4217393Y-372675D01*
X4214014Y-371702D01*
X4210550Y-371113D01*
X4210535Y-371110D01*
X3862750Y-312019D01*
X3862733Y-312017D01*
X3859266Y-311428D01*
X3855751Y-311230D01*
X3855737Y-311229D01*
X3696763Y-302302D01*
X3629871Y-278512D01*
X3586460Y-222333D01*
X3580312Y-151604D01*
X3613380Y-88778D01*
X3675164Y-53804D01*
X3703828Y-50500D01*
X57998310Y-50500D01*
X58066431Y-70502D01*
G37*
%TD.AperFunction*%
%TD*%
M02*
