%TF.GenerationSoftware,KiCad,Pcbnew,8.0.7*%
%TF.CreationDate,2025-01-01T14:13:32-08:00*%
%TF.ProjectId,pizero-papoe,70697a65-726f-42d7-9061-706f652e6b69,R1*%
%TF.SameCoordinates,PX652f520PY4a19ba0*%
%TF.FileFunction,Copper,L2,Inr*%
%TF.FilePolarity,Positive*%
%FSLAX46Y46*%
G04 Gerber Fmt 4.6, Leading zero omitted, Abs format (unit mm)*
G04 Created by KiCad (PCBNEW 8.0.7) date 2025-01-01 14:13:32*
%MOMM*%
%LPD*%
G01*
G04 APERTURE LIST*
G04 Aperture macros list*
%AMRoundRect*
0 Rectangle with rounded corners*
0 $1 Rounding radius*
0 $2 $3 $4 $5 $6 $7 $8 $9 X,Y pos of 4 corners*
0 Add a 4 corners polygon primitive as box body*
4,1,4,$2,$3,$4,$5,$6,$7,$8,$9,$2,$3,0*
0 Add four circle primitives for the rounded corners*
1,1,$1+$1,$2,$3*
1,1,$1+$1,$4,$5*
1,1,$1+$1,$6,$7*
1,1,$1+$1,$8,$9*
0 Add four rect primitives between the rounded corners*
20,1,$1+$1,$2,$3,$4,$5,0*
20,1,$1+$1,$4,$5,$6,$7,0*
20,1,$1+$1,$6,$7,$8,$9,0*
20,1,$1+$1,$8,$9,$2,$3,0*%
G04 Aperture macros list end*
%TA.AperFunction,ComponentPad*%
%ADD10C,1.700000*%
%TD*%
%TA.AperFunction,HeatsinkPad*%
%ADD11C,0.500000*%
%TD*%
%TA.AperFunction,ComponentPad*%
%ADD12RoundRect,0.250000X-0.500000X0.500000X-0.500000X-0.500000X0.500000X-0.500000X0.500000X0.500000X0*%
%TD*%
%TA.AperFunction,ComponentPad*%
%ADD13C,1.500000*%
%TD*%
%TA.AperFunction,ComponentPad*%
%ADD14O,2.800000X1.600000*%
%TD*%
%TA.AperFunction,ComponentPad*%
%ADD15R,2.000000X2.000000*%
%TD*%
%TA.AperFunction,ComponentPad*%
%ADD16C,2.000000*%
%TD*%
%TA.AperFunction,ComponentPad*%
%ADD17O,2.030000X1.000000*%
%TD*%
%TA.AperFunction,ViaPad*%
%ADD18C,0.609600*%
%TD*%
%TA.AperFunction,Conductor*%
%ADD19C,0.152400*%
%TD*%
%TA.AperFunction,Conductor*%
%ADD20C,0.254000*%
%TD*%
G04 APERTURE END LIST*
D10*
%TO.N,GND*%
%TO.C,J5*%
X47500000Y-27750000D03*
%TD*%
%TO.N,/A1_U2DN*%
%TO.C,J3*%
X40300000Y-28100000D03*
%TD*%
D11*
%TO.N,GND*%
%TO.C,IC1*%
X22200000Y-13200000D03*
X22200000Y-14233333D03*
X22200000Y-15266667D03*
X22200000Y-16300000D03*
X23233333Y-13200000D03*
X23233333Y-14233333D03*
X23233333Y-15266667D03*
X23233333Y-16300000D03*
X24266667Y-13200000D03*
X24266667Y-14233333D03*
X24266667Y-15266667D03*
X24266667Y-16300000D03*
X25300000Y-13200000D03*
X25300000Y-14233333D03*
X25300000Y-15266667D03*
X25300000Y-16300000D03*
%TD*%
D10*
%TO.N,/A1_U2DP*%
%TO.C,J4*%
X42450000Y-28100000D03*
%TD*%
%TO.N,GND*%
%TO.C,J1*%
X54100000Y-26300000D03*
%TD*%
D12*
%TO.N,/J6_DA_P*%
%TO.C,J6*%
X-8500000Y-11420000D03*
D13*
%TO.N,/J6_DA_N*%
X-10280000Y-12440000D03*
%TO.N,/J6_DB_P*%
X-8500000Y-13460000D03*
%TO.N,/J6_DC_P*%
X-10280000Y-14480000D03*
%TO.N,/J6_DC_N*%
X-8500000Y-15500000D03*
%TO.N,/J6_DB_N*%
X-10280000Y-16520000D03*
%TO.N,/J6_DD_P*%
X-8500000Y-17540000D03*
%TO.N,/J6_DD_N*%
X-10280000Y-18560000D03*
D10*
%TO.N,/J1_LED_GN_A*%
X-5230000Y-7980000D03*
%TO.N,/IC1_LED0_SPICSB*%
X-5230000Y-10520000D03*
%TO.N,/J1_LED_YL_A*%
X-5230000Y-19460000D03*
%TO.N,/IC1_LED1_SPISCK*%
X-5230000Y-22000000D03*
D14*
%TO.N,/J1_SH_C*%
X-13180000Y-6990000D03*
X-13180000Y-22990000D03*
%TD*%
D10*
%TO.N,/RPI_VBUS*%
%TO.C,J2*%
X53800000Y-23700000D03*
%TD*%
D15*
%TO.N,/POE_VP*%
%TO.C,C23*%
X34750000Y-15250000D03*
D16*
%TO.N,GND*%
X34750000Y-20250000D03*
%TD*%
D17*
%TO.N,/P1_SH*%
%TO.C,P1*%
X63750000Y-9775000D03*
X63750000Y-20225000D03*
%TD*%
D15*
%TO.N,/POE_VP*%
%TO.C,C24*%
X37250000Y-15250000D03*
D16*
%TO.N,GND*%
X37250000Y-20250000D03*
%TD*%
D18*
%TO.N,+1V0*%
X18250000Y-17000000D03*
X32000000Y-11750000D03*
X30529338Y-11992748D03*
X22150636Y-20212963D03*
X21902795Y-9033977D03*
X27250000Y-20250000D03*
X18250000Y-12500000D03*
X25574290Y-9068443D03*
%TO.N,/J1_SH_C*%
X-500000Y-20500000D03*
X2250000Y-12000000D03*
X-500000Y-17500000D03*
X7512000Y-7750000D03*
X-1500000Y-11500000D03*
X7512000Y-22250000D03*
X-1750000Y-15000000D03*
X2250000Y-14000000D03*
%TO.N,GND*%
X19250000Y-25750000D03*
X26500000Y-22000000D03*
X33241998Y-15250000D03*
X29250000Y-14000000D03*
X40000000Y-6000000D03*
X10500000Y-22250000D03*
X41000000Y-2250000D03*
X23750000Y-2750000D03*
X27750000Y-2750000D03*
X30000000Y-22000000D03*
X13250000Y-2750000D03*
X47000000Y-22250000D03*
X14750000Y-26750000D03*
X51230243Y-16252288D03*
X22000000Y-24750000D03*
X47000000Y-1500000D03*
X60250000Y-10600000D03*
X14750000Y-24750000D03*
X41000000Y-5250000D03*
X52250000Y-13500000D03*
X57000000Y-8750000D03*
X59500000Y-21500000D03*
X22500000Y-22000000D03*
X51221621Y-15496307D03*
X16500000Y-28250000D03*
X32500000Y-17000000D03*
X51250000Y-18000000D03*
X15000000Y-1500000D03*
X46250000Y-11250000D03*
X59500000Y-8500000D03*
X10500000Y-7750000D03*
X53500000Y-15750000D03*
X41750000Y-18500000D03*
X36250000Y-1250000D03*
X19750000Y-22000000D03*
X14000000Y-26750000D03*
X40000000Y-3750000D03*
X16000000Y-26000000D03*
X19000000Y-7500000D03*
X41750000Y-5250000D03*
X14750000Y-750000D03*
X40000000Y-6750000D03*
X19000000Y-22500000D03*
X52000000Y-9750000D03*
X-9250000Y-4000000D03*
X14000000Y-750000D03*
X15500000Y-26750000D03*
X36750000Y-750000D03*
X34000000Y-13741998D03*
X15500000Y-7250000D03*
X46250000Y-1500000D03*
X39750000Y-750000D03*
X16750000Y-17000000D03*
X26750000Y-7500000D03*
X47750000Y-11250000D03*
X14000000Y-2750000D03*
X16750000Y-12500000D03*
X16500000Y-29250000D03*
X20750000Y-7500000D03*
X30750000Y-18500000D03*
X42750000Y-19500000D03*
X13250000Y-750000D03*
X28250000Y-22000000D03*
X59250000Y-11250000D03*
X59250000Y-18650000D03*
X40250000Y-2250000D03*
X21750000Y-2750000D03*
X45500000Y-1500000D03*
X40000000Y-7500000D03*
X48750000Y-22250000D03*
X37500000Y-28250000D03*
X23000000Y-25750000D03*
X39750000Y-1500000D03*
X40000000Y-4500000D03*
X40250000Y-5250000D03*
X25000000Y-7500000D03*
X61000000Y-20000000D03*
X50750000Y-27250000D03*
X41750000Y-2250000D03*
X45500000Y-11250000D03*
X33500000Y-10250000D03*
X60250000Y-19250000D03*
X58650000Y-14600000D03*
X22500000Y-7500000D03*
X47000000Y-11250000D03*
X18250000Y-24750000D03*
X52750000Y-10250000D03*
X57000000Y-10750000D03*
X30000000Y-504800D03*
X51500000Y-13500000D03*
X40000000Y-3000000D03*
X27331000Y-17000000D03*
X25750000Y-2750000D03*
X31750000Y-22000000D03*
X19750000Y-2750000D03*
X37500000Y-29250000D03*
X14000000Y-24750000D03*
%TO.N,/P1_U3SSRX_P*%
X23278388Y-25028388D03*
%TO.N,/RPI_VBUS*%
X46500000Y-24500000D03*
%TO.N,/P1_U3SSRX_N*%
X22721612Y-24471612D03*
%TO.N,/P1_U3SSTX_P*%
X19528388Y-25028388D03*
%TO.N,/P1_U3SSTX_N*%
X18971612Y-24471612D03*
%TO.N,/J1_LED_OR_A*%
X13000000Y-24250000D03*
X-6750000Y-24750000D03*
%TO.N,/IC1_EED0_LED2*%
X29397302Y-15415190D03*
X-7250000Y-24000000D03*
X34250000Y-9250000D03*
%TO.N,/IC1_LED1_SPISCK*%
X32282500Y-8282500D03*
X32250000Y-5500000D03*
%TO.N,/IC1_LED0_SPICSB*%
X26500000Y-11000000D03*
%TO.N,/IC1_EEDI_ENSWREG*%
X33500000Y-8500000D03*
X27256408Y-14843135D03*
X33500000Y-5500000D03*
%TO.N,+5V*%
X50250000Y-1500000D03*
X54170770Y-14610723D03*
X48750000Y-1500000D03*
X54500000Y-20000000D03*
X51750000Y-1500000D03*
X56500000Y-20000000D03*
X60300000Y-13700000D03*
X54500000Y-18500000D03*
X52500000Y-1500000D03*
X53500000Y-22000000D03*
X54500000Y-19250000D03*
X57250000Y-19250000D03*
X58000000Y-18500000D03*
X56500000Y-19250000D03*
X53250000Y-1500000D03*
X51000000Y-1500000D03*
X56500000Y-18500000D03*
X49500000Y-1500000D03*
X53750000Y-2000000D03*
X57250000Y-18500000D03*
X48250000Y-2000000D03*
%TO.N,+3V3*%
X29000000Y-20250000D03*
X35250000Y-12000000D03*
X44000000Y-24750000D03*
X30750000Y-1000000D03*
X17500000Y-19750000D03*
X18500000Y-19750000D03*
X28250000Y-7500000D03*
X18250000Y-10000000D03*
X28750000Y-14660572D03*
X38750000Y-20000000D03*
X35250000Y-9250000D03*
X27370627Y-7957242D03*
X30750000Y-15500000D03*
X19997492Y-9416874D03*
%TO.N,/U2_L1*%
X43999986Y-13750000D03*
X42500000Y-13750000D03*
X44250000Y-12250000D03*
X41000000Y-13750000D03*
X44250000Y-13000000D03*
X41750000Y-13750000D03*
%TO.N,/U2_L2*%
X41750000Y-8750000D03*
X48750000Y-9750000D03*
X44000044Y-8750000D03*
X42500000Y-8750000D03*
X47750000Y-9749998D03*
X44250000Y-9500000D03*
X44250000Y-10250000D03*
X48250000Y-10500000D03*
X41000000Y-8750000D03*
%TO.N,/J1_LED_GN_A*%
X29750000Y-7500000D03*
%TO.N,/J1_LED_YL_A*%
X15250000Y-22500000D03*
%TO.N,/P1_U2DP*%
X42028388Y-19778388D03*
%TO.N,/P1_U2DN*%
X41471612Y-19221612D03*
%TO.N,/J6_DB_P*%
X2945654Y-12600900D03*
%TO.N,/J6_DB_N*%
X2945654Y-13439100D03*
%TO.N,/POE_VP_F*%
X11500000Y-4250000D03*
X-1750000Y-6000000D03*
%TD*%
D19*
%TO.N,/J1_SH_C*%
X-6500000Y-6500000D02*
X-3250000Y-6500000D01*
X2250000Y-12000000D02*
X2250000Y-14000000D01*
X-6990000Y-6990000D02*
X-6500000Y-6500000D01*
X-3250000Y-6500000D02*
X2250000Y-12000000D01*
X-13180000Y-6990000D02*
X-6990000Y-6990000D01*
%TO.N,GND*%
X22000000Y-24750000D02*
X23000000Y-25750000D01*
D20*
X37250000Y-20250000D02*
X39000000Y-18500000D01*
D19*
X10500000Y-7750000D02*
X14000000Y-7750000D01*
X22000000Y-23250000D02*
X22000000Y-24750000D01*
X22500000Y-22750000D02*
X22000000Y-23250000D01*
X22500000Y-22000000D02*
X22500000Y-22750000D01*
D20*
X39000000Y-18500000D02*
X41750000Y-18500000D01*
X41750000Y-18500000D02*
X42750000Y-19500000D01*
D19*
X10500000Y-22250000D02*
X13750000Y-22250000D01*
%TO.N,+5V*%
X54500000Y-19250000D02*
X54500000Y-18500000D01*
X57250000Y-18500000D02*
X58000000Y-18500000D01*
X56500000Y-19250000D02*
X56500000Y-18500000D01*
X56500000Y-20000000D02*
X56500000Y-19250000D01*
X54500000Y-21000000D02*
X54500000Y-20000000D01*
X56500000Y-18500000D02*
X57250000Y-18500000D01*
X56500000Y-19250000D02*
X57250000Y-19250000D01*
X53500000Y-22000000D02*
X54500000Y-21000000D01*
X54500000Y-20000000D02*
X54500000Y-19250000D01*
%TO.N,+3V3*%
X39250000Y-21250000D02*
X39250000Y-21500000D01*
X41000000Y-21500000D02*
X41500000Y-21500000D01*
X38750000Y-20000000D02*
X39250000Y-20500000D01*
X39250000Y-20500000D02*
X39250000Y-21250000D01*
X44000000Y-23750000D02*
X44000000Y-24750000D01*
X40500000Y-22000000D02*
X41000000Y-21500000D01*
X41500000Y-21500000D02*
X41750000Y-21500000D01*
X43500000Y-23250000D02*
X44000000Y-23750000D01*
X39750000Y-22000000D02*
X40500000Y-22000000D01*
X41750000Y-21500000D02*
X43500000Y-23250000D01*
X39250000Y-21500000D02*
X39750000Y-22000000D01*
%TD*%
%TA.AperFunction,Conductor*%
%TO.N,/U2_L1*%
G36*
X49223138Y-11517593D02*
G01*
X49248858Y-11562142D01*
X49250000Y-11575200D01*
X49250000Y-12718852D01*
X49232407Y-12767190D01*
X49227974Y-12772026D01*
X48522026Y-13477974D01*
X48475406Y-13499714D01*
X48468852Y-13500000D01*
X45250000Y-13500000D01*
X44522026Y-14227974D01*
X44475406Y-14249714D01*
X44468852Y-14250000D01*
X40031148Y-14250000D01*
X39982810Y-14232407D01*
X39977974Y-14227974D01*
X39522026Y-13772026D01*
X39500286Y-13725406D01*
X39500000Y-13718852D01*
X39500000Y-12031148D01*
X39517593Y-11982810D01*
X39522026Y-11977974D01*
X39727974Y-11772026D01*
X39774594Y-11750286D01*
X39781148Y-11750000D01*
X45249999Y-11750000D01*
X45250000Y-11750000D01*
X45292956Y-11707043D01*
X45339574Y-11685303D01*
X45367314Y-11688062D01*
X45434193Y-11707700D01*
X45434196Y-11707700D01*
X45565804Y-11707700D01*
X45565807Y-11707700D01*
X45692091Y-11670620D01*
X45802808Y-11599467D01*
X45802808Y-11599466D01*
X45802812Y-11599464D01*
X45818169Y-11581740D01*
X45863117Y-11556732D01*
X45913628Y-11566466D01*
X45931828Y-11581738D01*
X45947188Y-11599464D01*
X45947191Y-11599467D01*
X46057908Y-11670620D01*
X46107915Y-11685303D01*
X46184193Y-11707700D01*
X46184196Y-11707700D01*
X46315804Y-11707700D01*
X46315807Y-11707700D01*
X46442091Y-11670620D01*
X46552808Y-11599467D01*
X46552808Y-11599466D01*
X46552812Y-11599464D01*
X46568169Y-11581740D01*
X46613117Y-11556732D01*
X46663628Y-11566466D01*
X46681828Y-11581738D01*
X46697188Y-11599464D01*
X46697191Y-11599467D01*
X46807908Y-11670620D01*
X46857915Y-11685303D01*
X46934193Y-11707700D01*
X46934196Y-11707700D01*
X47065804Y-11707700D01*
X47065807Y-11707700D01*
X47192091Y-11670620D01*
X47302808Y-11599467D01*
X47302808Y-11599466D01*
X47302812Y-11599464D01*
X47318169Y-11581740D01*
X47363117Y-11556732D01*
X47413628Y-11566466D01*
X47431828Y-11581738D01*
X47447188Y-11599464D01*
X47447191Y-11599467D01*
X47557908Y-11670620D01*
X47607915Y-11685303D01*
X47684193Y-11707700D01*
X47684196Y-11707700D01*
X47815804Y-11707700D01*
X47815807Y-11707700D01*
X47942091Y-11670620D01*
X48052808Y-11599467D01*
X48052808Y-11599466D01*
X48052812Y-11599464D01*
X48116509Y-11525953D01*
X48161460Y-11500945D01*
X48173341Y-11500000D01*
X49174800Y-11500000D01*
X49223138Y-11517593D01*
G37*
%TD.AperFunction*%
%TD*%
%TA.AperFunction,Conductor*%
%TO.N,/U2_L2*%
G36*
X44517190Y-8267593D02*
G01*
X44522026Y-8272026D01*
X45250000Y-9000000D01*
X46750000Y-9000000D01*
X48250000Y-9000000D01*
X48468852Y-9000000D01*
X48517190Y-9017593D01*
X48522026Y-9022026D01*
X49227974Y-9727974D01*
X49249714Y-9774594D01*
X49250000Y-9781148D01*
X49250000Y-10924800D01*
X49232407Y-10973138D01*
X49187858Y-10998858D01*
X49174800Y-11000000D01*
X48173341Y-11000000D01*
X48125003Y-10982407D01*
X48116509Y-10974046D01*
X48068167Y-10918257D01*
X48052812Y-10900536D01*
X48052810Y-10900535D01*
X48052808Y-10900532D01*
X47942091Y-10829379D01*
X47815809Y-10792300D01*
X47815807Y-10792300D01*
X47684193Y-10792300D01*
X47684190Y-10792300D01*
X47557908Y-10829379D01*
X47447190Y-10900533D01*
X47447188Y-10900535D01*
X47431832Y-10918257D01*
X47386881Y-10943267D01*
X47336371Y-10933531D01*
X47318168Y-10918257D01*
X47302811Y-10900535D01*
X47302809Y-10900533D01*
X47192091Y-10829379D01*
X47065809Y-10792300D01*
X47065807Y-10792300D01*
X46934193Y-10792300D01*
X46934190Y-10792300D01*
X46807908Y-10829379D01*
X46697190Y-10900533D01*
X46697188Y-10900535D01*
X46681832Y-10918257D01*
X46636881Y-10943267D01*
X46586371Y-10933531D01*
X46568168Y-10918257D01*
X46552811Y-10900535D01*
X46552809Y-10900533D01*
X46442091Y-10829379D01*
X46315809Y-10792300D01*
X46315807Y-10792300D01*
X46184193Y-10792300D01*
X46184190Y-10792300D01*
X46057908Y-10829379D01*
X45947190Y-10900533D01*
X45947188Y-10900535D01*
X45931832Y-10918257D01*
X45886881Y-10943267D01*
X45836371Y-10933531D01*
X45818168Y-10918257D01*
X45802811Y-10900535D01*
X45802809Y-10900533D01*
X45692091Y-10829379D01*
X45565809Y-10792300D01*
X45565807Y-10792300D01*
X45434193Y-10792300D01*
X45367315Y-10811936D01*
X45315979Y-10808673D01*
X45292956Y-10792956D01*
X45250000Y-10750000D01*
X39781148Y-10750000D01*
X39732810Y-10732407D01*
X39727974Y-10727974D01*
X39522026Y-10522026D01*
X39500286Y-10475406D01*
X39500000Y-10468852D01*
X39500000Y-8781148D01*
X39517593Y-8732810D01*
X39522026Y-8727974D01*
X39977974Y-8272026D01*
X40024594Y-8250286D01*
X40031148Y-8250000D01*
X44468852Y-8250000D01*
X44517190Y-8267593D01*
G37*
%TD.AperFunction*%
%TD*%
%TA.AperFunction,Conductor*%
%TO.N,+5V*%
G36*
X53517190Y-1017593D02*
G01*
X53522026Y-1022026D01*
X60727974Y-8227974D01*
X60749714Y-8274594D01*
X60750000Y-8281148D01*
X60750000Y-10276484D01*
X60732407Y-10324822D01*
X60687858Y-10350542D01*
X60637200Y-10341609D01*
X60617968Y-10325730D01*
X60552812Y-10250536D01*
X60552810Y-10250535D01*
X60552808Y-10250532D01*
X60442091Y-10179379D01*
X60315809Y-10142300D01*
X60315807Y-10142300D01*
X60184193Y-10142300D01*
X60184190Y-10142300D01*
X60057908Y-10179379D01*
X59947191Y-10250532D01*
X59861000Y-10350001D01*
X59860995Y-10350009D01*
X59806325Y-10469719D01*
X59806325Y-10469721D01*
X59806324Y-10469723D01*
X59806324Y-10469725D01*
X59787593Y-10600000D01*
X59806324Y-10730275D01*
X59806324Y-10730276D01*
X59806325Y-10730278D01*
X59806325Y-10730280D01*
X59851583Y-10829380D01*
X59860998Y-10849996D01*
X59926393Y-10925466D01*
X59947191Y-10949467D01*
X60057908Y-11020620D01*
X60147742Y-11046997D01*
X60184193Y-11057700D01*
X60184196Y-11057700D01*
X60315804Y-11057700D01*
X60315807Y-11057700D01*
X60442091Y-11020620D01*
X60552810Y-10949466D01*
X60552811Y-10949465D01*
X60552812Y-10949464D01*
X60617968Y-10874269D01*
X60662918Y-10849260D01*
X60713428Y-10858995D01*
X60745864Y-10898919D01*
X60750000Y-10923515D01*
X60750000Y-16468851D01*
X60732407Y-16517189D01*
X60727974Y-16522025D01*
X58959272Y-18290726D01*
X58948335Y-18299541D01*
X58947186Y-18300536D01*
X58934165Y-18315563D01*
X58930510Y-18319488D01*
X56772026Y-20477974D01*
X56725406Y-20499714D01*
X56718852Y-20500000D01*
X54281148Y-20500000D01*
X54232810Y-20482407D01*
X54227974Y-20477974D01*
X54022026Y-20272026D01*
X54000286Y-20225406D01*
X54000000Y-20218852D01*
X54000000Y-14600000D01*
X58187593Y-14600000D01*
X58206324Y-14730275D01*
X58206324Y-14730276D01*
X58206325Y-14730278D01*
X58206325Y-14730280D01*
X58260995Y-14849990D01*
X58260998Y-14849996D01*
X58261000Y-14849998D01*
X58347191Y-14949467D01*
X58457908Y-15020620D01*
X58547742Y-15046997D01*
X58584193Y-15057700D01*
X58584196Y-15057700D01*
X58715804Y-15057700D01*
X58715807Y-15057700D01*
X58842091Y-15020620D01*
X58952808Y-14949467D01*
X58952808Y-14949466D01*
X58952812Y-14949464D01*
X59039002Y-14849996D01*
X59093676Y-14730275D01*
X59112407Y-14600000D01*
X59093676Y-14469725D01*
X59093674Y-14469720D01*
X59093674Y-14469719D01*
X59039004Y-14350009D01*
X59039002Y-14350004D01*
X58952812Y-14250536D01*
X58952810Y-14250535D01*
X58952808Y-14250532D01*
X58842091Y-14179379D01*
X58715809Y-14142300D01*
X58715807Y-14142300D01*
X58584193Y-14142300D01*
X58584190Y-14142300D01*
X58457908Y-14179379D01*
X58347191Y-14250532D01*
X58261000Y-14350001D01*
X58260995Y-14350009D01*
X58206325Y-14469719D01*
X58206325Y-14469721D01*
X58206324Y-14469723D01*
X58206324Y-14469725D01*
X58187593Y-14600000D01*
X54000000Y-14600000D01*
X54000000Y-11250000D01*
X58787593Y-11250000D01*
X58806324Y-11380275D01*
X58806324Y-11380276D01*
X58806325Y-11380278D01*
X58806325Y-11380280D01*
X58860995Y-11499990D01*
X58860998Y-11499996D01*
X58861000Y-11499998D01*
X58947191Y-11599467D01*
X59057908Y-11670620D01*
X59147742Y-11696997D01*
X59184193Y-11707700D01*
X59184196Y-11707700D01*
X59315804Y-11707700D01*
X59315807Y-11707700D01*
X59442091Y-11670620D01*
X59552808Y-11599467D01*
X59552808Y-11599466D01*
X59552812Y-11599464D01*
X59639002Y-11499996D01*
X59693676Y-11380275D01*
X59712407Y-11250000D01*
X59693676Y-11119725D01*
X59693674Y-11119720D01*
X59693674Y-11119719D01*
X59639004Y-11000009D01*
X59639002Y-11000004D01*
X59552812Y-10900536D01*
X59552810Y-10900535D01*
X59552808Y-10900532D01*
X59442091Y-10829379D01*
X59315809Y-10792300D01*
X59315807Y-10792300D01*
X59184193Y-10792300D01*
X59184190Y-10792300D01*
X59057908Y-10829379D01*
X58947191Y-10900532D01*
X58861000Y-11000001D01*
X58860995Y-11000009D01*
X58806325Y-11119719D01*
X58806325Y-11119721D01*
X58806324Y-11119723D01*
X58806324Y-11119725D01*
X58787593Y-11250000D01*
X54000000Y-11250000D01*
X54000000Y-10750000D01*
X56537593Y-10750000D01*
X56556324Y-10880275D01*
X56556324Y-10880276D01*
X56556325Y-10880278D01*
X56556325Y-10880280D01*
X56610995Y-10999990D01*
X56610998Y-10999996D01*
X56660998Y-11057699D01*
X56697191Y-11099467D01*
X56807908Y-11170620D01*
X56897742Y-11196997D01*
X56934193Y-11207700D01*
X56934196Y-11207700D01*
X57065804Y-11207700D01*
X57065807Y-11207700D01*
X57192091Y-11170620D01*
X57302808Y-11099467D01*
X57302808Y-11099466D01*
X57302812Y-11099464D01*
X57389002Y-10999996D01*
X57443676Y-10880275D01*
X57462407Y-10750000D01*
X57443676Y-10619725D01*
X57443674Y-10619720D01*
X57443674Y-10619719D01*
X57389004Y-10500009D01*
X57389002Y-10500004D01*
X57302812Y-10400536D01*
X57302810Y-10400535D01*
X57302808Y-10400532D01*
X57192091Y-10329379D01*
X57065809Y-10292300D01*
X57065807Y-10292300D01*
X56934193Y-10292300D01*
X56934190Y-10292300D01*
X56807908Y-10329379D01*
X56697191Y-10400532D01*
X56611000Y-10500001D01*
X56610995Y-10500009D01*
X56556325Y-10619719D01*
X56556325Y-10619721D01*
X56556324Y-10619723D01*
X56556324Y-10619725D01*
X56537593Y-10750000D01*
X54000000Y-10750000D01*
X54000000Y-8750000D01*
X56537593Y-8750000D01*
X56556324Y-8880275D01*
X56556324Y-8880276D01*
X56556325Y-8880278D01*
X56556325Y-8880280D01*
X56591682Y-8957700D01*
X56610998Y-8999996D01*
X56611000Y-8999998D01*
X56697191Y-9099467D01*
X56807908Y-9170620D01*
X56897742Y-9196997D01*
X56934193Y-9207700D01*
X56934196Y-9207700D01*
X57065804Y-9207700D01*
X57065807Y-9207700D01*
X57192091Y-9170620D01*
X57302808Y-9099467D01*
X57302808Y-9099466D01*
X57302812Y-9099464D01*
X57389002Y-8999996D01*
X57443676Y-8880275D01*
X57462407Y-8750000D01*
X57443676Y-8619725D01*
X57443674Y-8619720D01*
X57443674Y-8619719D01*
X57389004Y-8500009D01*
X57389002Y-8500004D01*
X57388999Y-8500000D01*
X59037593Y-8500000D01*
X59056324Y-8630275D01*
X59056324Y-8630276D01*
X59056325Y-8630278D01*
X59056325Y-8630280D01*
X59110995Y-8749990D01*
X59110998Y-8749996D01*
X59111001Y-8750000D01*
X59197191Y-8849467D01*
X59307908Y-8920620D01*
X59397742Y-8946997D01*
X59434193Y-8957700D01*
X59434196Y-8957700D01*
X59565804Y-8957700D01*
X59565807Y-8957700D01*
X59692091Y-8920620D01*
X59802808Y-8849467D01*
X59802808Y-8849466D01*
X59802812Y-8849464D01*
X59889002Y-8749996D01*
X59943676Y-8630275D01*
X59962407Y-8500000D01*
X59943676Y-8369725D01*
X59943674Y-8369720D01*
X59943674Y-8369719D01*
X59889004Y-8250009D01*
X59889002Y-8250004D01*
X59802812Y-8150536D01*
X59802810Y-8150535D01*
X59802808Y-8150532D01*
X59692091Y-8079379D01*
X59565809Y-8042300D01*
X59565807Y-8042300D01*
X59434193Y-8042300D01*
X59434190Y-8042300D01*
X59307908Y-8079379D01*
X59197191Y-8150532D01*
X59111000Y-8250001D01*
X59110995Y-8250009D01*
X59056325Y-8369719D01*
X59056325Y-8369721D01*
X59056324Y-8369723D01*
X59056324Y-8369725D01*
X59037593Y-8500000D01*
X57388999Y-8500000D01*
X57302812Y-8400536D01*
X57302810Y-8400535D01*
X57302808Y-8400532D01*
X57192091Y-8329379D01*
X57065809Y-8292300D01*
X57065807Y-8292300D01*
X56934193Y-8292300D01*
X56934190Y-8292300D01*
X56807908Y-8329379D01*
X56697191Y-8400532D01*
X56611000Y-8500001D01*
X56610995Y-8500009D01*
X56556325Y-8619719D01*
X56556325Y-8619721D01*
X56556324Y-8619723D01*
X56556324Y-8619725D01*
X56537593Y-8750000D01*
X54000000Y-8750000D01*
X54000000Y-8500000D01*
X48022026Y-2522026D01*
X48000286Y-2475406D01*
X48000000Y-2468852D01*
X48000000Y-1531148D01*
X48017593Y-1482810D01*
X48022026Y-1477974D01*
X48477974Y-1022026D01*
X48524594Y-1000286D01*
X48531148Y-1000000D01*
X53468852Y-1000000D01*
X53517190Y-1017593D01*
G37*
%TD.AperFunction*%
%TD*%
%TA.AperFunction,Conductor*%
%TO.N,GND*%
G36*
X60303183Y-10356104D02*
G01*
X60337122Y-10366069D01*
X60369741Y-10380965D01*
X60399496Y-10400086D01*
X60426599Y-10423572D01*
X60460236Y-10462392D01*
X60460242Y-10462397D01*
X60460243Y-10462399D01*
X60472351Y-10474222D01*
X60485091Y-10486663D01*
X60485094Y-10486666D01*
X60505950Y-10503886D01*
X60505547Y-10504374D01*
X60545817Y-10559786D01*
X60549879Y-10630667D01*
X60514976Y-10692491D01*
X60506601Y-10699938D01*
X60460241Y-10737601D01*
X60460236Y-10737606D01*
X60426595Y-10776429D01*
X60399496Y-10799911D01*
X60387692Y-10807496D01*
X60369742Y-10819032D01*
X60337123Y-10833930D01*
X60303184Y-10843896D01*
X60267684Y-10849000D01*
X60232317Y-10849000D01*
X60196820Y-10843896D01*
X60162878Y-10833930D01*
X60130254Y-10819032D01*
X60100500Y-10799910D01*
X60073400Y-10776428D01*
X60050235Y-10749695D01*
X60030847Y-10719525D01*
X60016154Y-10687351D01*
X60006051Y-10652945D01*
X60001017Y-10617929D01*
X60001018Y-10582068D01*
X60006053Y-10547050D01*
X60016155Y-10512642D01*
X60016878Y-10511059D01*
X60030847Y-10480471D01*
X60050233Y-10450306D01*
X60073402Y-10423567D01*
X60100499Y-10400087D01*
X60130258Y-10380963D01*
X60162871Y-10366070D01*
X60196820Y-10356102D01*
X60232312Y-10351000D01*
X60267686Y-10351000D01*
X60303183Y-10356104D01*
G37*
%TD.AperFunction*%
%TA.AperFunction,Conductor*%
G36*
X46303178Y-11006102D02*
G01*
X46337121Y-11016068D01*
X46369740Y-11030965D01*
X46405901Y-11054204D01*
X46426165Y-11070401D01*
X46434019Y-11078131D01*
X46452222Y-11093405D01*
X46461867Y-11101026D01*
X46538511Y-11134778D01*
X46592791Y-11180538D01*
X46613716Y-11248381D01*
X46594641Y-11316767D01*
X46541621Y-11363984D01*
X46522957Y-11371066D01*
X46511650Y-11374358D01*
X46511645Y-11374360D01*
X46466704Y-11399364D01*
X46466691Y-11399373D01*
X46428805Y-11430152D01*
X46417480Y-11438353D01*
X46369745Y-11469031D01*
X46337123Y-11483930D01*
X46303184Y-11493896D01*
X46267684Y-11499000D01*
X46232313Y-11499000D01*
X46196817Y-11493896D01*
X46181893Y-11489514D01*
X46181892Y-11489514D01*
X46166711Y-11485056D01*
X46162872Y-11483928D01*
X46130254Y-11469032D01*
X46094099Y-11445796D01*
X46073838Y-11429600D01*
X46065980Y-11421866D01*
X46047790Y-11406602D01*
X46047780Y-11406594D01*
X46038125Y-11398966D01*
X46038123Y-11398965D01*
X45961492Y-11365223D01*
X45907208Y-11319465D01*
X45886280Y-11251623D01*
X45905352Y-11183236D01*
X45958369Y-11136017D01*
X45977041Y-11128931D01*
X45988350Y-11125639D01*
X46033301Y-11100629D01*
X46042193Y-11093405D01*
X46071184Y-11069852D01*
X46082507Y-11061651D01*
X46130255Y-11030965D01*
X46162879Y-11016068D01*
X46196820Y-11006103D01*
X46232315Y-11001000D01*
X46267687Y-11001000D01*
X46303178Y-11006102D01*
G37*
%TD.AperFunction*%
%TA.AperFunction,Conductor*%
G36*
X47053178Y-11006102D02*
G01*
X47087121Y-11016068D01*
X47119740Y-11030965D01*
X47155901Y-11054204D01*
X47176165Y-11070401D01*
X47184019Y-11078131D01*
X47202222Y-11093405D01*
X47211867Y-11101026D01*
X47288511Y-11134778D01*
X47342791Y-11180538D01*
X47363716Y-11248381D01*
X47344641Y-11316767D01*
X47291621Y-11363984D01*
X47272957Y-11371066D01*
X47261650Y-11374358D01*
X47261645Y-11374360D01*
X47216704Y-11399364D01*
X47216691Y-11399373D01*
X47178805Y-11430152D01*
X47167480Y-11438353D01*
X47119745Y-11469031D01*
X47087123Y-11483930D01*
X47053184Y-11493896D01*
X47017684Y-11499000D01*
X46982313Y-11499000D01*
X46946817Y-11493896D01*
X46931893Y-11489514D01*
X46931892Y-11489514D01*
X46916711Y-11485056D01*
X46912872Y-11483928D01*
X46880254Y-11469032D01*
X46844099Y-11445796D01*
X46823838Y-11429600D01*
X46815980Y-11421866D01*
X46797790Y-11406602D01*
X46797780Y-11406594D01*
X46788125Y-11398966D01*
X46788123Y-11398965D01*
X46711492Y-11365223D01*
X46657208Y-11319465D01*
X46636280Y-11251623D01*
X46655352Y-11183236D01*
X46708369Y-11136017D01*
X46727041Y-11128931D01*
X46738350Y-11125639D01*
X46783301Y-11100629D01*
X46792193Y-11093405D01*
X46821184Y-11069852D01*
X46832507Y-11061651D01*
X46880255Y-11030965D01*
X46912879Y-11016068D01*
X46946820Y-11006103D01*
X46982315Y-11001000D01*
X47017687Y-11001000D01*
X47053178Y-11006102D01*
G37*
%TD.AperFunction*%
%TA.AperFunction,Conductor*%
G36*
X47803179Y-11006102D02*
G01*
X47837125Y-11016070D01*
X47869742Y-11030965D01*
X47884619Y-11040526D01*
X47899495Y-11050086D01*
X47926598Y-11073571D01*
X47958785Y-11110716D01*
X47970108Y-11122782D01*
X47978597Y-11131139D01*
X47978599Y-11131140D01*
X47997873Y-11143312D01*
X48044789Y-11196597D01*
X48055450Y-11266788D01*
X48026470Y-11331601D01*
X48010042Y-11347642D01*
X47958782Y-11389284D01*
X47926597Y-11426427D01*
X47899493Y-11449912D01*
X47869739Y-11469033D01*
X47837123Y-11483929D01*
X47803187Y-11493895D01*
X47767684Y-11499000D01*
X47732313Y-11499000D01*
X47696817Y-11493896D01*
X47681893Y-11489514D01*
X47681892Y-11489514D01*
X47666711Y-11485056D01*
X47662872Y-11483928D01*
X47630254Y-11469032D01*
X47594099Y-11445796D01*
X47573838Y-11429600D01*
X47565980Y-11421866D01*
X47547790Y-11406602D01*
X47547780Y-11406594D01*
X47538125Y-11398966D01*
X47538123Y-11398965D01*
X47461492Y-11365223D01*
X47407208Y-11319465D01*
X47386280Y-11251623D01*
X47405352Y-11183236D01*
X47458369Y-11136017D01*
X47477041Y-11128931D01*
X47488350Y-11125639D01*
X47533301Y-11100629D01*
X47542193Y-11093405D01*
X47571184Y-11069852D01*
X47582507Y-11061651D01*
X47630255Y-11030965D01*
X47662879Y-11016068D01*
X47696820Y-11006103D01*
X47732315Y-11001000D01*
X47767686Y-11001000D01*
X47803179Y-11006102D01*
G37*
%TD.AperFunction*%
%TA.AperFunction,Conductor*%
G36*
X62003525Y-200697D02*
G01*
X62306382Y-217706D01*
X62320418Y-219287D01*
X62615971Y-269503D01*
X62629743Y-272647D01*
X62917820Y-355641D01*
X62931151Y-360306D01*
X63139018Y-446407D01*
X63208120Y-475030D01*
X63220851Y-481161D01*
X63483227Y-626171D01*
X63495191Y-633688D01*
X63739690Y-807169D01*
X63750737Y-815979D01*
X63974268Y-1015740D01*
X63984259Y-1025731D01*
X64184020Y-1249262D01*
X64192830Y-1260309D01*
X64366311Y-1504808D01*
X64373828Y-1516772D01*
X64518838Y-1779148D01*
X64524969Y-1791879D01*
X64639691Y-2068842D01*
X64644358Y-2082179D01*
X64727352Y-2370256D01*
X64730496Y-2384031D01*
X64780711Y-2679579D01*
X64782293Y-2693620D01*
X64799302Y-2996474D01*
X64799500Y-3003539D01*
X64799500Y-9050079D01*
X64779498Y-9118200D01*
X64725842Y-9164693D01*
X64655568Y-9174797D01*
X64603500Y-9154845D01*
X64598330Y-9151390D01*
X64598327Y-9151389D01*
X64470267Y-9098345D01*
X64470262Y-9098343D01*
X64334310Y-9071300D01*
X64334308Y-9071300D01*
X63165692Y-9071300D01*
X63165689Y-9071300D01*
X63029737Y-9098343D01*
X63029732Y-9098345D01*
X62901672Y-9151389D01*
X62786415Y-9228401D01*
X62786409Y-9228406D01*
X62688406Y-9326409D01*
X62688401Y-9326415D01*
X62611389Y-9441672D01*
X62558345Y-9569732D01*
X62558343Y-9569737D01*
X62531300Y-9705689D01*
X62531300Y-9844310D01*
X62558343Y-9980262D01*
X62558345Y-9980267D01*
X62611389Y-10108327D01*
X62688401Y-10223584D01*
X62688406Y-10223590D01*
X62786409Y-10321593D01*
X62786415Y-10321598D01*
X62786417Y-10321600D01*
X62901673Y-10398611D01*
X63029738Y-10451657D01*
X63165692Y-10478700D01*
X63386200Y-10478700D01*
X63454321Y-10498702D01*
X63500814Y-10552358D01*
X63510918Y-10622632D01*
X63482721Y-10685692D01*
X63468421Y-10702732D01*
X63468419Y-10702735D01*
X63385266Y-10846762D01*
X63385262Y-10846770D01*
X63328379Y-11003052D01*
X63328379Y-11003054D01*
X63299500Y-11166842D01*
X63299500Y-18833157D01*
X63328379Y-18996945D01*
X63328379Y-18996947D01*
X63385262Y-19153229D01*
X63385266Y-19153237D01*
X63468419Y-19297264D01*
X63468421Y-19297267D01*
X63482721Y-19314308D01*
X63511186Y-19379349D01*
X63499969Y-19449454D01*
X63452631Y-19502365D01*
X63386200Y-19521300D01*
X63165689Y-19521300D01*
X63029737Y-19548343D01*
X63029732Y-19548345D01*
X62901672Y-19601389D01*
X62786415Y-19678401D01*
X62786409Y-19678406D01*
X62688406Y-19776409D01*
X62688401Y-19776415D01*
X62611389Y-19891672D01*
X62558345Y-20019732D01*
X62558343Y-20019737D01*
X62531300Y-20155689D01*
X62531300Y-20294310D01*
X62558343Y-20430262D01*
X62558345Y-20430267D01*
X62577574Y-20476690D01*
X62611389Y-20558327D01*
X62666859Y-20641345D01*
X62688401Y-20673584D01*
X62688406Y-20673590D01*
X62786409Y-20771593D01*
X62786415Y-20771598D01*
X62786417Y-20771600D01*
X62901673Y-20848611D01*
X63029738Y-20901657D01*
X63165692Y-20928700D01*
X63165693Y-20928700D01*
X64334307Y-20928700D01*
X64334308Y-20928700D01*
X64470262Y-20901657D01*
X64598327Y-20848611D01*
X64603496Y-20845156D01*
X64671245Y-20823940D01*
X64739713Y-20842720D01*
X64787158Y-20895535D01*
X64799500Y-20949920D01*
X64799500Y-26996460D01*
X64799302Y-27003525D01*
X64782293Y-27306379D01*
X64780711Y-27320420D01*
X64730496Y-27615968D01*
X64727352Y-27629743D01*
X64644358Y-27917820D01*
X64639691Y-27931157D01*
X64524969Y-28208120D01*
X64518838Y-28220851D01*
X64373828Y-28483227D01*
X64366311Y-28495191D01*
X64192830Y-28739690D01*
X64184020Y-28750737D01*
X63984259Y-28974268D01*
X63974268Y-28984259D01*
X63750737Y-29184020D01*
X63739690Y-29192830D01*
X63495191Y-29366311D01*
X63483227Y-29373828D01*
X63220851Y-29518838D01*
X63208120Y-29524969D01*
X62931157Y-29639691D01*
X62917820Y-29644358D01*
X62629743Y-29727352D01*
X62615968Y-29730496D01*
X62320420Y-29780711D01*
X62306379Y-29782293D01*
X62003526Y-29799302D01*
X61996461Y-29799500D01*
X13626000Y-29799500D01*
X13557879Y-29779498D01*
X13511386Y-29725842D01*
X13500000Y-29673500D01*
X13500000Y-28099997D01*
X39241202Y-28099997D01*
X39241202Y-28100002D01*
X39261545Y-28306554D01*
X39261546Y-28306560D01*
X39261547Y-28306561D01*
X39321798Y-28505184D01*
X39419642Y-28688237D01*
X39551317Y-28848683D01*
X39711763Y-28980358D01*
X39894816Y-29078202D01*
X40093439Y-29138453D01*
X40093443Y-29138453D01*
X40093445Y-29138454D01*
X40299997Y-29158798D01*
X40300000Y-29158798D01*
X40300003Y-29158798D01*
X40506554Y-29138454D01*
X40506555Y-29138453D01*
X40506561Y-29138453D01*
X40705184Y-29078202D01*
X40888237Y-28980358D01*
X41048683Y-28848683D01*
X41180358Y-28688237D01*
X41263878Y-28531981D01*
X41313630Y-28481334D01*
X41382867Y-28465624D01*
X41449606Y-28489840D01*
X41486121Y-28531981D01*
X41569642Y-28688237D01*
X41701317Y-28848683D01*
X41861763Y-28980358D01*
X42044816Y-29078202D01*
X42243439Y-29138453D01*
X42243443Y-29138453D01*
X42243445Y-29138454D01*
X42449997Y-29158798D01*
X42450000Y-29158798D01*
X42450003Y-29158798D01*
X42656554Y-29138454D01*
X42656555Y-29138453D01*
X42656561Y-29138453D01*
X42855184Y-29078202D01*
X43038237Y-28980358D01*
X43198683Y-28848683D01*
X43330358Y-28688237D01*
X43428202Y-28505184D01*
X43488453Y-28306561D01*
X43503874Y-28150000D01*
X43508798Y-28100002D01*
X43508798Y-28099997D01*
X43488454Y-27893445D01*
X43488453Y-27893443D01*
X43488453Y-27893439D01*
X43444940Y-27749996D01*
X46441704Y-27749996D01*
X46441704Y-27750003D01*
X46462037Y-27956456D01*
X46522262Y-28154992D01*
X46620059Y-28337958D01*
X46670394Y-28399291D01*
X47141180Y-27928506D01*
X47179920Y-27995606D01*
X47254394Y-28070080D01*
X47321492Y-28108819D01*
X46850706Y-28579604D01*
X46912041Y-28629940D01*
X47095007Y-28727737D01*
X47293543Y-28787962D01*
X47499997Y-28808296D01*
X47500003Y-28808296D01*
X47706456Y-28787962D01*
X47904992Y-28727737D01*
X48087952Y-28629943D01*
X48087963Y-28629936D01*
X48149292Y-28579604D01*
X48149292Y-28579603D01*
X47678507Y-28108818D01*
X47745606Y-28070080D01*
X47820080Y-27995606D01*
X47858818Y-27928507D01*
X48329603Y-28399292D01*
X48329604Y-28399292D01*
X48379936Y-28337963D01*
X48379943Y-28337952D01*
X48477737Y-28154992D01*
X48537962Y-27956456D01*
X48558296Y-27750003D01*
X48558296Y-27749996D01*
X48537962Y-27543543D01*
X48477737Y-27345007D01*
X48379940Y-27162041D01*
X48329603Y-27100706D01*
X47858818Y-27571491D01*
X47820080Y-27504394D01*
X47745606Y-27429920D01*
X47678506Y-27391180D01*
X48149292Y-26920394D01*
X48087958Y-26870059D01*
X47904992Y-26772262D01*
X47706456Y-26712037D01*
X47500003Y-26691704D01*
X47499997Y-26691704D01*
X47293543Y-26712037D01*
X47095007Y-26772262D01*
X46912043Y-26870058D01*
X46912040Y-26870060D01*
X46850706Y-26920394D01*
X46850706Y-26920395D01*
X47321492Y-27391181D01*
X47254394Y-27429920D01*
X47179920Y-27504394D01*
X47141181Y-27571492D01*
X46670395Y-27100706D01*
X46670394Y-27100706D01*
X46620060Y-27162040D01*
X46620058Y-27162043D01*
X46522262Y-27345007D01*
X46462037Y-27543543D01*
X46441704Y-27749996D01*
X43444940Y-27749996D01*
X43428202Y-27694816D01*
X43330358Y-27511763D01*
X43198683Y-27351317D01*
X43038237Y-27219642D01*
X42855184Y-27121798D01*
X42656561Y-27061547D01*
X42656560Y-27061546D01*
X42656554Y-27061545D01*
X42450003Y-27041202D01*
X42449997Y-27041202D01*
X42243445Y-27061545D01*
X42044815Y-27121798D01*
X41861762Y-27219642D01*
X41701317Y-27351317D01*
X41569642Y-27511762D01*
X41486122Y-27668017D01*
X41436370Y-27718665D01*
X41367133Y-27734375D01*
X41300394Y-27710159D01*
X41263878Y-27668017D01*
X41225173Y-27595606D01*
X41180358Y-27511763D01*
X41048683Y-27351317D01*
X40888237Y-27219642D01*
X40705184Y-27121798D01*
X40506561Y-27061547D01*
X40506560Y-27061546D01*
X40506554Y-27061545D01*
X40300003Y-27041202D01*
X40299997Y-27041202D01*
X40093445Y-27061545D01*
X39894815Y-27121798D01*
X39711762Y-27219642D01*
X39551317Y-27351317D01*
X39419642Y-27511762D01*
X39321798Y-27694815D01*
X39261545Y-27893445D01*
X39241202Y-28099997D01*
X13500000Y-28099997D01*
X13500000Y-26299996D01*
X53041704Y-26299996D01*
X53041704Y-26300003D01*
X53062037Y-26506456D01*
X53122262Y-26704992D01*
X53220059Y-26887958D01*
X53270394Y-26949291D01*
X53741180Y-26478506D01*
X53779920Y-26545606D01*
X53854394Y-26620080D01*
X53921492Y-26658819D01*
X53450706Y-27129604D01*
X53512041Y-27179940D01*
X53695007Y-27277737D01*
X53893543Y-27337962D01*
X54099997Y-27358296D01*
X54100003Y-27358296D01*
X54306456Y-27337962D01*
X54504992Y-27277737D01*
X54687952Y-27179943D01*
X54687963Y-27179936D01*
X54749292Y-27129604D01*
X54749292Y-27129603D01*
X54278507Y-26658818D01*
X54345606Y-26620080D01*
X54420080Y-26545606D01*
X54458818Y-26478507D01*
X54929603Y-26949292D01*
X54929604Y-26949292D01*
X54979936Y-26887963D01*
X54979943Y-26887952D01*
X55077737Y-26704992D01*
X55137962Y-26506456D01*
X55152642Y-26357407D01*
X59324500Y-26357407D01*
X59324500Y-26642592D01*
X59361721Y-26925323D01*
X59361723Y-26925330D01*
X59435533Y-27200792D01*
X59544667Y-27464264D01*
X59544668Y-27464265D01*
X59544673Y-27464275D01*
X59687254Y-27711232D01*
X59687256Y-27711235D01*
X59687257Y-27711236D01*
X59777994Y-27829487D01*
X59860863Y-27937485D01*
X59860872Y-27937495D01*
X60062504Y-28139127D01*
X60062514Y-28139136D01*
X60062515Y-28139137D01*
X60280707Y-28306561D01*
X60288767Y-28312745D01*
X60483552Y-28425204D01*
X60535736Y-28455333D01*
X60799208Y-28564467D01*
X61074670Y-28638277D01*
X61074674Y-28638277D01*
X61074676Y-28638278D01*
X61147546Y-28647871D01*
X61357410Y-28675500D01*
X61357417Y-28675500D01*
X61642583Y-28675500D01*
X61642590Y-28675500D01*
X61898115Y-28641859D01*
X61925323Y-28638278D01*
X61925323Y-28638277D01*
X61925330Y-28638277D01*
X62200792Y-28564467D01*
X62464264Y-28455333D01*
X62711236Y-28312743D01*
X62937485Y-28139137D01*
X63139137Y-27937485D01*
X63312743Y-27711236D01*
X63455333Y-27464264D01*
X63564467Y-27200792D01*
X63638277Y-26925330D01*
X63675500Y-26642590D01*
X63675500Y-26357410D01*
X63638277Y-26074670D01*
X63564467Y-25799208D01*
X63455333Y-25535736D01*
X63388546Y-25420058D01*
X63312745Y-25288767D01*
X63292234Y-25262037D01*
X63139137Y-25062515D01*
X63139136Y-25062514D01*
X63139127Y-25062504D01*
X62937495Y-24860872D01*
X62937485Y-24860863D01*
X62793005Y-24750000D01*
X62711236Y-24687257D01*
X62711235Y-24687256D01*
X62711232Y-24687254D01*
X62464275Y-24544673D01*
X62464270Y-24544670D01*
X62464264Y-24544667D01*
X62200792Y-24435533D01*
X61925431Y-24361750D01*
X61925323Y-24361721D01*
X61642592Y-24324500D01*
X61642590Y-24324500D01*
X61357410Y-24324500D01*
X61357407Y-24324500D01*
X61074676Y-24361721D01*
X60887702Y-24411821D01*
X60799208Y-24435533D01*
X60643572Y-24500000D01*
X60535734Y-24544668D01*
X60535724Y-24544673D01*
X60288767Y-24687254D01*
X60062514Y-24860863D01*
X60062504Y-24860872D01*
X59860872Y-25062504D01*
X59860863Y-25062514D01*
X59687254Y-25288767D01*
X59544673Y-25535724D01*
X59544668Y-25535734D01*
X59435533Y-25799208D01*
X59435532Y-25799212D01*
X59361721Y-26074676D01*
X59324500Y-26357407D01*
X55152642Y-26357407D01*
X55158296Y-26300003D01*
X55158296Y-26299996D01*
X55137962Y-26093543D01*
X55077737Y-25895007D01*
X54979940Y-25712041D01*
X54929603Y-25650706D01*
X54458818Y-26121491D01*
X54420080Y-26054394D01*
X54345606Y-25979920D01*
X54278506Y-25941180D01*
X54749292Y-25470394D01*
X54687958Y-25420059D01*
X54504992Y-25322262D01*
X54306456Y-25262037D01*
X54100003Y-25241704D01*
X54099997Y-25241704D01*
X53893543Y-25262037D01*
X53695007Y-25322262D01*
X53512043Y-25420058D01*
X53512040Y-25420060D01*
X53450706Y-25470394D01*
X53450706Y-25470395D01*
X53921492Y-25941181D01*
X53854394Y-25979920D01*
X53779920Y-26054394D01*
X53741181Y-26121492D01*
X53270395Y-25650706D01*
X53270394Y-25650706D01*
X53220060Y-25712040D01*
X53220058Y-25712043D01*
X53122262Y-25895007D01*
X53062037Y-26093543D01*
X53041704Y-26299996D01*
X13500000Y-26299996D01*
X13500000Y-24471608D01*
X18457883Y-24471608D01*
X18457883Y-24471615D01*
X18478691Y-24616339D01*
X18478693Y-24616346D01*
X18539436Y-24749355D01*
X18635191Y-24859862D01*
X18758201Y-24938916D01*
X18877651Y-24973990D01*
X18898497Y-24980111D01*
X18898498Y-24980111D01*
X18898501Y-24980112D01*
X18898538Y-24980112D01*
X18898570Y-24980121D01*
X18907421Y-24981394D01*
X18907238Y-24982666D01*
X18966659Y-25000114D01*
X19013152Y-25053770D01*
X19023255Y-25088179D01*
X19035467Y-25173116D01*
X19035469Y-25173122D01*
X19096212Y-25306131D01*
X19191967Y-25416638D01*
X19314977Y-25495692D01*
X19434427Y-25530766D01*
X19455273Y-25536887D01*
X19455274Y-25536887D01*
X19455277Y-25536888D01*
X19455280Y-25536888D01*
X19601496Y-25536888D01*
X19601499Y-25536888D01*
X19741799Y-25495692D01*
X19864809Y-25416638D01*
X19960564Y-25306131D01*
X20021307Y-25173122D01*
X20033520Y-25088179D01*
X20042117Y-25028391D01*
X20042117Y-25028384D01*
X20021308Y-24883660D01*
X20021307Y-24883659D01*
X20021307Y-24883654D01*
X19960564Y-24750645D01*
X19864809Y-24640138D01*
X19864808Y-24640137D01*
X19771788Y-24580357D01*
X19741799Y-24561084D01*
X19685892Y-24544668D01*
X19601502Y-24519888D01*
X19601499Y-24519888D01*
X19601462Y-24519888D01*
X19601429Y-24519878D01*
X19592579Y-24518606D01*
X19592761Y-24517333D01*
X19533341Y-24499886D01*
X19508838Y-24471608D01*
X22207883Y-24471608D01*
X22207883Y-24471615D01*
X22228691Y-24616339D01*
X22228693Y-24616346D01*
X22289436Y-24749355D01*
X22385191Y-24859862D01*
X22508201Y-24938916D01*
X22627651Y-24973990D01*
X22648497Y-24980111D01*
X22648498Y-24980111D01*
X22648501Y-24980112D01*
X22648538Y-24980112D01*
X22648570Y-24980121D01*
X22657421Y-24981394D01*
X22657238Y-24982666D01*
X22716659Y-25000114D01*
X22763152Y-25053770D01*
X22773255Y-25088179D01*
X22785467Y-25173116D01*
X22785469Y-25173122D01*
X22846212Y-25306131D01*
X22941967Y-25416638D01*
X23064977Y-25495692D01*
X23184427Y-25530766D01*
X23205273Y-25536887D01*
X23205274Y-25536887D01*
X23205277Y-25536888D01*
X23205280Y-25536888D01*
X23351496Y-25536888D01*
X23351499Y-25536888D01*
X23491799Y-25495692D01*
X23614809Y-25416638D01*
X23710564Y-25306131D01*
X23771307Y-25173122D01*
X23783520Y-25088179D01*
X23792117Y-25028391D01*
X23792117Y-25028384D01*
X23771308Y-24883660D01*
X23771307Y-24883659D01*
X23771307Y-24883654D01*
X23710564Y-24750645D01*
X23614809Y-24640138D01*
X23614808Y-24640137D01*
X23521788Y-24580357D01*
X23491799Y-24561084D01*
X23435892Y-24544668D01*
X23351502Y-24519888D01*
X23351499Y-24519888D01*
X23351462Y-24519888D01*
X23351429Y-24519878D01*
X23342579Y-24518606D01*
X23342761Y-24517333D01*
X23283341Y-24499886D01*
X23236848Y-24446230D01*
X23226745Y-24411821D01*
X23214532Y-24326883D01*
X23214531Y-24326881D01*
X23214531Y-24326878D01*
X23153788Y-24193869D01*
X23058033Y-24083362D01*
X23058032Y-24083361D01*
X22979195Y-24032696D01*
X22935023Y-24004308D01*
X22891403Y-23991500D01*
X22794726Y-23963112D01*
X22794723Y-23963112D01*
X22648501Y-23963112D01*
X22648497Y-23963112D01*
X22508201Y-24004308D01*
X22508199Y-24004309D01*
X22385191Y-24083361D01*
X22289436Y-24193868D01*
X22228693Y-24326877D01*
X22228691Y-24326884D01*
X22207883Y-24471608D01*
X19508838Y-24471608D01*
X19486848Y-24446230D01*
X19476745Y-24411821D01*
X19464532Y-24326883D01*
X19464531Y-24326881D01*
X19464531Y-24326878D01*
X19403788Y-24193869D01*
X19308033Y-24083362D01*
X19308032Y-24083361D01*
X19229195Y-24032696D01*
X19185023Y-24004308D01*
X19141403Y-23991500D01*
X19044726Y-23963112D01*
X19044723Y-23963112D01*
X18898501Y-23963112D01*
X18898497Y-23963112D01*
X18758201Y-24004308D01*
X18758199Y-24004309D01*
X18635191Y-24083361D01*
X18539436Y-24193868D01*
X18478693Y-24326877D01*
X18478691Y-24326884D01*
X18457883Y-24471608D01*
X13500000Y-24471608D01*
X13500000Y-24354494D01*
X13501283Y-24336561D01*
X13502675Y-24326884D01*
X13513729Y-24250000D01*
X13513729Y-24249996D01*
X13501283Y-24163437D01*
X13500000Y-24145505D01*
X13500000Y-22499996D01*
X14736271Y-22499996D01*
X14736271Y-22500003D01*
X14757079Y-22644727D01*
X14757081Y-22644734D01*
X14817824Y-22777743D01*
X14913579Y-22888250D01*
X15036589Y-22967304D01*
X15147941Y-23000000D01*
X15176885Y-23008499D01*
X15176886Y-23008499D01*
X15176889Y-23008500D01*
X15176892Y-23008500D01*
X15323108Y-23008500D01*
X15323111Y-23008500D01*
X15463411Y-22967304D01*
X15586421Y-22888250D01*
X15682176Y-22777743D01*
X15742919Y-22644734D01*
X15754862Y-22561673D01*
X15763729Y-22500003D01*
X15763729Y-22499996D01*
X15742920Y-22355272D01*
X15742919Y-22355271D01*
X15742919Y-22355266D01*
X15682176Y-22222257D01*
X15586421Y-22111750D01*
X15586420Y-22111749D01*
X15524916Y-22072223D01*
X15463411Y-22032696D01*
X15428336Y-22022397D01*
X15323114Y-21991500D01*
X15323111Y-21991500D01*
X15176889Y-21991500D01*
X15176885Y-21991500D01*
X15036589Y-22032696D01*
X15036587Y-22032697D01*
X14913579Y-22111749D01*
X14817824Y-22222256D01*
X14757081Y-22355265D01*
X14757079Y-22355272D01*
X14736271Y-22499996D01*
X13500000Y-22499996D01*
X13500000Y-21552190D01*
X13520002Y-21484069D01*
X13536900Y-21463099D01*
X14000000Y-21000000D01*
X14000000Y-19749996D01*
X16986271Y-19749996D01*
X16986271Y-19750003D01*
X17007079Y-19894727D01*
X17007081Y-19894734D01*
X17067824Y-20027743D01*
X17163579Y-20138250D01*
X17286589Y-20217304D01*
X17406039Y-20252378D01*
X17426885Y-20258499D01*
X17426886Y-20258499D01*
X17426889Y-20258500D01*
X17426892Y-20258500D01*
X17573108Y-20258500D01*
X17573111Y-20258500D01*
X17713411Y-20217304D01*
X17836421Y-20138250D01*
X17866904Y-20103071D01*
X17904776Y-20059365D01*
X17964502Y-20020981D01*
X18035498Y-20020981D01*
X18095224Y-20059365D01*
X18163576Y-20138248D01*
X18163578Y-20138249D01*
X18163579Y-20138250D01*
X18286589Y-20217304D01*
X18406039Y-20252378D01*
X18426885Y-20258499D01*
X18426886Y-20258499D01*
X18426889Y-20258500D01*
X18426892Y-20258500D01*
X18573108Y-20258500D01*
X18573111Y-20258500D01*
X18713411Y-20217304D01*
X18720172Y-20212959D01*
X21636907Y-20212959D01*
X21636907Y-20212966D01*
X21657715Y-20357690D01*
X21657717Y-20357697D01*
X21718460Y-20490706D01*
X21814215Y-20601213D01*
X21937225Y-20680267D01*
X22056675Y-20715341D01*
X22077521Y-20721462D01*
X22077522Y-20721462D01*
X22077525Y-20721463D01*
X22077528Y-20721463D01*
X22223744Y-20721463D01*
X22223747Y-20721463D01*
X22364047Y-20680267D01*
X22487057Y-20601213D01*
X22582812Y-20490706D01*
X22643555Y-20357697D01*
X22657818Y-20258499D01*
X22659041Y-20249996D01*
X26736271Y-20249996D01*
X26736271Y-20250003D01*
X26757079Y-20394727D01*
X26757081Y-20394734D01*
X26817824Y-20527743D01*
X26913579Y-20638250D01*
X27036589Y-20717304D01*
X27147941Y-20750000D01*
X27176885Y-20758499D01*
X27176886Y-20758499D01*
X27176889Y-20758500D01*
X27176892Y-20758500D01*
X27323108Y-20758500D01*
X27323111Y-20758500D01*
X27463411Y-20717304D01*
X27586421Y-20638250D01*
X27682176Y-20527743D01*
X27742919Y-20394734D01*
X27747880Y-20360229D01*
X27763729Y-20250003D01*
X27763729Y-20249996D01*
X28486271Y-20249996D01*
X28486271Y-20250003D01*
X28507079Y-20394727D01*
X28507081Y-20394734D01*
X28567824Y-20527743D01*
X28663579Y-20638250D01*
X28786589Y-20717304D01*
X28897941Y-20750000D01*
X28926885Y-20758499D01*
X28926886Y-20758499D01*
X28926889Y-20758500D01*
X28926892Y-20758500D01*
X29073108Y-20758500D01*
X29073111Y-20758500D01*
X29213411Y-20717304D01*
X29336421Y-20638250D01*
X29432176Y-20527743D01*
X29492919Y-20394734D01*
X29497880Y-20360229D01*
X29513729Y-20250003D01*
X29513729Y-20249996D01*
X29513729Y-20249995D01*
X33541645Y-20249995D01*
X33541645Y-20250004D01*
X33562219Y-20472031D01*
X33623241Y-20686502D01*
X33623243Y-20686507D01*
X33722637Y-20886118D01*
X33813390Y-21006295D01*
X33813391Y-21006295D01*
X34317975Y-20501710D01*
X34349901Y-20557007D01*
X34442993Y-20650099D01*
X34498287Y-20682023D01*
X33992623Y-21187687D01*
X34021803Y-21214288D01*
X34211386Y-21331672D01*
X34211394Y-21331676D01*
X34419310Y-21412224D01*
X34419313Y-21412225D01*
X34638509Y-21453200D01*
X34861491Y-21453200D01*
X35080686Y-21412225D01*
X35080689Y-21412224D01*
X35288605Y-21331676D01*
X35288616Y-21331671D01*
X35478196Y-21214288D01*
X35478201Y-21214284D01*
X35507375Y-21187686D01*
X35001712Y-20682023D01*
X35057007Y-20650099D01*
X35150099Y-20557007D01*
X35182023Y-20501712D01*
X35686606Y-21006295D01*
X35686607Y-21006295D01*
X35777364Y-20886114D01*
X35876756Y-20686507D01*
X35876759Y-20686499D01*
X35878810Y-20679293D01*
X35916690Y-20619246D01*
X35981021Y-20589212D01*
X36051377Y-20598725D01*
X36105422Y-20644765D01*
X36121190Y-20679293D01*
X36123240Y-20686499D01*
X36123243Y-20686507D01*
X36222637Y-20886118D01*
X36313390Y-21006295D01*
X36313391Y-21006295D01*
X36817975Y-20501710D01*
X36849901Y-20557007D01*
X36942993Y-20650099D01*
X36998287Y-20682023D01*
X36492623Y-21187687D01*
X36521803Y-21214288D01*
X36711386Y-21331672D01*
X36711394Y-21331676D01*
X36919310Y-21412224D01*
X36919313Y-21412225D01*
X37138509Y-21453200D01*
X37361491Y-21453200D01*
X37580686Y-21412225D01*
X37580689Y-21412224D01*
X37788605Y-21331676D01*
X37788616Y-21331671D01*
X37978196Y-21214288D01*
X37978201Y-21214284D01*
X38007375Y-21187686D01*
X37501712Y-20682023D01*
X37557007Y-20650099D01*
X37650099Y-20557007D01*
X37682023Y-20501712D01*
X38186606Y-21006295D01*
X38186607Y-21006295D01*
X38277364Y-20886114D01*
X38376756Y-20686507D01*
X38376759Y-20686499D01*
X38411868Y-20563105D01*
X38449748Y-20503058D01*
X38514079Y-20473024D01*
X38568553Y-20476689D01*
X38676889Y-20508500D01*
X38676892Y-20508500D01*
X38810472Y-20508500D01*
X38878593Y-20528502D01*
X38899567Y-20545405D01*
X38933195Y-20579033D01*
X38967221Y-20641345D01*
X38970100Y-20668128D01*
X38970100Y-21536853D01*
X38989174Y-21608036D01*
X38989176Y-21608042D01*
X38996757Y-21621172D01*
X39013495Y-21690167D01*
X38990274Y-21757259D01*
X38976733Y-21773266D01*
X38250000Y-22499998D01*
X38250000Y-23000001D01*
X39749998Y-24499999D01*
X39750000Y-24500000D01*
X40000000Y-24500000D01*
X40963095Y-23536905D01*
X41025407Y-23502880D01*
X41052190Y-23500000D01*
X41697810Y-23500000D01*
X41765931Y-23520002D01*
X41786900Y-23536900D01*
X42500000Y-24250000D01*
X42750000Y-24250000D01*
X43250000Y-23750000D01*
X43250000Y-23700028D01*
X43270002Y-23631907D01*
X43323658Y-23585414D01*
X43393932Y-23575310D01*
X43458512Y-23604804D01*
X43465095Y-23610933D01*
X43683195Y-23829033D01*
X43717221Y-23891345D01*
X43720100Y-23918128D01*
X43720100Y-24256624D01*
X43700098Y-24324745D01*
X43669744Y-24355100D01*
X43670391Y-24355847D01*
X43663579Y-24361748D01*
X43567824Y-24472256D01*
X43507081Y-24605265D01*
X43507079Y-24605272D01*
X43486271Y-24749996D01*
X43486271Y-24750003D01*
X43507079Y-24894727D01*
X43507081Y-24894734D01*
X43567824Y-25027743D01*
X43663579Y-25138250D01*
X43786589Y-25217304D01*
X43906039Y-25252378D01*
X43926885Y-25258499D01*
X43926886Y-25258499D01*
X43926889Y-25258500D01*
X43926892Y-25258500D01*
X44073108Y-25258500D01*
X44073111Y-25258500D01*
X44213411Y-25217304D01*
X44336421Y-25138250D01*
X44432176Y-25027743D01*
X44492919Y-24894734D01*
X44512507Y-24758500D01*
X44513729Y-24750003D01*
X44513729Y-24749996D01*
X44492920Y-24605272D01*
X44492919Y-24605271D01*
X44492919Y-24605266D01*
X44444844Y-24499996D01*
X45986271Y-24499996D01*
X45986271Y-24500000D01*
X46007079Y-24644727D01*
X46007081Y-24644734D01*
X46067824Y-24777743D01*
X46163579Y-24888250D01*
X46286589Y-24967304D01*
X46398329Y-25000114D01*
X46426885Y-25008499D01*
X46426886Y-25008499D01*
X46426889Y-25008500D01*
X46426892Y-25008500D01*
X46573108Y-25008500D01*
X46573111Y-25008500D01*
X46713411Y-24967304D01*
X46836421Y-24888250D01*
X46932176Y-24777743D01*
X46992919Y-24644734D01*
X47013729Y-24500000D01*
X47013729Y-24499999D01*
X47013729Y-24499996D01*
X46992920Y-24355272D01*
X46992919Y-24355271D01*
X46992919Y-24355266D01*
X46932176Y-24222257D01*
X46836421Y-24111750D01*
X46836420Y-24111749D01*
X46774916Y-24072223D01*
X46713411Y-24032696D01*
X46678336Y-24022397D01*
X46573114Y-23991500D01*
X46573111Y-23991500D01*
X46426889Y-23991500D01*
X46426885Y-23991500D01*
X46286589Y-24032696D01*
X46286587Y-24032697D01*
X46163579Y-24111749D01*
X46067824Y-24222256D01*
X46007081Y-24355265D01*
X46007079Y-24355272D01*
X45986271Y-24499996D01*
X44444844Y-24499996D01*
X44432176Y-24472257D01*
X44411748Y-24448682D01*
X44336420Y-24361748D01*
X44329609Y-24355847D01*
X44330757Y-24354521D01*
X44291282Y-24308957D01*
X44279900Y-24256624D01*
X44279900Y-23713150D01*
X44279899Y-23713146D01*
X44260825Y-23641963D01*
X44260824Y-23641961D01*
X44223978Y-23578141D01*
X44223974Y-23578136D01*
X44221148Y-23575310D01*
X44171862Y-23526024D01*
X43671862Y-23026024D01*
X42662014Y-22016176D01*
X42627988Y-21953864D01*
X42633053Y-21883049D01*
X42662012Y-21837987D01*
X43250000Y-21250000D01*
X43250000Y-21000000D01*
X43249999Y-20999998D01*
X42750001Y-20500000D01*
X42750000Y-20500000D01*
X42500000Y-20500000D01*
X41816803Y-21183196D01*
X41754493Y-21217220D01*
X41727710Y-21220100D01*
X40963146Y-21220100D01*
X40891963Y-21239174D01*
X40891961Y-21239175D01*
X40878825Y-21246759D01*
X40809829Y-21263495D01*
X40742738Y-21240273D01*
X40726738Y-21226738D01*
X40250000Y-20750000D01*
X40000000Y-20750000D01*
X39999998Y-20750000D01*
X39744995Y-21005004D01*
X39682683Y-21039030D01*
X39611868Y-21033965D01*
X39555032Y-20991418D01*
X39530221Y-20924898D01*
X39529900Y-20915909D01*
X39529900Y-20463150D01*
X39529899Y-20463146D01*
X39510825Y-20391963D01*
X39510824Y-20391961D01*
X39473978Y-20328141D01*
X39473974Y-20328136D01*
X39459445Y-20313607D01*
X39421862Y-20276024D01*
X39293507Y-20147669D01*
X39259481Y-20085357D01*
X39257885Y-20040643D01*
X39263729Y-20000000D01*
X39263729Y-19999996D01*
X39242920Y-19855272D01*
X39242919Y-19855271D01*
X39242919Y-19855266D01*
X39182176Y-19722257D01*
X39086421Y-19611750D01*
X39086420Y-19611749D01*
X38963414Y-19532698D01*
X38963411Y-19532696D01*
X38924600Y-19521300D01*
X38823114Y-19491500D01*
X38823111Y-19491500D01*
X38676889Y-19491500D01*
X38676885Y-19491500D01*
X38536589Y-19532696D01*
X38536583Y-19532698D01*
X38419058Y-19608227D01*
X38350937Y-19628229D01*
X38282817Y-19608227D01*
X38250388Y-19578161D01*
X38186607Y-19493703D01*
X37682023Y-19998287D01*
X37650099Y-19942993D01*
X37557007Y-19849901D01*
X37501711Y-19817976D01*
X38007375Y-19312311D01*
X37978197Y-19285711D01*
X37874666Y-19221608D01*
X40957883Y-19221608D01*
X40957883Y-19221615D01*
X40978691Y-19366339D01*
X40978693Y-19366346D01*
X41039436Y-19499355D01*
X41135191Y-19609862D01*
X41258201Y-19688916D01*
X41377651Y-19723990D01*
X41398497Y-19730111D01*
X41398498Y-19730111D01*
X41398501Y-19730112D01*
X41398538Y-19730112D01*
X41398570Y-19730121D01*
X41407421Y-19731394D01*
X41407238Y-19732666D01*
X41466659Y-19750114D01*
X41513152Y-19803770D01*
X41523255Y-19838179D01*
X41535467Y-19923116D01*
X41535469Y-19923122D01*
X41596212Y-20056131D01*
X41691967Y-20166638D01*
X41814977Y-20245692D01*
X41924132Y-20277743D01*
X41955273Y-20286887D01*
X41955274Y-20286887D01*
X41955277Y-20286888D01*
X41955280Y-20286888D01*
X42101496Y-20286888D01*
X42101499Y-20286888D01*
X42241799Y-20245692D01*
X42364809Y-20166638D01*
X42460564Y-20056131D01*
X42521307Y-19923122D01*
X42523080Y-19910788D01*
X42542117Y-19778391D01*
X42542117Y-19778384D01*
X42521308Y-19633660D01*
X42521307Y-19633659D01*
X42521307Y-19633654D01*
X42460564Y-19500645D01*
X42364809Y-19390138D01*
X42364808Y-19390137D01*
X42268712Y-19328380D01*
X42241799Y-19311084D01*
X42194733Y-19297264D01*
X42101502Y-19269888D01*
X42101499Y-19269888D01*
X42101462Y-19269888D01*
X42101429Y-19269878D01*
X42092579Y-19268606D01*
X42092761Y-19267333D01*
X42033341Y-19249886D01*
X41986848Y-19196230D01*
X41976745Y-19161821D01*
X41964532Y-19076883D01*
X41964531Y-19076881D01*
X41964531Y-19076878D01*
X41903788Y-18943869D01*
X41808033Y-18833362D01*
X41808032Y-18833361D01*
X41746528Y-18793835D01*
X41685023Y-18754308D01*
X41649948Y-18744009D01*
X41544726Y-18713112D01*
X41544723Y-18713112D01*
X41398501Y-18713112D01*
X41398497Y-18713112D01*
X41258201Y-18754308D01*
X41258199Y-18754309D01*
X41135191Y-18833361D01*
X41039436Y-18943868D01*
X40978693Y-19076877D01*
X40978691Y-19076884D01*
X40957883Y-19221608D01*
X37874666Y-19221608D01*
X37788613Y-19168327D01*
X37788605Y-19168323D01*
X37580689Y-19087775D01*
X37580686Y-19087774D01*
X37361491Y-19046800D01*
X37138509Y-19046800D01*
X36919313Y-19087774D01*
X36919310Y-19087775D01*
X36711394Y-19168323D01*
X36711378Y-19168331D01*
X36521811Y-19285706D01*
X36521803Y-19285712D01*
X36492623Y-19312312D01*
X36998287Y-19817976D01*
X36942993Y-19849901D01*
X36849901Y-19942993D01*
X36817976Y-19998287D01*
X36313392Y-19493703D01*
X36313390Y-19493703D01*
X36222638Y-19613879D01*
X36123243Y-19813492D01*
X36123239Y-19813502D01*
X36121189Y-19820709D01*
X36083308Y-19880754D01*
X36018976Y-19910788D01*
X35948620Y-19901273D01*
X35894577Y-19855232D01*
X35878811Y-19820709D01*
X35876760Y-19813502D01*
X35876756Y-19813492D01*
X35777362Y-19613881D01*
X35686607Y-19493703D01*
X35182023Y-19998287D01*
X35150099Y-19942993D01*
X35057007Y-19849901D01*
X35001711Y-19817976D01*
X35507375Y-19312311D01*
X35478197Y-19285711D01*
X35288613Y-19168327D01*
X35288605Y-19168323D01*
X35080689Y-19087775D01*
X35080686Y-19087774D01*
X34861491Y-19046800D01*
X34638509Y-19046800D01*
X34419313Y-19087774D01*
X34419310Y-19087775D01*
X34211394Y-19168323D01*
X34211378Y-19168331D01*
X34021811Y-19285706D01*
X34021803Y-19285712D01*
X33992623Y-19312312D01*
X34498287Y-19817976D01*
X34442993Y-19849901D01*
X34349901Y-19942993D01*
X34317976Y-19998287D01*
X33813392Y-19493703D01*
X33813390Y-19493703D01*
X33722638Y-19613879D01*
X33623243Y-19813492D01*
X33623241Y-19813497D01*
X33562219Y-20027968D01*
X33541645Y-20249995D01*
X29513729Y-20249995D01*
X29492920Y-20105272D01*
X29492919Y-20105271D01*
X29492919Y-20105266D01*
X29432176Y-19972257D01*
X29336421Y-19861750D01*
X29336420Y-19861749D01*
X29261330Y-19813492D01*
X29213411Y-19782696D01*
X29178336Y-19772397D01*
X29073114Y-19741500D01*
X29073111Y-19741500D01*
X28926889Y-19741500D01*
X28926885Y-19741500D01*
X28786589Y-19782696D01*
X28786587Y-19782697D01*
X28663579Y-19861749D01*
X28567824Y-19972256D01*
X28507081Y-20105265D01*
X28507079Y-20105272D01*
X28486271Y-20249996D01*
X27763729Y-20249996D01*
X27742920Y-20105272D01*
X27742919Y-20105271D01*
X27742919Y-20105266D01*
X27682176Y-19972257D01*
X27586421Y-19861750D01*
X27586420Y-19861749D01*
X27511330Y-19813492D01*
X27463411Y-19782696D01*
X27428336Y-19772397D01*
X27323114Y-19741500D01*
X27323111Y-19741500D01*
X27176889Y-19741500D01*
X27176885Y-19741500D01*
X27036589Y-19782696D01*
X27036587Y-19782697D01*
X26913579Y-19861749D01*
X26817824Y-19972256D01*
X26757081Y-20105265D01*
X26757079Y-20105272D01*
X26736271Y-20249996D01*
X22659041Y-20249996D01*
X22664365Y-20212966D01*
X22664365Y-20212959D01*
X22643556Y-20068235D01*
X22643555Y-20068234D01*
X22643555Y-20068229D01*
X22582812Y-19935220D01*
X22487057Y-19824713D01*
X22487056Y-19824712D01*
X22370806Y-19750003D01*
X22364047Y-19745659D01*
X22311130Y-19730121D01*
X22223750Y-19704463D01*
X22223747Y-19704463D01*
X22077525Y-19704463D01*
X22077521Y-19704463D01*
X21937225Y-19745659D01*
X21937223Y-19745660D01*
X21814215Y-19824712D01*
X21718460Y-19935219D01*
X21657717Y-20068228D01*
X21657715Y-20068235D01*
X21636907Y-20212959D01*
X18720172Y-20212959D01*
X18836421Y-20138250D01*
X18932176Y-20027743D01*
X18992919Y-19894734D01*
X18994929Y-19880754D01*
X19013729Y-19750003D01*
X19013729Y-19749996D01*
X18992920Y-19605272D01*
X18992919Y-19605271D01*
X18992919Y-19605266D01*
X18932176Y-19472257D01*
X18836421Y-19361750D01*
X18836420Y-19361749D01*
X18739558Y-19299500D01*
X18713411Y-19282696D01*
X18661090Y-19267333D01*
X18573114Y-19241500D01*
X18573111Y-19241500D01*
X18426889Y-19241500D01*
X18426885Y-19241500D01*
X18286589Y-19282696D01*
X18286587Y-19282697D01*
X18163579Y-19361749D01*
X18095224Y-19440635D01*
X18035498Y-19479018D01*
X17964501Y-19479018D01*
X17904776Y-19440635D01*
X17836420Y-19361749D01*
X17739558Y-19299500D01*
X17713411Y-19282696D01*
X17661090Y-19267333D01*
X17573114Y-19241500D01*
X17573111Y-19241500D01*
X17426889Y-19241500D01*
X17426885Y-19241500D01*
X17286589Y-19282696D01*
X17286587Y-19282697D01*
X17163579Y-19361749D01*
X17067824Y-19472256D01*
X17007081Y-19605265D01*
X17007079Y-19605272D01*
X16986271Y-19749996D01*
X14000000Y-19749996D01*
X14000000Y-16999996D01*
X17736271Y-16999996D01*
X17736271Y-17000003D01*
X17757079Y-17144727D01*
X17757081Y-17144734D01*
X17817824Y-17277743D01*
X17913579Y-17388250D01*
X18036589Y-17467304D01*
X18156039Y-17502378D01*
X18176885Y-17508499D01*
X18176886Y-17508499D01*
X18176889Y-17508500D01*
X18176892Y-17508500D01*
X18323108Y-17508500D01*
X18323111Y-17508500D01*
X18463411Y-17467304D01*
X18586421Y-17388250D01*
X18682176Y-17277743D01*
X18742919Y-17144734D01*
X18763729Y-17000000D01*
X18763729Y-16999996D01*
X18742920Y-16855272D01*
X18742919Y-16855271D01*
X18742919Y-16855266D01*
X18682176Y-16722257D01*
X18661590Y-16698499D01*
X21981811Y-16698499D01*
X22009795Y-16716482D01*
X22134836Y-16753199D01*
X22134843Y-16753200D01*
X22265157Y-16753200D01*
X22265163Y-16753199D01*
X22390201Y-16716483D01*
X22390208Y-16716480D01*
X22418186Y-16698499D01*
X23015144Y-16698499D01*
X23043128Y-16716482D01*
X23168169Y-16753199D01*
X23168176Y-16753200D01*
X23298490Y-16753200D01*
X23298496Y-16753199D01*
X23423534Y-16716483D01*
X23423541Y-16716480D01*
X23451519Y-16698499D01*
X24048478Y-16698499D01*
X24076462Y-16716482D01*
X24201503Y-16753199D01*
X24201510Y-16753200D01*
X24331824Y-16753200D01*
X24331830Y-16753199D01*
X24456868Y-16716483D01*
X24456875Y-16716480D01*
X24484853Y-16698499D01*
X25081811Y-16698499D01*
X25109795Y-16716482D01*
X25234836Y-16753199D01*
X25234843Y-16753200D01*
X25365157Y-16753200D01*
X25365163Y-16753199D01*
X25490201Y-16716483D01*
X25490208Y-16716480D01*
X25518186Y-16698499D01*
X25518187Y-16698498D01*
X25300001Y-16480312D01*
X25300000Y-16480312D01*
X25081811Y-16698499D01*
X24484853Y-16698499D01*
X24484854Y-16698498D01*
X24266668Y-16480312D01*
X24266667Y-16480312D01*
X24048478Y-16698499D01*
X23451519Y-16698499D01*
X23451520Y-16698498D01*
X23233334Y-16480312D01*
X23233333Y-16480312D01*
X23015144Y-16698499D01*
X22418186Y-16698499D01*
X22418187Y-16698498D01*
X22200001Y-16480312D01*
X22200000Y-16480312D01*
X21981811Y-16698499D01*
X18661590Y-16698499D01*
X18586421Y-16611750D01*
X18586420Y-16611749D01*
X18524916Y-16572223D01*
X18463411Y-16532696D01*
X18428336Y-16522397D01*
X18323114Y-16491500D01*
X18323111Y-16491500D01*
X18176889Y-16491500D01*
X18176885Y-16491500D01*
X18036589Y-16532696D01*
X18036587Y-16532697D01*
X17913579Y-16611749D01*
X17817824Y-16722256D01*
X17757081Y-16855265D01*
X17757079Y-16855272D01*
X17736271Y-16999996D01*
X14000000Y-16999996D01*
X14000000Y-16299996D01*
X21742140Y-16299996D01*
X21742140Y-16300003D01*
X21760685Y-16428987D01*
X21760687Y-16428994D01*
X21801445Y-16518241D01*
X22019688Y-16299999D01*
X21999798Y-16280109D01*
X22100000Y-16280109D01*
X22100000Y-16319891D01*
X22115224Y-16356645D01*
X22143355Y-16384776D01*
X22180109Y-16400000D01*
X22219891Y-16400000D01*
X22256645Y-16384776D01*
X22284776Y-16356645D01*
X22300000Y-16319891D01*
X22300000Y-16299999D01*
X22380312Y-16299999D01*
X22380312Y-16300001D01*
X22598553Y-16518242D01*
X22602053Y-16510580D01*
X22648546Y-16456925D01*
X22716666Y-16436923D01*
X22784787Y-16456925D01*
X22831280Y-16510581D01*
X22834778Y-16518241D01*
X23053021Y-16299999D01*
X23033131Y-16280109D01*
X23133333Y-16280109D01*
X23133333Y-16319891D01*
X23148557Y-16356645D01*
X23176688Y-16384776D01*
X23213442Y-16400000D01*
X23253224Y-16400000D01*
X23289978Y-16384776D01*
X23318109Y-16356645D01*
X23333333Y-16319891D01*
X23333333Y-16299999D01*
X23413645Y-16299999D01*
X23413645Y-16300001D01*
X23631885Y-16518241D01*
X23635385Y-16510580D01*
X23681878Y-16456924D01*
X23749999Y-16436922D01*
X23818119Y-16456924D01*
X23864612Y-16510579D01*
X23868111Y-16518241D01*
X23868112Y-16518241D01*
X24086355Y-16299999D01*
X24066465Y-16280109D01*
X24166667Y-16280109D01*
X24166667Y-16319891D01*
X24181891Y-16356645D01*
X24210022Y-16384776D01*
X24246776Y-16400000D01*
X24286558Y-16400000D01*
X24323312Y-16384776D01*
X24351443Y-16356645D01*
X24366667Y-16319891D01*
X24366667Y-16299999D01*
X24446979Y-16299999D01*
X24446979Y-16300001D01*
X24665220Y-16518242D01*
X24668720Y-16510580D01*
X24715213Y-16456925D01*
X24783333Y-16436923D01*
X24851454Y-16456925D01*
X24897947Y-16510581D01*
X24901445Y-16518241D01*
X25119688Y-16299999D01*
X25099798Y-16280109D01*
X25200000Y-16280109D01*
X25200000Y-16319891D01*
X25215224Y-16356645D01*
X25243355Y-16384776D01*
X25280109Y-16400000D01*
X25319891Y-16400000D01*
X25356645Y-16384776D01*
X25384776Y-16356645D01*
X25400000Y-16319891D01*
X25400000Y-16299999D01*
X25480312Y-16299999D01*
X25480312Y-16300001D01*
X25698553Y-16518242D01*
X25698554Y-16518241D01*
X25739312Y-16428995D01*
X25739313Y-16428992D01*
X25757860Y-16300003D01*
X25757860Y-16299996D01*
X25739314Y-16171012D01*
X25739312Y-16171005D01*
X25698554Y-16081757D01*
X25480312Y-16299999D01*
X25400000Y-16299999D01*
X25400000Y-16280109D01*
X25384776Y-16243355D01*
X25356645Y-16215224D01*
X25319891Y-16200000D01*
X25280109Y-16200000D01*
X25243355Y-16215224D01*
X25215224Y-16243355D01*
X25200000Y-16280109D01*
X25099798Y-16280109D01*
X24901446Y-16081757D01*
X24901445Y-16081757D01*
X24897947Y-16089418D01*
X24851454Y-16143073D01*
X24783333Y-16163075D01*
X24715212Y-16143073D01*
X24668719Y-16089417D01*
X24665220Y-16081757D01*
X24446979Y-16299999D01*
X24366667Y-16299999D01*
X24366667Y-16280109D01*
X24351443Y-16243355D01*
X24323312Y-16215224D01*
X24286558Y-16200000D01*
X24246776Y-16200000D01*
X24210022Y-16215224D01*
X24181891Y-16243355D01*
X24166667Y-16280109D01*
X24066465Y-16280109D01*
X23868113Y-16081757D01*
X23868111Y-16081757D01*
X23864612Y-16089419D01*
X23818119Y-16143075D01*
X23749998Y-16163076D01*
X23681877Y-16143073D01*
X23635385Y-16089417D01*
X23631886Y-16081757D01*
X23413645Y-16299999D01*
X23333333Y-16299999D01*
X23333333Y-16280109D01*
X23318109Y-16243355D01*
X23289978Y-16215224D01*
X23253224Y-16200000D01*
X23213442Y-16200000D01*
X23176688Y-16215224D01*
X23148557Y-16243355D01*
X23133333Y-16280109D01*
X23033131Y-16280109D01*
X22834779Y-16081757D01*
X22834778Y-16081757D01*
X22831280Y-16089418D01*
X22784787Y-16143073D01*
X22716666Y-16163075D01*
X22648545Y-16143073D01*
X22602052Y-16089417D01*
X22598553Y-16081757D01*
X22380312Y-16299999D01*
X22300000Y-16299999D01*
X22300000Y-16280109D01*
X22284776Y-16243355D01*
X22256645Y-16215224D01*
X22219891Y-16200000D01*
X22180109Y-16200000D01*
X22143355Y-16215224D01*
X22115224Y-16243355D01*
X22100000Y-16280109D01*
X21999798Y-16280109D01*
X21801446Y-16081757D01*
X21801445Y-16081757D01*
X21760687Y-16171005D01*
X21760685Y-16171012D01*
X21742140Y-16299996D01*
X14000000Y-16299996D01*
X14000000Y-15665166D01*
X21981811Y-15665166D01*
X22000746Y-15677334D01*
X22047240Y-15730989D01*
X22057345Y-15801263D01*
X22027853Y-15865844D01*
X22000744Y-15889333D01*
X21981812Y-15901498D01*
X21981811Y-15901500D01*
X22199999Y-16119688D01*
X22200000Y-16119688D01*
X22418186Y-15901500D01*
X22418186Y-15901499D01*
X22399253Y-15889332D01*
X22352759Y-15835678D01*
X22342654Y-15765404D01*
X22372146Y-15700823D01*
X22399251Y-15677335D01*
X22418185Y-15665166D01*
X23015144Y-15665166D01*
X23034079Y-15677334D01*
X23080573Y-15730989D01*
X23090678Y-15801263D01*
X23061186Y-15865844D01*
X23034077Y-15889333D01*
X23015145Y-15901498D01*
X23015144Y-15901500D01*
X23233332Y-16119688D01*
X23233333Y-16119688D01*
X23451519Y-15901500D01*
X23451519Y-15901499D01*
X23432586Y-15889332D01*
X23386092Y-15835678D01*
X23375987Y-15765404D01*
X23405479Y-15700823D01*
X23432584Y-15677335D01*
X23451518Y-15665166D01*
X24048478Y-15665166D01*
X24067413Y-15677334D01*
X24113907Y-15730989D01*
X24124012Y-15801263D01*
X24094520Y-15865844D01*
X24067411Y-15889333D01*
X24048479Y-15901498D01*
X24048478Y-15901500D01*
X24266666Y-16119688D01*
X24266667Y-16119688D01*
X24484853Y-15901500D01*
X24484853Y-15901499D01*
X24465920Y-15889332D01*
X24419426Y-15835678D01*
X24409321Y-15765404D01*
X24438813Y-15700823D01*
X24465918Y-15677335D01*
X24484852Y-15665166D01*
X25081811Y-15665166D01*
X25100746Y-15677334D01*
X25147240Y-15730989D01*
X25157345Y-15801263D01*
X25127853Y-15865844D01*
X25100744Y-15889333D01*
X25081812Y-15901498D01*
X25081811Y-15901500D01*
X25299999Y-16119688D01*
X25300000Y-16119688D01*
X25518186Y-15901500D01*
X25518186Y-15901499D01*
X25499253Y-15889332D01*
X25452759Y-15835678D01*
X25442654Y-15765404D01*
X25472146Y-15700823D01*
X25499251Y-15677335D01*
X25518187Y-15665165D01*
X25300001Y-15446979D01*
X25300000Y-15446979D01*
X25081811Y-15665166D01*
X24484852Y-15665166D01*
X24484854Y-15665165D01*
X24266668Y-15446979D01*
X24266667Y-15446979D01*
X24048478Y-15665166D01*
X23451518Y-15665166D01*
X23451520Y-15665165D01*
X23233334Y-15446979D01*
X23233333Y-15446979D01*
X23015144Y-15665166D01*
X22418185Y-15665166D01*
X22418187Y-15665165D01*
X22200001Y-15446979D01*
X22200000Y-15446979D01*
X21981811Y-15665166D01*
X14000000Y-15665166D01*
X14000000Y-15266663D01*
X21742140Y-15266663D01*
X21742140Y-15266670D01*
X21760685Y-15395654D01*
X21760687Y-15395661D01*
X21801445Y-15484908D01*
X22019688Y-15266666D01*
X21999798Y-15246776D01*
X22100000Y-15246776D01*
X22100000Y-15286558D01*
X22115224Y-15323312D01*
X22143355Y-15351443D01*
X22180109Y-15366667D01*
X22219891Y-15366667D01*
X22256645Y-15351443D01*
X22284776Y-15323312D01*
X22300000Y-15286558D01*
X22300000Y-15266666D01*
X22380312Y-15266666D01*
X22380312Y-15266668D01*
X22598553Y-15484909D01*
X22602053Y-15477247D01*
X22648546Y-15423592D01*
X22716666Y-15403590D01*
X22784787Y-15423592D01*
X22831280Y-15477248D01*
X22834778Y-15484908D01*
X23053021Y-15266666D01*
X23033131Y-15246776D01*
X23133333Y-15246776D01*
X23133333Y-15286558D01*
X23148557Y-15323312D01*
X23176688Y-15351443D01*
X23213442Y-15366667D01*
X23253224Y-15366667D01*
X23289978Y-15351443D01*
X23318109Y-15323312D01*
X23333333Y-15286558D01*
X23333333Y-15266666D01*
X23413645Y-15266666D01*
X23413645Y-15266668D01*
X23631885Y-15484908D01*
X23635385Y-15477247D01*
X23681878Y-15423591D01*
X23749999Y-15403589D01*
X23818119Y-15423591D01*
X23864612Y-15477246D01*
X23868111Y-15484908D01*
X23868112Y-15484908D01*
X24086355Y-15266666D01*
X24066465Y-15246776D01*
X24166667Y-15246776D01*
X24166667Y-15286558D01*
X24181891Y-15323312D01*
X24210022Y-15351443D01*
X24246776Y-15366667D01*
X24286558Y-15366667D01*
X24323312Y-15351443D01*
X24351443Y-15323312D01*
X24366667Y-15286558D01*
X24366667Y-15266666D01*
X24446979Y-15266666D01*
X24446979Y-15266668D01*
X24665220Y-15484909D01*
X24668720Y-15477247D01*
X24715213Y-15423592D01*
X24783333Y-15403590D01*
X24851454Y-15423592D01*
X24897947Y-15477248D01*
X24901445Y-15484908D01*
X25119688Y-15266666D01*
X25099798Y-15246776D01*
X25200000Y-15246776D01*
X25200000Y-15286558D01*
X25215224Y-15323312D01*
X25243355Y-15351443D01*
X25280109Y-15366667D01*
X25319891Y-15366667D01*
X25356645Y-15351443D01*
X25384776Y-15323312D01*
X25400000Y-15286558D01*
X25400000Y-15266666D01*
X25480312Y-15266666D01*
X25480312Y-15266668D01*
X25698553Y-15484909D01*
X25698554Y-15484908D01*
X25739312Y-15395662D01*
X25739313Y-15395659D01*
X25757860Y-15266670D01*
X25757860Y-15266663D01*
X25739314Y-15137679D01*
X25739312Y-15137672D01*
X25698554Y-15048424D01*
X25480312Y-15266666D01*
X25400000Y-15266666D01*
X25400000Y-15246776D01*
X25384776Y-15210022D01*
X25356645Y-15181891D01*
X25319891Y-15166667D01*
X25280109Y-15166667D01*
X25243355Y-15181891D01*
X25215224Y-15210022D01*
X25200000Y-15246776D01*
X25099798Y-15246776D01*
X24901446Y-15048424D01*
X24901445Y-15048424D01*
X24897947Y-15056085D01*
X24851454Y-15109740D01*
X24783333Y-15129742D01*
X24715212Y-15109740D01*
X24668719Y-15056084D01*
X24665220Y-15048424D01*
X24446979Y-15266666D01*
X24366667Y-15266666D01*
X24366667Y-15246776D01*
X24351443Y-15210022D01*
X24323312Y-15181891D01*
X24286558Y-15166667D01*
X24246776Y-15166667D01*
X24210022Y-15181891D01*
X24181891Y-15210022D01*
X24166667Y-15246776D01*
X24066465Y-15246776D01*
X23868113Y-15048424D01*
X23868111Y-15048424D01*
X23864612Y-15056086D01*
X23818119Y-15109742D01*
X23749998Y-15129743D01*
X23681877Y-15109740D01*
X23635385Y-15056084D01*
X23631886Y-15048424D01*
X23413645Y-15266666D01*
X23333333Y-15266666D01*
X23333333Y-15246776D01*
X23318109Y-15210022D01*
X23289978Y-15181891D01*
X23253224Y-15166667D01*
X23213442Y-15166667D01*
X23176688Y-15181891D01*
X23148557Y-15210022D01*
X23133333Y-15246776D01*
X23033131Y-15246776D01*
X22834779Y-15048424D01*
X22834778Y-15048424D01*
X22831280Y-15056085D01*
X22784787Y-15109740D01*
X22716666Y-15129742D01*
X22648545Y-15109740D01*
X22602052Y-15056084D01*
X22598553Y-15048424D01*
X22380312Y-15266666D01*
X22300000Y-15266666D01*
X22300000Y-15246776D01*
X22284776Y-15210022D01*
X22256645Y-15181891D01*
X22219891Y-15166667D01*
X22180109Y-15166667D01*
X22143355Y-15181891D01*
X22115224Y-15210022D01*
X22100000Y-15246776D01*
X21999798Y-15246776D01*
X21801446Y-15048424D01*
X21801445Y-15048424D01*
X21760687Y-15137672D01*
X21760685Y-15137679D01*
X21742140Y-15266663D01*
X14000000Y-15266663D01*
X14000000Y-14631832D01*
X21981811Y-14631832D01*
X21981812Y-14631833D01*
X22000747Y-14644002D01*
X22047240Y-14697657D01*
X22057345Y-14767931D01*
X22027852Y-14832512D01*
X22000744Y-14856000D01*
X21981812Y-14868165D01*
X21981811Y-14868167D01*
X22199999Y-15086355D01*
X22200000Y-15086355D01*
X22418186Y-14868167D01*
X22418186Y-14868166D01*
X22399252Y-14855998D01*
X22352758Y-14802343D01*
X22342653Y-14732069D01*
X22372145Y-14667488D01*
X22399251Y-14644001D01*
X22418184Y-14631832D01*
X23015144Y-14631832D01*
X23015145Y-14631833D01*
X23034080Y-14644002D01*
X23080573Y-14697657D01*
X23090678Y-14767931D01*
X23061185Y-14832512D01*
X23034077Y-14856000D01*
X23015145Y-14868165D01*
X23015144Y-14868167D01*
X23233332Y-15086355D01*
X23233333Y-15086355D01*
X23451519Y-14868167D01*
X23451519Y-14868166D01*
X23432585Y-14855998D01*
X23386091Y-14802343D01*
X23375986Y-14732069D01*
X23405478Y-14667488D01*
X23432584Y-14644001D01*
X23451517Y-14631832D01*
X24048478Y-14631832D01*
X24048479Y-14631833D01*
X24067414Y-14644002D01*
X24113907Y-14697657D01*
X24124012Y-14767931D01*
X24094519Y-14832512D01*
X24067411Y-14856000D01*
X24048479Y-14868165D01*
X24048478Y-14868167D01*
X24266666Y-15086355D01*
X24266667Y-15086355D01*
X24484853Y-14868167D01*
X24484853Y-14868166D01*
X24465919Y-14855998D01*
X24419425Y-14802343D01*
X24409320Y-14732069D01*
X24438812Y-14667488D01*
X24465918Y-14644001D01*
X24484851Y-14631832D01*
X25081811Y-14631832D01*
X25081812Y-14631833D01*
X25100747Y-14644002D01*
X25147240Y-14697657D01*
X25157345Y-14767931D01*
X25127852Y-14832512D01*
X25100744Y-14856000D01*
X25081812Y-14868165D01*
X25081811Y-14868167D01*
X25299999Y-15086355D01*
X25300000Y-15086355D01*
X25518186Y-14868167D01*
X25518186Y-14868166D01*
X25499252Y-14855998D01*
X25488102Y-14843131D01*
X26742679Y-14843131D01*
X26742679Y-14843138D01*
X26763487Y-14987862D01*
X26763489Y-14987869D01*
X26824232Y-15120878D01*
X26919987Y-15231385D01*
X27042997Y-15310439D01*
X27162447Y-15345513D01*
X27183293Y-15351634D01*
X27183294Y-15351634D01*
X27183297Y-15351635D01*
X27183300Y-15351635D01*
X27329516Y-15351635D01*
X27329519Y-15351635D01*
X27469819Y-15310439D01*
X27592829Y-15231385D01*
X27688584Y-15120878D01*
X27749327Y-14987869D01*
X27760999Y-14906690D01*
X27770137Y-14843138D01*
X27770137Y-14843131D01*
X27749328Y-14698407D01*
X27749327Y-14698406D01*
X27749327Y-14698401D01*
X27732049Y-14660568D01*
X28236271Y-14660568D01*
X28236271Y-14660575D01*
X28257079Y-14805299D01*
X28257081Y-14805306D01*
X28317824Y-14938315D01*
X28413579Y-15048822D01*
X28536589Y-15127876D01*
X28656039Y-15162950D01*
X28676885Y-15169071D01*
X28676886Y-15169071D01*
X28676889Y-15169072D01*
X28676892Y-15169072D01*
X28773548Y-15169072D01*
X28841669Y-15189074D01*
X28888162Y-15242730D01*
X28898265Y-15313001D01*
X28898265Y-15313004D01*
X28883573Y-15415186D01*
X28883573Y-15415193D01*
X28904381Y-15559917D01*
X28904383Y-15559924D01*
X28965126Y-15692933D01*
X29060881Y-15803440D01*
X29183891Y-15882494D01*
X29303341Y-15917568D01*
X29324187Y-15923689D01*
X29324188Y-15923689D01*
X29324191Y-15923690D01*
X29324194Y-15923690D01*
X29470410Y-15923690D01*
X29470413Y-15923690D01*
X29610713Y-15882494D01*
X29733723Y-15803440D01*
X29829478Y-15692933D01*
X29890221Y-15559924D01*
X29898837Y-15499996D01*
X30236271Y-15499996D01*
X30236271Y-15500003D01*
X30257079Y-15644727D01*
X30257081Y-15644734D01*
X30317824Y-15777743D01*
X30413579Y-15888250D01*
X30536589Y-15967304D01*
X30656039Y-16002378D01*
X30676885Y-16008499D01*
X30676886Y-16008499D01*
X30676889Y-16008500D01*
X30676892Y-16008500D01*
X30823108Y-16008500D01*
X30823111Y-16008500D01*
X30963411Y-15967304D01*
X31086421Y-15888250D01*
X31182176Y-15777743D01*
X31242919Y-15644734D01*
X31263729Y-15500000D01*
X31263729Y-15499996D01*
X31242920Y-15355272D01*
X31242919Y-15355271D01*
X31242919Y-15355266D01*
X31182176Y-15222257D01*
X31086421Y-15111750D01*
X31086420Y-15111749D01*
X30987884Y-15048424D01*
X30963411Y-15032696D01*
X30928336Y-15022397D01*
X30823114Y-14991500D01*
X30823111Y-14991500D01*
X30676889Y-14991500D01*
X30676885Y-14991500D01*
X30536589Y-15032696D01*
X30536587Y-15032697D01*
X30413579Y-15111749D01*
X30317824Y-15222256D01*
X30257081Y-15355265D01*
X30257079Y-15355272D01*
X30236271Y-15499996D01*
X29898837Y-15499996D01*
X29902108Y-15477248D01*
X29911031Y-15415193D01*
X29911031Y-15415186D01*
X29890222Y-15270462D01*
X29890221Y-15270461D01*
X29890221Y-15270456D01*
X29829478Y-15137447D01*
X29733723Y-15026940D01*
X29733722Y-15026939D01*
X29612899Y-14949291D01*
X29610713Y-14947886D01*
X29575638Y-14937587D01*
X29470416Y-14906690D01*
X29470413Y-14906690D01*
X29373754Y-14906690D01*
X29305633Y-14886688D01*
X29259140Y-14833032D01*
X29249036Y-14762760D01*
X29249037Y-14762758D01*
X29263729Y-14660575D01*
X29263729Y-14660568D01*
X29242920Y-14515844D01*
X29242919Y-14515843D01*
X29242919Y-14515838D01*
X29182176Y-14382829D01*
X29086421Y-14272322D01*
X29086420Y-14272321D01*
X29020466Y-14229935D01*
X33546300Y-14229935D01*
X33546300Y-16270064D01*
X33558118Y-16329479D01*
X33558119Y-16329480D01*
X33603140Y-16396860D01*
X33670520Y-16441881D01*
X33729936Y-16453700D01*
X33729941Y-16453700D01*
X35770059Y-16453700D01*
X35770064Y-16453700D01*
X35829480Y-16441881D01*
X35896860Y-16396860D01*
X35896861Y-16396858D01*
X35896863Y-16396857D01*
X35905636Y-16388085D01*
X35907006Y-16389455D01*
X35949709Y-16353766D01*
X36020152Y-16344916D01*
X36084197Y-16375556D01*
X36099528Y-16393249D01*
X36103136Y-16396857D01*
X36103139Y-16396859D01*
X36103140Y-16396860D01*
X36170520Y-16441881D01*
X36229936Y-16453700D01*
X36229941Y-16453700D01*
X38270059Y-16453700D01*
X38270064Y-16453700D01*
X38329480Y-16441881D01*
X38396860Y-16396860D01*
X38441881Y-16329480D01*
X38453700Y-16270064D01*
X38453700Y-14229936D01*
X38441881Y-14170520D01*
X38396860Y-14103140D01*
X38329480Y-14058119D01*
X38329479Y-14058118D01*
X38270064Y-14046300D01*
X36229936Y-14046300D01*
X36229935Y-14046300D01*
X36170520Y-14058118D01*
X36103136Y-14103142D01*
X36094364Y-14111915D01*
X36092994Y-14110545D01*
X36050284Y-14146236D01*
X35979841Y-14155082D01*
X35915798Y-14124438D01*
X35900464Y-14106743D01*
X35896863Y-14103142D01*
X35829479Y-14058118D01*
X35770064Y-14046300D01*
X33729936Y-14046300D01*
X33729935Y-14046300D01*
X33670520Y-14058118D01*
X33603140Y-14103140D01*
X33558118Y-14170520D01*
X33546300Y-14229935D01*
X29020466Y-14229935D01*
X28994802Y-14213442D01*
X28963411Y-14193268D01*
X28928336Y-14182969D01*
X28823114Y-14152072D01*
X28823111Y-14152072D01*
X28676889Y-14152072D01*
X28676885Y-14152072D01*
X28536589Y-14193268D01*
X28536587Y-14193269D01*
X28413579Y-14272321D01*
X28317824Y-14382828D01*
X28257081Y-14515837D01*
X28257079Y-14515844D01*
X28236271Y-14660568D01*
X27732049Y-14660568D01*
X27688584Y-14565392D01*
X27592829Y-14454885D01*
X27592828Y-14454884D01*
X27528659Y-14413645D01*
X27469819Y-14375831D01*
X27434744Y-14365532D01*
X27329522Y-14334635D01*
X27329519Y-14334635D01*
X27183297Y-14334635D01*
X27183293Y-14334635D01*
X27042997Y-14375831D01*
X27042995Y-14375832D01*
X26919987Y-14454884D01*
X26824232Y-14565391D01*
X26763489Y-14698400D01*
X26763487Y-14698407D01*
X26742679Y-14843131D01*
X25488102Y-14843131D01*
X25452758Y-14802343D01*
X25442653Y-14732069D01*
X25472145Y-14667488D01*
X25499251Y-14644001D01*
X25518186Y-14631831D01*
X25518187Y-14631831D01*
X25300001Y-14413645D01*
X25300000Y-14413645D01*
X25081811Y-14631832D01*
X24484851Y-14631832D01*
X24484853Y-14631831D01*
X24484854Y-14631831D01*
X24266668Y-14413645D01*
X24266667Y-14413645D01*
X24048478Y-14631832D01*
X23451517Y-14631832D01*
X23451519Y-14631831D01*
X23451520Y-14631831D01*
X23233334Y-14413645D01*
X23233333Y-14413645D01*
X23015144Y-14631832D01*
X22418184Y-14631832D01*
X22418186Y-14631831D01*
X22418187Y-14631831D01*
X22200001Y-14413645D01*
X22200000Y-14413645D01*
X21981811Y-14631832D01*
X14000000Y-14631832D01*
X14000000Y-14233329D01*
X21742140Y-14233329D01*
X21742140Y-14233336D01*
X21760685Y-14362320D01*
X21760687Y-14362327D01*
X21801445Y-14451574D01*
X22019688Y-14233332D01*
X21999798Y-14213442D01*
X22100000Y-14213442D01*
X22100000Y-14253224D01*
X22115224Y-14289978D01*
X22143355Y-14318109D01*
X22180109Y-14333333D01*
X22219891Y-14333333D01*
X22256645Y-14318109D01*
X22284776Y-14289978D01*
X22300000Y-14253224D01*
X22300000Y-14233332D01*
X22380312Y-14233332D01*
X22380312Y-14233334D01*
X22598553Y-14451575D01*
X22602053Y-14443913D01*
X22648546Y-14390258D01*
X22716666Y-14370256D01*
X22784787Y-14390258D01*
X22831280Y-14443914D01*
X22834778Y-14451574D01*
X23053021Y-14233332D01*
X23033131Y-14213442D01*
X23133333Y-14213442D01*
X23133333Y-14253224D01*
X23148557Y-14289978D01*
X23176688Y-14318109D01*
X23213442Y-14333333D01*
X23253224Y-14333333D01*
X23289978Y-14318109D01*
X23318109Y-14289978D01*
X23333333Y-14253224D01*
X23333333Y-14233332D01*
X23413645Y-14233332D01*
X23413645Y-14233334D01*
X23631885Y-14451574D01*
X23635385Y-14443913D01*
X23681878Y-14390257D01*
X23749999Y-14370255D01*
X23818119Y-14390257D01*
X23864612Y-14443912D01*
X23868111Y-14451574D01*
X23868112Y-14451574D01*
X24086355Y-14233332D01*
X24066465Y-14213442D01*
X24166667Y-14213442D01*
X24166667Y-14253224D01*
X24181891Y-14289978D01*
X24210022Y-14318109D01*
X24246776Y-14333333D01*
X24286558Y-14333333D01*
X24323312Y-14318109D01*
X24351443Y-14289978D01*
X24366667Y-14253224D01*
X24366667Y-14233332D01*
X24446979Y-14233332D01*
X24446979Y-14233334D01*
X24665220Y-14451575D01*
X24668720Y-14443913D01*
X24715213Y-14390258D01*
X24783333Y-14370256D01*
X24851454Y-14390258D01*
X24897947Y-14443914D01*
X24901445Y-14451574D01*
X25119688Y-14233332D01*
X25099798Y-14213442D01*
X25200000Y-14213442D01*
X25200000Y-14253224D01*
X25215224Y-14289978D01*
X25243355Y-14318109D01*
X25280109Y-14333333D01*
X25319891Y-14333333D01*
X25356645Y-14318109D01*
X25384776Y-14289978D01*
X25400000Y-14253224D01*
X25400000Y-14233332D01*
X25480312Y-14233332D01*
X25480312Y-14233334D01*
X25698553Y-14451575D01*
X25698554Y-14451574D01*
X25739312Y-14362328D01*
X25739313Y-14362325D01*
X25757860Y-14233336D01*
X25757860Y-14233329D01*
X25739314Y-14104345D01*
X25739312Y-14104338D01*
X25698554Y-14015090D01*
X25480312Y-14233332D01*
X25400000Y-14233332D01*
X25400000Y-14213442D01*
X25384776Y-14176688D01*
X25356645Y-14148557D01*
X25319891Y-14133333D01*
X25280109Y-14133333D01*
X25243355Y-14148557D01*
X25215224Y-14176688D01*
X25200000Y-14213442D01*
X25099798Y-14213442D01*
X24901446Y-14015090D01*
X24901445Y-14015090D01*
X24897947Y-14022751D01*
X24851454Y-14076406D01*
X24783333Y-14096408D01*
X24715212Y-14076406D01*
X24668719Y-14022750D01*
X24665220Y-14015090D01*
X24446979Y-14233332D01*
X24366667Y-14233332D01*
X24366667Y-14213442D01*
X24351443Y-14176688D01*
X24323312Y-14148557D01*
X24286558Y-14133333D01*
X24246776Y-14133333D01*
X24210022Y-14148557D01*
X24181891Y-14176688D01*
X24166667Y-14213442D01*
X24066465Y-14213442D01*
X23868113Y-14015090D01*
X23868111Y-14015090D01*
X23864612Y-14022752D01*
X23818119Y-14076408D01*
X23749998Y-14096409D01*
X23681877Y-14076406D01*
X23635385Y-14022750D01*
X23631886Y-14015090D01*
X23413645Y-14233332D01*
X23333333Y-14233332D01*
X23333333Y-14213442D01*
X23318109Y-14176688D01*
X23289978Y-14148557D01*
X23253224Y-14133333D01*
X23213442Y-14133333D01*
X23176688Y-14148557D01*
X23148557Y-14176688D01*
X23133333Y-14213442D01*
X23033131Y-14213442D01*
X22834779Y-14015090D01*
X22834778Y-14015090D01*
X22831280Y-14022751D01*
X22784787Y-14076406D01*
X22716666Y-14096408D01*
X22648545Y-14076406D01*
X22602052Y-14022750D01*
X22598553Y-14015090D01*
X22380312Y-14233332D01*
X22300000Y-14233332D01*
X22300000Y-14213442D01*
X22284776Y-14176688D01*
X22256645Y-14148557D01*
X22219891Y-14133333D01*
X22180109Y-14133333D01*
X22143355Y-14148557D01*
X22115224Y-14176688D01*
X22100000Y-14213442D01*
X21999798Y-14213442D01*
X21801446Y-14015090D01*
X21801445Y-14015090D01*
X21760687Y-14104338D01*
X21760685Y-14104345D01*
X21742140Y-14233329D01*
X14000000Y-14233329D01*
X14000000Y-13598499D01*
X21981811Y-13598499D01*
X22000746Y-13610667D01*
X22047240Y-13664322D01*
X22057345Y-13734596D01*
X22027853Y-13799177D01*
X22000744Y-13822666D01*
X21981812Y-13834831D01*
X21981811Y-13834833D01*
X22199999Y-14053021D01*
X22200000Y-14053021D01*
X22418186Y-13834833D01*
X22418186Y-13834832D01*
X22399253Y-13822665D01*
X22352759Y-13769011D01*
X22342654Y-13698737D01*
X22372146Y-13634156D01*
X22399251Y-13610668D01*
X22418185Y-13598499D01*
X23015144Y-13598499D01*
X23034079Y-13610667D01*
X23080573Y-13664322D01*
X23090678Y-13734596D01*
X23061186Y-13799177D01*
X23034077Y-13822666D01*
X23015145Y-13834831D01*
X23015144Y-13834833D01*
X23233332Y-14053021D01*
X23233333Y-14053021D01*
X23451519Y-13834833D01*
X23451519Y-13834832D01*
X23432586Y-13822665D01*
X23386092Y-13769011D01*
X23375987Y-13698737D01*
X23405479Y-13634156D01*
X23432584Y-13610668D01*
X23451518Y-13598499D01*
X24048478Y-13598499D01*
X24067413Y-13610667D01*
X24113907Y-13664322D01*
X24124012Y-13734596D01*
X24094520Y-13799177D01*
X24067411Y-13822666D01*
X24048479Y-13834831D01*
X24048478Y-13834833D01*
X24266666Y-14053021D01*
X24266667Y-14053021D01*
X24484853Y-13834833D01*
X24484853Y-13834832D01*
X24465920Y-13822665D01*
X24419426Y-13769011D01*
X24409321Y-13698737D01*
X24438813Y-13634156D01*
X24465918Y-13610668D01*
X24484852Y-13598499D01*
X25081811Y-13598499D01*
X25100746Y-13610667D01*
X25147240Y-13664322D01*
X25157345Y-13734596D01*
X25127853Y-13799177D01*
X25100744Y-13822666D01*
X25081812Y-13834831D01*
X25081811Y-13834833D01*
X25299999Y-14053021D01*
X25300000Y-14053021D01*
X25518186Y-13834833D01*
X25518186Y-13834832D01*
X25499253Y-13822665D01*
X25452759Y-13769011D01*
X25442654Y-13698737D01*
X25472146Y-13634156D01*
X25499251Y-13610668D01*
X25518187Y-13598498D01*
X25300001Y-13380312D01*
X25300000Y-13380312D01*
X25081811Y-13598499D01*
X24484852Y-13598499D01*
X24484854Y-13598498D01*
X24266668Y-13380312D01*
X24266667Y-13380312D01*
X24048478Y-13598499D01*
X23451518Y-13598499D01*
X23451520Y-13598498D01*
X23233334Y-13380312D01*
X23233333Y-13380312D01*
X23015144Y-13598499D01*
X22418185Y-13598499D01*
X22418187Y-13598498D01*
X22200001Y-13380312D01*
X22200000Y-13380312D01*
X21981811Y-13598499D01*
X14000000Y-13598499D01*
X14000000Y-13199996D01*
X21742140Y-13199996D01*
X21742140Y-13200003D01*
X21760685Y-13328987D01*
X21760687Y-13328994D01*
X21801445Y-13418241D01*
X22019688Y-13199999D01*
X21999798Y-13180109D01*
X22100000Y-13180109D01*
X22100000Y-13219891D01*
X22115224Y-13256645D01*
X22143355Y-13284776D01*
X22180109Y-13300000D01*
X22219891Y-13300000D01*
X22256645Y-13284776D01*
X22284776Y-13256645D01*
X22300000Y-13219891D01*
X22300000Y-13199999D01*
X22380312Y-13199999D01*
X22380312Y-13200001D01*
X22598553Y-13418242D01*
X22602053Y-13410580D01*
X22648546Y-13356925D01*
X22716666Y-13336923D01*
X22784787Y-13356925D01*
X22831280Y-13410581D01*
X22834778Y-13418241D01*
X23053021Y-13199999D01*
X23033131Y-13180109D01*
X23133333Y-13180109D01*
X23133333Y-13219891D01*
X23148557Y-13256645D01*
X23176688Y-13284776D01*
X23213442Y-13300000D01*
X23253224Y-13300000D01*
X23289978Y-13284776D01*
X23318109Y-13256645D01*
X23333333Y-13219891D01*
X23333333Y-13199999D01*
X23413645Y-13199999D01*
X23413645Y-13200001D01*
X23631885Y-13418241D01*
X23635385Y-13410580D01*
X23681878Y-13356924D01*
X23749999Y-13336922D01*
X23818119Y-13356924D01*
X23864612Y-13410579D01*
X23868111Y-13418241D01*
X23868112Y-13418241D01*
X24086355Y-13199999D01*
X24066465Y-13180109D01*
X24166667Y-13180109D01*
X24166667Y-13219891D01*
X24181891Y-13256645D01*
X24210022Y-13284776D01*
X24246776Y-13300000D01*
X24286558Y-13300000D01*
X24323312Y-13284776D01*
X24351443Y-13256645D01*
X24366667Y-13219891D01*
X24366667Y-13199999D01*
X24446979Y-13199999D01*
X24446979Y-13200001D01*
X24665220Y-13418242D01*
X24668720Y-13410580D01*
X24715213Y-13356925D01*
X24783333Y-13336923D01*
X24851454Y-13356925D01*
X24897947Y-13410581D01*
X24901445Y-13418241D01*
X25119688Y-13199999D01*
X25099798Y-13180109D01*
X25200000Y-13180109D01*
X25200000Y-13219891D01*
X25215224Y-13256645D01*
X25243355Y-13284776D01*
X25280109Y-13300000D01*
X25319891Y-13300000D01*
X25356645Y-13284776D01*
X25384776Y-13256645D01*
X25400000Y-13219891D01*
X25400000Y-13199999D01*
X25480312Y-13199999D01*
X25480312Y-13200001D01*
X25698553Y-13418242D01*
X25698554Y-13418241D01*
X25739312Y-13328995D01*
X25739313Y-13328992D01*
X25757860Y-13200003D01*
X25757860Y-13199996D01*
X25739314Y-13071012D01*
X25739312Y-13071005D01*
X25698554Y-12981757D01*
X25480312Y-13199999D01*
X25400000Y-13199999D01*
X25400000Y-13180109D01*
X25384776Y-13143355D01*
X25356645Y-13115224D01*
X25319891Y-13100000D01*
X25280109Y-13100000D01*
X25243355Y-13115224D01*
X25215224Y-13143355D01*
X25200000Y-13180109D01*
X25099798Y-13180109D01*
X24901446Y-12981757D01*
X24901445Y-12981757D01*
X24897947Y-12989418D01*
X24851454Y-13043073D01*
X24783333Y-13063075D01*
X24715212Y-13043073D01*
X24668719Y-12989417D01*
X24665220Y-12981757D01*
X24446979Y-13199999D01*
X24366667Y-13199999D01*
X24366667Y-13180109D01*
X24351443Y-13143355D01*
X24323312Y-13115224D01*
X24286558Y-13100000D01*
X24246776Y-13100000D01*
X24210022Y-13115224D01*
X24181891Y-13143355D01*
X24166667Y-13180109D01*
X24066465Y-13180109D01*
X23868113Y-12981757D01*
X23868111Y-12981757D01*
X23864612Y-12989419D01*
X23818119Y-13043075D01*
X23749998Y-13063076D01*
X23681877Y-13043073D01*
X23635385Y-12989417D01*
X23631886Y-12981757D01*
X23413645Y-13199999D01*
X23333333Y-13199999D01*
X23333333Y-13180109D01*
X23318109Y-13143355D01*
X23289978Y-13115224D01*
X23253224Y-13100000D01*
X23213442Y-13100000D01*
X23176688Y-13115224D01*
X23148557Y-13143355D01*
X23133333Y-13180109D01*
X23033131Y-13180109D01*
X22834779Y-12981757D01*
X22834778Y-12981757D01*
X22831280Y-12989418D01*
X22784787Y-13043073D01*
X22716666Y-13063075D01*
X22648545Y-13043073D01*
X22602052Y-12989417D01*
X22598553Y-12981757D01*
X22380312Y-13199999D01*
X22300000Y-13199999D01*
X22300000Y-13180109D01*
X22284776Y-13143355D01*
X22256645Y-13115224D01*
X22219891Y-13100000D01*
X22180109Y-13100000D01*
X22143355Y-13115224D01*
X22115224Y-13143355D01*
X22100000Y-13180109D01*
X21999798Y-13180109D01*
X21801446Y-12981757D01*
X21801445Y-12981757D01*
X21760687Y-13071005D01*
X21760685Y-13071012D01*
X21742140Y-13199996D01*
X14000000Y-13199996D01*
X14000000Y-12499996D01*
X17736271Y-12499996D01*
X17736271Y-12500003D01*
X17757079Y-12644727D01*
X17757081Y-12644734D01*
X17817824Y-12777743D01*
X17913579Y-12888250D01*
X18036589Y-12967304D01*
X18156039Y-13002378D01*
X18176885Y-13008499D01*
X18176886Y-13008499D01*
X18176889Y-13008500D01*
X18176892Y-13008500D01*
X18323108Y-13008500D01*
X18323111Y-13008500D01*
X18463411Y-12967304D01*
X18586421Y-12888250D01*
X18661590Y-12801500D01*
X21981811Y-12801500D01*
X22199999Y-13019688D01*
X22200000Y-13019688D01*
X22418186Y-12801500D01*
X23015144Y-12801500D01*
X23233332Y-13019688D01*
X23233333Y-13019688D01*
X23451519Y-12801500D01*
X24048478Y-12801500D01*
X24266666Y-13019688D01*
X24266667Y-13019688D01*
X24484853Y-12801500D01*
X25081811Y-12801500D01*
X25299999Y-13019688D01*
X25300000Y-13019688D01*
X25518186Y-12801500D01*
X25490202Y-12783516D01*
X25365163Y-12746800D01*
X25234836Y-12746800D01*
X25109798Y-12783516D01*
X25081811Y-12801500D01*
X24484853Y-12801500D01*
X24456869Y-12783516D01*
X24331830Y-12746800D01*
X24201503Y-12746800D01*
X24076465Y-12783516D01*
X24048478Y-12801500D01*
X23451519Y-12801500D01*
X23423535Y-12783516D01*
X23298496Y-12746800D01*
X23168169Y-12746800D01*
X23043131Y-12783516D01*
X23015144Y-12801500D01*
X22418186Y-12801500D01*
X22390202Y-12783516D01*
X22265163Y-12746800D01*
X22134836Y-12746800D01*
X22009798Y-12783516D01*
X21981811Y-12801500D01*
X18661590Y-12801500D01*
X18682176Y-12777743D01*
X18742919Y-12644734D01*
X18763729Y-12500000D01*
X18763729Y-12499996D01*
X18742920Y-12355272D01*
X18742919Y-12355271D01*
X18742919Y-12355266D01*
X18682176Y-12222257D01*
X18586421Y-12111750D01*
X18586420Y-12111749D01*
X18524916Y-12072223D01*
X18463411Y-12032696D01*
X18428336Y-12022397D01*
X18327351Y-11992744D01*
X30015609Y-11992744D01*
X30015609Y-11992751D01*
X30036417Y-12137475D01*
X30036419Y-12137482D01*
X30097162Y-12270491D01*
X30192917Y-12380998D01*
X30315927Y-12460052D01*
X30435377Y-12495126D01*
X30456223Y-12501247D01*
X30456224Y-12501247D01*
X30456227Y-12501248D01*
X30456230Y-12501248D01*
X30602446Y-12501248D01*
X30602449Y-12501248D01*
X30742749Y-12460052D01*
X30865759Y-12380998D01*
X30961514Y-12270491D01*
X31022257Y-12137482D01*
X31037323Y-12032697D01*
X31043067Y-11992751D01*
X31043067Y-11992744D01*
X31022258Y-11848020D01*
X31022257Y-11848019D01*
X31022257Y-11848014D01*
X30977494Y-11749996D01*
X31486271Y-11749996D01*
X31486271Y-11750003D01*
X31507079Y-11894727D01*
X31507081Y-11894734D01*
X31567824Y-12027743D01*
X31663579Y-12138250D01*
X31786589Y-12217304D01*
X31906039Y-12252378D01*
X31926885Y-12258499D01*
X31926886Y-12258499D01*
X31926889Y-12258500D01*
X31926892Y-12258500D01*
X32073108Y-12258500D01*
X32073111Y-12258500D01*
X32213411Y-12217304D01*
X32336421Y-12138250D01*
X32432176Y-12027743D01*
X32444848Y-11999996D01*
X34736271Y-11999996D01*
X34736271Y-12000003D01*
X34757079Y-12144727D01*
X34757081Y-12144734D01*
X34817824Y-12277743D01*
X34913579Y-12388250D01*
X35036589Y-12467304D01*
X35147927Y-12499996D01*
X35176885Y-12508499D01*
X35176886Y-12508499D01*
X35176889Y-12508500D01*
X35176892Y-12508500D01*
X35323108Y-12508500D01*
X35323111Y-12508500D01*
X35463411Y-12467304D01*
X35586421Y-12388250D01*
X35682176Y-12277743D01*
X35742919Y-12144734D01*
X35743963Y-12137475D01*
X35763729Y-12000003D01*
X35763729Y-11999996D01*
X35742920Y-11855272D01*
X35742919Y-11855271D01*
X35742919Y-11855266D01*
X35682176Y-11722257D01*
X35586421Y-11611750D01*
X35586420Y-11611749D01*
X35507672Y-11561141D01*
X35463411Y-11532696D01*
X35420033Y-11519959D01*
X35323114Y-11491500D01*
X35323111Y-11491500D01*
X35176889Y-11491500D01*
X35176885Y-11491500D01*
X35036589Y-11532696D01*
X35036587Y-11532697D01*
X34913579Y-11611749D01*
X34817824Y-11722256D01*
X34757081Y-11855265D01*
X34757079Y-11855272D01*
X34736271Y-11999996D01*
X32444848Y-11999996D01*
X32492919Y-11894734D01*
X32499636Y-11848020D01*
X32513729Y-11750003D01*
X32513729Y-11749996D01*
X32492920Y-11605272D01*
X32492919Y-11605271D01*
X32492919Y-11605266D01*
X32432176Y-11472257D01*
X32336421Y-11361750D01*
X32336420Y-11361749D01*
X32266426Y-11316767D01*
X32213411Y-11282696D01*
X32159234Y-11266788D01*
X32073114Y-11241500D01*
X32073111Y-11241500D01*
X31926889Y-11241500D01*
X31926885Y-11241500D01*
X31786589Y-11282696D01*
X31786587Y-11282697D01*
X31663579Y-11361749D01*
X31567824Y-11472256D01*
X31507081Y-11605265D01*
X31507079Y-11605272D01*
X31486271Y-11749996D01*
X30977494Y-11749996D01*
X30961514Y-11715005D01*
X30865759Y-11604498D01*
X30865758Y-11604497D01*
X30767267Y-11541201D01*
X30742749Y-11525444D01*
X30707674Y-11515145D01*
X30602452Y-11484248D01*
X30602449Y-11484248D01*
X30456227Y-11484248D01*
X30456223Y-11484248D01*
X30315927Y-11525444D01*
X30315925Y-11525445D01*
X30192917Y-11604497D01*
X30097162Y-11715004D01*
X30036419Y-11848013D01*
X30036417Y-11848020D01*
X30015609Y-11992744D01*
X18327351Y-11992744D01*
X18323114Y-11991500D01*
X18323111Y-11991500D01*
X18176889Y-11991500D01*
X18176885Y-11991500D01*
X18036589Y-12032696D01*
X18036587Y-12032697D01*
X17913579Y-12111749D01*
X17817824Y-12222256D01*
X17757081Y-12355265D01*
X17757079Y-12355272D01*
X17736271Y-12499996D01*
X14000000Y-12499996D01*
X14000000Y-10999996D01*
X25986271Y-10999996D01*
X25986271Y-11000003D01*
X26007079Y-11144727D01*
X26007081Y-11144734D01*
X26067824Y-11277743D01*
X26163579Y-11388250D01*
X26286589Y-11467304D01*
X26386876Y-11496751D01*
X26426885Y-11508499D01*
X26426886Y-11508499D01*
X26426889Y-11508500D01*
X26426892Y-11508500D01*
X26573108Y-11508500D01*
X26573111Y-11508500D01*
X26713411Y-11467304D01*
X26836421Y-11388250D01*
X26932176Y-11277743D01*
X26992919Y-11144734D01*
X26995365Y-11127725D01*
X27013729Y-11000003D01*
X27013729Y-10999996D01*
X26992920Y-10855272D01*
X26992919Y-10855271D01*
X26992919Y-10855266D01*
X26932176Y-10722257D01*
X26836421Y-10611750D01*
X26836420Y-10611749D01*
X26753810Y-10558659D01*
X26713411Y-10532696D01*
X26678336Y-10522397D01*
X26573114Y-10491500D01*
X26573111Y-10491500D01*
X26426889Y-10491500D01*
X26426885Y-10491500D01*
X26286589Y-10532696D01*
X26286587Y-10532697D01*
X26163579Y-10611749D01*
X26067824Y-10722256D01*
X26007081Y-10855265D01*
X26007079Y-10855272D01*
X25986271Y-10999996D01*
X14000000Y-10999996D01*
X14000000Y-9999996D01*
X17736271Y-9999996D01*
X17736271Y-10000003D01*
X17757079Y-10144727D01*
X17757081Y-10144734D01*
X17817824Y-10277743D01*
X17913579Y-10388250D01*
X18036589Y-10467304D01*
X18156039Y-10502378D01*
X18176885Y-10508499D01*
X18176886Y-10508499D01*
X18176889Y-10508500D01*
X18176892Y-10508500D01*
X18323108Y-10508500D01*
X18323111Y-10508500D01*
X18463411Y-10467304D01*
X18586421Y-10388250D01*
X18682176Y-10277743D01*
X18742919Y-10144734D01*
X18763729Y-10000000D01*
X18763729Y-9999996D01*
X18742920Y-9855272D01*
X18742919Y-9855271D01*
X18742919Y-9855266D01*
X18682176Y-9722257D01*
X18586421Y-9611750D01*
X18586420Y-9611749D01*
X18508388Y-9561601D01*
X18463411Y-9532696D01*
X18423514Y-9520981D01*
X18323114Y-9491500D01*
X18323111Y-9491500D01*
X18176889Y-9491500D01*
X18176885Y-9491500D01*
X18036589Y-9532696D01*
X18036587Y-9532697D01*
X17913579Y-9611749D01*
X17817824Y-9722256D01*
X17757081Y-9855265D01*
X17757079Y-9855272D01*
X17736271Y-9999996D01*
X14000000Y-9999996D01*
X14000000Y-9416870D01*
X19483763Y-9416870D01*
X19483763Y-9416877D01*
X19504571Y-9561601D01*
X19504573Y-9561608D01*
X19565316Y-9694617D01*
X19661071Y-9805124D01*
X19784081Y-9884178D01*
X19903531Y-9919252D01*
X19924377Y-9925373D01*
X19924378Y-9925373D01*
X19924381Y-9925374D01*
X19924384Y-9925374D01*
X20070600Y-9925374D01*
X20070603Y-9925374D01*
X20210903Y-9884178D01*
X20333913Y-9805124D01*
X20429668Y-9694617D01*
X20490411Y-9561608D01*
X20494129Y-9535747D01*
X20511221Y-9416877D01*
X20511221Y-9416870D01*
X20490412Y-9272146D01*
X20490411Y-9272145D01*
X20490411Y-9272140D01*
X20429668Y-9139131D01*
X20338548Y-9033973D01*
X21389066Y-9033973D01*
X21389066Y-9033980D01*
X21409874Y-9178704D01*
X21409876Y-9178711D01*
X21470619Y-9311720D01*
X21566374Y-9422227D01*
X21689384Y-9501281D01*
X21796373Y-9532696D01*
X21829680Y-9542476D01*
X21829681Y-9542476D01*
X21829684Y-9542477D01*
X21829687Y-9542477D01*
X21975903Y-9542477D01*
X21975906Y-9542477D01*
X22116206Y-9501281D01*
X22239216Y-9422227D01*
X22334971Y-9311720D01*
X22395714Y-9178711D01*
X22397730Y-9164693D01*
X22411569Y-9068439D01*
X25060561Y-9068439D01*
X25060561Y-9068446D01*
X25081369Y-9213170D01*
X25081371Y-9213177D01*
X25142114Y-9346186D01*
X25237869Y-9456693D01*
X25360879Y-9535747D01*
X25476621Y-9569732D01*
X25501175Y-9576942D01*
X25501176Y-9576942D01*
X25501179Y-9576943D01*
X25501182Y-9576943D01*
X25647398Y-9576943D01*
X25647401Y-9576943D01*
X25787701Y-9535747D01*
X25910711Y-9456693D01*
X26006466Y-9346186D01*
X26067209Y-9213177D01*
X26076093Y-9151389D01*
X26088019Y-9068446D01*
X26088019Y-9068439D01*
X26067210Y-8923715D01*
X26067209Y-8923714D01*
X26067209Y-8923709D01*
X26006466Y-8790700D01*
X25910711Y-8680193D01*
X25910710Y-8680192D01*
X25841947Y-8636001D01*
X25787701Y-8601139D01*
X25739378Y-8586950D01*
X25647404Y-8559943D01*
X25647401Y-8559943D01*
X25501179Y-8559943D01*
X25501175Y-8559943D01*
X25360879Y-8601139D01*
X25360877Y-8601140D01*
X25237869Y-8680192D01*
X25142114Y-8790699D01*
X25081371Y-8923708D01*
X25081369Y-8923715D01*
X25060561Y-9068439D01*
X22411569Y-9068439D01*
X22416524Y-9033980D01*
X22416524Y-9033973D01*
X22395715Y-8889249D01*
X22395714Y-8889248D01*
X22395714Y-8889243D01*
X22334971Y-8756234D01*
X22239216Y-8645727D01*
X22239215Y-8645726D01*
X22177711Y-8606200D01*
X22116206Y-8566673D01*
X22081131Y-8556374D01*
X21975909Y-8525477D01*
X21975906Y-8525477D01*
X21829684Y-8525477D01*
X21829680Y-8525477D01*
X21689384Y-8566673D01*
X21689382Y-8566674D01*
X21566374Y-8645726D01*
X21470619Y-8756233D01*
X21409876Y-8889242D01*
X21409874Y-8889249D01*
X21389066Y-9033973D01*
X20338548Y-9033973D01*
X20333913Y-9028624D01*
X20333912Y-9028623D01*
X20256725Y-8979018D01*
X20210903Y-8949570D01*
X20175828Y-8939271D01*
X20070606Y-8908374D01*
X20070603Y-8908374D01*
X19924381Y-8908374D01*
X19924377Y-8908374D01*
X19784081Y-8949570D01*
X19784079Y-8949571D01*
X19661071Y-9028623D01*
X19565316Y-9139130D01*
X19504573Y-9272139D01*
X19504571Y-9272146D01*
X19483763Y-9416870D01*
X14000000Y-9416870D01*
X14000000Y-9000000D01*
X13999999Y-8999998D01*
X13536905Y-8536904D01*
X13502879Y-8474592D01*
X13500000Y-8447809D01*
X13500000Y-7957238D01*
X26856898Y-7957238D01*
X26856898Y-7957245D01*
X26877706Y-8101969D01*
X26877708Y-8101975D01*
X26877708Y-8101976D01*
X26938451Y-8234985D01*
X27034206Y-8345492D01*
X27157216Y-8424546D01*
X27276666Y-8459620D01*
X27297512Y-8465741D01*
X27297513Y-8465741D01*
X27297516Y-8465742D01*
X27297519Y-8465742D01*
X27443735Y-8465742D01*
X27443738Y-8465742D01*
X27584038Y-8424546D01*
X27707048Y-8345492D01*
X27761634Y-8282496D01*
X31768771Y-8282496D01*
X31768771Y-8282503D01*
X31789579Y-8427227D01*
X31789581Y-8427234D01*
X31850324Y-8560243D01*
X31946079Y-8670750D01*
X32069089Y-8749804D01*
X32181112Y-8782697D01*
X32209385Y-8790999D01*
X32209386Y-8790999D01*
X32209389Y-8791000D01*
X32209392Y-8791000D01*
X32355608Y-8791000D01*
X32355611Y-8791000D01*
X32495911Y-8749804D01*
X32618921Y-8670750D01*
X32714676Y-8560243D01*
X32749565Y-8483845D01*
X32796056Y-8430191D01*
X32864176Y-8410188D01*
X32932297Y-8430189D01*
X32978791Y-8483844D01*
X32988895Y-8518256D01*
X33007079Y-8644727D01*
X33007081Y-8644734D01*
X33067824Y-8777743D01*
X33163579Y-8888250D01*
X33286589Y-8967304D01*
X33386876Y-8996751D01*
X33426885Y-9008499D01*
X33426886Y-9008499D01*
X33426889Y-9008500D01*
X33426892Y-9008500D01*
X33573108Y-9008500D01*
X33573111Y-9008500D01*
X33591596Y-9003071D01*
X33662590Y-9003070D01*
X33722318Y-9041451D01*
X33751813Y-9106031D01*
X33751813Y-9141898D01*
X33741566Y-9213177D01*
X33736271Y-9250003D01*
X33757079Y-9394727D01*
X33757081Y-9394734D01*
X33817824Y-9527743D01*
X33913579Y-9638250D01*
X34036589Y-9717304D01*
X34147941Y-9750000D01*
X34176885Y-9758499D01*
X34176886Y-9758499D01*
X34176889Y-9758500D01*
X34176892Y-9758500D01*
X34323108Y-9758500D01*
X34323111Y-9758500D01*
X34463411Y-9717304D01*
X34586421Y-9638250D01*
X34586423Y-9638248D01*
X34654776Y-9559365D01*
X34714502Y-9520981D01*
X34785498Y-9520981D01*
X34845224Y-9559365D01*
X34913576Y-9638248D01*
X34913578Y-9638249D01*
X34913579Y-9638250D01*
X35036589Y-9717304D01*
X35147941Y-9750000D01*
X35176885Y-9758499D01*
X35176886Y-9758499D01*
X35176889Y-9758500D01*
X35176892Y-9758500D01*
X35323108Y-9758500D01*
X35323111Y-9758500D01*
X35463411Y-9717304D01*
X35586421Y-9638250D01*
X35682176Y-9527743D01*
X35742919Y-9394734D01*
X35752743Y-9326409D01*
X35763729Y-9250003D01*
X35763729Y-9249996D01*
X35742920Y-9105272D01*
X35742919Y-9105271D01*
X35742919Y-9105266D01*
X35682176Y-8972257D01*
X35586421Y-8861750D01*
X35586420Y-8861749D01*
X35522815Y-8820873D01*
X35463411Y-8782696D01*
X35458139Y-8781148D01*
X39291300Y-8781148D01*
X39291300Y-10468856D01*
X39291498Y-10477950D01*
X39291784Y-10484506D01*
X39311140Y-10563607D01*
X39311141Y-10563609D01*
X39332881Y-10610229D01*
X39372554Y-10666887D01*
X39374453Y-10669599D01*
X39374458Y-10669605D01*
X39580379Y-10875526D01*
X39580401Y-10875547D01*
X39586950Y-10881818D01*
X39591786Y-10886251D01*
X39591788Y-10886252D01*
X39591787Y-10886252D01*
X39596160Y-10888906D01*
X39661433Y-10928522D01*
X39709771Y-10946115D01*
X39781148Y-10958700D01*
X45126681Y-10958700D01*
X45194802Y-10978702D01*
X45197692Y-10980616D01*
X45198311Y-10981039D01*
X45213682Y-10990583D01*
X45213684Y-10990584D01*
X45245496Y-11000003D01*
X45302740Y-11016953D01*
X45354076Y-11020216D01*
X45426109Y-11012183D01*
X45446817Y-11006103D01*
X45482312Y-11001000D01*
X45517687Y-11001000D01*
X45553178Y-11006102D01*
X45587121Y-11016068D01*
X45619740Y-11030965D01*
X45655901Y-11054204D01*
X45676165Y-11070401D01*
X45684019Y-11078131D01*
X45702222Y-11093405D01*
X45711867Y-11101026D01*
X45788511Y-11134778D01*
X45842791Y-11180538D01*
X45863716Y-11248381D01*
X45844641Y-11316767D01*
X45791621Y-11363984D01*
X45772957Y-11371066D01*
X45761650Y-11374358D01*
X45761645Y-11374360D01*
X45716704Y-11399364D01*
X45716691Y-11399373D01*
X45678805Y-11430152D01*
X45667480Y-11438353D01*
X45619745Y-11469031D01*
X45587123Y-11483930D01*
X45553184Y-11493896D01*
X45517684Y-11499000D01*
X45482318Y-11499000D01*
X45446819Y-11493896D01*
X45438659Y-11491500D01*
X45426108Y-11487814D01*
X45426101Y-11487813D01*
X45387984Y-11480389D01*
X45387954Y-11480384D01*
X45360239Y-11477628D01*
X45342171Y-11476619D01*
X45342168Y-11476619D01*
X45251374Y-11496156D01*
X45251367Y-11496159D01*
X45204750Y-11517899D01*
X45203875Y-11518512D01*
X45203424Y-11518663D01*
X45199983Y-11520651D01*
X45199583Y-11519959D01*
X45136602Y-11541201D01*
X45131602Y-11541300D01*
X39781144Y-11541300D01*
X39772049Y-11541498D01*
X39765493Y-11541784D01*
X39686392Y-11561140D01*
X39639772Y-11582880D01*
X39580400Y-11624453D01*
X39580394Y-11624458D01*
X39374473Y-11830379D01*
X39368192Y-11836939D01*
X39363747Y-11841788D01*
X39321477Y-11911434D01*
X39303885Y-11959769D01*
X39303884Y-11959774D01*
X39291300Y-12031148D01*
X39291300Y-13718856D01*
X39291498Y-13727950D01*
X39291784Y-13734506D01*
X39311140Y-13813607D01*
X39332880Y-13860227D01*
X39374453Y-13919599D01*
X39374458Y-13919605D01*
X39830379Y-14375526D01*
X39830400Y-14375546D01*
X39830401Y-14375547D01*
X39836950Y-14381818D01*
X39841786Y-14386251D01*
X39841788Y-14386252D01*
X39841787Y-14386252D01*
X39848386Y-14390257D01*
X39911433Y-14428522D01*
X39959771Y-14446115D01*
X40031148Y-14458700D01*
X44468856Y-14458700D01*
X44469584Y-14458684D01*
X44477950Y-14458502D01*
X44484504Y-14458216D01*
X44563609Y-14438859D01*
X44610229Y-14417119D01*
X44669599Y-14375547D01*
X45299542Y-13745603D01*
X45361853Y-13711580D01*
X45388636Y-13708700D01*
X48468856Y-13708700D01*
X48469584Y-13708684D01*
X48477950Y-13708502D01*
X48484504Y-13708216D01*
X48563609Y-13688859D01*
X48610229Y-13667119D01*
X48669599Y-13625547D01*
X49375547Y-12919599D01*
X49381818Y-12913050D01*
X49386251Y-12908214D01*
X49428522Y-12838567D01*
X49446115Y-12790229D01*
X49458700Y-12718852D01*
X49458700Y-11575200D01*
X49457906Y-11557017D01*
X49456764Y-11543959D01*
X49456078Y-11541784D01*
X49429600Y-11457799D01*
X49429599Y-11457798D01*
X49429598Y-11457793D01*
X49403878Y-11413244D01*
X49372538Y-11371869D01*
X49349045Y-11356696D01*
X49302675Y-11302937D01*
X49292729Y-11232640D01*
X49322368Y-11168126D01*
X49341322Y-11150419D01*
X49378131Y-11122538D01*
X49428522Y-11044515D01*
X49446115Y-10996177D01*
X49458700Y-10924800D01*
X49458700Y-9781148D01*
X49458502Y-9772050D01*
X49458216Y-9765496D01*
X49438859Y-9686391D01*
X49417119Y-9639771D01*
X49375547Y-9580401D01*
X49375546Y-9580400D01*
X49375541Y-9580394D01*
X48669620Y-8874473D01*
X48663060Y-8868192D01*
X48663050Y-8868182D01*
X48658214Y-8863749D01*
X48658211Y-8863747D01*
X48658212Y-8863747D01*
X48588565Y-8821477D01*
X48540230Y-8803885D01*
X48540225Y-8803884D01*
X48468852Y-8791300D01*
X45388636Y-8791300D01*
X45320515Y-8771298D01*
X45299545Y-8754399D01*
X44669599Y-8124453D01*
X44663050Y-8118182D01*
X44658214Y-8113749D01*
X44658211Y-8113747D01*
X44658212Y-8113747D01*
X44588565Y-8071477D01*
X44540230Y-8053885D01*
X44540225Y-8053884D01*
X44468852Y-8041300D01*
X40031148Y-8041300D01*
X40031144Y-8041300D01*
X40022049Y-8041498D01*
X40015493Y-8041784D01*
X39936392Y-8061140D01*
X39889772Y-8082880D01*
X39830400Y-8124453D01*
X39830394Y-8124458D01*
X39374473Y-8580379D01*
X39368192Y-8586939D01*
X39363747Y-8591788D01*
X39321477Y-8661434D01*
X39303885Y-8709769D01*
X39303884Y-8709774D01*
X39291300Y-8781148D01*
X35458139Y-8781148D01*
X35424593Y-8771298D01*
X35323114Y-8741500D01*
X35323111Y-8741500D01*
X35176889Y-8741500D01*
X35176885Y-8741500D01*
X35036589Y-8782696D01*
X35036587Y-8782697D01*
X34913579Y-8861749D01*
X34845224Y-8940635D01*
X34785498Y-8979018D01*
X34714501Y-8979018D01*
X34654776Y-8940635D01*
X34586420Y-8861749D01*
X34522815Y-8820873D01*
X34463411Y-8782696D01*
X34424593Y-8771298D01*
X34323114Y-8741500D01*
X34323111Y-8741500D01*
X34176889Y-8741500D01*
X34176887Y-8741500D01*
X34176881Y-8741501D01*
X34158400Y-8746928D01*
X34087404Y-8746928D01*
X34027678Y-8708544D01*
X33998185Y-8643963D01*
X33998186Y-8608099D01*
X34000532Y-8591788D01*
X34013729Y-8500000D01*
X34013729Y-8499996D01*
X33992920Y-8355272D01*
X33992919Y-8355271D01*
X33992919Y-8355266D01*
X33932176Y-8222257D01*
X33836421Y-8111750D01*
X33836420Y-8111749D01*
X33773755Y-8071477D01*
X33713411Y-8032696D01*
X33678336Y-8022397D01*
X33573114Y-7991500D01*
X33573111Y-7991500D01*
X33426889Y-7991500D01*
X33426885Y-7991500D01*
X33286589Y-8032696D01*
X33286587Y-8032697D01*
X33163579Y-8111749D01*
X33067825Y-8222255D01*
X33067824Y-8222256D01*
X33067824Y-8222257D01*
X33040930Y-8281148D01*
X33032935Y-8298654D01*
X32986442Y-8352309D01*
X32918321Y-8372311D01*
X32850200Y-8352309D01*
X32803707Y-8298653D01*
X32793604Y-8264249D01*
X32775419Y-8137766D01*
X32714676Y-8004757D01*
X32618921Y-7894250D01*
X32618920Y-7894249D01*
X32557416Y-7854723D01*
X32495911Y-7815196D01*
X32460836Y-7804897D01*
X32355614Y-7774000D01*
X32355611Y-7774000D01*
X32209389Y-7774000D01*
X32209385Y-7774000D01*
X32069089Y-7815196D01*
X32069087Y-7815197D01*
X31946079Y-7894249D01*
X31850324Y-8004756D01*
X31789581Y-8137765D01*
X31789579Y-8137772D01*
X31768771Y-8282496D01*
X27761634Y-8282496D01*
X27802803Y-8234985D01*
X27863546Y-8101976D01*
X27868440Y-8067937D01*
X27897932Y-8003358D01*
X27957658Y-7964974D01*
X28028656Y-7964974D01*
X28036587Y-7967302D01*
X28036589Y-7967304D01*
X28118993Y-7991500D01*
X28176885Y-8008499D01*
X28176886Y-8008499D01*
X28176889Y-8008500D01*
X28176892Y-8008500D01*
X28323108Y-8008500D01*
X28323111Y-8008500D01*
X28463411Y-7967304D01*
X28586421Y-7888250D01*
X28682176Y-7777743D01*
X28742919Y-7644734D01*
X28753809Y-7568992D01*
X28763729Y-7500003D01*
X28763729Y-7499996D01*
X29236271Y-7499996D01*
X29236271Y-7500003D01*
X29257079Y-7644727D01*
X29257081Y-7644734D01*
X29317824Y-7777743D01*
X29413579Y-7888250D01*
X29536589Y-7967304D01*
X29656039Y-8002378D01*
X29676885Y-8008499D01*
X29676886Y-8008499D01*
X29676889Y-8008500D01*
X29676892Y-8008500D01*
X29823108Y-8008500D01*
X29823111Y-8008500D01*
X29963411Y-7967304D01*
X30086421Y-7888250D01*
X30182176Y-7777743D01*
X30242919Y-7644734D01*
X30253809Y-7568992D01*
X30263729Y-7500003D01*
X30263729Y-7499996D01*
X30242920Y-7355272D01*
X30242919Y-7355271D01*
X30242919Y-7355266D01*
X30182176Y-7222257D01*
X30086421Y-7111750D01*
X30086420Y-7111749D01*
X30024916Y-7072223D01*
X29963411Y-7032696D01*
X29928336Y-7022397D01*
X29823114Y-6991500D01*
X29823111Y-6991500D01*
X29676889Y-6991500D01*
X29676885Y-6991500D01*
X29536589Y-7032696D01*
X29536587Y-7032697D01*
X29413579Y-7111749D01*
X29317824Y-7222256D01*
X29257081Y-7355265D01*
X29257079Y-7355272D01*
X29236271Y-7499996D01*
X28763729Y-7499996D01*
X28742920Y-7355272D01*
X28742919Y-7355271D01*
X28742919Y-7355266D01*
X28682176Y-7222257D01*
X28586421Y-7111750D01*
X28586420Y-7111749D01*
X28524916Y-7072223D01*
X28463411Y-7032696D01*
X28428336Y-7022397D01*
X28323114Y-6991500D01*
X28323111Y-6991500D01*
X28176889Y-6991500D01*
X28176885Y-6991500D01*
X28036589Y-7032696D01*
X28036587Y-7032697D01*
X27913579Y-7111749D01*
X27817824Y-7222256D01*
X27757081Y-7355265D01*
X27757079Y-7355271D01*
X27752186Y-7389305D01*
X27722692Y-7453885D01*
X27662965Y-7492268D01*
X27591971Y-7492267D01*
X27443743Y-7448743D01*
X27443740Y-7448742D01*
X27443738Y-7448742D01*
X27297516Y-7448742D01*
X27297512Y-7448742D01*
X27157216Y-7489938D01*
X27157214Y-7489939D01*
X27034206Y-7568991D01*
X26938451Y-7679498D01*
X26877708Y-7812507D01*
X26877706Y-7812514D01*
X26856898Y-7957238D01*
X13500000Y-7957238D01*
X13500000Y-5499996D01*
X31736271Y-5499996D01*
X31736271Y-5500003D01*
X31757079Y-5644727D01*
X31757081Y-5644734D01*
X31817824Y-5777743D01*
X31913579Y-5888250D01*
X32036589Y-5967304D01*
X32156039Y-6002378D01*
X32176885Y-6008499D01*
X32176886Y-6008499D01*
X32176889Y-6008500D01*
X32176892Y-6008500D01*
X32323108Y-6008500D01*
X32323111Y-6008500D01*
X32463411Y-5967304D01*
X32586421Y-5888250D01*
X32682176Y-5777743D01*
X32742919Y-5644734D01*
X32750283Y-5593520D01*
X32779776Y-5528939D01*
X32824807Y-5499999D01*
X32925192Y-5499999D01*
X32970224Y-5528940D01*
X32999717Y-5593520D01*
X33007079Y-5644727D01*
X33007081Y-5644734D01*
X33067824Y-5777743D01*
X33163579Y-5888250D01*
X33286589Y-5967304D01*
X33406039Y-6002378D01*
X33426885Y-6008499D01*
X33426886Y-6008499D01*
X33426889Y-6008500D01*
X33426892Y-6008500D01*
X33573108Y-6008500D01*
X33573111Y-6008500D01*
X33713411Y-5967304D01*
X33836421Y-5888250D01*
X33932176Y-5777743D01*
X33992919Y-5644734D01*
X34013729Y-5500000D01*
X34013729Y-5499999D01*
X34013729Y-5499996D01*
X33992920Y-5355272D01*
X33992919Y-5355271D01*
X33992919Y-5355266D01*
X33932176Y-5222257D01*
X33836421Y-5111750D01*
X33836420Y-5111749D01*
X33774916Y-5072223D01*
X33713411Y-5032696D01*
X33678336Y-5022397D01*
X33573114Y-4991500D01*
X33573111Y-4991500D01*
X33426889Y-4991500D01*
X33426885Y-4991500D01*
X33286589Y-5032696D01*
X33286587Y-5032697D01*
X33163579Y-5111749D01*
X33067824Y-5222256D01*
X33007081Y-5355265D01*
X33007079Y-5355272D01*
X32999717Y-5406479D01*
X32970224Y-5471060D01*
X32925192Y-5499999D01*
X32824807Y-5499999D01*
X32779775Y-5471059D01*
X32750283Y-5406479D01*
X32742920Y-5355272D01*
X32742919Y-5355271D01*
X32742919Y-5355266D01*
X32682176Y-5222257D01*
X32586421Y-5111750D01*
X32586420Y-5111749D01*
X32524916Y-5072223D01*
X32463411Y-5032696D01*
X32428336Y-5022397D01*
X32323114Y-4991500D01*
X32323111Y-4991500D01*
X32176889Y-4991500D01*
X32176885Y-4991500D01*
X32036589Y-5032696D01*
X32036587Y-5032697D01*
X31913579Y-5111749D01*
X31817824Y-5222256D01*
X31757081Y-5355265D01*
X31757079Y-5355272D01*
X31736271Y-5499996D01*
X13500000Y-5499996D01*
X13500000Y-1999996D01*
X47736271Y-1999996D01*
X47736271Y-2000003D01*
X47757079Y-2144727D01*
X47757080Y-2144731D01*
X47757080Y-2144732D01*
X47757081Y-2144734D01*
X47779914Y-2194733D01*
X47791300Y-2247072D01*
X47791300Y-2468856D01*
X47791498Y-2477950D01*
X47791784Y-2484506D01*
X47811140Y-2563607D01*
X47832880Y-2610227D01*
X47874453Y-2669599D01*
X47874458Y-2669605D01*
X53704854Y-8500000D01*
X53754395Y-8549541D01*
X53788421Y-8611853D01*
X53791300Y-8638636D01*
X53791300Y-14225158D01*
X53771298Y-14293279D01*
X53760525Y-14307670D01*
X53738594Y-14332979D01*
X53677851Y-14465988D01*
X53677849Y-14465995D01*
X53657041Y-14610719D01*
X53657041Y-14610726D01*
X53677849Y-14755450D01*
X53677851Y-14755457D01*
X53720570Y-14849000D01*
X53738594Y-14888466D01*
X53760525Y-14913775D01*
X53790017Y-14978353D01*
X53791300Y-14996286D01*
X53791300Y-20218856D01*
X53791498Y-20227950D01*
X53791784Y-20234506D01*
X53811140Y-20313607D01*
X53811141Y-20313609D01*
X53832881Y-20360229D01*
X53855102Y-20391963D01*
X53874453Y-20419599D01*
X53874458Y-20419605D01*
X54080379Y-20625526D01*
X54080395Y-20625541D01*
X54080401Y-20625547D01*
X54086950Y-20631818D01*
X54091786Y-20636251D01*
X54159476Y-20677334D01*
X54207330Y-20729775D01*
X54220100Y-20785046D01*
X54220100Y-20831870D01*
X54200098Y-20899991D01*
X54183195Y-20920965D01*
X53649565Y-21454595D01*
X53587253Y-21488621D01*
X53560470Y-21491500D01*
X53426885Y-21491500D01*
X53286589Y-21532696D01*
X53286587Y-21532697D01*
X53163579Y-21611749D01*
X53067824Y-21722256D01*
X53007081Y-21855265D01*
X53007079Y-21855272D01*
X52986271Y-21999996D01*
X52986271Y-22000003D01*
X53007079Y-22144727D01*
X53007081Y-22144734D01*
X53067824Y-22277743D01*
X53163579Y-22388250D01*
X53286589Y-22467304D01*
X53368159Y-22491255D01*
X53427885Y-22529639D01*
X53457378Y-22594220D01*
X53447274Y-22664494D01*
X53400781Y-22718149D01*
X53392056Y-22723273D01*
X53211762Y-22819642D01*
X53051317Y-22951317D01*
X52919642Y-23111762D01*
X52821798Y-23294815D01*
X52761545Y-23493445D01*
X52741202Y-23699997D01*
X52741202Y-23700002D01*
X52761545Y-23906554D01*
X52761546Y-23906560D01*
X52761547Y-23906561D01*
X52821798Y-24105184D01*
X52919642Y-24288237D01*
X53051317Y-24448683D01*
X53211763Y-24580358D01*
X53394816Y-24678202D01*
X53593439Y-24738453D01*
X53593443Y-24738453D01*
X53593445Y-24738454D01*
X53799997Y-24758798D01*
X53800000Y-24758798D01*
X53800003Y-24758798D01*
X54006554Y-24738454D01*
X54006555Y-24738453D01*
X54006561Y-24738453D01*
X54205184Y-24678202D01*
X54388237Y-24580358D01*
X54548683Y-24448683D01*
X54680358Y-24288237D01*
X54778202Y-24105184D01*
X54838453Y-23906561D01*
X54853874Y-23750000D01*
X54858798Y-23700002D01*
X54858798Y-23699997D01*
X54838454Y-23493445D01*
X54838453Y-23493443D01*
X54838453Y-23493439D01*
X54778202Y-23294816D01*
X54680358Y-23111763D01*
X54548683Y-22951317D01*
X54388237Y-22819642D01*
X54205184Y-22721798D01*
X54006561Y-22661547D01*
X54006560Y-22661546D01*
X54006554Y-22661545D01*
X53850849Y-22646210D01*
X53785017Y-22619628D01*
X53744007Y-22561673D01*
X53740840Y-22490747D01*
X53776521Y-22429368D01*
X53795079Y-22414819D01*
X53836419Y-22388251D01*
X53836420Y-22388251D01*
X53836421Y-22388250D01*
X53932176Y-22277743D01*
X53992919Y-22144734D01*
X53993227Y-22142589D01*
X54013729Y-22000003D01*
X54013729Y-21999999D01*
X54012454Y-21991137D01*
X54007885Y-21959357D01*
X54017987Y-21889085D01*
X54043504Y-21852332D01*
X54723976Y-21171862D01*
X54760825Y-21108037D01*
X54779900Y-21036850D01*
X54779900Y-20963150D01*
X54779900Y-20834700D01*
X54799902Y-20766579D01*
X54853558Y-20720086D01*
X54905900Y-20708700D01*
X56718856Y-20708700D01*
X56719584Y-20708684D01*
X56727950Y-20708502D01*
X56734504Y-20708216D01*
X56813609Y-20688859D01*
X56860229Y-20667119D01*
X56919599Y-20625547D01*
X59078083Y-18467061D01*
X59083243Y-18461714D01*
X59086898Y-18457789D01*
X59089721Y-18454646D01*
X59099238Y-18445131D01*
X59106845Y-18438299D01*
X60875547Y-16669598D01*
X60881818Y-16663049D01*
X60886251Y-16658213D01*
X60928522Y-16588566D01*
X60946115Y-16540228D01*
X60958700Y-16468851D01*
X60958700Y-10923515D01*
X60955810Y-10888906D01*
X60951674Y-10864310D01*
X60948901Y-10850632D01*
X60907843Y-10767320D01*
X60907842Y-10767319D01*
X60907842Y-10767318D01*
X60875413Y-10727403D01*
X60875410Y-10727400D01*
X60875407Y-10727396D01*
X60870041Y-10722256D01*
X60835723Y-10689385D01*
X60800364Y-10627820D01*
X60803903Y-10556912D01*
X60845215Y-10499173D01*
X60846738Y-10498000D01*
X60872219Y-10478700D01*
X60878130Y-10474223D01*
X60878131Y-10474222D01*
X60885771Y-10462392D01*
X60928522Y-10396199D01*
X60946115Y-10347861D01*
X60958700Y-10276484D01*
X60958700Y-8281148D01*
X60958502Y-8272050D01*
X60958216Y-8265496D01*
X60938859Y-8186391D01*
X60917119Y-8139771D01*
X60875547Y-8080401D01*
X60875546Y-8080400D01*
X60875541Y-8080394D01*
X56152554Y-3357407D01*
X59324500Y-3357407D01*
X59324500Y-3642592D01*
X59361721Y-3925323D01*
X59361723Y-3925330D01*
X59435533Y-4200792D01*
X59544667Y-4464264D01*
X59544668Y-4464265D01*
X59544673Y-4464275D01*
X59687254Y-4711232D01*
X59860863Y-4937485D01*
X59860872Y-4937495D01*
X60062504Y-5139127D01*
X60062514Y-5139136D01*
X60062515Y-5139137D01*
X60170838Y-5222256D01*
X60288767Y-5312745D01*
X60362426Y-5355272D01*
X60535736Y-5455333D01*
X60799208Y-5564467D01*
X61074670Y-5638277D01*
X61074674Y-5638277D01*
X61074676Y-5638278D01*
X61123663Y-5644727D01*
X61357410Y-5675500D01*
X61357417Y-5675500D01*
X61642583Y-5675500D01*
X61642590Y-5675500D01*
X61898115Y-5641859D01*
X61925323Y-5638278D01*
X61925323Y-5638277D01*
X61925330Y-5638277D01*
X62200792Y-5564467D01*
X62464264Y-5455333D01*
X62711236Y-5312743D01*
X62937485Y-5139137D01*
X63139137Y-4937485D01*
X63312743Y-4711236D01*
X63455333Y-4464264D01*
X63564467Y-4200792D01*
X63638277Y-3925330D01*
X63675500Y-3642590D01*
X63675500Y-3357410D01*
X63638277Y-3074670D01*
X63564467Y-2799208D01*
X63455333Y-2535736D01*
X63312743Y-2288764D01*
X63139137Y-2062515D01*
X63139136Y-2062514D01*
X63139127Y-2062504D01*
X62937495Y-1860872D01*
X62937485Y-1860863D01*
X62711232Y-1687254D01*
X62464275Y-1544673D01*
X62464270Y-1544670D01*
X62464264Y-1544667D01*
X62200792Y-1435533D01*
X61925330Y-1361723D01*
X61925323Y-1361721D01*
X61642592Y-1324500D01*
X61642590Y-1324500D01*
X61357410Y-1324500D01*
X61357407Y-1324500D01*
X61074676Y-1361721D01*
X60889150Y-1411433D01*
X60799208Y-1435533D01*
X60603081Y-1516772D01*
X60535734Y-1544668D01*
X60535724Y-1544673D01*
X60288767Y-1687254D01*
X60062514Y-1860863D01*
X60062504Y-1860872D01*
X59860872Y-2062504D01*
X59860863Y-2062514D01*
X59687254Y-2288767D01*
X59544673Y-2535724D01*
X59544668Y-2535734D01*
X59544667Y-2535736D01*
X59485085Y-2679579D01*
X59435533Y-2799208D01*
X59435532Y-2799212D01*
X59361721Y-3074676D01*
X59324500Y-3357407D01*
X56152554Y-3357407D01*
X53669620Y-874473D01*
X53663060Y-868192D01*
X53663050Y-868182D01*
X53658214Y-863749D01*
X53658211Y-863747D01*
X53658212Y-863747D01*
X53588565Y-821477D01*
X53540230Y-803885D01*
X53540225Y-803884D01*
X53468852Y-791300D01*
X48531148Y-791300D01*
X48531144Y-791300D01*
X48522049Y-791498D01*
X48515493Y-791784D01*
X48436392Y-811140D01*
X48389772Y-832880D01*
X48330400Y-874453D01*
X48330394Y-874458D01*
X47874473Y-1330379D01*
X47868192Y-1336939D01*
X47863747Y-1341788D01*
X47821477Y-1411434D01*
X47803885Y-1459769D01*
X47803884Y-1459774D01*
X47791300Y-1531148D01*
X47791300Y-1752926D01*
X47779914Y-1805267D01*
X47757082Y-1855262D01*
X47757079Y-1855272D01*
X47736271Y-1999996D01*
X13500000Y-1999996D01*
X13500000Y-999996D01*
X30236271Y-999996D01*
X30236271Y-1000003D01*
X30257079Y-1144727D01*
X30257081Y-1144734D01*
X30317824Y-1277743D01*
X30413579Y-1388250D01*
X30536589Y-1467304D01*
X30656039Y-1502378D01*
X30676885Y-1508499D01*
X30676886Y-1508499D01*
X30676889Y-1508500D01*
X30676892Y-1508500D01*
X30823108Y-1508500D01*
X30823111Y-1508500D01*
X30963411Y-1467304D01*
X31086421Y-1388250D01*
X31182176Y-1277743D01*
X31242919Y-1144734D01*
X31243227Y-1142589D01*
X31263729Y-1000003D01*
X31263729Y-999996D01*
X31242920Y-855272D01*
X31242919Y-855271D01*
X31242919Y-855266D01*
X31182176Y-722257D01*
X31086421Y-611750D01*
X31086420Y-611749D01*
X31024916Y-572223D01*
X30963411Y-532696D01*
X30928336Y-522397D01*
X30823114Y-491500D01*
X30823111Y-491500D01*
X30676889Y-491500D01*
X30676885Y-491500D01*
X30536589Y-532696D01*
X30536587Y-532697D01*
X30413579Y-611749D01*
X30317824Y-722256D01*
X30257081Y-855265D01*
X30257079Y-855272D01*
X30236271Y-999996D01*
X13500000Y-999996D01*
X13500000Y-326500D01*
X13520002Y-258379D01*
X13573658Y-211886D01*
X13626000Y-200500D01*
X61960118Y-200500D01*
X61996461Y-200500D01*
X62003525Y-200697D01*
G37*
%TD.AperFunction*%
%TD*%
%TA.AperFunction,Conductor*%
%TO.N,/J1_SH_C*%
G36*
X3442121Y-270002D02*
G01*
X3488614Y-323658D01*
X3500000Y-376000D01*
X3500000Y-1198500D01*
X3479998Y-1266621D01*
X3426342Y-1313114D01*
X3374000Y-1324500D01*
X3357407Y-1324500D01*
X3074676Y-1361721D01*
X2799212Y-1435532D01*
X2799208Y-1435533D01*
X2535734Y-1544668D01*
X2535724Y-1544673D01*
X2288767Y-1687254D01*
X2062514Y-1860863D01*
X2062504Y-1860872D01*
X1860872Y-2062504D01*
X1860863Y-2062514D01*
X1687254Y-2288767D01*
X1544673Y-2535724D01*
X1544668Y-2535734D01*
X1435533Y-2799208D01*
X1435532Y-2799212D01*
X1361721Y-3074676D01*
X1324500Y-3357407D01*
X1324500Y-3642592D01*
X1361721Y-3925323D01*
X1361723Y-3925330D01*
X1435533Y-4200792D01*
X1544667Y-4464264D01*
X1544668Y-4464265D01*
X1544673Y-4464275D01*
X1687254Y-4711232D01*
X1860863Y-4937485D01*
X1860872Y-4937495D01*
X2062504Y-5139127D01*
X2062514Y-5139136D01*
X2062515Y-5139137D01*
X2124645Y-5186811D01*
X2288767Y-5312745D01*
X2334493Y-5339145D01*
X2535736Y-5455333D01*
X2799208Y-5564467D01*
X3074670Y-5638277D01*
X3074674Y-5638277D01*
X3074676Y-5638278D01*
X3147546Y-5647871D01*
X3357410Y-5675500D01*
X3357417Y-5675500D01*
X3642583Y-5675500D01*
X3642590Y-5675500D01*
X3898115Y-5641859D01*
X3925323Y-5638278D01*
X3925323Y-5638277D01*
X3925330Y-5638277D01*
X4200792Y-5564467D01*
X4464264Y-5455333D01*
X4711236Y-5312743D01*
X4937485Y-5139137D01*
X4949213Y-5127409D01*
X5011524Y-5093381D01*
X5082339Y-5098444D01*
X5127406Y-5127406D01*
X7463095Y-7463095D01*
X7497121Y-7525407D01*
X7500000Y-7552190D01*
X7500000Y-22447810D01*
X7479998Y-22515931D01*
X7463095Y-22536905D01*
X5127406Y-24872593D01*
X5065094Y-24906619D01*
X4994278Y-24901554D01*
X4949216Y-24872593D01*
X4937495Y-24860872D01*
X4937485Y-24860863D01*
X4793005Y-24750000D01*
X4711236Y-24687257D01*
X4711235Y-24687256D01*
X4711232Y-24687254D01*
X4464275Y-24544673D01*
X4464270Y-24544670D01*
X4464264Y-24544667D01*
X4200792Y-24435533D01*
X3925330Y-24361723D01*
X3925323Y-24361721D01*
X3642592Y-24324500D01*
X3642590Y-24324500D01*
X3357410Y-24324500D01*
X3357407Y-24324500D01*
X3074676Y-24361721D01*
X2843839Y-24423574D01*
X2799208Y-24435533D01*
X2580443Y-24526149D01*
X2535734Y-24544668D01*
X2535724Y-24544673D01*
X2288767Y-24687254D01*
X2062514Y-24860863D01*
X2062504Y-24860872D01*
X1860872Y-25062504D01*
X1860863Y-25062514D01*
X1687254Y-25288767D01*
X1544673Y-25535724D01*
X1544668Y-25535734D01*
X1435533Y-25799208D01*
X1435532Y-25799212D01*
X1361721Y-26074676D01*
X1324500Y-26357407D01*
X1324500Y-26642592D01*
X1361721Y-26925323D01*
X1361723Y-26925330D01*
X1435533Y-27200792D01*
X1544667Y-27464264D01*
X1544668Y-27464265D01*
X1544673Y-27464275D01*
X1687254Y-27711232D01*
X1860863Y-27937485D01*
X1860872Y-27937495D01*
X2062504Y-28139127D01*
X2062514Y-28139136D01*
X2062515Y-28139137D01*
X2288764Y-28312743D01*
X2535736Y-28455333D01*
X2799208Y-28564467D01*
X3074670Y-28638277D01*
X3074674Y-28638277D01*
X3074676Y-28638278D01*
X3147546Y-28647871D01*
X3357410Y-28675500D01*
X3357417Y-28675500D01*
X3374000Y-28675500D01*
X3442121Y-28695502D01*
X3488614Y-28749158D01*
X3500000Y-28801500D01*
X3500000Y-29624000D01*
X3479998Y-29692121D01*
X3426342Y-29738614D01*
X3374000Y-29750000D01*
X1739061Y-29750000D01*
X1720852Y-29748677D01*
X1719421Y-29748468D01*
X1707555Y-29746149D01*
X1454571Y-29683966D01*
X1448635Y-29682352D01*
X-12748371Y-25448157D01*
X-12748665Y-25448037D01*
X-12795349Y-25434144D01*
X-12801743Y-25432054D01*
X-13073679Y-25335048D01*
X-13086088Y-25329860D01*
X-13343113Y-25205879D01*
X-13354898Y-25199397D01*
X-13575079Y-25062504D01*
X-13597242Y-25048724D01*
X-13608268Y-25041023D01*
X-13795589Y-24894727D01*
X-13833152Y-24865390D01*
X-13843295Y-24856558D01*
X-14048196Y-24657934D01*
X-14057340Y-24648071D01*
X-14239894Y-24428747D01*
X-14247934Y-24417965D01*
X-14406065Y-24180437D01*
X-14412911Y-24168859D01*
X-14425488Y-24144734D01*
X-14500943Y-23999996D01*
X-7763729Y-23999996D01*
X-7763729Y-24000003D01*
X-7742921Y-24144727D01*
X-7742919Y-24144734D01*
X-7682176Y-24277743D01*
X-7586421Y-24388250D01*
X-7463411Y-24467304D01*
X-7341775Y-24503019D01*
X-7337575Y-24504253D01*
X-7277849Y-24542637D01*
X-7248356Y-24607218D01*
X-7248356Y-24643080D01*
X-7249073Y-24648071D01*
X-7263729Y-24750003D01*
X-7242921Y-24894727D01*
X-7242919Y-24894734D01*
X-7182176Y-25027743D01*
X-7086421Y-25138250D01*
X-6963411Y-25217304D01*
X-6843961Y-25252378D01*
X-6823115Y-25258499D01*
X-6823114Y-25258499D01*
X-6823111Y-25258500D01*
X-6823108Y-25258500D01*
X-6676892Y-25258500D01*
X-6676889Y-25258500D01*
X-6536589Y-25217304D01*
X-6413579Y-25138250D01*
X-6317824Y-25027743D01*
X-6257081Y-24894734D01*
X-6256773Y-24892589D01*
X-6236271Y-24750003D01*
X-6236271Y-24749996D01*
X-6257080Y-24605272D01*
X-6257081Y-24605271D01*
X-6257081Y-24605266D01*
X-6317824Y-24472257D01*
X-6413579Y-24361750D01*
X-6413580Y-24361749D01*
X-6475084Y-24322223D01*
X-6536589Y-24282696D01*
X-6536590Y-24282695D01*
X-6662426Y-24245746D01*
X-6722152Y-24207362D01*
X-6751645Y-24142781D01*
X-6751644Y-24106917D01*
X-6736271Y-24000001D01*
X-6736271Y-23999996D01*
X-6757080Y-23855272D01*
X-6757081Y-23855271D01*
X-6757081Y-23855266D01*
X-6817824Y-23722257D01*
X-6913579Y-23611750D01*
X-6913580Y-23611749D01*
X-6975084Y-23572223D01*
X-7036589Y-23532696D01*
X-7071664Y-23522397D01*
X-7176886Y-23491500D01*
X-7176889Y-23491500D01*
X-7323111Y-23491500D01*
X-7323115Y-23491500D01*
X-7463411Y-23532696D01*
X-7463413Y-23532697D01*
X-7586421Y-23611749D01*
X-7682176Y-23722256D01*
X-7742919Y-23855265D01*
X-7742921Y-23855272D01*
X-7763729Y-23999996D01*
X-14500943Y-23999996D01*
X-14501534Y-23998863D01*
X-14515287Y-23929215D01*
X-14489201Y-23863184D01*
X-14431558Y-23821738D01*
X-14360658Y-23818036D01*
X-14319803Y-23835854D01*
X-14255198Y-23879021D01*
X-14255189Y-23879026D01*
X-14072631Y-23954645D01*
X-13878810Y-23993199D01*
X-13878806Y-23993200D01*
X-13307500Y-23993200D01*
X-13307500Y-23390000D01*
X-13052500Y-23390000D01*
X-13052500Y-23993200D01*
X-12481194Y-23993200D01*
X-12481191Y-23993199D01*
X-12287370Y-23954645D01*
X-12104812Y-23879026D01*
X-12104808Y-23879024D01*
X-11940499Y-23769236D01*
X-11940493Y-23769231D01*
X-11800769Y-23629507D01*
X-11800764Y-23629501D01*
X-11690977Y-23465192D01*
X-11615353Y-23282622D01*
X-11615352Y-23282620D01*
X-11582507Y-23117500D01*
X-12200053Y-23117500D01*
X-12180000Y-23042661D01*
X-12180000Y-22937339D01*
X-12200053Y-22862500D01*
X-11582507Y-22862500D01*
X-11582508Y-22862499D01*
X-11615352Y-22697379D01*
X-11615353Y-22697377D01*
X-11690977Y-22514807D01*
X-11800764Y-22350498D01*
X-11800769Y-22350492D01*
X-11940493Y-22210768D01*
X-11940499Y-22210763D01*
X-12104808Y-22100975D01*
X-12104812Y-22100973D01*
X-12287370Y-22025354D01*
X-12414846Y-21999997D01*
X-6288798Y-21999997D01*
X-6288798Y-22000002D01*
X-6268455Y-22206554D01*
X-6268454Y-22206560D01*
X-6268453Y-22206561D01*
X-6208202Y-22405184D01*
X-6110358Y-22588237D01*
X-5978683Y-22748683D01*
X-5818237Y-22880358D01*
X-5635184Y-22978202D01*
X-5436561Y-23038453D01*
X-5436557Y-23038453D01*
X-5436555Y-23038454D01*
X-5230003Y-23058798D01*
X-5230000Y-23058798D01*
X-5229997Y-23058798D01*
X-5023446Y-23038454D01*
X-5023445Y-23038453D01*
X-5023439Y-23038453D01*
X-4824816Y-22978202D01*
X-4641763Y-22880358D01*
X-4481317Y-22748683D01*
X-4349642Y-22588237D01*
X-4251798Y-22405184D01*
X-4191547Y-22206561D01*
X-4171202Y-22000000D01*
X-4172502Y-21986800D01*
X-4191546Y-21793445D01*
X-4191547Y-21793443D01*
X-4191547Y-21793439D01*
X-4251798Y-21594816D01*
X-4349642Y-21411763D01*
X-4481317Y-21251317D01*
X-4641763Y-21119642D01*
X-4824816Y-21021798D01*
X-5023439Y-20961547D01*
X-5023440Y-20961546D01*
X-5023446Y-20961545D01*
X-5229997Y-20941202D01*
X-5230003Y-20941202D01*
X-5436555Y-20961545D01*
X-5635185Y-21021798D01*
X-5818238Y-21119642D01*
X-5978683Y-21251317D01*
X-6110358Y-21411762D01*
X-6208202Y-21594815D01*
X-6268455Y-21793445D01*
X-6288798Y-21999997D01*
X-12414846Y-21999997D01*
X-12481191Y-21986800D01*
X-13052500Y-21986800D01*
X-13052500Y-22590000D01*
X-13307500Y-22590000D01*
X-13307500Y-21986800D01*
X-13878810Y-21986800D01*
X-14072631Y-22025354D01*
X-14255189Y-22100973D01*
X-14255193Y-22100975D01*
X-14419502Y-22210763D01*
X-14419508Y-22210768D01*
X-14559232Y-22350492D01*
X-14559237Y-22350498D01*
X-14568735Y-22364714D01*
X-14623212Y-22410242D01*
X-14693655Y-22419090D01*
X-14757699Y-22388448D01*
X-14795011Y-22328047D01*
X-14799500Y-22294712D01*
X-14799500Y-20643389D01*
X-9930500Y-20643389D01*
X-9930500Y-20816611D01*
X-9903402Y-20987701D01*
X-9849873Y-21152445D01*
X-9849872Y-21152448D01*
X-9849870Y-21152452D01*
X-9771232Y-21306788D01*
X-9669413Y-21446930D01*
X-9546931Y-21569412D01*
X-9546928Y-21569414D01*
X-9406788Y-21671232D01*
X-9252445Y-21749873D01*
X-9087701Y-21803402D01*
X-8916611Y-21830500D01*
X-8916608Y-21830500D01*
X-8743392Y-21830500D01*
X-8743389Y-21830500D01*
X-8572299Y-21803402D01*
X-8407555Y-21749873D01*
X-8253212Y-21671232D01*
X-8113072Y-21569414D01*
X-7990586Y-21446928D01*
X-7888768Y-21306788D01*
X-7810127Y-21152445D01*
X-7756598Y-20987701D01*
X-7729500Y-20816611D01*
X-7729500Y-20643389D01*
X-7756598Y-20472299D01*
X-7810127Y-20307555D01*
X-7888768Y-20153212D01*
X-7990586Y-20013072D01*
X-7990588Y-20013069D01*
X-8113070Y-19890587D01*
X-8253212Y-19788768D01*
X-8407548Y-19710130D01*
X-8407552Y-19710128D01*
X-8407555Y-19710127D01*
X-8572299Y-19656598D01*
X-8743389Y-19629500D01*
X-8916611Y-19629500D01*
X-9087701Y-19656598D01*
X-9087704Y-19656598D01*
X-9087705Y-19656599D01*
X-9118364Y-19666561D01*
X-9252445Y-19710127D01*
X-9252447Y-19710127D01*
X-9252453Y-19710130D01*
X-9406789Y-19788768D01*
X-9546931Y-19890587D01*
X-9669413Y-20013069D01*
X-9771232Y-20153211D01*
X-9849870Y-20307547D01*
X-9849873Y-20307553D01*
X-9849873Y-20307555D01*
X-9903402Y-20472299D01*
X-9930500Y-20643389D01*
X-14799500Y-20643389D01*
X-14799500Y-19756186D01*
X-14798893Y-19743837D01*
X-14791282Y-19666561D01*
X-14785354Y-19606368D01*
X-14780539Y-19582158D01*
X-14742244Y-19455916D01*
X-14732793Y-19433102D01*
X-14692014Y-19356810D01*
X-14670608Y-19316761D01*
X-14656893Y-19296235D01*
X-14573199Y-19194253D01*
X-14555747Y-19176801D01*
X-14453765Y-19093107D01*
X-14433239Y-19079392D01*
X-14316897Y-19017206D01*
X-14294084Y-19007756D01*
X-14167842Y-18969461D01*
X-14143632Y-18964646D01*
X-14025164Y-18952978D01*
X-14006162Y-18951107D01*
X-13993813Y-18950500D01*
X-13905522Y-18950500D01*
X-13905519Y-18950500D01*
X-13718882Y-18920940D01*
X-13539168Y-18862547D01*
X-13370801Y-18776760D01*
X-13217927Y-18665690D01*
X-13084310Y-18532073D01*
X-12973240Y-18379199D01*
X-12887453Y-18210832D01*
X-12829060Y-18031118D01*
X-12799500Y-17844481D01*
X-12799500Y-17750000D01*
X-12799500Y-17710118D01*
X-12799500Y-12439996D01*
X-11238315Y-12439996D01*
X-11238315Y-12440003D01*
X-11219903Y-12626951D01*
X-11219902Y-12626957D01*
X-11219901Y-12626958D01*
X-11165368Y-12806731D01*
X-11076810Y-12972411D01*
X-10957631Y-13117631D01*
X-10812411Y-13236810D01*
X-10646731Y-13325368D01*
X-10600390Y-13339425D01*
X-10541009Y-13378341D01*
X-10512093Y-13443182D01*
X-10522824Y-13513363D01*
X-10569794Y-13566602D01*
X-10600389Y-13580574D01*
X-10611111Y-13583827D01*
X-10646733Y-13594632D01*
X-10812412Y-13683190D01*
X-10957631Y-13802369D01*
X-11076810Y-13947588D01*
X-11165368Y-14113268D01*
X-11219903Y-14293048D01*
X-11238315Y-14479996D01*
X-11238315Y-14480003D01*
X-11219903Y-14666951D01*
X-11219902Y-14666957D01*
X-11219901Y-14666958D01*
X-11165368Y-14846731D01*
X-11076810Y-15012411D01*
X-10957631Y-15157631D01*
X-10812411Y-15276810D01*
X-10646731Y-15365368D01*
X-10600390Y-15379425D01*
X-10541009Y-15418341D01*
X-10512093Y-15483182D01*
X-10522824Y-15553363D01*
X-10569794Y-15606602D01*
X-10600389Y-15620574D01*
X-10613861Y-15624660D01*
X-10646733Y-15634632D01*
X-10812412Y-15723190D01*
X-10957631Y-15842369D01*
X-11076810Y-15987588D01*
X-11165368Y-16153268D01*
X-11219903Y-16333048D01*
X-11238315Y-16519996D01*
X-11238315Y-16520003D01*
X-11219903Y-16706951D01*
X-11219902Y-16706957D01*
X-11219901Y-16706958D01*
X-11165368Y-16886731D01*
X-11076810Y-17052411D01*
X-10957631Y-17197631D01*
X-10812411Y-17316810D01*
X-10646731Y-17405368D01*
X-10600390Y-17419425D01*
X-10541009Y-17458341D01*
X-10512093Y-17523182D01*
X-10522824Y-17593363D01*
X-10569794Y-17646602D01*
X-10600389Y-17660574D01*
X-10613861Y-17664660D01*
X-10646733Y-17674632D01*
X-10812412Y-17763190D01*
X-10957631Y-17882369D01*
X-11076810Y-18027588D01*
X-11165368Y-18193268D01*
X-11219903Y-18373048D01*
X-11238315Y-18559996D01*
X-11238315Y-18560003D01*
X-11219903Y-18746951D01*
X-11219902Y-18746957D01*
X-11219901Y-18746958D01*
X-11165368Y-18926731D01*
X-11076810Y-19092411D01*
X-10957631Y-19237631D01*
X-10812411Y-19356810D01*
X-10646731Y-19445368D01*
X-10466958Y-19499901D01*
X-10466954Y-19499901D01*
X-10466952Y-19499902D01*
X-10280003Y-19518315D01*
X-10280000Y-19518315D01*
X-10279997Y-19518315D01*
X-10093049Y-19499902D01*
X-10093048Y-19499901D01*
X-10093042Y-19499901D01*
X-9961495Y-19459997D01*
X-6288798Y-19459997D01*
X-6288798Y-19460002D01*
X-6268455Y-19666554D01*
X-6268454Y-19666560D01*
X-6268453Y-19666561D01*
X-6208202Y-19865184D01*
X-6110358Y-20048237D01*
X-5978683Y-20208683D01*
X-5818237Y-20340358D01*
X-5635184Y-20438202D01*
X-5436561Y-20498453D01*
X-5436557Y-20498453D01*
X-5436555Y-20498454D01*
X-5230003Y-20518798D01*
X-5230000Y-20518798D01*
X-5229997Y-20518798D01*
X-5023446Y-20498454D01*
X-5023445Y-20498453D01*
X-5023439Y-20498453D01*
X-4824816Y-20438202D01*
X-4641763Y-20340358D01*
X-4481317Y-20208683D01*
X-4349642Y-20048237D01*
X-4251798Y-19865184D01*
X-4191547Y-19666561D01*
X-4190565Y-19656599D01*
X-4171202Y-19460002D01*
X-4171202Y-19459997D01*
X-4191546Y-19253445D01*
X-4191547Y-19253443D01*
X-4191547Y-19253439D01*
X-4251798Y-19054816D01*
X-4349642Y-18871763D01*
X-4481317Y-18711317D01*
X-4641763Y-18579642D01*
X-4824816Y-18481798D01*
X-5023439Y-18421547D01*
X-5023440Y-18421546D01*
X-5023446Y-18421545D01*
X-5229997Y-18401202D01*
X-5230003Y-18401202D01*
X-5436555Y-18421545D01*
X-5635185Y-18481798D01*
X-5818238Y-18579642D01*
X-5978683Y-18711317D01*
X-6110358Y-18871762D01*
X-6208202Y-19054815D01*
X-6268455Y-19253445D01*
X-6288798Y-19459997D01*
X-9961495Y-19459997D01*
X-9913269Y-19445368D01*
X-9747589Y-19356810D01*
X-9602369Y-19237631D01*
X-9483190Y-19092411D01*
X-9394632Y-18926731D01*
X-9340099Y-18746958D01*
X-9336588Y-18711317D01*
X-9321685Y-18560003D01*
X-9321685Y-18559996D01*
X-9340705Y-18366882D01*
X-9339448Y-18366758D01*
X-9333715Y-18302640D01*
X-9290165Y-18246569D01*
X-9223214Y-18222944D01*
X-9154119Y-18239266D01*
X-9136534Y-18251358D01*
X-9032411Y-18336810D01*
X-8866731Y-18425368D01*
X-8686958Y-18479901D01*
X-8686954Y-18479901D01*
X-8686952Y-18479902D01*
X-8500003Y-18498315D01*
X-8500000Y-18498315D01*
X-8499997Y-18498315D01*
X-8313049Y-18479902D01*
X-8313048Y-18479901D01*
X-8313042Y-18479901D01*
X-8133269Y-18425368D01*
X-7967589Y-18336810D01*
X-7822369Y-18217631D01*
X-7703190Y-18072411D01*
X-7614632Y-17906731D01*
X-7560099Y-17726958D01*
X-7553560Y-17660575D01*
X-7541685Y-17540003D01*
X-7541685Y-17539996D01*
X-7560098Y-17353048D01*
X-7560099Y-17353046D01*
X-7560099Y-17353042D01*
X-7614632Y-17173269D01*
X-7703190Y-17007589D01*
X-7822369Y-16862369D01*
X-7967589Y-16743190D01*
X-8133269Y-16654632D01*
X-8179611Y-16640574D01*
X-8238991Y-16601660D01*
X-8267907Y-16536819D01*
X-8257177Y-16466638D01*
X-8210208Y-16413399D01*
X-8179612Y-16399425D01*
X-8133269Y-16385368D01*
X-7967589Y-16296810D01*
X-7822369Y-16177631D01*
X-7703190Y-16032411D01*
X-7614632Y-15866731D01*
X-7560099Y-15686958D01*
X-7553560Y-15620575D01*
X-7541685Y-15500003D01*
X-7541685Y-15499996D01*
X-7560098Y-15313048D01*
X-7560099Y-15313046D01*
X-7560099Y-15313042D01*
X-7614632Y-15133269D01*
X-7703190Y-14967589D01*
X-7822369Y-14822369D01*
X-7967589Y-14703190D01*
X-8133269Y-14614632D01*
X-8179611Y-14600574D01*
X-8238991Y-14561660D01*
X-8267907Y-14496819D01*
X-8257177Y-14426638D01*
X-8210208Y-14373399D01*
X-8179612Y-14359425D01*
X-8133269Y-14345368D01*
X-7967589Y-14256810D01*
X-7822369Y-14137631D01*
X-7703190Y-13992411D01*
X-7614632Y-13826731D01*
X-7560099Y-13646958D01*
X-7553881Y-13583834D01*
X-7541685Y-13460003D01*
X-7541685Y-13459996D01*
X-7560098Y-13273048D01*
X-7560099Y-13273046D01*
X-7560099Y-13273042D01*
X-7614632Y-13093269D01*
X-7703190Y-12927589D01*
X-7822369Y-12782369D01*
X-7967589Y-12663190D01*
X-8065566Y-12610820D01*
X-8075669Y-12600896D01*
X2431925Y-12600896D01*
X2431925Y-12600903D01*
X2452733Y-12745627D01*
X2452735Y-12745634D01*
X2513478Y-12878643D01*
X2564467Y-12937488D01*
X2593960Y-13002069D01*
X2583855Y-13072343D01*
X2564467Y-13102512D01*
X2513478Y-13161356D01*
X2452735Y-13294365D01*
X2452733Y-13294372D01*
X2431925Y-13439096D01*
X2431925Y-13439103D01*
X2452733Y-13583827D01*
X2452735Y-13583834D01*
X2513478Y-13716843D01*
X2609233Y-13827350D01*
X2732243Y-13906404D01*
X2851693Y-13941478D01*
X2872539Y-13947599D01*
X2872540Y-13947599D01*
X2872543Y-13947600D01*
X2872546Y-13947600D01*
X3018762Y-13947600D01*
X3018765Y-13947600D01*
X3159065Y-13906404D01*
X3282075Y-13827350D01*
X3377830Y-13716843D01*
X3438573Y-13583834D01*
X3447509Y-13521685D01*
X3459383Y-13439103D01*
X3459383Y-13439096D01*
X3438574Y-13294372D01*
X3438573Y-13294371D01*
X3438573Y-13294366D01*
X3377830Y-13161357D01*
X3326840Y-13102512D01*
X3297348Y-13037932D01*
X3307451Y-12967658D01*
X3326841Y-12937487D01*
X3335418Y-12927589D01*
X3377830Y-12878643D01*
X3438573Y-12745634D01*
X3450427Y-12663190D01*
X3459383Y-12600903D01*
X3459383Y-12600896D01*
X3438574Y-12456172D01*
X3438573Y-12456171D01*
X3438573Y-12456166D01*
X3377830Y-12323157D01*
X3282075Y-12212650D01*
X3282074Y-12212649D01*
X3193182Y-12155522D01*
X3159065Y-12133596D01*
X3123990Y-12123297D01*
X3018768Y-12092400D01*
X3018765Y-12092400D01*
X2872543Y-12092400D01*
X2872539Y-12092400D01*
X2732243Y-12133596D01*
X2732241Y-12133597D01*
X2609233Y-12212649D01*
X2513478Y-12323156D01*
X2452735Y-12456165D01*
X2452733Y-12456172D01*
X2431925Y-12600896D01*
X-8075669Y-12600896D01*
X-8116213Y-12561069D01*
X-8131923Y-12491832D01*
X-8107707Y-12425093D01*
X-8051254Y-12382041D01*
X-8006170Y-12373699D01*
X-7945348Y-12373699D01*
X-7914699Y-12370826D01*
X-7785605Y-12325654D01*
X-7675562Y-12244438D01*
X-7594346Y-12134395D01*
X-7549174Y-12005301D01*
X-7546300Y-11974653D01*
X-7546301Y-10865348D01*
X-7549174Y-10834699D01*
X-7587013Y-10726561D01*
X-7594344Y-10705610D01*
X-7594347Y-10705603D01*
X-7675562Y-10595561D01*
X-7777947Y-10519997D01*
X-6288798Y-10519997D01*
X-6288798Y-10520002D01*
X-6268455Y-10726554D01*
X-6268454Y-10726560D01*
X-6268453Y-10726561D01*
X-6208202Y-10925184D01*
X-6110358Y-11108237D01*
X-5978683Y-11268683D01*
X-5818237Y-11400358D01*
X-5635184Y-11498202D01*
X-5436561Y-11558453D01*
X-5436557Y-11558453D01*
X-5436555Y-11558454D01*
X-5230003Y-11578798D01*
X-5230000Y-11578798D01*
X-5229997Y-11578798D01*
X-5023446Y-11558454D01*
X-5023445Y-11558453D01*
X-5023439Y-11558453D01*
X-4824816Y-11498202D01*
X-4641763Y-11400358D01*
X-4481317Y-11268683D01*
X-4349642Y-11108237D01*
X-4251798Y-10925184D01*
X-4191547Y-10726561D01*
X-4189997Y-10710832D01*
X-4171202Y-10520002D01*
X-4171202Y-10519997D01*
X-4191546Y-10313445D01*
X-4191547Y-10313443D01*
X-4191547Y-10313439D01*
X-4251798Y-10114816D01*
X-4349642Y-9931763D01*
X-4481317Y-9771317D01*
X-4641763Y-9639642D01*
X-4824816Y-9541798D01*
X-5023439Y-9481547D01*
X-5023440Y-9481546D01*
X-5023446Y-9481545D01*
X-5229997Y-9461202D01*
X-5230003Y-9461202D01*
X-5436555Y-9481545D01*
X-5635185Y-9541798D01*
X-5818238Y-9639642D01*
X-5978683Y-9771317D01*
X-6110358Y-9931762D01*
X-6208202Y-10114815D01*
X-6268455Y-10313445D01*
X-6288798Y-10519997D01*
X-7777947Y-10519997D01*
X-7785604Y-10514346D01*
X-7785611Y-10514343D01*
X-7914694Y-10469175D01*
X-7914699Y-10469174D01*
X-7945345Y-10466300D01*
X-8268238Y-10466300D01*
X-8336359Y-10446298D01*
X-8382852Y-10392642D01*
X-8392956Y-10322368D01*
X-8363462Y-10257788D01*
X-8325443Y-10228034D01*
X-8253212Y-10191232D01*
X-8113072Y-10089414D01*
X-7990586Y-9966928D01*
X-7888768Y-9826788D01*
X-7810127Y-9672445D01*
X-7756598Y-9507701D01*
X-7729500Y-9336611D01*
X-7729500Y-9249998D01*
X3750000Y-9249998D01*
X3750000Y-20750001D01*
X3999998Y-20999999D01*
X4000000Y-21000000D01*
X5750000Y-21000000D01*
X6000000Y-20750000D01*
X6000000Y-9250000D01*
X5999999Y-9249998D01*
X5750001Y-9000000D01*
X5750000Y-9000000D01*
X4000000Y-9000000D01*
X3999998Y-9000000D01*
X3750000Y-9249998D01*
X-7729500Y-9249998D01*
X-7729500Y-9163389D01*
X-7756598Y-8992299D01*
X-7810127Y-8827555D01*
X-7888768Y-8673212D01*
X-7990586Y-8533072D01*
X-7990588Y-8533069D01*
X-8113070Y-8410587D01*
X-8253212Y-8308768D01*
X-8407548Y-8230130D01*
X-8407552Y-8230128D01*
X-8407555Y-8230127D01*
X-8572299Y-8176598D01*
X-8743389Y-8149500D01*
X-8916611Y-8149500D01*
X-9087701Y-8176598D01*
X-9087704Y-8176598D01*
X-9087705Y-8176599D01*
X-9118364Y-8186561D01*
X-9252445Y-8230127D01*
X-9252447Y-8230127D01*
X-9252453Y-8230130D01*
X-9406789Y-8308768D01*
X-9546931Y-8410587D01*
X-9669413Y-8533069D01*
X-9771232Y-8673211D01*
X-9849870Y-8827547D01*
X-9849873Y-8827553D01*
X-9849873Y-8827555D01*
X-9903402Y-8992299D01*
X-9930500Y-9163389D01*
X-9930500Y-9336611D01*
X-9903402Y-9507701D01*
X-9849873Y-9672445D01*
X-9849872Y-9672448D01*
X-9849870Y-9672452D01*
X-9771232Y-9826788D01*
X-9669413Y-9966930D01*
X-9546931Y-10089412D01*
X-9546928Y-10089414D01*
X-9406788Y-10191232D01*
X-9252445Y-10269873D01*
X-9225644Y-10278581D01*
X-9167038Y-10318654D01*
X-9139400Y-10384050D01*
X-9151506Y-10454007D01*
X-9199512Y-10506314D01*
X-9206271Y-10509499D01*
X-9206042Y-10509931D01*
X-9214397Y-10514346D01*
X-9324439Y-10595561D01*
X-9405654Y-10705603D01*
X-9405657Y-10705610D01*
X-9450825Y-10834693D01*
X-9450826Y-10834698D01*
X-9453700Y-10865344D01*
X-9453700Y-11617974D01*
X-9473702Y-11686095D01*
X-9527358Y-11732588D01*
X-9597632Y-11742692D01*
X-9659634Y-11715373D01*
X-9747589Y-11643190D01*
X-9913269Y-11554632D01*
X-10093049Y-11500097D01*
X-10279997Y-11481685D01*
X-10280003Y-11481685D01*
X-10466952Y-11500097D01*
X-10646732Y-11554632D01*
X-10812412Y-11643190D01*
X-10957631Y-11762369D01*
X-11076810Y-11907588D01*
X-11165368Y-12073268D01*
X-11219903Y-12253048D01*
X-11238315Y-12439996D01*
X-12799500Y-12439996D01*
X-12799500Y-12210118D01*
X-12799500Y-12155519D01*
X-12829060Y-11968882D01*
X-12887453Y-11789168D01*
X-12973240Y-11620801D01*
X-13052755Y-11511358D01*
X-13084312Y-11467924D01*
X-13217925Y-11334311D01*
X-13370798Y-11223242D01*
X-13370799Y-11223241D01*
X-13370801Y-11223240D01*
X-13539168Y-11137453D01*
X-13539169Y-11137452D01*
X-13539172Y-11137451D01*
X-13718877Y-11079061D01*
X-13718881Y-11079060D01*
X-13718882Y-11079060D01*
X-13905519Y-11049500D01*
X-13905522Y-11049500D01*
X-13993813Y-11049500D01*
X-14006163Y-11048893D01*
X-14143626Y-11035354D01*
X-14167852Y-11030535D01*
X-14195873Y-11022035D01*
X-14294079Y-10992244D01*
X-14316898Y-10982792D01*
X-14433233Y-10920610D01*
X-14453770Y-10906888D01*
X-14487509Y-10879199D01*
X-14555741Y-10823203D01*
X-14573206Y-10805738D01*
X-14651093Y-10710832D01*
X-14656890Y-10703768D01*
X-14670611Y-10683232D01*
X-14732793Y-10566897D01*
X-14742245Y-10544078D01*
X-14746176Y-10531118D01*
X-14780538Y-10417843D01*
X-14785354Y-10393631D01*
X-14798867Y-10256431D01*
X-14799472Y-10243572D01*
X-14788466Y-7701253D01*
X-14768169Y-7633221D01*
X-14714313Y-7586961D01*
X-14643996Y-7577161D01*
X-14579543Y-7606934D01*
X-14563605Y-7625079D01*
X-14563163Y-7624717D01*
X-14559232Y-7629507D01*
X-14419508Y-7769231D01*
X-14419502Y-7769236D01*
X-14255193Y-7879024D01*
X-14255189Y-7879026D01*
X-14072631Y-7954645D01*
X-13878810Y-7993199D01*
X-13878806Y-7993200D01*
X-13307500Y-7993200D01*
X-13307500Y-7390000D01*
X-13052500Y-7390000D01*
X-13052500Y-7993200D01*
X-12481194Y-7993200D01*
X-12481191Y-7993199D01*
X-12414821Y-7979997D01*
X-6288798Y-7979997D01*
X-6288798Y-7980002D01*
X-6268455Y-8186554D01*
X-6268454Y-8186560D01*
X-6268453Y-8186561D01*
X-6208202Y-8385184D01*
X-6110358Y-8568237D01*
X-5978683Y-8728683D01*
X-5818237Y-8860358D01*
X-5635184Y-8958202D01*
X-5436561Y-9018453D01*
X-5436557Y-9018453D01*
X-5436555Y-9018454D01*
X-5230003Y-9038798D01*
X-5230000Y-9038798D01*
X-5229997Y-9038798D01*
X-5023446Y-9018454D01*
X-5023445Y-9018453D01*
X-5023439Y-9018453D01*
X-4824816Y-8958202D01*
X-4641763Y-8860358D01*
X-4481317Y-8728683D01*
X-4349642Y-8568237D01*
X-4251798Y-8385184D01*
X-4191547Y-8186561D01*
X-4190565Y-8176599D01*
X-4171202Y-7980002D01*
X-4171202Y-7979997D01*
X-4191546Y-7773445D01*
X-4191547Y-7773443D01*
X-4191547Y-7773439D01*
X-4251798Y-7574816D01*
X-4349642Y-7391763D01*
X-4481317Y-7231317D01*
X-4641763Y-7099642D01*
X-4824816Y-7001798D01*
X-5023439Y-6941547D01*
X-5023440Y-6941546D01*
X-5023446Y-6941545D01*
X-5229997Y-6921202D01*
X-5230003Y-6921202D01*
X-5436555Y-6941545D01*
X-5635185Y-7001798D01*
X-5818238Y-7099642D01*
X-5978683Y-7231317D01*
X-6110358Y-7391762D01*
X-6208202Y-7574815D01*
X-6268455Y-7773445D01*
X-6288798Y-7979997D01*
X-12414821Y-7979997D01*
X-12287370Y-7954645D01*
X-12104812Y-7879026D01*
X-12104808Y-7879024D01*
X-11940499Y-7769236D01*
X-11940493Y-7769231D01*
X-11800769Y-7629507D01*
X-11800764Y-7629501D01*
X-11690977Y-7465192D01*
X-11615353Y-7282622D01*
X-11615352Y-7282620D01*
X-11582507Y-7117500D01*
X-12200053Y-7117500D01*
X-12180000Y-7042661D01*
X-12180000Y-6937339D01*
X-12200053Y-6862500D01*
X-11582507Y-6862500D01*
X-11582508Y-6862499D01*
X-11615352Y-6697379D01*
X-11615353Y-6697377D01*
X-11690977Y-6514807D01*
X-11800764Y-6350498D01*
X-11800769Y-6350492D01*
X-11940493Y-6210768D01*
X-11940499Y-6210763D01*
X-12104808Y-6100975D01*
X-12104812Y-6100973D01*
X-12287370Y-6025354D01*
X-12414851Y-5999996D01*
X-2263729Y-5999996D01*
X-2263729Y-6000003D01*
X-2242921Y-6144727D01*
X-2242919Y-6144734D01*
X-2182176Y-6277743D01*
X-2086421Y-6388250D01*
X-1963411Y-6467304D01*
X-1843961Y-6502378D01*
X-1823115Y-6508499D01*
X-1823114Y-6508499D01*
X-1823111Y-6508500D01*
X-1823108Y-6508500D01*
X-1676892Y-6508500D01*
X-1676889Y-6508500D01*
X-1536589Y-6467304D01*
X-1413579Y-6388250D01*
X-1317824Y-6277743D01*
X-1257081Y-6144734D01*
X-1239916Y-6025354D01*
X-1236271Y-6000003D01*
X-1236271Y-5999996D01*
X-1257080Y-5855272D01*
X-1257081Y-5855271D01*
X-1257081Y-5855266D01*
X-1317824Y-5722257D01*
X-1413579Y-5611750D01*
X-1413580Y-5611749D01*
X-1496481Y-5558472D01*
X-1536589Y-5532696D01*
X-1571664Y-5522397D01*
X-1676886Y-5491500D01*
X-1676889Y-5491500D01*
X-1823111Y-5491500D01*
X-1823115Y-5491500D01*
X-1963411Y-5532696D01*
X-1963413Y-5532697D01*
X-2086421Y-5611749D01*
X-2182176Y-5722256D01*
X-2242919Y-5855265D01*
X-2242921Y-5855272D01*
X-2263729Y-5999996D01*
X-12414851Y-5999996D01*
X-12481191Y-5986800D01*
X-13052500Y-5986800D01*
X-13052500Y-6590000D01*
X-13307500Y-6590000D01*
X-13307500Y-5986800D01*
X-13878810Y-5986800D01*
X-14072631Y-6025354D01*
X-14255189Y-6100973D01*
X-14255191Y-6100974D01*
X-14294005Y-6126909D01*
X-14361759Y-6148123D01*
X-14430225Y-6129339D01*
X-14477668Y-6076521D01*
X-14489023Y-6006439D01*
X-14475736Y-5963897D01*
X-14399847Y-5818334D01*
X-14393026Y-5806798D01*
X-14234865Y-5569235D01*
X-14226846Y-5558481D01*
X-14044266Y-5339132D01*
X-14035145Y-5329294D01*
X-13830239Y-5130669D01*
X-13820110Y-5121848D01*
X-13595185Y-4946185D01*
X-13584193Y-4938509D01*
X-13341827Y-4787822D01*
X-13330067Y-4781355D01*
X-13073024Y-4657363D01*
X-13060629Y-4652181D01*
X-12787984Y-4554921D01*
X-12781618Y-4552840D01*
X-12747303Y-4542629D01*
X-12747303Y-4542628D01*
X-12726163Y-4536338D01*
X-12726150Y-4536331D01*
X-9898513Y-3694772D01*
X-9827520Y-3694512D01*
X-9767653Y-3732676D01*
X-9737923Y-3797149D01*
X-9741676Y-3851030D01*
X-9742920Y-3855265D01*
X-9763729Y-3999996D01*
X-9763729Y-4000003D01*
X-9742921Y-4144727D01*
X-9742919Y-4144734D01*
X-9682176Y-4277743D01*
X-9586421Y-4388250D01*
X-9463411Y-4467304D01*
X-9343961Y-4502378D01*
X-9323115Y-4508499D01*
X-9323114Y-4508499D01*
X-9323111Y-4508500D01*
X-9323108Y-4508500D01*
X-9176892Y-4508500D01*
X-9176889Y-4508500D01*
X-9036589Y-4467304D01*
X-8913579Y-4388250D01*
X-8817824Y-4277743D01*
X-8757081Y-4144734D01*
X-8736271Y-4000000D01*
X-8736271Y-3999996D01*
X-8757080Y-3855272D01*
X-8757081Y-3855271D01*
X-8757081Y-3855266D01*
X-8817824Y-3722257D01*
X-8886854Y-3642592D01*
X-8913580Y-3611748D01*
X-8920391Y-3605847D01*
X-8917838Y-3602900D01*
X-8952372Y-3563313D01*
X-8962712Y-3493074D01*
X-8933436Y-3428394D01*
X-8873878Y-3389822D01*
X1394618Y-333721D01*
X1394627Y-333721D01*
X1413210Y-328189D01*
X1413211Y-328190D01*
X1448541Y-317674D01*
X1454368Y-316092D01*
X1707576Y-253838D01*
X1719522Y-251508D01*
X1720909Y-251306D01*
X1739007Y-250000D01*
X3374000Y-250000D01*
X3442121Y-270002D01*
G37*
%TD.AperFunction*%
%TD*%
M02*
