%TF.GenerationSoftware,KiCad,Pcbnew,8.0.7*%
%TF.CreationDate,2024-12-30T22:20:21-08:00*%
%TF.ProjectId,pizero-papoe,70697a65-726f-42d7-9061-706f652e6b69,0.1*%
%TF.SameCoordinates,PX652f520PY4a19ba0*%
%TF.FileFunction,Profile,NP*%
%FSLAX46Y46*%
G04 Gerber Fmt 4.6, Leading zero omitted, Abs format (unit mm)*
G04 Created by KiCad (PCBNEW 8.0.7) date 2024-12-30 22:20:21*
%MOMM*%
%LPD*%
G01*
G04 APERTURE LIST*
%TA.AperFunction,Profile*%
%ADD10C,0.100000*%
%TD*%
G04 APERTURE END LIST*
D10*
X64250000Y-19500000D02*
G75*
G02*
X65000000Y-20250000I0J-750000D01*
G01*
X-14986958Y-7237190D02*
G75*
G02*
X-12842708Y-4361872I2999958J-10D01*
G01*
X62000000Y0D02*
G75*
G02*
X65000000Y-3000000I0J-3000000D01*
G01*
X65000000Y-27000000D02*
G75*
G02*
X62000000Y-30000000I-3000000J0D01*
G01*
X63500000Y-18750000D02*
X63500000Y-11250000D01*
X1394239Y-124644D02*
X-12842719Y-4361834D01*
X-15000000Y-19750000D02*
X-15000000Y-22750000D01*
X65000000Y-3000000D02*
X65000000Y-9750000D01*
X1394239Y-29875356D02*
X-12855761Y-25625356D01*
X-13000000Y-17750000D02*
G75*
G02*
X-14000000Y-18750000I-1000000J0D01*
G01*
X64250000Y-19500000D02*
G75*
G02*
X63500000Y-18750000I0J750000D01*
G01*
X-14000000Y-11250000D02*
G75*
G02*
X-13000000Y-12250000I0J-1000000D01*
G01*
X-15000000Y-10250000D02*
X-14986958Y-7237190D01*
X63500000Y-11250000D02*
G75*
G02*
X64250000Y-10500000I750000J0D01*
G01*
X65000000Y-9750000D02*
G75*
G02*
X64250000Y-10500000I-750000J0D01*
G01*
X-12855761Y-25625356D02*
G75*
G02*
X-14999975Y-22750000I855661J2875256D01*
G01*
X1394239Y-124644D02*
G75*
G02*
X2250000Y8I855761J-2875156D01*
G01*
X-13000000Y-12250000D02*
X-13000000Y-17750000D01*
X65000000Y-20250000D02*
X65000000Y-27000000D01*
X-15000000Y-19750000D02*
G75*
G02*
X-14000000Y-18750000I1000000J0D01*
G01*
X2250000Y-30000000D02*
X62000000Y-30000000D01*
X2250000Y-30000000D02*
G75*
G02*
X1394236Y-29875365I100J3000900D01*
G01*
X-14000000Y-11250000D02*
G75*
G02*
X-15000000Y-10250000I0J1000000D01*
G01*
X2250000Y0D02*
X62000000Y0D01*
M02*
